<svg width="64" height="64" viewBox="0 0 64 64" fill="none" xmlns="http://www.w3.org/2000/svg">
<path d="M45.2108 8.0498H18.7892C12.83 8.0498 8 12.8798 8 18.8378V45.161C8 51.119 12.83 55.9502 18.7892 55.9502H45.212C51.17 55.949 56 51.119 56 45.161V18.8378C56 12.8798 51.17 8.0498 45.2108 8.0498ZM21.4052 46.067C20.9588 46.8302 20.156 47.2538 19.3316 47.2538C18.92 47.2538 18.5024 47.1482 18.1208 46.925C16.9772 46.2542 16.5932 44.7842 17.264 43.6418L17.6132 43.0454C18.2312 42.851 18.8816 42.7454 19.55 42.7646H19.556C20.7836 42.8006 21.8108 43.3562 22.5128 44.1758L21.4052 46.067ZM34.8956 40.361H16.4C15.0752 40.361 14 39.2858 14 37.961C14 36.6362 15.0752 35.561 16.4 35.561H21.998L29.0372 23.549L26.864 19.8398C26.1932 18.6962 26.5772 17.2262 27.7208 16.5554C28.8644 15.8858 30.3344 16.2686 31.0052 17.4122L31.8188 18.8006L32.6324 17.4122C33.302 16.2686 34.772 15.8858 35.9168 16.5554C37.0604 17.2262 37.4444 18.6962 36.7736 19.8398L27.5612 35.561H32.5772C33.3272 36.0602 33.9716 36.7202 34.436 37.529L34.4396 37.5338C34.9676 38.4518 35.084 39.4454 34.8956 40.361ZM47.6 40.361H44.4524L46.3748 43.6406C47.0456 44.783 46.6616 46.2542 45.518 46.9238C45.1364 47.1482 44.7188 47.2526 44.3072 47.2526C43.4828 47.2526 42.6812 46.8278 42.2336 46.0658L34.8524 33.4694C33.8516 31.6106 33.8888 29.357 34.9832 27.5378L35.9744 25.8902L41.6396 35.561H47.6C48.9248 35.561 50 36.6362 50 37.961C50 39.2858 48.9248 40.361 47.6 40.361Z" fill="#CCCCCC"/>
</svg>
