<svg xmlns="http://www.w3.org/2000/svg" width="21.86" height="21.86" viewBox="0 0 21.86 21.86"><title>category</title><g id="Layer_2" data-name="Layer 2"><g id="Layer_1-2" data-name="Layer 1"><path d="M9.618,1.749V7.87A1.749,1.749,0,0,1,7.87,9.618H1.749A1.749,1.749,0,0,1,0,7.87V1.749A1.749,1.749,0,0,1,1.749,0H7.87A1.749,1.749,0,0,1,9.618,1.749ZM20.111,0H13.99a1.749,1.749,0,0,0-1.748,1.749V7.87A1.749,1.749,0,0,0,13.99,9.618h6.121A1.749,1.749,0,0,0,21.86,7.87V1.749A1.749,1.749,0,0,0,20.111,0ZM7.87,12.242H1.749A1.749,1.749,0,0,0,0,13.99v6.121A1.749,1.749,0,0,0,1.749,21.86H7.87a1.749,1.749,0,0,0,1.748-1.749V13.99A1.749,1.749,0,0,0,7.87,12.242Zm9.181,0a4.809,4.809,0,1,0,4.809,4.809A4.809,4.809,0,0,0,17.051,12.242Z" fill="#fff"/></g></g></svg>