<svg xmlns="http://www.w3.org/2000/svg" viewBox="0 0 21.33 21.33"><defs><style>.cls-1,.cls-2{fill:#ffffff;}.cls-2{opacity:0.8;}</style></defs><title>Asset 9</title><g id="Layer_2" data-name="Layer 2"><g id="Layer_1-2" data-name="Layer 1"><path class="cls-1" d="M20.66,5.33H.67A.67.67,0,0,0,0,6V20.66a.67.67,0,0,0,.67.67h20a.67.67,0,0,0,.67-.67V6A.67.67,0,0,0,20.66,5.33ZM14,11.91a.66.66,0,0,1-.67-.66A1.93,1.93,0,0,0,12,9.58v7.08c0,1.12-1.17,2-2.67,2s-2.67-.88-2.67-2,1.17-2,2.67-2a3.32,3.32,0,0,1,1.33.27V8.66a.69.69,0,0,1,.24-.51A.66.66,0,0,1,11.45,8c1.11.21,3.21,1.15,3.21,3.24A.66.66,0,0,1,14,11.91Z"/><path class="cls-2" d="M18.66,3.33A.66.66,0,0,0,18,2.67H3.33a.65.65,0,0,0-.66.66V4h16Z"/><path class="cls-2" d="M16,.67A.67.67,0,0,0,15.33,0H6a.67.67,0,0,0-.67.67v.66H16Z"/></g></g></svg>