<svg xmlns="http://www.w3.org/2000/svg" viewBox="0 0 16.03 22.07"><defs><style>.cls-1{fill:#2c2b43;}.cls-2{fill:#4a4c74;}</style></defs><title>Asset 10</title><g id="Layer_2" data-name="Layer 2"><g id="Layer_1-2" data-name="Layer 1"><path class="cls-1" d="M12,10.81V4A4,4,0,1,0,4,4v6.82a4,4,0,1,0,8,0Z"/><path class="cls-2" d="M15.09,11.22V7.94c.41-.29.91-.73.94-1.11,0-.62-.94-1.2-.94-1.2H13.7v5.59a5.68,5.68,0,1,1-11.35,0V5.63H1S0,6.18,0,6.83C0,7.21.54,7.66,1,8v3.27a7.08,7.08,0,0,0,5.4,6.87v2.49H5.05v1.49H11V20.58H9.69V18.09A7.08,7.08,0,0,0,15.09,11.22Z"/></g></g></svg>