<svg width="24" height="24" viewBox="0 0 24 24" fill="none" xmlns="http://www.w3.org/2000/svg">
<path d="M15.5338 22C15.5001 21.8882 15.477 21.7751 15.4334 21.6647C14.8103 20.0888 13.3123 19.0703 11.6174 19.0703C11.329 19.0703 11.0481 19.1016 10.7764 19.1586L13.6178 22H15.5338Z" fill="white"/>
<path d="M7.70703 22H11.9607L9.5893 19.6287C8.6893 20.1461 8.01176 20.9876 7.70703 22Z" fill="white"/>
<path d="M16.7531 22H19.2344V19.0703C19.2344 17.455 17.9201 16.1406 16.3047 16.1406H7.7583L9.84463 18.227C10.4012 18.0266 10.9925 17.8984 11.6172 17.8984C13.7962 17.8984 15.7217 19.2077 16.5228 21.2338C16.6223 21.4856 16.694 21.7421 16.7531 22V22Z" fill="white"/>
<path d="M8.72906 18.7686L6.20336 16.2429C4.94027 16.5682 4 17.7071 4 19.0703V22H6.48535C6.79285 20.6548 7.60988 19.505 8.72906 18.7686Z" fill="white"/>
<path d="M16.8906 5.51562C16.8906 3.54437 14.5743 2 11.6172 2C8.66004 2 6.34375 3.54437 6.34375 5.51562C6.34375 5.97918 6.4782 6.36055 6.68207 6.6875H16.5523C16.7562 6.36055 16.8906 5.97918 16.8906 5.51562Z" fill="white"/>
<path d="M7.51562 9.76514V10.789C7.51562 13.0504 9.35582 14.9687 11.6172 14.9687C13.8786 14.9687 15.7188 13.0504 15.7188 10.789V9.76514C14.7837 10.4013 13.357 10.789 11.6172 10.789C9.87738 10.789 8.45066 10.4013 7.51562 9.76514Z" fill="white"/>
<path d="M7.51562 7.85938C7.51562 8.8302 9.35195 9.61719 11.6172 9.61719C13.8824 9.61719 15.7188 8.8302 15.7188 7.85938H7.51562Z" fill="white"/>
</svg>
