<svg xmlns="http://www.w3.org/2000/svg" viewBox="0 0 22.45 22.45"><defs><style>.cls-1{fill:#4a4c75;}.cls-2{fill:#2d2b43;}</style></defs><title>Asset 5</title><g id="Layer_2" data-name="Layer 2"><g id="Layer_1-2" data-name="Layer 1"><path class="cls-1" d="M22.45,4l-1-3-3-1V2l-.74.74-.41-.41a.7.7,0,0,0-1,1l.41.41L12.62,7.84h0a1.09,1.09,0,0,0-.17-.13,5.69,5.69,0,0,0-4-.48.72.72,0,0,0-.52.52A4,4,0,0,1,6.81,9.69a3.5,3.5,0,0,1-.38.32,3.79,3.79,0,0,1-1.57.77,3.85,3.85,0,0,1-1.65.08.64.64,0,0,0-.52.11,5.57,5.57,0,0,0-.84.7,6.31,6.31,0,1,0,8.93,8.93,5.19,5.19,0,0,0,.7-.85.62.62,0,0,0,.11-.51A4.16,4.16,0,0,1,12.46,16a3.58,3.58,0,0,1,.3-.36,4.13,4.13,0,0,1,1.94-1.09.71.71,0,0,0,.52-.51,5.64,5.64,0,0,0-.49-4,.66.66,0,0,0-.12-.17h0L18.73,5.7l.41.41a.73.73,0,0,0,1,0,.71.71,0,0,0,0-1l-.41-.41L20.46,4ZM7.51,18.73a.69.69,0,0,1-1,0l-2.81-2.8a.71.71,0,0,1,0-1,.69.69,0,0,1,1,0l2.81,2.8A.69.69,0,0,1,7.51,18.73Z"/><rect class="cls-2" x="4.88" y="14.1" width="1.45" height="5.46" rx="0.72" transform="translate(-10.26 8.89) rotate(-45)"/></g></g></svg>