<svg xmlns="http://www.w3.org/2000/svg" viewBox="0 0 21.92 17.96"><defs><style>.cls-1{fill:#5790cc;}</style></defs><title>Asset 13</title><g id="Layer_2" data-name="Layer 2"><g id="Layer_1-2" data-name="Layer 1"><path class="cls-1" d="M18.8,6.16a1.15,1.15,0,0,0-1.53-.54l-.51.24a2.32,2.32,0,0,0,.3-1.18c0-1-.58-1.86-1.29-1.86a1.15,1.15,0,0,0-.36.07A4.69,4.69,0,0,0,6.7,3H6.45C5.73,3,5.18,3.88,5.2,4.9s.63,1.84,1.34,1.82A.9.9,0,0,0,7,6.56.73.73,0,0,1,7,6.44a4.48,4.48,0,1,1,8.6-1.74,4.3,4.3,0,0,1-.36,1.74l.21.09a2.29,2.29,0,0,0,.37,0,1,1,0,0,0,.57-.19l1.9,4L15.71,9l.2-.83a.45.45,0,0,0-.3-.53l-.49-.14a.61.61,0,0,0-.63.22A4.06,4.06,0,0,1,11.18,9,4,4,0,0,1,7.74,7.52a.67.67,0,0,0-.62-.28l-.79.15L.47,11.63a1.18,1.18,0,0,0-.47,1,1.17,1.17,0,0,0,.64.93L7,16.71l0,1,7.8.24.43-6.64,5,2.66a1.15,1.15,0,0,0,1.57-1.51ZM3.36,12.37,6.68,10l.09.64.11,3.5Z"/></g></g></svg>