<svg xmlns="http://www.w3.org/2000/svg" viewBox="0 0 22 21.14"><defs><style>.cls-1{fill:#ffffff;}.cls-2{fill:#ffffff;}</style></defs><title>Asset 16</title><g id="Layer_2" data-name="Layer 2"><g id="Layer_1-2" data-name="Layer 1"><path class="cls-1" d="M0,14.8l2.53,6.34,2.1-1.26L2.1,13.53Z"/><path class="cls-1" d="M21.68,11.41a4.4,4.4,0,0,0-3.55.26L14,14.08l0,0h0a1.64,1.64,0,0,1-1,.39H9.63V13.43h2.81a.95.95,0,0,0,0-1.89l-3.19,0-.19,0a3.84,3.84,0,0,0-3.28-.06,4.44,4.44,0,0,0-2,2.6L5.54,18.4h6.57l9.67-6.08a.53.53,0,0,0-.1-.91Z"/><path class="cls-2" d="M11.28,9.89A2.12,2.12,0,0,0,13.08,8a.49.49,0,0,0,0-.12V2.37l4.21-.89V5.24a2.54,2.54,0,0,0-1.23,0A2,2,0,0,0,14.3,7.42a2,2,0,0,0,2.52,1.31,2.13,2.13,0,0,0,1.79-1.88.5.5,0,0,0,0-.12V.66h0s0,0,0-.06a.17.17,0,0,0,0-.07h0v0a.49.49,0,0,0,0-.11s0,0,0-.05a.21.21,0,0,1,0-.06l0,0,0,0-.05,0-.05,0,0,0-.06,0-.07,0-.06,0h-.27L12.29,1.18a.67.67,0,0,0-.53.65V6.41a2.54,2.54,0,0,0-1.23,0A2,2,0,0,0,8.76,8.59,2,2,0,0,0,11.28,9.89Z"/></g></g></svg>