<svg xmlns="http://www.w3.org/2000/svg" viewBox="0 0 15.47 21.74"><defs><style>.cls-1,.cls-2{fill:#5790cc;}.cls-2{opacity:0.8;}</style></defs><title>Asset 15</title><g id="Layer_2" data-name="Layer 2"><g id="Layer_1-2" data-name="Layer 1"><path class="cls-1" d="M3.76,13.43s.44,1.12.58,1.56H3.58v.69c-.48.07-1.29.36-1.29.72s.81.65,1.29.72v.69H4.74v3.93h8.77V17.81h.66v-.69c.48-.07,1.3-.37,1.3-.72s-.82-.66-1.3-.73V15h-.55V2.64a1.23,1.23,0,0,0-2.46,0V5.17H6.23V1.23a1.24,1.24,0,0,0-2.47,0V8.37s-1.94-1.68-3-.76S.11,9.29.11,9.29Zm10.05,1.92v.34a.74.74,0,0,0-.54.71.73.73,0,0,0,.54.7v.34H3.94v-.33a.74.74,0,0,0,.56-.71.73.73,0,0,0-.56-.71v-.34Z"/><path class="cls-2" d="M6.32,17.13a.74.74,0,1,0,0-1.47c-.4,0-1.1.33-1.1.74S5.92,17.13,6.32,17.13Z"/><circle class="cls-2" cx="8.88" cy="16.4" r="0.74"/><path class="cls-2" d="M11.44,17.13c.41,0,1.11-.33,1.11-.73s-.7-.74-1.11-.74a.74.74,0,0,0,0,1.47Z"/></g></g></svg>