<svg xmlns="http://www.w3.org/2000/svg" width="16.395" height="21.86" viewBox="0 0 16.395 21.86"><title>orders</title><g id="Layer_2" data-name="Layer 2"><g id="Layer_1-2" data-name="Layer 1"><path d="M11.613,1.366H10.129a2.05,2.05,0,0,0-3.865,0H4.782a.683.683,0,0,0-.683.683V4.782a.683.683,0,0,0,.683.683h6.831a.683.683,0,0,0,.683-.683V2.049A.683.683,0,0,0,11.613,1.366Z" fill="#fff"/><path d="M15.029,2.733H13.663V4.782a2.052,2.052,0,0,1-2.05,2.049H4.782A2.051,2.051,0,0,1,2.733,4.782V2.733H1.366A1.368,1.368,0,0,0,0,4.1v16.4A1.351,1.351,0,0,0,1.366,21.86H15.029A1.351,1.351,0,0,0,16.4,20.494V4.1A1.351,1.351,0,0,0,15.029,2.733ZM8,14.829,5.266,17.562a.688.688,0,0,1-.968,0L2.932,16.2A.683.683,0,1,1,3.9,15.23l.884.882,2.249-2.249A.683.683,0,0,1,8,14.829ZM8,9.364,5.266,12.1a.688.688,0,0,1-.968,0L2.932,10.731A.683.683,0,0,1,3.9,9.765l.884.882L7.031,8.4A.683.683,0,0,1,8,9.364ZM12.979,16.4H10.247a.683.683,0,0,1,0-1.366h2.732a.683.683,0,1,1,0,1.366Zm0-5.465H10.247a.683.683,0,0,1,0-1.366h2.732a.683.683,0,1,1,0,1.366Z" fill="#fff"/></g></g></svg>