<svg xmlns="http://www.w3.org/2000/svg" viewBox="0 0 21.82 21.82"><defs><style>.cls-1,.cls-2{fill:#5790cc;}.cls-2{opacity:0.8;}</style></defs><title>Asset 7</title><g id="Layer_2" data-name="Layer 2"><g id="Layer_1-2" data-name="Layer 1"><path class="cls-1" d="M20.46,0H1.36A1.36,1.36,0,0,0,0,1.36V13.64A1.36,1.36,0,0,0,1.36,15h8.87v3.08L7.07,20.61a.68.68,0,0,0-.1,1,.69.69,0,0,0,.53.25.7.7,0,0,0,.43-.15l3-2.38,3,2.38a.7.7,0,0,0,.43.15.67.67,0,0,0,.53-.26.68.68,0,0,0-.1-1l-3.16-2.52V15h8.87a1.36,1.36,0,0,0,1.36-1.36V1.36A1.36,1.36,0,0,0,20.46,0ZM19.09,13a.68.68,0,0,1-.68.68h-15A.68.68,0,0,1,2.73,13V2.73a.67.67,0,0,1,.4-.62,8.32,8.32,0,0,1,7.78.49,8.32,8.32,0,0,1,7.78-.49.67.67,0,0,1,.4.62Zm1.37,1.36v-.68h0Z"/><path class="cls-2" d="M14.32,8.18H13a.69.69,0,1,0,0,1.37h1.36a.69.69,0,0,0,0-1.37Z"/><path class="cls-2" d="M15.68,5.46H13a.68.68,0,1,0,0,1.36h2.72a.68.68,0,1,0,0-1.36Z"/><path class="cls-2" d="M8.87,5.46H6.14a.68.68,0,0,0,0,1.36H8.87a.68.68,0,0,0,0-1.36Z"/><path class="cls-2" d="M8.87,8.18H6.14a.69.69,0,0,0,0,1.37H8.87a.69.69,0,0,0,0-1.37Z"/></g></g></svg>