<svg xmlns="http://www.w3.org/2000/svg" width="21.86" height="19.213" viewBox="0 0 21.86 19.213"><title>Asset 1</title><g id="Layer_2" data-name="Layer 2"><g id="Layer_1-2" data-name="Layer 1"><path d="M16.1,0A5.764,5.764,0,1,0,21.86,5.764,5.771,5.771,0,0,0,16.1,0Zm.641,8.848v1.4H15.456v-1.4a1.911,1.911,0,0,1-1.13-1.052l1.18-.5a.641.641,0,1,0,.59-.89,1.916,1.916,0,0,1-.64-3.724v-1.4h1.281v1.4a1.911,1.911,0,0,1,1.129,1.053l-1.179.5a.641.641,0,1,0-.591.889,1.917,1.917,0,0,1,.641,3.725Z" fill="#fff"/><path d="M0,8.966H2.562v6.4H0Z" fill="#fff"/><path d="M10.134,16.651,6.956,13.473l.906-.906L10.29,15,12.1,13.184,7.883,8.966h-4v6.4h.376L8.1,19.213h9.872V16.651Z" fill="#fff"/></g></g></svg>