<svg xmlns="http://www.w3.org/2000/svg" width="21.86" height="19.127" viewBox="0 0 21.86 19.127"><title>store</title><g id="Layer_2" data-name="Layer 2"><g id="Layer_1-2" data-name="Layer 1"><path d="M21.84,5.983,20.6,1.034A1.365,1.365,0,0,0,19.278,0H2.584A1.367,1.367,0,0,0,1.257,1.034L.02,5.983A.7.7,0,0,0,0,6.148,3.337,3.337,0,0,0,3.245,9.564,3.19,3.19,0,0,0,5.807,8.243a3.144,3.144,0,0,0,5.123,0,3.144,3.144,0,0,0,5.123,0,3.189,3.189,0,0,0,2.562,1.321A3.337,3.337,0,0,0,21.86,6.148.7.7,0,0,0,21.84,5.983Z" fill="#fff"/><path d="M18.615,10.93a4.474,4.474,0,0,1-2.562-.8,4.6,4.6,0,0,1-5.123,0,4.6,4.6,0,0,1-5.123,0,4.437,4.437,0,0,1-4.441.378v7.256a1.367,1.367,0,0,0,1.367,1.366H8.2V13.663h5.465v5.464h5.464a1.367,1.367,0,0,0,1.367-1.366V10.505A4.43,4.43,0,0,1,18.615,10.93Z" fill="#fff"/></g></g></svg>