<svg xmlns="http://www.w3.org/2000/svg" width="21.86" height="21.86" viewBox="0 0 21.86 21.86"><title>subcategory</title><g id="Layer_2" data-name="Layer 2"><g id="Layer_1-2" data-name="Layer 1"><path d="M21.86,3.279V5.465a1.093,1.093,0,0,1-1.093,1.093H14.209a1.093,1.093,0,0,1-1.093-1.093H2.186V10.93h10.93a1.093,1.093,0,0,1,1.093-1.093h6.558A1.093,1.093,0,0,1,21.86,10.93v2.186a1.093,1.093,0,0,1-1.093,1.093H14.209a1.093,1.093,0,0,1-1.093-1.093H2.186v5.465h10.93a1.093,1.093,0,0,1,1.093-1.093h6.558a1.093,1.093,0,0,1,1.093,1.093v2.186a1.093,1.093,0,0,1-1.093,1.093H14.209a1.093,1.093,0,0,1-1.093-1.093H1.093A1.093,1.093,0,0,1,0,19.674V1.093a1.093,1.093,0,0,1,2.186,0V3.279h10.93a1.093,1.093,0,0,1,1.093-1.093h6.558A1.093,1.093,0,0,1,21.86,3.279Z" fill="#fff"/></g></g></svg>