<svg width="126" height="126" viewBox="0 0 126 126" fill="none" xmlns="http://www.w3.org/2000/svg">
<path d="M92.6166 67.3497C91.2773 75.3065 90.2259 82.1693 88.933 88.9909C87.8076 94.9352 86.5562 100.859 85.3678 106.793C84.8623 109.311 84.3674 111.829 83.8727 114.358C83.4531 116.525 83.3817 118.816 82.3724 120.818C80.3136 124.894 75.0607 124.843 71.032 125.245C67.4731 125.606 63.8755 125.658 60.2912 125.39C53.4062 124.894 46.5982 123.233 40.2257 120.519C27.7451 115.214 17.0435 105.947 9.9209 94.5121C2.79828 83.0775 -0.739559 68.8358 0.697289 55.265C1.05644 51.8697 1.70925 48.5053 2.62555 45.2235C11.2298 14.4388 42.1236 -3.6935 71.6114 1.46652C99.3135 6.31695 116.604 23.0148 124.696 49.3619C125.082 50.6313 124.989 52.0245 125.194 54.0575H53.3328C52.5626 58.6499 51.893 62.6335 51.0943 67.3497H92.6166Z" fill="url(#paint0_linear_1_15)"/>
<defs>
<linearGradient id="paint0_linear_1_15" x1="130.383" y1="43.1491" x2="-14.4576" y2="55.4803" gradientUnits="userSpaceOnUse">
<stop stop-color="#302929"/>
<stop offset="1" stop-color="#CB2026" stop-opacity="0"/>
<stop offset="1" stop-color="#CB2026"/>
</linearGradient>
</defs>
</svg>
