<svg width="76" height="76" viewBox="0 0 76 76" fill="none" xmlns="http://www.w3.org/2000/svg">
<g clip-path="url(#clip0_420_4240)">
<path d="M56.1534 75.0408C56.155 74.9975 56.1499 74.9541 56.1383 74.9123C55.39 72.3759 51.6769 70.7959 51.6769 70.7959L50.2057 70.8945C49.3595 73.1301 49.4683 74.5015 49.6042 75.1122C49.6081 75.1293 49.6141 75.1454 49.6193 75.162C50.8332 75.2548 53.3313 75.3153 56.1534 75.0408Z" fill="url(#paint0_linear_420_4240)"/>
<path d="M49.6196 75.1622C49.6532 75.2651 49.7144 75.357 49.7966 75.428C49.8789 75.499 49.9791 75.5465 50.0865 75.5654C51.8129 75.876 54.557 75.6261 55.7091 75.4973C55.9631 75.4701 56.1485 75.2678 56.1532 75.041C53.3313 75.3155 50.8332 75.255 49.6196 75.1622Z" fill="url(#paint1_linear_420_4240)"/>
<path d="M49.6143 69.0205L50.2374 71.5861C50.2618 71.68 50.3154 71.7639 50.3906 71.8259C50.4659 71.8879 50.5589 71.9248 50.6565 71.9313C50.9779 71.959 51.3013 71.9546 51.6219 71.9183C51.9432 71.878 52.167 71.5984 52.1102 71.2986L51.6768 69.0205H49.6143Z" fill="url(#paint2_linear_420_4240)"/>
<path d="M62.5249 75.1362C60.8999 75.0973 60.0595 74.9336 59.625 74.7822C59.625 74.9203 59.625 75.061 59.6302 75.2067C59.6346 75.2836 59.6691 75.3557 59.7262 75.4078C59.7834 75.46 59.8588 75.4879 59.9364 75.4858L68.858 75.4365C69.1428 75.4349 69.3092 75.1525 69.1857 74.9293C68.016 75.0112 65.0367 75.195 62.5249 75.1362Z" fill="url(#paint3_linear_420_4240)"/>
<path d="M69.1856 74.9292C69.1759 74.9089 69.1641 74.8895 69.1505 74.8715C68.3625 73.93 66.3558 72.0549 62.3903 71.2416L60.4882 71.1904C60.4882 71.1904 59.6409 72.4497 59.625 74.7822C60.0595 74.9341 60.8999 75.0978 62.5249 75.1361C65.0367 75.1955 68.016 75.0117 69.1856 74.9292Z" fill="url(#paint4_linear_420_4240)"/>
<path d="M60.1357 68.7246C60.1569 68.846 60.4178 70.6893 60.5186 71.404C60.5322 71.4883 60.574 71.5657 60.6373 71.6237C60.7006 71.6816 60.7817 71.7168 60.8676 71.7236C61.1917 71.7568 61.7157 71.7868 62.1744 71.7065C62.4215 71.6632 62.6009 71.4598 62.6009 71.2235V68.3301L60.1357 68.7246Z" fill="url(#paint5_linear_420_4240)"/>
<path d="M58.6092 35.0859C58.6092 35.0859 63.1976 49.9996 63.1132 68.767C63.1116 69.1092 62.8306 69.4044 62.4393 69.4749C61.8626 69.5789 61.0145 69.7022 60.3125 69.6854C59.9376 69.6764 59.6243 69.4387 59.5614 69.1226C58.9179 65.8959 55.8467 47.3494 53.743 44.398C53.743 44.398 51.7381 60.9568 52.1808 69.3565C52.1918 69.5653 52.013 69.7463 51.7689 69.7706C51.2008 69.8224 50.629 69.821 50.0612 69.7665C49.7767 69.7393 49.5471 69.5566 49.5064 69.3143C49.0481 66.5832 46.4105 50.3274 46.5225 38.6175C46.5291 37.9573 48.5644 35.0859 48.5644 35.0859H58.6092Z" fill="url(#paint6_linear_420_4240)"/>
<path d="M43.513 13.9077C49.2202 10.3851 57.8144 12.1679 61.1386 12.5262C62.2286 12.6435 63.2258 13.1031 63.9437 13.8143C66.7922 16.6336 73.8556 27.665 62.4137 33.1058C61.651 32.5558 61.4492 30.9949 60.7717 29.7468C62.4082 27.6999 63.3782 25.6674 61.6725 22.5919C61.6142 22.8368 61.5414 23.0781 61.4544 23.3145C59.1033 29.6855 58.978 34.9871 58.9827 36.2088C58.9827 36.3749 58.8668 36.5241 58.6866 36.5859C55.5923 37.6477 49.6358 37.0152 47.6361 36.7604C47.2695 36.7136 47.0229 36.4217 47.0737 36.107C48.0549 30.0261 43.0184 20.0231 41.6884 17.5174C41.5931 17.3382 42.76 15.3779 43.513 13.9077Z" fill="url(#paint7_linear_420_4240)"/>
<path d="M50.9752 7.54499L50.3284 12.0393C50.2691 12.4523 50.553 12.8368 50.9801 12.9157C51.8647 13.0791 53.3917 13.2193 54.802 12.6533C55.2386 12.4779 55.4751 12.0216 55.3512 11.5873L54.3158 5.96094L50.9752 7.54499Z" fill="url(#paint8_linear_420_4240)"/>
<path d="M47.8265 3.10058C47.7914 3.19941 47.9116 9.79834 47.9116 9.79834L52.0531 9.17757L52.9608 2.78992C52.9608 2.78992 48.4186 1.44683 47.8265 3.10058Z" fill="url(#paint9_linear_420_4240)"/>
<path d="M51.5752 3.77997C51.6433 3.82533 51.6981 3.88771 51.7342 3.96079C51.7703 4.03388 51.7863 4.1151 51.7806 4.19626L51.59 7.51165C51.5871 7.56261 51.5768 7.61287 51.5592 7.66086C51.4601 7.93312 51.0715 8.78477 50.1709 8.4812C49.402 8.22282 48.6928 7.9952 48.1268 8.0649C47.7973 8.10547 47.5344 8.38781 47.541 8.68839C47.555 9.30698 47.6105 10.5521 47.8313 11.6319C47.8862 11.9025 48.1691 12.0596 48.4764 11.9953C49.2877 11.8254 50.8658 11.4508 52.1233 10.8875C52.3299 10.7949 52.4773 10.612 52.5078 10.4099C52.6451 9.5218 53.0425 7.03192 53.2713 6.33111C53.4836 5.68039 54.4042 5.32671 54.8367 5.19385C54.9993 5.14432 55.1382 5.03788 55.2276 4.89435C55.4863 4.47234 55.8469 3.59101 54.7288 3.13415C54.4509 3.02034 54.3583 2.70288 54.5124 2.42871C54.7884 1.93863 54.971 1.21685 54.0829 0.75835C53.1837 0.294135 52.3499 0.703897 51.8451 1.08262C51.6216 1.25061 51.3126 1.28927 51.1036 1.15477C51.0105 1.09514 50.8839 1.07173 50.7191 1.13571C50.4058 1.25633 50.0828 1.14742 49.988 0.873247C49.8257 0.403314 49.4193 -0.0903053 48.4174 0.0115225C46.5798 0.198298 46.0094 2.0282 46.2631 3.13252C46.5169 4.23683 48.5108 3.9308 49.5788 3.43963C50.3624 3.08106 51.1907 3.52159 51.5752 3.77997Z" fill="url(#paint10_linear_420_4240)"/>
<path d="M53.1873 7.55776C53.1873 7.55776 52.8383 5.60533 53.6841 5.17842C54.53 4.75151 55.595 5.05536 55.0724 6.42731C54.4232 8.13387 53.1873 7.55776 53.1873 7.55776Z" fill="url(#paint11_linear_420_4240)"/>
<path d="M61.9846 22.1157C63.2317 19.1962 62.7794 15.6711 62.7747 15.6357L62.4309 15.6692C62.4356 15.7038 62.8783 19.1613 61.6594 22.013L61.9846 22.1157Z" fill="#8E7714"/>
<path d="M37.0051 31.3604C36.9227 33.392 36.9576 35.642 37.1457 38.1346L39.0986 38.3434C39.0986 38.3434 39.905 35.3087 41.1645 31.7641C39.2285 31.9354 37.8422 31.6446 37.0051 31.3604Z" fill="url(#paint12_linear_420_4240)"/>
<path d="M46.6655 21.4325C46.6655 21.4325 46.1772 15.5867 43.4921 13.918C43.4921 13.918 37.5599 17.5663 37.0049 31.3618C37.842 31.6458 39.2294 31.9366 41.1642 31.7656C42.5888 27.7554 44.5925 23.0944 46.6655 21.4325Z" fill="#A78C1B"/>
<path d="M38.3662 37.508C38.3662 37.508 39.5866 37.9256 39.8308 39.5957C40.0749 41.2658 38.6103 42.5188 37.3898 42.3099C36.1694 42.1011 34.861 38.9695 37.1017 37.508C39.3425 36.0464 38.3662 37.508 38.3662 37.508Z" fill="url(#paint13_linear_420_4240)"/>
<path d="M25.3079 4.34766C25.3079 4.34766 23.5667 5.67741 21.1491 6.66982C19.8009 7.22334 17.1784 8.04123 16.8324 10.4306C16.6536 11.6643 15.5864 12.6523 14.1498 12.8407C10.5715 13.309 5.05766 14.8988 4.17525 20.2121C3.50185 24.2689 5.91919 25.8055 8.45601 26.3381C10.3194 26.7291 11.5577 28.2791 11.1807 29.8879C10.8192 31.4311 11.3581 33.215 14.484 34.6254C21.4872 37.7867 28.4838 27.1361 28.4838 27.1361L29.9174 8.54029L25.3079 4.34766Z" fill="url(#paint14_linear_420_4240)"/>
<path d="M9.32526 23.9428C9.2126 23.9373 9.10302 23.9045 9.00613 23.8472C7.37452 22.9379 6.50475 21.0614 6.89144 19.2835C7.12268 18.2187 7.73979 17.3003 8.62933 16.697C9.26099 16.2692 10.0107 16.0079 10.7254 15.777C11.9324 15.3868 13.1754 15.0419 14.4206 14.7552L14.7293 14.6846C15.4581 14.5186 16.2123 14.347 16.8948 14.0546C17.7736 13.6789 18.4119 13.1324 18.6958 12.5158C18.8724 12.1327 18.923 11.709 18.9721 11.2995C19.0317 10.7997 19.0938 10.2829 19.3841 9.84183C19.386 9.83972 19.3885 9.83836 19.3914 9.83799C19.3942 9.83762 19.397 9.83828 19.3994 9.83984C19.4018 9.84139 19.4035 9.84375 19.4043 9.84646C19.405 9.84918 19.4048 9.85208 19.4036 9.85463C19.1146 10.2903 19.0531 10.8051 18.9935 11.3023C18.9444 11.7134 18.8936 12.1389 18.7156 12.5253C18.4292 13.1471 17.7854 13.6979 16.903 14.0772C16.2181 14.3704 15.4634 14.5422 14.7334 14.7083C14.6305 14.7317 14.5276 14.7553 14.4247 14.7791C13.1803 15.0666 11.9376 15.4102 10.7314 15.8001C10.0173 16.0307 9.26978 16.2902 8.64114 16.7174C7.75654 17.3164 7.14273 18.2298 6.91286 19.2889C6.52837 21.057 7.39429 22.9234 9.01712 23.8276C9.14317 23.8979 9.38458 23.9826 9.49196 23.8549C9.494 23.8528 9.49675 23.8516 9.49964 23.8515C9.50254 23.8514 9.50538 23.8523 9.5076 23.8542C9.50982 23.856 9.51125 23.8586 9.51161 23.8615C9.51197 23.8643 9.51123 23.8672 9.50954 23.8696C9.4863 23.8947 9.45768 23.9143 9.42579 23.9269C9.39389 23.9396 9.35954 23.945 9.32526 23.9428Z" fill="white"/>
<path d="M8.90604 22.2653C8.90426 22.2653 8.90251 22.2649 8.9009 22.2641C8.8993 22.2634 8.89786 22.2623 8.8967 22.261C8.26724 21.4559 7.93932 20.611 7.94894 19.8174C7.95992 18.8895 8.46333 18.0267 9.26252 17.566C9.26518 17.5645 9.26833 17.5641 9.2713 17.5648C9.27426 17.5656 9.27678 17.5676 9.27831 17.5702C9.27984 17.5728 9.28025 17.576 9.27945 17.5789C9.27865 17.5818 9.27671 17.5843 9.27405 17.5859C8.482 18.0424 7.98327 18.8976 7.97201 19.8184C7.96267 20.608 8.28866 21.4466 8.9151 22.2473C8.91603 22.2485 8.9167 22.2499 8.91709 22.2514C8.91748 22.2528 8.91758 22.2543 8.91737 22.2558C8.91717 22.2573 8.91667 22.2588 8.9159 22.2601C8.91514 22.2614 8.91412 22.2625 8.91291 22.2634C8.91092 22.2648 8.90849 22.2655 8.90604 22.2653Z" fill="white"/>
<path d="M32.7517 20.1797C32.7517 20.1797 36.6573 29.7834 37.8778 38.3434L36.6573 39.3873C36.6573 39.3873 32.7517 28.5307 29.8228 25.399L32.7517 20.1797Z" fill="url(#paint15_linear_420_4240)"/>
<path d="M6.95684 73.0392L6.69154 74.901C6.64128 75.2549 6.31612 75.5335 5.90279 75.5738C5.20494 75.6421 4.08525 75.7121 2.98973 75.613C2.50884 75.5694 2.19658 75.1528 2.34296 74.7589C2.61018 74.0401 3.09876 72.9619 3.8032 72.3262H6.2178C6.66408 72.3262 7.01067 72.6602 6.95684 73.0392Z" fill="url(#paint16_linear_420_4240)"/>
<path d="M25.8697 51.2305L26.2772 53.2809C26.2772 53.2809 24.9123 65.1052 24.6695 69.8348C24.6313 70.5764 24.8557 71.3091 25.3108 71.941L27.6839 75.2374L21.6523 72.1931L21.5323 71.5637L22.5196 70.4027L21.2264 57.1566C21.1506 56.3785 21.3382 55.5979 21.7671 54.9088L23.0148 52.9041L25.8697 51.2305Z" fill="url(#paint17_linear_420_4240)"/>
<path d="M28.0811 75.7145H26.1562C25.7959 75.7145 25.4562 75.5729 25.2364 75.3286C24.6364 74.6619 23.3931 73.361 22.7988 73.3269C21.9985 73.2812 22.1009 75.7145 22.1009 75.7145H21.6522L21.0839 72.6923C20.9411 71.93 21.3836 71.1777 22.1825 70.8213C22.1825 70.8213 22.3654 71.9784 23.3574 72.4903C24.3494 73.0021 27.3945 74.835 27.3945 74.835C27.655 74.8089 27.9177 74.8148 28.1767 74.8527C28.7831 74.9453 28.6982 75.7145 28.0811 75.7145Z" fill="url(#paint18_linear_420_4240)"/>
<path d="M17.6083 52.2038C17.6083 52.2038 9.61255 65.1754 8.34154 68.1377C7.07052 71.1 6.62534 73.5703 6.60913 73.8044C6.58167 74.1698 6.0508 74.5205 4.58534 74.5205C3.82899 74.5205 3.45933 74.2613 3.27725 74.0102C3.2026 73.9083 3.15975 73.7869 3.15399 73.6611C3.14823 73.5353 3.17982 73.4106 3.24484 73.3023C3.70733 72.5016 5.17526 69.9431 5.71877 68.7827C6.36691 67.3977 7.76261 61.1187 8.52857 58.9359C9.29453 56.7531 10.1599 54.385 13.494 52.2038C13.494 52.2038 15.782 50.2862 17.6083 52.2038Z" fill="url(#paint19_linear_420_4240)"/>
<path d="M22.6593 30.9478C24.7218 23.4727 19.4966 19.245 19.4966 19.245C22.7922 16.5384 28.8004 15.3066 28.8004 15.3066C28.8004 15.3066 34.5323 18.8908 33.8537 21.6962C33.4552 23.3404 29.8248 31.5449 29.8248 31.5449C29.8248 31.5449 26.4652 32.9035 22.6593 30.9478Z" fill="url(#paint20_linear_420_4240)"/>
<path d="M18.0865 34.6489C18.9258 32.4863 22.6594 30.9482 22.6594 30.9482C26.4664 32.9039 29.8236 31.5453 29.8236 31.5453C29.8236 31.5453 30.5764 34.0063 30.0568 36.2936C29.5371 38.581 26.2772 53.2806 26.2772 53.2806C21.1415 54.1707 13.2402 52.3849 13.2402 52.3849C16.5122 47.4166 17.2469 36.8118 18.0865 34.6489Z" fill="url(#paint21_linear_420_4240)"/>
<path d="M25.0534 10.3685L23.3765 16.8109C23.2158 17.3783 23.8209 17.2855 24.4915 17.1771C25.5901 17.0001 27.0058 16.6353 27.479 15.9043C27.5243 15.8301 27.5536 15.7474 27.565 15.6614L28.2853 11.1943C28.3425 10.8404 28.1184 10.4959 27.7361 10.3503L26.3459 9.82399C25.8106 9.61952 25.191 9.8809 25.0534 10.3685Z" fill="url(#paint22_linear_420_4240)"/>
<path d="M30.3357 6.13245C30.3357 6.13245 31.6103 7.74618 31.3439 10.4732C31.0775 13.2002 29.567 13.6217 28.4009 13.1006C27.2348 12.5795 25.6384 11.5876 24.8491 9.24528C24.0598 6.90297 28.6313 4.10297 30.3357 6.13245Z" fill="url(#paint23_linear_420_4240)"/>
<path d="M26.7489 8.85067C26.7489 8.85067 27.5453 5.10591 30.7327 6.98102L31.1754 7.86343C31.1754 7.86343 33.4824 6.91458 32.1257 4.9774C30.769 3.04022 28.0855 2.34349 25.7868 3.99452C23.4881 5.64555 22.3539 6.99463 22.9897 8.83352C23.6254 10.6724 24.9898 9.84663 24.9898 9.84663C24.9898 9.84663 24.9212 8.44499 25.5764 8.1131C26.2317 7.78121 26.4926 8.81637 26.4926 8.81637L26.7489 8.85067Z" fill="url(#paint24_linear_420_4240)"/>
<path d="M26.2523 9.48445C26.2523 9.48445 26.6744 7.5628 25.391 7.65455C24.1076 7.7463 25.1046 9.49207 25.5327 10.121L26.2523 9.48445Z" fill="url(#paint25_linear_420_4240)"/>
<path fill-rule="evenodd" clip-rule="evenodd" d="M34.4936 33.4623C34.4936 33.4623 34.1915 31.8681 35.431 31.5245C35.431 31.5245 34.8696 29.6859 36.6243 29.6916C36.6243 29.6916 39.6247 25.9937 42.0448 29.7842C42.0448 29.7842 47.4606 30.1109 45.3187 34.1759C45.3187 34.1759 46.7383 35.4351 44.6725 36.4507C44.6725 36.4507 43.0027 41.4274 39.2388 38.2204L34.4936 33.4623Z" fill="url(#paint26_linear_420_4240)"/>
<path d="M51.5958 29.8763C50.472 28.7328 49.6585 30.2689 49.6585 30.2689C48.7539 30.5711 49.6585 32.4991 49.6585 32.4993C49.1046 33.5631 46.2157 39.031 44.6497 40.3801C42.9129 41.8775 45.7068 42.2661 45.7068 42.2661C45.7068 42.2661 48.8283 40.8182 50.5785 32.938C50.5931 32.933 50.607 32.9262 50.6197 32.9175C50.8584 32.7367 52.7204 31.0207 51.5958 29.8763Z" fill="#FBC6D7"/>
<path d="M33.4893 40.6287C32.0807 39.4152 29.456 34.29 28.5146 32.3964C28.6851 31.9964 29.2492 30.5297 28.4693 30.2692C28.4693 30.2692 27.6558 28.7325 26.532 29.8766C25.4955 30.9321 26.9989 32.4732 27.4246 32.8478C28.3094 37.2858 31.5328 42.2653 31.5328 42.2653C31.5328 42.2653 35.2261 42.125 33.4893 40.6287Z" fill="#FBC6D7"/>
<path fill-rule="evenodd" clip-rule="evenodd" d="M39.1049 74.0029C39.1049 74.0029 39.3567 74.93 39.3394 75.6147C39.3384 75.667 39.3184 75.7172 39.2831 75.7561C39.2478 75.795 39.1995 75.82 39.1472 75.8265C38.5155 75.9128 36.3607 76.169 35.1767 75.8265C35.1304 75.813 35.0898 75.7847 35.0613 75.746C35.0328 75.7074 35.018 75.6604 35.0191 75.6125C35.0298 75.2442 35.2915 74.3795 37.454 74.1587L39.1049 74.0029Z" fill="url(#paint27_linear_420_4240)"/>
<path fill-rule="evenodd" clip-rule="evenodd" d="M35.3838 59.8213C35.1177 59.9936 37.1253 73.9712 37.6119 74.0728C37.6119 74.0728 38.1683 74.5852 39.0268 74.0012C38.5311 69.4456 38.2304 64.8258 38.4962 60.1028L35.3838 59.8213Z" fill="url(#paint28_linear_420_4240)"/>
<path fill-rule="evenodd" clip-rule="evenodd" d="M43.9134 74.0029C43.9134 74.0029 44.1653 74.93 44.148 75.6147C44.1469 75.667 44.1269 75.7172 44.0916 75.7561C44.0563 75.795 44.0081 75.82 43.9557 75.8265C43.3241 75.9128 41.1693 76.169 39.9853 75.8265C39.939 75.813 39.8984 75.7847 39.8699 75.746C39.8414 75.7074 39.8266 75.6604 39.8277 75.6125C39.8384 75.2442 40.1001 74.3795 42.2626 74.1587L43.9134 74.0029Z" fill="url(#paint29_linear_420_4240)"/>
<path fill-rule="evenodd" clip-rule="evenodd" d="M40.1924 59.8213C39.9263 59.9936 41.9338 73.9712 42.4205 74.0728C42.4205 74.0728 42.9769 74.5852 43.8354 74.0012C43.3397 69.4456 43.039 64.8258 43.3048 60.1028L40.1924 59.8213Z" fill="url(#paint30_linear_420_4240)"/>
<path fill-rule="evenodd" clip-rule="evenodd" d="M42.4258 51.3379C42.4258 51.3379 35.878 51.6347 34.3186 52.1776C34.3186 52.1776 34.5108 57.4552 35.151 60.6982C35.1629 60.7597 35.1926 60.8166 35.2365 60.8618C35.2804 60.907 35.3366 60.9386 35.3982 60.9527C35.8184 61.0491 36.876 61.1871 38.5521 60.7218C38.6245 60.7016 38.6876 60.6573 38.7308 60.5964C38.7741 60.5354 38.7949 60.4616 38.7897 60.3872L38.6169 58.285C38.6124 58.2174 38.6351 58.1507 38.6801 58.0997C38.7251 58.0487 38.7887 58.0174 38.8569 58.0128L39.0322 57.9856C39.0672 57.9834 39.1023 57.9883 39.1353 58C39.1684 58.0117 39.1987 58.03 39.2244 58.0536C39.2501 58.0773 39.2706 58.106 39.2848 58.1378C39.299 58.1696 39.3065 58.204 39.3068 58.2388L39.638 60.3709C39.6385 60.4382 39.6601 60.5036 39.6999 60.5582C39.7396 60.6127 39.7956 60.6535 39.8599 60.675C40.3521 60.8405 41.6327 61.149 43.3217 60.6388C43.3882 60.6188 43.4465 60.5783 43.4881 60.5231C43.5298 60.468 43.5526 60.4011 43.5532 60.3322C43.5711 57.7446 43.1023 54.6495 42.4258 51.3379Z" fill="#404040"/>
<path fill-rule="evenodd" clip-rule="evenodd" d="M39.9714 51.793C39.9714 51.793 40.7989 54.0744 42.7963 54.2325L42.3547 51.631C42.3547 51.631 40.808 51.6196 39.9714 51.793Z" fill="url(#paint31_linear_420_4240)"/>
<path fill-rule="evenodd" clip-rule="evenodd" d="M45.4953 39.3321C45.4953 39.3321 42.5359 41.2181 38.9425 41.0084C35.9454 40.8336 34.1246 40.0759 33.1123 39.2213C32.7501 38.9158 32.2354 38.8657 31.8355 39.1208C31.2402 39.5051 30.6924 39.9574 30.2034 40.4683C30.1278 40.5454 30.0802 40.6451 30.0679 40.7519C30.0556 40.8587 30.0792 40.9665 30.1353 41.0585C31.0083 42.4563 31.9391 43.4338 32.9258 44.0023C33.2598 44.3673 33.439 44.8459 33.4259 45.3386L33.2436 52.206C33.2409 52.298 33.2713 52.388 33.3294 52.4598C33.3876 52.5315 33.4696 52.5805 33.5608 52.5978C34.8744 52.845 39.8598 53.7054 42.9588 53.1633V45.7562C42.9601 45.4863 43.0342 45.2215 43.1736 44.9896C43.313 44.7577 43.5125 44.567 43.7514 44.4374C44.4023 44.0793 45.3718 43.3774 46.341 42.0564L45.4953 39.3321Z" fill="url(#paint32_linear_420_4240)"/>
<path fill-rule="evenodd" clip-rule="evenodd" d="M40.3619 37.748L40.6865 41.284C40.6865 41.284 38.8041 42.373 37.1843 41.4201L37.4721 38.3315L40.3619 37.748Z" fill="#FBC6D7"/>
<path fill-rule="evenodd" clip-rule="evenodd" d="M36.9234 31.212C36.9234 31.212 31.2362 35.4284 34.4481 38.4726C37.4798 41.3458 40.3201 38.2147 40.3201 38.2147C40.3201 38.2147 42.4922 37.1469 42.4112 35.7042C42.3301 34.2614 38.0719 30.8445 36.9234 31.212Z" fill="#FBC6D7"/>
<path fill-rule="evenodd" clip-rule="evenodd" d="M41.0947 37.3009C40.8866 37.2021 40.7006 37.0287 40.5631 36.7754C40.3579 36.3959 40.3348 35.9344 40.4532 35.52C40.4834 35.4136 40.5208 35.293 40.4625 35.1985C40.3928 35.0847 40.2327 35.08 40.0992 35.0662C39.8935 35.0448 39.6969 34.9709 39.5286 34.8517C39.3603 34.7326 39.226 34.5722 39.1388 34.3863C39.0516 34.2004 39.0145 33.9952 39.0311 33.7909C39.0477 33.5865 39.1175 33.3899 39.2335 33.2202C38.6843 33.0794 38.6247 32.6514 38.2358 32.3843C37.8788 32.1393 37.3641 32.3473 36.9725 32.1875C36.6827 32.0699 36.0813 31.6315 36.1634 31.2473C36.1999 31.0755 36.7003 30.711 36.8621 30.5977C37.5868 30.0894 38.3778 30.2416 39.0191 30.8155C40.8693 32.4723 42.5262 34.0776 42.8793 34.9161C43.1265 35.504 43.1106 36.2611 42.7195 36.785C42.3117 37.3273 41.6289 37.5541 41.0947 37.3009Z" fill="url(#paint33_linear_420_4240)"/>
<path fill-rule="evenodd" clip-rule="evenodd" d="M39.6677 38.5406L40.9415 37.0159C40.9415 37.0159 42.3878 36.8893 41.881 37.7848C41.3743 38.6803 40.0681 38.8118 39.6677 38.5406Z" fill="#FBC6D7"/>
<path d="M20.8742 19.3966C20.2634 19.1139 19.501 19.2019 18.9715 19.5852C17.9147 20.3476 15.4883 22.6286 15.2351 27.6125C14.9102 34.0047 26.2829 32.3371 26.2829 32.3371L26.9327 30.9485C26.9327 30.9485 18.8092 30.6708 18.8092 27.8915C18.8092 25.9342 21.1681 23.6592 22.2164 22.7457C22.6179 22.3953 22.7931 21.8886 22.647 21.4149C22.396 20.606 21.6896 19.7742 20.8742 19.3966Z" fill="url(#paint34_linear_420_4240)"/>
<path d="M25.4424 30.9486C25.4424 30.9486 26.6077 30.3918 27.5824 30.1138C28.5571 29.8358 28.8822 30.1138 28.8822 30.1138C28.8822 30.1138 27.9076 30.3918 27.5824 30.6698C27.2572 30.9477 29.1379 30.9496 29.8226 30.9486C30.5072 30.9475 30.6275 32.3145 29.9173 32.7425C29.2071 33.1705 27.2575 34.0047 25.3079 32.3371L25.4424 30.9486Z" fill="url(#paint35_linear_420_4240)"/>
<path d="M60.8544 29.7041C61.154 30.892 61.8749 32.2196 62.4138 33.1058C60.5858 33.5414 58.4096 33.7527 55.8225 33.6678C55.3301 33.6514 54.9712 33.6076 54.5425 33.8469L53.7185 34.3996L53.1003 31.1637C53.1003 31.1637 57.3802 31.5283 60.8544 29.7041Z" fill="url(#paint36_linear_420_4240)"/>
<path d="M53.9388 34.2532C53.102 34.9126 51.0974 34.7125 50.0543 34.4337C48.788 34.1467 48.5408 33.4263 48.6982 32.5333C49.8857 32.155 50.9903 31.5572 51.9535 30.7714C51.7522 29.8103 51.3396 29.5114 50.8505 29.4531C52.4492 29.8471 53.7101 30.4382 54.4032 31.3609L53.9388 34.2532Z" fill="url(#paint37_linear_420_4240)"/>
<path d="M43.7089 6.69853C43.6363 5.34864 42.7111 4.21437 41.5584 4.07061C40.642 3.95653 39.8263 4.4703 39.3924 5.30126C38.9571 4.43001 38.134 3.83483 37.2 3.86015C36.0124 3.89228 35.0476 4.9612 34.9715 6.33778C34.9213 7.24688 35.2541 8.08246 35.8004 8.64578L39.1534 11.3521C39.2194 11.4087 39.3031 11.4409 39.3903 11.4434C39.4774 11.4458 39.5628 11.4183 39.6319 11.3655L42.916 8.89545C43.4392 8.38114 43.7569 7.58994 43.7089 6.69853Z" fill="#DC523E"/>
</g>
<defs>
<linearGradient id="paint0_linear_420_4240" x1="52.1549" y1="76.2475" x2="53.526" y2="70.8608" gradientUnits="userSpaceOnUse">
<stop stop-color="#4457FF"/>
<stop offset="1" stop-color="#A6BFFF"/>
</linearGradient>
<linearGradient id="paint1_linear_420_4240" x1="54.2321" y1="70.3205" x2="61.3376" y2="44.5001" gradientUnits="userSpaceOnUse">
<stop stop-color="#09005D"/>
<stop offset="1" stop-color="#1A0F91"/>
</linearGradient>
<linearGradient id="paint2_linear_420_4240" x1="5942.99" y1="5208.24" x2="6924.54" y2="4688.02" gradientUnits="userSpaceOnUse">
<stop stop-color="#FAB2C9"/>
<stop offset="1" stop-color="#ED99B4"/>
</linearGradient>
<linearGradient id="paint3_linear_420_4240" x1="27277.1" y1="2275.81" x2="27291.7" y2="1558.2" gradientUnits="userSpaceOnUse">
<stop stop-color="#09005D"/>
<stop offset="1" stop-color="#1A0F91"/>
</linearGradient>
<linearGradient id="paint4_linear_420_4240" x1="63.4301" y1="76.0447" x2="64.2149" y2="71.0611" gradientUnits="userSpaceOnUse">
<stop stop-color="#4457FF"/>
<stop offset="1" stop-color="#A6BFFF"/>
</linearGradient>
<linearGradient id="paint5_linear_420_4240" x1="5860.28" y1="6083.02" x2="6892.59" y2="5622.93" gradientUnits="userSpaceOnUse">
<stop stop-color="#FAB2C9"/>
<stop offset="1" stop-color="#ED99B4"/>
</linearGradient>
<linearGradient id="paint6_linear_420_4240" x1="70057.2" y1="49472.7" x2="52023.7" y2="54138.5" gradientUnits="userSpaceOnUse">
<stop stop-color="#927915"/>
<stop offset="1" stop-color="#79640E"/>
</linearGradient>
<linearGradient id="paint7_linear_420_4240" x1="55.2022" y1="11.7578" x2="55.2022" y2="37.1807" gradientUnits="userSpaceOnUse">
<stop stop-color="#A78C1B"/>
<stop offset="1" stop-color="#C5A72B"/>
</linearGradient>
<linearGradient id="paint8_linear_420_4240" x1="11964" y1="12462.9" x2="14090.2" y2="11523.1" gradientUnits="userSpaceOnUse">
<stop stop-color="#FAB2C9"/>
<stop offset="1" stop-color="#ED99B4"/>
</linearGradient>
<linearGradient id="paint9_linear_420_4240" x1="12143.3" y1="13203.1" x2="14331.3" y2="12276.5" gradientUnits="userSpaceOnUse">
<stop stop-color="#FAB2C9"/>
<stop offset="1" stop-color="#ED99B4"/>
</linearGradient>
<linearGradient id="paint10_linear_420_4240" x1="34838.5" y1="4993.59" x2="23389.8" y2="18053.6" gradientUnits="userSpaceOnUse">
<stop stop-color="#757575"/>
<stop offset="1" stop-color="#404040"/>
</linearGradient>
<linearGradient id="paint11_linear_420_4240" x1="4982.24" y1="4659.14" x2="5830.55" y2="4243.91" gradientUnits="userSpaceOnUse">
<stop stop-color="#FAB2C9"/>
<stop offset="1" stop-color="#ED99B4"/>
</linearGradient>
<linearGradient id="paint12_linear_420_4240" x1="16980.8" y1="7143.96" x2="14734.3" y2="20377.8" gradientUnits="userSpaceOnUse">
<stop stop-color="#FEBBBA"/>
<stop offset="1" stop-color="#FF928E"/>
</linearGradient>
<linearGradient id="paint13_linear_420_4240" x1="15887.2" y1="7245.6" x2="14680.9" y2="15820.1" gradientUnits="userSpaceOnUse">
<stop stop-color="#FEBBBA"/>
<stop offset="1" stop-color="#FF928E"/>
</linearGradient>
<linearGradient id="paint14_linear_420_4240" x1="96842.4" y1="12835.5" x2="67821.7" y2="48695.4" gradientUnits="userSpaceOnUse">
<stop stop-color="#757575"/>
<stop offset="1" stop-color="#404040"/>
</linearGradient>
<linearGradient id="paint15_linear_420_4240" x1="18982.4" y1="33724.6" x2="22769.8" y2="32740.3" gradientUnits="userSpaceOnUse">
<stop stop-color="#FAB2C9"/>
<stop offset="1" stop-color="#ED99B4"/>
</linearGradient>
<linearGradient id="paint16_linear_420_4240" x1="18896.9" y1="-6457.66" x2="19204.8" y2="-2499.38" gradientUnits="userSpaceOnUse">
<stop stop-color="#7A640E"/>
<stop offset="1" stop-color="#7A640E"/>
</linearGradient>
<linearGradient id="paint17_linear_420_4240" x1="15253.6" y1="42177.1" x2="18414.9" y2="41648.8" gradientUnits="userSpaceOnUse">
<stop stop-color="#FAB2C9"/>
<stop offset="1" stop-color="#ED99B4"/>
</linearGradient>
<linearGradient id="paint18_linear_420_4240" x1="30592" y1="-9507.06" x2="31001.9" y2="-3695.01" gradientUnits="userSpaceOnUse">
<stop stop-color="#7A640E"/>
<stop offset="1" stop-color="#7A640E"/>
</linearGradient>
<linearGradient id="paint19_linear_420_4240" x1="34013.9" y1="40706.8" x2="40326" y2="38266.3" gradientUnits="userSpaceOnUse">
<stop stop-color="#FAB2C9"/>
<stop offset="1" stop-color="#ED99B4"/>
</linearGradient>
<linearGradient id="paint20_linear_420_4240" x1="25.2329" y1="35.7891" x2="33.1858" y2="17.7446" gradientUnits="userSpaceOnUse">
<stop stop-color="#4457FF"/>
<stop offset="1" stop-color="#A6BFFF"/>
</linearGradient>
<linearGradient id="paint21_linear_420_4240" x1="21.7399" y1="30.9482" x2="21.7399" y2="53.5293" gradientUnits="userSpaceOnUse">
<stop stop-color="#A78C1B"/>
<stop offset="1" stop-color="#C5A72B"/>
</linearGradient>
<linearGradient id="paint22_linear_420_4240" x1="11655.5" y1="13178.5" x2="13782.6" y2="12310.1" gradientUnits="userSpaceOnUse">
<stop stop-color="#FAB2C9"/>
<stop offset="1" stop-color="#ED99B4"/>
</linearGradient>
<linearGradient id="paint23_linear_420_4240" x1="15606" y1="13800.3" x2="18218.2" y2="12436.7" gradientUnits="userSpaceOnUse">
<stop stop-color="#FAB2C9"/>
<stop offset="1" stop-color="#ED99B4"/>
</linearGradient>
<linearGradient id="paint24_linear_420_4240" x1="36495.4" y1="2897.86" x2="31240" y2="13739" gradientUnits="userSpaceOnUse">
<stop stop-color="#757575"/>
<stop offset="1" stop-color="#404040"/>
</linearGradient>
<linearGradient id="paint25_linear_420_4240" x1="3695.64" y1="4341.23" x2="4374.69" y2="4075.38" gradientUnits="userSpaceOnUse">
<stop stop-color="#FAB2C9"/>
<stop offset="1" stop-color="#ED99B4"/>
</linearGradient>
<linearGradient id="paint26_linear_420_4240" x1="42575.7" y1="4693.5" x2="32598.5" y2="19588.7" gradientUnits="userSpaceOnUse">
<stop stop-color="#757575"/>
<stop offset="1" stop-color="#404040"/>
</linearGradient>
<linearGradient id="paint27_linear_420_4240" x1="-2506.82" y1="6445.78" x2="-3186.42" y2="6445.78" gradientUnits="userSpaceOnUse">
<stop stop-color="#09005D"/>
<stop offset="1" stop-color="#1A0F91"/>
</linearGradient>
<linearGradient id="paint28_linear_420_4240" x1="8663.85" y1="25432.3" x2="10460.2" y2="25150" gradientUnits="userSpaceOnUse">
<stop stop-color="#FAB2C9"/>
<stop offset="1" stop-color="#ED99B4"/>
</linearGradient>
<linearGradient id="paint29_linear_420_4240" x1="-1755.02" y1="6444.14" x2="-2434.65" y2="6444.14" gradientUnits="userSpaceOnUse">
<stop stop-color="#09005D"/>
<stop offset="1" stop-color="#1A0F91"/>
</linearGradient>
<linearGradient id="paint30_linear_420_4240" x1="8668.56" y1="25432.3" x2="10464.9" y2="25150" gradientUnits="userSpaceOnUse">
<stop stop-color="#FAB2C9"/>
<stop offset="1" stop-color="#ED99B4"/>
</linearGradient>
<linearGradient id="paint31_linear_420_4240" x1="-1339.73" y1="6159.7" x2="-1540.06" y2="6506.04" gradientUnits="userSpaceOnUse">
<stop stop-color="#09005D"/>
<stop offset="1" stop-color="#1A0F91"/>
</linearGradient>
<linearGradient id="paint32_linear_420_4240" x1="38.2028" y1="38.957" x2="38.2028" y2="53.3393" gradientUnits="userSpaceOnUse">
<stop stop-color="#EE7D6D"/>
<stop offset="1" stop-color="#DC523E"/>
</linearGradient>
<linearGradient id="paint33_linear_420_4240" x1="25831.7" y1="2988.32" x2="19403.1" y2="12167.1" gradientUnits="userSpaceOnUse">
<stop stop-color="#757575"/>
<stop offset="1" stop-color="#404040"/>
</linearGradient>
<linearGradient id="paint34_linear_420_4240" x1="27554.2" y1="23362" x2="32082.8" y2="20892.7" gradientUnits="userSpaceOnUse">
<stop stop-color="#FAB2C9"/>
<stop offset="1" stop-color="#ED99B4"/>
</linearGradient>
<linearGradient id="paint35_linear_420_4240" x1="11997.3" y1="5896.64" x2="13349" y2="4621.79" gradientUnits="userSpaceOnUse">
<stop stop-color="#FAB2C9"/>
<stop offset="1" stop-color="#ED99B4"/>
</linearGradient>
<linearGradient id="paint36_linear_420_4240" x1="21966.4" y1="8269.1" x2="23828.2" y2="5980.56" gradientUnits="userSpaceOnUse">
<stop stop-color="#FAB2C9"/>
<stop offset="1" stop-color="#ED99B4"/>
</linearGradient>
<linearGradient id="paint37_linear_420_4240" x1="13571.2" y1="9228.14" x2="15544.9" y2="7887.16" gradientUnits="userSpaceOnUse">
<stop stop-color="#FAB2C9"/>
<stop offset="1" stop-color="#ED99B4"/>
</linearGradient>
<clipPath id="clip0_420_4240">
<rect width="76" height="76" fill="white"/>
</clipPath>
</defs>
</svg>
