<svg width="64" height="64" viewBox="0 0 64 64" fill="none" xmlns="http://www.w3.org/2000/svg">
<path d="M13.0576 8L35.6708 30.45L41.8707 24.2502L14.4608 8.4242C14.0039 8.15908 13.5145 8.01224 13.0576 8ZM11.1651 9.04419C10.9611 9.40721 10.8387 9.83549 10.8387 10.3168V53.9443C10.8387 54.295 10.9122 54.6091 11.0345 54.8906L34.1698 31.9184L11.1651 9.04419ZM43.7633 25.327L37.1392 31.9184L43.7633 38.4772L51.8557 33.8436C53.006 33.1788 53.1691 32.3345 53.161 31.8858C53.1487 31.1434 52.6797 30.45 51.8884 30.0258C51.199 29.6547 46.0801 26.673 43.7633 25.327ZM35.6708 33.3868L12.8619 56C13.2412 55.9796 13.6532 55.898 14.0366 55.6737C14.9298 55.1557 32.9951 44.7097 32.9951 44.7097L41.9033 39.5867L35.6708 33.3868Z" fill="#CCCCCC"/>
</svg>
