<svg width="52" height="105" viewBox="0 0 52 105" fill="none" xmlns="http://www.w3.org/2000/svg">
<g id="Group">
<g id="Group_2">
<g id="Group_3">
<path id="Vector" d="M1.54688 98.3301V101.61C1.54688 103.42 7.44688 104.89 14.7269 104.89C22.0069 104.89 27.9069 103.42 27.9069 101.61V98.3301H1.54688Z" fill="#3D5B02"/>
</g>
<g id="Group_4">
<path id="Vector_2" d="M14.742 1.03955C12.042 1.03955 9.85202 0.809531 9.85202 0.519531L9.18201 11.9196C9.14201 12.5896 9.62201 13.1796 10.292 13.2596C11.392 13.3896 13.102 13.4796 14.742 13.4796C16.372 13.4796 18.092 13.3896 19.192 13.2596C19.862 13.1796 20.342 12.5896 20.302 11.9196L19.632 0.519531C19.632 0.809531 17.442 1.03955 14.742 1.03955Z" fill="#FFEE50"/>
</g>
<g id="Group_5">
<path id="Vector_3" d="M14.7416 0C12.0416 0 9.85156 0.229989 9.85156 0.519989C9.85156 0.809989 12.0416 1.04001 14.7416 1.04001C17.4416 1.04001 19.6316 0.809989 19.6316 0.519989C19.6316 0.229989 17.4416 0 14.7416 0Z" fill="#EAB50A"/>
</g>
<g id="Group_6">
<path id="Vector_4" d="M26.01 53.8813L23.99 46.5713C20.69 36.0013 19.01 25.0012 19.01 13.9312V13.2812C18.16 13.4412 15.88 13.4912 14.7 13.4912C13.77 13.4912 11.28 13.3813 10.39 13.2812V14.0813C10.39 25.0513 8.74 35.9713 5.49 46.4513L3.43 53.9912C1.15 62.3012 0 70.8713 0 79.4813V98.2213C0 100.251 6.6 101.891 14.75 101.891C22.9 101.891 29.5 100.251 29.5 98.2213V79.5813C29.49 70.8913 28.32 62.2513 26.01 53.8813Z" fill="#4F7F03"/>
</g>
<g id="Group_7" opacity="0.5">
<g id="Group_8">
<path id="Vector_5" d="M29.0984 76.0989C28.8484 68.2089 26.8084 60.4989 24.7784 52.8689C23.7384 48.9589 22.6984 45.0389 21.6584 41.1289V41.3989C20.2184 41.4289 18.7784 41.4589 17.3384 41.4889C17.1384 41.4889 16.8984 41.5189 16.7984 41.6889C16.7284 41.8189 16.7584 41.9789 16.7984 42.1289C18.9084 50.5589 21.4784 58.8989 22.8384 67.4889C24.1984 76.0789 24.2984 85.0389 21.5484 93.2789C21.0484 94.7689 20.4384 96.2589 19.4184 97.4589C18.2184 98.8689 16.5384 99.7589 14.8984 100.619C18.3084 101.199 21.7984 100.509 25.1884 99.8089C26.5884 99.5189 28.1884 99.0789 28.7384 97.7589C29.0384 97.0589 28.9484 96.2589 28.8784 95.4989C28.2984 89.0689 29.2984 82.5689 29.0984 76.0989Z" fill="#204400"/>
</g>
</g>
<g id="Group_9">
<path id="Vector_6" d="M14.7381 50.3904C10.8381 50.3904 7.30813 50.0104 4.66813 49.4004L4.07812 51.5704C6.76813 52.2704 10.5481 52.7104 14.7381 52.7104C18.9181 52.7104 22.6881 52.2804 25.3681 51.5804L24.7681 49.4104C22.1381 50.0204 18.6181 50.3904 14.7381 50.3904Z" fill="#FFEE50"/>
</g>
<g id="Group_10" opacity="0.5">
<g id="Group_11">
<path id="Vector_7" d="M28.0725 77.279C27.8825 75.459 27.6025 73.659 27.3225 71.849C26.3725 65.799 25.4225 59.749 24.4825 53.699C23.9325 50.199 23.3725 46.659 22.0725 43.359C21.8725 42.849 21.4525 42.259 20.9625 42.269L21.1725 42.229C20.2025 42.199 18.9125 42.439 18.8225 43.399C18.7925 43.709 18.9225 44.009 19.0425 44.299C22.1225 51.699 24.7125 59.349 25.9825 67.269C27.2525 75.189 27.1625 83.399 24.9725 91.109C24.1325 94.049 22.8425 97.109 20.2425 98.729C19.6425 99.109 18.9025 99.499 18.8125 100.209C20.9025 100.109 22.9825 99.739 24.9825 99.109C26.1825 98.729 27.4625 98.169 28.0125 97.039C28.3525 96.349 28.3625 95.559 28.3725 94.789C28.3925 92.969 28.4125 91.149 28.4225 89.329C28.4525 85.319 28.4925 81.289 28.0725 77.279Z" fill="#193301"/>
</g>
</g>
<g id="Group_12">
<path id="Vector_8" d="M6.52188 42.8301C6.19188 44.0401 5.85188 45.2401 5.48188 46.4401L4.67188 49.4001C7.31188 50.0101 10.8419 50.3901 14.7419 50.3901C18.6219 50.3901 22.1419 50.0101 24.7719 49.4101L23.9819 46.5701C23.5919 45.3301 23.2319 44.0901 22.8919 42.8401C20.5519 43.2301 17.7519 43.4501 14.7319 43.4501C11.6919 43.4501 8.87188 43.2201 6.52188 42.8301Z" fill="#3F0501"/>
</g>
<g id="Group_13">
<path id="Vector_9" d="M14.7434 43.4496C17.7634 43.4496 20.5634 43.2196 22.9034 42.8396C22.7034 42.0996 22.5234 41.3596 22.3334 40.6096C20.1134 40.9396 17.5234 41.1396 14.7434 41.1396C11.9434 41.1396 9.32344 40.9396 7.09344 40.5996C6.90344 41.3396 6.72344 42.0896 6.52344 42.8296C8.87344 43.2196 11.6934 43.4496 14.7434 43.4496Z" fill="#FFEE50"/>
</g>
<g id="Group_14">
<path id="Vector_10" d="M22.3316 40.6096C20.1416 31.8896 19.0116 22.9296 19.0116 13.9196V13.2695C18.1616 13.4295 15.8816 13.4796 14.7016 13.4796C13.7716 13.4796 11.2816 13.3695 10.3916 13.2695V14.0695C10.3916 23.0195 9.27156 31.9295 7.10156 40.5995C9.33156 40.9395 11.9416 41.1396 14.7516 41.1396C17.5216 41.1396 20.1116 40.9396 22.3316 40.6096Z" fill="#EAB50A"/>
</g>
<g id="Group_15">
<path id="Vector_11" d="M14.7162 88.4989C19.5819 88.4989 23.5263 82.316 23.5263 74.6889C23.5263 67.0619 19.5819 60.8789 14.7162 60.8789C9.85062 60.8789 5.90625 67.0619 5.90625 74.6889C5.90625 82.316 9.85062 88.4989 14.7162 88.4989Z" fill="white"/>
</g>
<g id="Group_16">
<path id="Vector_12" d="M14.7237 59.3105C9.00375 59.3105 4.34375 66.2106 4.34375 74.6906C4.34375 83.1706 9.00375 90.0706 14.7237 90.0706C20.4437 90.0706 25.1038 83.1706 25.1038 74.6906C25.1038 66.2106 20.4437 59.3105 14.7237 59.3105ZM14.7237 88.5005C9.86375 88.5005 5.91375 82.3006 5.91375 74.6906C5.91375 67.0706 9.86375 60.8806 14.7237 60.8806C19.5837 60.8806 23.5338 67.0806 23.5338 74.6906C23.5338 82.3006 19.5837 88.5005 14.7237 88.5005Z" fill="#EF1414"/>
</g>
<g id="Group_17">
<path id="Vector_13" d="M17.3065 82.4503C16.6465 82.1203 15.8665 82.4503 15.1565 82.8703C15.0465 82.8203 14.9265 82.7803 14.8065 82.7303C15.3465 82.4303 15.9065 82.1603 16.5265 82.1103C16.6365 82.1003 16.6565 81.9103 16.5265 81.9203C15.7965 81.9803 15.1965 82.2803 14.5665 82.6403C13.7765 82.3303 12.9665 82.0903 12.1565 82.4903C11.4065 82.8603 11.7365 83.5603 12.5165 83.5703C13.2865 83.5803 13.9464 83.2203 14.6064 82.8503C14.7264 82.9003 14.8465 82.9503 14.9565 83.0003C14.5765 83.2303 14.2265 83.4803 13.9465 83.6403C13.8465 83.7003 13.8764 83.8803 13.9964 83.8203C14.3964 83.6003 14.7764 83.3303 15.1764 83.1003C15.7464 83.3403 16.3165 83.5403 16.9165 83.5103C17.6065 83.4503 18.0665 82.8303 17.3065 82.4503ZM14.2464 82.8103C14.1064 82.8903 13.9665 82.9703 13.8165 83.0303C13.7265 83.0703 13.6265 83.1103 13.5265 83.1503C13.2365 83.2603 13.0065 83.3003 12.6965 83.3203C12.5765 83.3203 12.4064 83.2903 12.2864 83.2203C12.0964 83.1203 12.0765 82.9303 12.1865 82.7803C12.2665 82.6803 12.3764 82.6103 12.4964 82.5703C13.1264 82.3603 13.7364 82.5003 14.3564 82.7303C14.3164 82.7703 14.2864 82.7903 14.2464 82.8103ZM17.2965 82.9503C17.2065 83.1003 17.0965 83.1703 16.8765 83.2403C16.4265 83.3703 15.8364 83.1303 15.4264 82.9803C15.4164 82.9703 15.3965 82.9703 15.3865 82.9603C15.5265 82.8803 15.6765 82.8103 15.8265 82.7503C16.0365 82.6703 16.2565 82.6003 16.4865 82.5703C16.8965 82.5403 17.1465 82.5803 17.2965 82.7803C17.3265 82.8303 17.3265 82.9003 17.2965 82.9503Z" fill="#4F7F03"/>
</g>
<g id="Group_18">
<g id="Group_19">
<path id="Vector_14" d="M26.6741 72.3809H2.41406L3.37407 74.7108L2.41406 77.0409H26.6741L25.7141 74.7108L26.6741 72.3809Z" fill="white"/>
</g>
<g id="Group_20">
<path id="Vector_15" d="M27.7372 71.7207H1.36719L2.60719 74.7107L1.36719 77.7007H27.7372L26.4972 74.7107L27.7372 71.7207ZM2.41719 77.0407L3.37719 74.7107L2.41719 72.3807H26.6772L25.7172 74.7107L26.6772 77.0407H2.41719Z" fill="#3F0501"/>
</g>
</g>
<g id="Group_21">
<g id="Group_22">
<path id="Vector_16" d="M13.3784 84.6694L13.3984 84.6094L13.3484 84.6594C13.3384 84.6594 13.3384 84.6594 13.3284 84.6494C13.2884 84.6394 13.2484 84.6494 13.2384 84.6794L13.2184 84.6994C13.1784 84.7394 13.1684 84.7693 13.1584 84.7693C13.1284 84.7993 13.0984 84.8094 13.0584 84.8094C13.0584 84.8094 13.0484 84.7994 13.0384 84.7894L12.9784 84.7594L12.9484 84.7794C12.9284 84.7894 12.9084 84.8094 12.8984 84.8394C12.8984 84.8494 12.8984 84.8594 12.8984 84.8694C12.8984 84.9094 12.9184 84.9394 12.9484 84.9594C12.9984 84.9894 13.0584 84.9994 13.1284 84.9694C13.1084 85.0494 13.0784 85.1394 13.0684 85.2294C13.0384 85.3694 13.0184 85.4994 13.0184 85.6094C13.0184 85.6694 13.0184 85.7294 13.0284 85.7894C13.0384 85.8594 13.0484 85.8994 13.0584 85.9194C13.0684 85.9494 13.0984 85.9594 13.1284 85.9594L13.1684 85.9494C13.1684 85.9494 13.1784 85.9394 13.1884 85.9394L13.1984 85.9294C13.2084 85.9194 13.2284 85.9194 13.2384 85.9094C13.2584 85.8994 13.2684 85.8994 13.2884 85.8994L13.3184 85.8894L13.3584 85.8794C13.3984 85.8594 13.3984 85.8394 13.3984 85.8294C13.3984 85.8194 13.3884 85.7994 13.3784 85.7894C13.3484 85.7494 13.3184 85.7094 13.3084 85.6594C13.2884 85.5994 13.2784 85.5294 13.2784 85.4494C13.2784 85.3394 13.2884 85.2394 13.2984 85.1494C13.3084 85.0694 13.3184 84.9994 13.3484 84.9294C13.3584 84.8794 13.3884 84.8193 13.4184 84.7393L13.4284 84.7094C13.4284 84.6894 13.4184 84.6694 13.3984 84.6594C13.3984 84.6794 13.3884 84.6794 13.3784 84.6694Z" fill="#4F7F03"/>
</g>
<g id="Group_23">
<path id="Vector_17" d="M15.1081 84.6694L15.1281 84.6094L15.0781 84.6594C15.0681 84.6594 15.0681 84.6594 15.0581 84.6494C15.0181 84.6394 14.9781 84.6494 14.9681 84.6794L14.9481 84.6994C14.9181 84.7394 14.8981 84.7693 14.8881 84.7693C14.8581 84.7993 14.8281 84.8094 14.7981 84.8094C14.7981 84.8094 14.7881 84.7994 14.7781 84.7894L14.7181 84.7594L14.6881 84.7794L14.6981 84.7693L14.7081 84.7594L14.7181 84.7393C14.7181 84.7293 14.7181 84.7094 14.6881 84.6894L14.6681 84.6694C14.6581 84.6594 14.6381 84.6594 14.6181 84.6594L14.5681 84.6794C14.5381 84.6994 14.5281 84.7094 14.5181 84.7094C14.4881 84.7194 14.4481 84.7294 14.3981 84.7294C14.3681 84.7294 14.2881 84.7294 14.1481 84.7094C14.0881 84.6994 14.0381 84.6994 13.9881 84.6994H13.9581C13.9381 84.6994 13.8981 84.6994 13.8481 84.6994C13.7981 84.6994 13.7581 84.6994 13.7481 84.6994C13.6881 84.7094 13.6781 84.7394 13.6681 84.7494L13.6381 84.8194C13.6281 84.8394 13.6181 84.8694 13.5981 84.9094L13.5881 84.9294C13.5781 84.9394 13.5781 84.9494 13.5781 84.9594L13.5881 85.0094H13.6581L13.6981 84.9893C13.7081 84.9793 13.7281 84.9594 13.7681 84.9294C13.8381 84.8794 13.8981 84.8994 13.9981 84.8994C14.1081 84.9094 14.1781 84.9094 14.2181 84.9094C14.2481 84.9094 14.2681 84.9094 14.2881 84.9094C14.2581 84.9394 14.2281 84.9694 14.1881 84.9994C14.1081 85.0694 14.0481 85.1394 14.0081 85.1894C13.9481 85.2494 13.9181 85.2994 13.8981 85.3294C13.8581 85.3894 13.8281 85.4494 13.8081 85.4994C13.7781 85.5694 13.7681 85.6394 13.7681 85.6994C13.7681 85.7394 13.7781 85.7894 13.7981 85.8394C13.8181 85.8894 13.8381 85.9294 13.8581 85.9594C13.8781 85.9794 13.8981 85.9893 13.9181 85.9893H13.9281L14.0281 85.9394C14.0381 85.9294 14.0581 85.9294 14.0681 85.9194C14.0781 85.9094 14.0981 85.9094 14.1181 85.8994C14.1481 85.8794 14.1581 85.8594 14.1581 85.8494L14.1481 85.8094L14.1181 85.7993C14.0981 85.7893 14.0781 85.7694 14.0681 85.7494C14.0581 85.7194 14.0481 85.6794 14.0481 85.6394C14.0481 85.5694 14.0581 85.4994 14.0881 85.4394C14.1081 85.3894 14.1481 85.3293 14.1881 85.2693C14.2081 85.2393 14.2581 85.1794 14.3381 85.0994C14.3681 85.0694 14.4081 85.0294 14.4681 84.9794L14.6081 84.8694C14.6481 84.8394 14.6581 84.8194 14.6781 84.8094C14.6581 84.8194 14.6381 84.8394 14.6381 84.8594C14.6381 84.8694 14.6381 84.8794 14.6381 84.8894C14.6381 84.9294 14.6581 84.9594 14.6881 84.9794C14.7381 85.0094 14.7981 85.0193 14.8681 84.9893C14.8481 85.0693 14.8181 85.1594 14.8081 85.2494C14.7781 85.3894 14.7581 85.5194 14.7581 85.6294C14.7581 85.6894 14.7581 85.7494 14.7681 85.8094C14.7781 85.8794 14.7881 85.9194 14.7981 85.9394C14.8081 85.9694 14.8381 85.9794 14.8681 85.9794L14.9081 85.9694C14.9081 85.9694 14.9181 85.9594 14.9281 85.9594L14.9381 85.9494C14.9481 85.9394 14.9681 85.9394 14.9781 85.9294C14.9981 85.9194 15.0081 85.9194 15.0281 85.9194L15.0581 85.9094L15.0981 85.8994C15.1381 85.8794 15.1381 85.8594 15.1381 85.8494C15.1381 85.8394 15.1281 85.8194 15.1181 85.8094C15.0881 85.7694 15.0581 85.7294 15.0481 85.6794C15.0281 85.6194 15.0181 85.5494 15.0181 85.4694C15.0181 85.3594 15.0281 85.2594 15.0381 85.1694C15.0481 85.0894 15.0581 85.0194 15.0881 84.9494C15.0981 84.8994 15.1281 84.8394 15.1581 84.7594L15.1681 84.7294C15.1681 84.7094 15.1581 84.6894 15.1381 84.6794C15.1281 84.6794 15.1181 84.6794 15.1081 84.6694Z" fill="#4F7F03"/>
</g>
<g id="Group_24">
<path id="Vector_18" d="M16.24 85.0796C16.16 84.9996 16.05 84.9596 15.91 84.9596C15.83 84.9596 15.75 84.9696 15.68 84.9996C15.66 85.0096 15.65 85.0196 15.63 85.0196C15.63 85.0096 15.63 84.9896 15.63 84.9796C15.63 84.9596 15.63 84.9296 15.63 84.8896C15.63 84.8796 15.63 84.8696 15.63 84.8596C15.68 84.8696 15.72 84.8796 15.76 84.8896C15.92 84.9196 16.09 84.9196 16.21 84.8796C16.31 84.8396 16.33 84.7796 16.33 84.7396C16.33 84.6996 16.31 84.6696 16.28 84.6396C16.25 84.6096 16.21 84.5996 16.16 84.5996C16.12 84.5996 16.09 84.5996 16.07 84.6096C16.04 84.6196 16.03 84.6396 16.03 84.6596L16.04 84.6996L16.06 84.7096V84.7196C16.05 84.7196 16.03 84.7296 15.98 84.7296C15.91 84.7296 15.83 84.7196 15.76 84.7196C15.69 84.7096 15.62 84.6996 15.55 84.6796H15.54C15.51 84.6796 15.49 84.6896 15.48 84.6996L15.46 84.7296C15.46 84.7396 15.46 84.7496 15.46 84.7596C15.46 84.7796 15.46 84.8496 15.46 84.9796C15.46 85.0196 15.46 85.0596 15.45 85.0996L15.43 85.1996C15.42 85.2296 15.44 85.2596 15.48 85.2696L15.45 85.3996L15.54 85.2796H15.58H15.59C15.62 85.2796 15.64 85.2696 15.65 85.2596L15.66 85.2396C15.67 85.2296 15.67 85.2096 15.67 85.2096C15.67 85.1996 15.67 85.1996 15.67 85.1996C15.68 85.1796 15.7 85.1696 15.74 85.1496C15.77 85.1396 15.81 85.1296 15.86 85.1296C15.93 85.1296 15.98 85.1596 16.03 85.2096C16.08 85.2596 16.1 85.3196 16.1 85.3996C16.1 85.5096 16.06 85.6096 15.97 85.6996C15.88 85.7896 15.78 85.8296 15.66 85.8296C15.6 85.8296 15.56 85.8196 15.52 85.8096C15.51 85.8096 15.5 85.7996 15.5 85.7996C15.53 85.8096 15.55 85.7996 15.58 85.7796C15.6 85.7596 15.61 85.7296 15.61 85.6896C15.61 85.6496 15.59 85.6196 15.55 85.5896C15.48 85.5596 15.37 85.5496 15.3 85.6196C15.27 85.6496 15.25 85.6896 15.25 85.7296C15.25 85.8096 15.3 85.8696 15.38 85.9196C15.45 85.9596 15.53 85.9696 15.63 85.9696C15.83 85.9696 16.01 85.9096 16.15 85.7896C16.29 85.6696 16.36 85.5296 16.36 85.3796C16.36 85.2596 16.32 85.1596 16.24 85.0796Z" fill="#4F7F03"/>
</g>
</g>
<g id="Group_25">
<g id="Group_26">
<path id="Vector_19" d="M9.50656 80.0087C9.60656 79.9387 9.65656 79.8387 9.65656 79.7287C9.65656 79.5187 9.50656 79.3887 9.23656 79.3887C9.23656 79.3887 9.08656 79.3987 9.01656 79.3987C8.94656 79.3987 8.80656 79.3887 8.80656 79.3887H8.76656L8.74656 79.5087V79.5287L8.76656 79.5687H8.79656C8.79656 79.5687 8.83656 79.5687 8.85656 79.5687C8.86656 79.5687 8.87656 79.5687 8.87656 79.5687C8.87656 79.5687 8.88657 79.5787 8.88657 79.6287V80.4387C8.88657 80.5187 8.87657 80.5387 8.77657 80.5587L8.74656 80.5687L8.72656 80.7487L8.78656 80.7386C8.78656 80.7386 8.90656 80.7187 8.99656 80.7187C9.04656 80.7187 9.08656 80.7287 9.12656 80.7287C9.16656 80.7387 9.20656 80.7386 9.25656 80.7386C9.52656 80.7386 9.75656 80.5487 9.75656 80.3187C9.73656 80.1787 9.64656 80.0687 9.50656 80.0087ZM9.10656 80.1387H9.25656C9.40656 80.1687 9.47656 80.2387 9.47656 80.3487C9.47656 80.4687 9.40657 80.5387 9.27657 80.5387C9.10657 80.5387 9.10656 80.4987 9.10656 80.4487V80.1387ZM9.26656 79.9586C9.24656 79.9586 9.16656 79.9487 9.10656 79.9487C9.10656 79.8187 9.11656 79.6887 9.12656 79.5687C9.37656 79.5687 9.40656 79.6687 9.40656 79.7587C9.40656 79.9087 9.29656 79.9486 9.26656 79.9586Z" fill="#4F7F03"/>
</g>
<g id="Group_27">
<path id="Vector_20" d="M10.6837 80.2996V80.3296C10.6537 80.5096 10.6537 80.5196 10.3537 80.5196C10.2937 80.5196 10.2637 80.5196 10.2537 80.5096C10.2537 80.5096 10.2437 80.4996 10.2437 80.4496C10.2437 80.4096 10.2437 80.3596 10.2437 80.2796V80.1196C10.2737 80.1196 10.3137 80.1096 10.3438 80.1096C10.4438 80.1096 10.6137 80.1196 10.6137 80.1196H10.6537L10.6937 79.9496L10.6537 79.8996H10.6237C10.6237 79.8996 10.4637 79.9196 10.3937 79.9196C10.3637 79.9196 10.3237 79.9196 10.2837 79.9196H10.2437L10.2537 79.5896C10.2537 79.5796 10.2537 79.5696 10.2537 79.5696C10.2637 79.5696 10.3137 79.5696 10.3438 79.5696C10.5938 79.5696 10.5938 79.5696 10.5938 79.6596C10.5938 79.6896 10.5938 79.7396 10.5938 79.7396V79.7896L10.7738 79.7796V79.7396C10.7838 79.5696 10.8138 79.4296 10.8138 79.4296V79.4096L10.7837 79.3496H10.7537C10.6337 79.3696 10.4837 79.3696 10.1837 79.3696C10.0737 79.3696 9.92374 79.3596 9.92374 79.3596H9.88375L9.86375 79.4796V79.4996L9.88375 79.5396H9.91375C9.91375 79.5396 9.95375 79.5396 9.97375 79.5396C9.98375 79.5396 9.99374 79.5396 9.99374 79.5396C9.99374 79.5396 10.0037 79.5496 10.0037 79.5996V80.4096C10.0037 80.4896 9.99375 80.5096 9.89375 80.5296H9.86375L9.84375 80.7096L9.90375 80.6996C9.90375 80.6996 10.0237 80.6796 10.1637 80.6796C10.3437 80.6796 10.7437 80.6896 10.7437 80.6896H10.7637L10.7937 80.6496V80.6396C10.8137 80.4796 10.8438 80.3296 10.8438 80.3196V80.2996L10.8138 80.2496L10.6837 80.2996Z" fill="#4F7F03"/>
</g>
<g id="Group_28">
<path id="Vector_21" d="M11.5156 79.9291L11.4956 79.9192C11.3656 79.8492 11.2656 79.7892 11.2656 79.6992C11.2656 79.6192 11.3456 79.5591 11.4656 79.5591C11.6256 79.5591 11.6456 79.5991 11.6456 79.6891C11.6456 79.7491 11.6456 79.7792 11.6456 79.7892V79.8192L11.6956 79.8592L11.8256 79.8492V79.8091C11.8356 79.6391 11.8656 79.4891 11.8656 79.4891V79.4691L11.8456 79.4291L11.8256 79.4192C11.8156 79.4192 11.6956 79.3691 11.5156 79.3691C11.2456 79.3691 11.0256 79.5491 11.0256 79.7691C11.0256 79.9691 11.2156 80.0691 11.3656 80.1491L11.3856 80.1591C11.5156 80.2291 11.6356 80.2892 11.6356 80.3792C11.6356 80.4992 11.5256 80.5392 11.4156 80.5392C11.2456 80.5392 11.2156 80.5191 11.2156 80.2491V80.1992L11.0356 80.2191V80.2592C11.0356 80.4392 11.0156 80.5791 11.0156 80.5891V80.6092L11.0356 80.6591L11.0456 80.6692C11.0556 80.6692 11.1756 80.7391 11.3656 80.7391C11.6656 80.7391 11.8856 80.5592 11.8856 80.3192C11.8756 80.1192 11.6856 80.0191 11.5156 79.9291Z" fill="#4F7F03"/>
</g>
<g id="Group_29">
<path id="Vector_22" d="M12.9962 79.4291V79.4091L12.9463 79.3691L12.7663 79.3892H12.1762L11.9962 79.3691L11.9463 79.4091V79.4291C11.9363 79.5891 11.9163 79.7592 11.9163 79.7592L11.9062 79.8192L12.0863 79.7991L12.0963 79.7592C12.1163 79.5792 12.1263 79.5691 12.3463 79.5591V80.3492C12.3463 80.5292 12.3463 80.5292 12.1963 80.5392H12.1663L12.1263 80.7091H12.1862C12.1862 80.7091 12.3563 80.6992 12.4463 80.6992C12.5363 80.6992 12.7262 80.7091 12.7262 80.7091H12.7663L12.7862 80.5792V80.5491L12.7562 80.5092H12.7262C12.7262 80.5092 12.6863 80.5191 12.6263 80.5191C12.5863 80.5191 12.5663 80.5191 12.5663 80.4391C12.5663 80.1491 12.5763 79.7391 12.5963 79.5591C12.7963 79.5691 12.8063 79.5791 12.8363 79.7691L12.8463 79.8091L13.0263 79.7892L13.0163 79.7391C13.0163 79.7491 12.9962 79.5891 12.9962 79.4291Z" fill="#4F7F03"/>
</g>
<g id="Group_30">
<path id="Vector_23" d="M14.9597 80.8789L14.9297 80.8589L14.9097 80.8689C14.9097 80.8689 14.8497 80.8889 14.7697 80.8889C14.6397 80.8889 14.4997 80.8289 14.2797 80.6889C14.5397 80.5789 14.6997 80.3189 14.6997 80.0189C14.6997 79.6389 14.4597 79.3789 14.1097 79.3789C13.7297 79.3789 13.4297 79.6989 13.4297 80.0989C13.4297 80.4689 13.6597 80.7289 13.9897 80.7389C14.4397 81.0689 14.5697 81.1289 14.7597 81.1289C14.7697 81.1289 14.8197 81.1289 14.9697 80.9889L14.9897 80.9689L14.9697 80.9089L14.9597 80.8789ZM14.4297 80.0889C14.4297 80.3589 14.2797 80.5389 14.0597 80.5389C13.8397 80.5389 13.6797 80.3289 13.6797 80.0289C13.6797 79.7589 13.8197 79.5789 14.0297 79.5789C14.2697 79.5789 14.4297 79.7889 14.4297 80.0889Z" fill="#4F7F03"/>
</g>
<g id="Group_31">
<path id="Vector_24" d="M16.0078 79.5493L16.0278 79.3694L15.9678 79.3794C15.9678 79.3794 15.8678 79.3994 15.7878 79.3994C15.7178 79.3994 15.5778 79.3894 15.5778 79.3894H15.5378L15.5178 79.5094V79.5294L15.5378 79.5694H15.5678C15.5678 79.5694 15.6278 79.5694 15.6478 79.5694C15.6578 79.5694 15.6678 79.5694 15.6678 79.5694C15.6678 79.5794 15.6778 79.5894 15.6778 79.6294C15.6778 79.6294 15.6878 80.1194 15.6878 80.2494C15.6878 80.4294 15.5978 80.5294 15.4078 80.5294C15.2278 80.5294 15.1378 80.4094 15.1378 80.1794L15.1478 79.6194C15.1478 79.5694 15.1478 79.5693 15.2278 79.5493L15.2678 79.5394L15.2778 79.3594L15.2178 79.3694C15.2178 79.3694 15.0978 79.3894 15.0278 79.3894C14.9578 79.3894 14.8178 79.3794 14.8178 79.3794H14.7778L14.7578 79.5094V79.5294L14.7778 79.5694H14.8078C14.8078 79.5694 14.8778 79.5694 14.8878 79.5694C14.8878 79.5694 14.8978 79.5894 14.8978 79.6294V80.2693C14.8978 80.5593 15.0678 80.7393 15.3678 80.7393C15.6978 80.7393 15.8878 80.5693 15.8878 80.2693V79.6294C15.8878 79.5794 15.8878 79.5794 15.9778 79.5694L16.0078 79.5493Z" fill="#4F7F03"/>
</g>
<g id="Group_32">
<path id="Vector_25" d="M17.1787 80.5406C17.0787 80.5306 17.0587 80.5106 17.0387 80.4406C16.8987 80.0206 16.7388 79.4206 16.7388 79.4206L16.7288 79.3906H16.6988L16.5288 79.4306L16.1488 80.4306C16.1088 80.5306 16.0787 80.5406 16.0387 80.5506H15.9987L15.9688 80.7306H16.0288C16.0288 80.7306 16.1488 80.7206 16.2388 80.7206C16.3588 80.7206 16.4987 80.7306 16.4987 80.7306H16.5387L16.5588 80.6006V80.5806L16.5387 80.5406H16.3988C16.3288 80.5406 16.3288 80.5306 16.3288 80.5106C16.3288 80.5006 16.3388 80.4806 16.3388 80.4506L16.3988 80.2806C16.4388 80.2806 16.5088 80.2706 16.5788 80.2706C16.6188 80.2706 16.6888 80.2706 16.7388 80.2706L16.7887 80.4506C16.7987 80.4806 16.8088 80.5106 16.8088 80.5306C16.8088 80.5306 16.7887 80.5506 16.6787 80.5506H16.6388L16.6288 80.6706L16.6488 80.7306L16.6888 80.7206C16.6888 80.7206 16.8288 80.7006 16.9688 80.7006C17.0287 80.7006 17.1688 80.7106 17.1688 80.7106H17.2088L17.2288 80.5806L17.2088 80.5406H17.1787ZM16.3888 80.1406L16.5688 79.6306H16.5788L16.7288 80.1306C16.6888 80.1306 16.5988 80.1406 16.5488 80.1406H16.3888Z" fill="#4F7F03"/>
</g>
<g id="Group_33">
<path id="Vector_26" d="M18.1466 80.2393L17.9966 80.2594L17.9866 80.2894C17.9466 80.4994 17.9266 80.5193 17.7266 80.5193C17.6066 80.5193 17.6066 80.5194 17.6066 80.4194C17.6066 80.2194 17.6166 79.8994 17.6266 79.6794V79.6494C17.6366 79.5594 17.6366 79.5593 17.7066 79.5493L17.7466 79.5394L17.7666 79.3594L17.7066 79.3694C17.7066 79.3694 17.5866 79.3894 17.5066 79.3894C17.4366 79.3894 17.2966 79.3794 17.2966 79.3794H17.2566L17.2366 79.4994V79.5193L17.2566 79.5594H17.2866C17.2866 79.5594 17.3266 79.5594 17.3466 79.5594C17.3566 79.5594 17.3666 79.5594 17.3666 79.5594C17.3666 79.5594 17.3766 79.5694 17.3766 79.6194V80.4294C17.3766 80.5194 17.3566 80.5293 17.2866 80.5493L17.2466 80.5594L17.2266 80.7393L17.2866 80.7294C17.2866 80.7294 17.3966 80.7094 17.5366 80.7094C17.7166 80.7094 18.0466 80.7294 18.0466 80.7294H18.0666L18.0966 80.6894V80.6794C18.1166 80.4894 18.1466 80.3194 18.1466 80.3194V80.2993V80.2393Z" fill="#4F7F03"/>
</g>
<g id="Group_34">
<path id="Vector_27" d="M18.7153 80.5289C18.7153 80.5289 18.6653 80.5389 18.6153 80.5389C18.5853 80.5389 18.5753 80.5389 18.5753 80.4589C18.5753 80.3089 18.5853 79.9189 18.6053 79.6289C18.6053 79.5889 18.6053 79.5789 18.7053 79.5589H18.7453L18.7553 79.3789L18.6953 79.3889C18.6953 79.3889 18.5653 79.4089 18.4853 79.4089C18.4053 79.4089 18.2653 79.3989 18.2653 79.3989H18.2253L18.2053 79.5189V79.5389L18.2253 79.5789H18.2553C18.2553 79.5789 18.3453 79.5789 18.3553 79.5789C18.3553 79.5789 18.3653 79.5889 18.3653 79.6389V80.4489C18.3653 80.5289 18.3553 80.5489 18.2453 80.5689L18.2153 80.5789L18.1953 80.7589L18.2553 80.7489C18.2553 80.7489 18.3753 80.7289 18.4653 80.7289C18.5553 80.7289 18.7153 80.7389 18.7153 80.7389H18.7553L18.7853 80.6089V80.5889L18.7653 80.5489L18.7153 80.5289Z" fill="#4F7F03"/>
</g>
<g id="Group_35">
<path id="Vector_28" d="M20.9556 79.3794H20.9256C20.9256 79.3794 20.8256 79.3894 20.7556 79.3894C20.6856 79.3894 20.5456 79.3794 20.5456 79.3794H20.5056L20.4856 79.4994V79.5193L20.5056 79.5493H20.5256C20.5956 79.5593 20.6056 79.5594 20.6056 79.5594C20.6056 79.5794 20.5956 79.5994 20.5756 79.6294L20.3956 79.9694C20.3356 79.8494 20.2256 79.6094 20.2156 79.5594C20.2156 79.5594 20.2356 79.5494 20.3156 79.5394H20.3556L20.3656 79.4194L20.3456 79.3694H20.3156C20.3156 79.3694 20.1556 79.3894 20.0456 79.3894C19.9556 79.3894 19.8356 79.3794 19.8356 79.3794H19.8256L19.8056 79.3594L19.6256 79.3794H19.0356L18.8556 79.3594L18.8056 79.3994V79.4194C18.7956 79.5794 18.7756 79.7494 18.7756 79.7494L18.7656 79.8094L18.9456 79.7894L18.9556 79.7494C18.9756 79.5694 18.9856 79.5593 19.2056 79.5493V80.3394C19.2056 80.5194 19.2056 80.5194 19.0556 80.5294H19.0256L18.9956 80.6994H19.0556C19.0556 80.6994 19.2256 80.6894 19.3156 80.6894C19.4056 80.6894 19.5956 80.6994 19.5956 80.6994H19.6356L19.6556 80.5694V80.5394L19.6256 80.4994H19.5956C19.5956 80.4994 19.5556 80.5094 19.4956 80.5094C19.4556 80.5094 19.4356 80.5094 19.4356 80.4294C19.4356 80.1494 19.4456 79.7293 19.4656 79.5493C19.6656 79.5593 19.6756 79.5694 19.7056 79.7594L19.7156 79.7993L19.8956 79.7794L19.8856 79.7294C19.8856 79.7294 19.8756 79.6494 19.8656 79.5594C19.9356 79.5694 19.9656 79.5994 20.0156 79.7194L20.2056 80.0994C20.2456 80.1894 20.2556 80.2293 20.2556 80.2993V80.3794C20.2556 80.5094 20.2556 80.5194 20.1456 80.5394L20.1156 80.5493L20.0856 80.7294L20.1456 80.7194C20.1456 80.7194 20.2656 80.6994 20.3556 80.6994C20.4356 80.6994 20.5956 80.7094 20.5956 80.7094H20.6356L20.6556 80.5794V80.5594V80.5193H20.6256C20.6256 80.5193 20.5156 80.5293 20.5056 80.5193C20.5056 80.5193 20.4956 80.4994 20.4956 80.4394V80.3994C20.4956 80.2294 20.4956 80.1794 20.5256 80.1194L20.7356 79.7494C20.8156 79.5994 20.8356 79.5794 20.9356 79.5594L20.9656 79.5493L20.9856 79.4294L20.9556 79.3794Z" fill="#4F7F03"/>
</g>
</g>
<g id="Group_36">
<path id="Vector_29" d="M18.6378 65.3992C18.4678 65.3992 18.3278 65.5392 18.3278 65.7092C18.3278 65.7692 18.3478 65.8192 18.3778 65.8692L16.1578 67.3692L15.0978 64.2992C15.2178 64.2592 15.3078 64.1492 15.3078 64.0092C15.3078 63.8392 15.1678 63.6992 14.9978 63.6992C14.8278 63.6992 14.6878 63.8392 14.6878 64.0092C14.6878 64.1392 14.7778 64.2492 14.8978 64.2992L13.8378 67.3692L11.5878 65.8392C11.6078 65.7992 11.6278 65.7492 11.6278 65.6992C11.6278 65.5292 11.4878 65.3892 11.3178 65.3892C11.1478 65.3892 11.0078 65.5292 11.0078 65.6992C11.0078 65.8692 11.1478 66.0092 11.3178 66.0092C11.3778 66.0092 11.4278 65.9892 11.4678 65.9592L11.9778 66.7692C12.7278 67.9492 13.2178 69.2692 13.4078 70.6592H16.5678C16.7578 69.2792 17.2478 67.9492 17.9978 66.7692L18.4978 65.9792C18.5378 65.9992 18.5778 65.9992 18.6178 65.9992C18.7878 65.9992 18.9278 65.8592 18.9278 65.6892C18.9378 65.5292 18.7978 65.3992 18.6378 65.3992Z" fill="#EAB50A"/>
</g>
<g id="Group_37" opacity="0.5">
<g id="Group_38">
<path id="Vector_30" d="M10.1875 1.41071C10.2175 1.42071 10.2475 1.42069 10.2775 1.43069C10.2775 1.36069 10.2775 1.2907 10.2775 1.2207L10.1875 1.41071Z" fill="white"/>
</g>
<g id="Group_39">
<path id="Vector_31" d="M13.3672 10.1099C13.0572 9.10992 12.8772 8.0699 12.8572 7.0199C12.8172 5.4599 13.1172 3.88991 12.8872 2.34991C12.8672 2.19991 12.8272 2.0299 12.7172 1.9299C12.6272 1.8499 12.4972 1.8299 12.3772 1.7999C11.6672 1.6699 10.9672 1.54992 10.2672 1.41992C10.3472 4.55992 10.1672 7.70992 9.70719 10.8199C9.67719 11.0099 9.65719 11.1999 9.72719 11.3699C9.79719 11.5399 10.0172 11.6699 10.1772 11.5799C10.2972 11.5199 10.3472 11.3799 10.3772 11.2499C10.5172 10.7599 10.7172 10.1599 11.2172 10.0799C11.3472 10.3499 11.2572 10.6699 11.2672 10.9699C11.2772 11.2699 11.4772 11.6299 11.7772 11.5699C12.2272 11.4799 12.0472 10.6699 12.4372 10.4299C12.8972 10.7599 13.2472 11.2399 13.4072 11.7799C13.7572 11.3299 13.5472 10.6699 13.3672 10.1099Z" fill="white"/>
</g>
</g>
<g id="Group_40" opacity="0.5">
<g id="Group_41">
<path id="Vector_32" d="M19.6773 10.2289C18.7773 7.42891 18.6673 4.3889 19.3573 1.5289L19.2573 1.37891C18.3173 1.52891 17.3673 1.66891 16.4273 1.81891C16.3273 1.83891 16.2273 1.84891 16.1573 1.91891C15.9973 2.04891 16.0373 2.28889 16.0773 2.48889C16.3973 3.93889 16.5673 5.4189 16.5973 6.8989C16.6073 7.4989 16.5973 8.1089 16.4173 8.6889C16.2773 9.1389 16.0473 9.5489 15.9173 9.9989C15.7373 10.6189 15.7773 11.2989 16.0073 11.8989C16.3073 11.7189 16.3873 11.3289 16.5273 11.0089C16.6773 10.6889 17.0773 10.3989 17.3573 10.6189C17.5373 10.7589 17.5373 11.0289 17.5673 11.2589C17.5873 11.4889 17.7073 11.7689 17.9473 11.7689C18.2373 11.7689 18.3073 11.3789 18.3173 11.0889C18.3273 10.7989 18.5173 10.4189 18.7873 10.5289C19.0473 10.6389 18.9473 11.0589 19.1473 11.2489C19.3373 11.4289 19.6873 11.2589 19.7673 11.0089C19.8473 10.7489 19.7573 10.4789 19.6773 10.2289Z" fill="#EAB50A"/>
</g>
</g>
<g id="Group_42" opacity="0.5">
<g id="Group_43">
<path id="Vector_33" d="M12.3568 14.1691C11.9568 13.7591 11.0268 14.0192 11.1468 14.5792C11.1468 14.5792 10.2468 28.8291 8.94684 36.0291C8.78684 36.9191 8.63684 37.8691 8.98684 38.6991C9.33684 39.5291 10.3968 40.1291 11.1668 39.6591C11.8668 39.2291 11.9368 38.2591 11.9268 37.4391C11.8368 30.2191 12.0968 22.9891 12.6868 15.7991C12.7268 15.2291 12.7568 14.5791 12.3568 14.1691Z" fill="#FFEE50"/>
</g>
</g>
<g id="Group_44" opacity="0.2">
<g id="Group_45">
<path id="Vector_34" d="M20.5674 38.4194C19.1374 35.7194 18.9974 32.5494 18.8874 29.4994C18.6974 24.1994 18.5074 18.9094 18.3174 13.6094L18.1073 13.8494C17.7073 14.2994 16.9474 13.9694 16.3774 14.1594C15.5074 14.4394 15.4874 15.6394 15.6274 16.5394C16.7674 23.9794 17.1273 31.5294 16.6973 39.0394C16.6773 39.3194 16.6773 39.6394 16.8673 39.8494C17.0873 40.0794 17.4473 40.0793 17.7673 40.0493C18.4973 39.9893 19.2173 39.8994 19.9373 39.7894C20.2473 39.7394 20.6073 39.6594 20.7473 39.3694C20.8973 39.0694 20.7274 38.7194 20.5674 38.4194Z" fill="#EF1414"/>
</g>
</g>
<g id="Group_46" opacity="0.3">
<g id="Group_47">
<path id="Vector_35" d="M20.493 37.2699C18.173 30.3099 18.943 22.7499 18.323 15.4399C18.303 15.2099 18.273 14.9699 18.133 14.7999C17.983 14.6299 17.673 14.5799 17.543 14.7599L17.903 14.6799C17.333 14.8699 17.283 15.6399 17.323 16.2299C17.863 23.3699 18.403 30.5099 18.933 37.6499C18.993 38.3799 19.343 39.3599 20.063 39.2199C20.443 39.1499 20.683 38.7599 20.713 38.3799C20.743 37.9999 20.613 37.6299 20.493 37.2699Z" fill="#EF1414"/>
</g>
</g>
<g id="Group_48" opacity="0.5">
<g id="Group_49">
<path id="Vector_36" d="M2.86785 87.031C1.44785 80.661 0.907854 73.951 2.60785 67.641C4.30785 61.341 8.47785 55.491 14.4679 52.891C11.5479 53.321 8.54785 53.141 5.68785 52.381C5.48785 52.331 5.28785 52.271 5.08785 52.301C4.42785 52.401 4.26785 53.271 4.26785 53.941C4.26785 53.941 0.357853 80.691 1.22785 94.551C1.32785 96.141 1.56785 97.951 2.89785 98.831C3.43785 99.181 4.07785 99.331 4.70785 99.461C7.60785 100.091 10.5579 100.711 13.5179 100.471C11.4879 100.071 9.57785 99.101 8.04785 97.711C5.06785 95.001 3.73785 90.951 2.86785 87.031Z" fill="#9FC303"/>
</g>
</g>
<g id="Group_50" opacity="0.7">
<g id="Group_51">
<path id="Vector_37" d="M6.04531 52.9801C5.83531 52.9101 5.57531 52.9302 5.39531 53.0802C5.07531 53.3402 4.97531 53.7801 4.89531 54.1801C3.99531 58.7201 3.10531 63.2601 2.44531 67.8501C3.53531 63.6001 4.90531 59.4302 6.54531 55.3602C6.76531 54.8202 6.98531 54.2501 6.90531 53.6701C6.82531 53.0801 6.04531 52.9801 6.04531 52.9801Z" fill="white"/>
</g>
<g id="Group_52" opacity="0.5">
<g id="Group_53">
<path id="Vector_38" d="M2.60781 93.6406C1.94781 91.5106 1.67781 89.2905 1.50781 87.0605C1.50781 89.5405 1.64782 92.1105 1.64782 94.5905C1.64782 95.3005 1.88781 96.6905 2.18781 97.3405C2.44781 97.9005 2.60781 97.9905 3.06781 98.4005C4.08781 99.3005 7.03781 99.3705 8.39781 99.4605C3.84781 97.8005 3.35781 96.0306 2.60781 93.6406Z" fill="white"/>
</g>
</g>
</g>
<g id="Group_54" opacity="0.15">
<g id="Group_55">
<path id="Vector_39" d="M11.3177 45.4393C11.2277 43.8993 11.7777 42.4093 12.2777 40.9593C12.3577 40.7293 12.4277 40.4493 12.2677 40.2593C12.0277 39.9793 11.5877 40.1993 11.2577 40.3593C10.3477 40.7893 9.15767 40.5193 8.51767 39.7393C8.37767 39.5693 8.17768 39.3493 7.98768 39.4593C7.87768 39.5193 7.83768 39.6493 7.81768 39.7693C7.60768 40.7093 6.00767 46.5493 5.01767 49.6893C4.96767 49.8493 4.91768 50.0393 4.98768 50.1893C5.07768 50.3793 5.31767 50.4393 5.51767 50.4793C8.79767 51.1193 12.1277 51.6993 15.4677 51.5193C13.3777 50.0793 11.4777 47.9693 11.3177 45.4393Z" fill="white"/>
</g>
</g>
<g id="Group_56" opacity="0.5">
<g id="Group_57">
<path id="Vector_40" d="M7.86337 42.9007C7.68337 43.4407 6.92337 45.7107 6.69337 46.3207C6.63337 46.4807 6.13337 47.9907 6.00337 48.4707C5.91337 48.8207 5.84337 49.2407 6.10337 49.5007C6.36337 49.7607 6.83337 49.6607 7.08337 49.4007C7.33337 49.1407 7.43337 48.7707 7.52337 48.4107C7.90337 46.8807 8.29337 45.3407 8.66337 43.8107C9.83337 38.9407 8.38337 41.3307 7.86337 42.9007Z" fill="white"/>
</g>
</g>
<g id="Group_58" opacity="0.5">
<g id="Group_59">
<path id="Vector_41" d="M8.20304 102.529C7.51304 102.379 6.81304 102.219 6.17304 101.909C5.54304 101.599 4.98304 101.159 4.33304 100.919C3.80304 100.729 3.23304 100.679 2.68304 100.629C2.57304 100.619 2.46304 100.609 2.36304 100.659C2.04304 100.819 2.26304 101.299 2.50304 101.559L2.31304 101.429C2.67304 101.769 3.08304 102.069 3.51304 102.299C4.22304 102.679 5.01304 102.899 5.79304 103.079C7.56304 103.489 9.37304 103.739 11.193 103.829C11.723 103.859 12.363 103.809 12.633 103.349C11.143 103.119 9.66304 102.849 8.20304 102.529Z" fill="#9FC303"/>
</g>
</g>
<g id="Group_60">
<path id="Vector_42" d="M27.2222 100.84C27.0322 100.62 26.6222 100.62 26.4822 100.88L26.4722 100.89C23.6822 101.92 20.6822 102.39 17.7122 102.25C17.3422 102.23 16.8722 102.26 16.7322 102.61C18.0922 102.63 19.4522 102.66 20.8122 102.68C20.9222 102.68 21.0322 102.69 21.1122 102.75C21.2522 102.87 21.2022 103.12 21.0522 103.24C20.9022 103.36 20.7122 103.38 20.5222 103.39C18.6822 103.54 16.8422 103.68 14.9922 103.83C15.3322 104.15 15.8322 104.21 16.3022 104.25C19.9022 104.51 23.5722 103.71 26.7422 101.97C26.9022 101.88 27.0522 101.79 27.1722 101.66C27.3722 101.42 27.4122 101.06 27.2222 100.84Z" fill="#193301"/>
</g>
<g id="Group_61" opacity="0.3">
<g id="Group_62">
<path id="Vector_43" d="M15.1528 14.6495C16.4328 14.8195 17.7328 14.9896 19.0128 14.9196C19.0128 14.5896 18.9928 14.2595 18.9928 13.9295V13.2795C18.9428 13.2895 18.8728 13.2895 18.8228 13.2995C18.1828 13.3895 17.0228 13.4395 15.9928 13.4695C15.9728 13.4695 15.9528 13.4695 15.9228 13.4695C15.4928 13.4795 15.0928 13.4796 14.7628 13.4796C14.7528 13.4796 14.7428 13.4796 14.7328 13.4796H14.7228C14.7128 13.4796 14.7028 13.4796 14.6928 13.4796C14.5628 13.4796 14.3828 13.4795 14.2028 13.4695C12.9628 13.4595 11.7528 13.3995 10.8128 13.3095C10.6528 13.2995 10.5028 13.2795 10.3828 13.2695V13.9595C10.6028 14.0095 10.8228 14.0496 11.0328 14.0796C12.4028 14.2696 13.7828 14.4595 15.1528 14.6495Z" fill="#EF1414"/>
</g>
</g>
<g id="Group_63">
<g id="Group_64">
<path id="Vector_44" d="M7.0425 74.3094H6.9925C6.9525 74.1194 6.8725 73.9694 6.7625 73.8694C6.6525 73.7594 6.5125 73.7094 6.3525 73.7094C6.1725 73.7094 6.0325 73.7794 5.9325 73.9294C5.8325 74.0794 5.7725 74.2794 5.7725 74.5294C5.7725 74.8094 5.8325 75.0294 5.9525 75.1794C6.0725 75.3294 6.2425 75.4094 6.4525 75.4094C6.5725 75.4094 6.6725 75.3894 6.7725 75.3394C6.8725 75.2894 6.9625 75.2194 7.0625 75.1094V75.2094C6.8725 75.4694 6.6225 75.5994 6.2925 75.5994C6.0025 75.5994 5.7625 75.5094 5.5825 75.3294C5.4025 75.1494 5.3125 74.9194 5.3125 74.6294C5.3125 74.3394 5.4125 74.0994 5.6025 73.8994C5.8025 73.6994 6.0425 73.6094 6.3325 73.6094C6.4525 73.6094 6.5825 73.6394 6.7325 73.6894C6.7925 73.7094 6.8425 73.7294 6.8625 73.7294C6.9125 73.7294 6.9525 73.6994 6.9825 73.6294H7.0325V74.3094H7.0425Z" fill="#EF1414"/>
</g>
<g id="Group_65">
<path id="Vector_45" d="M8.85906 75.1811V74.6211H7.94906V75.2211C7.94906 75.3111 7.95906 75.3711 7.98906 75.4011C8.01906 75.4311 8.07906 75.4611 8.17906 75.4911V75.5511H7.28906V75.4911C7.35906 75.4711 7.40906 75.4611 7.43906 75.4311C7.46906 75.4111 7.49906 75.3811 7.50906 75.3511C7.51906 75.3211 7.52906 75.2611 7.52906 75.1711V73.9611C7.52906 73.8711 7.50906 73.8111 7.47906 73.7811C7.44906 73.7511 7.37906 73.7211 7.28906 73.6911V73.6311H8.17906V73.6911C8.08906 73.7111 8.02906 73.7411 7.99906 73.7711C7.96906 73.8111 7.94906 73.8611 7.94906 73.9411V74.4711H8.85906V73.9511C8.85906 73.8611 8.83906 73.8011 8.80906 73.7711C8.77906 73.7411 8.71906 73.7111 8.61906 73.6811V73.6211H9.50906V73.6811C9.40906 73.7111 9.33906 73.7411 9.30906 73.7711C9.27906 73.8011 9.26906 73.8811 9.26906 73.9911V75.2011C9.26906 75.2811 9.28907 75.3411 9.31907 75.3811C9.34907 75.4211 9.41906 75.4411 9.50906 75.4711V75.5311H8.61906V75.4711C8.70906 75.4511 8.76906 75.4211 8.80906 75.3811C8.84906 75.3611 8.85906 75.2911 8.85906 75.1811Z" fill="#EF1414"/>
</g>
<g id="Group_66">
<path id="Vector_46" d="M10.8497 75.5401V75.4801C10.9297 75.4701 10.9797 75.4501 11.0097 75.4301C11.0397 75.4101 11.0597 75.3801 11.0597 75.3401C11.0597 75.3101 11.0497 75.2601 11.0197 75.1901L10.9097 74.9001H10.2297L10.1397 75.1501C10.1197 75.2101 10.0997 75.27 10.0997 75.3C10.0997 75.38 10.1597 75.4401 10.2897 75.4801V75.5401H9.67969V75.4801C9.74969 75.4701 9.81969 75.4301 9.86969 75.3601C9.91969 75.3001 9.97969 75.1901 10.0297 75.0401L10.5697 73.5801H10.8297L11.4097 75.1001C11.4597 75.2301 11.5197 75.3301 11.5697 75.3801C11.6197 75.4301 11.6897 75.4601 11.7697 75.4701V75.5301H10.8497V75.5401ZM10.2997 74.7701H10.8597L10.5697 74.0001L10.2997 74.7701Z" fill="#EF1414"/>
</g>
<g id="Group_67">
<path id="Vector_47" d="M14.4528 73.6506V73.7106C14.3728 73.7206 14.3228 73.7506 14.2828 73.7806C14.2428 73.8106 14.2328 73.8706 14.2328 73.9306C14.2328 73.9506 14.2328 73.9806 14.2428 74.0106L14.4128 75.1906C14.4228 75.2806 14.4528 75.3406 14.5028 75.3906C14.5528 75.4406 14.6128 75.4706 14.7028 75.4806V75.5406H13.7628V75.4806C13.8428 75.4606 13.8928 75.4306 13.9328 75.3906C13.9628 75.3506 13.9828 75.2906 13.9828 75.2106C13.9828 75.1706 13.9828 75.1206 13.9728 75.0706L13.8228 73.9906L13.2028 75.5406H13.1328L12.5128 73.9906L12.3528 75.1006C12.3428 75.1506 12.3428 75.1806 12.3428 75.2206C12.3428 75.3806 12.4228 75.4706 12.5728 75.4906V75.5506H11.8828V75.4906C11.9828 75.4906 12.0628 75.4506 12.1128 75.3906C12.1628 75.3306 12.2028 75.2206 12.2228 75.0706L12.4128 73.8306C12.3328 73.7506 12.2428 73.7006 12.1328 73.7006V73.6406H12.8228L13.3128 74.8906L13.8128 73.6406H14.4528V73.6506Z" fill="#EF1414"/>
</g>
<g id="Group_68">
<path id="Vector_48" d="M14.8538 73.6504H15.8238C16.0238 73.6504 16.1837 73.7004 16.2937 73.7904C16.4137 73.8804 16.4638 74.0004 16.4638 74.1504C16.4638 74.3104 16.4038 74.4404 16.2738 74.5404C16.1438 74.6404 15.9738 74.6904 15.7438 74.6904C15.6638 74.6904 15.5837 74.6804 15.5037 74.6704V75.2104C15.5037 75.2904 15.5237 75.3604 15.5537 75.4004C15.5837 75.4404 15.6538 75.4604 15.7438 75.4804V75.5404H14.8438V75.4804C14.9438 75.4604 15.0038 75.4304 15.0338 75.3904C15.0638 75.3504 15.0837 75.2804 15.0837 75.1904V73.9504C15.0837 73.8604 15.0638 73.8004 15.0338 73.7704C15.0038 73.7404 14.9338 73.7104 14.8438 73.6904V73.6504H14.8538ZM15.6738 73.7604H15.5137V74.5704C15.5637 74.5804 15.6037 74.5904 15.6537 74.5904C15.7737 74.5904 15.8638 74.5504 15.9238 74.4804C15.9938 74.4104 16.0238 74.3004 16.0238 74.1704C16.0238 74.0504 15.9938 73.9504 15.9238 73.8704C15.8538 73.7904 15.7738 73.7604 15.6738 73.7604Z" fill="#EF1414"/>
</g>
<g id="Group_69">
<path id="Vector_49" d="M17.4122 75.5401V75.4801C17.4922 75.4701 17.5422 75.4501 17.5722 75.4301C17.6022 75.4101 17.6222 75.3801 17.6222 75.3401C17.6222 75.3101 17.6122 75.2601 17.5822 75.1901L17.4722 74.9001H16.7922L16.7022 75.1501C16.6822 75.2101 16.6622 75.27 16.6622 75.3C16.6622 75.38 16.7222 75.4401 16.8522 75.4801V75.5401H16.2422V75.4801C16.3122 75.4701 16.3822 75.4301 16.4322 75.3601C16.4822 75.3001 16.5422 75.1901 16.5922 75.0401L17.1322 73.5801H17.3922L17.9722 75.1001C18.0222 75.2301 18.0822 75.3301 18.1322 75.3801C18.1822 75.4301 18.2522 75.4601 18.3322 75.4701V75.5301H17.4122V75.5401ZM16.8622 74.7701H17.4222L17.1322 74.0001L16.8622 74.7701Z" fill="#EF1414"/>
</g>
<g id="Group_70">
<path id="Vector_50" d="M20.2053 73.6494V74.1794H20.1453C20.0853 74.0394 20.0053 73.9194 19.8853 73.8394C19.7653 73.7494 19.6353 73.7094 19.4953 73.7094C19.3053 73.7094 19.1553 73.7894 19.0453 73.9594C18.9453 74.1194 18.8853 74.3494 18.8853 74.6494C18.8853 74.9194 18.9353 75.1294 19.0453 75.2794C19.1453 75.4194 19.2953 75.4893 19.4953 75.4893C19.6853 75.4893 19.7753 75.4194 19.7753 75.2894V75.0094C19.7753 74.8794 19.7153 74.7994 19.5853 74.7794V74.7194H20.3853V74.7794C20.3153 74.7994 20.2653 74.8294 20.2453 74.8694C20.2153 74.9094 20.2053 74.9794 20.2053 75.0594V75.4594C20.0153 75.5494 19.7653 75.5994 19.4653 75.5994C19.2653 75.5994 19.0853 75.5594 18.9353 75.4794C18.7853 75.3994 18.6553 75.2794 18.5753 75.1194C18.4853 74.9694 18.4453 74.7994 18.4453 74.6194C18.4453 74.3294 18.5453 74.0894 18.7353 73.8994C18.9253 73.7094 19.1753 73.6094 19.4753 73.6094C19.5953 73.6094 19.7153 73.6294 19.8553 73.6794C19.9253 73.7094 19.9853 73.7194 20.0153 73.7194C20.0653 73.7194 20.1053 73.6994 20.1553 73.6594H20.2053V73.6494Z" fill="#EF1414"/>
</g>
<g id="Group_71">
<path id="Vector_51" d="M21.9456 73.7006V73.6406H22.5856V73.7006C22.4056 73.7106 22.3056 73.8106 22.3056 74.0106V75.5606H22.2456L20.8856 74.0206V75.1806C20.8856 75.2806 20.9056 75.3506 20.9456 75.3906C20.9856 75.4306 21.0556 75.4606 21.1656 75.4806V75.5406H20.5156V75.4806C20.6056 75.4706 20.6656 75.4406 20.7056 75.3906C20.7456 75.3406 20.7656 75.2706 20.7656 75.1706V73.8806C20.6956 73.8006 20.6456 73.7606 20.6156 73.7406C20.5856 73.7206 20.5556 73.7006 20.5156 73.7006V73.6406H21.0856L22.1956 74.9106V74.0606C22.1956 73.9306 22.1756 73.8506 22.1456 73.8006C22.0956 73.7606 22.0356 73.7206 21.9456 73.7006Z" fill="#EF1414"/>
</g>
<g id="Group_72">
<path id="Vector_52" d="M23.9744 74.3006H24.0344V74.8906H23.9744C23.9544 74.7306 23.8644 74.6506 23.7144 74.6506H23.3844V75.2106C23.3844 75.3006 23.4044 75.3606 23.4444 75.3906C23.4844 75.4206 23.5544 75.4406 23.6444 75.4406H23.7544C23.9444 75.4406 24.0744 75.3206 24.1544 75.0906H24.2144L24.1744 75.5506H22.7344V75.4906C22.8244 75.4706 22.8944 75.4406 22.9244 75.4006C22.9544 75.3606 22.9744 75.2906 22.9744 75.1806V73.9606C22.9744 73.8706 22.9544 73.8106 22.9244 73.7806C22.8944 73.7506 22.8244 73.7206 22.7344 73.7006V73.6406H24.1544V74.0606H24.0944C24.0644 73.9406 24.0244 73.8506 23.9744 73.8106C23.9244 73.7706 23.8544 73.7506 23.7444 73.7506H23.3744V74.5306H23.7044C23.7844 74.5306 23.8344 74.5106 23.8744 74.4806C23.9344 74.4506 23.9644 74.3906 23.9744 74.3006Z" fill="#EF1414"/>
</g>
</g>
</g>
<g id="Group_73">
<g id="Group_74">
<g id="Group_75">
<path id="Vector_53" d="M43.0875 101.24C41.6875 101.24 34.6875 101.33 34.6875 103.06C34.6875 104.8 41.6875 104.88 43.0875 104.88C44.4875 104.88 51.4875 104.79 51.4875 103.06C51.4875 101.33 44.4875 101.24 43.0875 101.24ZM43.0875 103.98C38.7875 103.98 36.2975 103.42 35.6975 103.07C36.2975 102.71 38.7975 102.16 43.0875 102.16C47.3875 102.16 49.8775 102.72 50.4775 103.07C49.8775 103.42 47.3775 103.98 43.0875 103.98Z" fill="#999999"/>
</g>
<g id="Group_76">
<path id="Vector_54" d="M51.025 102.611C51.025 103.371 47.465 103.981 43.075 103.981C38.685 103.981 35.125 103.371 35.125 102.611C35.125 101.851 38.685 100.781 43.075 100.781C47.475 100.771 51.025 101.851 51.025 102.611Z" fill="#E2E2F7"/>
</g>
<g id="Group_77">
<path id="Vector_55" d="M44.2866 100.911C43.9466 100.861 43.6066 100.881 43.2566 100.891C42.8766 100.901 42.4066 101.001 42.2966 101.371L42.2266 101.401C42.6466 101.531 43.1366 101.551 43.5766 101.551C43.9666 101.551 44.6666 101.341 44.6866 101.201C44.7266 101.011 44.4666 100.941 44.2866 100.911Z" fill="#F9DD53"/>
</g>
<g id="Group_78">
<path id="Vector_56" d="M51.3849 68.5796L49.2649 52.5195H36.9049L34.7849 68.5796C34.2649 73.2596 36.2549 77.8596 39.9149 80.4496C41.0149 81.2296 41.5649 82.5495 41.5649 83.9595L42.1549 101.33C42.1549 101.42 42.5749 101.49 43.0849 101.49C43.5949 101.49 44.0049 101.42 44.0149 101.33L44.6049 83.9496C44.6049 82.5396 45.1549 81.2195 46.2549 80.4395C49.9149 77.8595 51.8949 73.2696 51.3849 68.5796Z" fill="#B6BFAF"/>
</g>
<g id="Group_79">
<path id="Vector_57" d="M50.8053 68.5796L48.8353 52.5195H37.3253L35.3553 68.5796C34.9553 72.5196 36.1953 75.2695 38.6153 77.5895C41.0853 79.9495 45.0653 79.9495 47.5353 77.5895C49.9753 75.2795 51.2153 72.5196 50.8053 68.5796Z" fill="#F9F9E8"/>
</g>
<g id="Group_80">
<path id="Vector_58" d="M37.4062 52.5594C37.5463 52.8194 39.4163 53.4494 43.0863 53.4494C46.6462 53.4494 48.5062 52.8594 48.7462 52.5294C48.5062 52.1994 46.6363 51.6094 43.0863 51.6094C39.4163 51.6094 37.5463 52.2294 37.4062 52.5594Z" fill="#FCFCD0"/>
</g>
<g id="Group_81">
<path id="Vector_59" d="M43.0884 50.9902C42.4584 50.9902 36.8984 51.0302 36.8984 52.5202C36.8984 54.0102 42.4484 54.0502 43.0884 54.0502C43.7184 54.0502 49.2784 54.0102 49.2784 52.5202C49.2684 51.0302 43.7184 50.9902 43.0884 50.9902ZM43.0884 53.4402C39.4184 53.4402 37.5484 52.8102 37.4084 52.5502C37.5484 52.2302 39.4184 51.6003 43.0884 51.6003C46.6384 51.6003 48.5084 52.1902 48.7484 52.5202C48.5084 52.8502 46.6384 53.4402 43.0884 53.4402Z" fill="#E2E2F7"/>
</g>
<g id="Group_82">
<path id="Vector_60" d="M35.356 68.5805C34.936 72.6905 36.306 75.5105 38.946 77.8905C41.186 79.9105 44.986 79.9105 47.226 77.8905C49.866 75.5105 51.236 72.6805 50.816 68.5805L49.346 56.7305H36.826L35.356 68.5805Z" fill="#FFF39C"/>
</g>
<g id="Group_83">
<path id="Vector_61" d="M36.8281 56.7606C36.9881 57.0206 39.0481 57.6505 43.0981 57.6505C47.0181 57.6505 49.0781 57.0606 49.3481 56.7306C49.0781 56.4006 47.0181 55.8105 43.0981 55.8105C39.0481 55.8105 36.9881 56.4406 36.8281 56.7606Z" fill="#F9DD53"/>
</g>
<g id="Group_84">
<g id="Group_85" opacity="0.8">
<g id="Group_86">
<path id="Vector_62" d="M43.4747 79.8708C41.7247 80.0008 39.9547 79.4208 38.5547 78.2908C39.7647 79.7408 41.5847 80.5908 43.4047 80.5108C45.4147 80.4108 47.3547 79.1608 48.3847 77.3008C47.1247 78.7808 45.3347 79.7208 43.4747 79.8708Z" fill="#EAB50A"/>
</g>
</g>
</g>
<g id="Group_87" opacity="0.7">
<g id="Group_88">
<path id="Vector_63" d="M41.5147 80.6795C41.5147 80.6795 40.9947 80.5995 40.5147 80.3195C40.3447 80.2195 41.6947 81.2195 42.0847 81.6995C42.7147 82.4795 42.8947 83.3295 43.0047 84.0895C43.6047 88.2795 43.6647 107.789 43.8247 98.0495C43.8147 94.5495 43.8647 89.7495 44.0447 86.2595C44.1447 84.3695 43.7347 81.6695 45.5647 80.3195C44.4447 80.8795 42.7147 81.0095 41.5147 80.6795Z" fill="#F9DD53"/>
</g>
</g>
<g id="Group_89" opacity="0.5">
<g id="Group_90">
<path id="Vector_64" d="M50.1275 102.41C50.0375 102.21 49.8075 102.11 49.6075 102.03C48.0575 101.46 46.4375 101.11 44.7875 101L44.8575 101.16C45.4575 101.53 46.0475 101.91 46.6475 102.28C46.8075 102.38 46.9975 102.53 46.9575 102.72C46.9275 102.87 46.7775 102.95 46.6275 103C45.5175 103.41 44.2275 103.26 43.1875 103.81C45.1775 103.76 47.1775 103.6 49.1475 103.32C49.4075 103.28 49.6775 103.24 49.8875 103.09C50.0975 102.94 50.2375 102.65 50.1275 102.41Z" fill="#EAB50A"/>
</g>
</g>
<g id="Group_91">
<path id="Vector_65" d="M50.6666 103.23C50.3466 103.49 49.9266 103.58 49.5166 103.66C47.5566 104.03 45.5666 104.26 43.5666 104.33V104.37C43.4866 104.44 43.5966 104.56 43.6966 104.59C44.2666 104.77 44.8866 104.72 45.4766 104.66C46.5366 104.54 47.5966 104.38 48.6566 104.19C49.4566 104.04 50.2766 103.85 50.9166 103.36C50.9666 103.32 51.0166 103.28 51.0066 103.22C51.0066 103.07 50.7766 103.14 50.6666 103.23Z" fill="#F9DD53"/>
</g>
<g id="Group_92" opacity="0.4">
<g id="Group_93">
<path id="Vector_66" d="M42.2065 101.531C41.9965 101.291 41.6565 101.191 41.3365 101.191C41.2665 101.191 41.1965 101.211 41.1265 101.221C39.5465 101.221 37.9665 101.491 36.4765 102.031C36.3165 102.091 36.1465 102.161 36.0365 102.291C35.9265 102.421 35.8965 102.641 36.0065 102.761C36.0765 102.831 36.1665 102.861 36.2565 102.881C38.0565 103.361 39.9965 103.291 41.7565 102.701C41.9465 102.641 42.1365 102.561 42.2565 102.411C42.4665 102.161 42.4165 101.771 42.2065 101.531Z" fill="white"/>
</g>
</g>
<g id="Group_94">
<path id="Vector_67" d="M40.5692 101.641C40.4892 101.541 40.3492 101.511 40.2092 101.501C39.9892 101.491 39.7692 101.511 39.5592 101.561C38.8992 101.651 38.2692 101.911 37.6592 102.181C37.5392 102.231 37.4092 102.301 37.3492 102.421C37.2692 102.611 37.4292 102.831 37.6292 102.891C37.8292 102.951 38.0392 102.891 38.2292 102.831C38.8392 102.651 39.4492 102.471 40.0492 102.291C40.2092 102.241 40.3692 102.191 40.4892 102.081C40.6092 101.971 40.6692 101.771 40.5692 101.641Z" fill="white"/>
</g>
<g id="Group_95">
<path id="Vector_68" d="M42.8106 96.0499C42.7506 93.0199 42.5306 90.3299 42.3806 87.2999C42.3506 86.5799 42.3106 85.5699 42.2406 84.8199C41.9406 82.9599 41.9706 85.1199 41.9706 85.1199C41.8906 89.4199 42.0006 93.7299 42.3006 98.0199C42.3206 98.3399 42.3606 98.6799 42.6006 98.8899C42.8406 97.9699 42.8206 97.0099 42.8106 96.0499Z" fill="white"/>
</g>
<g id="Group_96" opacity="0.5">
<g id="Group_97">
<path id="Vector_69" d="M42.6012 55.0602C42.5212 54.9702 42.4212 54.9402 42.3212 54.9002C40.8012 54.4302 39.1112 54.6002 37.7312 53.6902C37.6012 53.6002 37.4612 53.5002 37.3112 53.5202C37.1612 53.5402 37.0212 53.7402 37.0912 53.9002L37.1812 53.7002C36.6612 56.3602 35.5112 65.4402 35.2812 68.1602C35.2012 69.1602 35.1412 70.1802 35.2712 71.1802C36.1112 77.3102 40.3212 79.0002 41.3912 79.0702C39.0812 78.0002 38.8312 76.4102 38.5412 75.7302C38.1712 74.8702 37.9312 72.7702 37.9212 72.0302C37.9112 71.0902 37.8112 70.4802 38.0012 69.4902C38.2812 68.0002 38.7112 60.5702 42.2612 56.0902C42.5112 55.7902 42.8512 55.3602 42.6012 55.0602Z" fill="white"/>
</g>
</g>
<g id="Group_98">
<path id="Vector_70" d="M38.5981 54.3397C38.3681 54.2497 38.1181 54.1697 37.8881 54.2497C37.6581 54.3297 37.4581 54.6297 37.5381 54.9097L37.6881 54.4097C37.1881 56.1697 35.9481 64.3297 35.6981 66.1697C35.4381 68.0097 35.4981 69.9497 36.1581 71.6697C36.1681 68.4297 37.6981 58.8197 39.1881 56.1197C39.3281 55.8597 39.4881 55.5797 39.4681 55.2697C39.4281 54.7797 38.9881 54.4997 38.5981 54.3397Z" fill="white"/>
</g>
<g id="Group_99" opacity="0.5">
<g id="Group_100">
<path id="Vector_71" d="M50.8544 68.9704C50.7144 65.8804 49.5644 56.4104 48.9444 53.4004C47.3444 53.8604 45.7144 54.1404 44.0744 54.2204C43.9344 54.2304 43.7444 54.2904 43.7444 54.4604C43.7444 54.6004 43.8744 54.6804 43.9744 54.7404C44.7044 55.1904 44.9944 56.2604 45.1644 57.2204C45.5644 59.5104 46.0644 68.2404 46.0344 70.5804C46.0144 72.2704 45.8044 74.1004 44.7044 75.2904C43.8344 76.2204 42.5844 76.5804 41.3844 76.8304C40.9044 76.9304 40.4144 77.0204 39.9344 76.9804C39.0444 76.9104 38.2444 76.4004 37.4844 75.9004C38.4744 78.1304 40.8344 79.4504 43.1244 79.3704C45.4144 79.2904 47.1844 78.2204 48.6944 76.3604C49.0644 75.9004 49.5244 75.2904 49.7844 74.7404C50.6144 73.0504 50.9344 70.9004 50.8544 68.9704Z" fill="#FFCD52"/>
</g>
</g>
<g id="Group_101" opacity="0.8">
<g id="Group_102">
<path id="Vector_72" d="M50.1441 66.6309C49.9641 64.7809 49.1041 56.5509 48.9441 54.7009C48.9241 54.4609 48.8941 54.2009 48.7841 54.0009C48.6641 53.8009 48.5741 53.8209 48.5741 53.8209C48.1541 53.9309 47.7341 54.0509 47.3041 54.1609C47.0841 54.2209 46.8241 54.3209 46.7441 54.5809C46.6841 54.7909 46.7641 55.0109 46.8441 55.2109C47.9141 57.9109 49.0141 67.3209 48.8541 70.3008C48.7841 71.5508 48.5941 72.8009 48.1341 73.9509C47.6841 75.1009 46.9541 76.1509 45.9741 76.8209C45.5341 77.1209 45.0641 77.3409 44.5741 77.5309C43.8641 77.8109 43.1241 78.0209 42.3841 78.1609C41.7041 78.2909 40.9241 78.3309 40.4141 77.8309C41.4341 79.0309 43.2041 79.0909 44.6541 78.6309C46.9741 77.8909 48.9941 76.0009 49.8241 73.5508C50.5741 71.3708 50.3641 68.9509 50.1441 66.6309Z" fill="#FFCD52"/>
</g>
</g>
</g>
<g id="Group_103">
<g id="Group_104">
<path id="Vector_73" d="M42.6831 72.5616C42.9482 72.5616 43.1631 72.3467 43.1631 72.0816C43.1631 71.8165 42.9482 71.6016 42.6831 71.6016C42.418 71.6016 42.2031 71.8165 42.2031 72.0816C42.2031 72.3467 42.418 72.5616 42.6831 72.5616Z" fill="#EAB50A"/>
</g>
<g id="Group_105">
<path id="Vector_74" d="M43.9706 74.6611C43.9706 74.8211 43.8406 74.9511 43.6806 74.9511C43.5206 74.9511 43.3906 74.8211 43.3906 74.6611C43.3906 74.5011 43.5206 74.3711 43.6806 74.3711C43.8406 74.3711 43.9706 74.5011 43.9706 74.6611Z" fill="#EAB50A"/>
</g>
<g id="Group_106">
<path id="Vector_75" d="M44.0331 71.2099C44.0331 71.3699 43.9031 71.4999 43.7431 71.4999C43.5831 71.4999 43.4531 71.3699 43.4531 71.2099C43.4531 71.0499 43.5831 70.9199 43.7431 70.9199C43.9031 70.9199 44.0331 71.0499 44.0331 71.2099Z" fill="#EAB50A"/>
</g>
<g id="Group_107">
<path id="Vector_76" d="M41.5253 61.8603C41.5253 62.0203 41.3953 62.1503 41.2353 62.1503C41.0753 62.1503 40.9453 62.0203 40.9453 61.8603C40.9453 61.7003 41.0753 61.5703 41.2353 61.5703C41.3953 61.5703 41.5253 61.7003 41.5253 61.8603Z" fill="#EAB50A"/>
</g>
<g id="Group_108">
<path id="Vector_77" d="M43.2753 58.7411C43.2753 58.9011 43.1453 59.0312 42.9853 59.0312C42.8253 59.0312 42.6953 58.9011 42.6953 58.7411C42.6953 58.5811 42.8253 58.4512 42.9853 58.4512C43.1453 58.4512 43.2753 58.5811 43.2753 58.7411Z" fill="#EAB50A"/>
</g>
<g id="Group_109">
<path id="Vector_78" d="M42.9863 66.4599C42.9863 66.6199 42.8563 66.7499 42.6963 66.7499C42.5363 66.7499 42.4062 66.6199 42.4062 66.4599C42.4062 66.2999 42.5363 66.1699 42.6963 66.1699C42.8563 66.1699 42.9863 66.2999 42.9863 66.4599Z" fill="#EAB50A"/>
</g>
<g id="Group_110">
<path id="Vector_79" d="M41.5253 69.2197C41.5253 69.3797 41.3953 69.5097 41.2353 69.5097C41.0753 69.5097 40.9453 69.3797 40.9453 69.2197C40.9453 69.0597 41.0753 68.9297 41.2353 68.9297C41.3953 68.9297 41.5253 69.0597 41.5253 69.2197Z" fill="#EAB50A"/>
</g>
<g id="Group_111">
<path id="Vector_80" d="M44.6553 69.6909C44.6553 69.9609 44.4353 70.171 44.1753 70.171C43.9053 70.171 43.6953 69.9509 43.6953 69.6909C43.6953 69.4209 43.9153 69.2109 44.1753 69.2109C44.4353 69.2109 44.6553 69.4309 44.6553 69.6909Z" fill="#EAB50A"/>
</g>
<g id="Group_112">
<path id="Vector_81" d="M41.8037 68.0702C41.8037 68.3402 41.5837 68.5502 41.3237 68.5502C41.0537 68.5502 40.8438 68.3302 40.8438 68.0702C40.8438 67.8002 41.0637 67.5902 41.3237 67.5902C41.5837 67.5802 41.8037 67.8002 41.8037 68.0702Z" fill="#EAB50A"/>
</g>
<g id="Group_113">
<path id="Vector_82" d="M43.9444 64.0406C43.9444 64.3106 43.7244 64.5205 43.4644 64.5205C43.1944 64.5205 42.9844 64.3006 42.9844 64.0406C42.9844 63.7706 43.2044 63.5605 43.4644 63.5605C43.7244 63.5605 43.9444 63.7806 43.9444 64.0406Z" fill="#EAB50A"/>
</g>
<g id="Group_114">
<path id="Vector_83" d="M41.8081 60.5401C42.0732 60.5401 42.2881 60.3252 42.2881 60.0601C42.2881 59.795 42.0732 59.5801 41.8081 59.5801C41.543 59.5801 41.3281 59.795 41.3281 60.0601C41.3281 60.3252 41.543 60.5401 41.8081 60.5401Z" fill="#EAB50A"/>
</g>
<g id="Group_115">
<path id="Vector_84" d="M42.2022 56.0406C42.2022 56.3106 41.9822 56.5205 41.7222 56.5205C41.4522 56.5205 41.2422 56.3006 41.2422 56.0406C41.2422 55.7706 41.4622 55.5605 41.7222 55.5605C41.9822 55.5605 42.2022 55.7806 42.2022 56.0406Z" fill="#EAB50A"/>
</g>
<g id="Group_116">
<path id="Vector_85" d="M44.6553 61.1909C44.6553 61.4609 44.4353 61.671 44.1753 61.671C43.9053 61.671 43.6953 61.4509 43.6953 61.1909C43.6953 60.9209 43.9153 60.7109 44.1753 60.7109C44.4353 60.7109 44.6553 60.9209 44.6553 61.1909Z" fill="#EAB50A"/>
</g>
<g id="Group_117">
<path id="Vector_86" d="M41.4544 63.4306C41.4544 63.7706 41.1744 64.0406 40.8444 64.0406C40.5044 64.0406 40.2344 63.7706 40.2344 63.4306C40.2344 63.0906 40.5144 62.8206 40.8444 62.8206C41.1744 62.8106 41.4544 63.0906 41.4544 63.4306Z" fill="#EAB50A"/>
</g>
<g id="Group_118">
<path id="Vector_87" d="M44.6575 56.5299C44.6575 56.8699 44.3775 57.1399 44.0475 57.1399C43.7175 57.1399 43.4375 56.8699 43.4375 56.5299C43.4375 56.1899 43.7075 55.9199 44.0475 55.9199C44.3875 55.9199 44.6575 56.1899 44.6575 56.5299Z" fill="#EAB50A"/>
</g>
</g>
</g>
</g>
</svg>
