<svg width="60" height="60" viewBox="0 0 60 60" fill="none" xmlns="http://www.w3.org/2000/svg">
<g id="delivery-truck (1)" clip-path="url(#clip0_5974_35882)">
<path id="Vector" d="M51.5109 46.6101C50.4942 46.6108 49.5001 46.31 48.6543 45.7457C47.8085 45.1813 47.1491 44.3788 46.7595 43.4397C46.3699 42.5005 46.2676 41.4669 46.4655 40.4696C46.6634 39.4723 47.1526 38.5561 47.8713 37.8369C48.59 37.1177 49.5059 36.6278 50.503 36.4291C51.5002 36.2305 52.5339 36.3321 53.4733 36.721C54.4127 37.1099 55.2157 37.7687 55.7807 38.6141C56.3456 39.4594 56.6472 40.4533 56.6472 41.4701C56.6465 42.8324 56.1053 44.1389 55.1423 45.1026C54.1793 46.0662 52.8733 46.6084 51.5109 46.6101ZM51.5109 38.2051C50.865 38.2043 50.2334 38.3952 49.696 38.7535C49.1586 39.1118 48.7395 39.6215 48.4918 40.218C48.2441 40.8146 48.1789 41.4712 48.3045 42.1047C48.43 42.7383 48.7407 43.3205 49.1972 43.7775C49.6536 44.2344 50.2354 44.5458 50.8688 44.6721C51.5023 44.7984 52.159 44.7339 52.7558 44.4869C53.3526 44.2399 53.8627 43.8214 54.2217 43.2844C54.5806 42.7474 54.7722 42.116 54.7722 41.4701C54.7719 40.6049 54.4283 39.7752 53.8169 39.1631C53.2054 38.5509 52.3761 38.2064 51.5109 38.2051Z" fill="#242424"/>
<path id="Vector_2" d="M24.4263 46.6101C23.4094 46.6111 22.4152 46.3104 21.5693 45.7463C20.7233 45.1821 20.0637 44.3797 19.6739 43.4405C19.2841 42.5014 19.1816 41.4678 19.3794 40.4704C19.5772 39.473 20.0663 38.5567 20.785 37.8373C21.5036 37.118 22.4194 36.6279 23.4166 36.4292C24.4138 36.2305 25.4476 36.332 26.3871 36.7209C27.3266 37.1097 28.1296 37.7686 28.6947 38.6139C29.2597 39.4593 29.5613 40.4533 29.5613 41.4701C29.5603 42.8321 29.0191 44.1382 28.0565 45.1017C27.0938 46.0653 25.7883 46.6078 24.4263 46.6101ZM24.4263 38.2051C23.7803 38.2041 23.1485 38.3947 22.611 38.7529C22.0734 39.1111 21.6541 39.6206 21.4062 40.2171C21.1583 40.8137 21.093 41.4703 21.2184 42.104C21.3438 42.7377 21.6544 43.3199 22.1108 43.777C22.5672 44.2341 23.149 44.5456 23.7824 44.672C24.4159 44.7984 25.0727 44.734 25.6696 44.487C26.2664 44.24 26.7767 43.8216 27.1357 43.2845C27.4946 42.7475 27.6863 42.116 27.6863 41.4701C27.6856 40.6052 27.3421 39.7759 26.731 39.1639C26.1199 38.5518 25.2911 38.2071 24.4263 38.2051Z" fill="#242424"/>
<path id="Vector_3" d="M58.2784 42.4084H55.7147C55.466 42.4084 55.2276 42.3096 55.0518 42.1338C54.876 41.958 54.7772 41.7195 54.7772 41.4709C54.7772 41.2222 54.876 40.9838 55.0518 40.8079C55.2276 40.6321 55.466 40.5334 55.7147 40.5334H58.0134V35.5621C58.0128 34.89 57.8407 34.2291 57.5134 33.6421L52.4384 24.5434C52.3951 24.4657 52.3318 24.401 52.2551 24.356C52.1784 24.3109 52.0911 24.2872 52.0022 24.2871H45.0859V40.5371H47.3184C47.5671 40.5371 47.8055 40.6359 47.9814 40.8117C48.1572 40.9875 48.2559 41.226 48.2559 41.4746C48.2559 41.7232 48.1572 41.9617 47.9814 42.1375C47.8055 42.3133 47.5671 42.4121 47.3184 42.4121H44.1484C43.8998 42.4121 43.6613 42.3133 43.4855 42.1375C43.3097 41.9617 43.2109 41.7232 43.2109 41.4746V23.3496C43.2109 23.101 43.3097 22.8625 43.4855 22.6867C43.6613 22.5109 43.8998 22.4121 44.1484 22.4121H52.0022C52.4251 22.4119 52.8405 22.5246 53.2053 22.7387C53.57 22.9527 53.8711 23.2603 54.0772 23.6296L59.1509 32.7296C59.6333 33.5958 59.8867 34.5707 59.8872 35.5621V40.7996C59.8865 41.2261 59.7168 41.6349 59.4153 41.9364C59.1137 42.238 58.7049 42.4077 58.2784 42.4084Z" fill="#242424"/>
<path id="Vector_4" d="M20.2309 42.4073H11.2422C10.9935 42.4073 10.7551 42.3085 10.5793 42.1327C10.4035 41.9569 10.3047 41.7184 10.3047 41.4698V34.2598C10.3047 34.0111 10.4035 33.7727 10.5793 33.5969C10.7551 33.421 10.9935 33.3223 11.2422 33.3223C11.4908 33.3223 11.7293 33.421 11.9051 33.5969C12.0809 33.7727 12.1797 34.0111 12.1797 34.2598V40.5323H20.2309C20.4796 40.5323 20.718 40.631 20.8938 40.8068C21.0697 40.9827 21.1684 41.2211 21.1684 41.4698C21.1684 41.7184 21.0697 41.9569 20.8938 42.1327C20.718 42.3085 20.4796 42.4073 20.2309 42.4073Z" fill="#242424"/>
<path id="Vector_5" d="M11.2422 30.9337C10.9935 30.9337 10.7551 30.8349 10.5793 30.6591C10.4035 30.4833 10.3047 30.2448 10.3047 29.9962V23.7012C10.3047 23.4525 10.4035 23.2141 10.5793 23.0383C10.7551 22.8624 10.9935 22.7637 11.2422 22.7637C11.4908 22.7637 11.7293 22.8624 11.9051 23.0383C12.0809 23.2141 12.1797 23.4525 12.1797 23.7012V29.9999C12.1787 30.2479 12.0795 30.4854 11.9038 30.6604C11.7281 30.8354 11.4902 30.9337 11.2422 30.9337Z" fill="#242424"/>
<path id="Vector_6" d="M44.1484 42.4071H28.6272C28.3785 42.4071 28.1401 42.3083 27.9643 42.1325C27.7885 41.9567 27.6897 41.7182 27.6897 41.4696C27.6897 41.221 27.7885 40.9825 27.9643 40.8067C28.1401 40.6309 28.3785 40.5321 28.6272 40.5321H43.2109V16.0059H12.1797V19.8671C12.1797 20.1157 12.0809 20.3542 11.9051 20.53C11.7293 20.7058 11.4908 20.8046 11.2422 20.8046C10.9935 20.8046 10.7551 20.7058 10.5793 20.53C10.4035 20.3542 10.3047 20.1157 10.3047 19.8671V15.8334C10.3053 15.3818 10.4851 14.949 10.8045 14.6298C11.1239 14.3106 11.5569 14.1312 12.0084 14.1309H43.3834C43.8348 14.1315 44.2674 14.3111 44.5866 14.6302C44.9057 14.9494 45.0853 15.382 45.0859 15.8334V41.4696C45.0859 41.7182 44.9872 41.9567 44.8114 42.1325C44.6355 42.3083 44.3971 42.4071 44.1484 42.4071Z" fill="#242424"/>
<path id="Vector_7" d="M14.9456 35.1973H3.04688C2.79823 35.1973 2.55978 35.0985 2.38396 34.9227C2.20815 34.7469 2.10938 34.5084 2.10938 34.2598C2.10938 34.0111 2.20815 33.7727 2.38396 33.5969C2.55978 33.421 2.79823 33.3223 3.04688 33.3223H14.9456C15.1943 33.3223 15.4327 33.421 15.6085 33.5969C15.7844 33.7727 15.8831 34.0111 15.8831 34.2598C15.8831 34.5084 15.7844 34.7469 15.6085 34.9227C15.4327 35.0985 15.1943 35.1973 14.9456 35.1973Z" fill="#242424"/>
<path id="Vector_8" d="M24.4241 30.9336H7.82031C7.57167 30.9336 7.33322 30.8348 7.1574 30.659C6.98159 30.4832 6.88281 30.2447 6.88281 29.9961C6.88281 29.7475 6.98159 29.509 7.1574 29.3332C7.33322 29.1574 7.57167 29.0586 7.82031 29.0586H24.4241C24.6727 29.0586 24.9112 29.1574 25.087 29.3332C25.2628 29.509 25.3616 29.7475 25.3616 29.9961C25.3616 30.2447 25.2628 30.4832 25.087 30.659C24.9112 30.8348 24.6727 30.9336 24.4241 30.9336Z" fill="#242424"/>
<path id="Vector_9" d="M7.30406 25.9844H0.820312C0.571672 25.9844 0.333215 25.8856 0.1574 25.7098C-0.0184155 25.534 -0.117187 25.2955 -0.117188 25.0469C-0.117188 24.7982 -0.0184155 24.5598 0.1574 24.384C0.333215 24.2081 0.571672 24.1094 0.820312 24.1094H7.30406C7.5527 24.1094 7.79116 24.2081 7.96698 24.384C8.14279 24.5598 8.24156 24.7982 8.24156 25.0469C8.24156 25.2955 8.14279 25.534 7.96698 25.7098C7.79116 25.8856 7.5527 25.9844 7.30406 25.9844Z" fill="#242424"/>
<path id="Vector_10" d="M17.7028 20.8047H6.25781C6.00917 20.8047 5.77072 20.7059 5.5949 20.5301C5.41908 20.3543 5.32031 20.1158 5.32031 19.8672C5.32031 19.6185 5.41908 19.3801 5.5949 19.2043C5.77072 19.0285 6.00917 18.9297 6.25781 18.9297H17.7028C17.9515 18.9297 18.1899 19.0285 18.3657 19.2043C18.5415 19.3801 18.6403 19.6185 18.6403 19.8672C18.6403 20.1158 18.5415 20.3543 18.3657 20.5301C18.1899 20.7059 17.9515 20.8047 17.7028 20.8047Z" fill="#242424"/>
</g>
<defs>
<clipPath id="clip0_5974_35882">
<rect width="60" height="60" fill="white"/>
</clipPath>
</defs>
</svg>
