<svg width="60" height="60" viewBox="0 0 60 60" fill="none" xmlns="http://www.w3.org/2000/svg">
<g id="distribution">
<path id="Vector" d="M11.4805 38.6605L28.3015 43.6355C28.4779 43.6611 28.657 43.6611 28.8334 43.6355L45.6549 38.6605C45.8488 38.6031 46.019 38.4846 46.14 38.3226C46.261 38.1605 46.3264 37.9637 46.3264 37.7615V20.8609C46.3212 20.6674 46.2585 20.4798 46.1462 20.3221C46.0339 20.1644 45.8772 20.0438 45.696 19.9756L28.8746 14.1381C28.6757 14.0685 28.4591 14.0685 28.2603 14.1381L11.4393 19.9755C11.264 20.0404 11.1114 20.1549 11.0003 20.3052C10.8892 20.4555 10.8243 20.6349 10.8136 20.8215C10.766 20.8513 10.8381 37.726 10.8089 37.7615C10.8089 37.9637 10.8743 38.1605 10.9953 38.3226C11.1164 38.4846 11.2866 38.6031 11.4805 38.6605ZM44.4514 37.0611L29.5049 41.4813V26.9161L44.4514 22.1444V37.0611ZM28.5674 16.0159L42.4237 20.8238L28.5674 25.2477L14.7116 20.8238L28.5674 16.0159ZM12.6839 22.1444L27.6299 26.9161V41.4813L12.6839 37.0611V22.1444Z" fill="#242424"/>
<path id="Vector_2" d="M23.6374 26.6267L17.2406 24.6262C17.1004 24.5812 16.9515 24.5704 16.8063 24.5946C16.661 24.6188 16.5237 24.6774 16.4057 24.7654C16.2872 24.8525 16.1908 24.9662 16.1244 25.0974C16.058 25.2287 16.0234 25.3737 16.0234 25.5207V28.9951C16.0234 29.1954 16.0875 29.3905 16.2065 29.5516C16.3255 29.7128 16.493 29.8316 16.6845 29.8905L23.0812 31.8653C23.2214 31.9072 23.3694 31.9159 23.5135 31.8908C23.6577 31.8657 23.794 31.8074 23.9117 31.7206C24.0295 31.6337 24.1254 31.5207 24.192 31.3904C24.2585 31.2601 24.2939 31.1161 24.2952 30.9698V27.5211C24.2953 27.3214 24.2316 27.1268 24.1132 26.9659C23.9949 26.805 23.8281 26.6861 23.6374 26.6267ZM22.4202 29.6992L17.8984 28.303V26.796L22.4202 28.2105V29.6992Z" fill="#242424"/>
<path id="Vector_3" d="M37.9083 38.0929C38.0058 38.0929 42.7674 36.5365 42.7674 36.5365C42.9989 36.4548 43.1891 36.2856 43.2973 36.0653C43.4054 35.8449 43.4228 35.5909 43.3457 35.3579C43.2686 35.1249 43.1032 34.9314 42.885 34.819C42.6668 34.7065 42.4132 34.6842 42.1787 34.7567L37.6139 36.2655C37.4057 36.3384 37.2297 36.4822 37.1168 36.6717C37.0039 36.8613 36.9613 37.0845 36.9963 37.3024C37.0314 37.5202 37.142 37.7187 37.3087 37.8632C37.4754 38.0078 37.6877 38.089 37.9083 38.0929Z" fill="#242424"/>
<path id="Vector_4" d="M38.9005 34.9454C38.8722 35.0564 42.6803 33.7255 42.7667 33.7177C42.8836 33.6791 42.9917 33.6179 43.0849 33.5375C43.1781 33.4571 43.2546 33.3591 43.3099 33.2492C43.3652 33.1393 43.3984 33.0195 43.4075 32.8968C43.4165 32.7741 43.4013 32.6508 43.3627 32.5339C43.3241 32.417 43.2629 32.3089 43.1825 32.2157C43.1021 32.1225 43.0042 32.0461 42.8942 31.9907C42.7843 31.9354 42.6646 31.9022 42.5418 31.8932C42.4191 31.8841 42.2958 31.8993 42.1789 31.9379L38.6065 33.118C38.3982 33.1908 38.2221 33.3346 38.1092 33.5241C37.9962 33.7137 37.9535 33.9369 37.9885 34.1548C38.0235 34.3726 38.1341 34.5712 38.3008 34.7158C38.4676 34.8603 38.6798 34.9416 38.9005 34.9454Z" fill="#242424"/>
<path id="Vector_5" d="M50.6794 43.66H47.0873C46.8418 43.6647 46.6078 43.7655 46.4358 43.9408C46.2638 44.1161 46.1675 44.352 46.1675 44.5976C46.1675 44.8432 46.2639 45.079 46.4359 45.2543C46.6079 45.4296 46.8418 45.5304 47.0874 45.535H48.868C35.0678 63.1912 5.5157 52.7679 5.62561 29.9993C5.624 25.7912 6.71193 21.6543 8.7835 17.9914C8.84421 17.8843 8.88325 17.7664 8.89837 17.6442C8.91349 17.5221 8.90441 17.3981 8.87163 17.2795C8.83886 17.1608 8.78304 17.0498 8.70736 16.9528C8.63168 16.8557 8.53762 16.7745 8.43056 16.7138C8.3235 16.6531 8.20552 16.614 8.08337 16.5989C7.96122 16.5838 7.83729 16.5929 7.71866 16.6256C7.60002 16.6584 7.489 16.7142 7.39193 16.7899C7.29486 16.8656 7.21366 16.9596 7.15294 17.0667C4.92098 21.0115 3.74874 25.467 3.75039 29.9994C3.62411 54.0779 34.3988 65.4708 49.7421 47.4456C49.6629 48.1017 49.9273 48.7803 50.6795 48.7916C50.8026 48.7916 50.9245 48.7674 51.0382 48.7202C51.152 48.6731 51.2554 48.6041 51.3424 48.517C51.4295 48.43 51.4985 48.3266 51.5456 48.2128C51.5927 48.0991 51.6169 47.9772 51.6169 47.8541C51.6219 47.7816 51.648 44.2491 51.5604 44.3174C51.4978 44.1313 51.38 43.9686 51.2226 43.8511C51.0652 43.7337 50.8757 43.667 50.6794 43.66Z" fill="#242424"/>
<path id="Vector_6" d="M30.0029 3.75044C23.6179 3.63179 17.427 5.94764 12.6875 10.2277V9.21618C12.6837 8.97005 12.5832 8.7353 12.4078 8.5626C12.2324 8.3899 11.9961 8.29311 11.75 8.29311C11.5038 8.29312 11.2675 8.38993 11.0921 8.56264C10.9167 8.73535 10.8163 8.97011 10.8125 9.21623V12.4727C10.8204 12.5516 10.8361 12.6295 10.8595 12.7053C10.9107 12.9038 11.0255 13.0802 11.1863 13.2074C11.347 13.3347 11.545 13.4059 11.75 13.4101L15.3425 13.4102C15.588 13.4054 15.8218 13.3045 15.9937 13.1292C16.1656 12.9539 16.2619 12.7182 16.2619 12.4727C16.2619 12.2272 16.1656 11.9914 15.9936 11.8161C15.8217 11.6409 15.5879 11.54 15.3424 11.5352H14.0343C32.7771 -4.57131 61.0128 14.3706 53.0323 38.0078C52.9555 38.2414 52.9736 38.4958 53.0827 38.7162C53.1917 38.9366 53.383 39.1054 53.6153 39.186C53.8476 39.2667 54.1023 39.2529 54.3245 39.1475C54.5467 39.0422 54.7186 38.8537 54.8031 38.6228C60.8643 22.0225 47.7255 3.43835 30.0029 3.75044Z" fill="#242424"/>
</g>
</svg>
