<svg width="22" height="22" viewBox="0 0 22 22" fill="none" xmlns="http://www.w3.org/2000/svg">
<g id="my order">
<path id="Vector" d="M8.83929 5.82227C8.83929 4.63727 9.80823 3.67383 11 3.67383C12.1918 3.67383 13.1607 4.63727 13.1607 5.82227V7.43359H8.83929V5.82227ZM7.21875 7.43359H5.05804C4.16337 7.43359 3.4375 8.15533 3.4375 9.04492V16.0273C3.4375 17.8065 4.88923 19.25 6.67857 19.25H15.3214C17.1108 19.25 18.5625 17.8065 18.5625 16.0273V9.04492C18.5625 8.15533 17.8366 7.43359 16.942 7.43359H14.7813V5.82227C14.7813 3.74432 13.0898 2.0625 11 2.0625C8.91018 2.0625 7.21875 3.74432 7.21875 5.82227V7.43359ZM8.02902 10.6562C7.57999 10.6562 7.21875 10.2971 7.21875 9.85059C7.21875 9.40411 7.57999 9.04492 8.02902 9.04492C8.47804 9.04492 8.83929 9.40411 8.83929 9.85059C8.83929 10.2971 8.47804 10.6562 8.02902 10.6562ZM14.7813 9.85059C14.7813 10.2971 14.42 10.6562 13.971 10.6562C13.522 10.6562 13.1607 10.2971 13.1607 9.85059C13.1607 9.40411 13.522 9.04492 13.971 9.04492C14.42 9.04492 14.7813 9.40411 14.7813 9.85059Z" fill="#858584"/>
</g>
</svg>
