<svg width="22" height="22" viewBox="0 0 22 22" fill="none" xmlns="http://www.w3.org/2000/svg">
<g id="icon_fill like">
<path id="Vector" d="M4.28398 12.6404L10.1073 18.2031C10.349 18.4339 10.6681 18.5625 11 18.5625C11.3319 18.5625 11.651 18.4339 11.8927 18.2031L17.716 12.6404C18.6957 11.7073 19.25 10.3982 19.25 9.02981V8.83856C19.25 6.5337 17.6226 4.56847 15.4021 4.18927C13.9326 3.93867 12.4373 4.42998 11.3867 5.50492L11 5.9006L10.6133 5.50492C9.5627 4.42998 8.06738 3.93867 6.59785 4.18927C4.37744 4.56847 2.75 6.5337 2.75 8.83856V9.02981C2.75 10.3982 3.3043 11.7073 4.28398 12.6404Z" fill="#858584"/>
</g>
</svg>
