<svg width="28" height="28" viewBox="0 0 28 28" fill="none" xmlns="http://www.w3.org/2000/svg">
<path d="M6.76211 16.7063L5.8571 20.0848L2.54928 20.1548C1.56072 18.3213 1 16.2235 1 13.9942C1 11.8385 1.52426 9.8056 2.45355 8.01562H2.45426L5.39915 8.55553L6.68919 11.4827C6.41919 12.2699 6.27203 13.1149 6.27203 13.9942C6.27213 14.9484 6.44499 15.8628 6.76211 16.7063Z" fill="#FBBB00"/>
<path d="M26.776 11.5703C26.9253 12.3567 27.0032 13.1688 27.0032 13.9989C27.0032 14.9296 26.9053 15.8374 26.7189 16.7132C26.0861 19.6931 24.4325 22.2952 22.1418 24.1367L22.1411 24.136L18.4319 23.9467L17.9069 20.6695C19.4269 19.7781 20.6147 18.3831 21.2405 16.7132H14.2891V11.5703H21.3419H26.776Z" fill="#518EF8"/>
<path d="M22.1353 24.1359L22.136 24.1366C19.9082 25.9273 17.0782 26.9987 13.9975 26.9987C9.04684 26.9987 4.74259 24.2316 2.54688 20.1595L6.75971 16.7109C7.85755 19.6409 10.684 21.7266 13.9975 21.7266C15.4218 21.7266 16.7561 21.3416 17.9011 20.6695L22.1353 24.1359Z" fill="#28B446"/>
<path d="M22.2973 3.99283L18.0859 7.44065C16.9009 6.69996 15.5002 6.27208 13.9995 6.27208C10.6109 6.27208 7.73165 8.45348 6.68881 11.4885L2.45384 8.02138H2.45312C4.6167 3.84998 8.97523 1 13.9995 1C17.1538 1 20.0459 2.12358 22.2973 3.99283Z" fill="#F14336"/>
</svg>
