<svg width="40" height="40" viewBox="0 0 40 40" fill="none" xmlns="http://www.w3.org/2000/svg">
<g clip-path="url(#clip0_116_3)">
<path d="M25.9635 13.3406L25.7367 12.8576L20.2251 1.11771C20.2251 1.11768 20.2251 1.11766 20.225 1.11763C20.221 1.10903 20.2125 1.0941 20.179 1.07567C20.1403 1.05436 20.0773 1.03516 19.9994 1.03516C19.9215 1.03516 19.8585 1.05436 19.8198 1.07567C19.7864 1.09404 19.7779 1.10895 19.7738 1.11756C19.7738 1.11761 19.7738 1.11766 19.7738 1.11771L14.2638 12.8575L14.0371 13.3406L13.5096 13.4212L1.2136 15.2994C1.21348 15.2994 1.21336 15.2995 1.21324 15.2995C1.01285 15.3305 0.92935 15.5743 1.0722 15.7205L1.0727 15.721L10.006 24.8777L10.3585 25.2389L10.2772 25.737L8.16554 38.682L8.16545 38.6825C8.13199 38.887 8.35457 39.0401 8.531 38.942L8.53321 38.9408L19.5165 32.8708L20.0003 32.6034L20.4841 32.8708L31.4674 38.9425L31.4692 38.9435C31.5542 38.9907 31.647 38.986 31.7326 38.9264C31.7752 38.8967 31.8046 38.8595 31.821 38.8232C31.8354 38.791 31.8455 38.7477 31.8351 38.6842L31.835 38.6837L29.7233 25.7387L29.642 25.2406L29.9945 24.8793L38.9275 15.723L25.9635 13.3406ZM25.9635 13.3406L26.4909 13.4212M25.9635 13.3406L26.4909 13.4212M26.4909 13.4212L38.7867 15.2994M26.4909 13.4212L38.7867 15.2994M38.7867 15.2994C38.7868 15.2994 38.787 15.2994 38.7872 15.2995M38.7867 15.2994L38.7872 15.2995M38.7872 15.2995C38.9859 15.3305 39.0716 15.5747 38.9278 15.7227L38.7872 15.2995Z" stroke="#858584" stroke-width="2"/>
</g>
<defs>
<clipPath id="clip0_116_3">
<rect width="40" height="40" fill="white"/>
</clipPath>
</defs>
</svg>
