<svg width="60" height="60" viewBox="0 0 60 60" fill="none" xmlns="http://www.w3.org/2000/svg">
<g id="icon_pluz">
<path id="Vector" d="M26.75 26.25V26.75H26.25H13.125C11.3269 26.75 9.875 28.2019 9.875 30C9.875 31.7981 11.3269 33.25 13.125 33.25H26.25H26.75V33.75V46.875C26.75 48.6731 28.2019 50.125 30 50.125C31.7981 50.125 33.25 48.6731 33.25 46.875V33.75V33.25H33.75H46.875C48.6731 33.25 50.125 31.7981 50.125 30C50.125 28.2019 48.6731 26.75 46.875 26.75H33.75H33.25V26.25V13.125C33.25 11.3269 31.7981 9.875 30 9.875C28.2019 9.875 26.75 11.3269 26.75 13.125V26.25Z" fill="#858584" stroke="#858584"/>
</g>
</svg>
