<svg width="22" height="22" viewBox="0 0 22 22" fill="none" xmlns="http://www.w3.org/2000/svg">
<g id="icon_logout">
<path id="Vector" d="M12.1 3.17137C12.1 2.55803 11.6084 2.0625 11 2.0625C10.3916 2.0625 9.9 2.55803 9.9 3.17137V10.9335C9.9 11.5468 10.3916 12.0423 11 12.0423C11.6084 12.0423 12.1 11.5468 12.1 10.9335V3.17137ZM7.13281 6.24156C7.60031 5.84999 7.66219 5.15001 7.27375 4.67874C6.88531 4.20747 6.19094 4.1451 5.72344 4.53667C3.90844 6.06137 2.75 8.36227 2.75 10.9335C2.75 15.5249 6.44531 19.25 11 19.25C15.5547 19.25 19.25 15.5249 19.25 10.9335C19.25 8.36227 18.0881 6.06137 16.2731 4.53667C15.8056 4.1451 15.1112 4.21094 14.7228 4.67874C14.3344 5.14655 14.3997 5.84999 14.8638 6.24156C16.2009 7.36082 17.0466 9.04839 17.0466 10.9335C17.0466 14.3017 14.3378 17.0323 10.9966 17.0323C7.65531 17.0323 4.94656 14.3017 4.94656 10.9335C4.94656 9.04839 5.79562 7.36082 7.12937 6.24156H7.13281Z" fill="#858584"/>
</g>
</svg>
