<svg width="24" height="24" viewBox="0 0 24 24" fill="none" xmlns="http://www.w3.org/2000/svg">
<path d="M4.5 8.61971H12.641C12.8656 9.54023 13.6863 10.2248 14.6621 10.2248C15.6378 10.2248 16.4585 9.54023 16.6831 8.61971H19.5C19.7761 8.61971 20 8.39257 20 8.11243C20 7.83229 19.7761 7.60515 19.5 7.60515H16.6831C16.4585 6.68463 15.6378 6 14.662 6C13.6863 6 12.8655 6.68463 12.641 7.60515H4.5C4.22387 7.60515 4 7.83229 4 8.11243C4 8.39257 4.22387 8.61971 4.5 8.61971ZM14.6621 7.01455C15.2587 7.01455 15.7442 7.50706 15.7442 8.1124C15.7442 8.71777 15.2587 9.21027 14.6621 9.21027C14.0654 9.21027 13.5799 8.71777 13.5799 8.1124C13.5799 7.50706 14.0654 7.01455 14.6621 7.01455ZM4.5 13.0073H7.31694C7.5415 13.9278 8.36222 14.6124 9.33797 14.6124C10.3137 14.6124 11.1344 13.9278 11.359 13.0073H19.5C19.7761 13.0073 20 12.7801 20 12.5C20 12.2199 19.7761 11.9927 19.5 11.9927H11.359C11.1344 11.0722 10.3137 10.3876 9.33794 10.3876C8.36219 10.3876 7.54147 11.0722 7.31691 11.9927H4.5C4.22387 11.9927 4 12.2199 4 12.5C4 12.7801 4.22384 13.0073 4.5 13.0073ZM9.33794 11.4021C9.93462 11.4021 10.4201 11.8946 10.4201 12.5C10.4201 13.1053 9.93462 13.5978 9.33794 13.5978C8.74125 13.5978 8.25581 13.1053 8.25581 12.5C8.25581 11.8946 8.74125 11.4021 9.33794 11.4021ZM19.5 16.3803H16.6831C16.4585 15.4598 15.6378 14.7751 14.662 14.7751C13.6863 14.7751 12.8656 15.4598 12.641 16.3803H4.5C4.22387 16.3803 4 16.6074 4 16.8876C4 17.1677 4.22387 17.3948 4.5 17.3948H12.641C12.8656 18.3154 13.6863 19 14.6621 19C15.6378 19 16.4585 18.3154 16.6831 17.3948H19.5C19.7761 17.3948 20 17.1677 20 16.8876C20 16.6074 19.7762 16.3803 19.5 16.3803ZM14.6621 17.9854C14.0654 17.9854 13.5799 17.4929 13.5799 16.8876C13.5799 16.2822 14.0654 15.7897 14.6621 15.7897C15.2587 15.7897 15.7442 16.2822 15.7442 16.8876C15.7442 17.4929 15.2587 17.9854 14.6621 17.9854Z" fill="#242424"/>
</svg>
