<svg width="24" height="24" viewBox="0 0 24 24" fill="none" xmlns="http://www.w3.org/2000/svg">
<g clip-path="url(#clip0_101_3)">
<path d="M22.5 21H1.50001C0.67155 21 0 20.3284 0 19.5C0 18.6716 0.67155 18 1.50001 18H22.5C23.3285 18 24 18.6716 24 19.5C24 20.3284 23.3285 21 22.5 21Z" fill="black"/>
<path d="M22.5 13.5H1.50001C0.67155 13.5 0 12.8284 0 12C0 11.1716 0.67155 10.5 1.50001 10.5H22.5C23.3285 10.5 24 11.1716 24 12C24 12.8285 23.3285 13.5 22.5 13.5Z" fill="black"/>
<path d="M22.5 5.99999H1.50001C0.67155 5.99999 0 5.32841 0 4.49995C0 3.67148 0.67155 2.99994 1.50001 2.99994H22.5C23.3285 2.99994 24 3.67148 24 4.49995C24 5.32841 23.3285 5.99999 22.5 5.99999Z" fill="black"/>
</g>
<defs>
<clipPath id="clip0_101_3">
<rect width="24" height="24" fill="white"/>
</clipPath>
</defs>
</svg>
