<svg width="20" height="20" viewBox="0 0 20 20" fill="none" xmlns="http://www.w3.org/2000/svg">
<path d="M18.4134 2.83533C17.3781 1.71243 15.9575 1.09399 14.413 1.09399C13.2585 1.09399 12.2012 1.45898 11.2704 2.17874C10.8008 2.54205 10.3752 2.98654 10 3.50534C9.62494 2.98669 9.19922 2.54205 8.7294 2.17874C7.79877 1.45898 6.74149 1.09399 5.58701 1.09399C4.04251 1.09399 2.62177 1.71243 1.58646 2.83533C0.563507 3.9451 0 5.46121 0 7.10458C0 8.79602 0.630341 10.3443 1.98364 11.9773C3.19427 13.438 4.93423 14.9209 6.94916 16.638C7.63718 17.2244 8.41705 17.889 9.22684 18.597C9.44077 18.7844 9.71527 18.8876 10 18.8876C10.2846 18.8876 10.5592 18.7844 10.7729 18.5974C11.5826 17.8892 12.363 17.2242 13.0513 16.6375C15.0659 14.9207 16.8059 13.438 18.0165 11.9772C19.3698 10.3443 20 8.79602 20 7.10443C20 5.46121 19.4365 3.9451 18.4134 2.83533Z" fill="#DF2B2B"/>
</svg>
