<svg width="198" height="30" viewBox="0 0 198 30" fill="none" xmlns="http://www.w3.org/2000/svg">
<g clip-path="url(#clip0_9048_29240)">
<path d="M30 5.38281H0V24.6136H30V5.38281Z" fill="white"/>
<path d="M6.47589 11.9154C6.15285 11.6933 5.73131 11.582 5.21127 11.582H3.19796C3.03854 11.582 2.95046 11.6618 2.93373 11.821L2.11585 16.9549C2.10735 17.0053 2.11996 17.0514 2.15358 17.0933C2.187 17.1354 2.22904 17.1563 2.27939 17.1563H3.23569C3.40343 17.1563 3.49562 17.0767 3.51254 16.9172L3.739 15.5331C3.74727 15.4661 3.77677 15.4115 3.82712 15.3695C3.87743 15.3276 3.94035 15.3001 4.01585 15.2876C4.09135 15.2751 4.16254 15.2689 4.22977 15.2689C4.29681 15.2689 4.37646 15.2731 4.46889 15.2815C4.56108 15.2898 4.61985 15.2939 4.64504 15.2939C5.36643 15.2939 5.93266 15.0906 6.34377 14.6837C6.75469 14.2769 6.96039 13.7128 6.96039 12.9912C6.96039 12.4963 6.79877 12.1377 6.47589 11.9153V11.9154ZM5.43781 13.457C5.39573 13.7506 5.28681 13.9435 5.11066 14.0358C4.93446 14.1282 4.68281 14.1741 4.35569 14.1741L3.94043 14.1867L4.15439 12.8403C4.17108 12.7481 4.22558 12.702 4.31793 12.702H4.55708C4.89246 12.702 5.13589 12.7503 5.28689 12.8466C5.43781 12.9431 5.48816 13.1467 5.43781 13.457Z" fill="#003087"/>
<path d="M27.7221 11.582H26.791C26.6985 11.582 26.6441 11.6282 26.6275 11.7205L25.8095 16.9551L25.7969 16.9802C25.7969 17.0224 25.8137 17.062 25.8473 17.0998C25.8807 17.1375 25.9228 17.1564 25.9731 17.1564H26.8037C26.9628 17.1564 27.051 17.0768 27.068 16.9173L27.8858 11.7708V11.7583C27.8858 11.6409 27.8311 11.5821 27.7221 11.5821V11.582Z" fill="#009CDE"/>
<path d="M16.4743 13.6097C16.4743 13.5679 16.4574 13.528 16.4241 13.4903C16.3904 13.4526 16.3526 13.4336 16.3108 13.4336H15.3419C15.2494 13.4336 15.174 13.4757 15.1154 13.5594L13.7816 15.5225L13.2279 13.635C13.1858 13.5008 13.0936 13.4336 12.9511 13.4336H12.0073C11.9652 13.4336 11.9274 13.4525 11.8941 13.4903C11.8604 13.528 11.8438 13.5679 11.8438 13.6097C11.8438 13.6267 11.9256 13.874 12.0891 14.3522C12.2526 14.8304 12.4288 15.3463 12.6176 15.9C12.8064 16.4536 12.9048 16.7474 12.9133 16.7807C12.2254 17.7203 11.8815 18.2237 11.8815 18.2907C11.8815 18.3999 11.936 18.4543 12.0451 18.4543H13.014C13.1063 18.4543 13.1817 18.4125 13.2405 18.3285L16.4493 13.6977C16.4659 13.6811 16.4743 13.6519 16.4743 13.6097V13.6097Z" fill="#003087"/>
<path d="M25.4956 13.4358H24.5393C24.4217 13.4358 24.3507 13.5742 24.3255 13.851C24.1071 13.5157 23.7089 13.3477 23.13 13.3477C22.526 13.3477 22.0121 13.5742 21.5886 14.0272C21.1649 14.4802 20.9531 15.013 20.9531 15.6253C20.9531 16.1203 21.0978 16.5146 21.3872 16.8081C21.6765 17.1019 22.0645 17.2485 22.5512 17.2485C22.7944 17.2485 23.0419 17.1981 23.2935 17.0975C23.5452 16.9968 23.7422 16.8627 23.885 16.6948C23.885 16.7033 23.8765 16.7409 23.8599 16.808C23.843 16.8752 23.8347 16.9257 23.8347 16.959C23.8347 17.0934 23.8891 17.1603 23.9983 17.1603H24.8666C25.0258 17.1603 25.1182 17.0808 25.1433 16.9212L25.6592 13.637C25.6675 13.5867 25.655 13.5406 25.6215 13.4986C25.5878 13.4568 25.546 13.4358 25.4956 13.4358ZM23.8535 15.9147C23.6396 16.1244 23.3817 16.2293 23.0797 16.2293C22.8363 16.2293 22.6394 16.1623 22.4883 16.028C22.3372 15.894 22.2617 15.7094 22.2617 15.4743C22.2617 15.1641 22.3666 14.9018 22.5764 14.6879C22.7858 14.474 23.0461 14.367 23.3565 14.367C23.5912 14.367 23.7863 14.4362 23.9416 14.5746C24.0967 14.713 24.1745 14.9039 24.1745 15.1472C24.1744 15.4492 24.0674 15.7051 23.8535 15.9147Z" fill="#009CDE"/>
<path d="M11.2008 13.4358H10.2445C10.1269 13.4358 10.0557 13.5742 10.0305 13.851C9.80401 13.5157 9.40551 13.3477 8.83509 13.3477C8.23109 13.3477 7.7172 13.5742 7.29363 14.0272C6.86993 14.4802 6.6582 15.013 6.6582 15.6253C6.6582 16.1203 6.80293 16.5146 7.09236 16.8081C7.38178 17.1019 7.76966 17.2485 8.25628 17.2485C8.49105 17.2485 8.73447 17.1981 8.98609 17.0975C9.23774 16.9968 9.43909 16.8627 9.59009 16.6948C9.55643 16.7955 9.53974 16.8836 9.53974 16.959C9.53974 17.0934 9.59424 17.1603 9.70332 17.1603H10.5715C10.7308 17.1603 10.8232 17.0808 10.8484 16.9212L11.3643 13.637C11.3725 13.5867 11.36 13.5406 11.3265 13.4986C11.293 13.4568 11.2511 13.4358 11.2008 13.4358ZM9.55866 15.9209C9.3447 16.1267 9.08243 16.2293 8.77224 16.2293C8.52882 16.2293 8.33378 16.1623 8.18709 16.028C8.0402 15.894 7.96686 15.7094 7.96686 15.4743C7.96686 15.1641 8.07166 14.9018 8.28147 14.6879C8.49105 14.474 8.75113 14.367 9.06163 14.367C9.2964 14.367 9.49143 14.4362 9.64678 14.5746C9.80186 14.713 9.87955 14.904 9.87955 15.1472C9.87955 15.4576 9.77259 15.7156 9.55866 15.9209Z" fill="#003087"/>
<path d="M20.7709 11.9154C20.4479 11.6933 20.0264 11.582 19.5063 11.582H17.5055C17.3377 11.582 17.2453 11.6618 17.2287 11.821L16.4108 16.9549C16.4023 17.0053 16.4149 17.0515 16.4485 17.0934C16.4818 17.1354 16.524 17.1563 16.5743 17.1563H17.6061C17.7067 17.1563 17.7738 17.1018 17.8074 16.9927L18.034 15.5331C18.0423 15.4661 18.0717 15.4115 18.122 15.3695C18.1724 15.3276 18.2352 15.3002 18.3108 15.2876C18.3863 15.2751 18.4574 15.2689 18.5247 15.2689C18.5918 15.2689 18.6714 15.2731 18.7637 15.2815C18.856 15.2898 18.9149 15.2939 18.9399 15.2939C19.6614 15.2939 20.2275 15.0906 20.6387 14.6837C21.0497 14.2769 21.2552 13.7128 21.2552 12.9912C21.2553 12.4963 21.0937 12.1377 20.7709 11.9153V11.9154ZM19.4811 13.9854C19.2965 14.1112 19.0197 14.1741 18.6506 14.1741L18.2479 14.1867L18.4619 12.8403C18.4785 12.7481 18.533 12.702 18.6254 12.702H18.8518C19.0364 12.702 19.1831 12.7103 19.2924 12.7271C19.4012 12.744 19.5063 12.7963 19.6069 12.8843C19.7076 12.9725 19.7579 13.1004 19.7579 13.2682C19.7579 13.6205 19.6655 13.8595 19.4811 13.9854Z" fill="#009CDE"/>
</g>
<g clip-path="url(#clip1_9048_29240)">
<path d="M72 5.38281H42V24.6136H72V5.38281Z" fill="white"/>
<path d="M53.2766 18.7964L54.5597 11.2672H56.612L55.3279 18.7964H53.2766ZM62.7423 11.4295C62.3358 11.277 61.6986 11.1133 60.903 11.1133C58.8751 11.1133 57.4467 12.1344 57.4346 13.598C57.4231 14.6799 58.4543 15.2835 59.2327 15.6436C60.0316 16.0127 60.3001 16.248 60.2963 16.5776C60.2913 17.0822 59.6584 17.3128 59.0686 17.3128C58.2471 17.3128 57.8108 17.1987 57.1368 16.9176L56.8723 16.798L56.5843 18.4835C57.0636 18.6936 57.95 18.8757 58.8703 18.8851C61.0276 18.8851 62.428 17.8757 62.444 16.3127C62.4517 15.4562 61.9049 14.8044 60.7209 14.2671C60.0036 13.9188 59.5643 13.6863 59.5689 13.3337C59.5689 13.0207 59.9408 12.686 60.7442 12.686C61.4153 12.6756 61.9015 12.822 62.2803 12.9745L62.4642 13.0614L62.7423 11.4295ZM68.0235 11.2671H66.4376C65.9464 11.2671 65.5787 11.4012 65.363 11.8915L62.3151 18.7915H64.4702C64.4702 18.7915 64.8225 17.8637 64.9022 17.66C65.1378 17.66 67.2312 17.6632 67.5306 17.6632C67.5919 17.9268 67.7802 18.7915 67.7802 18.7915H69.6846L68.0235 11.2669V11.2671ZM65.5074 16.129C65.6771 15.6952 66.3251 14.0243 66.3251 14.0243C66.3129 14.0444 66.4935 13.5884 66.5972 13.3057L66.7358 13.9549C66.7358 13.9549 67.1289 15.7521 67.211 16.129H65.5074ZM51.5343 11.2671L49.5251 16.4017L49.311 15.3582C48.9369 14.1554 47.7716 12.8523 46.4688 12.1999L48.3059 18.7845L50.4773 18.782L53.7082 11.267H51.5343" fill="#0E4595"/>
<path d="M47.6499 11.2658H44.3406L44.3145 11.4224C46.889 12.0457 48.5925 13.5518 49.2998 15.3613L48.5802 11.9013C48.456 11.4245 48.0957 11.2823 47.65 11.2656" fill="#F2AE14"/>
</g>
<g clip-path="url(#clip2_9048_29240)">
<path d="M114 5.38281H84V24.6136H114V5.38281Z" fill="white"/>
<path d="M100.808 14.9038C100.808 18.717 97.7169 21.8077 93.9038 21.8077C90.0908 21.8077 87 18.7169 87 14.9038C87 11.091 90.0908 8 93.9038 8C97.7168 8 100.808 11.0912 100.808 14.9038Z" fill="#D9222A"/>
<path d="M111.347 14.9038C111.347 18.717 108.256 21.8077 104.443 21.8077C100.63 21.8077 97.5391 18.7169 97.5391 14.9038C97.5391 11.091 100.63 8 104.443 8C108.256 8 111.347 11.0912 111.347 14.9038Z" fill="#EE9F2D"/>
</g>
<g clip-path="url(#clip3_9048_29240)">
<path d="M156 5.38281H126V24.6136H156V5.38281Z" fill="white"/>
<path d="M127 14.4768H128.345L128.648 13.7639H129.327L129.63 14.4768H132.276V13.9318L132.512 14.4792H133.886L134.122 13.9237V14.4769H140.699L140.695 13.3065H140.823C140.912 13.3096 140.938 13.3176 140.938 13.461V14.4769H144.339V14.2044C144.614 14.3477 145.04 14.4769 145.602 14.4769H147.033L147.339 13.7639H148.018L148.317 14.4769H151.075V13.7997L151.492 14.4769H153.702V10H151.515V10.5287L151.209 10H148.965V10.5287L148.684 10H145.653C145.145 10 144.699 10.069 144.339 10.2614V10H142.248V10.2614C142.018 10.0631 141.706 10 141.358 10H133.717L133.204 11.1563L132.677 10H130.27V10.5287L130.006 10H127.953L127 12.1285V14.4768H127L127 14.4768ZM135.49 13.8311H134.683L134.68 11.3172L133.538 13.8311H132.847L131.703 11.315V13.8311H130.102L129.8 13.1151H128.161L127.855 13.8311H127L128.41 10.6213H129.579L130.918 13.6603V10.6213H132.203L133.233 12.7987L134.179 10.6213H135.49L135.49 13.8311ZM129.53 12.449L128.992 11.1693L128.456 12.449H129.53ZM138.701 13.831H136.072V10.6212H138.701V11.2896H136.859V11.8682H138.657V12.5262H136.859V13.1672H138.701L138.701 13.831ZM142.407 11.4857C142.407 11.9975 142.056 12.2619 141.852 12.3413C142.024 12.4051 142.171 12.5181 142.242 12.6116C142.353 12.7712 142.372 12.9138 142.372 13.2005V13.831H141.578L141.575 13.4263C141.575 13.2331 141.594 12.9554 141.451 12.8009C141.336 12.688 141.16 12.6635 140.877 12.6635H140.032V13.8311H139.245V10.6212H141.055C141.457 10.6212 141.754 10.6316 142.008 10.775C142.257 10.9184 142.407 11.1277 142.407 11.4857ZM141.412 11.9623C141.303 12.0263 141.176 12.0285 141.022 12.0285H140.066V11.3155H141.035C141.172 11.3155 141.316 11.3215 141.409 11.3734C141.511 11.4202 141.574 11.5197 141.574 11.6571C141.574 11.7975 141.514 11.9104 141.412 11.9623ZM143.669 13.831H142.866V10.6212H143.669V13.831ZM152.993 13.831H151.877L150.385 11.4219V13.831H148.782L148.476 13.1151H146.841L146.544 13.831H145.622C145.24 13.831 144.755 13.7486 144.481 13.476C144.204 13.2035 144.061 12.8343 144.061 12.2506C144.061 11.7746 144.147 11.3394 144.485 10.9955C144.739 10.7393 145.138 10.6212 145.68 10.6212H146.442V11.309H145.696C145.409 11.309 145.247 11.3507 145.091 11.4991C144.956 11.6343 144.864 11.8898 144.864 12.2262C144.864 12.5701 144.934 12.8181 145.081 12.98C145.202 13.1071 145.422 13.1456 145.629 13.1456H145.983L147.092 10.6213H148.272L149.604 13.6574V10.6214H150.803L152.187 12.8569V10.6214H152.993V13.831ZM148.208 12.449L147.663 11.1694L147.122 12.449H148.208ZM154.999 18.9566C154.807 19.2291 154.435 19.3672 153.93 19.3672H152.41V18.6788H153.924C154.074 18.6788 154.18 18.6595 154.243 18.5993C154.303 18.5454 154.336 18.4694 154.336 18.3899C154.336 18.2963 154.298 18.2221 154.24 18.1776C154.183 18.1285 154.1 18.1063 153.962 18.1063C153.223 18.0818 152.301 18.1285 152.301 17.1126C152.301 16.6469 152.605 16.1567 153.431 16.1567H154.998V15.518H153.542C153.102 15.518 152.783 15.6207 152.557 15.7802V15.518H150.402C150.057 15.518 149.653 15.6013 149.461 15.7802V15.518H145.614V15.7802C145.307 15.5649 144.791 15.518 144.552 15.518H142.014V15.7802C141.772 15.5515 141.233 15.518 140.905 15.518H138.064L137.414 16.2037L136.805 15.518H132.562V19.9978H136.725L137.395 19.3012L138.026 19.9978L140.592 20V18.9462H140.844C141.185 18.9513 141.587 18.9378 141.941 18.7886V19.9976H144.058V18.83H144.16C144.29 18.83 144.303 18.8353 144.303 18.9621V19.9975H150.733C151.141 19.9975 151.568 19.8957 151.804 19.7108V19.9975H153.844C154.268 19.9975 154.683 19.9395 154.998 19.791L154.998 18.9564L154.999 18.9566ZM142.249 17.2334C142.249 18.1252 141.566 18.3094 140.878 18.3094H139.896V19.3863H138.366L137.397 18.3234L136.389 19.3863H133.271V16.1756H136.437L137.406 17.228L138.407 16.1756H140.922C141.547 16.1756 142.249 16.3442 142.249 17.2334ZM135.991 18.7109H134.055V18.0722H135.783V17.4171H134.055V16.8334H136.029L136.89 17.769L135.991 18.7109ZM139.109 19.0786L137.9 17.7707L139.109 16.5045V19.0786ZM140.896 17.651H139.879V16.8334H140.905C141.19 16.8334 141.387 16.9463 141.387 17.227C141.387 17.5047 141.199 17.651 140.896 17.651ZM146.226 16.1756H148.853V16.8396H147.009V17.4233H148.808V18.0784H147.009V18.7172L148.853 18.7201V19.3863H146.225L146.226 16.1756ZM145.215 17.8942C145.391 17.9573 145.534 18.0702 145.601 18.1637C145.712 18.3205 145.728 18.4668 145.731 18.7498V19.3863H144.941V18.9846C144.941 18.7914 144.96 18.5054 144.814 18.3561C144.699 18.2411 144.524 18.2136 144.236 18.2136H143.395V19.3863H142.604V16.1757H144.422C144.82 16.1757 145.11 16.1929 145.369 16.3272C145.617 16.4735 145.773 16.6739 145.773 17.0402C145.773 17.5526 145.423 17.8141 145.215 17.8942ZM144.771 17.4883C144.665 17.5493 144.535 17.5545 144.382 17.5545H143.426V16.8334H144.395C144.535 16.8334 144.675 16.8364 144.771 16.8914C144.873 16.9434 144.934 17.0429 144.934 17.1802C144.934 17.3176 144.873 17.4282 144.771 17.4883ZM151.876 17.6929C152.03 17.8474 152.112 18.0426 152.112 18.373C152.112 19.0637 151.669 19.3861 150.875 19.3861H149.342V18.6976H150.869C151.019 18.6976 151.124 18.6785 151.191 18.6182C151.245 18.5685 151.284 18.4964 151.284 18.4088C151.284 18.3152 151.242 18.241 151.188 18.1965C151.127 18.1475 151.044 18.1252 150.907 18.1252C150.171 18.1008 149.249 18.1475 149.249 17.1316C149.249 16.6659 149.549 16.1757 150.375 16.1757H151.953V16.859H150.509C150.366 16.859 150.273 16.8643 150.194 16.917C150.107 16.969 150.075 17.0462 150.075 17.1479C150.075 17.269 150.149 17.3515 150.248 17.3871C150.331 17.4153 150.42 17.4235 150.554 17.4235L150.978 17.4347C151.405 17.4448 151.698 17.5168 151.876 17.6929ZM155 16.8334H153.565C153.422 16.8334 153.327 16.8386 153.247 16.8914C153.164 16.9434 153.132 17.0205 153.132 17.1224C153.132 17.2435 153.202 17.3259 153.304 17.3615C153.387 17.3897 153.476 17.3979 153.607 17.3979L154.034 17.409C154.464 17.4194 154.752 17.4916 154.927 17.6675C154.959 17.692 154.978 17.7194 155 17.7469V16.8334H155Z" fill="#2557D6"/>
</g>
<g clip-path="url(#clip4_9048_29240)">
<path d="M198 5.38281H168V24.6136H198V5.38281Z" fill="white"/>
<path d="M186.141 15.2344C186.143 14.6698 185.931 14.1043 185.505 13.6782C185.078 13.2513 184.511 13.0397 183.946 13.0431C183.943 13.0431 183.94 13.043 183.938 13.043C182.709 13.043 181.734 14.0173 181.734 15.2462C181.734 16.463 182.721 17.4493 183.938 17.4493C185.166 17.4493 186.141 16.4748 186.141 15.2462C186.141 15.2422 186.141 15.2384 186.141 15.2344Z" fill="#F26E21"/>
<path d="M181.326 16.1777C180.997 16.5073 180.693 16.6361 180.366 16.6431C179.568 16.6359 178.982 16.0453 178.982 15.2032C178.982 14.7794 179.142 14.432 179.397 14.1352C179.635 13.9088 179.942 13.7626 180.295 13.7626C180.677 13.7626 180.973 13.8897 181.312 14.2287V13.2542C180.973 13.0848 180.677 13 180.295 13C179.757 13.0385 179.249 13.2561 178.859 13.5978C178.747 13.6988 178.64 13.8104 178.548 13.938C178.264 14.3068 178.092 14.7583 178.092 15.2458C178.092 16.4743 179.067 17.4064 180.295 17.4064C180.301 17.4064 180.307 17.4059 180.313 17.4058C180.321 17.406 180.329 17.4064 180.338 17.4064C180.676 17.4064 180.973 17.3219 181.355 17.1524L181.326 16.1777C181.312 16.192 181.34 16.2053 181.326 16.2188V16.1777Z" fill="black"/>
<path d="M188.925 13.6055L187.966 15.9646L186.864 13.168H185.975L187.712 17.4474H188.178L190 13.168H189.11L188.925 13.6055Z" fill="black"/>
<path d="M190.338 15.0323V17.3204H192.626H192.668V16.6423H191.948H191.185V15.8798V15.4986H192.626V14.7781H191.185V13.8884H192.668V13.168H190.338V15.0323Z" fill="black"/>
<path d="M171.187 13.168H170V17.3204H171.187C171.822 17.3204 172.288 17.1508 172.669 16.8542C173.135 16.4729 173.432 15.8799 173.432 15.2444C173.432 14.0154 172.542 13.168 171.187 13.168ZM172.161 16.3036C171.907 16.5153 171.568 16.6423 171.059 16.6423H170.805V13.8883H171.017C171.525 13.8883 171.864 13.973 172.119 14.2272C172.415 14.4812 172.585 14.8628 172.585 15.2442C172.627 15.6256 172.458 16.0491 172.161 16.3036Z" fill="black"/>
<path d="M174.619 13.168H173.814V17.3203H174.619V13.168Z" fill="black"/>
<path d="M176.652 14.7811C176.144 14.6117 176.016 14.4845 176.016 14.2727C176.016 14.0185 176.271 13.8067 176.61 13.8067C176.864 13.8067 177.076 13.8914 177.287 14.1457L177.711 13.5949C177.372 13.2982 176.949 13.1289 176.483 13.1289C175.762 13.1289 175.169 13.6374 175.169 14.3151C175.169 14.9084 175.423 15.1626 176.186 15.4592C176.525 15.5861 176.652 15.6286 176.737 15.7134C176.906 15.798 176.991 15.9676 176.991 16.1369C176.991 16.4759 176.737 16.7302 176.355 16.7302C175.974 16.7302 175.635 16.5184 175.466 16.1794L174.957 16.6878C175.339 17.2386 175.805 17.4928 176.398 17.4928C177.245 17.4928 177.838 16.942 177.838 16.1369C177.838 15.4168 177.584 15.1202 176.652 14.7811Z" fill="black"/>
<path d="M194.956 15.583C195.591 15.4561 195.93 15.0322 195.93 14.3969C195.93 13.6343 195.38 13.168 194.448 13.168H193.219V17.3204H194.024V15.6678H194.151L195.295 17.3204H196.269L194.956 15.583ZM194.278 15.0746H194.024V13.8036H194.278C194.786 13.8036 195.083 14.0154 195.083 14.4393C195.083 14.8629 194.786 15.0746 194.278 15.0746Z" fill="black"/>
</g>
<defs>
<clipPath id="clip0_9048_29240">
<rect width="30" height="30" fill="white"/>
</clipPath>
<clipPath id="clip1_9048_29240">
<rect width="30" height="30" fill="white" transform="translate(42)"/>
</clipPath>
<clipPath id="clip2_9048_29240">
<rect width="30" height="30" fill="white" transform="translate(84)"/>
</clipPath>
<clipPath id="clip3_9048_29240">
<rect width="30" height="30" fill="white" transform="translate(126)"/>
</clipPath>
<clipPath id="clip4_9048_29240">
<rect width="30" height="30" fill="white" transform="translate(168)"/>
</clipPath>
</defs>
</svg>
