<svg width="20" height="20" viewBox="0 0 20 20" fill="none" xmlns="http://www.w3.org/2000/svg">
<g id="Layer_3">
<g id="Group">
<path id="Vector" d="M18.5944 6.37526H14.9418V5.78776C14.9418 3.01155 12.6917 0.732031 9.88607 0.732031C7.08046 0.732031 4.83034 3.01155 4.83034 5.78776V6.37526H1.4069C1.19915 6.37526 1.03199 6.47959 0.906503 6.60507C0.762263 6.74931 0.733984 6.9567 0.733984 7.13411V7.14201L0.735222 7.1498L2.56856 18.6941L2.56848 18.6941L2.56926 18.698C2.63515 19.0274 2.90238 19.2654 3.24023 19.2654H16.7897C17.1276 19.2654 17.3948 19.0274 17.4607 18.698L17.4608 18.698L17.4614 18.6938L19.266 7.15055C19.266 7.15033 19.266 7.15011 19.2661 7.14989C19.2997 6.94668 19.2323 6.74256 19.0948 6.60507C18.9693 6.47959 18.8022 6.37526 18.5944 6.37526ZM6.17617 5.78776C6.17617 3.75184 7.85015 2.07786 9.88607 2.07786C11.922 2.07786 13.596 3.75184 13.596 5.78776V6.37526H6.17617V5.78776ZM17.79 7.72109L16.1886 17.9195H3.8125L2.183 7.72109H17.79Z" fill="#3B3B3B" stroke="#3B3B3B" stroke-width="0.2"/>
<path id="Vector_2" d="M6.11544 9.8857L6.11544 9.8857L6.11527 9.88506C6.01529 9.51849 5.64602 9.31225 5.30377 9.41418C4.93809 9.5146 4.73244 9.8832 4.83399 10.225L6.29403 15.7216C6.36281 16.0265 6.63405 16.2275 6.93546 16.2275L6.93905 16.2275C6.96483 16.2275 6.99372 16.2275 7.02351 16.2226C7.05428 16.2174 7.08289 16.2078 7.11441 16.1927C7.47496 16.0891 7.67678 15.7234 7.57599 15.3842L6.11544 9.8857Z" fill="#3B3B3B" stroke="#3B3B3B" stroke-width="0.2"/>
<path id="Vector_3" d="M10.0007 16.2289C10.371 16.2289 10.6736 15.9263 10.6736 15.556V10.0846C10.6736 9.7143 10.371 9.41172 10.0007 9.41172C9.63032 9.41172 9.32773 9.7143 9.32773 10.0846V15.5846C9.32773 15.9296 9.63365 16.2289 10.0007 16.2289Z" fill="#3B3B3B" stroke="#3B3B3B" stroke-width="0.2"/>
<path id="Vector_4" d="M12.9052 16.1973L12.9141 16.1989H12.9231C12.9339 16.1989 12.9416 16.2009 12.9631 16.2081L12.9652 16.2088C12.9869 16.216 13.0213 16.2275 13.0663 16.2275C13.3677 16.2275 13.639 16.0265 13.7077 15.7216L15.168 10.2241C15.168 10.224 15.1681 10.2239 15.1681 10.2238C15.2666 9.86198 15.0707 9.48403 14.6926 9.41273C14.3319 9.31663 13.9563 9.51251 13.8854 9.8894L12.4256 15.3851C12.4255 15.3852 12.4255 15.3853 12.4255 15.3854C12.3266 15.7486 12.5243 16.128 12.9052 16.1973Z" fill="#3B3B3B" stroke="#3B3B3B" stroke-width="0.2"/>
</g>
</g>
</svg>
