<svg width="24" height="24" viewBox="0 0 24 24" fill="none" xmlns="http://www.w3.org/2000/svg">
<path d="M13.7308 12.0035L7.00629 5.53881C6.82119 5.36131 6.71929 5.12381 6.71929 4.87071C6.71929 4.61741 6.82119 4.38011 7.00629 4.20221L7.59549 3.63611C7.78039 3.45791 8.02749 3.35991 8.29089 3.35991C8.55419 3.35991 8.80099 3.45791 8.98609 3.63611L16.9926 11.3328C17.1783 11.5112 17.28 11.7497 17.2793 12.0031C17.28 12.2577 17.1785 12.4958 16.9926 12.6743L8.99349 20.3637C8.80849 20.5418 8.56169 20.6399 8.29819 20.6399C8.03479 20.6399 7.78799 20.5418 7.60289 20.3637L7.01379 19.7975C6.63039 19.429 6.63039 18.8291 7.01379 18.4608L13.7308 12.0035Z" fill="#98A2A8"/>
</svg>
