<svg width="24" height="24" viewBox="0 0 24 24" fill="none" xmlns="http://www.w3.org/2000/svg">
<g id="icon_eye_open">
<path id="Vector" d="M7.79188 12C7.79188 9.86953 9.50797 8.14286 11.6254 8.14286C13.7428 8.14286 15.4589 9.86953 15.4589 12C15.4589 14.1305 13.7428 15.8571 11.6254 15.8571C9.50797 15.8571 7.79188 14.1305 7.79188 12ZM11.6254 14.4107C12.9491 14.4107 14.0213 13.3319 14.0213 12C14.0213 10.6681 12.9491 9.58929 11.6254 9.58929C11.6044 9.58929 11.5864 9.58929 11.5385 9.58929C11.6044 9.74297 11.6254 9.90569 11.6254 10.0714C11.6254 11.1352 10.7658 12 9.70863 12C9.54391 12 9.38218 11.9789 9.22944 11.9126C9.22944 11.9608 9.22944 11.9789 9.22944 11.9729C9.22944 13.3319 10.3016 14.4107 11.6254 14.4107ZM5.85776 7.67879C7.26777 6.36013 9.20548 5.25 11.6254 5.25C14.0453 5.25 15.983 6.36013 17.3936 7.67879C18.7952 8.98661 19.7326 10.5265 20.1759 11.6294C20.2747 11.8674 20.2747 12.1326 20.1759 12.3706C19.7326 13.4464 18.7952 14.9863 17.3936 16.3212C15.983 17.6411 14.0453 18.75 11.6254 18.75C9.20548 18.75 7.26777 17.6411 5.85776 16.3212C4.45613 14.9863 3.51932 13.4464 3.07371 12.3706C2.97543 12.1326 2.97543 11.8674 3.07371 11.6294C3.51932 10.5265 4.45613 8.98661 5.85776 7.67879ZM11.6254 6.69643C9.67269 6.69643 8.06741 7.58839 6.8365 8.7365C5.68345 9.81529 4.8874 11.0689 4.48069 12C4.8874 12.904 5.68345 14.1847 6.8365 15.2635C8.06741 16.4116 9.67269 17.3036 11.6254 17.3036C13.5781 17.3036 15.1833 16.4116 16.4143 15.2635C17.5673 14.1847 18.337 12.904 18.7713 12C18.337 11.0689 17.5673 9.81529 16.4143 8.7365C15.1833 7.58839 13.5781 6.69643 11.6254 6.69643Z" fill="#858584"/>
</g>
</svg>
