<svg width="14" height="14" viewBox="0 0 14 14" fill="none" xmlns="http://www.w3.org/2000/svg">
<path d="M12.88 2.88473C13.368 2.39668 13.368 1.60409 12.88 1.11604C12.3919 0.627988 11.5993 0.627988 11.1113 1.11604L6.99996 5.23127L2.88473 1.11994C2.39668 0.631892 1.60409 0.631892 1.11604 1.11994C0.627988 1.60799 0.627988 2.40058 1.11604 2.88863L5.23127 6.99996L1.11994 11.1152C0.631892 11.6032 0.631892 12.3958 1.11994 12.8839C1.60799 13.3719 2.40058 13.3719 2.88863 12.8839L6.99996 8.76865L11.1152 12.88C11.6032 13.368 12.3958 13.368 12.8839 12.88C13.3719 12.3919 13.3719 11.5993 12.8839 11.1113L8.76865 6.99996L12.88 2.88473Z" fill="#FFFFFF"/>
</svg>
