<svg width="12" height="8" viewBox="0 0 12 8" fill="none" xmlns="http://www.w3.org/2000/svg">
<path d="M11.2723 1.40108C11.2757 1.24523 11.2305 1.09218 11.143 0.963212C11.0554 0.834246 10.9297 0.735769 10.7836 0.681475C10.6375 0.62718 10.4781 0.619765 10.3275 0.66026C10.177 0.700754 10.0429 0.787147 9.94371 0.907427L6.01208 5.49678L2.08183 0.907427C2.02068 0.824223 1.94304 0.754542 1.85371 0.702748C1.76438 0.650953 1.66529 0.618161 1.5627 0.606424C1.46011 0.594687 1.35623 0.604258 1.25751 0.634539C1.15879 0.66482 1.06736 0.715157 0.988991 0.782399C0.910626 0.84964 0.84706 0.932338 0.802136 1.02531C0.757214 1.11829 0.731982 1.21954 0.728001 1.32272C0.72402 1.4259 0.741327 1.52879 0.778954 1.62495C0.816579 1.72111 0.873652 1.80847 0.946603 1.88155L5.44226 7.13594C5.51268 7.21846 5.60008 7.28472 5.69858 7.33015C5.79708 7.37558 5.90429 7.39911 6.01277 7.39911C6.12125 7.39911 6.22846 7.37558 6.32696 7.33015C6.42546 7.28472 6.51295 7.21846 6.58337 7.13594L11.0833 1.88155C11.2012 1.74881 11.2681 1.57856 11.2723 1.40108Z" fill="black"/>
</svg>
