<svg width="48" height="47" viewBox="0 0 48 47" fill="none" xmlns="http://www.w3.org/2000/svg">
<path fill-rule="evenodd" clip-rule="evenodd" d="M20.2737 4.14479C21.1484 3.6291 22.1452 3.35712 23.1606 3.35712C24.176 3.35712 25.1728 3.6291 26.0475 4.14479C26.9222 4.66048 27.6428 5.40105 28.1344 6.28951L28.1353 6.29121L43.3899 33.9376C43.8853 34.8017 44.145 35.781 44.1427 36.7773C44.1405 37.7794 43.8734 38.7632 43.3684 39.6288C42.8635 40.4945 42.1386 41.2113 41.2674 41.7065C40.3985 42.2004 39.4148 42.4564 38.4154 42.4488H7.9058C6.90646 42.4564 5.92274 42.2004 5.05384 41.7065C4.18259 41.2113 3.45775 40.4945 2.95279 39.6288C2.44783 38.7632 2.1807 37.7794 2.17848 36.7773C2.17627 35.781 2.43594 34.8018 2.9313 33.9377L18.1869 6.28951C18.6784 5.40105 19.399 4.66048 20.2737 4.14479ZM23.1606 6.71426C22.7449 6.71426 22.3368 6.82561 21.9787 7.03673C21.621 7.24761 21.3263 7.55035 21.125 7.91353C21.1248 7.91395 21.1253 7.91311 21.125 7.91353L5.86349 35.5726L5.84744 35.601C5.64228 35.9563 5.53471 36.3596 5.53562 36.7698C5.53652 37.1801 5.64589 37.5829 5.85262 37.9373C6.05935 38.2917 6.35609 38.5851 6.71279 38.7879C7.06948 38.9906 7.47343 39.0954 7.8837 39.0918L7.89881 39.0916L38.4375 39.0917C38.8478 39.0954 39.2517 38.9906 39.6084 38.7879C39.9651 38.5851 40.2619 38.2917 40.4686 37.9373C40.6753 37.5829 40.7847 37.1801 40.7856 36.7698C40.7865 36.3596 40.6789 35.9563 40.4738 35.601L40.4577 35.5726L25.1969 7.91478C25.1968 7.91462 25.197 7.91494 25.1969 7.91478C24.9956 7.55126 24.7005 7.24776 24.3425 7.03673C23.9844 6.82561 23.5763 6.71426 23.1606 6.71426ZM23.1606 15.0573C24.0877 15.0573 24.8392 15.8089 24.8392 16.7359V24.7474C24.8392 25.6744 24.0877 26.4259 23.1606 26.4259C22.2336 26.4259 21.482 25.6744 21.482 24.7474V16.7359C21.482 15.8089 22.2336 15.0573 23.1606 15.0573Z" fill="#A01D22"/>
<path fill-rule="evenodd" clip-rule="evenodd" d="M20.5425 32.7589C20.5425 31.3683 21.6698 30.241 23.0603 30.241H23.2606C24.6512 30.241 25.7785 31.3683 25.7785 32.7589C25.7785 34.1495 24.6512 35.2767 23.2606 35.2767H23.0603C21.6698 35.2767 20.5425 34.1495 20.5425 32.7589Z" fill="#A01D22"/>
</svg>
