<svg width="20" height="20" viewBox="0 0 20 20" fill="none" xmlns="http://www.w3.org/2000/svg">
<g id="discount (3) 1" clip-path="url(#clip0_6504_118138)">
<g id="g1929">
<g id="g1931">
<g id="Clip path group">
<mask id="mask0_6504_118138" style="mask-type:luminance" maskUnits="userSpaceOnUse" x="0" y="0" width="20" height="20">
<g id="clipPath1937">
<path id="path1935" d="M0 3.8147e-06H20V20H0V3.8147e-06Z" fill="white"/>
</g>
</mask>
<g mask="url(#mask0_6504_118138)">
<g id="g1933">
<g id="g1939">
<path id="path1941" d="M19.4141 10C19.4141 9.70703 19.1587 9.42699 18.7646 9.16883C17.8468 8.5677 17.5117 7.31696 18.006 6.33742C18.2182 5.91684 18.2655 5.56621 18.119 5.3125C17.9725 5.05879 17.6452 4.92434 17.1748 4.89785C16.0794 4.83618 15.1638 3.92063 15.1021 2.82524C15.0757 2.35481 14.9412 2.0275 14.6875 1.88098C14.4338 1.7345 14.0831 1.78176 13.6625 1.99403C12.683 2.48832 11.4323 2.15317 10.8311 1.23532C10.573 0.841253 10.2929 0.585941 10 0.585941C9.70707 0.585941 9.42703 0.841253 9.16894 1.23532C8.56773 2.15317 7.31703 2.48832 6.3375 1.99403C5.91687 1.78176 5.56621 1.7345 5.3125 1.88098C5.05879 2.0275 4.92434 2.35481 4.89785 2.82524C4.83617 3.92063 3.92062 4.83618 2.82523 4.89785C2.3548 4.92434 2.0275 5.05879 1.88098 5.3125C1.73453 5.56621 1.7818 5.91684 1.99402 6.33742C2.48832 7.31696 2.15324 8.5677 1.23539 9.16883C0.84125 9.42699 0.585938 9.70703 0.585938 10C0.585938 10.293 0.84125 10.573 1.23535 10.8311C2.1532 11.4323 2.48832 12.683 1.99402 13.6625C1.7818 14.0831 1.73453 14.4338 1.88098 14.6875C2.02746 14.9412 2.3548 15.0756 2.82516 15.1021C3.92062 15.1638 4.83621 16.0794 4.89789 17.1748C4.92437 17.6452 5.05879 17.9725 5.3125 18.1189C5.56621 18.2654 5.91687 18.2182 6.3375 18.0059C7.31699 17.5116 8.56769 17.8468 9.16883 18.7646C9.42699 19.1587 9.70703 19.4141 10 19.4141C10.293 19.4141 10.573 19.1587 10.8312 18.7646C11.4323 17.8468 12.683 17.5116 13.6625 18.0059C14.0831 18.2182 14.4338 18.2654 14.6875 18.1189C14.9412 17.9725 15.0756 17.6452 15.1021 17.1748C15.1638 16.0794 16.0794 15.1638 17.1748 15.1021C17.6452 15.0756 17.9725 14.9412 18.119 14.6875C18.2655 14.4338 18.2182 14.0831 18.006 13.6625C17.5117 12.683 17.8468 11.4323 18.7646 10.8311C19.1587 10.573 19.4141 10.293 19.4141 10Z" stroke="#242424" stroke-width="1.5" stroke-miterlimit="10"/>
</g>
<g id="g1943">
<path id="path1945" d="M8.82812 6.48438C8.82812 7.13156 8.30344 7.65625 7.65625 7.65625C7.00906 7.65625 6.48438 7.13156 6.48438 6.48438C6.48438 5.83719 7.00906 5.3125 7.65625 5.3125C8.30344 5.3125 8.82812 5.83719 8.82812 6.48438Z" stroke="#242424" stroke-width="1.5" stroke-miterlimit="10"/>
</g>
<g id="g1947">
<path id="path1949" d="M13.5156 13.5156C13.5156 14.1628 12.9909 14.6875 12.3438 14.6875C11.6966 14.6875 11.1719 14.1628 11.1719 13.5156C11.1719 12.8684 11.6966 12.3438 12.3438 12.3438C12.9909 12.3438 13.5156 12.8684 13.5156 13.5156Z" stroke="#242424" stroke-width="1.5" stroke-miterlimit="10"/>
</g>
<g id="g1951">
<path id="path1953" d="M13.5156 5.3125L6.48438 14.6875" stroke="#242424" stroke-width="1.5" stroke-miterlimit="10"/>
</g>
</g>
</g>
</g>
</g>
</g>
</g>
<defs>
<clipPath id="clip0_6504_118138">
<rect width="20" height="20" fill="white"/>
</clipPath>
</defs>
</svg>
