<svg width="14" height="14" viewBox="0 0 14 14" fill="none" xmlns="http://www.w3.org/2000/svg">
<path d="M7.14871 9.28593L6.62673 8.78008L6.62411 8.78262L2.95502 5.22688C2.94666 5.21878 2.94286 5.21205 2.94085 5.20723C2.93863 5.20193 2.9375 5.19627 2.9375 5.19049C2.9375 5.18471 2.93863 5.17906 2.94085 5.17375C2.94286 5.16893 2.94666 5.16221 2.95502 5.15411C2.97064 5.13896 2.99474 5.12754 3.02637 5.12754C3.058 5.12754 3.08209 5.13896 3.09772 5.15411L3.09792 5.1543L6.697 8.63965L7.21894 9.1451L7.74069 8.63946L11.3398 5.15157L10.8178 4.61298L11.3398 5.15157C11.3554 5.13642 11.3795 5.125 11.4111 5.125C11.4428 5.125 11.4669 5.13642 11.4825 5.15157L12.0044 4.61298L11.4825 5.15157C11.4908 5.15967 11.4946 5.1664 11.4967 5.17121C11.4989 5.17652 11.5 5.18217 11.5 5.18795C11.5 5.19373 11.4989 5.19939 11.4967 5.20469C11.4946 5.20951 11.4908 5.21624 11.4825 5.22434L7.29141 9.28593C7.27578 9.30108 7.25169 9.3125 7.22006 9.3125C7.18843 9.3125 7.16433 9.30108 7.14871 9.28593Z" fill="white" stroke="white" stroke-width="1.5"/>
</svg>
