<svg width="24" height="24" viewBox="0 0 24 24" fill="none" xmlns="http://www.w3.org/2000/svg">
<path d="M9 22C9.55228 22 10 21.5523 10 21C10 20.4477 9.55228 20 9 20C8.44772 20 8 20.4477 8 21C8 21.5523 8.44772 22 9 22Z" stroke="#242424" stroke-width="2" stroke-linecap="round" stroke-linejoin="round"/>
<path d="M17 22C17.5523 22 18 21.5523 18 21C18 20.4477 17.5523 20 17 20C16.4477 20 16 20.4477 16 21C16 21.5523 16.4477 22 17 22Z" stroke="#242424" stroke-width="2" stroke-linecap="round" stroke-linejoin="round"/>
<path d="M2 2H3.31348C3.56088 2 3.68458 2 3.78413 2.04368C3.87185 2.08217 3.94619 2.14408 3.99829 2.22202C4.0574 2.31046 4.07489 2.42803 4.10988 2.66318L4.58584 5.86207L5.64362 13.3269C5.77786 14.2742 5.84498 14.7478 6.08084 15.1043C6.28868 15.4185 6.58664 15.6683 6.93888 15.8237C7.33861 16 7.83647 16 8.83218 16H17.438C18.3859 16 18.8598 16 19.2471 15.8363C19.5886 15.6919 19.8815 15.4592 20.0931 15.1641C20.3331 14.8294 20.4218 14.3824 20.5991 13.4885L21.9302 6.77901C21.9926 6.46437 22.0238 6.30704 21.9786 6.18407" stroke="#242424" stroke-width="1.7" stroke-linecap="round" stroke-linejoin="round"/>
</svg>
