<svg width="24" height="24" viewBox="0 0 24 24" fill="none" xmlns="http://www.w3.org/2000/svg">
<mask id="mask0_7342_146815" style="mask-type:luminance" maskUnits="userSpaceOnUse" x="2" y="2" width="20" height="20">
<path d="M2 2H22V22H2V2Z" fill="white"/>
</mask>
<g mask="url(#mask0_7342_146815)">
<path d="M6.35094 2.58594C6.01824 2.58594 5.69824 2.71805 5.46289 2.95371C5.2275 3.18906 5.0957 3.5082 5.0957 3.84113V20.5561C5.0957 21.03 5.47855 21.4141 5.95238 21.4141H5.95555C6.20973 21.4141 6.45133 21.313 6.6302 21.1335C7.46176 20.3026 9.9157 17.8486 10.9293 16.837C11.2117 16.553 11.5977 16.3932 11.9994 16.3932C12.4011 16.3932 12.787 16.553 13.0694 16.837C14.0861 17.8518 16.5526 20.3177 17.3748 21.1411C17.5505 21.3159 17.7858 21.4141 18.0338 21.4141C18.5139 21.4141 18.903 21.0252 18.903 20.5455V3.84113C18.903 3.5082 18.7712 3.18906 18.5359 2.95371C18.3005 2.71805 17.9805 2.58594 17.6478 2.58594H6.35094Z" stroke="#242424" stroke-miterlimit="10" stroke-linecap="round" stroke-linejoin="round"/>
</g>
</svg>
