<svg width="24" height="23" viewBox="0 0 24 23" fill="none" xmlns="http://www.w3.org/2000/svg">
<g id="heart (4) 2">
<path id="Vector" d="M22.9623 3.73954C22.2899 2.67329 21.3051 1.8403 20.1421 1.35407C18.8244 0.800942 17.3443 0.701379 15.862 1.06686C14.5037 1.40183 13.1806 2.12835 12 3.18229C10.8192 2.12825 9.49599 1.40169 8.13746 1.06677C6.65513 0.701145 5.17496 0.800801 3.85721 1.3543C2.69419 1.84068 1.70944 2.67384 1.03716 3.74024C0.333099 4.85324 -0.025073 6.20676 0.00136453 7.6543C0.11874 14.0895 9.70477 19.9413 11.6252 21.0491C11.7392 21.1148 11.8684 21.1494 12 21.1494C12.1315 21.1494 12.2608 21.1148 12.3747 21.0491C14.2954 19.9411 23.8823 14.0884 23.9986 7.65318C24.0248 6.20572 23.6664 4.85235 22.9623 3.73954ZM22.4989 7.62622C22.4614 9.70691 21.0744 12.1327 18.4881 14.6413C16.093 16.9643 13.3687 18.7153 12 19.53C10.6312 18.7154 7.9073 16.9647 5.51246 14.6416C2.92608 12.1332 1.53905 9.70757 1.50108 7.62693C1.45965 5.35504 2.5576 3.52715 4.43808 2.73725C5.05438 2.47984 5.71602 2.34854 6.38391 2.3511C8.10868 2.3511 9.93315 3.18604 11.4652 4.74388C11.535 4.81485 11.6182 4.87122 11.71 4.90969C11.8018 4.94817 11.9003 4.96798 11.9999 4.96798C12.0994 4.96798 12.198 4.94817 12.2898 4.90969C12.3816 4.87122 12.4648 4.81485 12.5346 4.74388C14.663 2.57966 17.3557 1.81077 19.5612 2.73711C21.4419 3.52672 22.5399 5.35447 22.4989 7.62622Z" fill="#858584"/>
</g>
</svg>
