<svg width="24" height="24" viewBox="0 0 24 24" fill="none" xmlns="http://www.w3.org/2000/svg">
<path d="M17.9069 10.4521C17.9069 11.9311 17.4267 13.2973 16.6178 14.4058L20.6979 18.4883C21.1007 18.891 21.1007 19.5451 20.6979 19.9479C20.295 20.3507 19.6408 20.3507 19.2379 19.9479L15.1578 15.8654C14.0492 16.6774 12.6827 17.1543 11.2035 17.1543C7.50044 17.1543 4.5 14.1544 4.5 10.4521C4.5 6.74985 7.50044 3.75 11.2035 3.75C14.9065 3.75 17.9069 6.74985 17.9069 10.4521ZM11.2035 15.0921C13.7656 15.0921 15.8443 13.0138 15.8443 10.4521C15.8443 7.89051 13.7656 5.8122 11.2035 5.8122C8.64132 5.8122 6.5626 7.89051 6.5626 10.4521C6.5626 13.0138 8.64132 15.0921 11.2035 15.0921Z" fill="#242424"/>
</svg>
