<svg width="101" height="22" viewBox="0 0 101 22" fill="none" xmlns="http://www.w3.org/2000/svg">
<g clip-path="url(#clip0_1484_21818)">
<g clip-path="url(#clip1_1484_21818)">
<path d="M23.3978 18.9555H19.0234L21.7595 2.49902H26.1336L23.3978 18.9555Z" fill="#00579F"/>
<path d="M39.2547 2.90081C38.3919 2.56784 37.0234 2.2002 35.3313 2.2002C31.0114 2.2002 27.9694 4.44096 27.9508 7.64457C27.9149 10.0082 30.1288 11.321 31.7846 12.1091C33.4769 12.9144 34.0522 13.4401 34.0522 14.1579C34.035 15.2604 32.6847 15.7686 31.4253 15.7686C29.6788 15.7686 28.743 15.5066 27.321 14.8932L26.7449 14.6303L26.1328 18.3244C27.1588 18.779 29.049 19.1825 31.0114 19.2002C35.6013 19.2002 38.5895 16.9941 38.6249 13.5802C38.6424 11.7068 37.4734 10.2714 34.9531 9.09839C33.4231 8.34542 32.4861 7.8377 32.4861 7.06728C32.5041 6.3669 33.2786 5.64953 35.0057 5.64953C36.4278 5.61439 37.4727 5.9469 38.2642 6.27964L38.6598 6.45439L39.2547 2.90081Z" fill="#00579F"/>
<path d="M45.0687 13.1246C45.4289 12.1792 46.8151 8.52018 46.8151 8.52018C46.7969 8.55532 47.1746 7.55733 47.3906 6.94467L47.6963 8.36265C47.6963 8.36265 48.5247 12.3018 48.7046 13.1246C48.0209 13.1246 45.9327 13.1246 45.0687 13.1246ZM50.4683 2.49805H47.0847C46.0413 2.49805 45.2485 2.79542 44.7984 3.86345L38.3008 18.9543H42.8907C42.8907 18.9543 43.6463 16.9232 43.8088 16.4857C44.3123 16.4857 48.7773 16.4857 49.4251 16.4857C49.5507 17.0635 49.947 18.9543 49.947 18.9543H53.9973L50.4683 2.49805Z" fill="#00579F"/>
<path d="M15.3683 2.49805L11.0844 13.7198L10.6162 11.4439C9.82422 8.81779 7.34029 5.9646 4.56836 4.54591L8.49231 18.937H13.1181L19.9939 2.49805H15.3683Z" fill="#00579F"/>
<path d="M7.108 2.49902H0.0700479L-0.00195312 2.83153C5.48809 4.19716 9.12403 7.48896 10.6179 11.4455L9.08791 3.88234C8.83603 2.8313 8.06195 2.53369 7.108 2.49902Z" fill="#F4A622"/>
</g>
<path d="M87.8667 2.35254H78.1328V19.6469H87.8667V2.35254Z" fill="#FF5F00"/>
<path d="M78.751 11C78.751 7.48608 80.4197 4.36943 82.9845 2.35277C81.0995 0.886107 78.7201 0 76.1244 0C69.9751 0 65 4.91942 65 11C65 17.0805 69.9751 21.9999 76.1244 21.9999C78.7201 21.9999 81.0995 21.1138 82.9845 19.6471C80.4197 17.661 78.751 14.5138 78.751 11Z" fill="#EB001B"/>
<path d="M101 11C101 17.0805 96.025 21.9999 89.8757 21.9999C87.28 21.9999 84.9006 21.1138 83.0156 19.6471C85.6113 17.6305 87.2491 14.5138 87.2491 11C87.2491 7.48608 85.5804 4.36943 83.0156 2.35277C84.9006 0.886107 87.28 0 89.8757 0C96.025 0 101 4.94998 101 11Z" fill="#F79E1B"/>
</g>
<defs>
<clipPath id="clip0_1484_21818">
<rect width="101" height="21.9999" fill="white"/>
</clipPath>
<clipPath id="clip1_1484_21818">
<rect width="54" height="17" fill="white" transform="translate(0 2.2002)"/>
</clipPath>
</defs>
</svg>
