<svg width="229" height="118" viewBox="0 0 229 118" fill="none" xmlns="http://www.w3.org/2000/svg">
<g clip-path="url(#clip0_5671_26449)">
<mask id="mask0_5671_26449" style="mask-type:luminance" maskUnits="userSpaceOnUse" x="56" y="-11" width="118" height="119">
<path d="M173.821 -11H56V107.536H173.821V-11Z" fill="white"/>
</mask>
<g mask="url(#mask0_5671_26449)">
<path d="M162.649 48.2672C162.649 74.7951 141.274 96.2994 114.907 96.2994C88.5387 96.2994 67.1641 74.7951 67.1641 48.2672C67.1641 21.7393 88.5387 0.234863 114.907 0.234863C141.274 0.234863 162.649 21.7393 162.649 48.2672Z" fill="black"/>
</g>
<mask id="mask1_5671_26449" style="mask-type:luminance" maskUnits="userSpaceOnUse" x="56" y="-11" width="118" height="119">
<path d="M173.821 -11H56V107.536H173.821V-11Z" fill="white"/>
</mask>
<g mask="url(#mask1_5671_26449)">
<path d="M110.204 58.2361C109.868 59.8199 109.269 61.0458 108.408 61.914C107.548 62.7811 106.513 63.3891 105.307 63.7359C104.099 64.0828 102.751 64.2221 101.262 64.1563C99.7725 64.0893 98.2375 63.9192 96.659 63.6459C95.0793 63.3726 93.492 63.0357 91.897 62.6362C90.301 62.2367 88.7802 61.8712 87.3347 61.543C86.6333 62.6603 85.8238 63.579 84.9063 64.3001C83.9889 65.0212 82.8641 65.4668 81.5321 65.6369C80.2251 65.8037 79.192 65.6599 78.4327 65.2045C77.6724 64.749 77.2469 64.1991 77.1531 63.557C77.0582 62.9139 77.3178 62.2828 77.9298 61.6659C78.5407 61.048 79.552 60.6628 80.9626 60.508C81.6161 60.4246 82.3601 60.4005 83.1947 60.4345C84.0281 60.4685 84.9249 60.5409 85.8838 60.6496C86.3115 59.5927 86.7118 58.4117 87.0838 57.1056C87.4558 55.7995 87.8191 54.4298 88.1737 52.9975C88.5293 51.5652 88.8861 50.0933 89.245 48.5831C89.6028 47.0729 89.9824 45.5736 90.3817 44.0831C89.3072 44.0667 88.2468 44.0085 87.2006 43.9119C86.1544 43.8142 85.1092 43.7297 84.0663 43.6573C83.0234 43.5859 81.9641 43.5409 80.8895 43.5234C79.8149 43.5069 78.7371 43.5673 77.6571 43.7056C76.1745 43.8943 74.9603 44.3904 74.0145 45.1916C73.0686 45.9929 72.3759 46.9302 71.9362 48.0003C71.4977 49.0715 71.3057 50.1877 71.3635 51.3489C71.4202 52.5112 71.7126 53.5583 72.2395 54.4934C72.7653 55.4285 73.5159 56.1672 74.4923 56.7105C75.4665 57.2549 76.6709 57.4338 78.1033 57.2516C79.0829 57.1265 80.0331 56.8641 80.9528 56.4635C81.8724 56.064 82.7277 55.5559 83.5187 54.9412C84.3085 54.3266 85.0122 53.6275 85.6285 52.8416C86.2438 52.0569 86.7369 51.2041 87.1057 50.2832L87.4264 50.3963C87.0347 51.3456 86.5275 52.2259 85.9024 53.0381C85.2773 53.8503 84.5572 54.5714 83.7434 55.2024C82.9285 55.8335 82.0437 56.3582 81.0881 56.7741C80.1313 57.1923 79.1517 57.4645 78.1469 57.5929C76.2367 57.8366 74.6286 57.6895 73.3228 57.1495C72.0159 56.6106 71.0144 55.8522 70.3162 54.8743C69.618 53.8975 69.2362 52.7966 69.1718 51.5717C69.1063 50.3469 69.3725 49.1703 69.9704 48.0409C70.5682 46.9115 71.502 45.9127 72.7719 45.0435C74.0406 44.1753 75.6552 43.6156 77.6156 43.3653C78.7207 43.2237 79.8117 43.1623 80.8862 43.1787C81.9608 43.1963 83.0332 43.2457 84.1034 43.3269C85.1736 43.4092 86.2373 43.4915 87.2944 43.575C88.3515 43.6584 89.4173 43.7078 90.4919 43.7253C91.0036 41.9133 91.5752 40.1703 92.2069 38.4966C92.8385 36.8239 93.5694 35.3301 94.3996 34.0163C95.2298 32.7026 96.1909 31.6237 97.2852 30.7775C98.3783 29.9313 99.6416 29.4165 101.074 29.2332C102.229 29.0861 103.085 29.3364 103.64 29.985C104.194 30.6337 104.48 31.4832 104.497 32.5346C104.515 33.5861 104.273 34.7539 103.772 36.0369C103.27 37.3211 102.51 38.5361 101.493 39.6808C100.475 40.8267 99.2205 41.8079 97.7281 42.6278C96.2357 43.4487 94.5262 43.9174 92.6007 44.0337C92.2549 45.5418 91.9232 47.0619 91.6058 48.5919C91.2883 50.123 90.9403 51.6189 90.5639 53.0798C90.1864 54.5417 89.7686 55.9367 89.3115 57.2669C88.8533 58.5972 88.322 59.8012 87.7188 60.8801C89.1708 61.0546 90.6785 61.2664 92.2418 61.5167C93.8051 61.7658 95.3564 61.9667 96.8946 62.117C98.4317 62.2674 99.9121 62.3541 101.333 62.3783C102.753 62.4024 104.046 62.2828 105.213 62.0172C106.379 61.7527 107.372 61.318 108.189 60.7122C109.006 60.1074 109.576 59.2568 109.897 58.1626L110.204 58.2361ZM81.5681 65.323C82.0961 65.2549 82.5652 65.0804 82.9765 64.7962C83.3878 64.5119 83.7598 64.1761 84.0936 63.7864C84.4274 63.3968 84.7187 62.9742 84.9674 62.5187C85.2162 62.0633 85.4409 61.6166 85.6405 61.1797C84.7252 61.014 83.8809 60.8966 83.1063 60.8285C82.3317 60.7605 81.6303 60.767 81.0019 60.8472C79.6917 60.9888 78.7524 61.3334 78.1829 61.8811C77.6134 62.4287 77.3778 62.9863 77.4749 63.5515C77.5709 64.1168 77.9702 64.592 78.6695 64.9795C79.3709 65.3658 80.3364 65.4799 81.5681 65.323ZM101.105 29.535C99.8979 29.6887 98.855 30.176 97.9757 30.9948C97.0953 31.8136 96.3273 32.8617 95.6728 34.1404C95.016 35.419 94.4542 36.8777 93.984 38.5174C93.5138 40.1572 93.0731 41.877 92.6629 43.6759C94.5131 43.5684 96.1484 43.1217 97.5688 42.3369C98.9881 41.5522 100.191 40.6083 101.175 39.5063C102.159 38.4044 102.907 37.2432 103.417 36.0216C103.927 34.8 104.189 33.6882 104.203 32.6839C104.216 31.6808 103.967 30.8708 103.455 30.255C102.944 29.6404 102.161 29.4 101.105 29.535Z" fill="white"/>
</g>
<mask id="mask2_5671_26449" style="mask-type:luminance" maskUnits="userSpaceOnUse" x="56" y="-11" width="118" height="119">
<path d="M173.821 -11H56V107.536H173.821V-11Z" fill="white"/>
</mask>
<g mask="url(#mask2_5671_26449)">
<path d="M108.636 48.2248C108.305 49.2433 107.933 50.2926 107.52 51.3726C107.107 52.4537 106.653 53.4557 106.156 54.3788C105.66 55.3029 105.138 56.0756 104.592 56.6979C104.044 57.3202 103.483 57.6813 102.908 57.7801C101.979 57.8986 101.336 57.667 100.982 57.0821C100.627 56.4982 100.453 55.7178 100.457 54.741C100.461 53.7641 100.604 52.6732 100.887 51.4681C101.169 50.264 101.488 49.105 101.846 47.9932C102.204 46.8814 102.545 45.8936 102.87 45.0298C103.195 44.166 103.415 43.5734 103.527 43.2507L105.864 42.9521C105.77 43.221 105.558 43.7742 105.231 44.6127C104.903 45.4513 104.545 46.4149 104.16 47.5048C103.774 48.5947 103.395 49.7416 103.023 50.9445C102.651 52.1485 102.367 53.2384 102.172 54.213C101.976 55.1888 101.917 55.9867 101.995 56.6057C102.074 57.2258 102.364 57.5024 102.867 57.4388C103.344 57.3773 103.834 57.0524 104.333 56.4608C104.834 55.8715 105.316 55.1405 105.781 54.2723C106.246 53.4041 106.693 52.4416 107.121 51.3847C107.549 50.3277 107.942 49.2894 108.298 48.2676L108.636 48.2248ZM104.953 42.1059C104.676 42.141 104.43 42.0642 104.214 41.8732C103.999 41.6834 103.897 41.432 103.909 41.1225C103.921 40.813 104.039 40.5342 104.263 40.2873C104.487 40.0403 104.738 39.8987 105.015 39.8636C105.316 39.8252 105.575 39.902 105.791 40.0919C106.007 40.2829 106.107 40.5331 106.096 40.8426C106.084 41.1532 105.966 41.4309 105.742 41.6779C105.517 41.9248 105.254 42.0675 104.953 42.1059Z" fill="white"/>
</g>
<mask id="mask3_5671_26449" style="mask-type:luminance" maskUnits="userSpaceOnUse" x="56" y="-11" width="118" height="119">
<path d="M173.821 -11H56V107.536H173.821V-11Z" fill="white"/>
</mask>
<g mask="url(#mask3_5671_26449)">
<path d="M122.391 46.4677C122.097 47.3786 121.711 48.3203 121.235 49.2928C120.758 50.2663 120.192 51.1992 119.539 52.0915C118.886 52.9849 118.15 53.7851 117.333 54.493C116.516 55.2009 115.621 55.7464 114.649 56.1272C115.158 56.5245 115.558 57.1095 115.846 57.8811C116.135 58.6527 116.319 59.4967 116.396 60.4121C116.474 61.3264 116.452 62.2735 116.333 63.2526C116.213 64.2316 116 65.125 115.695 65.935C115.388 66.745 115.002 67.4233 114.534 67.9709C114.067 68.5186 113.53 68.8183 112.924 68.8698C112.019 68.9851 111.407 68.6459 111.091 67.8524C110.774 67.0578 110.65 65.9822 110.722 64.6245C110.793 63.2668 111.024 61.7083 111.415 59.95C111.806 58.1906 112.27 56.4049 112.807 54.5896C112.425 55.2031 112.017 55.7178 111.584 56.1327C111.151 56.5487 110.683 56.7869 110.181 56.8516C109.277 56.9669 108.615 56.6727 108.193 55.9681C107.773 55.2646 107.548 54.3426 107.519 53.2023C107.49 52.063 107.638 50.8052 107.962 49.4278C108.286 48.0503 108.76 46.7508 109.385 45.5271C110.009 44.3044 110.752 43.2595 111.612 42.3913C112.473 41.5243 113.418 41.0238 114.449 40.8921C114.825 40.8438 115.144 40.8877 115.403 41.0205C115.663 41.1544 115.871 41.3454 116.032 41.5956C116.191 41.8448 116.303 42.1334 116.37 42.4583C116.437 42.7843 116.466 43.1146 116.457 43.4494L117.17 41.5089L119.506 41.2104C119.415 41.5045 119.2 42.1235 118.86 43.0652C118.519 44.008 118.108 45.1517 117.627 46.4984C117.146 47.844 116.631 49.3301 116.082 50.9534C115.533 52.5777 115.005 54.2065 114.496 55.8375C115.419 55.4632 116.277 54.9298 117.07 54.2372C117.864 53.5458 118.584 52.772 119.229 51.9192C119.874 51.0664 120.433 50.173 120.902 49.239C121.371 48.3061 121.754 47.3962 122.052 46.5105L122.391 46.4677ZM110.138 56.5103C110.716 56.4367 111.264 56.0833 111.785 55.4522C112.305 54.8211 112.779 54.0671 113.204 53.1902C113.338 52.839 113.55 52.2924 113.839 51.5482C114.129 50.8052 114.413 49.9787 114.694 49.0689C114.976 48.1601 115.234 47.2272 115.471 46.2723C115.708 45.3174 115.854 44.4504 115.91 43.6733C115.964 42.8962 115.887 42.2761 115.675 41.8151C115.463 41.3541 115.069 41.161 114.49 41.2345C113.962 41.3015 113.443 41.7339 112.93 42.5318C112.418 43.3297 111.94 44.2967 111.496 45.4316C111.052 46.5664 110.664 47.799 110.334 49.1248C110.003 50.4518 109.767 51.6635 109.625 52.761C109.482 53.8575 109.444 54.7685 109.51 55.4918C109.577 56.2161 109.785 56.5553 110.138 56.5103ZM112.884 68.5669C113.44 68.5208 113.933 68.2267 114.363 67.6845C114.793 67.1412 115.149 66.4794 115.434 65.6979C115.719 64.9165 115.915 64.0494 116.025 63.0978C116.134 62.1462 116.153 61.2254 116.079 60.3364C116.005 59.4462 115.827 58.6406 115.544 57.9195C115.262 57.1974 114.869 56.6628 114.365 56.3171C113.878 57.9206 113.435 59.4737 113.038 60.9751C112.64 62.4766 112.353 63.798 112.179 64.9384C112.003 66.0777 111.958 66.9831 112.042 67.6527C112.126 68.3233 112.408 68.6284 112.884 68.5669Z" fill="white"/>
</g>
<mask id="mask4_5671_26449" style="mask-type:luminance" maskUnits="userSpaceOnUse" x="56" y="-11" width="118" height="119">
<path d="M173.821 -11H56V107.536H173.821V-11Z" fill="white"/>
</mask>
<g mask="url(#mask4_5671_26449)">
<path d="M144.352 43.037C144.19 43.5715 144 44.1861 143.781 44.882C143.563 45.5778 143.29 46.255 142.965 46.9124C142.64 47.571 142.259 48.1461 141.823 48.6378C141.387 49.1306 140.854 49.4171 140.226 49.4972C139.799 49.5521 139.404 49.461 139.043 49.2239C138.51 50.2688 137.888 51.1435 137.173 51.8525C136.458 52.5605 135.673 52.9687 134.819 53.0785C133.662 53.2256 132.786 52.9589 132.19 52.2773C131.593 51.5957 131.236 50.6913 131.119 49.563C131.003 48.4347 131.094 47.1835 131.393 45.8094C131.692 44.4353 132.167 43.1358 132.816 41.9098C133.466 40.6838 134.265 39.6313 135.214 38.7521C136.162 37.8741 137.214 37.3604 138.371 37.2123C139.225 37.1036 139.865 37.4197 140.291 38.1616C140.716 38.9047 140.947 39.8694 140.983 41.0603C141.017 42.25 140.876 43.5528 140.556 44.9687C140.236 46.3845 139.782 47.6939 139.194 48.9001C139.477 49.1207 139.794 49.2085 140.147 49.1635C140.699 49.0933 141.181 48.82 141.595 48.3426C142.007 47.8662 142.366 47.3196 142.67 46.7017C142.976 46.0849 143.233 45.4483 143.445 44.792C143.655 44.1356 143.845 43.566 144.014 43.082L144.352 43.037ZM138.82 48.9835C138.461 48.5665 138.248 47.9848 138.179 47.2351C138.109 46.4866 138.157 45.749 138.321 45.0203C138.484 44.2937 138.766 43.6406 139.165 43.0633C139.564 42.486 140.053 42.16 140.631 42.0865C140.649 41.417 140.628 40.7958 140.569 40.225C140.51 39.6543 140.397 39.1626 140.23 38.7466C140.062 38.3318 139.83 38.0146 139.535 37.7951C139.239 37.5766 138.877 37.4932 138.45 37.5481C137.897 37.6183 137.328 38.0574 136.74 38.8652C136.152 39.6719 135.605 40.6476 135.099 41.7912C134.592 42.9349 134.154 44.1729 133.787 45.5043C133.419 46.8356 133.188 48.0462 133.096 49.1372C133.003 50.2281 133.079 51.1238 133.32 51.8251C133.562 52.5264 134.034 52.8316 134.738 52.7427C135.567 52.6362 136.321 52.2389 137 51.5474C137.678 50.8571 138.285 50.0021 138.82 48.9835Z" fill="white"/>
</g>
<mask id="mask5_5671_26449" style="mask-type:luminance" maskUnits="userSpaceOnUse" x="56" y="-11" width="118" height="119">
<path d="M173.821 -11H56V107.536H173.821V-11Z" fill="white"/>
</mask>
<g mask="url(#mask5_5671_26449)">
<path d="M153.509 41.8667C153.378 42.2432 153.21 42.7338 153.005 43.3374C152.8 43.9422 152.569 44.5875 152.311 45.2757C152.053 45.9639 151.759 46.663 151.426 47.3731C151.094 48.0832 150.741 48.7264 150.367 49.2993C149.993 49.8745 149.6 50.3552 149.189 50.7404C148.777 51.1268 148.346 51.3496 147.894 51.4066C146.889 51.5351 146.186 51.3353 145.788 50.8085C145.389 50.2817 145.179 49.5759 145.158 48.6924C145.136 47.8089 145.244 46.8002 145.484 45.6642C145.724 44.5294 145.992 43.4219 146.291 42.343C146.589 41.2641 146.853 40.2741 147.084 39.3709C147.314 38.4687 147.403 37.8025 147.349 37.3722C147.256 36.639 146.948 36.2165 146.423 36.1034C146.149 37.3722 145.813 38.6026 145.415 39.7967C145.016 40.9908 144.614 42.2047 144.208 43.4384L143.869 43.4812C144.277 42.2728 144.68 41.0534 145.074 39.8209C145.466 38.5894 145.8 37.3393 146.075 36.0705C146.022 36.0519 145.919 36.0519 145.768 36.0716C145.165 36.1484 144.798 35.9201 144.667 35.3834C144.535 34.8478 144.542 34.2431 144.686 33.5703C144.831 32.8964 145.06 32.2894 145.376 31.7483C145.69 31.2072 145.978 30.9581 146.239 31.002C146.528 31.0679 146.712 31.3137 146.792 31.7407C146.87 32.1676 146.899 32.6396 146.875 33.1565C146.851 33.6735 146.793 34.175 146.701 34.6623C146.61 35.1497 146.55 35.4855 146.522 35.6677C147.612 35.6051 148.39 35.7511 148.856 36.1023C149.322 36.4547 149.569 36.9497 149.599 37.5873C149.612 37.8935 149.497 38.4544 149.256 39.2688C149.014 40.0832 148.727 40.9996 148.397 42.0182C148.066 43.0367 147.74 44.1002 147.42 45.2066C147.1 46.314 146.876 47.3183 146.747 48.2204C146.617 49.1237 146.627 49.8481 146.772 50.3947C146.917 50.9413 147.29 51.163 147.89 51.0609C148.494 50.9841 149.072 50.5571 149.625 49.779C150.178 49.0019 150.692 48.1206 151.169 47.135C151.643 46.1494 152.056 45.1659 152.405 44.1836C152.753 43.2013 153.008 42.4429 153.17 41.9084L153.509 41.8667ZM146.183 35.7116C146.192 35.5821 146.238 35.288 146.32 34.827C146.402 34.3671 146.463 33.8842 146.502 33.3782C146.54 32.8722 146.54 32.4168 146.502 32.0107C146.463 31.6046 146.352 31.3872 146.171 31.3587C145.992 31.3565 145.785 31.5947 145.552 32.0732C145.319 32.5528 145.143 33.0764 145.023 33.6438C144.903 34.2113 144.878 34.7216 144.948 35.176C145.018 35.6293 145.28 35.8269 145.731 35.7698L146.183 35.7116Z" fill="white"/>
</g>
<mask id="mask6_5671_26449" style="mask-type:luminance" maskUnits="userSpaceOnUse" x="56" y="-11" width="118" height="119">
<path d="M173.821 -11H56V107.536H173.821V-11Z" fill="white"/>
</mask>
<g mask="url(#mask6_5671_26449)">
<path d="M116.002 83.221C103.886 82.8204 92.9516 76.3119 86.753 65.8127C86.4879 65.3649 86.6351 64.7854 87.0813 64.5187C87.5275 64.2531 88.1035 64.4001 88.3675 64.849C94.2378 74.7918 104.592 80.9546 116.064 81.3332C132.839 81.8886 147.514 69.7573 150.198 53.1162C150.281 52.6014 150.759 52.2513 151.275 52.3358C151.787 52.4192 152.135 52.9044 152.051 53.4191C149.215 70.9954 133.718 83.8071 116.002 83.221Z" fill="white"/>
</g>
<mask id="mask7_5671_26449" style="mask-type:luminance" maskUnits="userSpaceOnUse" x="56" y="-11" width="118" height="119">
<path d="M173.821 -11H56V107.536H173.821V-11Z" fill="white"/>
</mask>
<g mask="url(#mask7_5671_26449)">
<path d="M78.7174 37.2025C78.6443 37.2003 78.5712 37.1893 78.4981 37.1685C77.9985 37.0302 77.705 36.5099 77.8425 36.0062C80.2371 27.2762 85.5532 19.4704 92.8122 14.0265C100.292 8.41802 109.183 5.61596 118.527 5.92547C119.288 5.95072 120.058 5.99791 120.816 6.06486C121.333 6.11096 121.714 6.56974 121.669 7.08888C121.623 7.60802 121.158 7.99546 120.651 7.94607C119.926 7.88131 119.191 7.83741 118.464 7.81327C100.411 7.2162 84.4502 19.016 79.6523 36.5088C79.5345 36.938 79.1407 37.2157 78.7174 37.2025Z" fill="#F8B218"/>
</g>
<mask id="mask8_5671_26449" style="mask-type:luminance" maskUnits="userSpaceOnUse" x="56" y="-11" width="118" height="119">
<path d="M173.821 -11H56V107.536H173.821V-11Z" fill="white"/>
</mask>
<g mask="url(#mask8_5671_26449)">
<path d="M115.805 89.0737C115.286 89.0562 114.881 88.6204 114.897 88.0991C114.913 87.5778 115.348 87.1695 115.866 87.1859C135.954 87.8511 153.096 73.258 155.738 53.2419C155.807 52.7249 156.283 52.3594 156.792 52.4308C157.306 52.4988 157.667 52.9741 157.599 53.491C156.274 63.5325 151.305 72.696 143.609 79.2945C135.861 85.9369 125.987 89.4107 115.805 89.0737Z" fill="#F8B218"/>
</g>
<mask id="mask9_5671_26449" style="mask-type:luminance" maskUnits="userSpaceOnUse" x="56" y="-11" width="118" height="119">
<path d="M173.821 -11H56V107.536H173.821V-11Z" fill="white"/>
</mask>
<g mask="url(#mask9_5671_26449)">
<path d="M85.1313 36.8083C85.0419 36.805 84.9524 36.7896 84.8629 36.76C84.3709 36.5942 84.1069 36.0586 84.2717 35.5647C89.135 20.9662 102.692 11.2199 118.007 11.3132C127.861 11.3735 136.976 15.4037 143.685 22.6641C144.038 23.046 144.017 23.6431 143.637 23.9987C143.257 24.3532 142.664 24.3324 142.31 23.9504C135.958 17.0753 127.325 13.2514 117.996 13.2021C103.494 13.1143 90.6569 22.3425 86.0532 36.1651C85.9168 36.569 85.535 36.8214 85.1313 36.8083Z" fill="white"/>
</g>
<mask id="mask10_5671_26449" style="mask-type:luminance" maskUnits="userSpaceOnUse" x="56" y="-11" width="118" height="119">
<path d="M173.821 -11H56V107.536H173.821V-11Z" fill="white"/>
</mask>
<g mask="url(#mask10_5671_26449)">
<path d="M140.709 23.7236L134.385 27.2929C134.385 27.2929 133.274 27.8515 133.122 28.633C133.113 28.6758 133.108 28.8679 133.108 28.8679L133.132 30.1377C133.132 30.1377 133.352 31.0421 132.626 31.1135C132.596 31.1168 132.499 31.1233 132.468 31.1321C132.365 31.1607 132.117 31.2682 132.117 31.2682L130.547 32.3164L128.814 33.977L127.174 34.8682C127.174 34.8682 126.184 35.1623 126.336 36.1458C126.345 36.2017 126.438 36.4179 126.438 36.4179L126.586 36.6473C126.586 36.6473 126.677 36.7966 126.592 36.6045C126.409 36.1962 126.242 35.5059 126.984 35.1788C126.984 35.1788 129.04 34.3941 129.561 33.7706L131.168 32.3482L132.13 31.7588C132.13 31.7588 132.391 31.6205 132.484 31.5909C132.809 31.4888 133.543 31.2155 133.539 30.8259C133.539 30.8072 133.529 30.5493 133.529 30.5493L133.5 29.0237C133.5 29.0237 133.496 28.8382 133.511 28.7614C133.553 28.554 133.72 28.1259 134.373 27.7934C135.246 27.328 140.709 23.7236 140.709 23.7236Z" fill="#9E1F23"/>
</g>
<mask id="mask11_5671_26449" style="mask-type:luminance" maskUnits="userSpaceOnUse" x="56" y="-11" width="118" height="119">
<path d="M173.821 -11H56V107.536H173.821V-11Z" fill="white"/>
</mask>
<g mask="url(#mask11_5671_26449)">
<path d="M148.366 28.6675L143.919 31.5025L139.368 34.3385C139.368 34.3385 139.076 34.5372 138.951 34.625C138.531 34.9181 137.503 35.5009 136.522 35.03C136.522 35.03 135.643 34.5526 135.583 34.501C135.551 34.4735 135.511 34.4439 135.464 34.4176C135.263 34.3067 134.932 34.2606 134.512 34.7062C134.512 34.7062 133.353 35.6787 132.021 36.0244C131.94 36.0452 131.436 36.1451 131.31 36.1868C130.742 36.3756 129.116 36.9452 128.482 37.4743C128.46 37.4929 128.44 37.5039 128.48 37.4589C128.689 37.2273 129.461 36.4689 130.994 35.9344L133.172 35.0377L133.962 34.5251C133.962 34.5251 134.146 34.3737 134.199 34.3034C134.407 34.0257 135.027 33.4133 136.053 34.1509L136.753 34.5613C136.753 34.5613 136.864 34.6393 136.911 34.6722C137.075 34.7896 137.534 35.0004 138.32 34.5295L141.994 32.3772L148.366 28.6675Z" fill="#9E1F23"/>
</g>
<mask id="mask12_5671_26449" style="mask-type:luminance" maskUnits="userSpaceOnUse" x="56" y="-11" width="118" height="119">
<path d="M173.821 -11H56V107.536H173.821V-11Z" fill="white"/>
</mask>
<g mask="url(#mask12_5671_26449)">
<path d="M138.435 25.9878L135.539 27.6649C135.539 27.6649 134.043 28.387 134.032 28.9578C134.021 29.5274 134.206 30.1091 134.206 30.1091L134.284 29.0006C134.284 29.0006 134.315 28.5056 134.98 28.2981C134.998 28.2927 135.1 28.2389 135.1 28.2389L138.435 25.9878Z" fill="#F8B218"/>
</g>
<mask id="mask13_5671_26449" style="mask-type:luminance" maskUnits="userSpaceOnUse" x="56" y="-11" width="118" height="119">
<path d="M173.821 -11H56V107.536H173.821V-11Z" fill="white"/>
</mask>
<g mask="url(#mask13_5671_26449)">
<path d="M124.613 50.3795C124.613 50.3795 123.247 49.7473 123.956 47.5281C123.956 47.5281 123.755 49.3588 124.613 50.3795Z" fill="#F8B218"/>
</g>
<mask id="mask14_5671_26449" style="mask-type:luminance" maskUnits="userSpaceOnUse" x="56" y="-11" width="118" height="119">
<path d="M173.821 -11H56V107.536H173.821V-11Z" fill="white"/>
</mask>
<g mask="url(#mask14_5671_26449)">
<path d="M123.209 49.2981C123.209 49.2981 123.732 52.0705 125.634 52.3361C125.634 52.3361 128.881 53.269 129.719 49.6778C129.733 49.6164 129.76 49.4254 129.757 49.3101C129.741 48.7811 129.64 47.1941 128.99 45.9C128.911 45.7431 128.545 45.011 128.545 45.011L126.741 40.7338C126.741 40.7338 125.492 37.7584 127.95 35.8311C128.139 35.6829 129.53 35.0112 129.53 35.0112L132.437 33.7929L133.186 33.2727C133.186 33.2727 133.527 32.9533 133.663 32.8029C134.058 32.3716 135.086 31.7339 137.115 33.2858C137.376 33.4461 137.808 33.2935 137.808 33.2935L143.725 30.0107L138.024 33.5657C138.024 33.5657 137.327 34.0783 136.609 33.434L135.879 32.9489C135.879 32.9489 134.602 32.2805 133.948 33.1695C133.902 33.2321 133.743 33.4384 133.608 33.5306C133.107 33.8719 131.806 34.7028 130.635 34.9695C130.635 34.9695 127.913 35.7389 127.178 37.7562C127.178 37.7562 126.503 39.3937 127.767 42.0992C127.767 42.0992 129.314 45.4303 129.869 47.2039C129.921 47.3719 129.986 47.7823 130.025 48.0578C130.048 48.2148 130.061 48.4453 130.061 48.4453L130.036 51.0146C130.036 51.0146 130.052 53.6674 128.523 53.595L124.85 53.6652C124.85 53.6652 124.458 53.6663 124.312 53.6246C124.009 53.5379 123.528 53.2877 123.421 52.5765C123.406 52.481 123.374 51.8598 123.374 51.8598L123.209 49.2981Z" fill="#F8B218"/>
</g>
<mask id="mask15_5671_26449" style="mask-type:luminance" maskUnits="userSpaceOnUse" x="56" y="-11" width="118" height="119">
<path d="M173.821 -11H56V107.536H173.821V-11Z" fill="white"/>
</mask>
<g mask="url(#mask15_5671_26449)">
<path d="M122.059 46.5116L122.779 52.2595C122.779 52.2595 122.848 54.1966 124.131 54.3997C124.131 54.3997 127.053 54.7674 128.966 54.1977C129.009 54.1857 129.044 54.1637 128.958 54.1714C128.312 54.2329 125.533 54.4798 124.78 54.2746C124.78 54.2746 123.231 54.077 123.196 52.7742L122.397 46.4753" fill="white"/>
</g>
<mask id="mask16_5671_26449" style="mask-type:luminance" maskUnits="userSpaceOnUse" x="56" y="-11" width="118" height="119">
<path d="M173.821 -11H56V107.536H173.821V-11Z" fill="white"/>
</mask>
<g mask="url(#mask16_5671_26449)">
<path d="M123.744 54.8187C123.744 54.8187 124.295 55.1557 125.316 55.0986L129.278 54.9482C129.278 54.9482 130.676 54.9592 130.425 53.6871L131.409 45.7463L130.874 53.7289C130.874 53.7289 130.997 55.2566 129.477 55.4048L125.12 55.4476C125.118 55.4465 123.872 55.4784 123.744 54.8187Z" fill="white"/>
</g>
<mask id="mask17_5671_26449" style="mask-type:luminance" maskUnits="userSpaceOnUse" x="56" y="-11" width="118" height="119">
<path d="M173.821 -11H56V107.536H173.821V-11Z" fill="white"/>
</mask>
<g mask="url(#mask17_5671_26449)">
<path d="M105.959 77.455C106.949 77.7678 107.649 77.3003 108.037 76.0567L109.383 71.7532C108.994 71.559 108.761 71.4371 108.703 71.3954C108.601 71.3394 108.583 71.2505 108.617 71.1419L108.758 70.6875L111.445 71.537L111.304 71.9914C111.27 72.099 111.181 72.1549 111.067 72.1429L110.428 72.0715L109.089 76.3531C108.673 77.6833 107.934 78.3879 106.888 78.4845C106.546 78.5196 106.193 78.479 105.827 78.3627C105.462 78.2475 105.098 78.085 104.756 77.8578C104.93 77.4133 105.054 77.1675 105.11 77.1389C105.167 77.1093 105.238 77.1082 105.304 77.1279C105.368 77.1488 105.451 77.1861 105.548 77.2531C105.645 77.32 105.789 77.3881 105.961 77.4429L105.959 77.455Z" fill="#F8B218"/>
</g>
<mask id="mask18_5671_26449" style="mask-type:luminance" maskUnits="userSpaceOnUse" x="56" y="-11" width="118" height="119">
<path d="M173.821 -11H56V107.536H173.821V-11Z" fill="white"/>
</mask>
<g mask="url(#mask18_5671_26449)">
<path d="M113.461 79.2292C114.022 79.2797 114.562 79.0558 115.068 78.5772L115.369 75.1913C115.304 75.1627 115.096 75.098 114.742 74.9981C114.632 74.9652 114.583 74.8818 114.593 74.7687L114.636 74.2836L115.444 74.356L116.442 74.446L116.007 79.3444C116.36 79.4443 116.568 79.5091 116.634 79.5376C116.744 79.5705 116.794 79.643 116.784 79.756L116.741 80.2411L115.338 80.1149C115.204 80.1028 115.121 80.0161 115.088 79.8757L115.064 79.2599C114.472 79.8208 113.816 80.0688 113.098 80.0052C112.493 79.9503 112.039 79.7044 111.738 79.2797C111.457 78.8681 111.323 78.3435 111.384 77.6663L111.635 74.8445C111.283 74.7446 111.084 74.6809 111.019 74.6524C110.909 74.6195 110.849 74.5349 110.858 74.4219L110.901 73.9478L112.719 74.1113L112.396 77.7453C112.357 78.1744 112.416 78.5322 112.596 78.7869C112.777 79.0426 113.059 79.1809 113.463 79.2171L113.461 79.2292Z" fill="#F8B218"/>
</g>
<mask id="mask19_5671_26449" style="mask-type:luminance" maskUnits="userSpaceOnUse" x="56" y="-11" width="118" height="119">
<path d="M173.821 -11H56V107.536H173.821V-11Z" fill="white"/>
</mask>
<g mask="url(#mask19_5671_26449)">
<path d="M119.625 75.0211C120.083 74.3263 120.656 73.9213 121.345 73.8083C121.947 73.7095 122.444 73.8237 122.842 74.1705C123.215 74.4998 123.467 74.998 123.573 75.6467L124.025 78.4323C124.391 78.4411 124.61 78.451 124.68 78.463C124.795 78.4674 124.875 78.5344 124.893 78.6463L124.972 79.1281L123.171 79.4234L122.586 75.8223C122.441 74.9267 121.976 74.5217 121.186 74.6512C120.631 74.7423 120.163 75.0946 119.781 75.6983L120.325 79.0535C120.348 79.0502 120.577 79.0579 120.992 79.082C121.107 79.0864 121.175 79.1556 121.194 79.2675L121.27 79.7373L118.68 80.162L118.604 79.6923C118.585 79.5803 118.617 79.4947 118.725 79.4541L119.35 79.2258L118.694 75.1879C118.328 75.1791 118.098 75.1715 118.028 75.1594C117.913 75.155 117.856 75.0848 117.838 74.9728L117.762 74.5031L118.561 74.3713L119.14 74.2769C119.274 74.255 119.373 74.3077 119.44 74.4339L119.628 75.0343L119.625 75.0211Z" fill="#F8B218"/>
</g>
<mask id="mask20_5671_26449" style="mask-type:luminance" maskUnits="userSpaceOnUse" x="56" y="-11" width="118" height="119">
<path d="M173.821 -11H56V107.536H173.821V-11Z" fill="white"/>
</mask>
<g mask="url(#mask20_5671_26449)">
<path d="M128.849 77.7304C128.169 78.0037 127.529 77.9806 126.908 77.67C126.257 77.3451 125.76 76.7656 125.425 75.9238C125.098 75.1028 125.053 74.3763 125.281 73.6991C125.525 73.0021 126.053 72.4972 126.837 72.1811C127.236 72.0209 127.808 71.9375 128.557 71.9287L129.109 73.3182L128.69 73.4861C128.585 73.5278 128.516 73.507 128.453 73.4104C128.426 73.3731 128.365 73.2502 128.252 73.0274C128.139 72.8046 128.088 72.7036 128.083 72.6926C127.894 72.7069 127.761 72.7365 127.669 72.7497C127.447 72.8024 127.255 72.8671 127.066 72.9439C126.878 73.0197 126.7 73.1525 126.545 73.3116C126.39 73.4719 126.278 73.676 126.209 73.8988C126.079 74.3664 126.146 74.9009 126.398 75.532C126.649 76.1631 126.997 76.6098 127.41 76.8578C127.82 77.096 128.257 77.1267 128.739 76.9336C129.178 76.7569 129.507 76.4539 129.724 76.0237C129.761 75.9359 129.827 75.8854 129.9 75.8558C129.973 75.8261 130.034 75.8261 130.1 75.8722L130.49 76.1192C130.267 76.8425 129.707 77.3847 128.849 77.7304Z" fill="#F8B218"/>
</g>
<mask id="mask21_5671_26449" style="mask-type:luminance" maskUnits="userSpaceOnUse" x="56" y="-11" width="118" height="119">
<path d="M173.821 -11H56V107.536H173.821V-11Z" fill="white"/>
</mask>
<g mask="url(#mask21_5671_26449)">
<path d="M132.788 75.3755C132.448 75.2921 132.164 75.0419 131.917 74.6358L130.099 71.6372L129.512 71.9972C129.454 72.0324 129.409 72.0466 129.354 72.0411C129.298 72.0357 129.253 71.983 129.217 71.9259L129.012 71.5868L129.746 70.9908L129.018 69.3543C128.988 69.306 128.985 69.2555 129.005 69.2029C129.025 69.1502 129.058 69.1173 129.116 69.081L129.549 68.8154L130.569 70.498L131.963 69.643L132.344 70.2719L130.95 71.128L132.732 74.0683C132.861 74.2813 133.004 74.4064 133.158 74.4448C133.313 74.4821 133.486 74.4426 133.64 74.3482C133.736 74.2889 133.801 74.2231 133.857 74.1616C133.913 74.1013 133.953 74.0365 133.982 73.9783C134.013 73.9202 134.024 73.873 134.051 73.8302C134.077 73.7874 134.105 73.7445 134.124 73.7325C134.163 73.7083 134.213 73.7039 134.287 73.7391L134.783 73.9915C134.711 74.2209 134.609 74.4437 134.444 74.6511C134.279 74.8586 134.092 75.0276 133.87 75.1626C133.487 75.3975 133.128 75.4589 132.788 75.3755Z" fill="#F8B218"/>
</g>
<mask id="mask22_5671_26449" style="mask-type:luminance" maskUnits="userSpaceOnUse" x="56" y="-11" width="118" height="119">
<path d="M173.821 -11H56V107.536H173.821V-11Z" fill="white"/>
</mask>
<g mask="url(#mask22_5671_26449)">
<path d="M132.004 67.5339C131.913 67.4922 131.847 67.4286 131.79 67.3583C131.734 67.2881 131.679 67.2014 131.657 67.1026C131.635 67.0038 131.62 66.9138 131.63 66.8183C131.64 66.7228 131.665 66.6449 131.705 66.5527C131.747 66.4605 131.81 66.3947 131.88 66.3376C131.95 66.2805 132.027 66.2322 132.125 66.2103C132.223 66.1883 132.305 66.1806 132.399 66.1905C132.494 66.2004 132.579 66.2333 132.671 66.275C132.762 66.3167 132.843 66.3815 132.901 66.4517C132.958 66.522 132.997 66.6065 133.019 66.7053C133.041 66.8041 133.048 66.8864 133.038 66.9819C133.029 67.0773 133.005 67.1553 132.963 67.2475C132.922 67.3397 132.858 67.4055 132.789 67.4626C132.719 67.5197 132.641 67.568 132.543 67.5899C132.445 67.6119 132.364 67.6195 132.269 67.6097C132.173 67.5998 132.096 67.5756 132.004 67.5339ZM137.77 71.5543L138.074 71.9329L136.036 73.5957L135.731 73.2171C135.666 73.138 135.663 73.025 135.726 72.9427C135.791 72.8604 136.156 72.4312 136.156 72.4312L133.595 69.2538C133.595 69.2538 133.102 69.5249 133.009 69.571C132.916 69.6182 132.807 69.5896 132.743 69.5106L132.445 69.1408L133.853 67.9916L136.925 71.8023C136.925 71.8023 137.41 71.5389 137.502 71.4917C137.597 71.4478 137.706 71.4752 137.77 71.5543Z" fill="#F8B218"/>
</g>
<mask id="mask23_5671_26449" style="mask-type:luminance" maskUnits="userSpaceOnUse" x="56" y="-11" width="118" height="119">
<path d="M173.821 -11H56V107.536H173.821V-11Z" fill="white"/>
</mask>
<g mask="url(#mask23_5671_26449)">
<path d="M137.466 64.4467C137.791 64.281 138.135 64.1942 138.478 64.18C138.821 64.1657 139.176 64.2392 139.529 64.3852C139.881 64.5312 140.23 64.7496 140.569 65.0481C140.909 65.3478 141.168 65.6683 141.357 66.0008C141.546 66.3334 141.664 66.6791 141.694 67.0237C141.725 67.3673 141.683 67.7229 141.561 68.0686C141.44 68.4132 141.245 68.7392 140.97 69.0542C140.694 69.3692 140.398 69.6052 140.073 69.7709C139.748 69.9366 139.403 70.0234 139.061 70.0376C138.718 70.0519 138.362 69.9784 138.002 69.8412C137.642 69.704 137.309 69.468 136.969 69.1695C136.631 68.8698 136.356 68.5669 136.175 68.2245C135.994 67.8831 135.876 67.5374 135.846 67.1939C135.815 66.8503 135.856 66.4947 135.979 66.149C136.1 65.8044 136.295 65.4784 136.57 65.1634C136.845 64.8484 137.142 64.6124 137.466 64.4467ZM140.804 67.218C140.695 66.7592 140.394 66.2972 139.886 65.8483C139.379 65.3994 138.884 65.1579 138.418 65.1085C137.952 65.058 137.534 65.2622 137.161 65.688C136.968 65.9097 136.838 66.127 136.772 66.34C136.705 66.5529 136.705 66.7943 136.751 67.0161C136.797 67.2378 136.892 67.4726 137.05 67.7042C137.208 67.9347 137.415 68.1784 137.67 68.4034C137.924 68.6273 138.174 68.7886 138.421 68.917C138.669 69.0454 138.912 69.1102 139.137 69.1277C139.362 69.1453 139.582 69.0992 139.784 69.0059C139.986 68.9126 140.199 68.77 140.394 68.5493C140.766 68.1202 140.913 67.6768 140.804 67.218Z" fill="#F8B218"/>
</g>
<mask id="mask24_5671_26449" style="mask-type:luminance" maskUnits="userSpaceOnUse" x="56" y="-11" width="118" height="119">
<path d="M173.821 -11H56V107.536H173.821V-11Z" fill="white"/>
</mask>
<g mask="url(#mask24_5671_26449)">
<path d="M140.292 61.6181C140.019 60.8312 140.047 60.1266 140.375 59.5064C140.66 58.9664 141.051 58.6361 141.567 58.5274C142.054 58.4286 142.601 58.5285 143.178 58.8369L145.654 60.1617C145.883 59.8741 146.023 59.704 146.075 59.6557C146.148 59.5657 146.249 59.5437 146.349 59.5964L146.777 59.8247L145.92 61.4458L142.718 59.7336C141.923 59.3078 141.32 59.4351 140.945 60.1452C140.68 60.6457 140.675 61.234 140.92 61.9035L143.904 63.4993C143.915 63.4796 144.06 63.3007 144.331 62.9835C144.403 62.8935 144.5 62.8814 144.599 62.9341L145.017 63.158L143.785 65.4892L143.367 65.2664C143.268 65.2126 143.219 65.1358 143.253 65.0249L143.45 64.3862L139.86 62.4665C139.631 62.7552 139.486 62.9341 139.435 62.9835C139.362 63.0724 139.271 63.0757 139.172 63.023L138.754 62.8002L139.135 62.0802L139.41 61.56C139.473 61.4403 139.575 61.3909 139.715 61.4151L140.304 61.628L140.292 61.6181Z" fill="#F8B218"/>
</g>
<path d="M3.192 113V104.912H4.32V113H3.192ZM0.36 105.704V104.672H7.14V105.704H0.36ZM12.804 113V109.676C12.804 109.244 12.668 108.888 12.396 108.608C12.124 108.328 11.772 108.188 11.34 108.188C11.052 108.188 10.796 108.252 10.572 108.38C10.348 108.508 10.172 108.684 10.044 108.908C9.916 109.132 9.852 109.388 9.852 109.676L9.408 109.424C9.408 108.992 9.504 108.608 9.696 108.272C9.888 107.936 10.156 107.672 10.5 107.48C10.844 107.28 11.232 107.18 11.664 107.18C12.096 107.18 12.476 107.276 12.804 107.468C13.14 107.66 13.404 107.928 13.596 108.272C13.788 108.616 13.884 109.012 13.884 109.46V113H12.804ZM8.772 113V104.432H9.852V113H8.772ZM15.8382 113V107.3H16.9182V113H15.8382ZM16.3782 106.16C16.1782 106.16 16.0142 106.096 15.8862 105.968C15.7582 105.832 15.6942 105.664 15.6942 105.464C15.6942 105.272 15.7582 105.112 15.8862 104.984C16.0142 104.848 16.1782 104.78 16.3782 104.78C16.5782 104.78 16.7422 104.848 16.8702 104.984C16.9982 105.112 17.0622 105.272 17.0622 105.464C17.0622 105.664 16.9982 105.832 16.8702 105.968C16.7422 106.096 16.5782 106.16 16.3782 106.16ZM23.0218 113V109.676C23.0218 109.244 22.8858 108.888 22.6138 108.608C22.3418 108.328 21.9898 108.188 21.5578 108.188C21.2698 108.188 21.0138 108.252 20.7898 108.38C20.5658 108.508 20.3898 108.684 20.2618 108.908C20.1338 109.132 20.0698 109.388 20.0698 109.676L19.6258 109.424C19.6258 108.992 19.7218 108.608 19.9138 108.272C20.1058 107.936 20.3738 107.672 20.7178 107.48C21.0618 107.28 21.4498 107.18 21.8818 107.18C22.3138 107.18 22.6938 107.288 23.0218 107.504C23.3578 107.72 23.6218 108.004 23.8138 108.356C24.0058 108.7 24.1018 109.068 24.1018 109.46V113H23.0218ZM18.9898 113V107.3H20.0698V113H18.9898ZM29.692 113L27.028 110.084L29.668 107.3H30.976L28.036 110.372L28.084 109.748L31.084 113H29.692ZM26.044 113V104.432H27.124V113H26.044ZM39.4487 113.12C38.8487 113.12 38.2927 113.012 37.7807 112.796C37.2687 112.572 36.8207 112.264 36.4367 111.872C36.0607 111.48 35.7687 111.024 35.5607 110.504C35.3527 109.984 35.2487 109.428 35.2487 108.836C35.2487 108.236 35.3527 107.676 35.5607 107.156C35.7687 106.636 36.0607 106.184 36.4367 105.8C36.8207 105.408 37.2647 105.104 37.7687 104.888C38.2807 104.664 38.8367 104.552 39.4367 104.552C40.0927 104.552 40.6687 104.664 41.1647 104.888C41.6607 105.112 42.1007 105.416 42.4847 105.8L41.7047 106.58C41.4407 106.284 41.1167 106.052 40.7327 105.884C40.3567 105.716 39.9247 105.632 39.4367 105.632C38.9967 105.632 38.5927 105.712 38.2247 105.872C37.8567 106.024 37.5367 106.244 37.2647 106.532C36.9927 106.82 36.7807 107.16 36.6287 107.552C36.4847 107.944 36.4127 108.372 36.4127 108.836C36.4127 109.3 36.4847 109.728 36.6287 110.12C36.7807 110.512 36.9927 110.852 37.2647 111.14C37.5367 111.428 37.8567 111.652 38.2247 111.812C38.5927 111.964 38.9967 112.04 39.4367 112.04C39.9567 112.04 40.4087 111.956 40.7927 111.788C41.1767 111.612 41.5007 111.376 41.7647 111.08L42.5447 111.848C42.1607 112.248 41.7087 112.56 41.1887 112.784C40.6767 113.008 40.0967 113.12 39.4487 113.12ZM46.6592 113.12C46.0912 113.12 45.5792 112.992 45.1232 112.736C44.6672 112.472 44.3072 112.116 44.0432 111.668C43.7792 111.22 43.6472 110.712 43.6472 110.144C43.6472 109.584 43.7752 109.08 44.0312 108.632C44.2952 108.184 44.6472 107.832 45.0872 107.576C45.5352 107.312 46.0352 107.18 46.5872 107.18C47.1152 107.18 47.5792 107.3 47.9792 107.54C48.3872 107.78 48.7032 108.112 48.9272 108.536C49.1592 108.96 49.2752 109.44 49.2752 109.976C49.2752 110.056 49.2712 110.144 49.2632 110.24C49.2552 110.328 49.2392 110.432 49.2152 110.552H44.4032V109.652H48.6392L48.2432 110C48.2432 109.616 48.1752 109.292 48.0392 109.028C47.9032 108.756 47.7112 108.548 47.4632 108.404C47.2152 108.252 46.9152 108.176 46.5632 108.176C46.1952 108.176 45.8712 108.256 45.5912 108.416C45.3112 108.576 45.0952 108.8 44.9432 109.088C44.7912 109.376 44.7152 109.716 44.7152 110.108C44.7152 110.508 44.7952 110.86 44.9552 111.164C45.1152 111.46 45.3432 111.692 45.6392 111.86C45.9352 112.02 46.2752 112.1 46.6592 112.1C46.9792 112.1 47.2712 112.044 47.5352 111.932C47.8072 111.82 48.0392 111.652 48.2312 111.428L48.9272 112.136C48.6552 112.456 48.3192 112.7 47.9192 112.868C47.5272 113.036 47.1072 113.12 46.6592 113.12ZM50.9328 113V104.432H52.0128V113H50.9328ZM56.7129 113.12C56.1449 113.12 55.6329 112.992 55.1769 112.736C54.7209 112.472 54.3609 112.116 54.0969 111.668C53.8329 111.22 53.7009 110.712 53.7009 110.144C53.7009 109.584 53.8289 109.08 54.0849 108.632C54.3489 108.184 54.7009 107.832 55.1409 107.576C55.5889 107.312 56.0889 107.18 56.6409 107.18C57.1689 107.18 57.6329 107.3 58.0329 107.54C58.4409 107.78 58.7569 108.112 58.9809 108.536C59.2129 108.96 59.3289 109.44 59.3289 109.976C59.3289 110.056 59.3249 110.144 59.3169 110.24C59.3089 110.328 59.2929 110.432 59.2689 110.552H54.4569V109.652H58.6929L58.2969 110C58.2969 109.616 58.2289 109.292 58.0929 109.028C57.9569 108.756 57.7649 108.548 57.5169 108.404C57.2689 108.252 56.9689 108.176 56.6169 108.176C56.2489 108.176 55.9249 108.256 55.6449 108.416C55.3649 108.576 55.1489 108.8 54.9969 109.088C54.8449 109.376 54.7689 109.716 54.7689 110.108C54.7689 110.508 54.8489 110.86 55.0089 111.164C55.1689 111.46 55.3969 111.692 55.6929 111.86C55.9889 112.02 56.3289 112.1 56.7129 112.1C57.0329 112.1 57.3249 112.044 57.5889 111.932C57.8609 111.82 58.0929 111.652 58.2849 111.428L58.9809 112.136C58.7089 112.456 58.3729 112.7 57.9729 112.868C57.5809 113.036 57.1609 113.12 56.7129 113.12ZM63.9865 113.12C63.5545 113.12 63.1625 113.032 62.8105 112.856C62.4665 112.672 62.1905 112.42 61.9825 112.1C61.7745 111.78 61.6585 111.416 61.6345 111.008V109.292C61.6585 108.876 61.7745 108.512 61.9825 108.2C62.1985 107.88 62.4785 107.632 62.8225 107.456C63.1745 107.272 63.5625 107.18 63.9865 107.18C64.5065 107.18 64.9745 107.312 65.3905 107.576C65.8145 107.84 66.1465 108.196 66.3865 108.644C66.6265 109.092 66.7465 109.596 66.7465 110.156C66.7465 110.716 66.6265 111.22 66.3865 111.668C66.1465 112.116 65.8145 112.472 65.3905 112.736C64.9745 112.992 64.5065 113.12 63.9865 113.12ZM60.9865 113V104.432H62.0665V108.692L61.8625 110.072L62.0665 111.464V113H60.9865ZM63.8065 112.1C64.1665 112.1 64.4825 112.016 64.7545 111.848C65.0265 111.68 65.2425 111.452 65.4025 111.164C65.5625 110.868 65.6425 110.528 65.6425 110.144C65.6425 109.768 65.5625 109.432 65.4025 109.136C65.2425 108.84 65.0265 108.612 64.7545 108.452C64.4825 108.284 64.1705 108.2 63.8185 108.2C63.4585 108.2 63.1425 108.284 62.8705 108.452C62.5985 108.612 62.3865 108.84 62.2345 109.136C62.0825 109.432 62.0065 109.772 62.0065 110.156C62.0065 110.532 62.0785 110.868 62.2225 111.164C62.3745 111.452 62.5865 111.68 62.8585 111.848C63.1385 112.016 63.4545 112.1 63.8065 112.1ZM68.4509 113V107.3H69.5309V113H68.4509ZM69.5309 109.748L69.1229 109.568C69.1229 108.84 69.2909 108.26 69.6269 107.828C69.9629 107.396 70.4469 107.18 71.0789 107.18C71.3669 107.18 71.6269 107.232 71.8589 107.336C72.0909 107.432 72.3069 107.596 72.5069 107.828L71.7989 108.56C71.6789 108.432 71.5469 108.34 71.4029 108.284C71.2589 108.228 71.0909 108.2 70.8989 108.2C70.4989 108.2 70.1709 108.328 69.9149 108.584C69.6589 108.84 69.5309 109.228 69.5309 109.748ZM75.9838 113.12C75.4638 113.12 74.9918 112.992 74.5678 112.736C74.1438 112.472 73.8078 112.116 73.5598 111.668C73.3198 111.22 73.1998 110.716 73.1998 110.156C73.1998 109.596 73.3198 109.092 73.5598 108.644C73.8078 108.196 74.1398 107.84 74.5558 107.576C74.9798 107.312 75.4558 107.18 75.9838 107.18C76.4158 107.18 76.7998 107.272 77.1358 107.456C77.4798 107.632 77.7558 107.88 77.9638 108.2C78.1718 108.512 78.2878 108.876 78.3118 109.292V111.008C78.2878 111.416 78.1718 111.78 77.9638 112.1C77.7638 112.42 77.4918 112.672 77.1478 112.856C76.8118 113.032 76.4238 113.12 75.9838 113.12ZM76.1638 112.1C76.6998 112.1 77.1318 111.92 77.4598 111.56C77.7878 111.192 77.9518 110.724 77.9518 110.156C77.9518 109.764 77.8758 109.424 77.7238 109.136C77.5798 108.84 77.3718 108.612 77.0998 108.452C76.8278 108.284 76.5118 108.2 76.1518 108.2C75.7918 108.2 75.4718 108.284 75.1918 108.452C74.9198 108.62 74.7038 108.852 74.5438 109.148C74.3918 109.436 74.3158 109.768 74.3158 110.144C74.3158 110.528 74.3918 110.868 74.5438 111.164C74.7038 111.452 74.9238 111.68 75.2038 111.848C75.4838 112.016 75.8038 112.1 76.1638 112.1ZM77.8798 113V111.464L78.0838 110.072L77.8798 108.692V107.3H78.9718V113H77.8798ZM81.8767 113V104.912H82.9567V113H81.8767ZM80.4727 108.284V107.3H84.3607V108.284H80.4727ZM85.9107 113V107.3H86.9907V113H85.9107ZM86.4507 106.16C86.2507 106.16 86.0867 106.096 85.9587 105.968C85.8307 105.832 85.7667 105.664 85.7667 105.464C85.7667 105.272 85.8307 105.112 85.9587 104.984C86.0867 104.848 86.2507 104.78 86.4507 104.78C86.6507 104.78 86.8147 104.848 86.9427 104.984C87.0707 105.112 87.1347 105.272 87.1347 105.464C87.1347 105.664 87.0707 105.832 86.9427 105.968C86.8147 106.096 86.6507 106.16 86.4507 106.16ZM91.6663 113.12C91.1063 113.12 90.6023 112.988 90.1543 112.724C89.7063 112.46 89.3503 112.104 89.0863 111.656C88.8223 111.2 88.6903 110.692 88.6903 110.132C88.6903 109.58 88.8223 109.084 89.0863 108.644C89.3503 108.196 89.7063 107.84 90.1543 107.576C90.6023 107.312 91.1063 107.18 91.6663 107.18C92.2183 107.18 92.7183 107.312 93.1663 107.576C93.6223 107.832 93.9823 108.184 94.2463 108.632C94.5103 109.08 94.6423 109.58 94.6423 110.132C94.6423 110.692 94.5103 111.2 94.2463 111.656C93.9823 112.104 93.6223 112.46 93.1663 112.724C92.7183 112.988 92.2183 113.12 91.6663 113.12ZM91.6663 112.076C92.0263 112.076 92.3463 111.992 92.6263 111.824C92.9063 111.656 93.1263 111.428 93.2863 111.14C93.4463 110.844 93.5263 110.508 93.5263 110.132C93.5263 109.764 93.4423 109.436 93.2743 109.148C93.1143 108.86 92.8943 108.636 92.6143 108.476C92.3423 108.308 92.0263 108.224 91.6663 108.224C91.3063 108.224 90.9863 108.308 90.7063 108.476C90.4263 108.636 90.2063 108.86 90.0463 109.148C89.8863 109.436 89.8063 109.764 89.8063 110.132C89.8063 110.508 89.8863 110.844 90.0463 111.14C90.2063 111.428 90.4263 111.656 90.7063 111.824C90.9863 111.992 91.3063 112.076 91.6663 112.076ZM100.371 113V109.676C100.371 109.244 100.235 108.888 99.9632 108.608C99.6912 108.328 99.3392 108.188 98.9072 108.188C98.6192 108.188 98.3632 108.252 98.1392 108.38C97.9152 108.508 97.7392 108.684 97.6112 108.908C97.4832 109.132 97.4192 109.388 97.4192 109.676L96.9752 109.424C96.9752 108.992 97.0712 108.608 97.2632 108.272C97.4552 107.936 97.7232 107.672 98.0672 107.48C98.4112 107.28 98.7992 107.18 99.2312 107.18C99.6632 107.18 100.043 107.288 100.371 107.504C100.707 107.72 100.971 108.004 101.163 108.356C101.355 108.7 101.451 109.068 101.451 109.46V113H100.371ZM96.3392 113V107.3H97.4192V113H96.3392ZM108.582 113V104.912H109.71V113H108.582ZM105.75 105.704V104.672H112.53V105.704H105.75ZM118.194 113V109.676C118.194 109.244 118.058 108.888 117.786 108.608C117.514 108.328 117.162 108.188 116.73 108.188C116.442 108.188 116.186 108.252 115.962 108.38C115.738 108.508 115.562 108.684 115.434 108.908C115.306 109.132 115.242 109.388 115.242 109.676L114.798 109.424C114.798 108.992 114.894 108.608 115.086 108.272C115.278 107.936 115.546 107.672 115.89 107.48C116.234 107.28 116.622 107.18 117.054 107.18C117.486 107.18 117.866 107.276 118.194 107.468C118.53 107.66 118.794 107.928 118.986 108.272C119.178 108.616 119.274 109.012 119.274 109.46V113H118.194ZM114.162 113V104.432H115.242V113H114.162ZM121.228 113V107.3H122.308V113H121.228ZM121.768 106.16C121.568 106.16 121.404 106.096 121.276 105.968C121.148 105.832 121.084 105.664 121.084 105.464C121.084 105.272 121.148 105.112 121.276 104.984C121.404 104.848 121.568 104.78 121.768 104.78C121.968 104.78 122.132 104.848 122.26 104.984C122.388 105.112 122.452 105.272 122.452 105.464C122.452 105.664 122.388 105.832 122.26 105.968C122.132 106.096 121.968 106.16 121.768 106.16ZM128.412 113V109.676C128.412 109.244 128.276 108.888 128.004 108.608C127.732 108.328 127.38 108.188 126.948 108.188C126.66 108.188 126.404 108.252 126.18 108.38C125.956 108.508 125.78 108.684 125.652 108.908C125.524 109.132 125.46 109.388 125.46 109.676L125.016 109.424C125.016 108.992 125.112 108.608 125.304 108.272C125.496 107.936 125.764 107.672 126.108 107.48C126.452 107.28 126.84 107.18 127.272 107.18C127.704 107.18 128.084 107.288 128.412 107.504C128.748 107.72 129.012 108.004 129.204 108.356C129.396 108.7 129.492 109.068 129.492 109.46V113H128.412ZM124.38 113V107.3H125.46V113H124.38ZM135.082 113L132.418 110.084L135.058 107.3H136.366L133.426 110.372L133.474 109.748L136.474 113H135.082ZM131.434 113V104.432H132.514V113H131.434ZM141.059 113V104.672H142.187V113H141.059ZM141.827 113V111.968H146.291V113H141.827ZM147.98 113V107.3H149.06V113H147.98ZM148.52 106.16C148.32 106.16 148.156 106.096 148.028 105.968C147.9 105.832 147.836 105.664 147.836 105.464C147.836 105.272 147.9 105.112 148.028 104.984C148.156 104.848 148.32 104.78 148.52 104.78C148.72 104.78 148.884 104.848 149.012 104.984C149.14 105.112 149.204 105.272 149.204 105.464C149.204 105.664 149.14 105.832 149.012 105.968C148.884 106.096 148.72 106.16 148.52 106.16ZM153.567 113.12C153.039 113.12 152.563 112.992 152.139 112.736C151.715 112.472 151.379 112.116 151.131 111.668C150.891 111.22 150.771 110.716 150.771 110.156C150.771 109.596 150.891 109.092 151.131 108.644C151.379 108.196 151.715 107.84 152.139 107.576C152.563 107.312 153.035 107.18 153.555 107.18C153.995 107.18 154.383 107.272 154.719 107.456C155.063 107.632 155.335 107.88 155.535 108.2C155.743 108.512 155.859 108.876 155.883 109.292V111.008C155.859 111.416 155.743 111.78 155.535 112.1C155.335 112.42 155.063 112.672 154.719 112.856C154.383 113.032 153.999 113.12 153.567 113.12ZM153.735 112.1C154.271 112.1 154.703 111.92 155.031 111.56C155.359 111.192 155.523 110.724 155.523 110.156C155.523 109.764 155.447 109.424 155.295 109.136C155.151 108.84 154.943 108.612 154.671 108.452C154.407 108.284 154.095 108.2 153.735 108.2C153.375 108.2 153.055 108.284 152.775 108.452C152.503 108.62 152.287 108.852 152.127 109.148C151.967 109.436 151.887 109.768 151.887 110.144C151.887 110.528 151.967 110.868 152.127 111.164C152.287 111.452 152.503 111.68 152.775 111.848C153.055 112.016 153.375 112.1 153.735 112.1ZM155.463 115.388V111.572L155.655 110.18L155.463 108.8V107.3H156.543V115.388H155.463ZM160.899 113.12C160.435 113.12 160.015 113.016 159.639 112.808C159.271 112.592 158.983 112.296 158.775 111.92C158.567 111.544 158.463 111.108 158.463 110.612V107.3H159.543V110.564C159.543 110.876 159.595 111.148 159.699 111.38C159.811 111.604 159.971 111.776 160.179 111.896C160.387 112.016 160.631 112.076 160.911 112.076C161.335 112.076 161.667 111.944 161.907 111.68C162.147 111.408 162.267 111.036 162.267 110.564V107.3H163.347V110.612C163.347 111.108 163.243 111.544 163.035 111.92C162.827 112.296 162.539 112.592 162.171 112.808C161.811 113.016 161.387 113.12 160.899 113.12ZM167.879 113.12C167.319 113.12 166.815 112.988 166.367 112.724C165.919 112.46 165.563 112.104 165.299 111.656C165.035 111.2 164.903 110.692 164.903 110.132C164.903 109.58 165.035 109.084 165.299 108.644C165.563 108.196 165.919 107.84 166.367 107.576C166.815 107.312 167.319 107.18 167.879 107.18C168.431 107.18 168.931 107.312 169.379 107.576C169.835 107.832 170.195 108.184 170.459 108.632C170.723 109.08 170.855 109.58 170.855 110.132C170.855 110.692 170.723 111.2 170.459 111.656C170.195 112.104 169.835 112.46 169.379 112.724C168.931 112.988 168.431 113.12 167.879 113.12ZM167.879 112.076C168.239 112.076 168.559 111.992 168.839 111.824C169.119 111.656 169.339 111.428 169.499 111.14C169.659 110.844 169.739 110.508 169.739 110.132C169.739 109.764 169.655 109.436 169.487 109.148C169.327 108.86 169.107 108.636 168.827 108.476C168.555 108.308 168.239 108.224 167.879 108.224C167.519 108.224 167.199 108.308 166.919 108.476C166.639 108.636 166.419 108.86 166.259 109.148C166.099 109.436 166.019 109.764 166.019 110.132C166.019 110.508 166.099 110.844 166.259 111.14C166.419 111.428 166.639 111.656 166.919 111.824C167.199 111.992 167.519 112.076 167.879 112.076ZM172.552 113V107.3H173.632V113H172.552ZM173.632 109.748L173.224 109.568C173.224 108.84 173.392 108.26 173.728 107.828C174.064 107.396 174.548 107.18 175.18 107.18C175.468 107.18 175.728 107.232 175.96 107.336C176.192 107.432 176.408 107.596 176.608 107.828L175.9 108.56C175.78 108.432 175.648 108.34 175.504 108.284C175.36 108.228 175.192 108.2 175 108.2C174.6 108.2 174.272 108.328 174.016 108.584C173.76 108.84 173.632 109.228 173.632 109.748ZM182.423 113.12C181.943 113.12 181.519 113.028 181.151 112.844C180.791 112.652 180.495 112.396 180.263 112.076L181.055 111.344C181.207 111.568 181.395 111.74 181.619 111.86C181.851 111.98 182.107 112.04 182.387 112.04C182.667 112.04 182.915 111.98 183.131 111.86C183.347 111.74 183.515 111.564 183.635 111.332C183.763 111.092 183.827 110.8 183.827 110.456V104.672H184.955V110.396C184.955 110.948 184.843 111.428 184.619 111.836C184.403 112.244 184.103 112.56 183.719 112.784C183.343 113.008 182.911 113.12 182.423 113.12ZM189.409 113.12C188.945 113.12 188.525 113.016 188.149 112.808C187.781 112.592 187.493 112.296 187.285 111.92C187.077 111.544 186.973 111.108 186.973 110.612V107.3H188.053V110.564C188.053 110.876 188.105 111.148 188.209 111.38C188.321 111.604 188.481 111.776 188.689 111.896C188.897 112.016 189.141 112.076 189.421 112.076C189.845 112.076 190.177 111.944 190.417 111.68C190.657 111.408 190.777 111.036 190.777 110.564V107.3H191.857V110.612C191.857 111.108 191.753 111.544 191.545 111.92C191.337 112.296 191.049 112.592 190.681 112.808C190.321 113.016 189.897 113.12 189.409 113.12ZM197.816 113V109.676C197.816 109.244 197.68 108.888 197.408 108.608C197.136 108.328 196.784 108.188 196.352 108.188C196.064 108.188 195.808 108.252 195.584 108.38C195.36 108.508 195.184 108.684 195.056 108.908C194.928 109.132 194.864 109.388 194.864 109.676L194.42 109.424C194.42 108.992 194.516 108.608 194.708 108.272C194.9 107.936 195.168 107.672 195.512 107.48C195.856 107.28 196.244 107.18 196.676 107.18C197.108 107.18 197.488 107.288 197.816 107.504C198.152 107.72 198.416 108.004 198.608 108.356C198.8 108.7 198.896 109.068 198.896 109.46V113H197.816ZM193.784 113V107.3H194.864V113H193.784ZM203.443 113.12C202.883 113.12 202.375 112.988 201.919 112.724C201.471 112.46 201.115 112.104 200.851 111.656C200.595 111.2 200.467 110.696 200.467 110.144C200.467 109.584 200.595 109.08 200.851 108.632C201.115 108.184 201.471 107.832 201.919 107.576C202.375 107.312 202.883 107.18 203.443 107.18C203.883 107.18 204.291 107.264 204.667 107.432C205.043 107.592 205.367 107.828 205.639 108.14L204.919 108.86C204.743 108.652 204.527 108.496 204.271 108.392C204.023 108.28 203.747 108.224 203.443 108.224C203.083 108.224 202.763 108.308 202.483 108.476C202.203 108.636 201.983 108.86 201.823 109.148C201.663 109.436 201.583 109.768 201.583 110.144C201.583 110.52 201.663 110.852 201.823 111.14C201.983 111.428 202.203 111.656 202.483 111.824C202.763 111.992 203.083 112.076 203.443 112.076C203.747 112.076 204.023 112.024 204.271 111.92C204.527 111.808 204.747 111.648 204.931 111.44L205.639 112.16C205.375 112.464 205.051 112.7 204.667 112.868C204.291 113.036 203.883 113.12 203.443 113.12ZM207.995 113V104.912H209.075V113H207.995ZM206.591 108.284V107.3H210.479V108.284H206.591ZM212.029 113V107.3H213.109V113H212.029ZM212.569 106.16C212.369 106.16 212.205 106.096 212.077 105.968C211.949 105.832 211.885 105.664 211.885 105.464C211.885 105.272 211.949 105.112 212.077 104.984C212.205 104.848 212.369 104.78 212.569 104.78C212.769 104.78 212.933 104.848 213.061 104.984C213.189 105.112 213.253 105.272 213.253 105.464C213.253 105.664 213.189 105.832 213.061 105.968C212.933 106.096 212.769 106.16 212.569 106.16ZM217.785 113.12C217.225 113.12 216.721 112.988 216.273 112.724C215.825 112.46 215.469 112.104 215.205 111.656C214.941 111.2 214.809 110.692 214.809 110.132C214.809 109.58 214.941 109.084 215.205 108.644C215.469 108.196 215.825 107.84 216.273 107.576C216.721 107.312 217.225 107.18 217.785 107.18C218.337 107.18 218.837 107.312 219.285 107.576C219.741 107.832 220.101 108.184 220.365 108.632C220.629 109.08 220.761 109.58 220.761 110.132C220.761 110.692 220.629 111.2 220.365 111.656C220.101 112.104 219.741 112.46 219.285 112.724C218.837 112.988 218.337 113.12 217.785 113.12ZM217.785 112.076C218.145 112.076 218.465 111.992 218.745 111.824C219.025 111.656 219.245 111.428 219.405 111.14C219.565 110.844 219.645 110.508 219.645 110.132C219.645 109.764 219.561 109.436 219.393 109.148C219.233 108.86 219.013 108.636 218.733 108.476C218.461 108.308 218.145 108.224 217.785 108.224C217.425 108.224 217.105 108.308 216.825 108.476C216.545 108.636 216.325 108.86 216.165 109.148C216.005 109.436 215.925 109.764 215.925 110.132C215.925 110.508 216.005 110.844 216.165 111.14C216.325 111.428 216.545 111.656 216.825 111.824C217.105 111.992 217.425 112.076 217.785 112.076ZM226.49 113V109.676C226.49 109.244 226.354 108.888 226.082 108.608C225.81 108.328 225.458 108.188 225.026 108.188C224.738 108.188 224.482 108.252 224.258 108.38C224.034 108.508 223.858 108.684 223.73 108.908C223.602 109.132 223.538 109.388 223.538 109.676L223.094 109.424C223.094 108.992 223.19 108.608 223.382 108.272C223.574 107.936 223.842 107.672 224.186 107.48C224.53 107.28 224.918 107.18 225.35 107.18C225.782 107.18 226.162 107.288 226.49 107.504C226.826 107.72 227.09 108.004 227.282 108.356C227.474 108.7 227.57 109.068 227.57 109.46V113H226.49ZM222.458 113V107.3H223.538V113H222.458Z" fill="black"/>
</g>
<defs>
<clipPath id="clip0_5671_26449">
<rect width="229" height="118" fill="white"/>
</clipPath>
</defs>
</svg>
