<svg width="68" height="84" viewBox="0 0 68 84" fill="none" xmlns="http://www.w3.org/2000/svg">
<g id="Group">
<g id="Group_2">
<g id="Group_3">
<path id="Vector" d="M0.828125 76.1211V79.1711C0.828125 79.9111 1.26812 80.5911 1.94812 80.8811C5.76812 82.4911 11.6481 83.0511 17.8981 83.0511C24.2181 83.0511 29.3281 82.2911 33.7681 80.6911C34.4881 80.4311 34.9581 79.7311 34.9581 78.9611V76.1311H0.828125V76.1211Z" fill="#305B13"/>
</g>
<g id="Group_4">
<path id="Vector_2" d="M17.8334 0C16.0934 0 13.5234 0.149996 13.5234 0.339996C13.5234 0.529996 16.0934 0.68 17.8334 0.68C19.5734 0.68 22.1434 0.529996 22.1434 0.339996C22.1434 0.149996 19.5834 0 17.8334 0Z" fill="#F72806"/>
</g>
<g id="Group_5">
<path id="Vector_3" d="M17.8825 72.9199C10.9825 72.9199 0.8125 74.3599 0.8125 76.1299C0.8125 77.8999 10.9825 79.3399 17.8825 79.3399C24.7825 79.3399 34.9525 77.8999 34.9525 76.1299C34.9525 74.3499 24.7825 72.9199 17.8825 72.9199Z" fill="#3B6D14"/>
</g>
<g id="Group_6">
<path id="Vector_4" d="M35.7545 44.3686C35.9645 40.9686 33.8745 37.8386 30.6445 36.7386L26.5446 35.3386C24.1646 34.5186 22.5245 32.3186 22.4345 29.8086L21.5245 5.05859C20.5345 5.24859 19.5845 5.39859 17.8445 5.39859C16.1045 5.39859 15.1645 5.24859 14.1745 5.05859L13.2345 29.8186C13.1345 32.3286 11.5146 34.5186 9.13455 35.3386L5.10455 36.7286C1.88455 37.8386 -0.195444 40.9586 0.0145561 44.3586L1.97455 76.1186H1.98453C1.98453 76.1186 1.98453 76.1186 1.98453 76.1286C1.98453 77.5386 11.4546 78.6886 17.8846 78.6886C24.3146 78.6886 33.7845 77.5386 33.7845 76.1286C33.7845 76.1286 33.7845 76.1286 33.7845 76.1186H33.7946L35.7545 44.3686Z" fill="#305B13"/>
</g>
<g id="Group_7">
<path id="Vector_5" d="M17.8334 4.28906C16.0934 4.28906 13.5234 4.43906 13.5234 4.62906C13.5234 4.81906 16.0934 4.96906 17.8334 4.96906C19.5734 4.96906 22.1434 4.81906 22.1434 4.62906C22.1434 4.43906 19.5834 4.28906 17.8334 4.28906Z" fill="#F72806"/>
</g>
<g id="Group_8">
<path id="Vector_6" d="M17.8347 3.03961C16.3047 3.03961 14.0547 2.94961 14.0547 2.84961V4.61961C14.0547 4.72961 16.3047 4.80961 17.8347 4.80961C19.3647 4.80961 21.6147 4.71961 21.6147 4.61961V2.84961C21.6147 2.94961 19.3647 3.03961 17.8347 3.03961Z" fill="#740402"/>
</g>
<g id="Group_9">
<path id="Vector_7" d="M17.8334 4.9611C16.0934 4.9611 13.5234 4.81109 13.5234 4.62109V7.7511C13.5234 7.9411 16.0934 8.09109 17.8334 8.09109C19.5734 8.09109 22.1434 7.9411 22.1434 7.7511V4.62109C22.1534 4.81109 19.5834 4.9611 17.8334 4.9611Z" fill="#020405"/>
</g>
<g id="Group_10">
<path id="Vector_8" d="M17.8334 0.679848C16.0934 0.679848 13.5234 0.529844 13.5234 0.339844V3.46985C13.5234 3.65985 16.0934 3.80984 17.8334 3.80984C19.5734 3.80984 22.1434 3.65985 22.1434 3.46985V0.339844C22.1534 0.529844 19.5834 0.679848 17.8334 0.679848Z" fill="#020405"/>
</g>
<g id="Group_11">
<path id="Vector_9" d="M33.5329 44.3694C33.7929 38.7994 28.7829 37.8394 26.5829 36.7394L23.7929 35.3394C22.1729 34.5194 21.0529 32.6194 20.9829 30.1094L14.7029 30.1194C14.6429 32.6294 13.5329 34.5194 11.9129 35.3394L9.16294 36.7294C6.97294 37.8394 1.93294 38.8294 2.22294 44.3594L3.94294 76.1194H3.95292C3.95292 76.1194 3.95292 76.1194 3.95292 76.1294C3.95292 77.5394 12.2529 78.6894 17.8729 78.6894C23.5029 78.6894 31.7929 77.5394 31.7929 76.1294C31.7929 76.1294 31.7929 76.1294 31.7929 76.1194H31.8029L33.5329 44.3694Z" fill="#376B0F"/>
</g>
<g id="Group_12">
<path id="Vector_10" d="M23.065 32.2404C22.705 31.4904 22.475 30.6704 22.445 29.8004L21.635 7.90039C20.795 8.01039 19.105 8.09039 17.845 8.09039C16.585 8.09039 14.915 8.01039 14.075 7.90039L13.245 29.8204C13.215 30.6804 12.985 31.5004 12.625 32.2404C14.355 32.5404 16.245 32.7204 17.845 32.7204C19.445 32.7204 21.335 32.5404 23.065 32.2404Z" fill="#EF1414"/>
</g>
<g id="Group_13">
<path id="Vector_11" d="M17.8372 30.4095C16.4172 30.4095 14.7772 30.2595 13.2172 30.0195C13.1572 30.8095 12.9472 31.5595 12.6172 32.2395C14.3472 32.5395 16.2372 32.7195 17.8372 32.7195C19.4372 32.7195 21.3372 32.5395 23.0572 32.2395C22.7272 31.5595 22.5172 30.8095 22.4572 30.0195C20.9072 30.2595 19.2572 30.4095 17.8372 30.4095Z" fill="#020405"/>
</g>
<g id="Group_14" opacity="0.2">
<path id="Vector_12" d="M30.6512 36.7395L28.5312 36.0195C25.3612 36.6495 21.8412 36.9595 17.8312 36.9595C13.8512 36.9595 10.0313 36.7295 6.79126 36.1495L5.10126 36.7295C2.11126 37.7595 0.12125 40.5395 0.03125 43.6495C5.41125 44.4195 11.5212 44.7395 17.8312 44.7395C24.4712 44.7395 30.3613 44.2695 35.7213 43.3195C35.5013 40.3395 33.5412 37.7295 30.6512 36.7395Z" fill="#51AA02"/>
</g>
<g id="Group_15" opacity="0.5">
<path id="Vector_13" d="M27.5225 35.6702L26.5525 35.3402C24.9925 34.8002 23.7625 33.6702 23.0625 32.2402C21.3325 32.5402 19.4425 32.7202 17.8425 32.7202C16.2425 32.7202 14.3425 32.5402 12.6225 32.2402C11.9325 33.6702 10.7025 34.8002 9.14249 35.3402L7.98248 35.7402L6.8125 36.1502C10.0525 36.7302 13.8725 36.9602 17.8525 36.9602C21.8625 36.9602 25.3725 36.6502 28.5525 36.0202L27.5225 35.6702Z" fill="#224C01"/>
</g>
<g id="Group_16">
<path id="Vector_14" d="M28.6369 52.0996H6.79688V69.7296H28.6369V52.0996Z" fill="#FFE45C"/>
</g>
<g id="Group_17">
<path id="Vector_15" d="M5.05469 50.3691V71.4691H30.3647V50.3691H5.05469ZM28.6347 69.7291H6.79471V52.0991H28.6347V69.7291Z" fill="#BF0202"/>
</g>
<g id="Group_18" opacity="0.5">
<path id="Vector_16" d="M8.48685 52.0996H6.79688V69.7296H8.48685V52.0996Z" fill="#FFB624"/>
</g>
<g id="Group_19" opacity="0.5">
<path id="Vector_17" d="M11.0025 52.0996H9.3125V69.7296H11.0025V52.0996Z" fill="#FFB624"/>
</g>
<g id="Group_20" opacity="0.5">
<path id="Vector_18" d="M13.5259 52.0996H11.8359V69.7296H13.5259V52.0996Z" fill="#FFB624"/>
</g>
<g id="Group_21" opacity="0.5">
<path id="Vector_19" d="M16.0416 52.0996H14.3516V69.7296H16.0416V52.0996Z" fill="#FFB624"/>
</g>
<g id="Group_22" opacity="0.5">
<path id="Vector_20" d="M18.5572 52.0996H16.8672V69.7296H18.5572V52.0996Z" fill="#FFB624"/>
</g>
<g id="Group_23" opacity="0.5">
<path id="Vector_21" d="M21.0728 52.0996H19.3828V69.7296H21.0728V52.0996Z" fill="#FFB624"/>
</g>
<g id="Group_24" opacity="0.5">
<path id="Vector_22" d="M23.5963 52.0996H21.9062V69.7296H23.5963V52.0996Z" fill="#FFB624"/>
</g>
<g id="Group_25" opacity="0.5">
<path id="Vector_23" d="M26.1119 52.0996H24.4219V69.7296H26.1119V52.0996Z" fill="#FFB624"/>
</g>
<g id="Group_26" opacity="0.5">
<path id="Vector_24" d="M28.6353 52.0996H26.9453V69.7296H28.6353V52.0996Z" fill="#FFB624"/>
</g>
<g id="Group_27">
<g id="Group_28">
<path id="Vector_25" d="M10.875 63.3301C10.905 63.3301 10.915 63.3401 10.915 63.3701L10.925 63.5401C10.905 63.5901 10.865 63.6401 10.865 63.6801H10.885C10.885 63.6801 10.895 63.6801 10.905 63.6801C10.925 63.6801 10.935 63.6901 10.935 63.7201L11.005 64.6501C11.005 64.6801 10.995 64.7001 10.965 64.7001H10.905C10.875 64.7001 10.835 64.6101 10.795 64.5801C10.795 64.6001 10.805 64.6301 10.805 64.6601C10.805 64.6801 10.795 64.7001 10.765 64.7001H10.605C10.575 64.7001 10.565 64.6901 10.565 64.6601V64.3201H10.505C10.465 64.3201 10.465 64.3001 10.455 64.2801C10.425 64.3101 10.455 64.3301 10.415 64.3301L10.215 64.3401L10.235 64.9701C10.235 64.9901 10.165 65.0701 10.135 65.1301H10.165C10.175 65.1301 10.185 65.1301 10.205 65.1301C10.235 65.1301 10.245 65.1401 10.245 65.1701L10.265 65.9701L10.635 65.9001C10.665 65.9001 10.675 65.9101 10.675 65.9401V66.0601C10.675 66.0701 10.595 66.1701 10.565 66.2401C10.585 66.2401 10.605 66.2301 10.635 66.2301C10.665 66.2301 10.675 66.2401 10.675 66.2701L10.665 66.7901C10.665 66.8201 10.655 66.8301 10.625 66.8301L10.175 66.8501C10.145 66.8501 10.135 66.8401 10.135 66.8101V66.7901C10.095 66.8001 10.075 66.8601 10.045 66.8601L9.33499 66.8901C9.30499 66.8901 9.29501 66.8801 9.29501 66.8501L9.30499 66.5201C9.32499 66.4801 9.33499 66.4501 9.33499 66.4201C9.33499 66.3901 9.32499 66.3601 9.30499 66.3301L9.315 65.9601C9.315 65.9301 9.32499 65.9201 9.36499 65.9201L9.79501 65.9501L9.785 65.6901C9.785 65.6201 9.85499 65.6801 9.89499 65.6301C9.89499 65.6201 9.905 65.6201 9.905 65.6201C9.885 65.5701 9.77499 65.5201 9.77499 65.4901L9.73499 64.4401L9.625 64.4101C9.605 64.4101 9.595 64.3901 9.595 64.3701V64.2801L9.58499 64.2901C9.55499 64.3401 9.525 64.3801 9.505 64.3801L9.405 64.3601L9.41501 64.6701C9.41501 64.7001 9.405 64.7101 9.375 64.7101L8.965 64.7301C8.935 64.7301 8.91501 64.7201 8.91501 64.6901L8.88501 63.8701C8.88501 63.8201 8.935 63.8401 9.005 63.7601C8.945 63.7301 8.875 63.7101 8.875 63.6701V63.5001C8.875 63.4701 8.88501 63.4601 8.91501 63.4601L10.875 63.3301Z" fill="#020405"/>
</g>
<g id="Group_29">
<path id="Vector_26" d="M13.0316 63.4489L13.0416 63.4589L13.0515 63.4289C13.0515 63.4189 13.0716 63.4089 13.0916 63.4089L13.6616 63.4189C13.6816 63.4189 13.7015 63.4289 13.7015 63.4489L13.7115 63.5589C13.7115 63.6089 13.6616 63.6489 13.6616 63.6689C13.6616 63.6789 13.6615 63.6889 13.6815 63.7189L13.7015 63.7289C13.7215 63.7689 13.7416 63.8289 13.7516 63.8389L13.8216 64.2889C13.8216 64.2989 13.8115 64.3289 13.8015 64.3289L13.7816 64.3589L13.8015 64.3789C13.8115 64.3889 13.8116 64.3989 13.8116 64.4089V64.6589C13.8116 64.6889 13.8015 64.6989 13.7715 64.6989L13.3416 64.7189C13.3116 64.7189 13.3015 64.7089 13.3015 64.6789V64.3189L13.0416 64.3389C12.9916 64.3389 12.9316 64.2789 12.8816 64.2789H12.8716V64.3189C12.8716 64.3489 12.8615 64.3589 12.8315 64.3589L12.2715 64.4089L12.1916 64.8889L12.7916 64.8489C12.8216 64.8489 12.8315 64.8589 12.8315 64.8989L12.8416 64.8689C12.8416 64.8589 12.8616 64.8489 12.8716 64.8489L13.0116 64.8389C13.0316 64.8389 13.0616 64.8489 13.0616 64.8789L13.0916 65.3189C13.0916 65.3389 13.0715 65.3689 13.0515 65.3689L12.7516 65.3889C12.7316 65.3789 12.7016 65.3789 12.6916 65.3689L12.6815 65.3789C12.6815 65.3889 12.6716 65.3989 12.6516 65.3989L12.1316 65.4289L12.1516 65.9189L12.9716 65.8689C12.9916 65.8889 13.0416 65.9089 13.0716 65.9289V65.9189C13.0716 65.9189 13.0716 65.9089 13.0716 65.8989C13.0716 65.8789 13.0815 65.8589 13.1115 65.8589H13.2916L13.3015 65.5589C13.3015 65.5289 13.3116 65.5189 13.3416 65.5189H13.7616C13.7916 65.5189 13.8015 65.5289 13.8015 65.5689L13.7516 66.3789C13.7316 66.3989 13.7315 66.4189 13.7115 66.4389L13.7216 66.4489C13.7216 66.4489 13.7315 66.4689 13.7315 66.4789L13.7216 66.7589C13.7216 66.7889 13.7115 66.7989 13.6815 66.7989L13.0016 66.8289C12.9916 66.8289 12.9816 66.8189 12.9716 66.8189L12.9315 66.7889L12.9215 66.8189C12.9215 66.8289 12.9016 66.8389 12.8816 66.8389L11.8516 66.8789C11.7916 66.8789 11.7916 66.7789 11.7216 66.7789C11.6216 66.7789 11.5915 66.8989 11.5515 66.8989L11.1516 66.9189C11.1216 66.9189 11.1016 66.9089 11.1016 66.8789L11.1415 66.6589C11.1415 66.6389 11.1615 66.6189 11.1815 66.6189C11.1815 66.6189 11.1915 66.6189 11.2015 66.6189C11.2115 66.6189 11.2216 66.5989 11.2216 66.5689C11.2216 66.5389 11.1715 66.5289 11.1715 66.4989L11.2715 65.8889C11.2715 65.8689 11.2916 65.8589 11.3116 65.8589L11.4315 65.8689C11.4715 65.8689 11.4715 65.9289 11.5215 65.9289C11.5515 65.9289 11.5516 65.8889 11.5916 65.8889L11.6815 65.8989V65.7789C11.6815 65.7689 11.6915 65.7489 11.7015 65.7389L11.7115 65.7289C11.6915 65.7089 11.6715 65.7189 11.6715 65.6889L11.6815 65.3889L11.5016 65.3389C11.4816 65.3389 11.4716 65.3189 11.4716 65.2989L11.4615 64.8989C11.4615 64.8689 11.4716 64.8589 11.5016 64.8589H11.6715V64.6689C11.6715 64.6589 11.6815 64.6289 11.7015 64.6289C11.6815 64.6289 11.6715 64.6189 11.6715 64.5789V64.3289H11.6115C11.5415 64.3289 11.5815 64.2489 11.5215 64.2489C11.5015 64.2489 11.4915 64.2589 11.4915 64.2689C11.4715 64.3189 11.4816 64.3289 11.4416 64.3289H11.3216C11.2916 64.3289 11.2816 64.3189 11.2816 64.2889V63.9489C11.3016 63.9189 11.3116 63.8889 11.3116 63.8589C11.3116 63.8289 11.3016 63.7989 11.2816 63.7689V63.4189C11.2816 63.3889 11.2916 63.3789 11.3216 63.3789L11.8416 63.3989C11.8816 63.4189 11.9315 63.4489 11.9515 63.4889H11.9716C11.9916 63.4889 12.0215 63.4689 12.0515 63.4489L12.0616 63.4389C12.0616 63.4189 12.0815 63.3989 12.1115 63.3989L12.8915 63.4289C12.9015 63.4289 12.9115 63.4389 12.9315 63.4489H12.9416C12.9816 63.4389 13.0116 63.4489 13.0316 63.4489Z" fill="#020405"/>
</g>
<g id="Group_30">
<path id="Vector_27" d="M16.6325 65.3789C16.6325 65.3989 16.6125 65.4189 16.5925 65.4189C16.5825 65.4189 16.5825 65.4189 16.5725 65.4189C16.6025 65.4489 16.6225 65.4689 16.6225 65.4789C16.6125 65.5689 16.5825 65.7889 16.5125 65.7889C16.4825 65.7889 16.4725 65.7789 16.4425 65.7789C16.4725 65.8089 16.5125 65.8389 16.5125 65.8589V65.8789C16.4425 66.0389 16.2125 66.3889 16.2125 66.4189C16.2825 66.4789 16.3625 66.4989 16.4525 66.4989C16.4725 66.4989 16.5125 66.4989 16.5425 66.4889L16.6525 66.4689C16.6925 66.4689 16.6925 66.5189 16.7125 66.5489C16.7225 66.5289 16.7225 66.4889 16.7425 66.4589L16.7625 66.4289C16.8625 66.4089 16.8825 66.3189 16.9125 66.3189C16.9325 66.3189 16.9625 66.3389 16.9625 66.3589L16.9325 66.9289L16.7825 67.0889C16.8325 67.0789 16.8725 67.0689 16.8925 67.0689C16.9125 67.0689 16.9225 67.0889 16.9225 67.1189V67.1889C16.9225 67.2389 16.8325 67.2389 16.7725 67.2389C16.7825 67.2389 16.2525 67.2189 16.2525 67.0989L16.2625 67.0389C16.2425 67.0589 16.2025 67.0989 16.1925 67.0989C16.1925 67.0989 16.1825 67.0989 16.1725 67.0989C15.9825 67.0189 15.8925 66.9489 15.7625 66.7889C15.6625 66.8289 15.5625 66.8589 15.4625 66.8589C15.4525 66.8589 15.4425 66.8589 15.4225 66.8389L15.3825 66.7889V66.8089C15.3825 66.8389 15.3725 66.8489 15.3425 66.8489H15.3225C15.1425 66.8489 14.9825 66.8089 14.8425 66.7289C14.7425 66.6889 14.7625 66.6389 14.7325 66.5989L14.7225 66.6089C14.7125 66.6189 14.7025 66.6189 14.6925 66.6189C14.6925 66.6189 14.6825 66.6189 14.6725 66.6089C14.3825 66.3789 14.0625 65.8389 14.0625 65.2589C14.0625 65.2189 14.0625 65.1589 14.0625 65.1089V64.8989C14.0625 64.8789 14.0725 64.8689 14.0825 64.8589H14.1025C14.1325 64.8489 14.1625 64.8389 14.1925 64.8189C14.1425 64.7989 14.0725 64.7589 14.0725 64.7089C14.1425 64.3389 14.4325 63.7489 14.5725 63.7489C14.5925 63.7489 14.6125 63.7589 14.6425 63.7589C14.6725 63.7589 14.7025 63.7389 14.7225 63.6889V63.6489C14.7225 63.6289 14.7325 63.6189 14.7425 63.6089L14.7725 63.5889L14.8325 63.5489C14.9925 63.4589 15.1625 63.4089 15.3225 63.3789H15.3725C15.5825 63.3789 16.0025 63.5389 16.0025 63.6289C16.0025 63.6489 15.9725 63.6889 15.9625 63.7189L16.0225 63.6689C16.0225 63.6589 16.0325 63.6589 16.0425 63.6589C16.0525 63.6589 16.0625 63.6589 16.0725 63.6689C16.2625 63.8489 16.4625 64.1189 16.5525 64.4189V64.4389C16.5525 64.4389 16.5525 64.4489 16.5525 64.4589C16.5525 64.4789 16.5225 64.4989 16.5225 64.5489C16.5225 64.6089 16.5525 64.6589 16.5925 64.6789C16.6425 64.7089 16.6425 64.9789 16.6425 65.0989C16.6425 65.1689 16.6525 65.3189 16.5925 65.3189C16.6125 65.3189 16.6325 65.3389 16.6325 65.3589V65.3789ZM14.8625 65.7789C14.8625 65.7889 14.8625 65.7889 14.8625 65.7989C14.8725 65.7889 14.8825 65.7889 14.8925 65.7889C14.9025 65.7889 14.9025 65.7889 14.9125 65.7989C15.0425 65.8689 15.1625 65.9089 15.3025 65.9189C15.2525 65.7789 15.2025 65.5389 15.2025 65.3389V65.2889C15.2025 65.2489 15.2025 65.2089 15.2525 65.2089H15.4725C15.5225 65.2089 15.5525 65.3589 15.5525 65.4389C15.5525 65.4589 15.5025 65.5089 15.4925 65.5589C15.5025 65.5589 15.5425 65.5289 15.5625 65.5289C15.5725 65.5289 15.5925 65.5389 15.5925 65.5589V65.5489C15.6025 65.5489 15.6525 65.7189 15.7225 65.8089L15.7725 65.7789C15.7825 65.7789 15.7925 65.7689 15.8025 65.7689C15.8425 65.7689 15.8525 65.8289 15.8825 65.8789C15.8725 65.8489 15.8725 65.8189 15.8525 65.7889L15.8425 65.7489V65.7389C15.8425 65.7289 15.8425 65.7189 15.8525 65.7089L15.8825 65.6689C16.0225 65.5289 16.1025 65.3189 16.1225 65.0889C16.1025 64.6789 15.7625 64.2689 15.3625 64.2689H15.3225C15.2125 64.2689 15.1025 64.2889 15.0025 64.3389L14.9725 64.3489C14.8925 64.3489 14.8225 64.3689 14.7625 64.4089L14.7725 64.4689C14.7725 64.4789 14.7725 64.4889 14.7625 64.4989L14.7525 64.5189C14.6825 64.5789 14.6325 64.6689 14.5925 64.7789L14.5525 64.8789L14.5125 64.9389H14.5225C14.5325 64.9489 14.5425 64.9589 14.5425 64.9689C14.5425 64.9889 14.5425 64.9989 14.5425 65.0189V65.1389C14.5425 65.3789 14.6825 65.6889 14.8525 65.7389C14.8525 65.7489 14.8625 65.7589 14.8625 65.7789ZM16.5425 65.3889L16.5325 65.3789C16.5325 65.3689 16.5325 65.3689 16.5325 65.3589C16.5325 65.3389 16.5425 65.3289 16.5625 65.3189H16.4825L16.5425 65.3889Z" fill="#020405"/>
</g>
<g id="Group_31">
<path id="Vector_28" d="M18.8828 64.3189L18.6928 64.2989C18.6728 64.2989 18.6528 64.2789 18.6528 64.2589V63.9789C18.6628 63.9389 18.7628 63.8589 18.7628 63.7989C18.7628 63.7889 18.7528 63.7689 18.7328 63.7489H18.7428C18.7028 63.7189 18.6528 63.7489 18.6528 63.6889V63.4489C18.6528 63.4189 18.6628 63.4089 18.6928 63.4089L19.8128 63.3789C19.8428 63.3789 19.8528 63.3889 19.8528 63.4189V63.5689C19.8528 63.5689 19.8428 63.5889 19.8428 63.6089C19.8228 63.6589 19.8128 63.7089 19.8128 63.7389C19.8128 63.7889 19.8628 63.8089 19.8628 63.8389L19.8728 64.2189C19.8728 64.2389 19.8628 64.2589 19.8328 64.2589L19.4328 64.3089L19.4428 64.8289C19.4128 64.8689 19.4028 64.9089 19.4028 64.9489C19.4028 64.9989 19.4228 65.0489 19.4528 65.0989L19.4728 65.7489C19.4728 65.9089 19.4328 66.2789 19.3528 66.2789C19.3428 66.2789 19.3328 66.2689 19.3228 66.2689L19.2628 66.2089V66.2289C19.2628 66.2889 19.3128 66.3489 19.3128 66.4089C19.3128 66.4089 19.3128 66.4189 19.3028 66.4189C19.1328 66.6489 18.8328 66.7989 18.4228 66.7989C18.3128 66.7989 18.0428 66.7789 18.0428 66.7089L18.0628 66.6289H18.0428C18.0128 66.6289 17.9628 66.6789 17.9428 66.6789C17.9328 66.6789 17.9228 66.6789 17.9128 66.6689C17.6428 66.4989 17.5028 66.1689 17.5028 65.6789L17.5828 64.9389C17.5828 64.9289 17.5828 64.9189 17.6028 64.9089L17.6428 64.8889H17.6328C17.6128 64.8889 17.5928 64.8789 17.5928 64.8489L17.6428 64.4189L17.1728 64.3489C17.1528 64.3389 17.1428 64.3289 17.1428 64.3089L17.1328 63.6889C17.1328 63.6589 17.1928 63.6289 17.2228 63.6289L17.2128 63.6189C17.1928 63.5989 17.1328 63.5789 17.1328 63.5389V63.4489C17.1328 63.4189 17.1428 63.4089 17.1728 63.4089L18.3028 63.4389C18.3328 63.4389 18.3428 63.4489 18.3428 63.4889L18.3328 63.6289C18.3328 63.6389 18.3228 63.6489 18.3128 63.6589L18.2428 63.7389C18.2728 63.7589 18.3328 63.7289 18.3228 63.7889L18.2928 64.3589C18.2928 64.3889 18.2828 64.3989 18.2528 64.3989L18.0428 64.3589L18.0328 65.4689C17.9928 65.5089 17.9628 65.5589 17.9328 65.5989L17.9928 65.5889C18.0128 65.5889 18.0328 65.5989 18.0328 65.6189C18.0728 65.7989 18.2228 65.8889 18.4628 65.8889H18.5028C18.5128 65.8889 18.5328 65.8889 18.5528 65.8889C18.5728 65.8889 18.5928 65.8889 18.6028 65.8889C18.6128 65.8889 18.6228 65.8989 18.6428 65.9089L18.6528 65.9589H18.6628C18.6928 65.8989 18.6828 65.8989 18.7128 65.8689C18.8628 65.8389 18.9528 65.7489 18.9528 65.5889L18.9128 64.7289C18.9628 64.6689 18.9928 64.6189 19.0028 64.5589C18.9928 64.5689 18.9628 64.5889 18.9428 64.5889C18.9228 64.5889 18.9028 64.5689 18.9028 64.5489L18.8828 64.3189Z" fill="#020405"/>
</g>
<g id="Group_32">
<path id="Vector_29" d="M20.2147 65.8789C20.2347 65.8989 20.2747 65.9289 20.3047 65.9489C20.2947 65.9489 20.2947 65.9389 20.2947 65.9189C20.2947 65.8889 20.3047 65.8789 20.3347 65.8789L20.4947 65.8689L20.4847 64.9189C20.5247 64.8789 20.5547 64.8289 20.5747 64.7889C20.5547 64.7889 20.5347 64.7989 20.5147 64.7989C20.4847 64.7989 20.4747 64.7789 20.4747 64.7589L20.4647 64.3189H20.1447C20.1147 64.3189 20.1047 64.3089 20.1047 64.2789V63.9289C20.1047 63.9089 20.1847 63.8389 20.2047 63.7889C20.1647 63.7589 20.1047 63.7589 20.1047 63.7189V63.4189C20.1047 63.3889 20.1147 63.3789 20.1547 63.3789L21.3347 63.4389C21.3547 63.4389 21.3747 63.4489 21.3747 63.4789L21.3847 63.6389C21.3847 63.6689 21.3147 63.7389 21.3047 63.7589C21.3147 63.7589 21.3347 63.7589 21.3647 63.7589C21.3847 63.7589 21.3947 63.7689 21.4047 63.7989L21.4547 64.3389C21.4547 64.3689 21.4447 64.3789 21.4147 64.3789L21.2147 64.3589C21.1747 64.3589 21.1547 64.2789 21.1247 64.2389V64.2989C21.1247 64.3289 21.1147 64.3389 21.0847 64.3389H21.0147V65.9289H21.0747C21.0947 65.9289 21.1147 65.9389 21.1147 65.9789C21.1147 66.0189 21.1047 66.0589 21.1047 66.0889C21.1447 66.0389 21.1947 65.9389 21.2247 65.9389L21.3847 65.9489C21.4047 65.9489 21.4247 65.9589 21.4247 65.9889L21.4047 66.8089C21.4047 66.8389 21.3947 66.8489 21.3647 66.8489L20.2447 66.9489C20.2247 66.9489 20.2047 66.9389 20.1947 66.9089L20.1647 66.7189C20.1647 66.6789 20.2247 66.6089 20.2247 66.5689C20.2247 66.5689 20.1847 66.5689 20.1647 66.5689C20.1447 66.5689 20.1347 66.5589 20.1347 66.5289L20.0547 65.9789C20.0547 65.9489 20.0747 65.9289 20.0947 65.9289L20.2147 65.8789Z" fill="#020405"/>
</g>
<g id="Group_33">
<path id="Vector_30" d="M22.1537 63.3698C22.2037 63.3798 22.2137 63.4298 22.3037 63.4298C22.3437 63.4298 22.3837 63.4199 22.4337 63.3799L22.9138 63.3998C22.9338 63.3998 22.9537 63.4098 22.9537 63.4398L22.9837 63.7798C22.9837 63.7898 22.9837 63.7998 22.9637 63.8198L22.8538 63.9198H22.9438C22.9538 63.9198 22.9537 63.9198 22.9537 63.9198C22.9737 63.9198 22.9837 63.9398 22.9837 63.9598L23.0138 64.2898C23.0138 64.3198 23.0038 64.3298 22.9738 64.3298L22.7337 64.2999L22.6837 64.2498C22.6837 64.2798 22.6737 64.2898 22.6437 64.2898H22.5938L22.5837 65.0098C22.5837 65.0298 22.5638 65.0499 22.5438 65.0499C22.5338 65.0499 22.4937 65.0399 22.4837 65.0199C22.5037 65.0699 22.5338 65.1198 22.5738 65.1698L22.5638 65.8698L22.8838 65.8898C22.9038 65.8898 22.9237 65.8998 22.9237 65.9198C22.9237 65.9198 22.9137 65.9798 22.9037 65.9798H22.9138L22.9937 65.8998C22.9937 65.8898 23.0037 65.8898 23.0237 65.8898L23.1938 65.8998L23.2037 65.5598C23.2037 65.5298 23.2138 65.5199 23.2538 65.5199L23.6737 65.5398C23.7037 65.5398 23.7137 65.5498 23.7137 65.5798L23.6938 65.9398L23.5738 66.0998C23.5638 66.1098 23.5537 66.1198 23.5537 66.1398C23.5737 66.1298 23.6137 66.0798 23.6437 66.0798C23.6637 66.0798 23.6837 66.0999 23.6837 66.1299L23.6638 66.8198C23.6638 66.8498 23.6537 66.8598 23.6137 66.8598L23.3838 66.8498C23.3338 66.8098 23.2937 66.7798 23.2437 66.7598C23.2437 66.7598 23.2538 66.7799 23.2538 66.7999C23.2538 66.8199 23.2337 66.8398 23.2037 66.8398L22.6437 66.8098C22.6237 66.8098 22.6038 66.7899 22.6038 66.7699V66.7598C22.5738 66.7598 22.5438 66.7798 22.5138 66.8098L21.6338 66.7598C21.6138 66.7598 21.5938 66.7498 21.5938 66.7198V66.4998C21.6337 66.4598 21.6638 66.4098 21.6638 66.3698C21.6638 66.3398 21.6637 66.3198 21.6437 66.3098L21.6038 66.2798C21.6038 66.2698 21.5938 66.2598 21.5938 66.2498V65.9198C21.5938 65.8898 21.6038 65.8799 21.6338 65.8799L21.7938 65.8698C21.8238 65.8698 21.8637 65.9198 21.8737 65.9598V65.9099C21.8737 65.8899 21.8838 65.8598 21.9138 65.8598L22.0438 65.8498L22.0338 65.1599C22.0338 65.1199 22.0637 65.1298 22.0837 65.0998L22.0938 65.0898C22.0838 65.0498 22.0338 65.0198 22.0338 64.9798L22.0237 64.2898C22.0037 64.2898 21.9937 64.2798 21.9837 64.2598C21.9637 64.2698 21.9437 64.2798 21.9337 64.2898H21.6938C21.6638 64.2898 21.6537 64.2798 21.6537 64.2498V63.6299C21.6537 63.6099 21.6637 63.5998 21.6837 63.5898L21.7437 63.5499C21.7137 63.5399 21.6638 63.5198 21.6638 63.4898V63.3799C21.6638 63.3499 21.6737 63.3398 21.7137 63.3398L22.1537 63.3698Z" fill="#020405"/>
</g>
<g id="Group_34">
<path id="Vector_31" d="M25.7981 64.7811C25.7981 64.8111 25.7781 64.8311 25.7581 64.8311V64.8411C25.7581 64.9411 25.8481 65.0011 25.8481 65.0211L26.0381 65.8711L26.2181 65.8811C26.2481 65.8811 26.2581 65.8911 26.2581 65.9111C26.2581 65.9911 26.2381 66.0711 26.2381 66.1411C26.2981 66.0711 26.4281 65.8911 26.4781 65.8911H26.5581C26.5781 65.8911 26.5981 65.9011 26.5981 65.9311L26.5881 66.2011C26.5681 66.2511 26.5581 66.2811 26.5581 66.3111C26.5581 66.3311 26.5681 66.3611 26.5681 66.3911L26.5581 66.7911C26.5581 66.8211 26.5481 66.8311 26.5081 66.8311L25.8081 66.7811C25.7681 66.7611 25.7381 66.7511 25.7081 66.7511C25.6881 66.7511 25.6581 66.7611 25.6381 66.7711L25.3781 66.7511C25.3581 66.7511 25.3381 66.7411 25.3381 66.7111L25.3581 66.3211C25.3581 66.2911 25.4281 66.2611 25.4281 66.2011C25.4281 66.1511 25.3681 66.1311 25.3681 66.0811V65.9211C25.3681 65.9011 25.3781 65.8811 25.4081 65.8811H25.6281L25.5681 65.6411L24.7881 65.6011L24.7281 65.8511H24.9781C25.0081 65.8511 25.0181 65.8611 25.0181 65.9011L24.9781 66.7111C24.9781 66.7311 24.9681 66.7511 24.9381 66.7511L24.4681 66.7711C24.4381 66.7611 24.4081 66.7511 24.3781 66.7511C24.3381 66.7511 24.3081 66.7611 24.2581 66.7811L23.8781 66.8011C23.8481 66.8011 23.8281 66.7911 23.8281 66.7511L23.8581 66.3311C23.8981 66.2911 23.9281 66.2511 23.9281 66.2111C23.9281 66.1711 23.9181 66.1411 23.8881 66.1011L23.9081 65.8511C23.9081 65.8211 23.9281 65.8111 23.9481 65.8111L24.2881 65.8711L24.3481 65.6511L24.2181 65.6311C24.1981 65.6211 24.1781 65.6111 24.1781 65.5911L24.1881 65.1311C24.1881 65.1111 24.2081 65.0911 24.2281 65.0911L24.4781 65.1111L24.6481 64.5411C24.6481 64.5411 24.6581 64.5311 24.6781 64.5311L24.6581 64.4911L24.7181 64.3111L24.3481 64.2511C24.3281 64.2411 24.3081 64.2411 24.3081 64.2111V63.9011C24.3381 63.8611 24.3581 63.8111 24.3581 63.7611C24.3581 63.6811 24.2981 63.6311 24.2981 63.6011V63.4111C24.2981 63.3811 24.3081 63.3711 24.3381 63.3711L25.4781 63.4211C25.4981 63.4211 25.5181 63.4311 25.5181 63.4511L25.5881 63.7911C25.5881 63.8311 25.4181 64.0111 25.3681 64.0811C25.4281 64.0611 25.5581 63.9811 25.6081 63.9811C25.6281 63.9811 25.6381 63.9911 25.6481 64.0211L25.7981 64.7811ZM24.9181 65.1511L25.4481 65.1411L25.1881 64.3311H25.1481L25.0881 64.5511C25.0781 64.6111 24.9781 64.6111 24.9781 64.7111C24.9781 64.7311 24.9881 64.7611 24.9981 64.8011V64.8211L24.9181 65.1511Z" fill="#020405"/>
</g>
</g>
<g id="Group_35">
<g id="Group_36">
<path id="Vector_32" d="M17.8756 56.4108C17.9356 56.4108 17.9856 56.3608 17.9856 56.3008V56.1608C17.9856 56.1008 17.9356 56.0508 17.8756 56.0508C17.8156 56.0508 17.7656 56.1008 17.7656 56.1608V56.3008C17.7756 56.3608 17.8156 56.4108 17.8756 56.4108Z" fill="#214902"/>
</g>
<g id="Group_37">
<path id="Vector_33" d="M19.524 57.36C19.584 57.36 19.6341 57.31 19.6341 57.25V57.11C19.6341 57.05 19.584 57 19.524 57C19.464 57 19.4141 57.05 19.4141 57.11V57.25C19.4141 57.32 19.464 57.36 19.524 57.36Z" fill="#214902"/>
</g>
<g id="Group_38">
<path id="Vector_34" d="M19.8469 57.3109C19.7869 57.3109 19.7368 57.3609 19.7368 57.4209V57.4608C19.6768 57.4008 19.5869 57.3609 19.4969 57.3609C19.4169 57.3609 19.3369 57.3909 19.2769 57.4409V57.4209C19.2769 57.3609 19.2269 57.3109 19.1669 57.3109C19.1069 57.3109 19.0569 57.3609 19.0569 57.4209V57.5609C19.0569 57.6109 19.0969 57.6509 19.1469 57.6609C19.1469 57.6809 19.1369 57.7009 19.1369 57.7209V59.0309C19.1369 59.2609 18.9469 59.4409 18.7269 59.4409H18.5969V59.0609C18.6569 59.0609 18.7068 59.0109 18.7068 58.9509V58.8109C18.7068 58.7509 18.6569 58.7009 18.5969 58.7009V58.3409C18.6569 58.3409 18.7068 58.2909 18.7068 58.2309V58.0909C18.7068 58.0309 18.6569 57.9809 18.5969 57.9809V57.6008C18.6569 57.6008 18.7068 57.5508 18.7068 57.4908V57.3508C18.7068 57.2908 18.6569 57.2408 18.5969 57.2408V57.1008C18.5969 57.0108 18.5769 56.9309 18.5469 56.8609V56.8508C18.6069 56.8508 18.6569 56.8008 18.6569 56.7408V56.6008C18.6569 56.5408 18.6069 56.4908 18.5469 56.4908C18.4869 56.4908 18.4369 56.5408 18.4369 56.6008V56.6709C18.4269 56.6609 18.4169 56.6409 18.4069 56.6309C18.3869 56.6109 18.3769 56.5909 18.3569 56.5809C18.3169 56.5509 18.2869 56.5208 18.2469 56.4908C18.3069 56.4908 18.3569 56.4409 18.3569 56.3809V56.2408C18.3569 56.1808 18.3069 56.1309 18.2469 56.1309C18.1869 56.1309 18.1369 56.1808 18.1369 56.2408V56.3809C18.1369 56.4109 18.1469 56.4309 18.1669 56.4509C18.1569 56.4509 18.1469 56.4509 18.1269 56.4409C18.0569 56.4109 17.9769 56.3909 17.8869 56.3909C17.8069 56.3909 17.7269 56.4109 17.6469 56.4409C17.6369 56.4409 17.6269 56.4409 17.6069 56.4509C17.6169 56.4309 17.6369 56.4109 17.6369 56.3809V56.2408C17.6369 56.1808 17.5869 56.1309 17.5269 56.1309C17.4669 56.1309 17.4169 56.1808 17.4169 56.2408V56.3809C17.4169 56.4409 17.4669 56.4908 17.5269 56.4908V56.5009C17.4569 56.5409 17.3969 56.5909 17.3369 56.6609V56.6008C17.3369 56.5408 17.2869 56.4908 17.2269 56.4908C17.1669 56.4908 17.1169 56.5408 17.1169 56.6008V56.7408C17.1169 56.8008 17.1669 56.8408 17.2169 56.8508C17.1869 56.9308 17.1669 57.0209 17.1669 57.1109V57.2509C17.1069 57.2509 17.0569 57.3009 17.0569 57.3609V57.5009C17.0569 57.5609 17.1069 57.6109 17.1669 57.6109V57.9608C17.1069 57.9608 17.0569 58.0108 17.0569 58.0708V58.2108C17.0569 58.2708 17.1069 58.3208 17.1669 58.3208V58.7408C17.1069 58.7408 17.0569 58.7908 17.0569 58.8508V58.9908C17.0569 59.0508 17.1069 59.1008 17.1669 59.1008V61.1808H17.0369C16.8669 61.1808 16.7169 61.0808 16.6569 60.9308C16.6369 60.8808 16.6269 60.8309 16.6269 60.7709V59.1709C16.6869 59.1709 16.7368 59.1209 16.7368 59.0609V58.9209C16.7368 58.8609 16.6869 58.8109 16.6269 58.8109V58.3208C16.6269 58.2908 16.6169 58.2609 16.6069 58.2309C16.6669 58.2309 16.7068 58.1808 16.7068 58.1208V57.9809C16.7068 57.9209 16.6569 57.8708 16.5969 57.8708C16.5369 57.8708 16.4868 57.9209 16.4868 57.9809V58.0408C16.4268 57.9908 16.3569 57.9608 16.2669 57.9608C16.2569 57.9608 16.2468 57.9609 16.2368 57.9709C16.2968 57.9709 16.3469 57.9209 16.3469 57.8609V57.7209C16.3469 57.6609 16.2968 57.6109 16.2368 57.6109C16.1768 57.6109 16.1269 57.6609 16.1269 57.7209V57.8609C16.1269 57.9209 16.1768 57.9709 16.2368 57.9709C16.1568 57.9809 16.0769 58.0109 16.0169 58.0609V58.0309C16.0169 57.9709 15.9669 57.9209 15.9069 57.9209C15.8469 57.9209 15.7969 57.9709 15.7969 58.0309V58.1709C15.7969 58.2309 15.8469 58.2809 15.9069 58.2809H15.9169C15.9169 58.2909 15.9069 58.3108 15.9069 58.3208V58.8409C15.8469 58.8409 15.7969 58.8909 15.7969 58.9509V59.0909C15.7969 59.1509 15.8469 59.2009 15.9069 59.2009V60.7709C15.9069 61.3909 16.4069 61.8909 17.0269 61.8909H17.1569V62.2309C16.7269 62.3009 16.3569 62.4208 16.1669 62.6208C16.0469 62.7408 19.6769 62.7408 19.5569 62.6208C19.3669 62.4308 18.9969 62.3009 18.5769 62.2309V60.1709H18.7068C19.3268 60.1709 19.8269 59.6709 19.8269 59.0509V57.7408C19.8269 57.7208 19.8169 57.7008 19.8169 57.6808H19.8269C19.8869 57.6808 19.9369 57.6308 19.9369 57.5708V57.4308C19.9569 57.3608 19.9069 57.3109 19.8469 57.3109Z" fill="#214902"/>
</g>
</g>
<g id="Group_39">
<path id="Vector_35" d="M17.7762 53.3594L18.0363 53.9094L18.6363 53.9894L18.2062 54.4094L18.3062 55.0094L17.7762 54.7294L17.2362 55.0094L17.3362 54.4094L16.9062 53.9894L17.5063 53.9094L17.7762 53.3594Z" fill="#BF0202"/>
</g>
<g id="Group_40">
<path id="Vector_36" d="M11.8309 55.7109L12.0909 56.2509L12.6909 56.3409L12.261 56.7609L12.3609 57.3509L11.8309 57.0709L11.291 57.3509L11.3909 56.7609L10.9609 56.3409L11.5609 56.2509L11.8309 55.7109Z" fill="#BF0202"/>
</g>
<g id="Group_41">
<path id="Vector_37" d="M9.70593 60.4004L9.97595 60.9404L10.576 61.0304L10.136 61.4504L10.2359 62.0404L9.70593 61.7604L9.16595 62.0404L9.27594 61.4504L8.83594 61.0304L9.43594 60.9404L9.70593 60.4004Z" fill="#BF0202"/>
</g>
<g id="Group_42">
<path id="Vector_38" d="M25.7137 60.7109L25.9738 61.2509L26.5738 61.3409L26.1437 61.7609L26.2437 62.3609L25.7137 62.0809L25.1737 62.3609L25.2737 61.7609L24.8438 61.3409L25.4438 61.2509L25.7137 60.7109Z" fill="#BF0202"/>
</g>
<g id="Group_43" opacity="0.4">
<g id="Group_44">
<path id="Vector_39" d="M21.4381 3.73074C21.3781 3.67074 21.2781 3.67074 21.1981 3.68074C18.9081 3.85074 16.6181 3.85074 14.3281 3.70074C14.3681 3.76074 14.4181 3.82073 14.4581 3.87073C15.5181 4.26073 16.6581 4.30074 17.7881 4.34074C18.6881 4.37074 19.5981 4.40074 20.4981 4.43074C20.7181 4.44074 20.9481 4.44074 21.1581 4.36074C21.3581 4.27074 21.5281 4.06074 21.4981 3.84074C21.4881 3.81074 21.4681 3.76074 21.4381 3.73074Z" fill="#020405"/>
</g>
</g>
<g id="Group_45">
<path id="Vector_40" d="M23.5966 55.7109L23.8665 56.2509L24.4666 56.3409L24.0266 56.7609L24.1266 57.3509L23.5966 57.0709L23.0565 57.3509L23.1666 56.7609L22.7266 56.3409L23.3266 56.2509L23.5966 55.7109Z" fill="#BF0202"/>
</g>
<g id="Group_46" opacity="0.15">
<g id="Group_47">
<path id="Vector_41" d="M13.8431 0.881561L13.8531 0.871559C13.8531 0.861559 13.8531 0.851562 13.8431 0.851562C13.8231 0.851563 13.8231 0.891561 13.8431 0.881561Z" fill="white"/>
</g>
<g id="Group_48">
<path id="Vector_42" d="M15.6616 3.28078C15.7716 3.28078 15.8916 3.26078 15.9416 3.16078C15.9716 3.10078 15.9616 3.03078 15.9416 2.96078C15.8616 2.73078 15.6516 2.57078 15.5916 2.33078C15.5416 2.14078 15.5915 1.94078 15.6815 1.77078C15.7715 1.60078 15.9016 1.45078 16.0016 1.28078C16.0416 1.21078 16.0816 1.11078 16.0316 1.06078C16.0016 1.03078 15.9615 1.02078 15.9315 1.02078C15.7315 0.990782 15.5216 1.02078 15.3116 1.03078C14.8516 1.05078 14.3815 0.980781 13.9515 0.800781L13.8516 0.870781C13.8616 0.880781 13.8615 0.89078 13.8615 0.90078C13.8815 1.53078 13.8916 2.16079 13.8816 2.79079C13.8816 2.87079 13.8816 2.96078 13.9116 3.03078C13.9916 3.19078 14.1916 3.23079 14.3716 3.25079C14.8016 3.29079 15.2316 3.30078 15.6616 3.28078Z" fill="white"/>
</g>
<g id="Group_49">
<path id="Vector_43" d="M16.2719 5.24985C15.4919 5.26985 14.7019 5.21984 13.9319 5.08984L13.9219 5.21985C13.9319 5.72985 13.9519 6.24984 13.9619 6.75984C13.9619 6.89984 13.9719 7.05985 14.0719 7.16985C14.1519 7.25985 14.2619 7.28985 14.3719 7.31985C14.9019 7.45985 15.4519 7.49984 15.9919 7.43984C15.8619 7.30984 15.7319 7.16985 15.6019 7.03985C15.5219 6.95985 15.4419 6.87984 15.4119 6.76984C15.3719 6.60984 15.4519 6.43984 15.5419 6.29984C15.7519 5.98984 16.0319 5.72985 16.3519 5.53985C16.4219 5.49985 16.5119 5.42985 16.5019 5.34985C16.4819 5.26985 16.3619 5.24985 16.2719 5.24985Z" fill="white"/>
</g>
</g>
<g id="Group_50" opacity="0.1">
<g id="Group_51">
<path id="Vector_44" d="M18.9053 2.93992C18.6653 3.06992 18.4253 3.19992 18.1953 3.32992C19.2353 3.31992 20.2753 3.31992 21.3253 3.30992C21.5153 3.30992 21.7453 3.28992 21.8353 3.11992C21.8953 2.99992 21.8553 2.84992 21.8253 2.70992C21.6553 2.08992 21.6253 1.42992 21.7253 0.799919L21.7653 0.669922C20.7553 1.16992 19.5653 1.05992 18.4353 1.14992C18.3853 1.14992 18.3253 1.16992 18.3153 1.21992C18.3053 1.24992 18.3253 1.27992 18.3453 1.30992C18.5053 1.49992 18.7753 1.57992 19.0053 1.67992C19.2353 1.77992 19.4853 1.94992 19.5153 2.19992C19.5453 2.52992 19.2053 2.77992 18.9053 2.93992Z" fill="white"/>
</g>
<g id="Group_52">
<path id="Vector_45" d="M21.8536 4.98047C21.1936 5.18047 20.5036 5.27047 19.8136 5.25047C19.7136 5.25047 19.5836 5.26047 19.5536 5.36047C19.5236 5.45047 19.6036 5.53047 19.6536 5.61047C19.8236 5.89047 19.6236 6.25047 19.3936 6.49047C19.0336 6.85047 18.5936 7.13047 18.1236 7.30047C18.0536 7.33047 17.9636 7.36047 17.9536 7.44047C17.9436 7.55047 18.1036 7.60047 18.2136 7.59047C19.2836 7.56047 20.3636 7.52047 21.4336 7.49047C21.5136 7.49047 21.6036 7.48047 21.6736 7.44047C21.8336 7.35047 21.8436 7.13047 21.8336 6.95047C21.8136 6.33047 21.7936 5.70047 21.7736 5.08047L21.8536 4.98047Z" fill="white"/>
</g>
</g>
<g id="Group_53" opacity="0.2">
<g id="Group_54">
<path id="Vector_46" d="M16.1909 9.30034C16.0309 8.78034 15.4409 8.55035 14.9209 8.38035C14.8509 8.36035 14.7709 8.33035 14.7009 8.36035C14.6309 8.39035 14.5909 8.49035 14.6509 8.54035C14.6509 8.54035 14.3309 20.9603 13.9909 27.2303C13.9609 27.7803 13.9309 28.3403 14.1209 28.8503C14.3009 29.3603 14.7609 29.8204 15.3109 29.8304C15.4109 29.8304 15.5109 29.8204 15.5909 29.7704C15.8309 29.6404 15.8609 29.3103 15.8609 29.0303C15.8509 22.6703 15.6009 16.3003 16.2309 9.98034C16.2309 9.76034 16.2509 9.52034 16.1909 9.30034Z" fill="white"/>
</g>
</g>
<g id="Group_55" opacity="0.5">
<g id="Group_56">
<path id="Vector_47" d="M15.2438 9.40915C15.2338 9.25915 15.2238 9.08916 15.1038 8.99916C14.9838 8.90916 14.7538 9.00915 14.8038 9.14915V9.10916C14.7038 9.26916 14.6938 9.45915 14.6938 9.64915C14.5738 13.4392 14.4538 17.2192 14.3338 21.0092C14.2838 22.4992 14.2338 24.0091 14.4338 25.4891C14.6238 25.4091 14.6738 25.1691 14.6938 24.9591C14.9538 22.3291 15.2138 19.6892 15.1338 17.0392C15.1138 16.4192 15.0838 15.8092 15.0738 15.1892C15.0538 13.2592 15.3238 11.3292 15.2438 9.40915Z" fill="white"/>
</g>
</g>
<g id="Group_57" opacity="0.5">
<g id="Group_58">
<path id="Vector_48" d="M22.0869 29.0405C21.7369 25.2605 21.5869 21.4505 21.6569 17.6505C21.6769 16.6005 21.7068 15.5505 21.6768 14.5005C21.6168 12.4305 21.3169 10.3605 21.4669 8.30047C21.4769 8.19047 21.4769 8.08047 21.4369 7.99047C21.3369 7.80047 21.0669 7.79047 20.8569 7.81047C18.5969 7.98047 16.3269 7.95047 14.0669 7.73047L14.0469 7.84047C15.6669 8.38047 17.4169 8.29047 19.0869 8.61047C19.2869 8.65047 19.4869 8.70047 19.6369 8.83047C19.7769 8.95047 19.8569 9.12047 19.9169 9.29047C20.1669 9.92047 20.2968 10.6005 20.4268 11.2705C20.7468 12.9305 21.0669 14.6005 21.0269 16.2905C21.0069 17.0505 20.9169 17.8105 20.8769 18.5705C20.7369 21.3305 21.2869 24.1605 20.5569 26.8305C20.3369 27.6505 19.9769 28.4505 19.3569 29.0305C18.8169 29.5305 18.1168 29.8105 17.4268 30.0805C18.7368 30.1405 20.0469 30.1205 21.3469 30.0105C21.5469 29.9905 21.7669 29.9705 21.9169 29.8305C22.1269 29.6305 22.1169 29.3205 22.0869 29.0405Z" fill="#740402"/>
</g>
</g>
<g id="Group_59" opacity="0.5">
<g id="Group_60" opacity="0.5">
<g id="Group_61">
<path id="Vector_49" d="M13.1484 34.1698C13.2284 33.9698 13.3384 33.7798 13.4584 33.6098C13.4584 33.5998 13.4684 33.5898 13.4684 33.5898L13.1484 34.1698Z" fill="#020405"/>
</g>
</g>
<g id="Group_62" opacity="0.5">
<g id="Group_63">
<path id="Vector_50" d="M13.8616 33.1504C13.7216 33.2904 13.5916 33.4504 13.4716 33.6104C13.4716 34.0904 12.9716 34.4104 12.5516 34.6404C11.6716 35.1104 10.8016 35.6204 9.96156 36.1704C9.80156 36.2704 9.62156 36.4504 9.71156 36.6204C9.74156 36.6804 9.80158 36.7204 9.85158 36.7504C10.7016 37.2704 11.8616 37.0104 12.6116 36.3604C13.3616 35.7104 13.7716 34.7504 14.0416 33.7904C14.1016 33.5604 14.1016 33.2104 13.8616 33.1504Z" fill="#020405"/>
</g>
</g>
</g>
<g id="Group_64" opacity="0.2">
<g id="Group_65">
<path id="Vector_51" d="M4.3446 48.5399C4.6546 47.1799 5.27461 45.9099 5.94461 44.6799C6.70461 43.2599 7.54459 41.8399 8.74459 40.7699C9.84459 39.7899 11.2346 39.1199 12.0846 37.9199C11.1546 36.9799 9.73461 36.6499 8.44461 36.9099C5.80461 37.2199 3.3946 39.0699 2.4346 41.5499C1.4246 44.1499 1.95459 47.0599 2.33459 49.8199C3.35459 57.2499 3.14459 64.8099 4.20459 72.2299C4.40459 73.6599 4.70461 75.1699 5.69461 76.2099C7.04461 77.6399 9.25459 77.7799 11.2046 77.5599C9.98459 77.2099 8.73459 76.8099 7.74459 76.0099C5.93459 74.5599 5.3046 72.0999 4.9346 69.8099C4.0046 64.0199 4.03461 58.1199 4.07461 52.2499C4.06461 51.0099 4.0746 49.7599 4.3446 48.5399Z" fill="white"/>
</g>
</g>
<g id="Group_66" opacity="0.2">
<g id="Group_67">
<path id="Vector_52" d="M13.7308 40.2509C13.0708 39.5009 12.6009 38.6008 12.0109 37.7908C11.4209 36.9808 10.6508 36.2309 9.68084 36.0009C9.08084 35.8609 8.41085 35.9909 7.91085 36.3309C5.06085 37.3409 2.70083 39.7108 1.77083 42.5908C1.63083 43.0308 1.52083 43.5108 1.71083 43.9308C1.97083 44.5308 2.70085 44.7608 3.35085 44.8908C7.65085 45.8108 12.0808 46.1409 16.4708 45.8609C18.0408 45.7608 19.6108 45.5808 21.1108 45.1008C19.0208 43.0008 15.6908 42.4708 13.7308 40.2509Z" fill="#51AA02"/>
</g>
</g>
<g id="Group_68">
<g id="Group_69" opacity="0.5">
<g id="Group_70">
<path id="Vector_53" d="M34.2353 42.1798C33.5553 39.5898 31.0553 37.9099 28.5653 36.9099C27.3453 36.4199 26.0553 36.0098 25.0753 35.1398C24.2053 34.3698 23.5753 33.2498 22.5053 32.8398C20.7353 33.1398 18.9653 33.4298 17.1953 33.7298C18.5253 34.0498 19.8553 34.3698 21.1953 34.6898C21.4253 34.7398 21.6653 34.8098 21.8053 34.9998C22.1453 35.4698 21.5053 36.0398 20.9553 36.2498C19.9253 36.6298 18.8553 36.8698 17.7653 36.9598C17.7653 37.3298 18.2353 37.4698 18.6053 37.4998C20.0753 37.6298 21.5453 37.7698 23.0153 37.8998C24.8753 38.0698 26.9153 38.3198 28.1753 39.6998C29.0053 40.6098 29.3553 41.8598 29.5353 43.0798C29.5853 43.3898 29.6153 43.7199 29.5053 44.0199C29.3853 44.3399 29.0953 44.5799 28.8053 44.7699C26.6853 46.1699 23.8953 46.0599 21.5553 47.0499C23.6853 48.2899 26.8953 47.1698 28.5453 49.0098C29.2553 49.7998 29.4253 50.9098 29.5553 51.9598C29.9653 55.4898 30.1053 59.0598 29.9753 62.6098C29.8653 65.5498 29.5453 68.5299 28.3453 71.2198C27.1453 73.8998 24.9453 76.2698 22.1053 77.0298C20.7753 77.3898 19.3253 77.3999 18.1553 78.1299C19.2053 78.3699 20.2953 78.1098 21.3553 77.9598C24.5653 77.5098 27.9353 78.0798 31.0153 77.0298C31.5153 76.8598 32.0253 76.6298 32.3353 76.2098C32.5853 75.8698 32.6753 75.4398 32.7453 75.0199C32.9053 74.0099 32.9653 72.9798 33.0153 71.9598C33.4753 63.1298 33.9353 54.2898 34.4053 45.4598C34.4653 44.3598 34.5253 43.2398 34.2353 42.1798Z" fill="#214902"/>
</g>
</g>
</g>
<g id="Group_71" opacity="0.5">
<g id="Group_72" opacity="0.5">
<g id="Group_73">
<path id="Vector_54" d="M20.9831 33.6094C21.5831 34.0194 22.1832 34.4394 22.7832 34.8494C22.8832 34.9194 22.9932 34.9994 23.0332 35.1094C23.1232 35.3594 22.8632 35.5894 22.6332 35.7194C22.4032 35.8494 22.1232 36.0394 22.1632 36.2994C22.2132 36.6394 22.6832 36.6694 23.0132 36.6194C24.2132 36.4194 25.4131 36.2194 26.6131 36.0194C26.3531 35.6094 25.8032 35.5194 25.3232 35.4094C24.6032 35.2494 23.8932 34.9594 23.3432 34.4694C22.7932 33.9794 22.4132 33.2794 22.4032 32.5394C21.8932 32.5194 21.3832 32.6294 20.9432 32.8794C20.8232 32.9494 20.7032 33.0394 20.6832 33.1694C20.6532 33.3494 20.8231 33.4994 20.9831 33.6094Z" fill="#020405"/>
</g>
</g>
<g id="Group_74" opacity="0.5">
<g id="Group_75">
<path id="Vector_55" d="M27.7037 75.2883C26.3737 76.0583 24.9237 76.6983 23.8337 77.7983C23.7037 77.9283 23.5838 78.0883 23.6038 78.2583C23.6438 78.5083 23.9537 78.5983 24.2037 78.6183C25.4937 78.7083 26.7538 78.1983 27.9438 77.6983C28.8338 77.3283 29.7537 76.9283 30.3937 76.1983C30.9437 75.5683 31.2138 74.7383 31.4438 73.9283C32.5738 69.8483 32.8037 65.5883 33.0237 61.3583C33.1937 58.0783 33.3637 54.7983 33.5337 51.5083C33.6437 49.3083 33.7637 47.0983 33.5837 44.9083C33.4837 43.6683 33.4337 42.3783 33.4337 42.3783C32.9637 40.1483 30.9937 38.3083 28.7337 37.9883C29.7037 38.7983 30.6937 39.6383 31.3337 40.7383C31.9637 41.8383 32.1638 43.2683 31.5138 44.3583C30.8238 45.5083 29.3537 46.0483 28.7737 47.2483C29.5537 47.6283 30.6937 47.1883 31.2337 47.8683C31.4537 48.1483 31.4737 48.5383 31.4837 48.8983C31.6237 55.3783 30.3637 61.8683 30.9837 68.3183C31.1037 69.5683 31.2837 70.8583 30.8737 72.0383C30.3537 73.4983 29.0337 74.5183 27.7037 75.2883Z" fill="#020405"/>
</g>
</g>
<g id="Group_76" opacity="0.5">
<g id="Group_77">
<path id="Vector_56" d="M34.2109 78.2203C34.1809 78.1203 34.1209 78.0203 34.0309 77.9703C33.9109 77.9103 33.7709 77.9603 33.6509 78.0203L34.1109 77.8203C31.7409 78.7503 29.2309 79.3503 26.7009 79.5903C26.3909 79.6203 26.031 79.6703 25.851 79.9303C25.761 80.0703 25.7409 80.2303 25.6709 80.3803C25.5009 80.7503 25.0909 80.9203 24.7109 81.0603C22.7009 81.7503 20.5909 82.1403 18.4609 82.2003C22.9509 82.1503 27.441 81.6003 31.821 80.5803C32.441 80.4403 33.0809 80.2703 33.5809 79.8803C34.0809 79.5003 34.4109 78.8203 34.2109 78.2203Z" fill="#020405"/>
</g>
</g>
</g>
<g id="Group_78">
<path id="Vector_57" d="M8.41251 78.9195C7.28251 78.7495 6.16251 78.5695 5.04251 78.3495C3.89251 78.1195 2.74249 77.8395 1.61249 77.5095L1.3125 77.2695C1.3125 78.0795 1.40249 78.9195 1.86249 79.5895C2.37249 80.3295 3.2625 80.7395 4.1525 80.8595C5.0425 80.9795 5.95249 80.8495 6.83249 80.7195C8.58249 80.4595 10.3225 80.1995 12.0725 79.9495C12.3025 79.9195 12.6025 79.8095 12.5925 79.5795C11.2025 79.3495 9.81251 79.1295 8.41251 78.9195Z" fill="#376B0F"/>
</g>
<g id="Group_79" opacity="0.7">
<g id="Group_80">
<path id="Vector_58" d="M10.0119 36.7111C9.4219 36.3611 8.6419 36.4011 8.0719 36.7611C6.3519 37.2911 4.8519 38.5611 4.2919 40.2611C4.1919 40.5711 4.14189 40.9811 4.40189 41.1811C4.60189 41.3411 4.91189 41.2911 5.12189 41.1411C5.33189 40.9911 5.4719 40.7711 5.6319 40.5711C6.5419 39.3911 7.96188 38.7211 9.39188 38.3011C9.89188 38.1511 10.5219 37.8811 10.4919 37.3511C10.4719 37.0811 10.2519 36.8511 10.0119 36.7111Z" fill="white"/>
</g>
</g>
<g id="Group_81" opacity="0.5">
<g id="Group_82">
<path id="Vector_59" d="M3.26528 46.6395C3.14528 45.1595 2.62525 45.0095 2.67525 45.8295C2.89525 52.5595 3.11525 59.2995 3.86525 65.9895C4.16525 59.5395 3.77528 53.0795 3.26528 46.6395Z" fill="white"/>
</g>
</g>
</g>
<g id="Group_83">
<g id="Group_84">
<path id="Vector_60" d="M36.6562 41L37.1562 42.46C39.0262 49.21 39.3963 55.77 39.5963 62.58L39.8863 80.83H39.8962C39.8962 80.84 39.8863 80.84 39.8863 80.85C39.8863 81.42 43.3462 82.5 47.6162 82.5C51.8862 82.5 55.3463 81.42 55.3463 80.85C55.3463 80.84 55.3362 80.84 55.3362 80.83H55.3463L55.6363 62.58C55.8463 55.78 56.1162 49.49 57.9262 42.78L58.5862 41.01H36.6562V41Z" fill="#DEEF7D"/>
</g>
<g id="Group_85">
<path id="Vector_61" d="M37.6094 41.2695L37.8594 42.2395C39.1094 47.0495 39.8294 51.9395 40.0294 56.8495L40.3694 65.4795C40.4894 68.5195 42.8794 71.0195 45.9194 71.1895C46.4394 71.2195 46.9994 71.2395 47.5694 71.2395C48.1494 71.2395 48.7094 71.2195 49.2294 71.1895C52.2694 71.0095 54.6494 68.5195 54.7694 65.4795L55.1094 56.8595C55.2994 51.9495 56.0294 47.0595 57.2794 42.2495L57.5294 41.2795H37.6094V41.2695Z" fill="#F7FCE6"/>
</g>
<g id="Group_86">
<path id="Vector_62" d="M57.92 41.001C57.92 41.811 53.29 42.461 47.58 42.461C41.87 42.461 37.25 41.811 37.25 41.001C37.25 40.191 41.88 39.541 47.58 39.541C53.3 39.541 57.92 40.191 57.92 41.001Z" fill="#F7FCE6"/>
</g>
<g id="Group_87">
<g id="Group_88">
<path id="Vector_63" d="M47.5828 42.7805C46.4628 42.7805 36.6328 42.7305 36.6328 41.0105C36.6328 39.2805 46.4628 39.2305 47.5828 39.2305C48.7028 39.2305 58.5328 39.2805 58.5328 41.0105C58.5328 42.7305 48.7028 42.7805 47.5828 42.7805ZM37.2528 41.0005C37.7328 41.4805 41.5428 42.1505 47.5728 42.1505C53.6128 42.1505 57.4128 41.4805 57.8928 41.0005C57.4128 40.5205 53.6028 39.8505 47.5728 39.8505C41.5428 39.8505 37.7328 40.5205 37.2528 41.0005Z" fill="#EAFC9F"/>
</g>
</g>
<g id="Group_89">
<path id="Vector_64" d="M40.0494 56.84L40.3894 65.38C40.5094 68.54 43.0394 71.05 46.1994 71.19C46.6494 71.21 47.1194 71.22 47.5994 71.22C48.0894 71.22 48.5594 71.21 49.0194 71.18C52.1694 71.02 54.6894 68.52 54.8094 65.37L55.1494 56.84C55.2694 53.88 55.5994 50.93 56.0994 48H39.1094C39.5994 50.94 39.9294 53.89 40.0494 56.84Z" fill="#FCF05B"/>
</g>
<g id="Group_90">
<path id="Vector_65" d="M56.1415 48.0108C56.1415 48.6808 52.3216 49.2208 47.6216 49.2208C42.9216 49.2208 39.1016 48.6808 39.1016 48.0108C39.1016 47.3408 42.9216 46.8008 47.6216 46.8008C52.3216 46.8008 56.1415 47.3408 56.1415 48.0108Z" fill="#FFFF9C"/>
</g>
<g id="Group_91" opacity="0.2">
<g id="Group_92">
<path id="Vector_66" d="M46.6147 43.1899C43.6947 43.1899 40.7147 43.1399 37.9647 42.1799L37.8047 42.1699C39.6247 48.0899 40.2447 54.3199 40.4047 60.5099C40.5647 66.6999 40.2547 72.8999 40.2747 79.0899C40.2747 79.6099 40.2847 80.1599 40.5647 80.5999C40.9047 81.1499 41.5747 81.3999 42.2147 81.5499C43.3147 81.7999 44.4547 81.8699 45.5847 81.7299C44.2447 80.8999 44.1147 79.0299 44.1347 77.4499C44.1547 75.9599 44.1647 74.4599 44.1847 72.9699C44.2747 64.9799 44.3747 56.9699 45.0147 49.0099C45.1647 47.1699 45.4547 45.1099 46.9247 43.9899C47.0847 43.8699 47.2747 43.7199 47.2547 43.5199C47.2247 43.2599 46.8847 43.1899 46.6147 43.1899Z" fill="white"/>
</g>
</g>
<g id="Group_93" opacity="0.2">
<g id="Group_94">
<path id="Vector_67" d="M47.8463 48.7495C47.7863 48.3795 47.7163 47.9895 47.4763 47.7095C47.3463 47.5695 47.1663 47.4695 46.9763 47.4395L47.5663 47.2695C46.8663 47.3195 46.1163 47.3795 45.5663 47.8195C45.0563 48.2295 44.8263 48.8995 44.6763 49.5395C44.3563 50.9395 44.3163 52.3795 44.2763 53.8195C44.0763 60.8995 43.8863 68.0695 45.3563 74.9995C45.5263 75.7995 45.7563 76.6695 46.4163 77.1495C46.5363 77.2395 46.6863 77.3195 46.8463 77.2995C47.1163 77.2695 47.2563 76.9695 47.3463 76.7095C47.7663 75.3695 47.8663 73.9495 47.9663 72.5495C48.5163 64.6195 49.0663 56.5995 47.8463 48.7495Z" fill="#7AA606"/>
</g>
</g>
<g id="Group_95" opacity="0.2">
<g id="Group_96">
<path id="Vector_68" d="M57.0903 42.3008C54.5103 43.1408 49.0403 43.4108 46.3503 43.0808C53.4303 46.2908 51.8503 74.4408 51.3303 76.4708C50.9903 77.8008 49.5803 81.5808 45.5703 81.7408C46.5903 81.9208 49.5303 81.9608 50.5603 81.8608C51.9203 81.7308 53.8603 81.4208 54.5503 80.2408C55.0703 79.3408 54.8203 67.5708 54.7503 65.6408C54.5603 59.6808 55.7303 45.5608 57.0903 42.3008Z" fill="#7AA606"/>
</g>
</g>
<g id="Group_97" opacity="0.6">
<g id="Group_98">
<path id="Vector_69" d="M48.0562 72.1206C46.1162 72.2206 43.6063 71.7506 42.4062 70.5306C43.4462 72.2406 45.6063 73.5206 47.6363 73.4106C50.0063 73.2806 52.1763 71.8206 53.5463 69.8906C52.0563 71.2406 50.0662 72.0106 48.0562 72.1206Z" fill="#7AA606"/>
</g>
</g>
<g id="Group_99" opacity="0.5">
<g id="Group_100">
<path id="Vector_70" d="M53.4844 72.3698C53.4444 72.2798 53.3544 72.2798 53.2644 72.3098L53.3044 72.2598C53.2944 72.2798 53.2744 72.2898 53.2544 72.3098C53.1844 72.3298 53.1244 72.3698 53.0744 72.4198C52.9544 72.5398 52.8644 72.6698 52.7744 72.8098C52.2644 73.2698 51.6444 73.6098 50.9844 73.7798C50.5644 73.8898 50.0944 73.9698 49.8544 74.3398C49.6644 74.6398 49.7144 75.0298 49.7644 75.3798C49.9244 76.4498 50.0344 77.5398 50.1044 78.6198C50.1344 79.1398 50.1844 79.7198 50.5444 80.0998C50.9344 80.5098 51.6144 80.5598 52.1144 80.3098C52.6244 80.0498 52.9644 79.5498 53.1444 79.0098C53.3244 78.4698 53.3644 77.8998 53.3844 77.3298C53.4644 75.7198 53.5044 74.0998 53.4844 72.4798C53.5044 72.4498 53.5044 72.4098 53.4844 72.3698Z" fill="#FCF05B"/>
</g>
</g>
<g id="Group_101">
<g id="Group_102">
<path id="Vector_71" d="M42.5203 58.1695C42.3203 53.4895 41.4503 48.7895 39.4803 44.5495C39.4203 44.4295 39.3503 44.2895 39.2103 44.2695C39.1503 44.2595 39.1003 44.2895 39.0703 44.3395C41.5603 53.2495 40.8903 62.6895 41.0403 71.9395C41.0503 72.5695 41.0703 73.2295 41.4003 73.7695C41.5503 73.2595 41.6203 72.7195 41.6803 72.1895C42.2603 67.5295 42.7203 62.8395 42.5203 58.1695Z" fill="white"/>
</g>
<g id="Group_103">
<path id="Vector_72" d="M39.0591 44.3397C39.0591 44.3297 39.069 44.3297 39.079 44.3197C39.069 44.2697 39.0591 44.2197 39.0391 44.1797L39.0591 44.3397Z" fill="white"/>
</g>
<g id="Group_104">
<path id="Vector_73" d="M39.0791 44.4998L39.0591 44.3398C39.0191 44.3998 39.0191 44.4698 39.0791 44.4998Z" fill="white"/>
</g>
<g id="Group_105">
<path id="Vector_74" d="M41.1374 80.1891C41.2074 80.4891 41.4374 80.7991 41.7474 80.8091C41.9474 80.8191 42.1274 80.6891 42.2274 80.5191C42.3274 80.3491 42.3674 80.1591 42.3974 79.9591C42.4574 79.4891 42.4574 79.0091 42.4574 78.5291C42.4574 77.8891 42.4574 77.2591 42.4474 76.6191C42.4474 76.2591 42.4374 75.8591 42.2174 75.5691C42.0374 75.3291 41.7474 75.1991 41.4574 75.1091C41.3674 75.0791 41.2774 75.0591 41.1974 75.0891C41.0374 75.1391 40.9974 75.3391 40.9774 75.4991C40.8874 76.2791 40.8674 77.0691 40.9174 77.8591C40.9174 77.8691 40.8474 78.9691 41.1374 80.1891Z" fill="white"/>
</g>
<g id="Group_106" opacity="0.6">
<g id="Group_107">
<path id="Vector_75" d="M53.1759 80.2699C51.8759 79.5699 50.3359 79.4998 48.8659 79.5598C46.8459 79.6398 44.8258 79.9298 42.8558 80.4198C42.8358 80.4198 42.8259 80.4099 42.8059 80.4099C42.7059 80.4099 42.6059 80.4398 42.5159 80.4998C42.4059 80.5298 42.4359 80.5799 42.4359 80.5799C42.4059 80.6299 42.3759 80.6798 42.3759 80.7398C42.3559 81.0098 42.6859 81.1599 42.9559 81.2199C45.1659 81.7099 47.4559 81.8199 49.7059 81.5499C49.9259 81.5199 50.2159 81.4298 50.2159 81.1998C50.2159 80.9398 49.8459 80.8698 49.5859 80.8898C48.8459 80.9498 48.1058 81.0199 47.3558 81.0799C47.1258 81.0999 46.8459 81.0899 46.7559 80.8799C46.6259 80.5899 47.0059 80.3398 47.3159 80.2798C49.1459 79.8998 51.0058 80.6198 52.8558 80.8198C53.0958 80.8498 53.4459 80.7599 53.4059 80.5199C53.4059 80.4099 53.2859 80.3299 53.1759 80.2699Z" fill="#7AA606"/>
</g>
</g>
</g>
<g id="Group_108" opacity="0.2">
<g id="Group_109">
<path id="Vector_76" d="M56.9453 42.5195C55.7953 42.7695 54.6453 43.0295 53.4953 43.2795C53.2553 43.3295 52.9953 43.3995 52.8353 43.5795C52.5353 43.9195 52.7353 44.4495 52.8853 44.8695C53.3253 46.0895 53.2953 47.4195 53.2653 48.7095C53.1153 54.9695 52.9653 61.2395 52.8153 67.4995C52.8053 67.8295 52.9053 68.2695 53.2353 68.2595C53.4853 68.2495 53.6153 67.9695 53.6753 67.7295C54.1553 65.9595 54.1053 64.1095 54.0953 62.2795C54.0753 57.6195 54.3553 52.9595 54.9253 48.3295C55.0553 47.2695 55.2053 46.2095 55.5753 45.2095C55.8153 44.5695 56.1353 43.9695 56.4053 43.3395C56.4953 43.1695 56.9453 42.5195 56.9453 42.5195Z" fill="#7AA606"/>
</g>
</g>
<g id="Group_110" opacity="0.2">
<g id="Group_111">
<path id="Vector_77" d="M54.1003 71.0009C54.1003 70.9309 54.1003 70.8608 54.0703 70.7908C53.9903 70.6008 53.7203 70.5708 53.5403 70.6808C53.4603 70.7308 53.4103 70.7909 53.3503 70.8609C53.1603 70.9409 52.9903 71.1009 52.9003 71.3009C52.7603 71.6109 52.7803 71.9708 52.8003 72.3208C52.8803 73.6908 52.9603 75.0508 53.0403 76.4208C53.1203 77.7208 53.1503 79.1708 52.3203 80.1708C51.6503 80.9809 50.5803 81.3008 49.5703 81.5908C50.5003 81.4708 51.4103 81.1609 52.2203 80.6909C52.7603 80.3809 53.2803 79.9809 53.5803 79.4208C53.8603 78.8909 53.9203 78.2709 53.9603 77.6609C54.1203 75.4409 54.1603 73.2209 54.1003 71.0009Z" fill="#7AA606"/>
</g>
</g>
<g id="Group_112" opacity="0.3">
<g id="Group_113">
<path id="Vector_78" d="M52.245 44.3898C51.925 44.0598 51.405 44.0598 50.945 44.0698C47.795 44.1598 44.625 43.9998 41.495 43.5898C40.435 43.4498 39.305 43.2498 38.525 42.5098L38.855 42.8598C38.645 42.7098 38.375 42.6498 38.125 42.7398C39.455 44.9298 39.255 47.6898 39.795 50.1898C39.985 51.1098 40.465 52.1598 41.405 52.2698C41.785 52.3098 42.155 52.1798 42.515 52.0498C45.955 50.7798 49.435 49.2098 51.835 46.4298C52.335 45.8498 52.775 44.9298 52.245 44.3898Z" fill="white"/>
</g>
</g>
</g>
<g id="Group_114">
<g id="Group_115">
<path id="Vector_79" d="M51.4944 79.0703C51.1644 79.4303 50.9844 79.9103 50.9844 80.3903C50.9844 80.6503 51.0544 80.9003 51.1944 81.1103C51.4944 81.5703 51.9444 81.9203 52.4644 82.0903C52.8344 82.2103 53.2044 82.3003 53.5844 82.3603L57.6644 82.9703L51.4944 79.0703Z" fill="#285A01"/>
</g>
<g id="Group_116">
<path id="Vector_80" d="M52.2272 79.1878C52.7972 79.9478 53.4872 80.6078 54.2672 81.1578C55.1872 81.8078 56.2672 82.2478 57.3872 82.4278C58.2772 82.5678 59.1672 82.5378 60.0372 82.3478C61.2272 82.0878 62.3272 81.5878 63.3072 80.8578C64.2272 80.1778 64.9772 79.3178 65.5272 78.3178C66.1772 77.1478 66.5572 75.8178 66.6272 74.4778C66.6772 73.3178 66.5372 72.1678 66.1972 71.0578C65.6672 69.3278 64.8672 67.6978 63.8172 66.2278L63.1272 65.2578L51.8672 78.7078L51.8972 78.7578L52.2272 79.1878Z" fill="white"/>
</g>
<g id="Group_117">
<path id="Vector_81" d="M66.6878 70.9094C66.1478 69.1294 65.3178 67.4494 64.2378 65.9294L63.4778 64.8594L63.1378 65.2594L63.8278 66.2294C64.8778 67.6994 65.6778 69.3294 66.2078 71.0594C66.5478 72.1694 66.6878 73.3194 66.6378 74.4794C66.5778 75.8194 66.1978 77.1494 65.5378 78.3194C64.9778 79.3194 64.2278 80.1694 63.3178 80.8594C62.3378 81.5894 61.2378 82.0894 60.0478 82.3494C59.1778 82.5394 58.2778 82.5694 57.3978 82.4294C56.2778 82.2494 55.1978 81.8194 54.2778 81.1594C53.4978 80.6094 52.8178 79.9494 52.2378 79.1894L51.8778 78.7194L51.5078 79.0694L51.8278 79.4994C52.4378 80.2994 53.1578 80.9994 53.9778 81.5794C54.9678 82.2794 56.1178 82.7494 57.3178 82.9294C58.1178 83.0594 58.9178 83.0594 59.7178 82.9294C59.8678 82.9094 60.0078 82.8794 60.1578 82.8494C61.4178 82.5794 62.5878 82.0494 63.6278 81.2694C64.6078 80.5394 65.3978 79.6394 65.9878 78.5694C66.6778 77.3294 67.0778 75.9194 67.1478 74.4994C67.1978 73.2894 67.0378 72.0794 66.6878 70.9094Z" fill="#549405"/>
</g>
<g id="Group_118">
<path id="Vector_82" d="M54.5972 80.5006C55.4572 81.1306 56.4372 81.5606 57.4772 81.7306C58.2872 81.8706 59.1172 81.8506 59.9172 81.6706C60.9972 81.4306 62.0172 80.9506 62.9072 80.2706C63.7372 79.6306 64.4272 78.8106 64.9272 77.8606C65.5172 76.7406 65.8572 75.4906 65.9072 74.2006C65.9472 73.1006 65.8072 72.0106 65.4972 70.9506C65.0072 69.3206 64.2772 67.7806 63.3172 66.3906L62.7972 65.6406L52.3672 78.1006L52.7272 78.5906C53.2572 79.3406 53.8872 79.9806 54.5972 80.5006Z" fill="#DEEF7D"/>
</g>
<g id="Group_119">
<g id="Group_120">
<path id="Vector_83" d="M62.5365 76.3392C62.4465 76.2492 62.4165 76.3793 62.4765 76.4493C63.2165 77.1993 63.6965 78.1292 64.4865 78.8492C64.5865 78.9392 64.6165 78.8092 64.5465 78.7392C63.7565 78.0192 63.2765 77.0892 62.5365 76.3392Z" fill="white"/>
</g>
<g id="Group_121">
<path id="Vector_84" d="M60.3158 77.2983C60.2958 77.2383 60.1458 77.1283 60.1758 77.2383C60.3258 77.8383 60.5058 78.4183 60.7558 78.9883C61.0558 79.6783 61.4958 80.3083 61.6758 81.0483C61.6958 81.1083 61.8458 81.2183 61.8158 81.1083C61.6958 80.6183 61.4758 80.1883 61.2358 79.7383C60.8258 78.9583 60.5258 78.1583 60.3158 77.2983Z" fill="white"/>
</g>
<g id="Group_122">
<path id="Vector_85" d="M65.9972 71.3284C66.0672 71.3484 65.9772 71.1884 65.9272 71.1684C65.2472 70.9684 64.5672 70.9684 63.8772 71.0384C63.9372 71.0184 64.0072 70.9984 64.0572 70.9784C64.5972 70.8384 65.1472 70.6884 65.6872 70.5484C65.7672 70.5284 65.6672 70.3684 65.5972 70.3884C65.1872 70.4984 64.7772 70.5984 64.3672 70.7084C64.2272 70.7484 63.2772 71.0584 63.3772 70.8084C63.4672 70.5784 64.3472 70.5584 64.5572 70.5184C64.9972 70.4484 65.4372 70.3784 65.8672 70.2984C65.9472 70.2884 65.8472 70.1184 65.7772 70.1384C65.0672 70.2684 64.2272 70.2684 63.5472 70.5084C63.3172 70.5884 63.0272 70.7584 63.0572 71.0384C63.0572 71.0784 63.0972 71.1184 63.1372 71.1384C62.2072 71.2984 61.2672 71.5084 60.3272 71.5684L60.0572 71.5384C60.1972 71.4884 60.3472 71.4284 60.4872 71.4184C60.5272 71.4184 60.5172 71.3784 60.5072 71.3384C62.0372 71.1684 63.3972 69.9384 64.9572 70.0184C65.0672 70.0284 64.9972 69.8484 64.9072 69.8384C63.3272 69.7584 61.9572 71.0384 60.3972 71.1684C60.3372 71.1684 60.3272 71.2184 60.3472 71.2584C60.0872 71.2984 59.8472 71.3884 59.5972 71.4784L59.4772 71.4684C60.3172 71.0784 61.1672 70.6984 61.9772 70.2284C62.8172 69.7384 63.7072 68.6884 64.7372 68.8984C64.8072 68.9084 64.7172 68.7484 64.6672 68.7484C63.7672 68.5684 63.3072 69.1484 62.5972 69.6284C62.1872 69.9084 61.7372 70.1384 61.2972 70.3684C61.5872 70.1884 61.8772 70.0084 62.1672 69.8184C63.0172 69.2384 63.6572 68.4384 64.5072 67.8484C64.5672 67.8084 64.4572 67.6484 64.3872 67.6984C63.6172 68.2284 63.0572 68.9384 62.3172 69.4884C61.4472 70.1284 60.4972 70.6884 59.5072 71.1284L64.3272 67.4484L63.8572 66.8284L61.1772 68.8684C61.3272 68.7584 61.4772 68.6484 61.6072 68.5184C62.2872 67.8384 62.7672 66.9984 63.4772 66.3484C63.5272 66.2984 63.4072 66.1484 63.3572 66.1984C62.6472 66.8484 62.1572 67.6884 61.4872 68.3684C61.1972 68.6584 60.8472 68.8584 60.5372 69.1184C60.2772 69.3384 60.0672 69.5884 59.8272 69.8084L63.0972 65.8984L62.7972 65.6484L57.8372 71.5584L58.2772 72.1284L57.5872 71.8584L52.3672 78.1084L52.6672 78.3584L55.3872 75.1084C55.2272 75.2984 55.0872 75.4884 54.9572 75.6984C54.2372 76.8584 53.8672 78.1684 52.8772 79.1584C52.8072 79.2284 52.9272 79.3784 52.9972 79.3084C53.9872 78.3084 54.3672 76.9884 55.0972 75.8184C55.5872 75.0384 56.3072 74.4484 56.8672 73.7284C56.8672 73.7384 56.8672 73.7484 56.8672 73.7484C56.6272 74.0384 56.4472 74.3584 56.2072 74.6584C55.8172 75.1584 55.4872 75.4784 55.2472 76.0784C54.7372 77.3284 54.3272 78.4784 53.4972 79.5584C53.4472 79.6284 53.5772 79.7684 53.6372 79.6784C54.2572 78.8684 54.7572 77.9984 55.1072 77.0384C55.4872 75.9984 56.0572 74.9684 56.7872 74.0984C56.7772 74.1484 56.7672 74.2084 56.7572 74.2584C56.3672 74.9284 55.9272 75.5984 55.7072 76.2984C55.6072 76.6284 55.5272 76.9684 55.4572 77.2984C55.4072 77.3484 55.3572 77.3984 55.2972 77.4684C54.6772 78.2084 54.5172 79.3584 54.2672 80.2584C54.2472 80.3284 54.3872 80.4484 54.4172 80.3584C54.6272 79.6284 54.7572 78.8184 55.1072 78.1484C55.1772 78.0084 55.2672 77.8884 55.3672 77.7784C55.1972 78.7784 55.0872 79.7784 54.7572 80.7284C54.7272 80.8084 54.8772 80.9184 54.9172 80.8184C55.2772 79.7784 55.3672 78.6684 55.5672 77.5784C55.8272 77.3384 56.0972 77.1284 56.2972 76.8284C56.5472 76.4584 56.5872 75.8184 56.6772 75.3984C56.7572 75.0584 56.8172 74.7084 56.8872 74.3684C57.0272 74.1284 57.1472 73.8884 57.2572 73.6484L55.2772 81.0184L56.0272 81.2184L57.4472 75.9384C57.1872 77.8584 56.2972 79.6284 56.2572 81.5784C56.2572 81.6684 56.4172 81.7484 56.4172 81.6284C56.4572 79.4384 57.5972 77.4584 57.6672 75.2484C57.6672 75.2284 57.6472 75.2184 57.6372 75.2084L57.9472 74.0484C57.7672 75.2884 57.9872 76.5584 57.6972 77.7584C57.3772 79.0784 57.0072 80.2584 56.9872 81.6384C56.9872 81.7184 57.1472 81.8084 57.1472 81.6884C57.1672 80.1484 57.7172 78.9084 57.9472 77.4284C58.1372 76.2384 57.8872 75.0584 58.1372 73.8384C58.1472 73.7884 58.0872 73.7284 58.0372 73.7184L58.2572 72.8984L58.3372 73.2184C58.2972 73.1584 58.2172 73.1184 58.2072 73.2184C58.1472 74.0484 58.1872 74.8284 58.3072 75.5984C58.2572 75.8484 58.2472 76.1084 58.2872 76.3784C58.2872 76.3884 58.2772 76.3884 58.2872 76.3884C58.2872 76.3984 58.2872 76.3984 58.2972 76.4084C58.3072 76.4584 58.2972 76.4984 58.3072 76.5484C58.3672 76.7484 58.4072 76.9484 58.4672 77.1484C58.4372 77.1484 58.3972 77.1684 58.4172 77.2184C58.4372 77.3184 58.4472 77.4084 58.4672 77.5084C58.3672 78.2784 57.9172 79.0184 57.7572 79.7784C57.6072 80.4784 57.5872 81.1984 57.5472 81.9084C57.5472 82.0084 57.7072 82.0684 57.7172 81.9484C57.7672 80.7184 57.9372 79.6484 58.3672 78.4984C58.4272 78.3484 58.4672 78.2084 58.5172 78.0584C58.5572 79.3484 58.0672 80.6284 58.2072 81.9384C58.2172 82.0284 58.3772 82.0984 58.3672 81.9884C58.2272 80.6284 58.7472 79.3084 58.6672 77.9684C58.9472 79.1984 59.1172 80.4284 59.0972 81.7484C59.0972 81.7984 59.2272 81.9284 59.2272 81.8584C59.2572 80.4584 59.1572 78.9084 58.7872 77.5384C59.0872 78.4084 60.4572 81.2184 60.1472 81.7984C60.1072 81.8784 60.2472 82.0084 60.2872 81.9184C60.3772 81.7484 60.4072 81.6184 60.4472 81.4784L61.1472 81.2984L59.5872 75.0684C60.0072 76.0684 60.5872 77.0184 61.0172 78.0184C61.3972 78.9084 61.9372 79.6684 62.5172 80.4384C62.5872 80.5284 62.6872 80.4584 62.6072 80.3684C61.8372 79.3584 61.3372 78.3884 60.8372 77.2284C60.4672 76.3684 59.8872 75.5984 59.5672 74.7184C59.5572 74.6784 59.5072 74.6484 59.4672 74.6384L59.2872 73.9184C60.0072 74.9184 60.2772 76.0484 60.9272 77.1084C61.5472 78.1184 62.7372 78.9284 63.1372 80.0584C63.1672 80.1284 63.3072 80.1984 63.2672 80.0784C62.7572 78.6684 61.3572 77.8684 60.7372 76.4884C60.2572 75.4184 59.9272 74.5084 59.2172 73.6384L59.1972 73.5784C59.7072 74.0584 60.1972 74.5584 60.5272 75.1884C60.7572 75.6384 60.8672 76.1284 61.1272 76.5684C61.2372 76.7584 61.5672 77.4184 61.8072 77.4184C62.6972 77.4384 60.7072 74.8384 60.6172 74.6984C60.5472 74.6084 60.4972 74.6484 60.5572 74.7484C60.9672 75.3284 61.4072 75.7884 61.4772 76.4984C61.6172 77.8484 61.0272 76.1884 60.8772 75.8184C60.7772 75.5884 60.7472 75.4484 60.6372 75.2184C60.2972 74.5184 59.7472 73.9784 59.1872 73.4484C59.1772 73.4384 59.1772 73.4484 59.1672 73.4484L59.1572 73.4284L60.5472 74.5584C60.7972 74.8084 61.0572 75.0284 61.3272 75.2684C62.1872 76.0584 62.2272 76.6784 62.6372 77.5984C62.9872 78.3984 63.6172 78.9684 64.2572 79.5284C64.3572 79.6084 64.3872 79.4884 64.3172 79.4184C63.6572 78.8484 63.0772 78.2584 62.7072 77.4484C62.5072 77.0184 62.4472 76.5284 62.2172 76.1084C62.1272 75.9284 62.0072 75.7784 61.8772 75.6384L64.9272 78.1284L65.4172 77.5284L60.0272 73.1184C60.1272 73.1584 60.2372 73.1884 60.3372 73.2184C60.3272 73.2584 60.3772 73.3384 60.4072 73.3584C61.4372 73.9284 62.2272 74.7284 63.1972 75.3484C63.7172 75.6784 64.2672 75.7684 64.6572 76.2884C64.8772 76.5784 65.0472 76.8484 65.3072 77.0984C65.4072 77.1884 65.4172 77.0684 65.3472 76.9984C64.9672 76.6384 64.8072 76.1284 64.4372 75.7884C64.1472 75.5284 63.7272 75.5084 63.3872 75.3284C62.8372 75.0384 62.4172 74.5584 61.9272 74.1784C61.4672 73.8184 60.9572 73.5284 60.4472 73.2484C60.9372 73.3984 61.4372 73.5184 61.9072 73.7384C63.2572 74.3484 64.3772 75.3784 65.5272 76.2784C65.6272 76.3584 65.5672 76.1984 65.5272 76.1584C64.4072 75.2784 63.3272 74.2884 62.0372 73.6684C61.4972 73.4084 60.9372 73.2584 60.3772 73.0784C60.0572 72.9784 59.7672 72.8184 59.4772 72.6684L59.1872 72.4384L58.8872 72.1384L59.0472 72.1584C59.0572 72.1884 59.0872 72.2284 59.1072 72.2384C60.1572 72.6284 61.0872 72.8984 62.1672 73.1084C63.4872 73.3684 64.7872 74.3584 66.0272 74.8984C66.1272 74.9484 66.0772 74.7684 66.0072 74.7384C64.8572 74.2384 63.7372 73.3784 62.5372 73.0284C62.2072 72.9284 61.8872 72.9584 61.5472 72.9084C60.8172 72.7984 60.0872 72.4684 59.3972 72.1884L63.1072 72.5784C63.1272 72.6084 63.1472 72.6484 63.1672 72.6584C64.0272 72.9684 64.7672 73.3184 65.6672 73.5084C65.7472 73.5284 65.6672 73.3584 65.6072 73.3484C64.8172 73.1784 64.1372 72.8884 63.3972 72.6084L66.0272 72.8884L66.1072 72.1184L61.1272 71.5884C62.8172 71.4184 64.4272 70.8684 65.9972 71.3284ZM56.5872 75.0884C56.4772 75.5784 56.3672 75.9484 56.1572 76.4184C55.9772 76.8184 55.8472 76.9584 55.6772 77.1084C55.7272 76.8784 55.7772 76.6484 55.8472 76.4284C56.0172 75.8984 56.3272 75.3884 56.6272 74.8784C56.6172 74.9384 56.6072 75.0184 56.5872 75.0884ZM55.4872 74.9884L56.9672 73.2184C56.9672 73.2284 56.9572 73.2484 56.9572 73.2584C56.5572 73.8984 55.9872 74.4184 55.4872 74.9884ZM57.0572 73.6284C57.0772 73.5484 57.0872 73.4684 57.1072 73.3884C57.1872 73.2584 57.2672 73.1284 57.3372 72.9884C57.2772 73.2084 57.1972 73.4284 57.0972 73.6484C57.0772 73.6284 57.0672 73.6384 57.0572 73.6284ZM57.5272 72.6484H57.5372V72.6584C57.5372 72.6584 57.5372 72.6584 57.5272 72.6484ZM58.4472 76.3584C58.4272 76.2584 58.4072 76.1484 58.4072 76.0484C58.4372 76.1884 58.4472 76.3184 58.4872 76.4584C58.4672 76.4184 58.4572 76.3884 58.4472 76.3584ZM58.6472 77.0284C58.6472 77.0184 58.6472 77.0184 58.6472 77.0084C58.6572 77.0584 58.6772 77.0984 58.6872 77.1484C58.6672 77.1084 58.6572 77.0684 58.6472 77.0284ZM58.3872 73.3584L58.6272 74.3184C58.5772 74.6084 58.5072 74.8884 58.4272 75.1684C58.3572 74.5584 58.3472 73.9484 58.3872 73.3584ZM58.4672 75.4284C58.5372 75.1584 58.6272 74.8884 58.7072 74.6284L60.0272 79.9184C60.0172 79.9084 60.0172 79.8984 60.0072 79.8784C59.1672 78.5484 58.6572 77.0084 58.4672 75.4284ZM59.1372 71.3984C59.1372 71.4084 59.1372 71.4084 59.1472 71.4184C59.1372 71.4284 59.1172 71.4284 59.1072 71.4384H59.0872L59.1372 71.3984Z" fill="white"/>
</g>
</g>
</g>
</g>
</svg>
