<svg width="64" height="83" viewBox="0 0 64 83" fill="none" xmlns="http://www.w3.org/2000/svg">
<path d="M29.6312 47.7691L26.1612 44.7091C23.0412 41.9591 21.1912 38.0391 21.0312 33.8891L19.9512 4.78906C19.9512 4.99906 18.3412 5.16907 16.3512 5.16907C14.3612 5.16907 12.7512 4.99906 12.7512 4.78906L11.6712 33.9291C11.5212 38.0591 9.68117 41.9491 6.60117 44.7091L3.16117 47.7791C0.921173 49.7791 -0.23883 52.7191 0.0411703 55.7091L2.23117 79.1991H2.24117C2.28117 80.8391 8.62118 82.1591 16.4412 82.1591C24.2812 82.1591 30.6412 80.8291 30.6412 79.1791C30.6412 79.1291 30.6212 79.0791 30.6012 79.0291L32.7812 55.729C33.0612 52.729 31.8912 49.7691 29.6312 47.7691Z" fill="#810529"/>
<path d="M28.3301 48.9402L25.2001 46.1802C22.3901 43.7002 10.3501 43.6902 7.56011 46.1802L4.45011 48.9501C2.43011 50.7501 1.38011 53.4102 1.63011 56.1102L3.61011 77.3002C3.65011 78.7802 9.37011 79.9702 16.4201 79.9702C23.5001 79.9702 29.2301 78.7702 29.2301 77.2802C29.2301 77.2302 29.2101 77.1902 29.2001 77.1502L31.1601 56.1302C31.4301 53.4102 30.3801 50.7402 28.3301 48.9402Z" fill="#960636"/>
<path d="M22.4447 39.7191C21.6047 37.9091 21.1147 35.9291 21.0447 33.8891L19.9647 4.78906C19.9647 4.99906 18.3547 5.16907 16.3647 5.16907C14.3747 5.16907 12.7647 4.99906 12.7647 4.78906L11.6847 33.9291C11.6147 35.9391 11.1347 37.8991 10.3047 39.6891C11.9447 40.1791 14.0747 40.479 16.4147 40.479C18.7147 40.479 20.8247 40.1891 22.4447 39.7191Z" fill="#060C0E"/>
<path d="M16.4109 0.849686C14.2309 0.849686 12.4609 0.659688 12.4609 0.429688V5.79968C12.4609 6.02968 14.2309 6.21968 16.4109 6.21968C18.5909 6.21968 20.3609 6.02968 20.3609 5.79968V0.429688C20.3709 0.659688 18.6009 0.849686 16.4109 0.849686Z" fill="#F9BA06"/>
<path d="M16.4109 0C14.2309 0 12.4609 0.190013 12.4609 0.420013C12.4609 0.650013 14.2309 0.840012 16.4109 0.840012C18.5909 0.840012 20.3609 0.650013 20.3609 0.420013C20.3709 0.190013 18.6009 0 16.4109 0Z" fill="#FFD03B"/>
<path d="M16.4547 38.7203C14.3747 38.7203 12.4747 38.4703 10.9247 38.0703C10.7447 38.6203 10.5447 39.1603 10.3047 39.6803C11.9447 40.1703 14.0747 40.4703 16.4147 40.4703C18.7147 40.4703 20.8147 40.1803 22.4447 39.7003C22.2047 39.1803 22.0047 38.6503 21.8247 38.1103C20.3047 38.4903 18.4647 38.7203 16.4547 38.7203Z" fill="#FFD03B"/>
<path d="M27.1825 60.2109H5.3125V69.7609H27.1825V60.2109Z" fill="#060C0E"/>
<path d="M3.99219 58.8906V71.0806H28.5022V58.8906H3.99219ZM27.8422 70.4206H4.65219V59.5506H27.8422V70.4206Z" fill="#060C0E"/>
<path d="M4.64844 70.4208H27.8384V59.5508H4.64844V70.4208ZM5.30844 60.2108H27.1784V69.7608H5.30844V60.2108Z" fill="#FFD03B"/>
<path d="M8.86937 61.8008H8.35938V64.6708H10.1094V64.1708H8.86937V61.8008Z" fill="white"/>
<path d="M10.7991 61.7988H10.2891V64.6688H10.7991V61.7988Z" fill="white"/>
<path d="M12.4256 64.6995C12.8156 64.6995 13.1656 64.5595 13.4256 64.3095C13.6956 64.0395 13.8456 63.6595 13.8456 63.2395C13.8456 62.3895 13.2456 61.7695 12.4256 61.7695C11.6056 61.7695 11.0156 62.3895 11.0156 63.2395C11.0156 63.8895 11.3456 64.3995 11.8856 64.6095L11.4756 65.1895L11.8656 65.4895L12.0456 65.2195L12.3156 65.3095C12.5156 65.3795 12.6656 65.3995 12.8456 65.3995C13.0156 65.3995 13.1456 65.3695 13.3656 65.2095L13.4656 65.1395L13.2256 64.7295L13.0956 64.8195C12.9556 64.9195 12.8856 64.9295 12.8056 64.9295C12.6956 64.9295 12.5556 64.9095 12.4356 64.8595L12.3156 64.8195L12.3856 64.7095H12.4256V64.6995ZM11.5256 63.2295C11.5256 62.6495 11.8856 62.2495 12.4256 62.2495C12.9656 62.2495 13.3256 62.6395 13.3256 63.2295C13.3256 63.8195 12.9656 64.2095 12.4156 64.2095C11.8856 64.2195 11.5256 63.8195 11.5256 63.2295Z" fill="white"/>
<path d="M16.0187 63.5195C16.0187 63.6395 15.9887 64.2195 15.3787 64.2195C14.9087 64.2195 14.7387 63.8595 14.7387 63.5195V62.2795C14.7387 61.9595 14.5487 61.7695 14.2287 61.7695C14.0687 61.7695 13.8987 61.8595 13.7987 61.9895L13.7188 62.1095L14.1387 62.3995L14.2188 62.2795V63.5195C14.2188 64.2195 14.6987 64.7095 15.3787 64.7095C16.1687 64.7095 16.5287 64.0895 16.5287 63.5195V61.7995H16.0187V63.5195Z" fill="white"/>
<path d="M21.2916 63.5195C21.2916 63.6395 21.2616 64.2195 20.6516 64.2195C20.1816 64.2195 20.0116 63.8595 20.0116 63.5195V62.2795C20.0116 61.9595 19.8216 61.7695 19.5016 61.7695C19.3416 61.7695 19.1716 61.8595 19.0716 61.9895L19.0116 62.0795V61.7995H17.1316C16.9916 61.7995 16.8616 61.8495 16.7516 61.9595C16.6516 62.0595 16.6016 62.1895 16.6016 62.3395V62.4795H16.9516L17.0316 62.4595V64.6595H19.0116V64.1595H17.5516V63.3995H18.5616V62.8995H17.5516V62.2795H19.0116V62.1095L19.4116 62.3895L19.4916 62.2695V63.5095C19.4916 64.2095 19.9716 64.6995 20.6516 64.6995C21.4416 64.6995 21.8016 64.0795 21.8016 63.5095V61.7895H21.2916V63.5195Z" fill="white"/>
<path d="M24.3106 64.0788L24.1906 64.0588V64.2088L23.6606 63.5188C23.9606 63.3988 24.1606 63.0888 24.1606 62.7288C24.1606 62.3588 23.9706 62.0288 23.6706 61.8788C23.5606 61.8288 23.4406 61.7988 23.3106 61.7988H22.4206C22.2706 61.7988 22.1506 61.8588 22.0406 61.9588C21.9406 62.0688 21.8906 62.1888 21.8906 62.3288V62.4688H22.3606V64.6588H22.8706V63.6088H22.9106C23.1106 63.6288 23.2006 63.6988 23.3206 63.8688L23.8006 64.4888C23.9006 64.6188 24.0406 64.6888 24.1906 64.6888C24.4606 64.6888 24.6806 64.4788 24.6806 64.2088V64.0688L24.3106 64.0788ZM22.8606 63.1288V62.2988H23.2806C23.4906 62.2988 23.6406 62.4688 23.6406 62.7288C23.6406 62.9888 23.5006 63.1388 23.2406 63.1388H22.8606V63.1288Z" fill="white"/>
<path d="M19.9583 66.93C19.0583 66.48 17.9783 66.94 17.0083 67.51C16.8483 67.45 16.6983 67.38 16.5383 67.32C17.2883 66.91 18.0383 66.5401 18.8983 66.4701C19.0483 66.4601 19.0783 66.19 18.8983 66.21C17.9083 66.29 17.0783 66.7001 16.2083 67.1901C15.1283 66.7701 14.0183 66.43 12.8983 66.98C11.8683 67.49 12.3283 68.45 13.3883 68.46C14.4483 68.47 15.3483 67.9801 16.2583 67.4701C16.4183 67.5401 16.5783 67.6 16.7383 67.67C16.2183 67.99 15.7383 68.32 15.3483 68.54C15.2083 68.62 15.2483 68.87 15.4083 68.78C15.9583 68.47 16.4783 68.11 17.0283 67.79C17.8083 68.11 18.5983 68.4001 19.4083 68.3501C20.3683 68.3001 21.0083 67.45 19.9583 66.93ZM15.7683 67.43C15.5783 67.54 15.3783 67.65 15.1783 67.74C15.0483 67.8 14.9183 67.8601 14.7783 67.9101C14.3783 68.0601 14.0683 68.11 13.6483 68.14C13.4783 68.14 13.2583 68.1 13.0883 68.01C12.8383 67.87 12.7983 67.6201 12.9583 67.4101C13.0583 67.2701 13.2183 67.18 13.3783 67.12C14.2383 66.83 15.0783 67.03 15.9183 67.34C15.8683 67.37 15.8183 67.4 15.7683 67.43ZM19.9483 67.61C19.8283 67.81 19.6683 67.91 19.3683 68.01C18.7583 68.18 17.9483 67.86 17.3883 67.65C17.3683 67.64 17.3483 67.6301 17.3283 67.6301C17.5283 67.5301 17.7283 67.4301 17.9383 67.3501C18.2183 67.2401 18.5283 67.15 18.8383 67.11C19.3983 67.07 19.7383 67.12 19.9383 67.39C19.9883 67.45 19.9883 67.54 19.9483 67.61Z" fill="#FFD03B"/>
<path d="M13.3247 7.92047C12.8847 15.3605 13.2847 22.0905 12.8447 29.5305C12.7047 31.9105 12.9347 33.5005 12.3047 35.8005C13.5147 39.9605 13.9447 26.6305 13.9847 21.7605C14.0247 16.6205 13.9747 3.05047 13.3247 7.92047Z" fill="#3D3B40"/>
<g opacity="0.4">
<path d="M14.8086 1.92929C14.8986 1.17929 13.9086 1.23929 13.1986 1.00929C12.7186 0.849291 12.8886 2.79929 12.8886 3.50929C12.9086 5.24929 12.9686 5.49928 13.8486 5.57928C13.9986 5.58928 14.7186 5.66929 14.8586 5.62929C15.4586 5.47929 14.7186 2.68929 14.8086 1.92929Z" fill="white"/>
</g>
<g opacity="0.5">
<path d="M29.8928 50.631C27.2128 46.871 22.6628 44.3609 21.2728 39.9609C20.7928 41.5609 21.7728 43.2509 21.6428 44.9109C21.5128 46.6309 20.2228 48.0309 18.8428 49.0509C16.2328 50.9809 13.0128 52.0709 9.77283 52.1209C8.79283 52.1309 7.77283 52.0509 6.93283 51.5509C6.09283 51.0509 5.47283 50.051 5.69283 49.101C5.91283 48.141 6.89283 47.1209 6.27283 46.3409C5.30283 46.7209 4.88283 47.4409 4.88283 47.4409C4.01283 48.2709 3.28283 49.2509 2.74283 50.3209C2.58283 50.6309 2.44283 50.9609 2.47283 51.3009C2.53283 51.8409 3.01283 52.2209 3.48283 52.5009C5.54283 53.7309 7.97283 54.1909 10.3528 54.5009C16.8128 55.3609 23.6728 55.3309 29.5128 52.4309C29.8128 52.2809 30.1328 52.1009 30.2428 51.7909C30.3828 51.4009 30.1428 50.971 29.8928 50.631Z" fill="#810529"/>
</g>
<g opacity="0.2">
<path d="M8.80065 78.3106C7.60065 77.8906 7.13065 77.9406 6.16065 77.1106C4.30065 75.5006 4.15065 72.0006 3.77065 69.5706C3.02065 64.7806 2.45065 56.0006 1.61065 55.1106C1.32065 54.8006 3.05065 68.5506 3.60065 75.8906C3.64065 76.4706 3.57065 77.1106 3.86065 77.6106C4.35065 78.4906 5.54065 78.8206 6.52065 79.0306C8.67065 79.4906 10.9106 79.7706 13.0806 79.4306C12.1006 79.0906 9.79065 78.6506 8.80065 78.3106Z" fill="white"/>
</g>
<path d="M19.1219 7.23032L19.5819 7.30031C19.4619 7.04031 19.0419 7.07032 18.8619 7.29032C18.6819 7.51032 18.6719 7.83032 18.6719 8.12032C18.6919 10.1103 18.8519 12.1003 19.0219 14.0803C19.0319 11.7903 19.0519 9.51032 19.1219 7.23032Z" fill="#060C0E"/>
<path d="M19.6369 22.3803C19.5669 19.6003 19.2869 16.8403 19.0469 14.0703C19.0469 18.4803 19.1869 22.8903 19.4569 27.3003C19.6169 25.6703 19.6769 24.0203 19.6369 22.3803Z" fill="#060C0E"/>
<g opacity="0.2">
<path d="M31.2234 51.8608C29.7934 48.4108 26.0634 46.9408 23.8034 43.9708C20.7434 39.9408 20.0934 34.6208 19.7334 29.5708C19.6834 28.8108 19.6434 28.0608 19.6034 27.3008C19.2734 30.4408 18.4834 33.5008 16.8834 36.2008C17.7334 37.0608 19.4034 36.5108 20.2234 37.4108C21.0034 38.2708 20.2534 39.7408 19.1834 40.2008C18.1134 40.6608 16.8934 40.5008 15.7334 40.6308C15.4934 40.6608 15.2434 40.7008 15.0634 40.8608C14.4134 41.4208 15.2634 42.3908 15.9834 42.8508C19.7634 45.2708 22.1934 49.4208 23.3234 53.7608C24.4434 58.1008 24.3734 62.6708 23.9834 67.1408C23.6734 70.7208 22.9834 74.6408 20.2034 76.9208C18.8534 78.0208 12.6734 79.9808 11.0234 80.5408C15.6034 81.4908 28.4734 79.9008 29.2834 78.7708C30.0434 77.7108 30.0434 74.5408 30.0734 73.2308C30.1334 69.8308 30.4434 66.4308 30.9834 63.0608C31.5334 59.5408 32.5934 55.1608 31.2234 51.8608Z" fill="#060C0E"/>
</g>
<g opacity="0.2">
<path d="M10.9597 40.8906C10.5897 41.2106 10.3497 41.6806 10.3297 42.1706L10.2497 42.3406C9.63971 44.9106 7.16971 46.5106 5.15971 48.2306C4.63971 48.6706 4.09971 49.2506 4.20971 49.9206C4.33971 50.7506 5.44971 51.1006 6.20971 50.7606C6.97971 50.4306 7.44971 49.6606 7.84971 48.9206C9.06971 46.6606 9.98971 44.2606 10.9097 41.8606C11.0397 41.5506 11.1497 41.1706 10.9597 40.8906Z" fill="white"/>
</g>
<path d="M50.5953 76.8809C48.5653 76.8809 38.4453 77.0108 38.4453 79.5208C38.4453 82.0308 48.5653 82.1609 50.5953 82.1609C52.6253 82.1609 62.7353 82.0308 62.7353 79.5208C62.7453 77.0108 52.6253 76.8809 50.5953 76.8809ZM50.5953 80.8409C44.3853 80.8409 40.7753 80.0408 39.9053 79.5208C40.7753 79.0008 44.3853 78.2008 50.5953 78.2008C56.8053 78.2008 60.4153 79.0008 61.2853 79.5208C60.4153 80.0408 56.8053 80.8409 50.5953 80.8409Z" fill="#E2D3DC"/>
<path d="M62.0894 78.8609C62.0894 79.9509 56.9494 80.8409 50.5994 80.8409C44.2594 80.8409 39.1094 79.9509 39.1094 78.8609C39.1094 77.7709 44.2494 76.2109 50.5994 76.2109C56.9494 76.2109 62.0894 77.7709 62.0894 78.8609Z" fill="#F4EEED"/>
<g opacity="0.3">
<path d="M60.0947 78.1507C59.0147 77.4707 57.7347 77.2007 56.4647 77.0207C55.3047 76.8607 53.3347 76.5107 52.1547 76.4907C51.3447 76.4807 50.1347 76.6407 49.5547 77.2007C50.3647 77.5007 53.8147 77.2007 52.5647 76.9907C53.2647 76.9307 54.5847 77.3307 55.1847 77.7107C55.4547 77.8807 55.7247 78.1807 55.6047 78.4707C55.5547 78.6107 55.4247 78.7007 55.2947 78.7807C53.9947 79.5507 52.1547 79.1107 51.0347 80.1107C54.0347 80.4507 57.1047 80.1307 59.9747 79.1907C60.1947 79.1207 60.4447 79.0107 60.4947 78.7907C60.5647 78.5207 60.3247 78.2907 60.0947 78.1507Z" fill="#960636"/>
</g>
<path d="M62.8681 50.4894L60.1781 42.8594H41.0281L38.3381 50.4894C37.7781 52.0894 37.4681 53.7794 37.5881 55.4694C37.9481 60.4394 40.8981 63.7494 45.6681 66.8894C47.3781 68.0094 48.8081 68.5994 48.8081 70.6494L49.1381 77.0394C49.1381 77.0394 49.0581 77.2694 50.6081 77.2694C51.9181 77.2694 52.0781 77.0394 52.0781 77.0394L52.4081 70.6394C52.4081 68.5994 53.8381 68.0094 55.5481 66.8794C60.3181 63.7394 63.2581 60.4294 63.6281 55.4594C63.7381 53.7794 63.4281 52.0794 62.8681 50.4894Z" fill="#DDCAD8"/>
<path d="M62.0611 50.6313L59.5111 42.8613H41.6911L39.1411 50.6313C38.6611 52.1113 38.3811 53.6613 38.4811 55.2113C38.6511 57.7413 39.5911 59.3913 41.1711 60.9113C46.2111 65.7613 54.9811 65.7613 60.0211 60.9113C61.6011 59.3913 62.5411 57.7413 62.7111 55.2113C62.8211 53.6613 62.5511 52.1013 62.0611 50.6313Z" fill="#F2EAE9"/>
<path d="M41.8047 42.9013C42.0247 43.2813 44.9147 44.1913 50.5947 44.1913C56.1047 44.1913 58.9847 43.3413 59.3647 42.8613C58.9847 42.3813 56.1047 41.5313 50.5947 41.5313C44.9147 41.5213 42.0247 42.4313 41.8047 42.9013Z" fill="#F2EAE9"/>
<path d="M50.5956 40.6406C49.6156 40.6406 41.0156 40.7006 41.0156 42.8606C41.0156 45.0106 49.6156 45.0806 50.5956 45.0806C51.5756 45.0806 60.1756 45.0206 60.1756 42.8606C60.1756 40.7006 51.5756 40.6406 50.5956 40.6406ZM50.5956 44.1806C44.9156 44.1806 42.0256 43.2706 41.8056 42.8906C42.0256 42.4306 44.9156 41.5206 50.5956 41.5206C56.0956 41.5206 58.9856 42.3706 59.3656 42.8506C58.9856 43.3306 56.1056 44.1806 50.5956 44.1806Z" fill="#E1DEDD"/>
<path d="M62.0611 50.6306L61.8711 50.0605C61.1011 50.5405 57.4011 51.3205 50.6411 51.3205C43.5411 51.3205 39.8111 50.4705 39.3211 50.0705L39.1411 50.6306C38.6611 52.1106 38.3811 53.6605 38.4811 55.2105C38.6511 57.7405 39.5911 59.3906 41.1711 60.9106C46.2111 65.7606 54.9811 65.7606 60.0211 60.9106C61.6011 59.3906 62.5411 57.7405 62.7111 55.2105C62.8211 53.6605 62.5511 52.1006 62.0611 50.6306Z" fill="#D30258"/>
<path d="M61.9803 49.9811C61.9403 49.9511 61.8903 49.9111 61.8203 49.8711L61.8803 50.0511C61.9203 50.0311 61.9503 50.0011 61.9803 49.9811Z" fill="#E1DEDD"/>
<path d="M39.2812 50.0197C39.2912 50.0297 39.3113 50.0497 39.3313 50.0597L39.3712 49.9297C39.3312 49.9697 39.2912 49.9997 39.2812 50.0197Z" fill="#E1DEDD"/>
<path d="M61.8781 50.0602L61.8181 49.8802C60.9281 49.3902 57.2481 48.6602 50.6481 48.6602C43.7481 48.6602 40.0281 49.4602 39.3681 49.9402L39.3281 50.0701C39.8181 50.4701 43.5481 51.3201 50.6481 51.3201C57.4081 51.3101 61.1081 50.5402 61.8781 50.0602Z" fill="#F24976"/>
<path d="M42.8984 63.041C43.0884 63.271 43.2784 63.491 43.4984 63.701C47.3184 67.381 53.9784 67.381 57.8084 63.701C58.0284 63.491 58.2184 63.261 58.4084 63.041C53.9784 66.251 47.3284 66.251 42.8984 63.041Z" fill="#A81156"/>
<g opacity="0.3">
<path d="M51.2645 45.4812C49.2245 45.5712 48.7945 45.5512 47.2245 45.4812C45.6545 45.4112 42.4445 44.9312 41.4545 43.7012C41.0845 44.8412 40.7045 45.9912 40.3345 47.1312C39.7245 49.0012 38.8445 50.9012 38.5945 52.8412C38.3445 54.7912 38.5345 56.7712 39.3645 58.5612C40.0845 60.1112 43.4545 66.4712 51.3145 65.5012C36.9745 58.6112 46.0945 45.3812 51.2645 45.4812Z" fill="#FFD03B"/>
</g>
<path d="M43.9683 46.0003C43.2883 45.8603 42.6183 45.7103 41.9383 45.5703C39.3183 49.7403 39.4283 55.4603 42.2183 59.5303C40.8683 56.4403 40.8283 52.7903 42.1283 49.6803C42.5883 48.5803 43.2383 47.5103 44.2283 46.8503C44.3583 46.7603 44.5083 46.6703 44.5383 46.5103C44.6083 46.2203 44.2483 46.0603 43.9683 46.0003Z" fill="white"/>
<g opacity="0.2">
<path d="M62.1878 51.7606C61.6578 49.2206 60.6378 46.3006 59.6778 43.8906C57.7678 45.0006 54.2778 45.1506 52.2778 45.2806C56.0078 48.5106 58.5178 53.9306 57.3378 58.7206C57.0278 59.9806 56.4678 61.2206 55.5278 62.1206C54.3678 63.2306 52.7378 63.7106 51.1478 63.8706C48.9878 64.0906 46.7678 63.7706 44.7578 62.9506C45.6378 64.3706 47.4578 64.8506 49.1178 65.0106C51.5278 65.2406 54.0078 65.0206 56.2578 64.1106C58.4978 63.2006 60.4778 61.5406 61.5478 59.3706C62.6878 57.0406 62.7178 54.3006 62.1878 51.7606Z" fill="#960636"/>
</g>
<g opacity="0.2">
<path d="M62.0697 51.151C61.4697 48.981 60.4297 46.961 59.3997 44.961C59.3297 44.821 59.2497 44.681 59.1097 44.621C58.9297 44.541 58.7297 44.621 58.5497 44.701C58.0297 44.931 57.4997 44.961 56.9797 45.191C56.9797 45.191 56.4897 45.271 56.3697 45.361C55.9797 45.651 56.5097 46.411 56.7897 46.801C58.1297 48.671 59.3697 50.661 59.9797 52.871C60.5997 55.081 60.5297 57.571 59.3797 59.561C58.8597 60.461 58.1397 61.231 57.3397 61.891C56.0497 62.971 54.5397 63.781 52.9297 64.281C56.7897 63.731 60.6597 61.471 61.9997 57.801C62.7997 55.681 62.6697 53.321 62.0697 51.151Z" fill="#060C0E"/>
</g>
<g opacity="0.5">
<path d="M48.4044 68.2828C48.3044 68.1628 48.1844 68.0528 48.0644 67.9428C48.0344 67.9228 48.0144 67.9028 47.9844 67.8828L48.4044 68.2828Z" fill="#960636"/>
</g>
<g opacity="0.5">
<path d="M50.8566 67.6516C49.6366 67.8316 48.3466 67.7616 47.2266 67.2516C47.5366 67.4516 47.8166 67.6816 48.0766 67.9416C48.5666 68.2316 48.9166 68.7615 48.9766 69.3315C49.0066 69.6115 49.0666 70.0015 49.3466 69.9915C49.5666 69.9815 49.6566 69.7215 49.8166 69.5815C50.1066 69.3215 50.5966 69.4916 50.8066 69.8116C51.0166 70.1316 51.0266 70.5415 51.0366 70.9215C51.0466 72.1615 51.0666 73.4016 51.0766 74.6316C51.0766 75.0516 51.0866 75.4916 50.9266 75.8816C50.7666 76.2716 50.4166 76.6216 49.9866 76.6316C50.3266 77.1116 51.1366 76.9415 51.4766 76.4615C51.8166 75.9815 51.8166 75.3515 51.8066 74.7615C51.7866 73.6215 51.7666 72.4715 51.7466 71.3315C51.7266 70.3415 51.7466 69.2615 52.3566 68.4815C52.9366 67.7515 53.9566 67.4216 54.3966 66.6016C53.2466 67.0616 52.0766 67.4716 50.8566 67.6516Z" fill="#960636"/>
</g>
<path d="M50.318 71.3301C50.298 71.1201 50.268 70.9001 50.138 70.7301C50.008 70.5601 49.748 70.4701 49.578 70.5901C49.358 70.7501 49.478 70.7601 49.478 70.7601C49.478 72.1001 49.478 73.4301 49.488 74.7701C49.488 75.2401 49.538 75.8101 49.948 76.0401C50.348 74.5101 50.478 72.9001 50.318 71.3301Z" fill="white"/>
<g opacity="0.2">
<path d="M49.3715 77.9498C49.0215 77.6198 48.7315 77.2198 48.3215 76.9998C48.1315 76.8998 47.9015 76.8598 47.6915 76.8698L47.7515 76.8398C45.5515 77.1498 43.3615 77.5799 41.2015 78.1299C40.9915 78.1799 40.7615 78.2498 40.6015 78.3898C40.4315 78.5398 40.3515 78.7998 40.4715 78.9898C40.5615 79.1298 40.7315 79.1898 40.9015 79.2298C43.4915 79.9598 46.2415 80.1398 48.9015 79.7498C49.3915 79.6798 49.9915 79.4798 50.0415 78.9798C50.0815 78.5498 49.6815 78.2398 49.3715 77.9498Z" fill="#FFD03B"/>
</g>
<path d="M47.8228 77.4209C47.2728 77.1209 46.6128 77.0409 46.0128 77.1909C46.0128 77.1909 44.3028 77.8509 43.1328 78.2909C43.1428 78.5909 43.5428 78.6909 43.8428 78.7009C44.5928 78.7209 45.3328 78.7409 46.0828 78.7609C46.8128 78.7809 47.6928 78.7209 48.0528 78.0809C48.1128 77.9809 48.1528 77.8609 48.1228 77.7509C48.0928 77.6009 47.9628 77.4909 47.8228 77.4209Z" fill="white"/>
<path d="M45.3366 81.081C44.2866 80.891 43.2166 80.861 42.1666 80.691C41.1166 80.521 40.0566 80.211 39.2266 79.541L39.2666 79.581C39.1866 79.981 39.6166 80.291 39.9966 80.451C41.5466 81.121 43.2466 81.441 44.9366 81.391C45.1566 81.381 45.3866 81.371 45.5666 81.241C45.5466 81.141 45.4266 81.091 45.3366 81.081Z" fill="white"/>
<g opacity="0.5">
<path d="M61.9009 79.2902L61.8509 79.2402C61.9509 79.3402 61.8409 79.5102 61.7309 79.6102C60.7009 80.4602 59.2609 80.5702 57.9309 80.6902C56.1009 80.8402 54.2809 81.0602 52.4609 81.3302C52.7309 81.5902 53.1509 81.5702 53.5309 81.5402C55.6709 81.3702 57.7909 81.1302 59.9109 80.8002C60.5109 80.7102 61.1309 80.6002 61.6009 80.2202C61.8809 80.0002 62.1009 79.5902 61.9009 79.2902Z" fill="#960636"/>
</g>
</svg>
