<svg width="45" height="90" viewBox="0 0 45 90" fill="none" xmlns="http://www.w3.org/2000/svg">
<g id="Group">
<g id="Group_2">
<g id="Group_3">
<path id="Vector" d="M20.55 87.2606V30.5906C20.55 27.6106 18.98 24.8506 16.41 23.3306L16.39 23.3206C14.81 22.3806 13.84 20.6806 13.84 18.8406V5.89062C13.84 6.10062 12.22 6.28062 10.22 6.28062C8.22 6.28062 6.60001 6.11062 6.60001 5.89062V18.8606C6.60001 20.6806 5.63999 22.3706 4.07999 23.3206C1.54999 24.8506 0 27.5906 0 30.5506V87.3206C0 88.2806 4.6 89.0606 10.28 89.0606C15.96 89.0606 20.56 88.2806 20.56 87.3206C20.56 87.3006 20.55 87.2806 20.55 87.2606Z" fill="#5B102B"/>
</g>
<g id="Group_4">
<path id="Vector_2" d="M10.2678 0.85968C8.04782 0.85968 6.25781 0.669687 6.25781 0.429688V5.87968C6.25781 6.11968 8.05782 6.30968 10.2678 6.30968C12.4878 6.30968 14.2778 6.11968 14.2778 5.87968V0.429688C14.2878 0.669687 12.4878 0.85968 10.2678 0.85968Z" fill="#010101"/>
</g>
<g id="Group_5">
<path id="Vector_3" d="M10.2678 0C8.04782 0 6.25781 0.190008 6.25781 0.430008C6.25781 0.670008 8.05782 0.860001 10.2678 0.860001C12.4878 0.860001 14.2778 0.670008 14.2778 0.430008C14.2878 0.200008 12.4878 0 10.2678 0Z" fill="#4D4D4D"/>
</g>
<g id="Group_6">
<path id="Vector_4" d="M17.7403 43.4609H2.82031V75.1709H17.7403V43.4609Z" fill="#89022C"/>
</g>
<g id="Group_7">
<g id="Group_8" opacity="0.7">
<g id="Group_9">
<path id="Vector_5" d="M18.588 28.18C18.518 27.82 18.318 27.48 18.008 27.29C17.668 27.09 17.258 27.09 16.858 27.08C14.328 27.03 11.808 26.34 9.608 25.09C8.718 24.59 7.878 23.99 6.918 23.65C6.228 23.41 5.45801 23.32 4.76801 23.49C2.84801 24.6 1.43801 26.6 1.09801 28.8C1.03801 29.18 1.018 29.59 1.188 29.94C1.328 30.21 1.56801 30.42 1.81801 30.59C3.25801 31.59 5.08802 31.81 6.84802 31.92C9.78802 32.11 12.778 32.08 15.618 31.29C16.378 31.08 17.148 30.8 17.748 30.28C18.348 29.77 18.748 28.96 18.588 28.18Z" fill="#89022C"/>
</g>
</g>
<g id="Group_10">
<path id="Vector_6" d="M4.67188 23.5103C4.70187 23.5003 4.74189 23.5003 4.78189 23.4903C5.06189 23.3303 5.35189 23.1903 5.65189 23.0703L4.67188 23.5103Z" fill="#89022C"/>
</g>
<g id="Group_11">
<path id="Vector_7" d="M4.66656 23.5098C4.42656 23.5798 4.19656 23.6798 3.97656 23.8198L4.66656 23.5098Z" fill="#89022C"/>
</g>
</g>
<g id="Group_12">
<path id="Vector_8" d="M1.5 42.1309V76.4909H19.07V42.1309H1.5ZM17.74 75.1709H2.82001V43.4609H17.74V75.1709Z" fill="#F9D006"/>
</g>
<g id="Group_13" opacity="0.4">
<path id="Vector_9" d="M16.5016 31.5898C16.6916 31.5398 16.9016 31.5198 17.0916 31.5498C16.9716 31.4098 16.8515 31.2698 16.7315 31.1198C16.7515 31.1298 16.7815 31.1298 16.8015 31.1398C16.7615 31.0398 16.7016 30.9398 16.6316 30.8598C16.6416 30.8698 16.6616 30.8698 16.6616 30.8498C16.6616 30.8398 16.6616 30.8198 16.6516 30.8098C16.6116 30.7198 16.5615 30.6398 16.4915 30.5698C16.4215 30.4998 16.3315 30.4598 16.2315 30.4698C16.1415 30.4798 16.0416 30.5298 15.9716 30.4798C15.9616 30.4698 15.9515 30.4598 15.9515 30.4398C15.9515 30.4198 15.9715 30.4098 15.9815 30.3998C16.1115 30.3298 16.2915 30.4898 16.4215 30.4198C16.4515 30.3998 16.4816 30.3698 16.5016 30.3498C16.5816 30.2498 16.6615 30.1498 16.7315 30.0498C16.7815 29.9698 16.8316 29.8898 16.8216 29.7998C16.8116 29.7198 16.7416 29.6498 16.6616 29.6098C16.5816 29.5798 16.4916 29.5698 16.4116 29.5798C16.3416 29.5898 16.2715 29.5998 16.2115 29.5698C16.1815 29.5598 16.1616 29.5398 16.1316 29.5398C16.1016 29.5298 16.0716 29.5398 16.0416 29.5398C15.9516 29.5598 15.8616 29.5898 15.7816 29.6298C15.7216 29.6598 15.6516 29.6898 15.6016 29.6498C15.5516 29.5998 15.6115 29.5098 15.6815 29.4898C15.7515 29.4698 15.8315 29.4798 15.8915 29.4398C16.0115 29.3598 15.9815 29.1498 16.1115 29.0898C15.9615 29.0998 15.8015 29.0898 15.6516 29.0498C15.6315 29.0398 15.6116 29.0398 15.5916 29.0198C15.5816 29.0098 15.5715 28.9898 15.5515 28.9898C15.5415 28.9798 15.5216 28.9898 15.5016 28.9898C15.1616 29.0898 14.9315 29.4698 15.0115 29.8198C15.0315 29.8898 15.0616 29.9698 15.0616 30.0398C15.0616 30.0698 15.0516 30.0998 15.0416 30.1298C14.7916 29.8598 14.5715 29.5598 14.2615 29.4098C13.8215 29.1998 13.0616 29.5898 12.8416 29.0698C13.0316 28.6998 12.9516 28.1098 14.0716 28.1198C13.7616 27.8198 13.5116 27.3998 12.7216 27.5098C12.6816 27.5198 12.4216 28.0798 12.4116 28.3198C12.3916 28.6098 12.2915 28.6898 12.2115 28.7598C11.9415 29.0198 11.2416 28.8098 10.8716 28.7898C10.6816 28.7798 9.31155 28.4998 8.37155 28.4298C8.36155 28.3698 8.38155 28.2998 8.43155 28.2498C8.66155 28.0298 9.05154 28.0598 9.30154 27.8598C9.54154 27.6698 9.60155 27.3198 9.52155 27.0298C9.44155 26.7398 9.25156 26.4898 9.07156 26.2498C8.96156 26.1098 8.85156 25.9698 8.75156 25.8298C8.70156 25.7698 8.65156 25.6998 8.57156 25.6898C8.49156 25.6798 8.41154 25.7598 8.45154 25.8298C8.32154 25.7198 8.19155 25.6198 8.06155 25.5098C8.02155 25.7398 8.07154 25.9798 8.20154 26.1798C8.33154 26.3698 8.53155 26.5898 8.43155 26.7898C8.42155 26.8198 8.39155 26.8498 8.37155 26.8598C8.27155 26.9098 8.16154 26.8098 8.11154 26.7098C8.01154 26.4798 8.01155 26.2098 7.90155 25.9898C7.76155 25.7298 7.44155 25.5798 7.15155 25.6298C7.17155 25.6398 7.18154 25.6598 7.17154 25.6798C7.15154 25.7098 7.11154 25.7098 7.08154 25.7098C6.86154 25.7098 6.64154 25.6998 6.42154 25.6998C6.47154 25.7398 6.51155 25.7698 6.56155 25.8098C6.32155 25.8498 6.08155 25.8798 5.84155 25.8798C6.02155 26.2798 6.29156 26.6398 6.63156 26.9098C6.69156 26.9598 6.76156 27.0098 6.79156 27.0898C6.82156 27.1698 6.78154 27.2698 6.70154 27.2798C6.63154 27.2898 6.57155 27.2198 6.52155 27.1598C6.23155 26.7998 5.70156 26.6598 5.28156 26.8398C5.31156 26.8398 5.33155 26.8898 5.31155 26.9198C5.29155 26.9498 5.25156 26.9598 5.22156 26.9598C5.07156 26.9898 4.92155 27.0198 4.77155 27.0398C4.85155 27.0198 4.93154 27.0498 4.98154 27.1098C4.73154 27.2198 4.48154 27.3298 4.23154 27.4398C4.27154 27.4698 4.31154 27.4898 4.36154 27.5198C4.07154 27.8098 3.72156 28.0398 3.35156 28.1898C3.70156 28.3198 4.06156 28.4498 4.41156 28.5798C4.36156 28.5898 4.31155 28.5998 4.27155 28.6098C4.44155 28.7498 4.64154 28.8698 4.86154 28.9398C4.83154 28.9198 4.80155 28.9598 4.81155 28.9898C4.82155 29.0198 4.84155 29.0398 4.87155 29.0598C5.03155 29.1698 5.20154 29.2798 5.39154 29.3198C5.58154 29.3698 5.79154 29.3498 5.95154 29.2398C6.10154 29.1298 6.22155 28.9398 6.40155 28.9598C6.43155 28.9598 6.47154 28.9798 6.48154 29.0098C6.49154 29.0398 6.48155 29.0798 6.46155 29.0998C6.30155 29.3598 5.82155 29.2498 5.65155 29.5098C5.61155 29.5698 5.59154 29.6498 5.58154 29.7198C5.54154 29.9698 5.50154 30.2298 5.48154 30.4898C5.47154 30.6798 5.46154 30.8798 5.58154 31.0298C5.69154 31.1698 5.87154 31.2198 6.05154 31.1998C6.22154 31.1798 6.38156 31.0998 6.53156 30.9998C6.64156 30.9198 6.76154 30.8298 6.89154 30.8098C6.95154 30.7998 7.01156 30.7998 7.07156 30.7798C7.13156 30.7598 7.18154 30.7198 7.23154 30.6798C7.37154 30.5598 7.49155 30.4098 7.59155 30.2498C7.66155 30.1398 7.76156 29.9998 7.88156 30.0398C7.94156 30.0598 7.97156 30.1098 7.97156 30.1798C7.57156 30.4598 7.21155 30.7998 6.93155 31.2098C6.50155 31.8398 6.25154 32.6698 6.39154 33.4398C6.14154 33.4998 5.90156 33.6298 5.72156 33.8198C5.33156 34.2498 5.44156 34.9298 5.75156 35.3898C5.41156 35.9398 5.74155 36.7898 6.09155 37.3198C6.13155 37.3798 6.35154 37.3398 6.30154 37.2698C6.09154 36.9498 5.86156 36.5998 5.82156 36.1998C5.79156 35.9798 5.81155 35.7698 5.90155 35.5598C6.20155 35.8698 6.61155 35.9898 6.96155 35.6198C7.45155 35.1098 6.64155 34.8298 6.24155 34.9898C6.08155 35.0598 5.95154 35.1398 5.86154 35.2498C5.66154 34.9598 5.59154 34.5598 5.70154 34.2298C5.80154 33.9098 6.12155 33.7498 6.46155 33.6898C6.49155 33.7798 6.52155 33.8598 6.56155 33.9498C6.72155 34.2898 7.09154 34.6898 7.51154 34.4498C8.03154 34.1398 7.54155 33.5898 7.15155 33.4598C6.98155 33.4098 6.81156 33.3898 6.63156 33.3998C6.62156 33.3498 6.61154 33.3198 6.61154 33.2998C6.56154 32.9398 6.59155 32.5698 6.68155 32.2198C6.83155 31.6498 7.16156 31.1398 7.57156 30.7098C7.46156 30.9598 7.71157 31.3098 7.54156 31.5298C7.80157 31.3498 8.09155 31.2198 8.40155 31.1398C8.44155 31.1298 8.49156 31.1198 8.53156 31.1298C8.56156 31.1398 8.60156 31.1598 8.63156 31.1498C8.66156 31.1498 8.69155 31.1198 8.71155 31.0998C9.05155 30.7498 9.17155 30.2198 9.06155 29.7398C9.86155 29.4398 10.7216 29.3398 11.6016 29.1798C11.8216 29.1398 12.1216 29.0198 12.3116 28.8398C12.2716 28.9298 12.2315 29.0098 12.1715 29.0898C11.9615 29.3798 11.6115 29.5298 11.4615 29.8598C11.4315 29.9298 11.3816 30.0698 11.3716 30.1598C11.2216 30.1498 11.0515 30.2098 10.9215 30.2698C10.7215 30.3498 10.5415 30.4498 10.3615 30.5698C10.3415 30.5298 10.3315 30.4998 10.3315 30.4998C10.0315 30.2298 9.52155 30.2298 9.21155 30.4898C9.05155 30.6298 8.94154 30.8298 8.86154 31.0298C8.77154 31.2398 8.70155 31.4798 8.74155 31.6998C8.75155 31.7298 8.76155 31.7698 8.77155 31.7998C8.61155 31.8798 8.34155 32.0298 8.21155 32.2498C8.02155 32.5798 7.96154 32.9798 8.05154 33.3498C8.12154 33.6298 8.30154 33.8998 8.58154 33.9498C8.61154 33.9498 8.63156 33.9498 8.66156 33.9498C8.54156 34.2298 8.52155 34.5398 8.53156 34.8498C8.54156 35.1598 8.60155 35.5098 8.84155 35.7098C9.08155 35.9198 9.45154 35.8898 9.73154 35.7198C9.63154 35.8598 9.56154 36.0098 9.51154 36.1698C9.43154 36.4798 9.45154 36.8198 9.55154 37.1298C9.61154 37.3098 9.70154 37.4798 9.83154 37.6198C9.96154 37.7598 10.1516 37.8398 10.3416 37.8298C10.3616 37.8298 10.3916 37.8198 10.4116 37.8198C10.2816 37.9298 10.1715 38.0698 10.1115 38.2298C10.0315 38.4498 10.0316 38.6898 10.0716 38.9098C10.1316 39.2698 10.2916 39.6298 10.6016 39.8098C10.7216 39.8698 10.8515 39.9098 10.9815 39.8798C11.2415 39.8298 11.4016 39.5698 11.5016 39.3198C11.6016 39.0798 11.6915 38.8398 11.7115 38.5798C11.7315 38.3198 11.6715 38.0498 11.5115 37.8498C11.5015 37.8398 11.4916 37.8298 11.4716 37.8098C11.5716 37.8598 11.6916 37.8798 11.8116 37.8598C12.0716 37.8098 12.2315 37.5498 12.3315 37.2998C12.4315 37.0598 12.5216 36.8198 12.5416 36.5598C12.5416 36.4998 12.5416 36.4398 12.5416 36.3798C12.6516 36.4798 12.7916 36.5498 12.9416 36.5398C13.2516 36.5198 13.4616 36.1998 13.5316 35.8898C13.6216 35.4998 13.5616 35.0998 13.4416 34.7198C13.5116 34.7598 13.5915 34.7898 13.6715 34.8098C13.8415 34.8598 14.0215 34.8798 14.1815 34.8298C14.4615 34.7398 14.6315 34.4298 14.6415 34.1398C14.6515 33.8498 14.5416 33.5598 14.4016 33.2998C14.2716 33.0598 14.1116 32.8298 13.9016 32.6698C13.6816 32.5098 13.4015 32.4198 13.1415 32.4798C13.1015 32.4898 13.0716 32.4998 13.0316 32.5198C13.0216 32.3498 13.0115 32.1698 12.9615 32.0098C13.0915 32.0798 13.2316 32.1198 13.3816 32.1198C13.6516 32.1198 13.9316 31.9398 13.9716 31.6798C13.9916 31.5498 13.9516 31.4098 13.9016 31.2898C13.8116 31.0498 13.6915 30.8198 13.5515 30.6098C13.4415 30.4498 13.3215 30.2898 13.1415 30.2198C13.0315 30.1698 12.9016 30.1598 12.7816 30.1898C12.5916 30.1798 12.4116 30.2798 12.2916 30.4198C12.1616 30.3798 12.0316 30.3298 11.9116 30.2898C11.8616 30.2698 11.8215 30.2598 11.7715 30.2398C12.0315 29.7498 12.3415 29.5498 12.7015 29.1998C12.8615 29.4498 13.1315 29.5298 13.4815 29.5098C13.8115 29.4798 13.6715 29.1898 14.2315 29.5098C14.4315 29.6298 14.5615 29.8798 14.7415 30.0298C14.8115 30.0898 14.8815 30.1498 14.9515 30.2198H14.9416C14.7916 30.2598 14.6316 30.1498 14.4716 30.1698C14.3216 30.1898 14.2115 30.3298 14.1815 30.4698C14.1415 30.6098 14.1615 30.7698 14.1815 30.9098C14.1915 30.9998 14.2016 31.0798 14.2216 31.1698C14.2316 31.2098 14.2315 31.2498 14.2615 31.2698C14.2915 31.2898 14.3516 31.2798 14.3416 31.2398C14.3716 31.3198 14.4015 31.3898 14.4315 31.4698C14.5015 31.3798 14.5416 31.2698 14.5316 31.1498C14.5216 31.0398 14.4915 30.8998 14.5815 30.8298C14.5915 30.8198 14.6116 30.8198 14.6216 30.8198C14.6816 30.8198 14.7016 30.8898 14.6916 30.9498C14.6816 31.0698 14.6115 31.1798 14.6115 31.3098C14.6115 31.4598 14.7116 31.5998 14.8416 31.6398C14.8416 31.6298 14.8316 31.6198 14.8416 31.6198C14.8516 31.6098 14.8716 31.6198 14.8816 31.6298C14.9716 31.6798 15.0616 31.7398 15.1616 31.7898C15.1516 31.7598 15.1416 31.7398 15.1316 31.7098C15.2416 31.7498 15.3515 31.7998 15.4615 31.8498C15.4815 31.6398 15.4516 31.4198 15.3816 31.2198C15.3716 31.1798 15.3515 31.1398 15.3615 31.1098C15.3715 31.0698 15.4116 31.0398 15.4416 31.0498C15.4716 31.0598 15.4815 31.1098 15.4915 31.1398C15.5215 31.3598 15.7216 31.5498 15.9416 31.5798C15.9316 31.5698 15.9315 31.5498 15.9515 31.5398C15.9715 31.5298 15.9816 31.5398 16.0016 31.5398C16.0716 31.5598 16.1415 31.5898 16.2115 31.6098C16.1715 31.5998 16.1415 31.5698 16.1415 31.5298C16.2715 31.5398 16.4116 31.5598 16.5416 31.5698C16.5216 31.6298 16.5116 31.6098 16.5016 31.5898ZM7.45154 34.2698C7.10154 34.6998 6.82154 34.1198 6.67154 33.6898C7.22154 33.6798 7.73154 33.9198 7.45154 34.2698ZM11.3116 29.1398C11.2016 29.1598 11.0715 29.1598 10.9515 29.1798C10.7415 29.2098 10.5315 29.2398 10.3315 29.2798C9.87154 29.3698 9.42155 29.4798 8.99155 29.6498C8.93155 29.4698 8.84155 29.3098 8.71155 29.1698C8.61155 29.0498 8.48155 28.9598 8.40155 28.8198C8.35155 28.7298 8.33156 28.6298 8.35156 28.5298C9.47156 28.6398 11.4415 29.0598 11.8915 28.9798C11.9715 28.9698 11.7216 29.1298 11.3116 29.1398ZM9.86154 33.5898C9.79154 33.5298 9.65155 33.4598 9.65155 33.4598C9.56155 33.4298 9.47156 33.4198 9.38156 33.4198C9.43156 33.3198 9.48155 33.2098 9.52155 33.0998C9.61155 32.8598 9.68154 32.5998 9.64154 32.3498C9.63154 32.2598 9.60155 32.1798 9.56155 32.0998C9.59155 32.0798 9.61154 32.0698 9.64154 32.0498C9.87154 31.8898 10.0615 31.6998 10.2115 31.4698C10.3415 31.2798 10.4416 31.0598 10.4116 30.8298C10.4116 30.7998 10.4015 30.7598 10.3915 30.7198C10.4615 30.6698 10.5316 30.6198 10.6016 30.5698C10.7416 30.4898 11.1915 30.1598 11.3315 30.2998C11.3315 30.2998 11.3115 30.4198 11.3015 30.4798C11.2515 30.9298 11.1216 31.2498 10.9016 31.5298C10.7616 31.4898 10.4315 31.4498 10.2715 31.5498C9.91155 31.7798 9.68156 32.1898 9.63156 32.6098C9.60156 32.8898 9.65154 33.1898 9.83154 33.4098C9.97154 33.5798 10.2115 33.6798 10.4315 33.6398C10.4115 33.6698 10.3916 33.7098 10.3816 33.7398C10.2916 33.9298 10.2315 34.1398 10.2115 34.3498C10.1915 34.0798 10.1015 33.7698 9.86154 33.5898ZM10.3516 35.3598C10.2316 35.3398 10.1115 35.3998 10.0215 35.4798L10.0416 35.4498C10.0216 35.4598 10.0115 35.4698 9.99155 35.4798C10.1415 35.2598 10.2116 34.9798 10.2216 34.7098C10.2316 34.7598 10.2315 34.7998 10.2415 34.8498C10.2915 35.0798 10.4016 35.2898 10.5616 35.4498C10.4916 35.4098 10.4216 35.3698 10.3516 35.3598ZM11.1516 31.9398C11.1316 31.8498 11.0915 31.7698 11.0515 31.6898C11.1615 31.5698 11.2716 31.4298 11.3416 31.2798C11.4116 31.1498 11.4516 31.0098 11.4716 30.8598C11.5316 30.9898 11.6016 31.1298 11.6516 31.2598C11.5216 31.3198 11.3816 31.4098 11.2916 31.5598C11.2316 31.6898 11.1816 31.8098 11.1516 31.9398ZM10.7115 35.6098C10.6915 35.5798 10.6716 35.5598 10.6516 35.5398C10.7316 35.5998 10.8116 35.6598 10.9016 35.6998C11.0816 35.7798 11.2915 35.7998 11.4615 35.7198C11.4315 35.7298 11.4016 35.7498 11.3816 35.7598C11.2216 35.8498 11.0916 35.9798 11.0016 36.1398C10.9216 35.9398 10.8315 35.7598 10.7115 35.6098ZM10.9716 37.6298C10.9016 37.6298 10.8216 37.6398 10.7516 37.6598C10.8416 37.5598 10.9216 37.4398 10.9716 37.3098C11.0216 37.4498 11.1016 37.5798 11.1916 37.6798C11.1216 37.6498 11.0516 37.6298 10.9716 37.6298ZM12.4215 33.7698C12.4815 33.7598 12.5315 33.7298 12.5815 33.7098C12.6015 33.7998 12.6216 33.8798 12.6516 33.9598C12.5416 33.9698 12.4216 34.0098 12.3516 34.0898C12.3516 34.0898 12.0716 34.3198 12.0316 34.5598C11.9616 34.9598 11.9915 35.3698 12.1115 35.7498C12.0215 35.6698 11.9116 35.6298 11.7916 35.6298C11.6816 35.6298 11.5815 35.6598 11.4815 35.6998C11.7815 35.5398 11.8616 35.1498 11.8716 34.8098C11.8716 34.2798 11.7515 33.7198 11.3915 33.3198C11.3015 33.2198 11.1716 33.1198 11.0316 33.1298C11.1116 33.0098 11.1715 32.8898 11.2115 32.7598C11.2215 32.7998 11.2416 32.8398 11.2516 32.8698C11.3516 33.1198 11.5116 33.3598 11.7216 33.5398C11.9216 33.7098 12.1815 33.8198 12.4215 33.7698ZM12.2115 30.5798C12.2115 30.5898 12.2115 30.5898 12.2115 30.5798C12.1115 30.7698 12.1016 30.9898 12.1616 31.1998C12.1216 31.1898 12.0816 31.1798 12.0416 31.1798C12.0416 31.1798 11.9716 31.1798 11.8716 31.1998C11.7916 31.0098 11.6816 30.8198 11.6216 30.6198C11.6516 30.5498 11.6815 30.4798 11.7115 30.3998C11.8715 30.4698 12.0415 30.5198 12.2115 30.5798Z" fill="black"/>
</g>
<g id="Group_14" opacity="0.6">
<path id="Vector_10" d="M16.2572 31.7089C16.4472 31.6589 16.6572 31.6389 16.8472 31.6689C16.7272 31.5289 16.6072 31.3889 16.4972 31.2389C16.5172 31.2489 16.5472 31.2489 16.5672 31.2589C16.5272 31.1589 16.4672 31.0589 16.3972 30.9789C16.4072 30.9889 16.4272 30.9889 16.4272 30.9689C16.4272 30.9589 16.4272 30.9389 16.4172 30.9289C16.3772 30.8389 16.3272 30.7589 16.2572 30.6889C16.1872 30.6189 16.0972 30.5789 15.9972 30.5889C15.9072 30.5989 15.8072 30.6489 15.7372 30.5989C15.7272 30.5889 15.7172 30.5789 15.7172 30.5589C15.7172 30.5389 15.7372 30.5289 15.7472 30.5189C15.8772 30.4489 16.0572 30.6089 16.1872 30.5389C16.2172 30.5189 16.2472 30.4889 16.2672 30.4689C16.3472 30.3689 16.4272 30.2689 16.4972 30.1689C16.5472 30.0889 16.5972 30.0089 16.5872 29.9189C16.5772 29.8389 16.5072 29.7689 16.4272 29.7289C16.3472 29.6989 16.2572 29.6889 16.1772 29.6989C16.1072 29.7089 16.0372 29.7189 15.9772 29.6889C15.9472 29.6789 15.9272 29.6589 15.8972 29.6589C15.8672 29.6489 15.8372 29.6589 15.8072 29.6589C15.7172 29.6789 15.6272 29.7089 15.5472 29.7489C15.4872 29.7789 15.4172 29.8089 15.3672 29.7689C15.3172 29.7189 15.3772 29.6289 15.4472 29.6089C15.5172 29.5889 15.5972 29.5989 15.6572 29.5589C15.7772 29.4789 15.7472 29.2689 15.8772 29.2089C15.7272 29.2189 15.5672 29.2089 15.4172 29.1689C15.3972 29.1589 15.3772 29.1589 15.3572 29.1389C15.3472 29.1289 15.3372 29.1089 15.3172 29.1089C15.3072 29.0989 15.2872 29.1089 15.2672 29.1089C14.9272 29.2089 14.6972 29.5889 14.7772 29.9389C14.7972 30.0089 14.8272 30.0889 14.8272 30.1589C14.8272 30.1889 14.8172 30.2189 14.8072 30.2489C14.5572 29.9789 14.3372 29.6789 14.0272 29.5289C13.5872 29.3189 12.8272 29.7089 12.6072 29.1889C12.7972 28.8189 12.7172 28.2289 13.8372 28.2389C13.5272 27.9389 13.2772 27.5189 12.4872 27.6289C12.4472 27.6389 12.1872 28.1989 12.1772 28.4389C12.1572 28.7289 12.0572 28.8089 11.9772 28.8789C11.7072 29.1389 11.0072 28.9289 10.6372 28.9089C10.4472 28.8989 9.07718 28.6189 8.13718 28.5489C8.12718 28.4889 8.14717 28.4189 8.19717 28.3689C8.42717 28.1489 8.8172 28.1789 9.0672 27.9789C9.3072 27.7889 9.3672 27.4389 9.2872 27.1489C9.2072 26.8589 9.01719 26.6089 8.83719 26.3689C8.72719 26.2289 8.61718 26.0889 8.51718 25.9489C8.46718 25.8889 8.41719 25.8189 8.33719 25.8089C8.25719 25.7989 8.17719 25.8789 8.21719 25.9489C8.08719 25.8389 7.95718 25.7389 7.82718 25.6289C7.78718 25.8589 7.83719 26.0989 7.96719 26.2989C8.09719 26.4889 8.29717 26.7089 8.19717 26.9089C8.18717 26.9389 8.15718 26.9689 8.13718 26.9789C8.03718 27.0289 7.9272 26.9289 7.8772 26.8289C7.7772 26.5989 7.77718 26.3289 7.66718 26.1089C7.52718 25.8489 7.20718 25.6989 6.91718 25.7489C6.93718 25.7589 6.94719 25.7789 6.93719 25.7989C6.91719 25.8289 6.8772 25.8289 6.8472 25.8289C6.6272 25.8289 6.40719 25.8189 6.18719 25.8189C6.23719 25.8589 6.27718 25.8989 6.32718 25.9289C6.08718 25.9689 5.84718 25.9989 5.60718 25.9989C5.78718 26.3989 6.05719 26.7589 6.39719 27.0289C6.45719 27.0789 6.52719 27.1289 6.55719 27.2089C6.58719 27.2889 6.54719 27.3889 6.46719 27.3989C6.39719 27.4089 6.3372 27.3389 6.2872 27.2789C5.9972 26.9189 5.46718 26.7789 5.04718 26.9589C5.07718 26.9589 5.09718 27.0089 5.07718 27.0389C5.05718 27.0689 5.01718 27.0789 4.98718 27.0789C4.83718 27.1089 4.6872 27.1389 4.5372 27.1589C4.6172 27.1389 4.69719 27.1689 4.74719 27.2289C4.49719 27.3389 4.24719 27.4489 3.99719 27.5589C4.03719 27.5889 4.0872 27.6089 4.1272 27.6389C3.8372 27.9289 3.48719 28.1589 3.11719 28.3089C3.46719 28.4389 3.82719 28.5689 4.17719 28.6989C4.12719 28.7089 4.0772 28.7189 4.0372 28.7289C4.2072 28.8689 4.4072 28.9889 4.6272 29.0589C4.5972 29.0389 4.56718 29.0789 4.57718 29.1089C4.58718 29.1389 4.60718 29.1589 4.63718 29.1789C4.79718 29.2889 4.9672 29.3989 5.1572 29.4389C5.3472 29.4889 5.55719 29.4689 5.71719 29.3589C5.86719 29.2489 5.98718 29.0589 6.16718 29.0789C6.19718 29.0789 6.23719 29.0989 6.24719 29.1289C6.25719 29.1589 6.24717 29.1989 6.22717 29.2189C6.06717 29.4789 5.58718 29.3689 5.41718 29.6289C5.37718 29.6889 5.3572 29.7689 5.3472 29.8389C5.3072 30.0889 5.26719 30.3489 5.24719 30.6089C5.23719 30.7989 5.2272 30.9989 5.3472 31.1489C5.4572 31.2889 5.6372 31.3389 5.8172 31.3189C5.9872 31.2989 6.14718 31.2189 6.29718 31.1189C6.40718 31.0389 6.5272 30.9489 6.6572 30.9289C6.7172 30.9189 6.77719 30.9189 6.83719 30.8989C6.89719 30.8789 6.94719 30.8389 6.99719 30.7989C7.13719 30.6789 7.25718 30.5289 7.35718 30.3689C7.42718 30.2589 7.52719 30.1189 7.64719 30.1589C7.70719 30.1789 7.73718 30.2289 7.73718 30.2989C7.33718 30.5789 6.97717 30.9189 6.69717 31.3289C6.26717 31.9589 6.0172 32.7889 6.1572 33.5589C5.9072 33.6189 5.66718 33.7489 5.48718 33.9389C5.09718 34.3689 5.20718 35.0489 5.51718 35.5089C5.17718 36.0589 5.50718 36.9089 5.85718 37.4389C5.89718 37.4989 6.1172 37.4589 6.0672 37.3889C5.8572 37.0689 5.62719 36.7189 5.58719 36.3189C5.55719 36.0989 5.57718 35.8889 5.66718 35.6789C5.96718 35.9889 6.37717 36.1089 6.72717 35.7389C7.21717 35.2289 6.40717 34.9489 6.00717 35.1089C5.84717 35.1789 5.7172 35.2589 5.6272 35.3689C5.4272 35.0789 5.35719 34.6789 5.46719 34.3489C5.56719 34.0289 5.88717 33.8689 6.22717 33.8089C6.25717 33.8989 6.28718 33.9789 6.32718 34.0689C6.48718 34.4089 6.85719 34.8089 7.27719 34.5689C7.79719 34.2589 7.30718 33.7089 6.91718 33.5789C6.74718 33.5289 6.57719 33.5089 6.39719 33.5189C6.38719 33.4689 6.3772 33.4389 6.3772 33.4189C6.3272 33.0589 6.35717 32.6889 6.44717 32.3389C6.59717 31.7689 6.92719 31.2589 7.33719 30.8289C7.22719 31.0789 7.47719 31.4289 7.30719 31.6489C7.56719 31.4689 7.85718 31.3389 8.16718 31.2589C8.20718 31.2489 8.25718 31.2389 8.29718 31.2489C8.32718 31.2589 8.36719 31.2789 8.39719 31.2689C8.42719 31.2689 8.45717 31.2389 8.47717 31.2189C8.81717 30.8689 8.93718 30.3389 8.82718 29.8589C9.62718 29.5589 10.4872 29.4589 11.3672 29.2989C11.5872 29.2589 11.8872 29.1389 12.0772 28.9589C12.0372 29.0489 11.9972 29.1289 11.9372 29.2089C11.7272 29.4989 11.3772 29.6489 11.2272 29.9789C11.1972 30.0489 11.1472 30.1889 11.1372 30.2789C10.9872 30.2689 10.8172 30.3289 10.6872 30.3889C10.4872 30.4689 10.3072 30.5689 10.1272 30.6889C10.1072 30.6489 10.0972 30.6189 10.0972 30.6189C9.7972 30.3489 9.28717 30.3489 8.97717 30.6089C8.81717 30.7489 8.7072 30.9489 8.6272 31.1489C8.5372 31.3589 8.46717 31.5989 8.50717 31.8189C8.51717 31.8489 8.5272 31.8889 8.5372 31.9189C8.3772 31.9989 8.10717 32.1489 7.97717 32.3689C7.78717 32.6989 7.7272 33.0989 7.8172 33.4689C7.8872 33.7489 8.0672 34.0189 8.3472 34.0689C8.3772 34.0689 8.39718 34.0689 8.42719 34.0689C8.30719 34.3489 8.28718 34.6589 8.29718 34.9689C8.30718 35.2789 8.36718 35.6289 8.60718 35.8289C8.84718 36.0389 9.21719 36.0089 9.49719 35.8389C9.39719 35.9789 9.32719 36.1289 9.27719 36.2889C9.19719 36.5989 9.2172 36.9389 9.3172 37.2489C9.3772 37.4289 9.4672 37.5989 9.5972 37.7389C9.7372 37.8689 9.91718 37.9589 10.1072 37.9489C10.1272 37.9489 10.1572 37.9389 10.1772 37.9389C10.0472 38.0489 9.9372 38.1889 9.8772 38.3489C9.7972 38.5689 9.79719 38.8089 9.83719 39.0289C9.89719 39.3889 10.0572 39.7489 10.3672 39.9289C10.4872 39.9889 10.6172 40.0289 10.7472 39.9989C11.0072 39.9489 11.1672 39.6889 11.2672 39.4389C11.3672 39.1989 11.4572 38.9589 11.4772 38.6989C11.4972 38.4389 11.4372 38.1689 11.2772 37.9689C11.2672 37.9589 11.2572 37.9489 11.2372 37.9289C11.3372 37.9789 11.4572 37.9989 11.5772 37.9789C11.8372 37.9289 11.9972 37.6689 12.0972 37.4189C12.1972 37.1789 12.2872 36.9389 12.3072 36.6789C12.3072 36.6189 12.3072 36.5589 12.3072 36.4989C12.4172 36.5989 12.5572 36.6689 12.7072 36.6589C13.0172 36.6389 13.2272 36.3189 13.2972 36.0089C13.3872 35.6189 13.3372 35.2189 13.2072 34.8389C13.2772 34.8789 13.3572 34.9089 13.4372 34.9289C13.6072 34.9789 13.7872 34.9989 13.9472 34.9489C14.2272 34.8589 14.3972 34.5489 14.4072 34.2589C14.4172 33.9689 14.3072 33.6789 14.1672 33.4189C14.0372 33.1789 13.8772 32.9589 13.6672 32.7889C13.4472 32.6289 13.1672 32.5389 12.9072 32.5989C12.8672 32.6089 12.8372 32.6189 12.7972 32.6389C12.7872 32.4689 12.7772 32.2889 12.7272 32.1289C12.8572 32.1989 12.9972 32.2389 13.1472 32.2389C13.4172 32.2389 13.6972 32.0589 13.7372 31.7989C13.7572 31.6689 13.7172 31.5289 13.6672 31.4089C13.5772 31.1689 13.4572 30.9389 13.3172 30.7289C13.2072 30.5689 13.0872 30.4089 12.9072 30.3389C12.7972 30.2889 12.6672 30.2789 12.5472 30.3089C12.3572 30.2989 12.1772 30.3989 12.0572 30.5389C11.9272 30.4989 11.7972 30.4489 11.6772 30.4089C11.6272 30.3889 11.5872 30.3789 11.5372 30.3589C11.7972 29.8689 12.1072 29.6689 12.4672 29.3189C12.6272 29.5689 12.8972 29.6489 13.2372 29.6289C13.5672 29.5989 13.4272 29.3089 13.9872 29.6289C14.1872 29.7489 14.3172 29.9989 14.4972 30.1489C14.5672 30.2089 14.6372 30.2689 14.7072 30.3389H14.6972C14.5472 30.3789 14.3872 30.2689 14.2272 30.2889C14.0772 30.3089 13.9672 30.4489 13.9372 30.5889C13.8972 30.7289 13.9172 30.8889 13.9372 31.0289C13.9472 31.1189 13.9572 31.1989 13.9772 31.2889C13.9872 31.3289 13.9872 31.3689 14.0172 31.3889C14.0472 31.4089 14.1072 31.3989 14.0972 31.3589C14.1272 31.4389 14.1572 31.5089 14.1872 31.5889C14.2572 31.4989 14.2972 31.3889 14.2872 31.2689C14.2772 31.1589 14.2472 31.0189 14.3372 30.9489C14.3472 30.9389 14.3672 30.9389 14.3772 30.9389C14.4372 30.9389 14.4572 31.0089 14.4472 31.0689C14.4372 31.1889 14.3672 31.2989 14.3672 31.4289C14.3572 31.5789 14.4672 31.7189 14.5972 31.7589C14.5972 31.7489 14.5872 31.7389 14.5972 31.7389C14.6072 31.7289 14.6272 31.7389 14.6372 31.7489C14.7272 31.7989 14.8172 31.8589 14.9172 31.9089C14.9072 31.8789 14.8972 31.8589 14.8872 31.8289C14.9972 31.8689 15.1072 31.9189 15.2172 31.9689C15.2372 31.7589 15.2072 31.5389 15.1372 31.3389C15.1272 31.2989 15.1072 31.2589 15.1172 31.2289C15.1272 31.1889 15.1672 31.1589 15.1972 31.1689C15.2272 31.1789 15.2372 31.2289 15.2472 31.2589C15.2772 31.4789 15.4772 31.6689 15.6972 31.6989C15.6872 31.6889 15.6872 31.6689 15.7072 31.6589C15.7272 31.6489 15.7372 31.6589 15.7572 31.6589C15.8272 31.6789 15.8972 31.7089 15.9672 31.7289C15.9272 31.7189 15.8972 31.6889 15.8972 31.6489C16.0272 31.6589 16.1672 31.6789 16.2972 31.6889C16.2772 31.7589 16.2672 31.7389 16.2572 31.7089ZM7.20718 34.3889C6.85718 34.8189 6.57719 34.2389 6.42719 33.8089C6.97719 33.7989 7.48718 34.0489 7.20718 34.3889ZM11.0672 29.2589C10.9572 29.2789 10.8272 29.2889 10.7072 29.2989C10.4972 29.3289 10.2872 29.3589 10.0872 29.3989C9.62719 29.4889 9.17719 29.5989 8.74719 29.7689C8.68719 29.5889 8.59719 29.4289 8.46719 29.2889C8.35719 29.1789 8.2372 29.0789 8.1572 28.9389C8.1072 28.8489 8.08718 28.7489 8.10718 28.6489C9.22718 28.7589 11.1972 29.1789 11.6472 29.0989C11.7272 29.0989 11.4772 29.2589 11.0672 29.2589ZM9.61719 33.7189C9.54719 33.6589 9.4072 33.5889 9.4072 33.5889C9.3172 33.5589 9.22718 33.5389 9.13718 33.5489C9.18718 33.4489 9.23719 33.3389 9.27719 33.2289C9.36719 32.9889 9.43719 32.7289 9.39719 32.4789C9.38719 32.3889 9.3572 32.3089 9.3172 32.2289C9.3472 32.2089 9.36718 32.1989 9.38718 32.1789C9.61718 32.0189 9.80718 31.8289 9.95718 31.5989C10.0872 31.4089 10.1872 31.1889 10.1572 30.9589C10.1572 30.9289 10.1472 30.8889 10.1372 30.8489C10.2072 30.7989 10.2772 30.7489 10.3472 30.6989C10.4872 30.6189 10.9372 30.2889 11.0772 30.4289C11.0772 30.4289 11.0572 30.5489 11.0472 30.6089C10.9972 31.0589 10.8672 31.3789 10.6472 31.6589C10.5072 31.6189 10.1772 31.5789 10.0172 31.6789C9.65718 31.9089 9.4272 32.3189 9.3772 32.7389C9.3472 33.0189 9.39718 33.3189 9.57718 33.5389C9.71718 33.7089 9.95719 33.8089 10.1772 33.7689C10.1572 33.7989 10.1372 33.8389 10.1272 33.8689C10.0372 34.0589 9.97718 34.2689 9.95718 34.4789C9.94718 34.2089 9.85719 33.8989 9.61719 33.7189ZM10.1072 35.4889C9.98718 35.4689 9.86719 35.5289 9.77719 35.6089L9.79718 35.5789C9.77718 35.5889 9.76719 35.5989 9.74719 35.6089C9.89719 35.3889 9.96717 35.1089 9.97717 34.8389C9.98717 34.8889 9.98719 34.9289 9.99719 34.9789C10.0472 35.1989 10.1572 35.4189 10.3172 35.5789C10.2472 35.5289 10.1772 35.4989 10.1072 35.4889ZM10.9072 32.0689C10.8872 31.9789 10.8472 31.8989 10.8072 31.8189C10.9172 31.6989 11.0272 31.5589 11.0972 31.4089C11.1672 31.2789 11.2072 31.1389 11.2272 30.9889C11.2872 31.1189 11.3572 31.2589 11.4072 31.3889C11.2772 31.4489 11.1372 31.5389 11.0472 31.6889C10.9872 31.8089 10.9372 31.9389 10.9072 32.0689ZM10.4672 35.7389C10.4472 35.7089 10.4272 35.6889 10.3972 35.6689C10.4772 35.7289 10.5572 35.7889 10.6472 35.8289C10.8272 35.9089 11.0372 35.9289 11.2072 35.8489C11.1772 35.8589 11.1472 35.8789 11.1272 35.8989C10.9672 35.9889 10.8372 36.1189 10.7472 36.2789C10.6772 36.0689 10.5872 35.8889 10.4672 35.7389ZM10.7272 37.7589C10.6572 37.7589 10.5772 37.7689 10.5072 37.7889C10.5972 37.6889 10.6772 37.5689 10.7272 37.4389C10.7772 37.5789 10.8572 37.7089 10.9472 37.8089C10.8772 37.7789 10.7972 37.7589 10.7272 37.7589ZM12.1772 33.8989C12.2372 33.8889 12.2872 33.8589 12.3372 33.8389C12.3572 33.9289 12.3772 34.0089 12.4072 34.0889C12.2972 34.0989 12.1772 34.1389 12.1072 34.2189C12.1072 34.2189 11.8272 34.4489 11.7872 34.6889C11.7172 35.0789 11.7472 35.4989 11.8672 35.8789C11.7772 35.7989 11.6672 35.7589 11.5472 35.7589C11.4372 35.7589 11.3372 35.7889 11.2372 35.8289C11.5372 35.6689 11.6172 35.2789 11.6272 34.9389C11.6272 34.4089 11.5072 33.8489 11.1472 33.4489C11.0572 33.3489 10.9272 33.2489 10.7872 33.2589C10.8672 33.1389 10.9272 33.0189 10.9672 32.8889C10.9772 32.9289 10.9972 32.9689 11.0072 32.9989C11.1072 33.2489 11.2672 33.4889 11.4772 33.6689C11.6772 33.8289 11.9372 33.9489 12.1772 33.8989ZM11.9672 30.7089C11.8672 30.8989 11.8572 31.1189 11.9172 31.3289C11.8772 31.3189 11.8372 31.3089 11.7972 31.3089C11.7972 31.3089 11.7272 31.3089 11.6272 31.3289C11.5472 31.1389 11.4372 30.9489 11.3772 30.7489C11.4072 30.6789 11.4372 30.6089 11.4672 30.5289C11.6272 30.5889 11.7972 30.6489 11.9672 30.7089Z" fill="#B20665"/>
</g>
<g id="Group_15" opacity="0.2">
<g id="Group_16">
<path id="Vector_11" d="M8.75 49.339L10.25 51.329L11.75 49.339L10.28 47.399L11.75 45.449L10.25 43.459L8.75 45.449L10.22 47.399L8.75 49.339Z" fill="#B20665"/>
</g>
<g id="Group_17">
<path id="Vector_12" d="M16.2722 47.399L17.7422 45.449L16.2422 43.459L14.7422 45.449L13.2422 43.459L11.7422 45.449L13.2122 47.399L11.7422 49.349L13.2422 51.339L14.7422 49.349L16.2422 51.339L17.7422 49.349L16.2722 47.399ZM16.2122 47.399L14.7422 49.349L13.2722 47.399L14.7422 45.449L16.2122 47.399Z" fill="#B20665"/>
</g>
<g id="Group_18">
<path id="Vector_13" d="M7.2525 51.3292L8.7525 49.3392L7.2825 47.3892L8.7525 45.4392L7.2525 43.4492L5.7825 45.3992L4.3125 43.4492L2.8125 45.4392L4.2825 47.3892L2.8125 49.3392L4.3125 51.3292L5.7825 49.3792L7.2525 51.3292ZM5.79251 49.2992L4.35251 47.3892L5.79251 45.4792L7.23248 47.3892L5.79251 49.2992Z" fill="#B20665"/>
</g>
<g id="Group_19">
<path id="Vector_14" d="M8.75 53.3181L10.25 55.3081L11.75 53.3181L10.25 51.3281L8.75 53.3181Z" fill="#B20665"/>
</g>
<g id="Group_20">
<path id="Vector_15" d="M13.25 51.3281L11.75 53.3181L13.25 55.3081L14.74 53.3181L16.24 55.3081L17.74 53.3181L16.24 51.3281L14.74 53.3181L13.25 51.3281Z" fill="#B20665"/>
</g>
<g id="Group_21">
<path id="Vector_16" d="M7.25031 55.3081L8.75031 53.3181L7.25031 51.3281L5.79031 53.2781L4.32031 51.3281L2.82031 53.3181L4.32031 55.3081L5.79031 53.3581L7.25031 55.3081Z" fill="#B20665"/>
</g>
<g id="Group_22">
<path id="Vector_17" d="M8.75 57.2986L10.25 59.2886L11.75 57.2986L10.25 55.3086L8.75 57.2986Z" fill="#B20665"/>
</g>
<g id="Group_23">
<path id="Vector_18" d="M13.25 55.3086L11.75 57.2986L13.25 59.2886L14.74 57.2986L16.24 59.2886L17.74 57.2986L16.24 55.3086L14.74 57.2986L13.25 55.3086Z" fill="#B20665"/>
</g>
<g id="Group_24">
<path id="Vector_19" d="M7.25031 59.2886L8.75031 57.2986L7.25031 55.3086L5.79031 57.2586L4.32031 55.3086L2.82031 57.2986L4.32031 59.2886L5.79031 57.3386L7.25031 59.2886Z" fill="#B20665"/>
</g>
<g id="Group_25">
<path id="Vector_20" d="M8.75 61.2791L10.24 63.2491L8.75 65.2291L10.25 67.2091L11.75 65.2291L10.26 63.2491L11.75 61.2791L10.25 59.2891L8.75 61.2791Z" fill="#B20665"/>
</g>
<g id="Group_26">
<path id="Vector_21" d="M13.25 59.2891L11.75 61.2791L13.24 63.2591L11.75 65.2391L13.25 67.2291L14.75 65.2391L16.25 67.2291L17.75 65.2391L16.26 63.2591L17.75 61.2791L16.25 59.2891L14.75 61.2791L13.25 59.2891ZM14.74 61.2791L16.23 63.2491L14.74 65.2191L13.25 63.2491L14.74 61.2791Z" fill="#B20665"/>
</g>
<g id="Group_27">
<path id="Vector_22" d="M7.2525 67.2095L8.7525 65.2195L7.26248 63.2395L8.7525 61.2595L7.2525 59.2695L5.7825 61.2195L4.3125 59.2695L2.8125 61.2595L4.30249 63.2395L2.8125 65.2195L4.3125 67.2095L5.7825 65.2595L7.2525 67.2095ZM5.79251 65.1795L4.33249 63.2495L5.79251 61.3195L7.2525 63.2495L5.79251 65.1795Z" fill="#B20665"/>
</g>
<g id="Group_28">
<path id="Vector_23" d="M8.75 69.199L10.25 71.189L11.75 69.199L10.25 67.209L8.75 69.199Z" fill="#B20665"/>
</g>
<g id="Group_29">
<path id="Vector_24" d="M13.25 67.209L11.75 69.199L13.25 71.189L14.74 69.199L16.24 71.189L17.74 69.199L16.24 67.209L14.74 69.199L13.25 67.209Z" fill="#B20665"/>
</g>
<g id="Group_30">
<path id="Vector_25" d="M7.25031 71.189L8.75031 69.199L7.25031 67.209L5.79031 69.159L4.32031 67.209L2.82031 69.199L4.32031 71.189L5.79031 69.239L7.25031 71.189Z" fill="#B20665"/>
</g>
<g id="Group_31">
<path id="Vector_26" d="M8.75 73.1795L10.25 75.1695L11.75 73.1795L10.25 71.1895L8.75 73.1795Z" fill="#B20665"/>
</g>
<g id="Group_32">
<path id="Vector_27" d="M13.25 71.1895L11.75 73.1795L13.25 75.1695L14.74 73.1795L16.24 75.1695L17.74 73.1795L16.24 71.1895L14.74 73.1795L13.25 71.1895Z" fill="#B20665"/>
</g>
<g id="Group_33">
<path id="Vector_28" d="M5.79031 73.1395L4.32031 71.1895L2.82031 73.1795L4.32031 75.1695L5.79031 73.2195L7.25031 75.1695L8.75031 73.1795L7.25031 71.1895L5.79031 73.1395Z" fill="#B20665"/>
</g>
</g>
<g id="Group_34">
<path id="Vector_29" d="M10.2766 50.4395C7.07658 50.4395 4.47656 53.0395 4.47656 56.2395C4.47656 59.4395 7.07658 62.0395 10.2766 62.0395C13.4766 62.0395 16.0766 59.4395 16.0766 56.2395C16.0766 53.0395 13.4766 50.4395 10.2766 50.4395Z" fill="white"/>
</g>
<g id="Group_35">
<path id="Vector_30" d="M10.2803 49.7793C6.7203 49.7793 3.82031 52.6793 3.82031 56.2393C3.82031 59.7993 6.7203 62.6993 10.2803 62.6993C13.8403 62.6993 16.7403 59.7993 16.7403 56.2393C16.7403 52.6793 13.8503 49.7793 10.2803 49.7793ZM10.2803 62.0393C7.0803 62.0393 4.48029 59.4393 4.48029 56.2393C4.48029 53.0393 7.0803 50.4393 10.2803 50.4393C13.4803 50.4393 16.0803 53.0393 16.0803 56.2393C16.0803 59.4393 13.4803 62.0393 10.2803 62.0393Z" fill="#F9D006"/>
</g>
<g id="Group_36">
<g id="Group_37">
<path id="Vector_31" d="M5.39062 55.9605C5.39062 55.5805 5.71063 55.3105 6.58063 55.3105H6.93063V55.6305H6.78064L7.03064 56.6105L7.36063 55.3105H7.63065L7.95062 56.6105L8.20062 55.6305H8.05063V55.3105H8.72064V55.6305H8.56064L8.15063 57.1705H7.80063L7.50064 56.1005L7.20062 57.1705H6.85065L6.44064 55.6405C5.90064 55.6505 5.73062 55.7505 5.73062 55.9705C5.73062 56.0505 5.77063 56.1105 5.86063 56.1105C5.95063 56.1105 5.98062 56.0305 5.98062 55.9405H6.31064C6.31064 56.1805 6.20065 56.4305 5.85065 56.4305C5.51065 56.4205 5.39062 56.1905 5.39062 55.9605Z" fill="#5B102B"/>
</g>
<g id="Group_38">
<path id="Vector_32" d="M8.60938 55.9605C8.60938 55.5805 8.92938 55.3105 9.79938 55.3105H10.2594V55.6305H9.99939V56.8505H10.2594V57.1705H9.41937V56.8505H9.64938V55.6305C9.10938 55.6405 8.93939 55.7405 8.93939 55.9605C8.93939 56.0405 8.9794 56.1005 9.0694 56.1005C9.1594 56.1005 9.18939 56.0205 9.18939 55.9305H9.51938C9.51938 56.1705 9.40939 56.4205 9.05939 56.4205C8.72939 56.4205 8.60938 56.1905 8.60938 55.9605Z" fill="#5B102B"/>
</g>
<g id="Group_39">
<path id="Vector_33" d="M10.2031 55.9605C10.2031 55.5805 10.5231 55.3105 11.3931 55.3105H11.5931L12.3631 56.5505V55.6305H12.1331V55.3105H12.9631V55.6305H12.7031V57.1705H12.3731L11.5732 55.9005V56.8505H11.8031V57.1705H10.9731V56.8505H11.2331V55.6305C10.6931 55.6405 10.5231 55.7405 10.5231 55.9605C10.5231 56.0405 10.5631 56.1005 10.6531 56.1005C10.7431 56.1005 10.7731 56.0205 10.7731 55.9305H11.1031C11.1031 56.1705 10.9931 56.4205 10.6431 56.4205C10.3231 56.4205 10.2031 56.1905 10.2031 55.9605Z" fill="#5B102B"/>
</g>
<g id="Group_40">
<path id="Vector_34" d="M12.8672 55.9605C12.8672 55.5805 13.1872 55.3105 14.0572 55.3105H15.1472V55.8505H14.8472V55.6205H14.2672V56.0805H14.4772V55.9205H14.7872V56.5605H14.4772V56.4005H14.2672V56.8405H14.8772V56.6105H15.1872V57.1505H13.6772V56.8305H13.9372V55.6105C13.3972 55.6205 13.2272 55.7205 13.2272 55.9405C13.2272 56.0205 13.2672 56.0805 13.3572 56.0805C13.4472 56.0805 13.4772 56.0005 13.4772 55.9105H13.8072C13.8072 56.1505 13.6972 56.4005 13.3472 56.4005C12.9972 56.4205 12.8672 56.1905 12.8672 55.9605Z" fill="#5B102B"/>
</g>
</g>
<g id="Group_41" opacity="0.2">
<g id="Group_42">
<path id="Vector_35" d="M8.87038 5.34062C8.69038 4.85062 8.38037 4.42063 8.20037 3.93063C8.02037 3.44063 8.01038 2.83063 8.37038 2.46063C8.46038 2.37063 8.58039 2.29063 8.66039 2.18063C8.74039 2.07063 9.03038 1.82063 8.87038 1.55063C8.83038 1.49063 8.56038 1.46063 8.49038 1.46063C7.84038 1.39063 7.17038 1.29063 6.59038 1.14062C6.59038 1.14062 6.58038 3.41063 6.59038 4.60063C6.59038 4.89063 6.61037 5.20062 6.80037 5.42062C6.96037 5.60062 7.20038 5.67063 7.43038 5.71063C7.80038 5.78063 8.18038 5.82063 8.56038 5.83063C8.67038 5.83063 8.79037 5.82063 8.86037 5.75063C8.95037 5.63063 8.92038 5.47062 8.87038 5.34062Z" fill="white"/>
</g>
</g>
<g id="Group_43" opacity="0.15">
<g id="Group_44">
<path id="Vector_36" d="M10.9503 1.48055C10.9003 1.48055 10.8603 1.49055 10.8203 1.52055C10.7703 1.57055 10.8003 1.66055 10.8303 1.72055C11.0903 2.19055 11.6003 2.49055 11.8403 2.97055C12.0903 3.47055 11.9903 4.08055 11.7103 4.56055C11.4403 5.04055 11.0103 5.41054 10.5703 5.76054C10.6303 5.88054 10.7703 5.91055 10.9003 5.92055C11.8003 6.02055 12.7203 5.95055 13.5903 5.72055C13.7303 5.68055 13.8703 5.63054 13.9403 5.51054C13.9903 5.43054 13.9903 5.33054 13.9803 5.23055C13.9503 3.84055 13.9103 2.45055 13.8803 1.06055C13.9003 1.06055 12.0003 1.40055 10.9503 1.48055Z" fill="#B9B5AF"/>
</g>
</g>
<g id="Group_45" opacity="0.1">
<g id="Group_46">
<path id="Vector_37" d="M4.11106 84.6896C3.63106 84.0996 3.37106 83.3596 3.14106 82.6296C1.09106 76.0096 1.21107 68.9496 1.34107 62.0196C1.39107 59.3196 1.44107 56.6296 1.50107 53.9296C1.64107 46.9096 1.78107 39.8396 3.31107 32.9896C3.80107 30.7996 4.53108 28.4896 6.29108 27.0896C7.25108 26.3296 8.62108 25.5696 8.44108 24.3596C8.28108 23.2696 6.88106 22.8396 5.80106 23.0496C4.31106 23.3396 3.05107 24.3896 2.26107 25.6896C1.47107 26.9796 1.12107 28.4996 0.981069 30.0096C0.811069 31.8496 0.95107 33.6896 1.09107 35.5296C1.09107 35.5296 0.541069 66.2497 0.871069 83.7497C0.881069 84.2497 0.891063 84.7696 1.13106 85.2096C1.50106 85.9096 2.32106 86.2296 3.08106 86.4896C5.08106 87.1796 7.51108 87.8096 9.13108 86.4396C7.29108 86.3196 5.26106 86.0996 4.11106 84.6896Z" fill="white"/>
</g>
</g>
<g id="Group_47" opacity="0.2">
<g id="Group_48">
<path id="Vector_38" d="M15.3072 23.2996C14.2872 22.5596 13.7272 21.3196 13.5072 20.0696C13.2872 18.8296 13.3772 17.5496 13.3972 16.2896C13.4372 13.2296 13.4772 10.2996 13.5572 7.17957C13.5672 6.97957 13.6472 6.71955 13.6472 6.47955C13.6472 6.27955 13.4372 6.38956 13.4372 6.38956C12.3672 6.58956 11.0072 6.63956 9.86719 6.60956C10.6072 7.18956 11.1772 8.10956 11.4672 8.99956C11.7572 9.88956 11.8672 10.8296 11.9272 11.7696C12.0972 14.2496 12.0072 16.7496 11.9272 19.2296C11.9072 19.8896 11.7272 20.5296 11.5472 21.1696C11.0572 22.9096 10.3172 23.4696 10.3172 23.6596C10.3172 24.4196 12.6072 24.1396 13.6272 24.3196C14.6072 24.4896 15.6572 24.0696 18.8772 26.5096C18.2872 25.1196 15.7572 23.6196 15.3072 23.2996Z" fill="#010101"/>
</g>
</g>
<g id="Group_49" opacity="0.3">
<g id="Group_50">
<path id="Vector_39" d="M11.5485 24.4205C11.2485 24.2205 10.8785 24.1805 10.5385 24.0905C9.62851 23.8505 8.8385 23.1805 8.4385 22.3205C7.7685 20.8605 8.26848 19.1505 8.16848 17.5505C8.15848 17.4205 8.14851 17.2805 8.06851 17.1705C7.86851 16.8905 7.38849 17.0105 7.20849 17.3005C7.02849 17.5905 7.05851 17.9605 7.06851 18.3005C7.10851 19.1305 7.07849 19.7405 7.07849 19.7405C7.15848 20.3905 6.9385 21.0605 6.5585 21.6005C6.1785 22.1405 5.64849 22.5605 5.08849 22.9005C4.90849 23.0105 4.70849 23.2305 4.83849 23.3805C4.86849 23.4105 4.8985 23.4305 4.9385 23.4505C6.8685 24.4805 9.13851 24.6005 11.3185 24.7105C11.4585 24.7205 11.6585 24.6605 11.6285 24.5205C11.6285 24.4805 11.5885 24.4405 11.5485 24.4205Z" fill="#B20665"/>
</g>
</g>
<g id="Group_51">
<g id="Group_52" opacity="0.2">
<g id="Group_53">
<path id="Vector_40" d="M7.09623 24.7205C7.41623 24.2105 6.52622 24.1405 5.80622 24.0405C4.77622 23.8905 4.32622 23.6005 3.58622 24.3305C3.58622 24.3305 1.23622 26.3805 1.30622 29.7705C1.31622 30.3605 1.78621 34.4705 2.23621 30.2805C2.45621 28.2505 3.71621 26.2105 5.63621 25.5205C5.98621 25.4005 6.90623 25.0305 7.09623 24.7205Z" fill="white"/>
</g>
</g>
<g id="Group_54" opacity="0.3">
<g id="Group_55">
<path id="Vector_41" d="M4.64844 27.7315C5.34844 28.3215 6.36844 28.5015 7.21844 28.1815C6.76844 27.8415 6.19845 27.6715 5.62845 27.7115C5.63845 27.7115 5.15844 27.6415 4.64844 27.7315Z" fill="white"/>
</g>
<g id="Group_56">
<path id="Vector_42" d="M6.63126 25.9414L6.53125 26.2714C6.77125 26.2614 6.92126 26.5314 7.04126 26.7414C7.16126 26.9614 7.41124 27.1814 7.61124 27.0414C7.80124 26.9114 7.71124 26.6114 7.55124 26.4314C7.32124 26.1714 6.98126 25.9914 6.63126 25.9414Z" fill="white"/>
</g>
<g id="Group_57">
<path id="Vector_43" d="M8.10733 33.1027C8.40733 33.1227 8.59732 32.7027 8.41732 32.4727C8.17732 32.5727 8.00733 32.8527 8.10733 33.1027Z" fill="white"/>
</g>
<g id="Group_58">
<path id="Vector_44" d="M8.92968 34.39C8.84968 34.66 8.83969 34.9501 8.93969 35.2101C8.98969 35.3401 9.12967 35.49 9.25967 35.42C9.32967 35.38 9.35969 35.2901 9.36969 35.2101C9.41969 34.9701 9.46968 34.7 9.32968 34.5C9.24968 34.37 9.05968 34.34 8.92968 34.39Z" fill="white"/>
</g>
<g id="Group_59">
<path id="Vector_45" d="M10.1872 33.0014C10.2472 32.8214 10.2371 32.6214 10.1671 32.4414L10.0772 32.6914C9.93715 32.7714 10.0272 33.0314 10.1872 33.0014Z" fill="white"/>
</g>
<g id="Group_60">
<path id="Vector_46" d="M10.2687 36.5914L10.0787 36.4414C9.93866 36.5914 9.96866 36.9014 10.1687 36.9514C10.3687 37.0014 10.4787 36.6014 10.2687 36.5914Z" fill="white"/>
</g>
<g id="Group_61">
<path id="Vector_47" d="M10.8382 34.4805C10.7382 34.5605 10.7082 34.7605 10.8282 34.8305C10.9182 34.7305 10.8982 34.5905 10.8382 34.4805Z" fill="white"/>
</g>
<g id="Group_62">
<path id="Vector_48" d="M10.7278 38.6113L10.5078 39.1013C10.6078 39.1113 10.7078 39.1313 10.8078 39.1413C10.9978 39.0213 10.9478 38.6713 10.7278 38.6113Z" fill="white"/>
</g>
</g>
</g>
<g id="Group_63" opacity="0.4">
<g id="Group_64">
<path id="Vector_49" d="M19.689 31.7505C19.659 29.9605 19.669 27.8805 18.779 26.3405C17.789 24.6305 15.329 23.5205 14.499 22.2905C13.719 21.1405 13.649 19.6605 13.559 18.2705C13.399 15.8505 13.409 13.4105 13.609 10.9905C13.719 9.65054 13.879 8.27054 13.499 6.99054L13.219 6.96054C12.969 6.68054 12.459 6.86054 12.289 7.19054C12.119 7.53054 12.189 7.93054 12.249 8.30054C12.909 12.0505 13.119 15.8705 12.899 19.6605C12.819 21.0505 12.649 22.5105 11.819 23.6205C11.759 23.7005 11.699 23.7805 11.689 23.8705C11.659 24.1605 12.079 24.2305 12.369 24.2105C14.469 24.0905 16.409 25.5605 17.409 27.4105C18.419 29.2505 18.949 31.4505 19.049 33.5505C19.149 35.6505 19.599 39.5205 19.879 43.1905C19.859 40.5905 19.729 34.3405 19.689 31.7505Z" fill="#010101"/>
</g>
</g>
<g id="Group_65" opacity="0.2">
<g id="Group_66">
<path id="Vector_50" d="M19.3562 28.5293C19.4162 29.1093 19.3262 29.7193 19.0862 30.2493C18.6562 31.2293 17.8462 31.9893 16.9562 32.5893C16.4962 32.8993 15.9562 33.2793 15.9862 33.8293C15.9962 34.0793 16.1362 34.2993 16.2462 34.5193C17.1262 36.1593 17.1962 38.0993 17.2462 39.9593C17.6262 53.1493 18.0062 66.3493 18.3862 79.5393C18.4262 80.9493 18.4662 82.3693 18.1162 83.7393C17.7662 85.0993 16.9762 86.4193 15.7362 87.0693C14.4062 87.7693 12.7663 87.6393 11.4062 88.2893C13.7462 88.6893 16.1762 88.4593 18.4062 87.6393C18.9062 87.4493 19.4462 87.1993 19.6662 86.7093C19.8162 86.3893 19.7962 86.0093 19.7762 85.6593C19.4262 78.6093 20.4862 31.8793 19.3562 28.5293Z" fill="#010101"/>
</g>
</g>
<g id="Group_67" opacity="0.2">
<g id="Group_68">
<path id="Vector_51" d="M3.65101 85.5809C2.85101 85.0509 2.43101 84.1009 2.09101 83.2009C1.72101 82.2109 1.601 79.7209 1.301 78.7109L1.31101 81.5309C1.23101 82.5909 1.06101 84.0109 1.50101 84.9709C1.94101 85.9409 4.64101 86.5309 6.31101 86.6709C4.60101 86.1909 3.88101 85.7309 3.65101 85.5809Z" fill="white"/>
</g>
</g>
<g id="Group_69" opacity="0.3">
<g id="Group_70">
<path id="Vector_52" d="M19.3106 78.6992C19.1106 80.0592 18.6306 85.5092 17.5106 86.3192C16.3706 87.1592 14.4406 87.5692 13.6406 88.0392C15.0806 88.0192 17.6106 87.3292 18.8306 87.0792C19.3106 86.9792 19.4206 86.1492 19.4406 85.9292C19.5306 85.0992 19.3706 79.8392 19.3106 78.6992Z" fill="#010101"/>
</g>
</g>
<g id="Group_71" opacity="0.2">
<g id="Group_72">
<path id="Vector_53" d="M15.7119 83.2699C13.4019 83.5399 11.0619 83.6299 8.73187 83.5299C7.98187 83.4999 7.21187 83.4399 6.51187 83.1699C5.81187 82.8999 5.17188 82.3799 4.92188 81.6699C5.01188 82.8899 5.65188 84.0599 6.64188 84.7699C6.96188 84.9999 7.33188 85.1699 7.71188 85.2999C7.93188 85.2499 8.17189 85.2499 8.40189 85.2499C10.3319 85.2899 12.2719 85.3299 14.2019 85.3699C14.6719 85.3799 15.1719 85.3799 15.5819 85.1499C15.9919 84.9099 16.2419 84.4799 16.4719 84.0599C16.5519 83.9199 16.6219 83.7799 16.6019 83.6199C16.5519 83.2699 16.0619 83.2299 15.7119 83.2699Z" fill="#B20665"/>
</g>
</g>
<g id="Group_73" opacity="0.4">
<g id="Group_74">
<path id="Vector_54" d="M13.0694 7.64078C13.3394 7.75078 13.5994 7.88078 13.8394 8.05078V6.07079C13.1794 6.21079 11.8394 6.31078 10.2794 6.31078C8.63939 6.31078 7.22938 6.20078 6.60938 6.05078V6.26077C8.16937 6.62077 9.74938 6.95078 11.3294 7.22078C11.9094 7.33078 12.5094 7.42078 13.0694 7.64078Z" fill="#010101"/>
</g>
</g>
<g id="Group_75" opacity="0.2">
<g id="Group_76">
<path id="Vector_55" d="M8.0694 14.1608C7.9994 12.0008 7.9294 9.83078 7.8494 7.67078C7.8294 7.19078 7.79939 6.66078 7.46939 6.30078C7.27939 6.45078 7.16938 6.71078 7.20938 6.95078L7.10938 6.66078C7.10938 10.6808 7.14938 14.6908 7.23938 18.7108C7.23938 18.8308 7.24939 18.9608 7.30939 19.0708C7.36939 19.1708 7.51938 19.2408 7.61938 19.1808C7.68938 19.1308 7.71939 19.0408 7.74939 18.9608C8.16939 17.4008 8.1194 15.7708 8.0694 14.1608Z" fill="white"/>
</g>
</g>
</g>
<g id="Group_77">
<g id="Group_78">
<path id="Vector_56" d="M35.4956 85.2695C34.0356 85.2695 26.7656 85.3595 26.7656 87.1695C26.7656 88.9695 34.0356 89.0695 35.4956 89.0695C36.9556 89.0695 44.2256 88.9795 44.2256 87.1695C44.2256 85.3595 36.9556 85.2695 35.4956 85.2695ZM35.4956 88.1095C31.0356 88.1095 28.4356 87.5295 27.8156 87.1595C28.4456 86.7895 31.0356 86.2095 35.4956 86.2095C39.9556 86.2095 42.5556 86.7895 43.1756 87.1595C42.5556 87.5295 39.9556 88.1095 35.4956 88.1095Z" fill="#CACADB"/>
</g>
<g id="Group_79">
<path id="Vector_57" d="M43.7578 86.6893C43.7578 87.4793 40.0578 88.1093 35.5078 88.1093C30.9478 88.1093 27.2578 87.4693 27.2578 86.6893C27.2578 85.8993 30.9578 84.7793 35.5078 84.7793C40.0578 84.7793 43.7578 85.8993 43.7578 86.6893Z" fill="#E2E2F7"/>
</g>
<g id="Group_80" opacity="0.6">
<g id="Group_81">
<path id="Vector_58" d="M36.7494 84.9192C36.3894 84.8592 36.0394 84.8892 35.6794 84.8992C35.2794 84.9092 34.7994 85.0192 34.6894 85.3992L34.6094 85.4292C35.0494 85.5692 35.5494 85.5792 36.0094 85.5892C36.4094 85.5892 37.1394 85.3692 37.1594 85.2192C37.2094 85.0292 36.9394 84.9492 36.7494 84.9192Z" fill="#7F0336"/>
</g>
</g>
<g id="Group_82">
<path id="Vector_59" d="M44.7881 51.3391L43.208 41.2891H27.7881L26.208 51.3391C25.628 56.2091 27.858 60.9791 31.948 63.6691C33.178 64.4791 33.918 65.8491 33.918 67.3191L34.5281 85.3691C34.5281 85.4591 34.958 85.5391 35.488 85.5391C36.018 85.5391 36.448 85.4691 36.448 85.3791L37.0681 67.3291C37.0681 65.8591 37.8081 64.4891 39.0381 63.6791C43.1381 60.9791 45.3681 56.2091 44.7881 51.3391Z" fill="#CACADB"/>
</g>
<g id="Group_83">
<path id="Vector_60" d="M44.147 51.3391L42.677 41.2891H28.327L26.857 51.3391C26.407 55.4291 27.7969 58.2891 30.5069 60.6991C33.2769 63.1591 37.717 63.1591 40.487 60.6991C43.207 58.2991 44.597 55.4291 44.147 51.3391Z" fill="#FCDEEC"/>
</g>
<g id="Group_84">
<path id="Vector_61" d="M28.4219 41.3203C28.6019 41.5903 30.9319 42.2403 35.5019 42.2403C39.9319 42.2403 42.2619 41.6303 42.5619 41.2803C42.2619 40.9403 39.9319 40.3203 35.5019 40.3203C30.9319 40.3403 28.6019 40.9903 28.4219 41.3203Z" fill="#F4B3D3"/>
</g>
<g id="Group_85">
<path id="Vector_62" d="M35.4991 39.6992C34.7091 39.6992 27.7891 39.7392 27.7891 41.2892C27.7891 42.8392 34.7191 42.8792 35.4991 42.8792C36.2891 42.8792 43.209 42.8392 43.209 41.2892C43.219 39.7392 36.2891 39.6992 35.4991 39.6992ZM35.4991 42.2492C30.9191 42.2492 28.589 41.5992 28.419 41.3292C28.599 40.9992 30.9291 40.3392 35.4991 40.3392C39.9291 40.3392 42.2591 40.9492 42.5591 41.2992C42.2591 41.6292 39.9391 42.2492 35.4991 42.2492Z" fill="#E2E2F7"/>
</g>
<g id="Group_86">
<path id="Vector_63" d="M26.8572 51.3402C26.3872 55.6102 27.9172 58.5402 30.8672 61.0102C33.3672 63.1102 37.6273 63.1102 40.1273 61.0102C43.0773 58.5402 44.6072 55.6002 44.1372 51.3402L43.2972 45.6602H27.6972L26.8572 51.3402Z" fill="#7F0336"/>
</g>
<g id="Group_87">
<g id="Group_88" opacity="0.8">
<g id="Group_89">
<path id="Vector_64" d="M35.9319 63.0706C33.9819 63.2106 31.9919 62.6106 30.4219 61.4306C31.7819 62.9406 33.8119 63.8206 35.8419 63.7306C38.0919 63.6306 40.2619 62.3306 41.4219 60.3906C40.0319 61.9406 38.0219 62.9206 35.9319 63.0706Z" fill="#7F0336"/>
</g>
</g>
</g>
<g id="Group_90" opacity="0.6">
<g id="Group_91">
<path id="Vector_65" d="M33.7457 63.908C33.7457 63.908 33.1657 63.828 32.6257 63.538C32.4357 63.438 33.9557 64.468 34.3857 64.968C35.0857 65.778 35.3057 66.6581 35.4157 67.4581C36.0357 71.8081 36.1057 92.078 36.2657 81.968C36.2557 78.338 36.3057 73.348 36.4957 69.718C36.5957 67.758 36.2257 64.958 38.2757 63.548C37.0257 64.118 35.0857 64.248 33.7457 63.908Z" fill="#7F0336"/>
</g>
</g>
<g id="Group_92">
<path id="Vector_66" d="M42.8194 86.4893C42.7294 86.2793 42.4894 86.1793 42.2794 86.0993C40.6694 85.5093 38.9794 85.1393 37.2794 85.0293L37.3494 85.1993C37.9694 85.5893 38.5894 85.9693 39.2094 86.3593C39.3794 86.4693 39.5694 86.6193 39.5294 86.8193C39.4994 86.9693 39.3394 87.0593 39.1894 87.1093C38.0394 87.5393 36.6994 87.3793 35.6094 87.9493C37.6794 87.8993 39.7494 87.7293 41.7994 87.4393C42.0694 87.3993 42.3494 87.3593 42.5694 87.1993C42.7894 87.0393 42.9294 86.7393 42.8194 86.4893Z" fill="#CACADB"/>
</g>
<g id="Group_93" opacity="0.3">
<g id="Group_94">
<path id="Vector_67" d="M43.3805 87.3391C43.0505 87.6091 42.6105 87.7091 42.1905 87.7891C40.1505 88.1791 38.0805 88.4091 36.0105 88.4891V88.5291C35.9305 88.5991 36.0505 88.7191 36.1505 88.7591C36.7405 88.9491 37.3805 88.8991 38.0005 88.8291C39.1105 88.7091 40.2105 88.5391 41.3005 88.3391C42.1305 88.1791 42.9805 87.9891 43.6505 87.4691C43.7005 87.4291 43.7505 87.3791 43.7505 87.3191C43.7305 87.1691 43.5005 87.2391 43.3805 87.3391Z" fill="#60012C"/>
</g>
</g>
<g id="Group_95" opacity="0.4">
<g id="Group_96">
<path id="Vector_68" d="M34.5789 85.5688C34.3589 85.3188 34.0089 85.2188 33.6789 85.2188C33.6089 85.2188 33.5289 85.2388 33.4589 85.2488C31.8189 85.2488 30.1689 85.5288 28.6289 86.0888C28.4589 86.1488 28.2889 86.2188 28.1689 86.3588C28.0489 86.4988 28.0189 86.7188 28.1389 86.8488C28.2089 86.9188 28.3089 86.9488 28.3989 86.9788C30.2689 87.4788 32.2789 87.4088 34.1089 86.7888C34.2989 86.7188 34.4989 86.6488 34.6289 86.4888C34.8589 86.2288 34.7989 85.8188 34.5789 85.5688Z" fill="white"/>
</g>
</g>
<g id="Group_97">
<path id="Vector_69" d="M32.8803 85.6793C32.8003 85.5693 32.6503 85.5393 32.5103 85.5293C32.2803 85.5193 32.0603 85.5492 31.8403 85.5992C31.1603 85.6892 30.5003 85.9693 29.8603 86.2493C29.7303 86.3093 29.6003 86.3693 29.5403 86.4993C29.4503 86.6893 29.6203 86.9292 29.8303 86.9792C30.0303 87.0392 30.2503 86.9792 30.4603 86.9192C31.0903 86.7292 31.7203 86.5492 32.3503 86.3592C32.5103 86.3092 32.6903 86.2592 32.8103 86.1392C32.9303 86.0292 32.9903 85.8193 32.8803 85.6793Z" fill="white"/>
</g>
<g id="Group_98">
<path id="Vector_70" d="M35.2055 79.8778C35.1455 76.7278 34.9155 73.9378 34.7655 70.7878C34.7255 70.0378 34.6955 68.9878 34.6255 68.2078C34.3155 66.2778 34.3455 68.5278 34.3455 68.5278C34.2655 72.9978 34.3755 77.4678 34.6855 81.9278C34.7055 82.2578 34.7455 82.6178 34.9955 82.8378C35.2355 81.8778 35.2255 80.8678 35.2055 79.8778Z" fill="white"/>
</g>
<g id="Group_99">
<path id="Vector_71" d="M27.6953 45.6895C27.8953 45.9595 30.4653 46.6095 35.5153 46.6095C40.4053 46.6095 42.9753 45.9995 43.3053 45.6495C42.9753 45.3095 40.4053 44.6895 35.5153 44.6895C30.4653 44.6995 27.8953 45.3595 27.6953 45.6895Z" fill="#E04FA5"/>
</g>
<g id="Group_100" opacity="0.2">
<g id="Group_101">
<path id="Vector_72" d="M34.8914 43.9188C34.8014 43.8288 34.6615 43.7888 34.5415 43.7588C32.6415 43.2688 30.5415 43.4488 28.8215 42.5088C28.6515 42.4188 28.4815 42.3188 28.2915 42.3288C28.1015 42.3488 27.9315 42.5588 28.0215 42.7188L28.1315 42.5088C27.4815 45.2688 27.0214 48.0788 26.7614 50.8988C26.6714 51.9388 26.6015 52.9988 26.7515 54.0288C27.6915 60.3988 32.4115 62.1488 33.6015 62.2288C31.0115 61.1188 30.7315 59.4588 30.4115 58.7588C30.0015 57.8688 29.7315 55.6788 29.7215 54.9088C29.7115 53.9288 29.6015 53.2988 29.8115 52.2688C30.1315 50.7188 30.5315 49.0188 31.4415 47.8088C32.4215 46.4988 33.1114 45.8788 34.4814 44.9788C34.8514 44.7488 35.2114 44.2288 34.8914 43.9188Z" fill="#F9D006"/>
</g>
</g>
<g id="Group_102" opacity="0.5">
<g id="Group_103">
<path id="Vector_73" d="M29.8962 43.1795C29.6062 43.0795 29.2962 42.9995 29.0062 43.0795C28.7162 43.1595 28.4662 43.4795 28.5662 43.7595L28.7462 43.2395C28.1262 45.0695 27.4962 46.9195 27.2062 48.8295C26.9162 50.7395 26.9862 52.7495 27.7162 54.5395C27.7262 51.1695 28.7462 47.8195 30.6062 45.0095C30.7862 44.7395 30.9762 44.4495 30.9562 44.1295C30.9362 43.6395 30.3862 43.3395 29.8962 43.1795Z" fill="white"/>
</g>
</g>
<g id="Group_104">
<g id="Group_105" opacity="0.3">
<g id="Group_106">
<path id="Vector_74" d="M44.1844 51.7392C44.0344 48.5292 43.5644 45.3292 42.8044 42.1992C40.8144 42.6792 38.7744 42.9692 36.7344 43.0592C36.5544 43.0692 36.3244 43.1292 36.3244 43.3092C36.3244 43.4492 36.4844 43.5392 36.6144 43.5992C37.5344 44.0592 37.8844 45.1692 38.0944 46.1792C38.6044 48.5592 38.8344 50.9892 38.8044 53.4292C38.7844 55.1792 38.5544 57.0892 37.3144 58.3292C36.3444 59.2992 34.9444 59.6692 33.5944 59.9292C33.0544 60.0392 32.5144 60.1292 31.9744 60.0892C30.9844 60.0092 30.0844 59.4792 29.2344 58.9692C30.3444 61.2792 32.9844 62.6592 35.5444 62.5792C38.1044 62.4992 40.0844 61.3792 41.7744 59.4492C42.1944 58.9692 42.6944 58.3292 42.9944 57.7692C43.9244 55.9792 44.2844 53.7492 44.1844 51.7392Z" fill="#60012C"/>
</g>
</g>
</g>
<g id="Group_107" opacity="0.5">
<g id="Group_108">
<path id="Vector_75" d="M43.4012 49.3192C43.2012 47.3992 43.0012 45.4792 42.8012 43.5492C42.7712 43.2992 42.7413 43.0292 42.6013 42.8292C42.4613 42.6192 42.3412 42.6392 42.3412 42.6392C41.8112 42.7592 41.2912 42.8692 40.7612 42.9892C40.4812 43.0492 40.1612 43.1492 40.0612 43.4192C39.9812 43.6392 40.0913 43.8692 40.1913 44.0792C41.5313 46.8792 42.1412 50.0292 41.9612 53.1292C41.8812 54.4292 41.6613 55.7292 41.1613 56.9292C40.6613 58.1292 39.8413 59.2192 38.7513 59.9192C38.2613 60.2292 37.7312 60.4592 37.1812 60.6592C36.3812 60.9492 35.5612 61.1692 34.7312 61.3192C33.9712 61.4592 33.0913 61.4992 32.5312 60.9692C33.6712 62.2192 35.6512 62.2692 37.2812 61.7992C39.8812 61.0392 42.1413 59.0692 43.0713 56.5292C43.8913 54.2392 43.6512 51.7292 43.4012 49.3192Z" fill="#60012C"/>
</g>
</g>
</g>
</g>
</svg>
