<svg width="22" height="21" viewBox="0 0 22 21" fill="none" xmlns="http://www.w3.org/2000/svg">
<path d="M4.28398 12.2847L10.1073 17.3643C10.349 17.5751 10.6681 17.6925 11 17.6925C11.3319 17.6925 11.651 17.5751 11.8927 17.3643L17.716 12.2847C18.6957 11.4326 19.25 10.2372 19.25 8.98765V8.81301C19.25 6.70831 17.6226 4.91374 15.4021 4.56748C13.9326 4.33864 12.4373 4.78728 11.3867 5.76887L11 6.1302L10.6133 5.76887C9.5627 4.78728 8.06738 4.33864 6.59785 4.56748C4.37744 4.91374 2.75 6.70831 2.75 8.81301V8.98765C2.75 10.2372 3.3043 11.4326 4.28398 12.2847Z" fill="#96999C"/>
</svg>
