<svg width="133" height="98" viewBox="0 0 133 98" fill="none" xmlns="http://www.w3.org/2000/svg">
<path d="M43.2273 7.15708C41.9132 7.49554 40.2889 7.98735 39.3129 8.97843C38.1236 10.1855 37.6859 12.0255 37.2976 13.86C37.2603 14.0367 37.0182 14.0367 36.9809 13.86C36.667 12.3902 36.2638 10.6249 35.4154 9.53381C34.336 8.14536 32.6736 7.57782 31.0419 7.15708C30.8715 7.11313 30.8715 6.87939 31.0419 6.83544C32.4696 6.46799 34.105 5.98087 35.1257 4.85421C36.1902 3.67893 36.6177 1.83701 36.9809 0.132534C37.0182 -0.044178 37.2603 -0.044178 37.2976 0.132534C37.6366 1.73416 38.2158 3.55365 39.1807 4.69526C40.2284 5.93505 41.7092 6.44462 43.2273 6.83544C43.3977 6.87939 43.3977 7.11313 43.2273 7.15708Z" fill="#CB2026"/>
<path d="M17.5977 40.0026C15.7202 40.486 13.3984 41.1891 12.0033 42.6056C10.3036 44.3316 9.67873 46.9608 9.12366 49.5816C9.07058 49.834 8.72506 49.8349 8.67104 49.5816C8.22308 47.4807 7.64566 44.9581 6.43308 43.3985C4.89082 41.4145 2.51503 40.6029 0.183004 40.0026C-0.0610014 39.94 -0.0610014 39.6053 0.183004 39.5426C2.22259 39.0181 4.5602 38.3215 6.01958 36.7106C7.54042 35.0313 8.15137 32.3993 8.67104 29.9628C8.72506 29.7103 9.07058 29.7103 9.12366 29.9628C9.60888 32.2516 10.4359 34.8518 11.8152 36.4834C13.3127 38.2552 15.4296 38.9835 17.5977 39.5417C17.8417 39.6053 17.8417 39.94 17.5977 40.0026Z" fill="#CB2026"/>
<path d="M116.153 84.6178C114.774 84.9628 113.07 85.4647 112.046 86.4757C110.798 87.7077 110.339 89.5844 109.932 91.455C109.893 91.6352 109.639 91.6359 109.6 91.455C109.271 89.9554 108.847 88.1549 107.957 87.0417C106.825 85.6255 105.081 85.0462 103.369 84.6178C103.19 84.5731 103.19 84.3342 103.369 84.2894C104.866 83.915 106.582 83.4179 107.653 82.268C108.77 81.0694 109.218 79.1907 109.6 77.4515C109.639 77.2714 109.893 77.2714 109.932 77.4515C110.288 79.0853 110.895 80.9412 111.908 82.1058C113.007 83.3705 114.561 83.8903 116.153 84.2888C116.332 84.3342 116.332 84.5731 116.153 84.6178Z" fill="#CB2026"/>
<path d="M113.857 21.0214C113.22 21.185 112.432 21.4243 111.958 21.9049C111.382 22.4902 111.169 23.3831 110.98 24.2732C110.962 24.3593 110.845 24.3593 110.826 24.2732C110.675 23.5598 110.478 22.7043 110.067 22.1742C109.543 21.501 108.737 21.2252 107.945 21.0214C107.862 20.9999 107.862 20.8867 107.945 20.8652C108.638 20.6866 109.43 20.451 109.926 19.9041C110.442 19.3337 110.65 18.4408 110.826 17.6133C110.844 17.5273 110.961 17.5273 110.979 17.6133C111.144 18.3903 111.424 19.2729 111.893 19.8265C112.401 20.4276 113.119 20.6754 113.856 20.8643C113.94 20.8867 113.94 20.9999 113.857 21.0214Z" fill="#CB2026"/>
<path d="M43.1519 77.0575C42.5149 77.2211 41.727 77.4605 41.253 77.9411C40.6765 78.5264 40.4641 79.4193 40.2751 80.3094C40.2564 80.3954 40.14 80.3954 40.1214 80.3094C39.9696 79.596 39.7731 78.7405 39.3614 78.2103C38.838 77.5371 38.0315 77.2613 37.2399 77.0575C37.157 77.036 37.157 76.9229 37.2399 76.9014C37.9319 76.7228 38.7254 76.4872 39.2208 75.9402C39.7368 75.3698 39.9444 74.4769 40.1205 73.6495C40.1391 73.5635 40.2555 73.5635 40.2741 73.6495C40.439 74.4264 40.7193 75.3091 41.1878 75.8626C41.6963 76.4638 42.4143 76.7115 43.151 76.9004C43.2348 76.9229 43.2348 77.036 43.1519 77.0575Z" fill="#CB2026"/>
<path d="M132.939 51.2772C132.302 51.4408 131.514 51.6802 131.04 52.1608C130.464 52.7461 130.251 53.639 130.062 54.5291C130.044 54.6151 129.927 54.6151 129.909 54.5291C129.757 53.8157 129.56 52.9602 129.149 52.4301C128.625 51.7569 127.819 51.481 127.027 51.2772C126.944 51.2557 126.944 51.1426 127.027 51.1211C127.719 50.9425 128.512 50.7069 129.008 50.1599C129.524 49.5896 129.732 48.6967 129.908 47.8692C129.926 47.7832 130.043 47.7832 130.061 47.8692C130.226 48.6462 130.506 49.5288 130.975 50.0823C131.483 50.6835 132.201 50.9313 132.938 51.1201C133.022 51.1426 133.022 51.2557 132.939 51.2772Z" fill="#CB2026"/>
<path d="M65.7691 94.6835C65.1321 94.8471 64.3442 95.0864 63.8701 95.567C63.2937 96.1523 63.0813 97.0452 62.8923 97.9353C62.8736 98.0214 62.7572 98.0214 62.7386 97.9353C62.5868 97.222 62.3903 96.3664 61.9786 95.8363C61.4552 95.1631 60.6487 94.8873 59.8571 94.6835C59.7742 94.662 59.7742 94.5488 59.8571 94.5273C60.5491 94.3487 61.3425 94.1131 61.838 93.5662C62.354 92.9958 62.5616 92.1029 62.7377 91.2755C62.7563 91.1894 62.8727 91.1894 62.8913 91.2755C63.0562 92.0524 63.3365 92.935 63.8049 93.4886C64.3134 94.0897 65.0315 94.3375 65.7682 94.5264C65.852 94.5479 65.852 94.662 65.7691 94.6835Z" fill="#CB2026"/>
<path d="M69.6005 76.4883C52.0103 76.4883 37.6992 62.1209 37.6992 44.4615C37.6992 26.802 52.0103 12.4346 69.6005 12.4346C87.1907 12.4346 101.502 26.802 101.502 44.4615C101.502 62.1209 87.1907 76.4883 69.6005 76.4883Z" fill="#CB2026"/>
<path d="M80.7816 33.9165C79.5536 32.6566 76.9711 32.4248 75.7742 33.9165C73.7141 36.4832 71.6541 39.05 69.5941 41.6168C68.6133 42.8391 67.6321 44.0613 66.6514 45.2836C66.3034 45.7176 65.8889 46.3682 65.4371 46.9727C65.349 46.8817 65.2604 46.7901 65.1719 46.699C64.5059 46.012 63.8405 45.3254 63.1746 44.6383C59.9904 41.3532 54.9851 46.383 58.1666 49.6655C59.8096 51.3599 61.4873 53.7293 63.7145 54.6233C66.1568 55.6037 68.3233 54.4237 69.8935 52.5112C73.5723 48.0303 77.1535 43.4653 80.7821 38.9436C81.9901 37.4377 82.2205 35.3928 80.7816 33.9165Z" fill="white"/>
</svg>
