<svg width="227" height="50" viewBox="0 0 227 50" fill="none" xmlns="http://www.w3.org/2000/svg">
<g clip-path="url(#clip0_1222_5575)">
<path d="M29.2949 24.7468C28.8092 27.2959 28.4233 29.4945 27.9609 31.6799C27.5584 33.5843 27.1159 35.4821 26.6934 37.3831C26.5138 38.1899 26.3375 38.9966 26.1612 39.8066C26.0115 40.5009 25.9716 41.2349 25.6356 41.8763C24.9503 43.1823 23.2803 43.1657 21.9962 43.2947C20.8618 43.4104 19.7175 43.4269 18.5798 43.341C16.3942 43.1823 14.2418 42.65 12.2359 41.7804C8.30709 40.081 4.9738 37.112 2.79485 33.4487C0.615897 29.7854 -0.402055 25.2229 0.156821 20.8752C0.29654 19.7874 0.529405 18.7096 0.845435 17.6582C3.8128 7.79575 13.7728 1.98672 23.1106 3.63983C31.883 5.19376 37.2555 10.5432 39.6307 18.984C39.7438 19.3907 39.7039 19.837 39.7538 20.4883H16.9031C16.6237 21.9596 16.3808 23.2358 16.0914 24.7468H29.2949Z" fill="#CB2026"/>
<path d="M143.921 0.0161944C142.411 -0.10283 141.928 0.426166 141.725 1.87099C141.22 5.43179 140.521 8.96614 139.882 12.603C138.199 12.603 136.709 12.5732 135.218 12.6096C128.642 12.7716 122.304 16.6399 121.034 23.8243C120.222 28.4034 121.18 32.7908 125.977 35.3564C127.075 35.9449 128.342 36.5202 129.55 36.5566C134.174 36.6954 138.808 36.6128 143.505 36.6128C145.657 24.4326 147.796 12.3286 149.965 0.0525629C147.777 0.0525629 145.84 0.168281 143.921 0.0161944ZM137.733 25.365C137.331 27.6761 136.852 29.9739 136.439 32.2816C136.293 33.0983 135.947 33.4619 135.032 33.4752C132.387 33.5082 130.684 32.4602 129.646 29.7557C128.169 25.9138 129.593 18.5046 134.739 16.5837C136.08 16.0811 137.574 15.9852 139.357 15.6315C138.758 19.2386 138.269 22.3067 137.733 25.365Z" fill="#CB2026"/>
<path d="M183.595 32.8172H196.392C196.269 33.8487 196.266 34.791 196.01 35.6572C195.88 36.0936 195.298 36.7152 194.915 36.7185C186.715 36.7813 178.518 36.7648 170.198 36.7648C170.085 35.0919 170.318 33.733 171.512 32.5361C177.005 27.0346 182.444 21.4801 187.913 15.9588C189.752 14.1007 190.484 11.8293 190.012 9.35292C189.826 8.3842 188.954 7.15428 188.076 6.78729C186.017 5.92437 182.62 5.66979 180.953 8.38089C179.53 10.6986 177.7 10.4737 175.541 10.239C176.376 6.94268 178.578 4.79033 181.559 3.56372C185.697 1.86433 190.005 1.742 194.28 3.16037C199.712 4.96226 201.472 10.682 199.124 15.4364C198.225 17.2482 196.821 18.8715 195.421 20.3726C191.895 24.145 188.239 27.795 184.643 31.5013C184.343 31.8121 184.1 32.1791 183.588 32.8205L183.595 32.8172Z" fill="#302929"/>
<path d="M198.817 36.1898C200.767 34.3548 202.739 32.543 204.666 30.6816C207.882 27.5738 211.073 24.4428 214.26 21.3052C214.649 20.925 214.982 20.472 215.274 20.0124C216.139 18.6503 215.733 17.4171 214.193 16.9013C213.528 16.6798 212.789 16.6103 212.081 16.6004C209.263 16.5674 206.442 16.5872 203.325 16.5872C203.478 15.5656 203.594 14.6828 203.744 13.81C204.193 11.1881 204.656 8.56961 205.108 5.94778C205.56 3.32594 206.685 2.37044 209.343 2.37044C214.775 2.37044 220.208 2.36383 225.64 2.36714C226.076 2.36714 226.508 2.40681 227.001 2.43326C226.894 3.48464 226.931 4.49634 226.638 5.40556C226.502 5.82545 225.737 6.2817 225.238 6.30154C222.969 6.39412 220.693 6.32468 218.421 6.34122C215.723 6.36105 215.261 6.74458 214.745 9.254C214.529 10.3054 214.3 11.3568 214.033 12.6098C216.043 12.6098 217.962 12.6528 219.878 12.5999C222.237 12.5305 224.236 13.1057 225.311 15.4102C226.362 17.6716 225.653 19.824 224.19 21.4804C221.169 24.9023 217.882 28.0929 214.709 31.3792C213.218 32.9232 211.751 34.4937 210.224 36.0046C209.868 36.3584 209.316 36.7188 208.847 36.7254C205.644 36.7882 202.437 36.7585 199.23 36.7585C199.093 36.57 198.957 36.3815 198.821 36.1931L198.817 36.1898Z" fill="#302929"/>
<path d="M92.7076 24.7532C94.524 23.2158 95.2392 18.8648 94.2379 16.2298C93.4229 14.0774 90.9578 12.6227 88.057 12.6095C84.1781 12.5929 80.2993 12.6227 76.4204 12.5698C75.459 12.5566 75.123 12.8211 74.9534 13.8229C74.0452 19.169 73.0139 24.4953 72.0525 29.8349C71.6533 32.0699 71.3207 34.3214 70.9248 36.7713C73.4464 36.7713 76.4304 36.8176 78.6892 36.7416C78.7801 36.3977 78.8522 36.109 78.9054 35.8754C79.2248 34.4901 79.3878 33.0684 79.6373 31.6632C80.0265 29.4547 80.4323 27.2461 80.9081 24.6342C81.2773 25.2888 81.437 25.5104 81.5335 25.7583C82.8076 29.0282 84.0551 32.3079 85.3624 35.5679C85.5421 36.0175 85.6219 36.2159 85.8814 36.692C88.3997 36.7879 91.367 36.7449 94.1248 36.7449C92.6677 33.0419 91.3138 29.6002 89.9931 26.2476C91.0044 25.7054 91.9758 25.3682 92.7076 24.7532ZM86.417 22.3959C85.4556 24.1118 84.7403 24.3333 80.9546 24.135C81.447 21.4139 81.9393 18.7095 82.435 15.9785C84.095 15.9388 85.6651 15.4694 86.6365 17.096C87.711 18.8946 87.385 20.6734 86.417 22.3959Z" fill="#CB2026"/>
<path d="M170.135 12.6096C169.999 13.5982 170.035 14.4115 169.739 15.0827C169.569 15.4695 168.874 15.8332 168.402 15.853C166.19 15.9456 163.971 15.9555 161.755 15.9158C160.202 15.8894 159.393 16.6201 159.147 18.0847C158.917 19.47 158.685 20.8553 158.418 22.4754H166.11C166.11 23.2127 166.11 23.745 166.11 24.2773C166.11 25.494 165.631 25.9998 164.287 25.9139C162.198 25.7783 160.088 25.8775 157.77 25.8775C157.444 27.7885 157.051 29.6069 156.848 31.4452C156.692 32.8503 157.667 33.4024 158.931 33.4289C160.923 33.4686 162.919 33.4454 164.912 33.4454C165.511 33.4454 166.11 33.4454 166.639 33.4454C166.755 33.6802 166.842 33.7727 166.842 33.8653C166.818 36.7649 166.818 36.755 163.974 36.745C160.152 36.7318 156.329 36.7384 152.507 36.7417C150.032 36.7417 148.708 35.6176 148.911 33.1313C149.157 30.083 149.753 27.0611 150.248 24.0359C150.628 21.7149 151.186 19.4204 151.492 17.0895C151.895 14.0313 153.299 12.6294 156.326 12.6162C160.86 12.5997 165.394 12.6129 170.128 12.6129L170.135 12.6096Z" fill="#CB2026"/>
<path d="M118.908 35.9975C117.617 28.942 116.339 21.8832 115.012 14.831C114.516 12.2026 113.395 11.4223 110.741 11.6042C108.941 11.7298 108.053 12.9366 107.314 14.345C104.087 20.5078 100.86 26.6706 97.6436 32.84C97.0182 34.0369 96.446 35.2602 95.7607 36.6455C97.5039 36.7612 99.0608 36.672 99.2704 36.6587C99.5398 36.1397 99.8825 35.5115 100.511 34.1262C100.874 33.336 101.266 32.5524 101.725 31.8118C101.898 31.5308 102.291 31.2068 102.587 31.2035C105.175 31.1539 107.763 31.1737 110.441 31.1737C110.717 32.84 110.927 34.3477 111.233 35.8355C111.306 36.176 111.359 36.3017 111.462 36.7149C113.755 36.7844 116.802 36.7546 119.057 36.7546C118.947 36.2653 118.934 36.1496 118.908 35.9975ZM103.622 27.679C104.882 25.2985 105.927 23.1032 107.194 21.0434C107.68 20.2499 108.678 20.3822 108.898 21.4237C109.317 23.4305 109.553 25.4738 109.896 27.679H103.622Z" fill="#CB2026"/>
<path d="M55.6754 15.8863C53.6595 15.8863 51.8963 15.8797 50.1365 15.8863C48.1273 15.8963 47.9709 15.6946 48.4998 13.7009C48.583 13.3868 48.6994 13.0761 48.8259 12.6826H71.5202C71.5568 12.9174 71.6333 13.0827 71.6 13.2215C71.1432 15.0003 69.9423 15.8874 67.9973 15.883C67.4451 15.883 66.8895 15.883 66.3373 15.883C63.4032 15.893 63.4664 15.9029 62.9707 18.8752C62.0226 24.542 61.0014 30.199 59.9668 35.8493C59.9069 36.1766 59.8869 36.2494 59.7971 36.6924C57.4319 36.7585 54.4978 36.7321 52.0094 36.7321C53.237 29.7593 54.4312 22.9749 55.6787 15.883L55.6754 15.8863Z" fill="#CB2026"/>
<path d="M101.04 44.6369V44.0881C101.04 43.2615 100.295 42.8516 98.8082 42.8516C97.3212 42.8516 96.5693 43.2615 96.5693 44.0881V46.8719C96.5693 47.143 96.6292 47.3546 96.8321 47.5728C97.1049 47.8936 97.717 48.0919 98.8015 48.1018C100.295 48.1018 101.04 47.6919 101.04 46.8719V46.3066H100.428V46.8025C100.428 47.4307 99.886 47.7415 98.8082 47.7382C97.7237 47.7382 97.1814 47.4241 97.1814 46.8025V44.1575C97.1814 43.5293 97.7237 43.2186 98.8082 43.2186C99.886 43.2219 100.428 43.5359 100.428 44.1575V44.6369H101.04Z" fill="#302929"/>
<path d="M104.789 42.8582C103.851 42.8582 103.249 43.0566 102.979 43.45V40.9604H102.374V48.049H102.979V44.1642C102.979 43.536 103.522 43.2219 104.606 43.2219C105.691 43.2285 106.233 43.5393 106.233 44.1642V48.049H106.845V44.0947C106.845 43.2682 106.16 42.8582 104.789 42.8582Z" fill="#302929"/>
<path d="M112.211 43.1756C111.889 42.9574 111.297 42.8516 110.408 42.8516C108.555 42.8516 108.173 43.3012 108.173 44.055V44.508H108.785V44.1145C108.785 43.8963 108.825 43.7277 108.911 43.6054C109.068 43.3607 109.527 43.2119 110.408 43.2119C111.726 43.2351 112.032 43.4764 112.032 44.1145V45.0271H110.408C109.507 45.0271 108.911 45.1163 108.595 45.3081C108.279 45.5032 108.173 45.7181 108.173 46.052V47.0736C108.173 47.7018 108.572 48.1018 110.252 48.1018C111.177 48.1085 111.769 47.9134 112.032 47.5233L112.068 48.0489H112.644V44.055C112.644 43.6583 112.531 43.3905 112.211 43.1756ZM112.032 46.8223C112.032 47.4406 111.49 47.7514 110.408 47.7514C109.064 47.7382 108.785 47.5133 108.785 47.024V46.095C108.785 45.9263 108.825 45.7941 108.911 45.6949C109.068 45.4965 109.537 45.3676 110.408 45.3676H112.032V46.8223Z" fill="#302929"/>
<path d="M116.396 42.8516C115.455 42.8516 114.852 43.0499 114.583 43.4467L114.55 42.9177H113.978V48.0489H114.583V44.1575C114.583 43.5293 115.125 43.2186 116.21 43.2186C117.294 43.2219 117.836 43.5359 117.836 44.1575V48.0489H118.449V44.0881C118.449 43.2615 117.763 42.8516 116.396 42.8516Z" fill="#302929"/>
<path d="M123.668 42.9177L123.638 43.4467C123.362 43.0499 122.757 42.8516 121.805 42.8516C120.185 42.8516 119.779 43.4764 119.779 44.0881V46.4256C119.773 47.2521 120.455 47.6621 121.822 47.6621C122.763 47.6687 123.362 47.4803 123.638 47.1034V48.6308C123.638 49.2524 123.096 49.5665 122.015 49.5665C120.934 49.5665 120.388 49.2524 120.388 48.6308V47.9035H119.779V48.7003C119.779 48.9714 119.836 49.1863 120.042 49.4012C120.315 49.7153 120.927 49.9203 122.012 49.9302C123.502 49.9302 124.25 49.5202 124.25 48.7003V42.9177H123.668ZM123.638 46.3628C123.638 46.9843 123.096 47.2951 122.015 47.2951C120.934 47.2951 120.388 46.9843 120.388 46.3628V44.1575C120.388 43.5293 120.93 43.2186 122.015 43.2186C123.096 43.2219 123.638 43.5359 123.638 44.1575V46.3628Z" fill="#302929"/>
<path d="M130.049 45.6552V44.0881C130.049 43.2615 129.304 42.8516 127.817 42.8516C126.33 42.8516 125.578 43.2615 125.578 44.0881V46.8719C125.578 47.143 125.638 47.3546 125.841 47.5728C126.114 47.8936 126.726 48.0919 127.81 48.1018C129.304 48.1018 130.049 47.6919 130.049 46.8719V46.3562H129.437V46.8025C129.437 47.4307 128.895 47.7415 127.817 47.7382C126.732 47.7382 126.19 47.4241 126.19 46.8025V45.6552H130.049ZM126.19 44.1575C126.19 43.5293 126.732 43.2186 127.817 43.2186C128.901 43.2186 129.437 43.5293 129.437 44.1575V45.2949H126.19V44.1575Z" fill="#302929"/>
<path d="M135.088 42.7325V41.5654H134.476V42.7325H133.841V43.0995H134.476V48.0489H135.088V43.0995H136.738V42.7325H135.088Z" fill="#302929"/>
<path d="M140.684 42.8582C139.743 42.8582 139.141 43.0566 138.874 43.45V40.9604H138.266V48.049H138.874V44.1642C138.874 43.536 139.417 43.2219 140.501 43.2219C141.586 43.2285 142.125 43.5393 142.125 44.1642V48.049H142.737V44.0947C142.737 43.2682 142.051 42.8582 140.684 42.8582Z" fill="#302929"/>
<path d="M148.538 45.6552V44.0881C148.538 43.2615 147.793 42.8516 146.306 42.8516C144.819 42.8516 144.067 43.2615 144.067 44.0881V46.8719C144.067 47.143 144.127 47.3546 144.33 47.5728C144.603 47.8936 145.215 48.0919 146.3 48.1018C147.793 48.1018 148.538 47.6919 148.538 46.8719V46.3562H147.926V46.8025C147.926 47.4307 147.384 47.7415 146.306 47.7382C145.222 47.7382 144.679 47.4241 144.679 46.8025V45.6552H148.538ZM144.679 44.1575C144.679 43.5293 145.222 43.2186 146.306 43.2186C147.391 43.2186 147.926 43.5293 147.926 44.1575V45.2949H144.679V44.1575Z" fill="#302929"/>
<path d="M159.599 42.918L158.395 47.6888H157.819L156.555 42.918H155.82L154.592 47.6888H154.013L152.776 42.918H152.157L153.478 48.0492H154.978L156.186 43.4404L157.43 48.0492H158.934L160.214 42.918H159.599Z" fill="#302929"/>
<path d="M165.101 43.1756C164.778 42.9574 164.186 42.8516 163.295 42.8516C161.445 42.8516 161.062 43.3012 161.062 44.055V44.508H161.675V44.1145C161.675 43.8963 161.715 43.7277 161.798 43.6054C161.957 43.3607 162.416 43.2119 163.295 43.2119C164.612 43.2351 164.921 43.4764 164.921 44.1145V45.0271H163.295C162.393 45.0271 161.798 45.1163 161.485 45.3081C161.166 45.5032 161.062 45.7181 161.062 46.052V47.0736C161.062 47.7018 161.458 48.1018 163.142 48.1018C164.066 48.1085 164.659 47.9134 164.921 47.5233L164.958 48.0489H165.534V44.055C165.534 43.6583 165.42 43.3905 165.101 43.1756ZM164.921 46.8223C164.921 47.4406 164.379 47.7514 163.295 47.7514C161.954 47.7382 161.675 47.5133 161.675 47.024V46.095C161.675 45.9263 161.715 45.7941 161.798 45.6949C161.957 45.4965 162.423 45.3676 163.295 45.3676H164.921V46.8223Z" fill="#302929"/>
<path d="M170.438 42.918L169.25 47.6889L166.991 42.918H166.376L169.077 48.36L168.668 49.9999H169.27L171.06 42.918H170.438Z" fill="#302929"/>
<path d="M178.581 42.918L177.393 47.6889L175.134 42.918H174.516L177.23 48.3203L176.811 49.9999H177.41L179.203 42.918H178.581Z" fill="#302929"/>
<path d="M182.287 42.8516C180.793 42.8516 180.048 43.2615 180.048 44.0881V46.8719C180.048 47.143 180.108 47.3546 180.311 47.5728C180.583 47.9002 181.192 48.0985 182.287 48.1018C182.992 48.1018 183.541 48.0093 183.864 47.8539C184.366 47.6191 184.519 47.2488 184.519 46.8719V44.0881C184.519 43.2615 183.774 42.8516 182.287 42.8516ZM183.907 46.8025C183.907 47.4307 183.365 47.7415 182.287 47.7415C181.209 47.7415 180.66 47.4307 180.66 46.8025V44.1575C180.66 43.5293 181.202 43.2186 182.287 43.2186C183.365 43.2219 183.907 43.5359 183.907 44.1575V46.8025Z" fill="#302929"/>
<path d="M189.642 42.918V46.8061C189.642 47.4343 189.1 47.7451 188.015 47.7417C186.931 47.7417 186.392 47.431 186.392 46.8061V42.918H185.783V46.8722C185.783 47.6988 186.465 48.1087 187.832 48.1087C188.774 48.1087 189.376 47.9104 189.642 47.5136L189.679 48.0492H190.254V42.918H189.642Z" fill="#302929"/>
<path d="M198.438 43.2384C198.148 42.9905 197.583 42.8516 196.804 42.8516C195.856 42.8516 195.247 43.0401 194.975 43.417V40.9604H194.369V48.049H194.941L194.975 47.5134C195.237 47.9035 195.849 48.1019 196.804 48.1019C198.165 48.1019 198.84 47.6919 198.84 46.872V44.0881C198.84 43.7509 198.724 43.4864 198.438 43.2384ZM198.228 46.8025C198.228 47.4307 197.686 47.7415 196.598 47.7415C195.517 47.7382 194.975 47.4241 194.975 46.8025V44.1576C194.975 43.5294 195.517 43.2186 196.598 43.2186C197.686 43.2219 198.228 43.536 198.228 44.1576V46.8025Z" fill="#302929"/>
<path d="M203.97 42.918V46.8061C203.97 47.4343 203.427 47.7451 202.343 47.7417C201.258 47.7417 200.716 47.431 200.716 46.8061V42.918H200.107V46.8722C200.107 47.6988 200.789 48.1087 202.157 48.1087C203.098 48.1087 203.7 47.9104 203.97 47.5136L204.003 48.0492H204.578V42.918H203.97Z" fill="#302929"/>
<path d="M209.812 42.918L208.624 47.6889L206.365 42.918H205.75L208.408 48.5419L208.042 49.9999H208.644L210.434 42.918H209.812Z" fill="#302929"/>
</g>
<defs>
<clipPath id="clip0_1222_5575">
<rect width="227" height="50" fill="white"/>
</clipPath>
</defs>
</svg>
