<svg width="60" height="60" viewBox="0 0 60 60" fill="none" xmlns="http://www.w3.org/2000/svg">
<g id="24-hours-support">
<path id="Vector" d="M4.99946 29.9999C4.99878 25.3052 6.32024 20.7052 8.81252 16.7267C11.3048 12.7481 14.8671 9.55186 19.0916 7.5039C23.3161 5.45595 28.0319 4.63909 32.6991 5.14686C37.3662 5.65462 41.7961 7.46649 45.4813 10.375H41.6784C41.349 10.3782 41.0342 10.5113 40.8024 10.7453C40.5706 10.9794 40.4405 11.2955 40.4405 11.625C40.4405 11.9544 40.5706 12.2705 40.8024 12.5046C41.0342 12.7387 41.349 12.8718 41.6784 12.875H48.7494C49.081 12.875 49.3989 12.7432 49.6333 12.5088C49.8678 12.2744 49.9995 11.9564 49.9995 11.6249V4.5537C50.0011 4.38853 49.9699 4.22468 49.9078 4.07163C49.8457 3.91857 49.7539 3.77934 49.6377 3.66198C49.5214 3.54461 49.3831 3.45145 49.2306 3.38787C49.0782 3.32429 48.9147 3.29156 48.7495 3.29156C48.5843 3.29156 48.4208 3.32429 48.2683 3.38787C48.1159 3.45145 47.9775 3.54461 47.8613 3.66198C47.7451 3.77934 47.6532 3.91857 47.5911 4.07163C47.529 4.22468 47.4979 4.38853 47.4995 4.5537V8.78651C42.0489 4.29018 35.0768 2.06438 28.0291 2.57076C20.9815 3.07714 14.3992 6.27683 9.64738 11.5062C4.8956 16.7356 2.33901 23.5933 2.50786 30.6571C2.67671 37.7209 5.55805 44.4487 10.5543 49.4451C10.6698 49.5633 10.8077 49.6575 10.9599 49.7221C11.1121 49.7867 11.2757 49.8204 11.441 49.8214C11.6064 49.8223 11.7703 49.7905 11.9232 49.7276C12.0762 49.6648 12.2151 49.5722 12.332 49.4553C12.449 49.3384 12.5415 49.1994 12.6044 49.0465C12.6672 48.8935 12.6991 48.7296 12.6981 48.5643C12.6972 48.3989 12.6634 48.2354 12.5988 48.0832C12.5342 47.931 12.4401 47.7931 12.3218 47.6775C9.99307 45.3615 8.14684 42.6065 6.88996 39.5722C5.63308 36.5378 4.99051 33.2843 4.99946 29.9999Z" fill="#242424"/>
<path id="Vector_2" d="M19.0731 52.4951C18.3639 52.1502 17.6619 51.7663 16.9872 51.355C16.7042 51.1822 16.3642 51.129 16.042 51.2069C15.7198 51.2849 15.4417 51.4876 15.269 51.7706C15.0963 52.0535 15.043 52.3935 15.121 52.7157C15.1989 53.0379 15.4017 53.316 15.6846 53.4887C16.4275 53.9422 17.2001 54.364 17.9808 54.7435C18.1284 54.8153 18.2888 54.8572 18.4526 54.867C18.6165 54.8768 18.7806 54.8542 18.9357 54.8005C19.0909 54.7469 19.2339 54.6632 19.3567 54.5542C19.4795 54.4453 19.5796 54.3132 19.6513 54.1656C19.723 54.0179 19.765 53.8576 19.7748 53.6938C19.7846 53.5299 19.762 53.3657 19.7083 53.2106C19.6546 53.0555 19.5709 52.9125 19.462 52.7897C19.353 52.6669 19.221 52.5668 19.0733 52.4951H19.0731Z" fill="#242424"/>
<path id="Vector_3" d="M52.507 19.0985C52.5786 19.2462 52.6785 19.3784 52.8012 19.4876C52.9238 19.5967 53.0668 19.6805 53.2219 19.7344C53.3769 19.7883 53.5411 19.8111 53.705 19.8015C53.8688 19.7919 54.0292 19.7502 54.1769 19.6786C54.3247 19.607 54.4569 19.5071 54.566 19.3844C54.6751 19.2618 54.759 19.1188 54.8128 18.9638C54.8667 18.8087 54.8895 18.6445 54.8799 18.4807C54.8703 18.3168 54.8286 18.1564 54.757 18.0087C54.3804 17.2304 53.9593 16.4578 53.5058 15.7118C53.4205 15.5715 53.3084 15.4494 53.1759 15.3525C53.0434 15.2556 52.8931 15.1857 52.7335 15.1468C52.4114 15.0684 52.0712 15.1211 51.788 15.2934C51.5047 15.4658 51.3015 15.7436 51.223 16.0657C51.1445 16.3879 51.1973 16.728 51.3696 17.0113C51.7819 17.6895 52.1646 18.3918 52.507 19.0985Z" fill="#242424"/>
<path id="Vector_4" d="M32.9664 54.8253C32.1772 54.9191 31.3788 54.9749 30.5927 54.9938C30.2672 55.0063 29.9595 55.1453 29.735 55.3813C29.5104 55.6173 29.3869 55.9317 29.3907 56.2574C29.3945 56.5831 29.5253 56.8945 29.7552 57.1252C29.9852 57.3559 30.2961 57.4878 30.6218 57.4926C30.6315 57.4926 30.642 57.4926 30.6517 57.492C31.516 57.4719 32.393 57.41 33.2597 57.3077C33.5887 57.2685 33.8886 57.1003 34.0936 56.8401C34.2987 56.5799 34.3921 56.249 34.3532 55.92C34.3144 55.591 34.1466 55.2908 33.8866 55.0855C33.6266 54.8802 33.2958 54.7864 32.9667 54.8249L32.9664 54.8253Z" fill="#242424"/>
<path id="Vector_5" d="M25.8499 54.6557C25.0723 54.5257 24.2905 54.3566 23.5263 54.1518C23.2059 54.0662 22.8647 54.1113 22.5776 54.2773C22.2905 54.4433 22.0812 54.7165 21.9955 55.0368C21.9099 55.3572 21.955 55.6984 22.121 55.9855C22.287 56.2726 22.5602 56.482 22.8806 56.5676C23.7216 56.7922 24.5823 56.9783 25.4386 57.1212C25.6005 57.1482 25.7661 57.1431 25.926 57.106C26.086 57.069 26.237 57.0009 26.3706 56.9055C26.5042 56.8101 26.6177 56.6893 26.7046 56.5501C26.7915 56.4108 26.8501 56.2558 26.8772 56.0939C26.9042 55.932 26.899 55.7664 26.862 55.6065C26.825 55.4465 26.7569 55.2955 26.6615 55.1619C26.5661 55.0283 26.4453 54.9148 26.3061 54.8279C26.1668 54.741 26.0118 54.6823 25.8499 54.6553V54.6557Z" fill="#242424"/>
<path id="Vector_6" d="M56.2733 29.3969C55.9419 29.3888 55.6209 29.5126 55.3808 29.7412C55.1407 29.9697 55.0011 30.2842 54.9928 30.6156C54.9727 31.406 54.9154 32.2043 54.8213 32.9892C54.7821 33.3185 54.8752 33.6498 55.0802 33.9103C55.2852 34.1709 55.5852 34.3395 55.9144 34.379C55.9642 34.3845 56.0143 34.3874 56.0645 34.3875C56.37 34.3871 56.6648 34.2747 56.8932 34.0718C57.1216 33.8689 57.2678 33.5893 57.3041 33.286C57.4067 32.4236 57.4702 31.5464 57.4916 30.6779C57.4958 30.5138 57.4676 30.3505 57.4086 30.1973C57.3496 30.044 57.2611 29.9039 57.1479 29.785C57.0348 29.666 56.8993 29.5705 56.7492 29.5039C56.5992 29.4373 56.4375 29.4009 56.2733 29.3969Z" fill="#242424"/>
<path id="Vector_7" d="M52.4395 43.696C52.1651 43.5101 51.8282 43.4405 51.5027 43.5027C51.1772 43.5648 50.8896 43.7535 50.703 44.0274C50.2586 44.6811 49.7783 45.3214 49.2741 45.9299C49.1669 46.0559 49.0859 46.202 49.0356 46.3597C48.9853 46.5174 48.9669 46.6835 48.9813 46.8483C48.9958 47.0132 49.0428 47.1735 49.1197 47.32C49.1966 47.4665 49.3018 47.5963 49.4293 47.7019C49.5568 47.8074 49.7039 47.8866 49.8622 47.9348C50.0205 47.983 50.1868 47.9993 50.3515 47.9827C50.5161 47.9661 50.6759 47.917 50.8214 47.8382C50.9669 47.7594 51.0953 47.6524 51.1992 47.5236C51.7533 46.8547 52.2826 46.1509 52.7708 45.4319C52.863 45.2962 52.9276 45.1436 52.9609 44.9829C52.9941 44.8222 52.9954 44.6566 52.9646 44.4954C52.9339 44.3342 52.8717 44.1806 52.7816 44.0435C52.6914 43.9063 52.5752 43.7882 52.4395 43.696Z" fill="#242424"/>
<path id="Vector_8" d="M54.1591 23.5502C54.3617 24.3113 54.5302 25.0932 54.6601 25.8744C54.7086 26.1662 54.8589 26.4314 55.0844 26.6228C55.3099 26.8142 55.596 26.9195 55.8918 26.9199C55.9607 26.9198 56.0295 26.9141 56.0975 26.9028C56.2594 26.876 56.4145 26.8175 56.5539 26.7307C56.6932 26.6438 56.8141 26.5304 56.9096 26.3969C57.0051 26.2634 57.0734 26.1123 57.1105 25.9524C57.1476 25.7924 57.1528 25.6268 57.1259 25.4648C56.9836 24.6055 56.7978 23.7445 56.5751 22.9068C56.4898 22.5865 56.2807 22.3131 55.9939 22.1469C55.707 21.9807 55.3659 21.9353 55.0455 22.0206C54.7252 22.1059 54.4518 22.315 54.2856 22.6019C54.1194 22.8887 54.074 23.2298 54.1593 23.5502H54.1591Z" fill="#242424"/>
<path id="Vector_9" d="M45.9041 49.2885C45.2931 49.7939 44.6529 50.2742 44.0017 50.7155C43.8658 50.8076 43.7494 50.9256 43.6591 51.0626C43.5689 51.1997 43.5065 51.3532 43.4755 51.5144C43.4446 51.6756 43.4457 51.8413 43.4788 52.0021C43.5119 52.1628 43.5763 52.3155 43.6684 52.4513C43.7605 52.5872 43.8785 52.7036 44.0156 52.7939C44.1526 52.8841 44.3061 52.9465 44.4673 52.9775C44.6285 53.0084 44.7942 53.0073 44.955 52.9742C45.1157 52.9411 45.2684 52.8767 45.4043 52.7846C46.1209 52.2993 46.8246 51.7714 47.4971 51.216C47.7527 51.0048 47.9139 50.7006 47.9453 50.3705C47.9767 50.0404 47.8756 49.7113 47.6643 49.4557C47.4531 49.2001 47.149 49.0389 46.8188 49.0076C46.4887 48.9762 46.1597 49.0773 45.9041 49.2885Z" fill="#242424"/>
<path id="Vector_10" d="M55.3785 36.8224C55.0627 36.7221 54.72 36.7511 54.4256 36.9032C54.1312 37.0553 53.9092 37.3179 53.8082 37.6335C53.5689 38.3835 53.2894 39.1326 52.9774 39.8607C52.9093 40.0121 52.8719 40.1755 52.8676 40.3415C52.8633 40.5074 52.8921 40.6726 52.9523 40.8273C53.0125 40.982 53.103 41.1232 53.2184 41.2426C53.3338 41.362 53.4718 41.4571 53.6244 41.5226C53.777 41.588 53.9411 41.6224 54.1071 41.6237C54.2731 41.625 54.4377 41.5933 54.5913 41.5303C54.7449 41.4672 54.8844 41.3743 55.0017 41.2567C55.119 41.1392 55.2116 40.9995 55.2743 40.8458C55.6186 40.0443 55.9262 39.2186 56.1892 38.3928C56.2392 38.2365 56.2578 38.0718 56.2441 37.9082C56.2304 37.7447 56.1846 37.5854 56.1093 37.4396C56.034 37.2937 55.9307 37.1641 55.8053 37.0582C55.6799 36.9523 55.5349 36.8722 55.3785 36.8224Z" fill="#242424"/>
<path id="Vector_11" d="M39.8401 52.9896C39.1193 53.2984 38.3698 53.5774 37.6124 53.8191C37.456 53.8689 37.311 53.9491 37.1856 54.055C37.0602 54.1609 36.9569 54.2905 36.8816 54.4363C36.8063 54.5821 36.7604 54.7414 36.7466 54.9049C36.7328 55.0685 36.7514 55.2331 36.8012 55.3895C36.8511 55.5459 36.9313 55.6909 37.0372 55.8163C37.1431 55.9417 37.2726 56.045 37.4185 56.1203C37.5643 56.1957 37.7235 56.2415 37.8871 56.2553C38.0506 56.2691 38.2153 56.2505 38.3717 56.2007C39.2048 55.9351 40.03 55.6282 40.8241 55.2883C41.1289 55.1577 41.3693 54.9114 41.4926 54.6036C41.6158 54.2958 41.6117 53.9516 41.4812 53.6468C41.3506 53.3419 41.1044 53.1015 40.7965 52.9782C40.4887 52.855 40.1445 52.8591 39.8397 52.9896H39.8401Z" fill="#242424"/>
<path id="Vector_12" d="M19.4288 27.4456C19.4288 25.3969 18.0817 23.7554 15.9968 23.2632C14.8515 22.9919 13.648 23.1169 12.5828 23.6177C11.5176 24.1185 10.6537 24.9656 10.132 26.0207C9.98586 26.317 9.96299 26.6591 10.0683 26.9722C10.1737 27.2853 10.3986 27.544 10.6941 27.6917C10.9896 27.8395 11.3315 27.8643 11.6452 27.7607C11.9589 27.6571 12.2188 27.4336 12.3682 27.1389C12.6351 26.585 13.084 26.1396 13.64 25.877C14.1959 25.6144 14.8251 25.5507 15.4224 25.6963C15.7758 25.7797 16.9287 26.1525 16.9287 27.4456C16.9287 28.7493 15.423 29.7549 13.8287 30.8197C12.0337 32.0178 10 33.3757 10 35.6243C10 35.9559 10.1317 36.2738 10.3661 36.5083C10.6006 36.7427 10.9185 36.8744 11.25 36.8744H18.1787C18.3439 36.876 18.5078 36.8448 18.6608 36.7827C18.8139 36.7206 18.9531 36.6288 19.0705 36.5126C19.1878 36.3963 19.281 36.258 19.3446 36.1056C19.4082 35.9531 19.4409 35.7896 19.4409 35.6244C19.4409 35.4592 19.4082 35.2957 19.3446 35.1432C19.281 34.9908 19.1878 34.8525 19.0705 34.7362C18.9531 34.62 18.8139 34.5282 18.6608 34.4661C18.5078 34.404 18.3439 34.3728 18.1787 34.3744H13.2264C13.7501 33.8783 14.4904 33.3838 15.2167 32.8986C17.1914 31.5802 19.4288 30.0861 19.4288 27.4456Z" fill="#242424"/>
<path id="Vector_13" d="M31.2497 31.5624C31.2497 31.2309 31.118 30.913 30.8835 30.6786C30.6491 30.4442 30.3312 30.3125 29.9997 30.3125H28.984V23.6718C28.984 23.4129 28.9036 23.1604 28.7539 22.9492C28.6042 22.738 28.3926 22.5784 28.1484 22.4926C27.9041 22.4068 27.6393 22.3989 27.3904 22.47C27.1414 22.5411 26.9207 22.6878 26.7587 22.8897L20.4306 30.7806C20.2834 30.9645 20.1911 31.1861 20.1643 31.4201C20.1376 31.6541 20.1775 31.8909 20.2794 32.1032C20.3813 32.3156 20.5411 32.4948 20.7404 32.6202C20.9398 32.7457 21.1705 32.8123 21.406 32.8124H26.484V36.3281C26.4825 36.4932 26.5136 36.6571 26.5757 36.8101C26.6378 36.9632 26.7296 37.1024 26.8459 37.2198C26.9621 37.3371 27.1004 37.4303 27.2529 37.4939C27.4053 37.5575 27.5689 37.5902 27.734 37.5902C27.8992 37.5902 28.0627 37.5575 28.2152 37.4939C28.3676 37.4303 28.506 37.3371 28.6222 37.2198C28.7384 37.1024 28.8303 36.9632 28.8924 36.8101C28.9545 36.6571 28.9856 36.4932 28.984 36.3281V32.8124H29.9997C30.3312 32.8124 30.6492 32.6807 30.8836 32.4463C31.118 32.2119 31.2497 31.8939 31.2497 31.5624ZM26.484 30.3125H24.0114L26.484 27.2283V30.3125Z" fill="#242424"/>
<path id="Vector_14" d="M37.6515 21.7435C37.4905 21.7109 37.3247 21.7105 37.1635 21.7422C37.0024 21.7739 36.8491 21.8371 36.7124 21.9282C36.5757 22.0193 36.4584 22.1365 36.3671 22.2731C36.2759 22.4096 36.2125 22.5629 36.1806 22.724L33.3681 36.7865C33.303 37.1115 33.3697 37.4491 33.5536 37.725C33.7374 38.0008 34.0233 38.1923 34.3483 38.2574C34.4294 38.2736 34.5118 38.2817 34.5944 38.2818C34.8831 38.2815 35.1628 38.1812 35.386 37.9981C35.6092 37.815 35.7621 37.5602 35.8188 37.2771L38.6313 23.2146C38.6636 23.0537 38.6639 22.888 38.6322 22.7269C38.6004 22.5659 38.5372 22.4127 38.4462 22.276C38.3552 22.1394 38.2382 22.0221 38.1019 21.9307C37.9655 21.8393 37.8125 21.7757 37.6515 21.7435Z" fill="#242424"/>
<path id="Vector_15" d="M44.0655 36.8757C44.3123 36.8755 44.5536 36.8024 44.759 36.6654C44.9644 36.5285 45.1246 36.3338 45.2197 36.106L49.9072 24.856C49.9864 24.666 50.0175 24.4595 49.9978 24.2546C49.978 24.0497 49.9079 23.8529 49.7938 23.6816C49.6796 23.5104 49.525 23.37 49.3435 23.2728C49.162 23.1757 48.9594 23.125 48.7536 23.125H42.4254C42.096 23.1282 41.7812 23.2613 41.5494 23.4954C41.3175 23.7294 41.1875 24.0455 41.1875 24.375C41.1875 24.7044 41.3175 25.0205 41.5494 25.2546C41.7812 25.4887 42.096 25.6218 42.4254 25.625H46.8786L42.9125 35.1446C42.8336 35.3345 42.8027 35.541 42.8226 35.7457C42.8425 35.9504 42.9126 36.1471 43.0266 36.3182C43.1406 36.4894 43.295 36.6299 43.4762 36.7272C43.6574 36.8245 43.8598 36.8757 44.0655 36.8761V36.8757Z" fill="#242424"/>
</g>
</svg>
