<svg width="60" height="60" viewBox="0 0 60 60" fill="none" xmlns="http://www.w3.org/2000/svg">
<g id="credit-card (1)">
<path id="Vector" d="M57.1219 13.0409L14.1479 5.37546C12.2647 5.03675 10.4352 6.35433 10.1085 8.22739L7.34081 24.1051H3.3871C1.51935 24.1051 0 25.625 0 27.4922V51.289C0 53.1563 1.51935 54.6761 3.3871 54.6761H47.2195C49.0873 54.6761 50.6066 53.1563 50.6066 51.289V42.9214C51.8623 43.1455 53.0744 43.4096 54.2352 42.7153C55.1061 42.1942 55.7308 41.2956 55.9055 40.2945L59.9468 17.1093C60.2792 15.2024 59.0119 13.3772 57.1219 13.0409ZM12.0155 8.55981C12.1606 7.72804 12.9677 7.13046 13.8082 7.28046L56.7823 14.9459C57.6256 15.0964 58.1898 15.9176 58.0403 16.7764L57.3735 20.6038L11.3468 12.3945L12.0155 8.55981ZM48.6711 51.289C48.6711 52.0893 48.0198 52.7406 47.2195 52.7406H3.3871C2.58677 52.7406 1.93548 52.0893 1.93548 51.289V27.4922C1.93548 26.6919 2.58677 26.0406 3.3871 26.0406H47.2195C48.0198 26.0406 48.6711 26.6919 48.6711 27.4922V51.289ZM53.999 39.9621C53.6981 41.6832 51.7868 41.1659 50.6066 40.9555V27.4922C50.6066 25.625 49.0873 24.1051 47.2195 24.1051H9.30581L11.0144 14.3009L13.8179 14.8008L57.0406 22.5103L53.999 39.9621Z" fill="#242424"/>
<path id="Vector_2" d="M22.7979 48.873H17.2334C16.6992 48.873 16.2656 48.4394 16.2656 47.9052C16.2656 47.371 16.6992 46.9375 17.2334 46.9375H22.7979C23.3321 46.9375 23.7656 47.371 23.7656 47.9052C23.7656 48.4394 23.3326 48.873 22.7979 48.873Z" fill="#242424"/>
<path id="Vector_3" d="M12.2276 48.873H6.66305C6.12886 48.873 5.69531 48.4394 5.69531 47.9052C5.69531 47.371 6.12886 46.9375 6.66305 46.9375H12.2276C12.7618 46.9375 13.1953 47.371 13.1953 47.9052C13.1953 48.4394 12.7618 48.873 12.2276 48.873Z" fill="#242424"/>
<path id="Vector_4" d="M33.3682 48.873H27.8037C27.2695 48.873 26.8359 48.4394 26.8359 47.9052C26.8359 47.371 27.2695 46.9375 27.8037 46.9375H33.3682C33.9024 46.9375 34.3359 47.371 34.3359 47.9052C34.3359 48.4394 33.9029 48.873 33.3682 48.873Z" fill="#242424"/>
<path id="Vector_5" d="M43.9463 48.873H38.3818C37.8476 48.873 37.4141 48.4394 37.4141 47.9052C37.4141 47.371 37.8476 46.9375 38.3818 46.9375H43.9463C44.4805 46.9375 44.9141 47.371 44.9141 47.9052C44.9141 48.4394 44.4805 48.873 43.9463 48.873Z" fill="#242424"/>
<path id="Vector_6" d="M14.7256 43.8524H7.71623C6.3822 43.8524 5.29688 42.7671 5.29688 41.4331V38.6537C5.29688 37.3197 6.3822 36.2344 7.71623 36.2344H14.7256C16.0596 36.2344 17.1449 37.3197 17.1449 38.6537V41.4331C17.1449 42.7666 16.0591 43.8524 14.7256 43.8524ZM7.71623 38.1694C7.44962 38.1694 7.23236 38.3861 7.23236 38.6532V41.4326C7.23236 41.6997 7.44962 41.9165 7.71623 41.9165H14.7256C14.9922 41.9165 15.2095 41.6997 15.2095 41.4326V38.6532C15.2095 38.3861 14.9922 38.1694 14.7256 38.1694H7.71623Z" fill="#242424"/>
</g>
</svg>
