<?xml version="1.0" encoding="UTF-8"?>
<svg xmlns="http://www.w3.org/2000/svg" xmlns:xlink="http://www.w3.org/1999/xlink" width="60px" height="60px" viewBox="0 0 60 60" version="1.1">
<g id="surface1">
<path style=" stroke:none;fill-rule:nonzero;fill:rgb(0%,0%,0%);fill-opacity:1;" d="M 40.597656 20.554688 C 40.753906 20.554688 40.90625 20.554688 41.0625 20.554688 C 41.390625 20.554688 41.714844 20.558594 42.039062 20.5625 C 42.457031 20.566406 42.871094 20.566406 43.285156 20.566406 C 43.683594 20.566406 44.082031 20.566406 44.480469 20.570312 C 44.703125 20.570312 44.703125 20.570312 44.929688 20.570312 C 45.070312 20.570312 45.207031 20.574219 45.351562 20.574219 C 45.535156 20.578125 45.535156 20.578125 45.722656 20.578125 C 46.242188 20.652344 46.542969 20.878906 46.90625 21.246094 C 47.132812 21.601562 47.199219 21.847656 47.226562 22.265625 C 47.1875 22.34375 47.148438 22.421875 47.109375 22.5 C 47.246094 22.5 47.246094 22.5 47.386719 22.496094 C 48.257812 22.488281 49.125 22.480469 49.996094 22.476562 C 50.441406 22.472656 50.886719 22.46875 51.335938 22.464844 C 51.765625 22.460938 52.199219 22.457031 52.628906 22.457031 C 52.792969 22.453125 52.957031 22.453125 53.121094 22.449219 C 54.058594 22.4375 54.753906 22.445312 55.546875 22.96875 C 56.132812 23.585938 56.285156 24.0625 56.265625 24.902344 C 56.261719 25.085938 56.261719 25.265625 56.257812 25.449219 C 56.257812 25.546875 56.253906 25.640625 56.253906 25.742188 C 56.246094 26.253906 56.25 26.769531 56.25 27.28125 C 56.253906 27.933594 56.25 28.585938 56.238281 29.238281 C 56.050781 31.714844 56.050781 31.714844 56.9375 33.890625 C 57.363281 34.238281 57.816406 34.472656 58.324219 34.679688 C 58.953125 34.96875 59.613281 35.4375 59.929688 36.070312 C 60.242188 37.207031 59.941406 38.429688 59.632812 39.53125 C 59.59375 39.671875 59.554688 39.8125 59.515625 39.960938 C 59.4375 40.253906 59.355469 40.550781 59.273438 40.84375 C 59.148438 41.292969 59.027344 41.746094 58.910156 42.195312 C 58.828125 42.484375 58.75 42.773438 58.671875 43.0625 C 58.636719 43.195312 58.601562 43.328125 58.5625 43.464844 C 58.222656 44.683594 57.816406 45.703125 56.738281 46.4375 C 56.273438 46.695312 55.882812 46.777344 55.355469 46.832031 C 54.964844 46.890625 54.785156 46.921875 54.523438 47.226562 C 54.414062 47.425781 54.304688 47.632812 54.199219 47.835938 C 53.46875 49.195312 52.121094 50.109375 50.667969 50.546875 C 49.484375 50.777344 48.164062 50.808594 47.109375 50.15625 C 46.3125 49.582031 45.699219 48.90625 45.46875 47.929688 C 45.46875 47.582031 45.46875 47.234375 45.46875 46.875 C 38.894531 46.875 32.320312 46.875 25.546875 46.875 C 25.429688 47.222656 25.429688 47.222656 25.3125 47.578125 C 25.070312 47.957031 24.785156 48.292969 24.492188 48.632812 C 24.429688 48.707031 24.367188 48.777344 24.304688 48.855469 C 23.359375 49.886719 22.015625 50.570312 20.617188 50.660156 C 19.425781 50.710938 18.453125 50.589844 17.484375 49.835938 C 16.804688 49.195312 16.449219 48.488281 16.289062 47.578125 C 16.285156 47.34375 16.285156 47.109375 16.289062 46.875 C 16.164062 46.878906 16.039062 46.878906 15.914062 46.882812 C 15.449219 46.890625 14.988281 46.894531 14.523438 46.902344 C 14.324219 46.902344 14.125 46.90625 13.925781 46.910156 C 13.636719 46.917969 13.351562 46.917969 13.0625 46.921875 C 12.972656 46.921875 12.882812 46.925781 12.792969 46.929688 C 12.1875 46.929688 11.851562 46.800781 11.367188 46.40625 C 11.007812 45.984375 10.980469 45.628906 10.988281 45.082031 C 11.042969 44.453125 11.222656 43.851562 11.390625 43.242188 C 11.429688 43.101562 11.46875 42.957031 11.507812 42.808594 C 11.589844 42.507812 11.671875 42.207031 11.753906 41.90625 C 11.859375 41.523438 11.964844 41.140625 12.066406 40.753906 C 12.164062 40.386719 12.265625 40.015625 12.367188 39.648438 C 12.402344 39.507812 12.441406 39.371094 12.480469 39.230469 C 12.53125 39.039062 12.53125 39.039062 12.585938 38.84375 C 12.617188 38.730469 12.648438 38.617188 12.679688 38.5 C 12.894531 37.824219 12.894531 37.824219 13.207031 37.582031 C 13.601562 37.460938 13.898438 37.523438 14.296875 37.617188 C 14.523438 37.742188 14.523438 37.742188 14.648438 37.96875 C 14.707031 38.777344 14.53125 39.464844 14.320312 40.242188 C 14.285156 40.367188 14.253906 40.492188 14.21875 40.621094 C 14.109375 41.019531 14.003906 41.417969 13.894531 41.8125 C 13.820312 42.082031 13.75 42.351562 13.675781 42.621094 C 13.542969 43.113281 13.410156 43.605469 13.277344 44.097656 C 13.25 44.195312 13.222656 44.292969 13.195312 44.394531 C 13.140625 44.597656 13.074219 44.800781 13.007812 45 C 14.246094 45 15.484375 45 16.757812 45 C 16.875 44.652344 16.875 44.652344 16.992188 44.296875 C 17.886719 42.839844 19.226562 41.84375 20.859375 41.390625 C 22.160156 41.097656 23.308594 41.210938 24.460938 41.910156 C 25.183594 42.421875 25.714844 43.191406 25.898438 44.0625 C 25.898438 44.371094 25.898438 44.679688 25.898438 45 C 30.308594 45 34.714844 45 39.257812 45 C 39.296875 44.691406 39.335938 44.382812 39.375 44.0625 C 39.4375 43.78125 39.507812 43.503906 39.585938 43.226562 C 39.605469 43.148438 39.625 43.070312 39.648438 42.988281 C 39.71875 42.726562 39.789062 42.46875 39.859375 42.207031 C 39.910156 42.019531 39.960938 41.832031 40.011719 41.644531 C 40.121094 41.238281 40.230469 40.835938 40.339844 40.433594 C 40.511719 39.792969 40.683594 39.15625 40.855469 38.515625 C 41.066406 37.734375 41.277344 36.949219 41.488281 36.167969 C 42.035156 34.15625 42.574219 32.144531 43.113281 30.132812 C 43.28125 29.511719 43.445312 28.890625 43.613281 28.269531 C 44.371094 25.445312 44.371094 25.445312 45.117188 22.617188 C 45.042969 22.617188 44.96875 22.617188 44.894531 22.613281 C 44.128906 22.609375 43.363281 22.597656 42.597656 22.585938 C 42.308594 22.582031 42.023438 22.578125 41.738281 22.578125 C 41.328125 22.574219 40.917969 22.566406 40.503906 22.558594 C 40.378906 22.558594 40.25 22.558594 40.117188 22.558594 C 39 22.535156 39 22.535156 38.554688 22.148438 C 38.453125 21.929688 38.453125 21.929688 38.421875 21.695312 C 38.410156 21.617188 38.398438 21.539062 38.386719 21.460938 C 38.449219 21.15625 38.570312 20.96875 38.796875 20.75 C 39.328125 20.453125 40.007812 20.546875 40.597656 20.554688 Z M 46.640625 24.375 C 46.339844 25.484375 46.039062 26.597656 45.738281 27.707031 C 45.707031 27.832031 45.707031 27.832031 45.671875 27.957031 C 44.8125 31.136719 43.964844 34.316406 43.125 37.5 C 43.320312 37.5 43.320312 37.5 43.519531 37.5 C 44.738281 37.503906 45.960938 37.511719 47.179688 37.523438 C 47.808594 37.527344 48.4375 37.53125 49.0625 37.53125 C 49.667969 37.535156 50.273438 37.539062 50.878906 37.542969 C 51.109375 37.542969 51.34375 37.546875 51.574219 37.546875 C 51.898438 37.546875 52.21875 37.550781 52.542969 37.554688 C 52.640625 37.550781 52.734375 37.550781 52.835938 37.550781 C 53.253906 37.558594 53.503906 37.582031 53.847656 37.832031 C 54.089844 38.179688 54.09375 38.378906 54.023438 38.789062 C 53.832031 39.070312 53.679688 39.234375 53.335938 39.300781 C 53.058594 39.320312 52.78125 39.324219 52.5 39.320312 C 52.394531 39.324219 52.289062 39.324219 52.179688 39.324219 C 51.828125 39.328125 51.476562 39.328125 51.125 39.328125 C 50.882812 39.332031 50.636719 39.332031 50.394531 39.335938 C 49.753906 39.339844 49.113281 39.34375 48.46875 39.34375 C 47.816406 39.347656 47.160156 39.351562 46.507812 39.355469 C 45.222656 39.363281 43.941406 39.371094 42.65625 39.375 C 42.007812 41.5625 42.007812 41.5625 41.433594 43.769531 C 41.402344 43.890625 41.375 44.011719 41.34375 44.136719 C 41.273438 44.425781 41.203125 44.710938 41.132812 45 C 41.785156 45.03125 42.4375 45.054688 43.089844 45.070312 C 43.3125 45.078125 43.535156 45.085938 43.753906 45.097656 C 45.03125 45.210938 45.03125 45.210938 46.140625 44.726562 C 46.347656 44.394531 46.496094 44.074219 46.640625 43.710938 C 47.519531 42.464844 48.871094 41.753906 50.335938 41.417969 C 51.484375 41.222656 52.648438 41.402344 53.636719 42.039062 C 54.609375 42.84375 54.886719 43.789062 55.078125 45 C 55.699219 44.855469 56.035156 44.59375 56.367188 44.0625 C 56.519531 43.683594 56.625 43.292969 56.726562 42.898438 C 56.753906 42.789062 56.785156 42.679688 56.816406 42.570312 C 56.875 42.351562 56.929688 42.132812 56.988281 41.914062 C 57.0625 41.628906 57.140625 41.347656 57.21875 41.066406 C 57.457031 40.234375 57.457031 40.234375 57.539062 39.375 C 57.457031 39.363281 57.375 39.347656 57.289062 39.335938 C 57.183594 39.316406 57.078125 39.300781 56.96875 39.28125 C 56.808594 39.253906 56.808594 39.253906 56.644531 39.226562 C 56.367188 39.140625 56.367188 39.140625 56.132812 38.789062 C 56.082031 38.378906 56.070312 38.171875 56.320312 37.835938 C 56.6875 37.550781 56.933594 37.546875 57.390625 37.53125 C 57.53125 37.523438 57.667969 37.515625 57.808594 37.507812 C 57.914062 37.507812 58.015625 37.503906 58.125 37.5 C 58.167969 37.164062 58.167969 37.164062 58.125 36.796875 C 57.921875 36.558594 57.921875 36.558594 57.632812 36.386719 C 57.53125 36.316406 57.425781 36.246094 57.320312 36.175781 C 57.210938 36.105469 57.101562 36.035156 56.988281 35.960938 C 56.777344 35.820312 56.5625 35.679688 56.351562 35.535156 C 56.257812 35.472656 56.160156 35.414062 56.0625 35.347656 C 55.78125 35.15625 55.78125 35.15625 55.515625 34.914062 C 55.136719 34.648438 54.953125 34.628906 54.5 34.632812 C 54.359375 34.628906 54.222656 34.628906 54.082031 34.628906 C 53.859375 34.628906 53.859375 34.628906 53.632812 34.632812 C 53.398438 34.632812 53.164062 34.628906 52.929688 34.628906 C 52.4375 34.625 51.945312 34.628906 51.453125 34.628906 C 51.046875 34.628906 50.644531 34.628906 50.238281 34.628906 C 49.933594 34.625 49.628906 34.625 49.328125 34.628906 C 48.355469 34.625 47.671875 34.535156 46.949219 33.832031 C 46.398438 32.921875 46.507812 32.046875 46.714844 31.046875 C 46.808594 30.671875 46.910156 30.304688 47.015625 29.933594 C 47.0625 29.746094 47.0625 29.746094 47.113281 29.558594 C 47.445312 28.371094 47.875 27.402344 48.945312 26.738281 C 49.625 26.402344 50.21875 26.328125 50.964844 26.320312 C 51.0625 26.316406 51.160156 26.3125 51.261719 26.3125 C 51.570312 26.304688 51.882812 26.300781 52.191406 26.292969 C 52.402344 26.289062 52.613281 26.285156 52.828125 26.28125 C 53.34375 26.269531 53.859375 26.257812 54.375 26.25 C 54.375 25.671875 54.375 25.089844 54.375 24.492188 C 54.050781 24.328125 53.789062 24.359375 53.425781 24.363281 C 53.277344 24.363281 53.125 24.363281 52.96875 24.363281 C 52.804688 24.363281 52.640625 24.363281 52.476562 24.363281 C 52.308594 24.363281 52.140625 24.363281 51.972656 24.363281 C 51.53125 24.363281 51.089844 24.367188 50.648438 24.367188 C 50.195312 24.367188 49.746094 24.367188 49.296875 24.371094 C 48.410156 24.371094 47.527344 24.371094 46.640625 24.375 Z M 49.386719 28.753906 C 48.945312 29.316406 48.816406 30.03125 48.640625 30.710938 C 48.601562 30.847656 48.5625 30.984375 48.523438 31.125 C 48.488281 31.257812 48.453125 31.390625 48.417969 31.527344 C 48.371094 31.707031 48.371094 31.707031 48.320312 31.890625 C 48.25 32.277344 48.25 32.277344 48.515625 32.8125 C 50.488281 32.8125 52.460938 32.8125 54.492188 32.8125 C 54.496094 31.683594 54.496094 31.683594 54.5 30.535156 C 54.5 30.296875 54.5 30.058594 54.503906 29.816406 C 54.503906 29.628906 54.503906 29.441406 54.503906 29.253906 C 54.503906 29.15625 54.503906 29.058594 54.503906 28.957031 C 54.503906 28.71875 54.5 28.480469 54.492188 28.242188 C 54.261719 28.011719 53.804688 28.101562 53.488281 28.101562 C 53.398438 28.101562 53.308594 28.101562 53.214844 28.097656 C 53.027344 28.097656 52.835938 28.097656 52.644531 28.097656 C 52.355469 28.097656 52.066406 28.09375 51.777344 28.089844 C 51.59375 28.085938 51.410156 28.085938 51.222656 28.085938 C 51.136719 28.085938 51.050781 28.082031 50.960938 28.082031 C 50.25 28.085938 49.898438 28.28125 49.386719 28.753906 Z M 19.015625 44.730469 C 18.46875 45.378906 18.21875 46.121094 18.105469 46.957031 C 18.210938 47.65625 18.4375 48.117188 18.984375 48.574219 C 19.652344 48.894531 20.449219 48.863281 21.152344 48.667969 C 22.296875 48.199219 23.265625 47.371094 23.832031 46.265625 C 24.09375 45.621094 24.121094 44.980469 24.023438 44.296875 C 23.734375 43.691406 23.375 43.390625 22.75 43.160156 C 21.238281 42.9375 20.03125 43.675781 19.015625 44.730469 Z M 48.398438 44.414062 C 47.640625 45.308594 47.285156 46.0625 47.304688 47.242188 C 47.371094 47.816406 47.632812 48.121094 48.054688 48.492188 C 48.699219 48.886719 49.511719 48.847656 50.226562 48.679688 C 51.5 48.222656 52.386719 47.378906 52.96875 46.171875 C 53.269531 45.488281 53.320312 44.851562 53.0625 44.148438 C 52.714844 43.621094 52.289062 43.300781 51.679688 43.125 C 50.386719 43 49.335938 43.5625 48.398438 44.414062 Z M 48.398438 44.414062 "/>
<path style=" stroke:none;fill-rule:nonzero;fill:rgb(0%,0%,0%);fill-opacity:1;" d="M 30.914062 12.0625 C 31.160156 12.257812 31.398438 12.457031 31.640625 12.65625 C 31.742188 12.738281 31.84375 12.820312 31.949219 12.90625 C 34.574219 15.132812 36.277344 18.617188 36.5625 22.03125 C 36.753906 26.011719 35.789062 29.679688 33.113281 32.710938 C 32.933594 32.902344 32.757812 33.089844 32.578125 33.28125 C 32.496094 33.371094 32.417969 33.457031 32.335938 33.546875 C 30.027344 35.984375 26.558594 37.402344 23.230469 37.53125 C 19.535156 37.617188 16.203125 36.621094 13.359375 34.21875 C 13.25 34.128906 13.136719 34.035156 13.023438 33.941406 C 10.476562 31.742188 8.792969 28.425781 8.4375 25.078125 C 8.230469 20.714844 9.226562 17.113281 12.128906 13.796875 C 16.894531 8.65625 25.292969 7.738281 30.914062 12.0625 Z M 13.265625 15.335938 C 10.902344 18.089844 10.113281 21.390625 10.3125 24.960938 C 10.648438 28.015625 12.328125 30.9375 14.683594 32.882812 C 17.417969 35.042969 20.59375 35.929688 24.054688 35.601562 C 27.199219 35.21875 30.203125 33.429688 32.160156 30.960938 C 33.238281 29.511719 34.011719 27.886719 34.453125 26.132812 C 34.480469 26.027344 34.507812 25.921875 34.535156 25.816406 C 35.179688 22.699219 34.453125 19.332031 32.734375 16.675781 C 32.34375 16.109375 31.890625 15.605469 31.40625 15.117188 C 31.265625 14.96875 31.265625 14.96875 31.121094 14.816406 C 31.023438 14.722656 30.921875 14.628906 30.820312 14.53125 C 30.742188 14.453125 30.664062 14.378906 30.585938 14.300781 C 28.277344 12.09375 25.246094 11.167969 22.105469 11.195312 C 18.648438 11.289062 15.621094 12.851562 13.265625 15.335938 Z M 13.265625 15.335938 "/>
<path style=" stroke:none;fill-rule:nonzero;fill:rgb(0%,0%,0%);fill-opacity:1;" d="M 29.113281 15.855469 C 29.53125 15.9375 29.53125 15.9375 29.824219 16.1875 C 30.039062 16.601562 30.097656 16.765625 30 17.226562 C 29.492188 17.917969 28.839844 18.507812 28.222656 19.101562 C 28.042969 19.277344 27.863281 19.453125 27.6875 19.628906 C 27.40625 19.902344 27.125 20.175781 26.84375 20.445312 C 26.570312 20.707031 26.296875 20.972656 26.027344 21.242188 C 25.941406 21.320312 25.855469 21.402344 25.769531 21.484375 C 25.554688 21.699219 25.363281 21.894531 25.195312 22.148438 C 25.179688 22.535156 25.179688 22.535156 25.3125 22.851562 C 25.402344 23.847656 25.210938 24.574219 24.574219 25.347656 C 24.058594 25.902344 23.476562 26.21875 22.71875 26.265625 C 22.585938 26.265625 22.585938 26.265625 22.457031 26.265625 C 22.328125 26.265625 22.328125 26.265625 22.195312 26.265625 C 21.914062 26.25 21.914062 26.25 21.589844 26.132812 C 21.128906 26.132812 21.066406 26.21875 20.742188 26.527344 C 20.574219 26.703125 20.40625 26.878906 20.246094 27.054688 C 20.078125 27.230469 19.910156 27.40625 19.746094 27.582031 C 19.671875 27.660156 19.597656 27.738281 19.523438 27.820312 C 19.269531 28.074219 19.132812 28.121094 18.773438 28.167969 C 18.398438 28.125 18.398438 28.125 18.0625 27.882812 C 17.8125 27.539062 17.8125 27.539062 17.734375 27.171875 C 17.855469 26.476562 18.304688 26.164062 18.816406 25.707031 C 19.003906 25.539062 19.195312 25.363281 19.378906 25.191406 C 19.464844 25.117188 19.546875 25.039062 19.636719 24.964844 C 19.839844 24.734375 19.839844 24.734375 19.773438 24.425781 C 19.746094 24.332031 19.71875 24.238281 19.6875 24.140625 C 19.589844 23.148438 19.695312 22.390625 20.273438 21.5625 C 20.769531 20.996094 21.394531 20.65625 22.140625 20.601562 C 23.085938 20.589844 23.085938 20.589844 23.484375 20.710938 C 23.796875 20.777344 23.796875 20.777344 24.035156 20.574219 C 24.117188 20.488281 24.199219 20.402344 24.28125 20.3125 C 24.375 20.21875 24.46875 20.121094 24.5625 20.023438 C 24.664062 19.917969 24.761719 19.8125 24.863281 19.703125 C 25.078125 19.484375 25.289062 19.265625 25.503906 19.042969 C 25.835938 18.695312 26.167969 18.347656 26.503906 17.996094 C 26.824219 17.660156 27.148438 17.328125 27.472656 16.992188 C 27.570312 16.886719 27.667969 16.78125 27.769531 16.671875 C 28.550781 15.875 28.550781 15.875 29.113281 15.855469 Z M 21.8125 22.75 C 21.539062 23.066406 21.539062 23.066406 21.496094 23.445312 C 21.578125 23.871094 21.675781 24.007812 22.03125 24.257812 C 22.371094 24.394531 22.371094 24.394531 22.734375 24.375 C 23.144531 24.148438 23.289062 24.003906 23.429688 23.554688 C 23.4375 23.1875 23.414062 23.03125 23.203125 22.734375 C 22.671875 22.378906 22.332031 22.363281 21.8125 22.75 Z M 21.8125 22.75 "/>
<path style=" stroke:none;fill-rule:nonzero;fill:rgb(0%,0%,0%);fill-opacity:1;" d="M 1.558594 34.628906 C 1.703125 34.628906 1.703125 34.628906 1.851562 34.628906 C 2.167969 34.628906 2.488281 34.628906 2.804688 34.632812 C 3.027344 34.632812 3.25 34.632812 3.46875 34.632812 C 3.933594 34.632812 4.398438 34.636719 4.859375 34.640625 C 5.453125 34.644531 6.046875 34.644531 6.640625 34.644531 C 7.097656 34.644531 7.554688 34.644531 8.011719 34.648438 C 8.230469 34.648438 8.453125 34.648438 8.671875 34.648438 C 8.976562 34.648438 9.28125 34.652344 9.589844 34.652344 C 9.679688 34.652344 9.769531 34.652344 9.863281 34.652344 C 10.300781 34.660156 10.648438 34.667969 11.015625 34.921875 C 11.238281 35.21875 11.25 35.371094 11.234375 35.742188 C 11.113281 36.164062 11.015625 36.300781 10.664062 36.5625 C 10.320312 36.609375 10.023438 36.625 9.683594 36.625 C 9.535156 36.625 9.535156 36.625 9.382812 36.625 C 9.058594 36.628906 8.730469 36.625 8.40625 36.625 C 8.179688 36.625 7.949219 36.625 7.722656 36.625 C 7.25 36.625 6.773438 36.625 6.296875 36.625 C 5.6875 36.621094 5.082031 36.621094 4.472656 36.625 C 4.003906 36.628906 3.535156 36.625 3.066406 36.625 C 2.839844 36.625 2.617188 36.625 2.390625 36.625 C 2.078125 36.628906 1.765625 36.625 1.449219 36.625 C 1.359375 36.625 1.265625 36.625 1.167969 36.625 C 0.75 36.621094 0.515625 36.597656 0.175781 36.339844 C -0.0117188 36.074219 -0.0664062 35.949219 -0.0664062 35.625 C -0.0703125 35.546875 -0.0703125 35.46875 -0.0742188 35.390625 C 0.164062 34.640625 0.890625 34.621094 1.558594 34.628906 Z M 1.558594 34.628906 "/>
<path style=" stroke:none;fill-rule:nonzero;fill:rgb(0%,0%,0%);fill-opacity:1;" d="M 4.796875 38.382812 C 5 38.382812 5 38.382812 5.210938 38.382812 C 5.496094 38.382812 5.785156 38.386719 6.070312 38.390625 C 6.511719 38.394531 6.949219 38.394531 7.390625 38.394531 C 7.667969 38.394531 7.945312 38.398438 8.226562 38.398438 C 8.355469 38.398438 8.488281 38.398438 8.625 38.398438 C 8.808594 38.402344 8.808594 38.402344 8.996094 38.402344 C 9.15625 38.40625 9.15625 38.40625 9.320312 38.40625 C 9.628906 38.441406 9.816406 38.511719 10.078125 38.671875 C 10.320312 38.984375 10.3125 39.15625 10.296875 39.558594 C 10.195312 39.960938 10.195312 39.960938 9.996094 40.160156 C 9.667969 40.34375 9.464844 40.359375 9.089844 40.359375 C 8.960938 40.363281 8.835938 40.363281 8.703125 40.363281 C 8.496094 40.363281 8.496094 40.363281 8.289062 40.363281 C 8.144531 40.363281 8.003906 40.363281 7.859375 40.363281 C 7.5625 40.367188 7.261719 40.367188 6.964844 40.363281 C 6.503906 40.363281 6.046875 40.367188 5.589844 40.371094 C 5.300781 40.371094 5.011719 40.371094 4.71875 40.371094 C 4.582031 40.371094 4.445312 40.375 4.304688 40.375 C 4.175781 40.375 4.050781 40.371094 3.917969 40.371094 C 3.804688 40.371094 3.695312 40.371094 3.578125 40.371094 C 3.195312 40.296875 3.054688 40.144531 2.8125 39.84375 C 2.746094 39.609375 2.746094 39.609375 2.746094 39.375 C 2.742188 39.296875 2.742188 39.21875 2.738281 39.140625 C 3.027344 38.226562 4.03125 38.375 4.796875 38.382812 Z M 4.796875 38.382812 "/>
<path style=" stroke:none;fill-rule:nonzero;fill:rgb(0%,0%,0%);fill-opacity:1;" d="M 7.441406 42.128906 C 7.550781 42.128906 7.660156 42.125 7.773438 42.125 C 8.285156 42.125 8.589844 42.140625 9.035156 42.402344 C 9.324219 42.730469 9.375 42.925781 9.375 43.359375 C 9.125 43.894531 9.125 43.894531 8.789062 44.0625 C 8.34375 44.097656 7.902344 44.09375 7.457031 44.097656 C 7.332031 44.101562 7.207031 44.105469 7.082031 44.109375 C 6.960938 44.109375 6.84375 44.113281 6.722656 44.113281 C 6.558594 44.113281 6.558594 44.113281 6.390625 44.117188 C 6.003906 44.046875 5.867188 43.894531 5.625 43.59375 C 5.558594 43.359375 5.558594 43.359375 5.558594 43.125 C 5.554688 43.046875 5.554688 42.96875 5.550781 42.890625 C 5.820312 42.03125 6.703125 42.117188 7.441406 42.128906 Z M 7.441406 42.128906 "/>
<path style=" stroke:none;fill-rule:nonzero;fill:rgb(0%,0%,0%);fill-opacity:1;" d="M 22.851562 30.9375 C 23.1875 31.128906 23.1875 31.128906 23.4375 31.523438 C 23.546875 32.257812 23.589844 32.921875 23.1875 33.558594 C 22.785156 33.785156 22.601562 33.84375 22.148438 33.75 C 21.8125 33.558594 21.8125 33.558594 21.5625 33.164062 C 21.453125 32.429688 21.410156 31.765625 21.8125 31.128906 C 22.214844 30.902344 22.398438 30.84375 22.851562 30.9375 Z M 22.851562 30.9375 "/>
<path style=" stroke:none;fill-rule:nonzero;fill:rgb(0%,0%,0%);fill-opacity:1;" d="M 32.226562 22.5 C 32.621094 22.75 32.621094 22.75 32.8125 23.085938 C 32.90625 23.539062 32.847656 23.722656 32.621094 24.125 C 31.984375 24.527344 31.320312 24.484375 30.585938 24.375 C 30.191406 24.125 30.191406 24.125 30 23.789062 C 29.90625 23.335938 29.964844 23.152344 30.191406 22.75 C 30.828125 22.347656 31.492188 22.390625 32.226562 22.5 Z M 32.226562 22.5 "/>
<path style=" stroke:none;fill-rule:nonzero;fill:rgb(0%,0%,0%);fill-opacity:1;" d="M 13.535156 22.449219 C 13.765625 22.449219 13.765625 22.449219 14 22.449219 C 14.421875 22.5 14.59375 22.546875 14.882812 22.851562 C 14.984375 23.253906 15.039062 23.542969 14.917969 23.941406 C 14.726562 24.191406 14.589844 24.257812 14.296875 24.375 C 13.9375 24.414062 13.9375 24.414062 13.542969 24.417969 C 13.347656 24.425781 13.347656 24.425781 13.148438 24.429688 C 12.691406 24.363281 12.503906 24.234375 12.1875 23.90625 C 12.113281 23.671875 12.113281 23.671875 12.121094 23.4375 C 12.121094 23.359375 12.121094 23.28125 12.121094 23.203125 C 12.328125 22.46875 12.855469 22.4375 13.535156 22.449219 Z M 13.535156 22.449219 "/>
<path style=" stroke:none;fill-rule:nonzero;fill:rgb(0%,0%,0%);fill-opacity:1;" d="M 22.5 13.058594 C 22.578125 13.054688 22.65625 13.054688 22.734375 13.050781 C 23.109375 13.167969 23.234375 13.382812 23.4375 13.710938 C 23.492188 14.085938 23.492188 14.085938 23.480469 14.480469 C 23.480469 14.675781 23.480469 14.675781 23.476562 14.875 C 23.4375 15.21875 23.386719 15.417969 23.203125 15.703125 C 22.890625 15.945312 22.71875 15.9375 22.316406 15.921875 C 21.914062 15.820312 21.914062 15.820312 21.714844 15.632812 C 21.5 15.238281 21.511719 14.921875 21.511719 14.472656 C 21.507812 14.320312 21.507812 14.164062 21.503906 14.007812 C 21.5625 13.59375 21.5625 13.59375 21.769531 13.308594 C 22.042969 13.117188 22.171875 13.058594 22.5 13.058594 Z M 22.5 13.058594 "/>
<path style=" stroke:none;fill-rule:nonzero;fill:rgb(0%,0%,0%);fill-opacity:1;" d="M 21.679688 45.117188 C 22.011719 45.394531 22.027344 45.566406 22.082031 45.996094 C 22.03125 46.40625 22.03125 46.40625 21.847656 46.691406 C 21.453125 46.945312 21.199219 46.933594 20.742188 46.875 C 20.464844 46.75 20.464844 46.75 20.273438 46.523438 C 20.171875 46.121094 20.117188 45.832031 20.238281 45.433594 C 20.640625 44.914062 21.070312 44.960938 21.679688 45.117188 Z M 21.679688 45.117188 "/>
<path style=" stroke:none;fill-rule:nonzero;fill:rgb(0%,0%,0%);fill-opacity:1;" d="M 50.742188 45.117188 C 51.074219 45.324219 51.097656 45.484375 51.210938 45.863281 C 51.210938 46.289062 51.210938 46.289062 50.976562 46.632812 C 50.539062 46.933594 50.324219 46.960938 49.804688 46.875 C 49.519531 46.691406 49.519531 46.691406 49.335938 46.40625 C 49.28125 45.964844 49.273438 45.699219 49.488281 45.308594 C 49.886719 44.925781 50.238281 44.992188 50.742188 45.117188 Z M 50.742188 45.117188 "/>
</g>
</svg>
