<svg width="54" height="72" viewBox="0 0 54 72" fill="none" xmlns="http://www.w3.org/2000/svg">
<path d="M28.402 64.1592L29.532 24.0692C29.592 22.1092 28.2719 20.3692 26.3619 19.8992L22.452 18.9292C21.102 17.9592 20.302 16.4092 20.302 14.7492V0.949219H9.23198V14.7492C9.23198 16.4092 8.43197 17.9692 7.08197 18.9292L3.17196 19.8992C1.26196 20.3692 -0.0580353 22.1092 0.00196472 24.0692L1.13197 64.1592L0.941967 65.6392C0.601967 66.2192 0.421963 66.8892 0.421963 67.5692C0.421963 69.6092 1.24196 70.9292 5.37196 70.9092H23.902C27.372 70.9092 29.1919 69.8192 29.1119 67.5692C29.1119 66.8892 28.932 66.2192 28.592 65.6392L28.402 64.1592Z" fill="#8DC8FC"/>
<g opacity="0.2">
<path d="M10.4103 12.6797V15.9097C10.4103 17.5097 9.06028 19.0097 7.84028 19.9397L4.32027 20.8697C2.60027 21.3197 1.42028 22.9997 1.47028 24.8897L2.49027 63.4997L2.32027 64.9297C2.02027 65.4897 1.86028 66.1297 1.86028 66.7897C1.86028 68.7597 2.60027 70.0197 6.32027 70.0097H22.9903C26.1103 70.0097 27.7503 68.9597 27.6803 66.7897C27.6803 66.1297 27.5203 65.4897 27.2203 64.9297L27.0503 63.4997L28.0703 24.8897C28.1203 22.9997 26.9303 21.3297 25.2203 20.8697L21.7003 19.9397C20.4903 19.0097 19.1303 17.5097 19.1303 15.9097V12.6897C17.6203 12.9997 15.6303 13.1097 14.7803 13.1097C13.9403 13.0997 11.9103 12.9697 10.4103 12.6797Z" fill="#0E76A5"/>
</g>
<path d="M14.7644 0C11.7044 0 9.23438 0.420002 9.23438 0.940002C9.23438 0.990002 9.26435 1.04 9.30435 1.09C9.71435 1.54 12.0044 1.88 14.7644 1.88C17.5244 1.88 19.8144 1.54 20.2244 1.09C20.2644 1.04 20.2944 0.990002 20.2944 0.940002C20.2944 0.420002 17.8244 0 14.7644 0Z" fill="#17272D"/>
<path d="M14.7644 1.87984C11.9644 1.87984 9.64437 1.53984 9.23438 1.08984V6.13985V6.42984C9.65437 6.87984 11.9644 7.21983 14.7644 7.21983C17.5644 7.21983 19.8844 6.87984 20.2944 6.42984V6.13985V1.08984C19.8844 1.53984 17.5644 1.87984 14.7644 1.87984Z" fill="#030506"/>
<path d="M14.7487 6.53999C11.9487 6.53999 9.62875 6.2 9.21875 5.75V10.54V10.83C9.63875 11.28 11.9487 11.62 14.7487 11.62C17.5487 11.62 19.8587 11.28 20.2787 10.83V10.54V5.75C19.8687 6.2 17.5487 6.53999 14.7487 6.53999Z" fill="#030506"/>
<path d="M14.7585 8.01102C15.9085 8.01102 19.2184 7.81102 20.4884 7.17102C20.5884 7.12102 20.6384 7.01102 20.6384 6.89102L20.5885 5.93101C20.5785 5.74101 20.3884 5.61102 20.2084 5.67102C19.3684 5.94102 17.2584 6.40102 14.9184 6.42102H14.6084C12.2784 6.41102 10.1385 5.97102 9.30845 5.73102C9.12845 5.68102 8.94846 5.80101 8.93846 5.99101L8.86845 6.89102C8.85845 7.00102 8.90845 7.11101 8.99845 7.16101C10.0685 7.76101 13.6085 8.01102 14.7585 8.01102Z" fill="#02254F"/>
<path d="M14.7585 13.1009C15.9085 13.1009 19.2184 12.9009 20.4884 12.2609C20.5884 12.2109 20.6384 12.1009 20.6384 11.9809L20.5885 11.0209C20.5785 10.8309 20.3884 10.7009 20.2084 10.7609C19.3684 11.0309 17.2584 11.4909 14.9184 11.5109H14.6084C12.2784 11.5009 10.1385 11.0609 9.30845 10.8209C9.12845 10.7709 8.94846 10.8909 8.93846 11.0809L8.86845 11.9809C8.85845 12.0909 8.90845 12.2009 8.99845 12.2509C10.0585 12.8509 13.6085 13.1009 14.7585 13.1009Z" fill="#02254F"/>
<g opacity="0.2">
<path d="M23.8585 64.2303H5.66855C4.84855 64.2303 4.16856 63.5703 4.15856 62.7503L3.32856 25.1203C3.30856 24.2703 3.98855 23.5703 4.83855 23.5703H24.6886C25.5386 23.5703 26.2186 24.2703 26.1986 25.1203L25.3685 62.7503C25.3485 63.5803 24.6785 64.2303 23.8585 64.2303Z" fill="#0E76A5"/>
</g>
<g opacity="0.15">
<path d="M18.9925 0.699392C17.4525 0.269392 15.8125 0.439398 14.2125 0.439398C13.1925 0.439398 12.1225 0.389396 11.2225 0.859396C11.1525 0.899396 11.0625 0.959396 11.0625 1.0394C11.0625 1.1294 11.1625 1.1894 11.2425 1.2194C11.7125 1.3994 12.2225 1.38939 12.7225 1.38939C14.5725 1.38939 16.4425 1.5994 18.2525 1.2594C18.5125 1.2094 18.7725 1.1394 18.9825 0.999395C19.3025 0.789395 18.9925 0.699392 18.9925 0.699392Z" fill="white"/>
</g>
<g opacity="0.15">
<path d="M14.2391 3.08058C14.4191 2.91058 14.4991 2.58059 14.3091 2.43059C14.2091 2.35059 14.0591 2.35058 13.9291 2.35058C12.6991 2.37058 11.2492 2.80059 10.2592 2.08059C9.50916 1.54059 9.79916 2.69059 9.78916 3.17059C9.77916 3.65059 9.87916 4.13058 9.84916 4.61058C9.79916 5.39058 10.2491 5.54059 10.7091 5.70059C10.8991 5.77059 11.1091 5.78059 11.3091 5.78059C11.9891 5.80059 12.6591 5.80059 13.3391 5.76059C13.4591 5.75059 13.5892 5.74059 13.6592 5.64059C13.7092 5.57059 13.7091 5.47058 13.7091 5.38058C13.6791 5.06058 13.5592 4.76059 13.5092 4.45059C13.4592 4.14059 13.4691 3.79059 13.6691 3.54059C13.8191 3.35059 14.0591 3.25058 14.2391 3.08058Z" fill="white"/>
</g>
<g opacity="0.1">
<path d="M19.9002 1.83008C19.5202 2.02008 19.1302 2.20008 18.7202 2.30008C18.4302 2.37008 18.1302 2.39008 17.8402 2.41008C17.1902 2.46008 16.5302 2.50008 15.8802 2.55008C15.7802 2.56008 15.6802 2.57008 15.5902 2.61008C15.2602 2.77008 15.2802 3.31008 14.9702 3.50008C14.8902 3.55008 14.8002 3.57007 14.7102 3.61007C14.4102 3.77007 14.3802 4.18008 14.4302 4.51008C14.4902 4.84008 14.5902 5.19008 14.4602 5.50008C14.4202 5.60008 14.3502 5.70007 14.4002 5.80007C14.4502 5.91007 14.6002 5.90008 14.7202 5.90008C15.8402 5.95008 17.1002 5.89008 18.0202 5.67008C18.5402 5.54008 19.0402 5.47008 19.5402 5.29008C19.5802 5.28008 19.6202 5.26008 19.6402 5.23008C19.6702 5.19008 19.8702 5.15007 19.8702 5.11007C19.9102 4.76007 19.7602 4.40007 19.8002 4.05007C19.8802 3.35007 20.0802 2.50008 19.9002 1.83008Z" fill="white"/>
</g>
<g opacity="0.3">
<path d="M22.6284 18.9698L22.4485 18.9198C21.0985 17.9498 20.2984 16.3998 20.2984 14.7398V12.3398C18.9284 12.9098 15.8685 13.0998 14.7585 13.0998C13.6785 13.0998 10.4985 12.8798 9.22845 12.3498V14.7398C9.22845 16.3998 8.42845 17.9598 7.07845 18.9198L6.89844 18.9698C7.84844 19.8098 10.9884 20.4298 14.7684 20.4298C18.5284 20.4298 21.6784 19.8098 22.6284 18.9698Z" fill="#0E76A5"/>
</g>
<g opacity="0.2">
<path d="M12.5994 13.6701C12.4994 13.5501 12.3094 13.5501 12.1594 13.5301C11.5994 13.4501 11.0094 13.3801 10.4494 13.3001L9.84938 13.0801C9.81938 14.2801 9.93938 15.6401 9.53938 16.7701C9.13938 17.9001 8.35937 18.9501 7.25937 19.4101C6.34937 19.7901 5.01937 20.0001 3.85938 20.3301C4.06937 20.5201 5.24937 20.7801 5.52937 20.7801C7.79937 20.7901 9.77938 20.7701 12.0394 20.7801C13.0094 20.7801 12.5994 20.1901 12.5294 20.0001C12.2894 19.3301 12.1394 18.6901 12.0794 17.8801C12.0094 16.7501 12.4694 15.3701 12.6094 14.2501C12.6494 14.1101 12.6994 13.8001 12.5994 13.6701Z" fill="#0E76A5"/>
</g>
<g opacity="0.4">
<path d="M23.2719 19.8609C22.3919 19.6309 21.7819 19.1709 21.0919 18.5809C20.3619 17.9509 19.9719 17.1309 19.8319 16.1809C19.6919 15.2309 19.7219 13.9109 19.8119 12.9609C19.6419 13.1509 17.4119 13.8409 16.8219 13.5609C17.4419 14.8809 18.0519 15.7509 18.0219 17.2109C18.0119 17.8709 17.6119 19.3309 17.0419 19.8909C16.6119 20.3209 16.2419 20.5009 15.4219 20.7909C19.1019 20.8209 22.5219 20.7409 25.9919 20.5909C25.0919 20.3409 24.1819 20.1009 23.2719 19.8609Z" fill="#0E76A5"/>
</g>
<g opacity="0.3">
<path d="M28.1457 21.6407C27.9657 21.3107 27.7257 20.9807 27.3757 20.8607C27.0657 20.7507 26.7357 20.8207 26.4057 20.8707C25.5957 20.9907 24.7758 21.0007 23.9558 21.0107C18.4458 21.0507 12.9357 21.0907 7.42572 21.1207C6.37572 21.1307 5.29573 21.1307 4.32573 20.7407C3.75573 20.5207 3.18574 20.3607 2.61574 20.6207C2.61574 20.6207 0.85574 21.6507 0.78574 23.7207C0.76574 24.1507 0.805735 24.6107 1.04573 24.9807C1.45573 25.6207 2.29573 25.8107 3.04573 25.9107C7.84573 26.5907 12.7257 26.4307 17.5757 26.2707C21.0057 26.1607 24.4457 26.0507 27.8757 25.9407C28.0457 25.9307 28.2257 25.9307 28.3757 25.8407C28.6357 25.6907 28.7257 25.3607 28.7757 25.0607C28.9357 23.9007 28.7057 22.6807 28.1457 21.6407Z" fill="white"/>
</g>
<g opacity="0.5">
<path d="M14.8821 23.5508C11.3521 23.0808 7.56205 23.4507 4.45205 21.7207C4.03205 21.4907 3.62205 21.2108 3.15205 21.1208C2.68205 21.0308 2.12206 21.1807 1.91206 21.6107C1.91206 21.6107 1.45205 22.1308 1.29205 22.9908C1.22205 23.3708 1.28206 23.8108 1.58206 24.0408C1.77206 24.1808 2.01204 24.2108 2.24204 24.2408C7.15204 24.8108 12.1221 24.8208 17.0421 24.2808C16.4421 23.8108 15.6521 23.6508 14.8821 23.5508Z" fill="white"/>
</g>
<g opacity="0.5">
<path d="M3.10899 58.1589C2.66899 47.9689 2.42899 37.7789 2.38899 27.5889C2.38899 27.2789 2.37899 26.9589 2.24899 26.6889C2.10899 26.4089 1.79899 26.1989 1.49899 26.2789C1.26899 26.3389 1.13899 26.6389 1.21899 26.8489C1.32899 38.1189 1.64899 49.3889 2.16899 60.6589C2.17899 60.9589 2.35899 61.3689 2.63899 61.2489C2.73899 61.2089 2.79899 61.0889 2.83899 60.9889C3.18899 60.0989 3.14899 59.1089 3.10899 58.1589Z" fill="white"/>
</g>
<g opacity="0.5">
<path d="M4.38251 53.0296C4.14251 44.9396 4.1325 36.8396 4.3625 28.7396C4.3725 28.4896 4.3725 28.2196 4.2225 28.0196C4.0725 27.8196 3.71249 27.7696 3.60249 27.9896C3.56249 28.0696 3.5625 28.1696 3.5625 28.2596C3.5725 29.2196 3.5825 30.1796 3.5825 31.1396V29.1796C4.0025 38.0796 3.2925 47.0196 4.1825 55.8896C4.4325 54.9696 4.41251 53.9896 4.38251 53.0296Z" fill="white"/>
</g>
<g opacity="0.3">
<path d="M28.7996 31.1501C28.7996 28.5501 28.9796 26.1701 28.9796 23.5701L28.7096 22.8301C28.7396 23.7201 28.3496 25.5801 27.5096 25.8801C26.6696 26.1801 25.8096 26.2401 24.9196 26.2501C23.3496 26.2801 20.3396 26.5801 18.2896 26.5001C19.1796 26.7901 20.7896 27.2101 21.2196 27.3601C22.3196 27.7401 22.3396 28.1901 22.4396 29.3401C22.9696 35.2101 22.2896 41.1201 22.3096 47.0101C22.3296 51.7201 22.7996 56.4201 22.9096 61.1201C22.9196 61.5401 22.9296 61.9601 22.7696 62.3501C22.4696 63.1101 21.6496 63.5201 20.8696 63.7401C20.5496 63.8301 20.2096 63.9001 19.9596 64.1301C19.7096 64.3501 19.6096 64.7801 19.8396 65.0201C19.9096 65.0901 20.0096 65.1401 20.1096 65.1801C21.2196 65.6101 22.4496 65.2001 23.6296 65.0601C24.8096 64.9201 26.2796 65.2801 26.5896 66.4301C26.8396 67.3401 26.1496 68.3001 25.2896 68.6901C24.4296 69.0901 23.4496 69.0701 22.4996 69.0701C20.6196 69.0701 18.7396 69.1801 16.8696 69.4001C16.4296 69.4501 15.8696 69.6501 15.8996 70.0901C19.1396 70.2701 22.3996 70.1701 25.6296 69.8001C26.0296 69.7501 26.4396 69.7001 26.7996 69.5201C27.6396 69.1101 28.0396 68.1001 28.0396 67.1601C28.0496 66.2201 27.4096 65.3301 27.5296 64.4001C28.1696 59.6201 28.8096 33.3801 28.7996 31.1501Z" fill="#0E76A5"/>
</g>
<g opacity="0.6">
<path d="M26.8022 59.6709C26.9622 48.4009 27.3422 37.1409 27.9322 25.8809C27.4222 25.9709 26.9022 26.0509 26.3922 26.1409C26.1822 26.1809 25.9522 26.2209 25.7922 26.3609C25.5222 26.6009 25.5222 27.0109 25.5522 27.3709C26.2722 39.0509 25.1122 50.7709 25.7322 62.4509C25.7822 63.4909 26.0622 64.7809 27.0722 65.0109C26.7522 63.2609 26.7722 61.4609 26.8022 59.6709Z" fill="#0E76A5"/>
</g>
<g opacity="0.4">
<path d="M12.8897 64.1508C10.8297 64.0108 8.77973 63.9208 6.71973 63.8708C6.10973 63.8608 5.49973 63.8408 4.91973 63.6708C4.33973 63.5008 3.77972 63.1408 3.50972 62.6008C3.41972 62.4208 3.35973 62.2308 3.21973 62.0908C3.06973 61.9608 2.79972 61.9408 2.70972 62.1108C2.66972 62.1808 2.66972 62.2608 2.67972 62.3308C2.67972 62.7208 2.68973 63.1108 2.68973 63.4908L2.65973 62.6908C2.55973 63.0908 2.46972 63.5008 2.50972 63.9108C2.55972 64.3208 2.77973 64.7308 3.16973 64.8908C3.42973 65.0008 3.71973 64.9708 3.99973 64.9508C7.38973 64.6408 10.7897 64.5408 14.1897 64.6408C13.9197 64.2508 13.3697 64.1808 12.8897 64.1508Z" fill="#0E76A5"/>
</g>
<g opacity="0.2">
<path d="M1.21875 66.2294L1.83876 65.6094C1.57876 65.7494 1.34875 65.9594 1.21875 66.2294Z" fill="white"/>
</g>
<g opacity="0.2">
<path d="M10.8149 69.2993C9.20495 69.1793 7.61495 68.7793 6.14495 68.1093C5.70495 67.9093 5.20494 67.4393 5.48494 67.0493C5.60494 66.8793 5.83494 66.8293 6.04494 66.7893C7.34494 66.5693 8.66496 66.4893 9.98496 66.5593C10.515 66.5893 11.1749 66.5693 11.4049 66.0993C10.0449 65.6193 8.56494 65.7093 7.12494 65.6793C6.15494 65.6593 5.18494 65.5893 4.21494 65.4493C3.66494 65.3693 3.10494 65.2793 2.54494 65.3593C2.31494 65.3893 2.08495 65.4693 1.88495 65.5793C1.37495 66.4693 0.944951 67.5293 1.30495 68.4793C1.57495 69.1793 2.23495 69.6693 2.94495 69.9093C3.65495 70.1493 4.41495 70.1693 5.16495 70.1893C7.67495 70.2393 10.185 70.2393 12.695 70.1793C12.985 70.1693 13.385 70.0493 13.355 69.7593C12.605 69.3493 11.6949 69.3593 10.8149 69.2993Z" fill="white"/>
</g>
<g opacity="0.2">
<path d="M1.83594 65.61C1.85594 65.6 1.88593 65.59 1.90593 65.58C1.91593 65.55 1.93594 65.53 1.94594 65.5L1.83594 65.61Z" fill="white"/>
</g>
<path d="M1.94531 66.328C1.96531 66.288 2.00531 66.268 2.03531 66.228C2.08531 66.128 2.14531 66.018 2.19531 65.918L1.94531 66.328Z" fill="#DADADA"/>
<g opacity="0.5">
<path d="M3.59862 66.489C3.99862 66.369 4.41862 66.359 4.83862 66.309C5.31862 66.259 5.79862 66.159 6.25862 65.999C5.40862 65.779 4.53863 65.669 3.66863 65.649C3.06863 65.639 2.37863 65.759 2.02863 66.229C1.87863 66.519 1.71862 66.809 1.64862 67.129C1.52862 67.729 1.75862 68.389 2.22862 68.779C2.69862 69.169 3.39862 69.269 3.95862 69.029C3.57862 68.889 3.20863 68.699 2.94863 68.389C2.68863 68.089 2.54863 67.649 2.66863 67.269C2.81863 66.889 3.19862 66.619 3.59862 66.489Z" fill="white"/>
</g>
<path d="M21.3922 29.9688H7.99219V59.0788H21.3922V29.9688Z" fill="#FFFDBB"/>
<path d="M6.53125 28.3906V60.6606H22.8513V28.3906H6.53125ZM21.3912 59.0806H7.99124V29.9706H21.3912V59.0806Z" fill="#02254F"/>
<path d="M8.92218 29.9688H7.99219V59.0788H8.92218V29.9688Z" fill="white"/>
<path d="M10.4847 29.9707H9.55469V59.0807H10.4847V29.9707Z" fill="white"/>
<path d="M12.0394 29.9707H11.1094V59.0807H12.0394V29.9707Z" fill="white"/>
<path d="M13.6019 29.9688H12.6719V59.0788H13.6019V29.9688Z" fill="white"/>
<path d="M15.1722 29.9688H14.2422V59.0788H15.1722V29.9688Z" fill="white"/>
<path d="M16.7347 29.9707H15.8047V59.0807H16.7347V29.9707Z" fill="white"/>
<path d="M18.2894 29.9707H17.3594V59.0807H18.2894V29.9707Z" fill="white"/>
<path d="M19.8519 29.9688H18.9219V59.0788H19.8519V29.9688Z" fill="white"/>
<path d="M21.4144 29.9707H20.4844V59.0807H21.4144V29.9707Z" fill="white"/>
<path d="M23.4503 38.9102H6.07031L6.76031 40.7702L6.07031 42.6402H23.4503L22.7603 40.7702L23.4503 38.9102Z" fill="#02254F"/>
<path d="M24.2125 38.3789H5.3125L6.2025 40.7689L5.3125 43.1589H24.2125L23.3225 40.7689L24.2125 38.3789ZM6.07249 42.6389L6.7625 40.7789L6.07249 38.9189H23.4625L22.7725 40.7789L23.4625 42.6389H6.07249Z" fill="#FFE255"/>
<path d="M13.5031 41.6794C13.5031 41.8794 13.4931 41.8994 13.4331 41.9294C13.2531 41.9994 12.9031 42.0594 12.5931 42.0594C11.6331 42.0594 10.9531 41.6294 10.9531 40.7094C10.9531 40.1394 11.2531 39.7694 11.5731 39.5894C11.9231 39.3794 12.3031 39.3594 12.5631 39.3594C12.7731 39.3594 12.9731 39.3794 13.1231 39.4094C13.2431 39.4194 13.3531 39.4494 13.4531 39.4494C13.4831 39.4494 13.4931 39.4594 13.4831 39.4894C13.4731 39.5194 13.4431 39.6694 13.4431 40.1194C13.4431 40.1694 13.4331 40.1894 13.4031 40.1894C13.3831 40.1894 13.3631 40.1594 13.3631 40.1394C13.3531 40.0894 13.3531 40.0494 13.3231 39.9694C13.2631 39.7394 12.9531 39.5694 12.4731 39.5694C12.2231 39.5694 12.0131 39.6394 11.8531 39.8194C11.7231 39.9694 11.6331 40.2294 11.6331 40.5594C11.6331 41.1794 11.9331 41.8294 12.6531 41.8294C12.7031 41.8294 12.7931 41.8294 12.8431 41.7894C12.8731 41.7694 12.8831 41.7394 12.8831 41.6994V41.4894C12.8831 41.3494 12.8831 41.2094 12.8831 41.0894C12.8831 40.8894 12.8431 40.8194 12.7231 40.8094C12.6831 40.7994 12.6331 40.7994 12.5731 40.7894C12.5431 40.7894 12.5231 40.7794 12.5231 40.7594C12.5231 40.7394 12.5431 40.7294 12.5931 40.7294C12.8131 40.7294 13.0831 40.7394 13.1731 40.7394C13.2931 40.7394 13.5231 40.7294 13.7031 40.7294C13.7531 40.7294 13.7831 40.7394 13.7831 40.7594C13.7831 40.7794 13.7631 40.7894 13.7331 40.7894C13.7231 40.7894 13.6731 40.7994 13.6431 40.7994C13.5631 40.8194 13.5231 40.8494 13.5131 40.9794C13.5031 41.0894 13.5031 41.2694 13.5031 41.4394V41.6794Z" fill="white"/>
<path d="M14.3312 40.4099C14.3312 39.8799 14.3313 39.7799 14.3213 39.6699C14.3113 39.5699 14.2813 39.5099 14.2013 39.4999C14.1813 39.4899 14.1413 39.4899 14.1013 39.4899C14.0613 39.4899 14.0312 39.4799 14.0312 39.4499C14.0312 39.4299 14.0512 39.4199 14.1112 39.4199C14.2512 39.4199 14.5812 39.4299 14.6112 39.4299C14.6412 39.4299 15.0512 39.4199 15.1712 39.4199C15.2312 39.4199 15.2513 39.4299 15.2513 39.4499C15.2513 39.4799 15.2212 39.4799 15.1812 39.4799C15.1512 39.4799 15.1312 39.4799 15.0812 39.4899C14.9912 39.5099 14.9613 39.5499 14.9513 39.6799C14.9413 39.7899 14.9413 39.8799 14.9413 40.4099V41.0199C14.9413 41.2899 14.9412 41.6099 14.9612 41.7499C14.9712 41.8399 14.9912 41.8999 15.0912 41.9299C15.1312 41.9399 15.2012 41.9399 15.2412 41.9499C15.3012 41.9499 15.3112 41.9599 15.3112 41.9799C15.3112 41.9999 15.2912 42.0099 15.2412 42.0099C15.0112 42.0099 14.6412 41.9999 14.6112 41.9999C14.5912 41.9999 14.2312 42.0099 14.1212 42.0099C14.0712 42.0099 14.0413 41.9999 14.0413 41.9799C14.0413 41.9599 14.0712 41.9499 14.1112 41.9499C14.1412 41.9499 14.1813 41.9399 14.2213 41.9399C14.2913 41.9299 14.3212 41.8499 14.3312 41.7499C14.3412 41.6099 14.3513 41.3599 14.3513 41.0199V40.4099H14.3312Z" fill="white"/>
<path d="M15.9525 39.5196C15.9525 39.4196 15.9725 39.3496 16.0125 39.3496C16.0425 39.3496 16.0525 39.3596 16.1425 39.4296C16.2825 39.5496 16.4625 39.7196 17.2525 40.4396C17.6025 40.7596 17.8425 40.9896 17.9325 41.0796L17.9125 39.7896C17.9025 39.5996 17.8925 39.5096 17.7525 39.4796C17.7025 39.4696 17.6525 39.4696 17.6025 39.4596C17.5625 39.4596 17.5425 39.4396 17.5425 39.4296C17.5425 39.4096 17.5725 39.3996 17.6125 39.3996C17.7525 39.3996 17.9725 39.4096 18.1125 39.4096C18.1825 39.4096 18.3625 39.3996 18.5025 39.3996C18.5525 39.3996 18.5725 39.4096 18.5725 39.4296C18.5725 39.4496 18.5525 39.4696 18.5125 39.4696C18.4725 39.4696 18.4525 39.4696 18.4225 39.4796C18.3125 39.4896 18.2725 39.5496 18.2625 39.7596C18.2325 40.4496 18.2325 41.1396 18.2225 41.8296C18.2225 42.0096 18.2025 42.0396 18.1525 42.0396C18.1025 42.0396 17.9925 41.9596 17.7625 41.7596C17.5325 41.5496 17.2225 41.2796 17.0225 41.0896C16.8325 40.9096 16.4825 40.5896 16.2325 40.3496L16.2625 41.5196C16.2725 41.7696 16.2825 41.8596 16.3825 41.8896C16.4325 41.9096 16.4925 41.9096 16.5625 41.9096C16.6125 41.9096 16.6325 41.9196 16.6325 41.9396C16.6325 41.9696 16.6025 41.9696 16.5525 41.9696C16.4325 41.9696 16.3225 41.9596 16.1125 41.9596C16.0325 41.9596 15.7825 41.9696 15.6425 41.9696C15.5925 41.9696 15.5625 41.9596 15.5625 41.9396C15.5625 41.9196 15.5825 41.9096 15.6325 41.9096C15.6625 41.9096 15.7125 41.9096 15.7425 41.8996C15.8725 41.8796 15.8925 41.7896 15.9025 41.4696C15.9325 40.7896 15.9225 39.9696 15.9525 39.5196Z" fill="white"/>
<path d="M21.0515 41.1705L20.6115 41.0605L20.2616 41.3605L20.2415 40.9005L19.8516 40.6705L20.2715 40.5005L20.3716 40.0605L20.6616 40.4105L21.1115 40.3705L20.8716 40.7505L21.0515 41.1705Z" fill="white"/>
<path d="M9.66095 41.2389L9.22095 41.1289L8.87094 41.4189L8.85095 40.9689L8.46094 40.7289L8.88095 40.5689L8.98096 40.1289L9.27094 40.4789L9.73096 40.4389L9.48096 40.8189L9.66095 41.2389Z" fill="white"/>
<path d="M11.5025 51.8004L11.3725 51.7204C11.2425 51.6404 11.2025 51.5804 11.2025 51.4804C11.2025 51.3904 11.2625 51.2804 11.4525 51.2804C11.6025 51.2804 11.7225 51.3604 11.7625 51.4404C11.7825 51.4904 11.7925 51.5404 11.7925 51.5604C11.7925 51.6004 11.8125 51.6004 11.8225 51.6004C11.8425 51.6004 11.8425 51.5904 11.8425 51.5504C11.8425 51.3504 11.8425 51.3104 11.8525 51.2304C11.8525 51.2104 11.8425 51.2004 11.8225 51.2004C11.7825 51.1904 11.7425 51.1804 11.7125 51.1704C11.6125 51.1504 11.5425 51.1504 11.4425 51.1504C11.0825 51.1504 10.8625 51.3604 10.8525 51.6104C10.8525 51.8104 10.9225 51.9604 11.1925 52.1404L11.3325 52.2304C11.5225 52.3604 11.5525 52.4304 11.5525 52.5204C11.5525 52.6104 11.4925 52.7004 11.2825 52.7004C11.1025 52.7004 10.9125 52.5904 10.8825 52.4004C10.8725 52.3804 10.8725 52.3604 10.8725 52.3404C10.8725 52.3204 10.8625 52.3104 10.8525 52.3104C10.8425 52.3104 10.8325 52.3204 10.8225 52.3604C10.8125 52.4304 10.8125 52.5104 10.8125 52.7004C10.8125 52.7404 10.8225 52.7704 10.8625 52.7904C10.9525 52.8304 11.0625 52.8504 11.2425 52.8504C11.3625 52.8504 11.5125 52.8404 11.6525 52.7604C11.8225 52.6604 11.9025 52.5104 11.9025 52.3404C11.9125 52.1304 11.8225 52.0004 11.5025 51.8004Z" fill="#02254F"/>
<path d="M12.8706 52.7599C12.8006 52.7499 12.7906 52.7099 12.7806 52.6499C12.7706 52.5599 12.7706 52.3499 12.7706 52.1799V51.7999C12.7706 51.4599 12.7706 51.4099 12.7806 51.3399C12.7906 51.2599 12.8106 51.2399 12.8706 51.2299C12.9006 51.2199 12.9006 51.2199 12.9206 51.2199C12.9506 51.2199 12.9706 51.2099 12.9706 51.1999C12.9706 51.1899 12.9706 51.1699 12.9206 51.1699C12.8406 51.1699 12.5506 51.1799 12.5406 51.1799C12.5306 51.1799 12.2907 51.1699 12.2007 51.1699C12.1607 51.1699 12.1506 51.1799 12.1506 51.1999C12.1506 51.2099 12.1606 51.2199 12.1906 51.2199C12.2206 51.2199 12.2507 51.2199 12.2607 51.2299C12.3207 51.2399 12.3306 51.2799 12.3306 51.3399C12.3406 51.4099 12.3406 51.4699 12.3406 51.7999V52.1799C12.3406 52.3999 12.3406 52.5499 12.3206 52.6399C12.3206 52.6999 12.3006 52.7499 12.2506 52.7599C12.2206 52.7599 12.2006 52.7599 12.1806 52.7699C12.1506 52.7699 12.1406 52.7799 12.1406 52.7999C12.1406 52.8199 12.1506 52.8199 12.1906 52.8199C12.2606 52.8199 12.5206 52.8099 12.5306 52.8099C12.5406 52.8099 12.8006 52.8199 12.9606 52.8199C13.0006 52.8199 13.0107 52.8099 13.0107 52.7999C13.0107 52.7899 13.0006 52.7699 12.9606 52.7699C12.9406 52.7699 12.9006 52.7699 12.8706 52.7599Z" fill="#02254F"/>
<path d="M14.9153 52.7104C14.9153 52.2704 14.9253 51.8304 14.9453 51.4204C14.9553 51.2804 14.9753 51.2504 15.0553 51.2404C15.0753 51.2404 15.0753 51.2404 15.1053 51.2404C15.1353 51.2404 15.1453 51.2204 15.1453 51.2104C15.1453 51.2004 15.1353 51.1904 15.0953 51.1904C15.0053 51.1904 14.8853 51.2004 14.8353 51.2004C14.7353 51.2004 14.5753 51.1904 14.4953 51.1904C14.4753 51.1904 14.4553 51.2004 14.4553 51.2204C14.4553 51.2304 14.4653 51.2404 14.4953 51.2404C14.5253 51.2404 14.5553 51.2404 14.5853 51.2504C14.6853 51.2604 14.6953 51.3204 14.7053 51.4404L14.7153 52.2104C14.6453 52.1504 14.5353 52.0504 14.2853 51.8304C14.0053 51.5804 13.6553 51.2904 13.5553 51.2004C13.4953 51.1504 13.4853 51.1504 13.4753 51.1504C13.4453 51.1504 13.4353 51.1904 13.4353 51.2604C13.4253 51.5504 13.4253 52.0604 13.4153 52.5104C13.4053 52.7104 13.3853 52.7604 13.2953 52.7704C13.2653 52.7704 13.2553 52.7704 13.2353 52.7704C13.2053 52.7704 13.1953 52.7804 13.1953 52.8004C13.1953 52.8204 13.2053 52.8204 13.2453 52.8204C13.3253 52.8204 13.5053 52.8104 13.5653 52.8104C13.7253 52.8104 13.7953 52.8204 13.8553 52.8204C13.8953 52.8204 13.9153 52.8104 13.9153 52.8004C13.9153 52.7904 13.9053 52.7804 13.8653 52.7704C13.8153 52.7704 13.7953 52.7704 13.7553 52.7604C13.6853 52.7404 13.6853 52.6804 13.6753 52.5304L13.6553 51.8204C13.8453 52.0004 14.0453 52.1604 14.1653 52.2704C14.2753 52.3704 14.4553 52.5204 14.6053 52.6504C14.7853 52.8004 14.8653 52.8504 14.8953 52.8504C14.9053 52.8504 14.9153 52.8304 14.9153 52.7104Z" fill="#02254F"/>
<path d="M16.485 52.8502C16.625 52.8502 16.785 52.8402 16.865 52.8002C16.905 52.7902 16.915 52.7602 16.925 52.7302C16.945 52.6202 16.975 52.4302 16.975 52.3902C16.975 52.3702 16.965 52.3502 16.955 52.3502C16.935 52.3502 16.925 52.3602 16.915 52.4002C16.905 52.4702 16.865 52.5302 16.845 52.5602C16.755 52.6502 16.645 52.6702 16.475 52.6702C16.095 52.6702 15.855 52.3602 15.855 51.9302C15.855 51.6902 15.915 51.5002 16.055 51.3902C16.135 51.3202 16.245 51.2902 16.365 51.2902C16.585 51.2902 16.735 51.3402 16.815 51.4302C16.895 51.5102 16.895 51.6002 16.895 51.6502C16.895 51.6802 16.905 51.7002 16.925 51.7002C16.945 51.7002 16.955 51.6802 16.955 51.6502C16.955 51.5902 16.965 51.4602 16.965 51.3902C16.975 51.3202 16.975 51.2502 16.975 51.2402C16.975 51.2302 16.975 51.2102 16.955 51.2102C16.885 51.2102 16.845 51.2002 16.735 51.1802C16.645 51.1702 16.535 51.1602 16.415 51.1602C16.095 51.1602 15.865 51.2202 15.665 51.3802C15.435 51.5602 15.375 51.8402 15.375 51.9902C15.375 52.2302 15.435 52.4502 15.665 52.6302C15.895 52.8102 16.195 52.8502 16.485 52.8502Z" fill="#02254F"/>
<path d="M18.4931 52.4099C18.4831 52.4099 18.4731 52.4199 18.4631 52.4499C18.4431 52.5499 18.4131 52.5999 18.3531 52.6299C18.2931 52.6499 18.2031 52.6599 18.1431 52.6599C17.8831 52.6599 17.8631 52.6199 17.8531 52.4699C17.8531 52.3799 17.8531 52.2799 17.8531 52.2099V52.0499C17.8531 52.0399 17.8531 52.0299 17.8631 52.0299C17.9331 52.0299 18.1031 52.0299 18.1731 52.0399C18.2931 52.0499 18.3131 52.0899 18.3331 52.1599C18.3331 52.1699 18.3331 52.1899 18.3331 52.1999C18.3331 52.2299 18.3431 52.2399 18.3531 52.2399C18.3631 52.2399 18.3731 52.2299 18.3731 52.1999C18.3731 52.1799 18.3731 52.0599 18.3731 52.0099C18.3731 51.9299 18.3931 51.8299 18.3931 51.8099C18.3931 51.7999 18.3931 51.7799 18.3731 51.7799C18.3631 51.7799 18.3531 51.7899 18.3431 51.8099C18.3131 51.8499 18.2831 51.8599 18.1631 51.8699C18.0731 51.8699 17.9231 51.8699 17.8531 51.8699C17.8431 51.8699 17.8331 51.8699 17.8331 51.8499V51.3899C17.8331 51.3799 17.8331 51.3699 17.8531 51.3699C17.9231 51.3699 18.1031 51.3699 18.1931 51.3799C18.3031 51.3899 18.3331 51.4199 18.3431 51.4699C18.3531 51.4999 18.3531 51.5199 18.3531 51.5499C18.3531 51.5699 18.3631 51.5799 18.3831 51.5799C18.3931 51.5799 18.4031 51.5599 18.4031 51.5399C18.4131 51.3999 18.4131 51.3599 18.4131 51.2999C18.4131 51.2499 18.4231 51.2199 18.4331 51.1899C18.4331 51.1799 18.4331 51.1699 18.4131 51.1699C18.4031 51.1699 18.3931 51.1699 18.3831 51.1799C18.3431 51.1899 18.2931 51.1899 18.2531 51.1899C18.2231 51.1899 17.6431 51.1899 17.6031 51.1899C17.5031 51.1899 17.4031 51.1799 17.2631 51.1799C17.2231 51.1799 17.2131 51.1899 17.2131 51.1999C17.2131 51.2099 17.2131 51.2199 17.2531 51.2299C17.2731 51.2299 17.3031 51.2299 17.3231 51.2399C17.3731 51.2499 17.3931 51.2799 17.4031 51.3399C17.4131 51.4099 17.4131 51.4499 17.4131 51.8099V52.1899C17.4131 52.3099 17.4131 52.4299 17.4131 52.5099C17.4031 52.6599 17.3931 52.7499 17.3231 52.7599C17.2931 52.7599 17.2831 52.7599 17.2531 52.7699C17.2131 52.7699 17.2031 52.7799 17.2031 52.7899C17.2031 52.7999 17.2131 52.8199 17.2531 52.8199C17.3831 52.8199 17.4931 52.8099 17.5931 52.8099C17.8331 52.8099 17.9931 52.8199 18.3331 52.8199C18.4131 52.8199 18.4331 52.8199 18.4531 52.7599C18.4631 52.7199 18.4831 52.5399 18.4831 52.4499C18.5131 52.4299 18.5131 52.4099 18.4931 52.4099Z" fill="#02254F"/>
<path d="M12.7328 55.7806C12.6528 55.7706 12.6328 55.7206 12.6228 55.6406C12.6128 55.5406 12.6128 55.3306 12.6128 55.0806V54.5906C12.6128 54.2106 12.6228 53.9506 12.6228 53.9306C12.6228 53.9106 12.6228 53.8906 12.6028 53.8906C12.5828 53.8906 12.5628 53.9006 12.5328 53.9206C12.3928 54.0106 12.0628 54.2106 11.9128 54.2906C11.8928 54.3006 11.8828 54.3106 11.8828 54.3306C11.8828 54.3506 11.8928 54.3506 11.9028 54.3506C11.9128 54.3506 11.9428 54.3406 11.9728 54.3306C12.0328 54.3106 12.0828 54.2906 12.1328 54.2906C12.1628 54.2906 12.1728 54.3306 12.1728 54.4006V55.0906C12.1728 55.3406 12.1728 55.5206 12.1628 55.6306C12.1628 55.7306 12.1428 55.7806 12.0428 55.7906C11.9928 55.7906 11.9628 55.8006 11.9228 55.8006C11.8928 55.8106 11.8828 55.8206 11.8828 55.8306C11.8828 55.8406 11.8928 55.8506 11.9328 55.8506C12.0928 55.8506 12.3628 55.8406 12.3928 55.8406C12.4128 55.8406 12.6328 55.8506 12.8228 55.8506C12.8628 55.8506 12.8728 55.8406 12.8728 55.8306C12.8728 55.8106 12.8628 55.8006 12.8328 55.8006C12.8128 55.7906 12.7728 55.7906 12.7328 55.7806Z" fill="#02254F"/>
<path d="M13.769 53.9102C13.309 53.9102 13.0391 54.2102 13.0391 54.5402C13.0391 54.8402 13.2291 55.0602 13.5691 55.0602C13.7491 55.0602 13.8691 54.9802 13.9391 54.9102C13.9391 54.9102 13.9491 54.8902 13.9491 54.8802C13.9491 54.8702 13.939 54.8702 13.929 54.8702C13.919 54.8702 13.8991 54.8702 13.8791 54.8802C13.8591 54.8902 13.8291 54.8902 13.7891 54.8902C13.6391 54.8902 13.4691 54.7602 13.4691 54.4202C13.4691 54.1902 13.5691 54.0502 13.7191 54.0502C13.9191 54.0502 14.0291 54.2802 14.0291 54.6902C14.0291 55.1602 13.7491 55.6202 13.3191 55.8402C13.2791 55.8602 13.269 55.8702 13.269 55.8802C13.269 55.8902 13.279 55.9002 13.299 55.9002C13.319 55.9002 13.339 55.9002 13.369 55.8902C13.849 55.8002 14.4791 55.3702 14.4791 54.6702C14.4891 54.2802 14.279 53.9102 13.769 53.9102Z" fill="#02254F"/>
<path d="M15.7534 54.6804C15.5634 54.6804 15.4134 54.7704 15.3434 54.8204C15.3234 54.8404 15.3134 54.8504 15.3134 54.8604C15.3134 54.8704 15.3235 54.8804 15.3535 54.8704C15.3835 54.8604 15.4335 54.8604 15.4835 54.8604C15.6835 54.8604 15.8334 55.0204 15.8334 55.3504C15.8334 55.6504 15.7134 55.7404 15.5834 55.7404C15.3634 55.7404 15.2434 55.4704 15.2434 55.1004C15.2434 54.4804 15.5834 54.1404 15.9934 53.9804C16.0434 53.9604 16.0735 53.9404 16.0735 53.9204C16.0735 53.9104 16.0635 53.9004 16.0435 53.9004C16.0335 53.9004 15.9934 53.9004 15.9734 53.9104C15.3034 54.0504 14.7734 54.5004 14.7734 55.1004C14.7734 55.6104 15.1235 55.8704 15.5435 55.8704C15.9335 55.8704 16.2635 55.6104 16.2635 55.2004C16.2735 54.9404 16.0834 54.6804 15.7534 54.6804Z" fill="#02254F"/>
<path d="M17.3109 55.7806C17.2309 55.7706 17.211 55.7206 17.201 55.6406C17.191 55.5406 17.1909 55.3306 17.1909 55.0806V54.5906C17.1909 54.2106 17.201 53.9506 17.201 53.9306C17.201 53.9106 17.2009 53.8906 17.1809 53.8906C17.1609 53.8906 17.1409 53.9006 17.1109 53.9206C16.9709 54.0106 16.6409 54.2106 16.4909 54.2906C16.4709 54.3006 16.4609 54.3106 16.4609 54.3306C16.4609 54.3506 16.471 54.3506 16.481 54.3506C16.491 54.3506 16.5209 54.3406 16.5509 54.3306C16.6109 54.3106 16.6609 54.2906 16.7109 54.2906C16.7409 54.2906 16.7509 54.3306 16.7509 54.4006V55.0906C16.7509 55.3406 16.7509 55.5206 16.7409 55.6306C16.7409 55.7306 16.7209 55.7806 16.6209 55.7906C16.5709 55.7906 16.5409 55.8006 16.5009 55.8006C16.4709 55.8106 16.4609 55.8206 16.4609 55.8306C16.4609 55.8406 16.471 55.8506 16.511 55.8506C16.671 55.8506 16.9409 55.8406 16.9709 55.8406C16.9909 55.8406 17.2109 55.8506 17.4009 55.8506C17.4409 55.8506 17.451 55.8406 17.451 55.8306C17.451 55.8106 17.4409 55.8006 17.4109 55.8006C17.3809 55.7906 17.3409 55.7906 17.3109 55.7806Z" fill="#02254F"/>
<path d="M17.8503 32.5889C17.7003 32.5889 17.5903 32.7089 17.5903 32.8489C17.5903 32.8989 17.6103 32.9489 17.6403 32.9889L15.7303 34.2889L14.8203 31.6389C14.9203 31.5989 15.0003 31.5089 15.0003 31.3889C15.0003 31.2389 14.8803 31.1289 14.7403 31.1289C14.5903 31.1289 14.4803 31.2489 14.4803 31.3889C14.4803 31.5089 14.5603 31.5989 14.6603 31.6389L13.7503 34.2889L11.8103 32.9689C11.8303 32.9289 11.8403 32.8889 11.8403 32.8489C11.8403 32.6989 11.7203 32.5889 11.5803 32.5889C11.4403 32.5889 11.3203 32.7089 11.3203 32.8489C11.3203 32.9989 11.4403 33.1089 11.5803 33.1089C11.6303 33.1089 11.6703 33.0889 11.7103 33.0689L12.1503 33.7689C12.8003 34.7889 13.2203 35.9289 13.3803 37.1189H16.1103C16.2803 35.9289 16.7003 34.7789 17.3403 33.7689L17.7703 33.0889C17.8003 33.0989 17.8403 33.1089 17.8703 33.1089C18.0203 33.1089 18.1303 32.9889 18.1303 32.8489C18.1103 32.7089 18.0003 32.5889 17.8503 32.5889Z" fill="#02254F"/>
<path d="M48.3906 64.5214C47.9606 63.7814 47.7306 62.9414 47.7306 62.0914V61.6014C47.7306 59.7214 48.5406 57.9614 49.8506 56.6114C53.4506 52.9014 54.7506 47.4014 53.0106 42.3714L51.6506 38.4414H34.3206L32.9606 42.3714C31.2206 47.4014 32.5206 52.9014 36.1206 56.6114C37.5306 58.0614 38.2406 60.0614 38.2406 62.0914C38.2406 62.9514 38.0106 63.7814 37.5806 64.5214L36.0806 67.0914C35.5806 67.9414 35.3206 68.9114 35.3206 69.9014H35.3806C35.3806 70.6014 38.8006 71.1614 43.0206 71.1614C47.2406 71.1614 50.6606 70.6014 50.6606 69.9014C50.6606 68.9114 50.4006 67.9414 49.9006 67.0914L48.3906 64.5214Z" fill="#BCE3E8"/>
<path d="M51.6525 38.4327C51.6525 38.9627 47.7725 39.3927 42.9825 39.3927C38.1925 39.3927 34.3125 38.9627 34.3125 38.4327C34.3125 37.9027 38.1925 37.4727 42.9825 37.4727C47.7725 37.4727 51.6525 37.9027 51.6525 38.4327Z" fill="#EBFAFC"/>
<path d="M44.9837 56.0827C48.6437 56.0827 51.9137 53.6227 52.7837 50.0727C53.3637 47.6827 53.2837 45.1227 52.4337 42.6727L51.1537 38.9727H34.8237L33.5437 42.6727C32.6937 45.1227 32.6137 47.6827 33.1937 50.0727C34.0637 53.6327 37.3337 56.0827 40.9937 56.0827H44.9837Z" fill="#DEF8FC"/>
<path d="M33.1871 50.0612C34.0571 53.6212 37.3271 56.0712 40.9871 56.0712H44.9771C48.6371 56.0712 51.9071 53.6112 52.7771 50.0612C53.2371 48.1912 53.2771 46.2213 52.8671 44.2812H33.0871C32.6871 46.2313 32.7271 48.2012 33.1871 50.0612Z" fill="#8DC8FC"/>
<path d="M42.9825 39.7411C40.3725 39.7411 34.3125 39.6111 34.3125 38.4311C34.3125 37.2511 40.3725 37.1211 42.9825 37.1211C45.5925 37.1211 51.6525 37.2511 51.6525 38.4311C51.6525 39.6111 45.5925 39.7411 42.9825 39.7411ZM35.2525 38.4311C36.1825 38.7211 38.9425 39.0411 42.9825 39.0411C47.0225 39.0411 49.7925 38.7211 50.7125 38.4311C49.7825 38.1411 47.0225 37.8211 42.9825 37.8211C38.9425 37.8211 36.1825 38.1411 35.2525 38.4311Z" fill="#BCE3E8"/>
<path d="M52.8703 44.292C52.8703 44.822 48.4403 45.252 42.9703 45.252C37.5003 45.252 33.0703 44.822 33.0703 44.292C33.0703 43.762 37.5003 43.332 42.9703 43.332C48.4403 43.332 52.8703 43.762 52.8703 44.292Z" fill="#BDF3FF"/>
<g opacity="0.3">
<path d="M40.3643 40.5128C40.1743 40.2628 39.8243 40.2028 39.5143 40.1828C38.2343 40.0828 36.8443 40.2028 35.7943 39.4728C35.5843 39.3228 35.3843 39.1428 35.1243 39.1028C34.8743 39.0628 34.5643 39.2628 34.6143 39.5128L34.9843 39.1428C32.6043 42.4528 32.0143 46.9728 33.4643 50.7828C33.9743 52.1128 34.8543 53.4628 36.2443 53.7928C36.3943 53.8328 36.5643 53.8528 36.7143 53.8028C37.1843 53.6428 37.1743 52.9928 37.0943 52.5028C36.5143 48.8228 37.5843 44.9028 39.9443 42.0228C40.3143 41.5828 40.7143 40.9628 40.3643 40.5128Z" fill="#FFE255"/>
</g>
<path d="M38.0523 41.2825C37.9823 41.1625 37.8623 41.1025 37.7423 41.0425C37.2723 40.8025 36.7923 40.5625 36.3223 40.3225C36.0623 40.1925 35.7923 40.0625 35.5023 40.1125C35.2323 40.1625 35.0123 40.4525 35.1123 40.6925C34.4623 42.3325 34.1623 44.1125 34.2723 45.8825C34.3223 46.6125 34.4423 47.3725 34.8223 47.9925C34.8923 48.1125 34.9823 48.2325 35.1123 48.3025C35.3923 48.4525 35.7523 48.2825 35.9323 48.0225C36.1123 47.7625 36.1423 47.4325 36.1923 47.1225C36.4423 45.3225 37.0423 43.5725 37.9323 41.9825C38.0523 41.7625 38.1823 41.4925 38.0523 41.2825Z" fill="white"/>
<g opacity="0.2">
<path d="M52.88 45.7316C52.64 43.6816 51.97 41.7116 51.29 39.7616C51.19 39.4616 51.07 39.1016 51.07 39.1016C49.66 39.6216 46.09 39.9516 44.12 39.8716C44.05 39.8716 42.99 39.7416 44.14 40.6116C45.52 41.6416 46.53 43.1216 47.01 44.7716C47.49 46.4216 47.49 48.1816 47.2 49.8716C46.99 51.1016 46.6 52.3516 45.75 53.2716C44.46 54.6716 42.39 55.0016 40.49 55.0216C38.54 55.0416 36.46 54.7716 35 53.4816C35.78 54.6216 37.08 55.3116 38.42 55.6416C39.76 55.9716 41.15 55.9716 42.53 55.9716C44.29 55.9716 46.08 55.9616 47.73 55.3716C49.51 54.7416 51.03 53.4216 51.92 51.7616C52.92 49.9316 53.12 47.7816 52.88 45.7316Z" fill="#0E76A5"/>
</g>
<g opacity="0.3">
<path d="M51.4541 40.4913C51.3641 40.2413 51.2641 40.1313 51.1841 39.9213C51.0941 39.7013 50.8641 39.6213 50.6641 39.7413C50.4741 39.9113 48.864 40.2713 47.614 40.2913C47.524 40.2913 46.5641 40.3213 47.4341 41.0513C47.5741 41.1713 49.7841 44.1113 50.0341 45.7913C50.2541 47.2713 50.4541 48.8013 50.0441 50.2413C49.6441 51.6813 48.6641 52.9113 47.4641 53.8013C46.2641 54.6913 44.8541 55.2613 43.4141 55.6613C45.4241 55.7713 47.474 55.2913 49.174 54.2213C50.874 53.1413 52.1941 51.4613 52.7341 49.5213C53.5541 46.5513 52.4941 43.4013 51.4541 40.4913Z" fill="#0E76A5"/>
</g>
<g opacity="0.1">
<path d="M45.1025 43.0012C45.0125 42.1412 44.8825 41.2112 44.2825 40.5812C43.6125 39.8712 42.5425 39.7512 41.5625 39.7412C40.8425 39.7312 40.0525 39.7912 39.5225 40.2812C38.9625 40.8012 38.8725 41.6112 38.8725 42.3912C38.7025 43.6412 38.5425 44.8912 38.4125 46.1412C38.1825 48.3212 38.0525 50.5712 38.7225 52.6512C38.9625 53.3912 39.3125 54.1212 39.8525 54.6912C40.3925 55.2612 41.1425 55.6512 41.9325 55.6412C42.9525 55.6312 43.8825 54.9312 44.4025 54.0512C44.9325 53.1712 45.1225 52.1412 45.2425 51.1212C45.5425 48.4212 45.3825 45.6912 45.1025 43.0012Z" fill="#0E76A5"/>
</g>
<g opacity="0.3">
<path d="M37.8784 56.2727L38.4984 56.3527C38.0484 56.2627 37.5984 56.1727 37.1484 56.0827C38.4084 57.9627 40.7284 59.0127 42.9884 58.9127C45.2484 58.8127 47.6684 57.2427 49.6384 55.4727C46.1084 56.5727 41.4784 57.1427 37.8784 56.2727Z" fill="#0E76A5"/>
</g>
<g opacity="0.2">
<path d="M38.2109 58.2423C38.2709 58.3023 38.3409 58.3423 38.4109 58.3923C38.3509 58.2823 38.2909 58.1723 38.2209 58.0723L38.2109 58.2423Z" fill="#0E76A5"/>
</g>
<g opacity="0.2">
<path d="M49.6484 55.4727C48.0184 56.8927 46.3384 58.3427 44.3084 59.0827C42.3584 59.7927 39.9884 59.7127 38.3984 58.4027C39.3284 59.9827 39.5184 61.9827 38.8684 63.6927C38.7584 63.9927 38.6284 64.3727 38.8384 64.6127C38.9284 64.7127 39.0584 64.7627 39.1784 64.8027C41.5584 65.6427 44.1684 65.3927 46.6684 65.1027C46.8284 65.0827 46.9984 65.0627 47.1284 64.9727C47.5084 64.7127 47.3484 64.1327 47.2084 63.6927C46.7684 62.2827 46.9684 60.7327 47.4884 59.3527C48.0084 57.9727 48.8384 56.7027 49.6484 55.4727Z" fill="#0E76A5"/>
</g>
<g opacity="0.3">
<path d="M50.0111 68.7916C49.7311 67.4816 48.7711 66.4416 48.1911 65.2416C47.4411 63.7116 46.9511 62.4316 47.2211 60.7516C47.4911 59.0716 48.2811 57.4216 49.7211 55.3516C48.2811 55.8016 46.4411 56.4016 45.0011 56.8516C46.0511 57.5116 46.2811 59.0816 45.6311 60.1416C44.9811 61.1916 43.6411 61.7016 42.4111 61.5716C41.6911 61.4916 40.9411 61.2316 40.2711 61.5016L40.2811 61.3116C39.9111 61.5616 39.9811 62.1716 40.3011 62.4716C40.6211 62.7716 41.1011 62.8416 41.5511 62.8516C42.7711 62.8916 44.1011 62.6416 45.1511 63.2816C46.1111 63.8716 46.5211 65.0316 46.8611 66.1016C46.9211 66.3016 46.9911 66.5116 46.9511 66.7216C46.8011 67.4616 45.6111 67.3716 45.1911 68.0016C45.1511 68.0616 45.1211 68.1216 45.1311 68.1916C45.1411 68.3616 45.3411 68.4316 45.5111 68.4516C46.2711 68.5216 47.0211 68.2016 47.7811 68.1416C47.9011 68.1316 48.0211 68.1316 48.1211 68.2016C48.3911 68.3916 48.1511 68.8116 47.8711 68.9916C46.7011 69.7516 45.1811 69.5916 43.8011 69.7816C43.5911 69.8116 43.3511 69.8716 43.2611 70.0616C43.1611 70.2616 43.3011 70.5116 43.5011 70.6216C43.7011 70.7316 43.9311 70.7316 44.1511 70.7216C45.8711 70.6716 47.5811 70.4316 49.2311 69.9816C49.5011 69.9116 49.8011 69.8116 49.9511 69.5716C50.0911 69.3216 50.0611 69.0416 50.0111 68.7916Z" fill="#0E76A5"/>
</g>
<g opacity="0.3">
<path d="M41.5298 68.7309C39.9898 67.7509 39.3198 65.8709 38.7498 64.1309C38.6798 64.2009 38.6298 64.2909 38.5698 64.3709L38.7998 63.9609C38.0398 65.0909 37.3198 66.2509 36.6498 67.4409C36.4398 67.8109 36.2298 68.1909 36.1498 68.6009C36.0698 69.0209 36.1298 69.4809 36.4098 69.8009C36.7598 70.2009 37.3398 70.2809 37.8698 70.3409C38.8698 70.4409 39.8598 70.5509 40.8598 70.6509C41.2098 70.6909 41.5698 70.7209 41.8998 70.6209C42.2298 70.5209 42.5398 70.2309 42.5498 69.8809C42.5698 69.3409 41.9798 69.0209 41.5298 68.7309Z" fill="white"/>
</g>
<path d="M38.7486 66.22C38.7586 66.07 38.6686 65.91 38.5186 65.9C38.4386 65.89 38.3686 65.93 38.3086 65.97C38.1386 66.08 37.9986 66.23 37.8986 66.4L37.9986 66.12C37.7286 66.61 37.5286 67.14 37.3986 67.68C37.2986 68.09 37.2486 68.58 37.5386 68.9C37.7086 69.09 37.9786 69.18 38.2286 69.22C38.3086 69.23 38.4086 69.23 38.4586 69.17C38.4886 69.13 38.4986 69.08 38.5086 69.03C38.5786 68.23 38.3186 67.38 38.6186 66.63C38.6686 66.5 38.7386 66.37 38.7486 66.22Z" fill="white"/>
<g opacity="0.4">
<path d="M47.9503 56.9414C46.9103 58.1214 45.7503 59.2914 44.2603 59.7614C43.8403 59.8914 43.4003 59.9614 42.9603 60.0214C42.3703 60.1014 41.7703 60.1414 41.1803 60.0614C40.5903 59.9714 40.0103 59.7414 39.5903 59.3214L39.8103 59.5414C39.6503 59.4314 39.4903 59.3114 39.3203 59.2014C40.1703 60.5114 40.3703 62.2314 39.8403 63.7014C39.8103 63.7914 39.7803 63.9014 39.8403 63.9614C39.9003 64.0214 40.0103 64.0014 40.0903 63.9714C40.7403 63.7314 41.2703 63.2414 41.9103 62.9914C42.6103 62.7214 43.4003 62.7414 44.1103 62.9714C44.8203 63.2014 45.4503 63.6414 45.9903 64.1514C46.0203 64.1814 46.0503 64.2114 46.0903 64.2214C46.2003 64.2614 46.3203 64.1714 46.3503 64.0614C46.3803 63.9514 46.3503 63.8314 46.3203 63.7214C45.7503 61.3914 46.5103 58.8614 47.9503 56.9414Z" fill="#0E76A5"/>
</g>
</svg>
