<?xml version="1.0" encoding="UTF-8"?>
<svg xmlns="http://www.w3.org/2000/svg" xmlns:xlink="http://www.w3.org/1999/xlink" width="60px" height="60px" viewBox="0 0 60 60" version="1.1">
<g id="surface1">
<path style=" stroke:none;fill-rule:nonzero;fill:rgb(0%,0%,0%);fill-opacity:1;" d="M 8.152344 -0.0351562 C 8.257812 -0.0351562 8.367188 -0.0351562 8.472656 -0.0390625 C 8.585938 -0.0390625 8.699219 -0.0390625 8.816406 -0.0390625 C 8.992188 -0.0390625 8.992188 -0.0390625 9.171875 -0.0429688 C 9.421875 -0.0429688 9.667969 -0.0429688 9.917969 -0.0429688 C 10.296875 -0.0429688 10.675781 -0.046875 11.050781 -0.0507812 C 11.292969 -0.0546875 11.535156 -0.0546875 11.777344 -0.0546875 C 11.945312 -0.0546875 11.945312 -0.0546875 12.117188 -0.0585938 C 12.789062 -0.0546875 13.179688 0.015625 13.710938 0.46875 C 14.414062 1.191406 14.4375 1.992188 14.441406 2.945312 C 14.441406 3.035156 14.441406 3.128906 14.4375 3.222656 C 14.445312 3.492188 14.457031 3.722656 14.53125 3.984375 C 14.757812 4.1875 14.992188 4.382812 15.234375 4.570312 C 15.667969 5.261719 15.644531 6.0625 15.636719 6.855469 C 15.640625 6.972656 15.640625 7.089844 15.644531 7.207031 C 15.644531 8.113281 15.457031 8.742188 14.867188 9.433594 C 14.648438 9.609375 14.648438 9.609375 14.414062 9.609375 C 14.078125 13.308594 15.253906 16.394531 16.5625 19.808594 C 16.988281 20.914062 17.382812 22.03125 17.777344 23.144531 C 17.890625 23.460938 18.003906 23.773438 18.117188 24.085938 C 18.152344 24.179688 18.183594 24.277344 18.222656 24.375 C 18.285156 24.550781 18.347656 24.726562 18.410156 24.902344 C 18.558594 25.308594 18.679688 25.703125 18.75 26.132812 C 20.417969 25.335938 22.3125 24.207031 23.09375 22.457031 C 23.507812 21.277344 23.5 19.988281 23.554688 18.75 C 23.488281 18.742188 23.421875 18.738281 23.351562 18.730469 C 22.617188 18.625 22.292969 18.375 21.832031 17.796875 C 21.492188 17.3125 21.539062 16.847656 21.535156 16.273438 C 21.535156 16.167969 21.53125 16.058594 21.53125 15.949219 C 21.53125 15.722656 21.527344 15.496094 21.527344 15.269531 C 21.527344 14.921875 21.519531 14.578125 21.515625 14.230469 C 21.515625 14.011719 21.511719 13.789062 21.511719 13.570312 C 21.511719 13.46875 21.507812 13.363281 21.507812 13.257812 C 21.507812 12.476562 21.664062 11.996094 22.195312 11.425781 C 22.992188 10.78125 24.113281 10.929688 25.078125 10.9375 C 25.285156 10.9375 25.492188 10.9375 25.699219 10.9375 C 26.128906 10.933594 26.5625 10.9375 26.992188 10.9375 C 27.546875 10.941406 28.097656 10.941406 28.648438 10.9375 C 29.074219 10.933594 29.5 10.9375 29.925781 10.9375 C 30.128906 10.9375 30.332031 10.9375 30.535156 10.9375 C 32.496094 10.925781 32.496094 10.925781 33.117188 11.421875 C 33.730469 12.085938 33.820312 12.667969 33.8125 13.554688 C 33.8125 13.660156 33.8125 13.765625 33.8125 13.875 C 33.8125 14.101562 33.8125 14.324219 33.8125 14.546875 C 33.808594 14.890625 33.8125 15.230469 33.8125 15.574219 C 33.8125 15.789062 33.8125 16.007812 33.8125 16.226562 C 33.8125 16.378906 33.8125 16.378906 33.816406 16.535156 C 33.804688 17.175781 33.699219 17.535156 33.28125 18.046875 C 33.214844 18.132812 33.152344 18.222656 33.082031 18.308594 C 32.683594 18.613281 32.246094 18.671875 31.757812 18.75 C 31.789062 21.390625 31.789062 21.390625 33.007812 23.625 C 33.164062 23.789062 33.164062 23.789062 33.164062 24.023438 C 33.230469 24.054688 33.296875 24.082031 33.363281 24.113281 C 33.667969 24.277344 33.929688 24.46875 34.203125 24.675781 C 34.703125 25.046875 35.214844 25.386719 35.742188 25.714844 C 37.285156 26.691406 38.578125 27.792969 39.257812 29.53125 C 39.257812 29.648438 39.257812 29.761719 39.257812 29.882812 C 39.683594 29.6875 40.109375 29.496094 40.546875 29.296875 C 40.511719 29.183594 40.476562 29.074219 40.441406 28.957031 C 40.394531 28.800781 40.351562 28.640625 40.304688 28.484375 C 40.28125 28.410156 40.257812 28.339844 40.234375 28.261719 C 40.074219 27.6875 40.074219 27.140625 40.113281 26.546875 C 40.121094 26.460938 40.125 26.375 40.132812 26.285156 C 40.199219 25.265625 40.308594 24.253906 40.421875 23.242188 C 40.488281 22.628906 40.550781 22.019531 40.617188 21.40625 C 40.628906 21.28125 40.644531 21.152344 40.65625 21.019531 C 41.292969 15.089844 41.292969 15.089844 41.472656 9.132812 C 41.46875 9.015625 41.46875 8.902344 41.46875 8.78125 C 41.46875 8.578125 41.464844 8.371094 41.457031 8.167969 C 41.445312 7.402344 41.570312 6.65625 42.0625 6.050781 C 42.144531 5.988281 42.222656 5.925781 42.304688 5.859375 C 42.382812 5.792969 42.464844 5.730469 42.546875 5.660156 C 43.050781 5.320312 43.589844 5.367188 44.175781 5.363281 C 44.332031 5.359375 44.332031 5.359375 44.492188 5.359375 C 44.710938 5.359375 44.933594 5.355469 45.152344 5.355469 C 45.488281 5.355469 45.820312 5.347656 46.15625 5.34375 C 46.371094 5.34375 46.585938 5.339844 46.800781 5.339844 C 46.898438 5.339844 46.996094 5.335938 47.101562 5.335938 C 47.851562 5.335938 48.492188 5.503906 49.050781 6.03125 C 49.4375 6.476562 49.585938 6.828125 49.585938 7.40625 C 49.585938 7.507812 49.585938 7.609375 49.585938 7.710938 C 49.585938 7.820312 49.585938 7.933594 49.585938 8.046875 C 49.605469 11.824219 49.882812 15.535156 50.292969 19.292969 C 50.417969 20.429688 50.535156 21.570312 50.65625 22.707031 C 50.699219 23.097656 50.738281 23.488281 50.78125 23.875 C 51.171875 27.464844 51.171875 27.464844 50.625 29.179688 C 50.757812 29.246094 50.894531 29.308594 51.03125 29.375 C 51.539062 29.621094 52.046875 29.871094 52.554688 30.117188 C 52.773438 30.222656 52.992188 30.328125 53.207031 30.433594 C 53.949219 30.792969 54.691406 31.15625 55.429688 31.523438 C 55.535156 31.574219 55.636719 31.625 55.742188 31.679688 C 56.042969 31.828125 56.34375 31.984375 56.644531 32.136719 C 56.730469 32.179688 56.820312 32.222656 56.910156 32.269531 C 58.351562 33.019531 59.285156 34.15625 59.796875 35.691406 C 59.824219 35.785156 59.855469 35.878906 59.882812 35.976562 C 59.902344 36.042969 59.921875 36.105469 59.945312 36.175781 C 60.371094 38.234375 59.753906 40.554688 59.425781 42.597656 C 59.34375 43.105469 59.261719 43.617188 59.183594 44.125 C 59.046875 44.980469 58.910156 45.832031 58.773438 46.6875 C 58.617188 47.667969 58.460938 48.652344 58.304688 49.636719 C 58.15625 50.589844 58.003906 51.542969 57.855469 52.492188 C 57.789062 52.898438 57.726562 53.300781 57.664062 53.703125 C 57.589844 54.175781 57.511719 54.652344 57.433594 55.125 C 57.40625 55.296875 57.378906 55.472656 57.351562 55.644531 C 57.101562 57.265625 56.757812 58.539062 55.421875 59.574219 C 54.539062 60.066406 53.707031 60.042969 52.71875 60.042969 C 52.570312 60.046875 52.421875 60.050781 52.265625 60.050781 C 52.125 60.054688 51.980469 60.054688 51.832031 60.054688 C 51.703125 60.054688 51.570312 60.054688 51.4375 60.058594 C 51.019531 59.988281 50.882812 59.859375 50.625 59.53125 C 50.558594 59.296875 50.558594 59.296875 50.558594 59.0625 C 50.554688 58.945312 50.554688 58.945312 50.550781 58.828125 C 50.675781 58.429688 50.84375 58.328125 51.210938 58.125 C 51.800781 58.046875 52.394531 58.066406 52.992188 58.066406 C 53.945312 58.054688 53.945312 58.054688 54.726562 57.539062 C 55.269531 56.539062 55.269531 56.539062 55.546875 54.023438 C 50.289062 54.023438 45.027344 54.023438 39.609375 54.023438 C 39.609375 55.183594 39.609375 56.34375 39.609375 57.539062 C 39.53125 57.730469 39.453125 57.925781 39.375 58.125 C 39.464844 58.125 39.554688 58.121094 39.648438 58.121094 C 40.492188 58.113281 41.339844 58.105469 42.1875 58.101562 C 42.621094 58.097656 43.058594 58.09375 43.492188 58.089844 C 43.914062 58.085938 44.332031 58.082031 44.753906 58.082031 C 44.914062 58.078125 45.074219 58.078125 45.234375 58.074219 C 45.457031 58.070312 45.683594 58.070312 45.90625 58.070312 C 46.035156 58.070312 46.164062 58.070312 46.292969 58.070312 C 46.722656 58.136719 46.917969 58.292969 47.226562 58.59375 C 47.398438 59 47.355469 59.148438 47.191406 59.558594 C 46.992188 59.882812 46.992188 59.882812 46.757812 60 C 46.519531 60.011719 46.28125 60.015625 46.039062 60.015625 C 45.886719 60.015625 45.730469 60.015625 45.574219 60.015625 C 45.402344 60.015625 45.226562 60.015625 45.054688 60.015625 C 44.871094 60.019531 44.691406 60.019531 44.507812 60.019531 C 44.007812 60.019531 43.503906 60.019531 43 60.019531 C 42.460938 60.019531 41.917969 60.023438 41.378906 60.023438 C 40.070312 60.027344 38.761719 60.027344 37.453125 60.027344 C 36.835938 60.027344 36.222656 60.027344 35.605469 60.03125 C 33.558594 60.03125 31.511719 60.03125 29.464844 60.035156 C 28.933594 60.035156 28.402344 60.035156 27.871094 60.035156 C 27.742188 60.035156 27.609375 60.035156 27.472656 60.035156 C 25.332031 60.035156 23.195312 60.039062 21.054688 60.042969 C 18.859375 60.046875 16.664062 60.046875 14.46875 60.050781 C 13.234375 60.050781 12 60.050781 10.769531 60.054688 C 9.71875 60.054688 8.667969 60.054688 7.617188 60.054688 C 7.082031 60.054688 6.546875 60.054688 6.011719 60.058594 C 5.519531 60.058594 5.03125 60.058594 4.539062 60.058594 C 4.363281 60.058594 4.183594 60.058594 4.007812 60.058594 C 2.71875 60.070312 1.738281 59.914062 0.761719 59.019531 C 0.0976562 58.296875 -0.015625 57.566406 -0.015625 56.617188 C -0.015625 56.523438 -0.015625 56.429688 -0.015625 56.332031 C -0.0195312 56.019531 -0.0195312 55.703125 -0.0195312 55.390625 C -0.0195312 55.164062 -0.0195312 54.9375 -0.0195312 54.714844 C -0.0234375 54.101562 -0.0234375 53.488281 -0.0234375 52.875 C -0.0234375 52.492188 -0.0234375 52.105469 -0.0234375 51.722656 C -0.0273438 50.519531 -0.0273438 49.316406 -0.0273438 48.109375 C -0.0273438 46.726562 -0.03125 45.339844 -0.0351562 43.957031 C -0.0351562 42.882812 -0.0390625 41.8125 -0.0390625 40.738281 C -0.0390625 40.097656 -0.0390625 39.460938 -0.0390625 38.820312 C -0.0585938 33.683594 -0.0585938 33.683594 0.351562 31.40625 C 0.378906 31.25 0.402344 31.097656 0.429688 30.941406 C 0.492188 30.589844 0.566406 30.238281 0.644531 29.890625 C 0.671875 29.761719 0.703125 29.636719 0.730469 29.503906 C 1.144531 27.757812 1.738281 26.0625 2.34375 24.375 C 2.394531 24.230469 2.449219 24.085938 2.5 23.933594 C 2.550781 23.796875 2.601562 23.660156 2.65625 23.519531 C 2.722656 23.339844 2.722656 23.339844 2.789062 23.15625 C 2.925781 22.859375 3.019531 22.691406 3.28125 22.5 C 4.078125 22.410156 4.078125 22.410156 4.511719 22.683594 C 4.753906 23.074219 4.71875 23.332031 4.6875 23.789062 C 4.601562 24.085938 4.515625 24.359375 4.40625 24.644531 C 4.34375 24.8125 4.285156 24.976562 4.222656 25.140625 C 4.191406 25.226562 4.160156 25.3125 4.125 25.398438 C 2.835938 28.875 2.035156 32.375 1.933594 36.09375 C 1.925781 36.34375 1.917969 36.59375 1.910156 36.84375 C 1.882812 37.773438 1.882812 37.773438 1.875 38.699219 C 1.875 38.84375 1.875 38.992188 1.875 39.140625 C 1.996094 39.140625 2.117188 39.136719 2.242188 39.136719 C 3.375 39.125 4.511719 39.117188 5.648438 39.109375 C 6.234375 39.105469 6.816406 39.101562 7.402344 39.097656 C 7.964844 39.089844 8.527344 39.085938 9.09375 39.085938 C 9.308594 39.082031 9.523438 39.082031 9.738281 39.078125 C 10.039062 39.074219 10.339844 39.074219 10.640625 39.074219 C 10.730469 39.070312 10.820312 39.070312 10.910156 39.066406 C 11.335938 39.070312 11.589844 39.132812 11.949219 39.355469 C 12.304688 39.90625 12.269531 40.398438 12.261719 41.042969 C 12.265625 41.175781 12.265625 41.308594 12.265625 41.445312 C 12.269531 41.882812 12.265625 42.324219 12.265625 42.761719 C 12.265625 43.066406 12.265625 43.371094 12.265625 43.679688 C 12.269531 44.316406 12.265625 44.957031 12.265625 45.597656 C 12.261719 46.335938 12.261719 47.074219 12.265625 47.8125 C 12.269531 48.523438 12.269531 49.234375 12.265625 49.945312 C 12.265625 50.25 12.265625 50.550781 12.265625 50.855469 C 12.269531 51.277344 12.265625 51.699219 12.261719 52.121094 C 12.265625 52.308594 12.265625 52.308594 12.265625 52.5 C 12.257812 53.039062 12.246094 53.347656 11.949219 53.808594 C 11.507812 54.082031 11.148438 54.101562 10.640625 54.089844 C 10.5 54.089844 10.5 54.089844 10.355469 54.089844 C 10.042969 54.089844 9.730469 54.085938 9.417969 54.082031 C 9.199219 54.078125 8.980469 54.078125 8.765625 54.078125 C 8.195312 54.074219 7.625 54.070312 7.050781 54.0625 C 6.46875 54.058594 5.886719 54.054688 5.304688 54.050781 C 4.160156 54.046875 3.019531 54.035156 1.875 54.023438 C 1.882812 54.539062 1.898438 55.054688 1.910156 55.570312 C 1.914062 55.714844 1.917969 55.859375 1.917969 56.011719 C 1.921875 56.152344 1.929688 56.292969 1.933594 56.4375 C 1.933594 56.566406 1.9375 56.695312 1.941406 56.832031 C 2 57.234375 2.097656 57.453125 2.34375 57.773438 C 2.691406 57.988281 2.960938 58.039062 3.367188 58.039062 C 3.476562 58.042969 3.589844 58.042969 3.703125 58.042969 C 3.824219 58.042969 3.945312 58.042969 4.070312 58.046875 C 4.199219 58.046875 4.328125 58.046875 4.457031 58.046875 C 4.882812 58.050781 5.304688 58.054688 5.730469 58.054688 C 6.023438 58.058594 6.316406 58.0625 6.609375 58.0625 C 7.304688 58.070312 7.996094 58.074219 8.691406 58.078125 C 9.558594 58.082031 10.425781 58.089844 11.292969 58.09375 C 12.84375 58.105469 14.390625 58.117188 15.9375 58.125 C 15.898438 58.050781 15.863281 57.976562 15.820312 57.898438 C 15.660156 57.414062 15.671875 56.976562 15.671875 56.46875 C 15.671875 56.359375 15.671875 56.25 15.671875 56.140625 C 15.671875 55.777344 15.671875 55.414062 15.671875 55.054688 C 15.671875 54.792969 15.667969 54.53125 15.667969 54.273438 C 15.667969 53.566406 15.667969 52.859375 15.667969 52.15625 C 15.667969 51.5625 15.667969 50.972656 15.667969 50.382812 C 15.664062 48.914062 15.664062 47.441406 15.667969 45.96875 C 15.667969 44.691406 15.664062 43.414062 15.664062 42.140625 C 15.660156 40.828125 15.660156 39.515625 15.660156 38.203125 C 15.660156 37.464844 15.660156 36.730469 15.660156 35.996094 C 15.65625 35.300781 15.65625 34.609375 15.660156 33.917969 C 15.660156 33.664062 15.660156 33.410156 15.65625 33.15625 C 15.652344 31.566406 15.667969 30.113281 16.472656 28.695312 C 16.542969 28.570312 16.613281 28.445312 16.683594 28.316406 C 16.875 28.007812 16.875 28.007812 17.109375 27.773438 C 17.074219 27.007812 16.789062 26.3125 16.535156 25.597656 C 16.464844 25.398438 16.464844 25.398438 16.390625 25.195312 C 16.265625 24.835938 16.136719 24.472656 16.007812 24.113281 C 15.875 23.742188 15.746094 23.367188 15.613281 22.992188 C 15.101562 21.550781 14.589844 20.109375 14.074219 18.667969 C 14.03125 18.542969 13.988281 18.421875 13.941406 18.292969 C 13.734375 17.714844 13.527344 17.136719 13.320312 16.558594 C 13.246094 16.351562 13.175781 16.148438 13.101562 15.941406 C 13.050781 15.800781 13.050781 15.800781 13 15.660156 C 12.773438 15.027344 12.773438 15.027344 12.773438 14.765625 C 11.148438 14.804688 9.523438 14.84375 7.851562 14.882812 C 7.371094 16.289062 7.371094 16.289062 6.890625 17.695312 C 6.828125 17.871094 6.769531 18.046875 6.707031 18.222656 C 6.675781 18.316406 6.644531 18.40625 6.613281 18.5 C 6.441406 18.996094 6.289062 19.355469 5.859375 19.6875 C 5.492188 19.792969 5.261719 19.835938 4.890625 19.722656 C 4.628906 19.527344 4.546875 19.421875 4.453125 19.101562 C 4.503906 18.4375 4.652344 17.886719 4.910156 17.273438 C 5.953125 14.667969 6.328125 12.410156 6.210938 9.609375 C 6.140625 9.578125 6.070312 9.546875 5.996094 9.515625 C 5.515625 9.253906 5.210938 8.832031 5.039062 8.320312 C 5.003906 7.824219 5.007812 7.324219 5.003906 6.824219 C 5 6.6875 4.996094 6.550781 4.992188 6.410156 C 4.984375 5.425781 5.105469 4.914062 5.757812 4.167969 C 5.976562 3.984375 5.976562 3.984375 6.210938 3.984375 C 6.210938 3.914062 6.207031 3.84375 6.207031 3.769531 C 6.199219 3.445312 6.195312 3.121094 6.1875 2.796875 C 6.1875 2.6875 6.183594 2.574219 6.179688 2.460938 C 6.171875 1.632812 6.285156 1.132812 6.847656 0.496094 C 7.277344 0.121094 7.582031 -0.0273438 8.152344 -0.0351562 Z M 8.085938 1.992188 C 8.050781 2.304688 8.050781 2.304688 8.054688 2.664062 C 8.050781 2.800781 8.050781 2.933594 8.046875 3.074219 C 8.042969 3.355469 8.042969 3.640625 8.039062 3.925781 C 8.039062 4.0625 8.035156 4.195312 8.03125 4.335938 C 8.03125 4.457031 8.03125 4.582031 8.027344 4.710938 C 7.953125 5.117188 7.820312 5.253906 7.5 5.507812 C 7.175781 5.652344 7.175781 5.652344 6.914062 5.742188 C 6.910156 6.089844 6.910156 6.441406 6.90625 6.789062 C 6.90625 6.890625 6.90625 6.988281 6.902344 7.089844 C 6.902344 7.1875 6.902344 7.28125 6.902344 7.378906 C 6.902344 7.464844 6.902344 7.554688 6.902344 7.644531 C 6.890625 7.855469 6.890625 7.855469 7.03125 7.96875 C 7.277344 7.984375 7.519531 7.988281 7.765625 7.992188 C 7.992188 8 7.992188 8 8.222656 8.003906 C 8.460938 8.007812 8.699219 8.011719 8.941406 8.015625 C 9.171875 8.019531 9.402344 8.023438 9.632812 8.03125 C 9.773438 8.03125 9.910156 8.035156 10.054688 8.039062 C 10.464844 8.089844 10.691406 8.179688 11.015625 8.4375 C 11.136719 8.859375 11.207031 9.117188 10.996094 9.515625 C 10.710938 9.796875 10.550781 9.789062 10.15625 9.796875 C 10.046875 9.800781 9.941406 9.804688 9.828125 9.808594 C 9.621094 9.8125 9.621094 9.8125 9.410156 9.8125 C 8.972656 9.824219 8.535156 9.832031 8.085938 9.84375 C 8.085938 10.847656 8.085938 11.855469 8.085938 12.890625 C 9.554688 12.890625 11.023438 12.890625 12.539062 12.890625 C 12.566406 11.4375 12.566406 11.4375 12.59375 9.980469 C 12.597656 9.796875 12.601562 9.617188 12.609375 9.433594 C 12.609375 9.339844 12.609375 9.246094 12.613281 9.148438 C 12.628906 8.464844 12.628906 8.464844 12.890625 8.203125 C 13.160156 8.082031 13.433594 7.964844 13.710938 7.851562 C 13.714844 7.503906 13.714844 7.152344 13.71875 6.804688 C 13.71875 6.65625 13.71875 6.65625 13.722656 6.503906 C 13.722656 6.40625 13.722656 6.3125 13.722656 6.214844 C 13.722656 6.128906 13.722656 6.039062 13.722656 5.949219 C 13.734375 5.738281 13.734375 5.738281 13.59375 5.625 C 13.304688 5.609375 13.015625 5.601562 12.726562 5.601562 C 12.546875 5.597656 12.367188 5.59375 12.191406 5.589844 C 11.90625 5.585938 11.625 5.582031 11.339844 5.578125 C 11.066406 5.574219 10.796875 5.570312 10.523438 5.5625 C 10.4375 5.5625 10.355469 5.5625 10.265625 5.5625 C 9.785156 5.550781 9.484375 5.507812 9.140625 5.15625 C 9.082031 4.929688 9.082031 4.929688 9.089844 4.6875 C 9.089844 4.609375 9.089844 4.527344 9.089844 4.445312 C 9.15625 4.144531 9.246094 4.054688 9.492188 3.867188 C 9.8125 3.816406 9.8125 3.816406 10.191406 3.808594 C 10.328125 3.804688 10.464844 3.800781 10.605469 3.792969 C 10.75 3.792969 10.890625 3.789062 11.039062 3.785156 C 11.253906 3.78125 11.253906 3.78125 11.472656 3.773438 C 11.828125 3.765625 12.183594 3.757812 12.539062 3.75 C 12.546875 3.460938 12.554688 3.175781 12.5625 2.886719 C 12.5625 2.804688 12.566406 2.722656 12.570312 2.636719 C 12.578125 2.371094 12.578125 2.371094 12.539062 1.992188 C 12.117188 1.710938 11.804688 1.722656 11.316406 1.726562 C 11.230469 1.726562 11.144531 1.726562 11.058594 1.726562 C 10.878906 1.726562 10.699219 1.726562 10.523438 1.726562 C 10.246094 1.726562 9.972656 1.726562 9.699219 1.726562 C 9.523438 1.726562 9.351562 1.726562 9.175781 1.726562 C 9.09375 1.726562 9.011719 1.726562 8.925781 1.726562 C 8.453125 1.714844 8.453125 1.714844 8.085938 1.992188 Z M 43.359375 7.5 C 43.339844 7.851562 43.332031 8.195312 43.335938 8.546875 C 43.335938 8.652344 43.335938 8.753906 43.335938 8.863281 C 43.339844 9.195312 43.339844 9.527344 43.34375 9.859375 C 43.347656 10.082031 43.347656 10.308594 43.347656 10.53125 C 43.351562 11.085938 43.355469 11.636719 43.359375 12.1875 C 44.789062 12.1875 46.222656 12.1875 47.695312 12.1875 C 47.699219 11.503906 47.699219 10.824219 47.703125 10.140625 C 47.703125 9.910156 47.703125 9.675781 47.703125 9.445312 C 47.707031 9.113281 47.707031 8.777344 47.707031 8.445312 C 47.707031 8.339844 47.707031 8.234375 47.707031 8.128906 C 47.707031 7.878906 47.703125 7.632812 47.695312 7.382812 C 47.464844 7.152344 47.019531 7.246094 46.703125 7.246094 C 46.617188 7.246094 46.527344 7.246094 46.4375 7.246094 C 46.25 7.246094 46.066406 7.242188 45.878906 7.242188 C 45.59375 7.242188 45.308594 7.242188 45.023438 7.238281 C 44.84375 7.238281 44.664062 7.238281 44.484375 7.238281 C 44.398438 7.238281 44.3125 7.238281 44.226562 7.234375 C 43.738281 7.222656 43.738281 7.222656 43.359375 7.5 Z M 23.4375 12.890625 C 23.4375 14.167969 23.4375 15.441406 23.4375 16.757812 C 23.65625 16.976562 24.027344 16.890625 24.320312 16.890625 C 24.398438 16.890625 24.480469 16.890625 24.5625 16.890625 C 24.828125 16.890625 25.089844 16.890625 25.355469 16.890625 C 25.539062 16.890625 25.722656 16.890625 25.90625 16.890625 C 26.292969 16.890625 26.675781 16.890625 27.0625 16.890625 C 27.554688 16.890625 28.050781 16.890625 28.546875 16.890625 C 28.925781 16.890625 29.304688 16.890625 29.683594 16.890625 C 29.863281 16.890625 30.046875 16.890625 30.230469 16.890625 C 30.484375 16.890625 30.738281 16.890625 30.992188 16.890625 C 31.210938 16.890625 31.210938 16.890625 31.433594 16.890625 C 31.746094 16.910156 31.746094 16.910156 31.875 16.757812 C 31.875 15.480469 31.875 14.207031 31.875 12.890625 C 29.089844 12.890625 26.304688 12.890625 23.4375 12.890625 Z M 43.242188 14.0625 C 43.085938 15.570312 42.933594 17.078125 42.773438 18.632812 C 44.589844 18.632812 46.410156 18.632812 48.28125 18.632812 C 48.1875 16.992188 48.1875 16.992188 48.046875 15.359375 C 48.039062 15.257812 48.027344 15.15625 48.015625 15.054688 C 48.007812 14.957031 48 14.863281 47.988281 14.761719 C 47.976562 14.636719 47.976562 14.636719 47.960938 14.507812 C 47.9375 14.285156 47.9375 14.285156 47.8125 14.0625 C 46.304688 14.0625 44.796875 14.0625 43.242188 14.0625 Z M 25.429688 18.75 C 25.40625 19.257812 25.40625 19.257812 25.386719 19.773438 C 25.269531 22.015625 24.84375 23.925781 23.1875 25.558594 C 22.464844 26.167969 21.648438 26.644531 20.847656 27.144531 C 19.382812 28.0625 18.089844 29.078125 17.628906 30.835938 C 17.558594 31.300781 17.5625 31.757812 17.5625 32.226562 C 17.558594 32.332031 17.558594 32.4375 17.558594 32.546875 C 17.558594 32.902344 17.558594 33.257812 17.558594 33.617188 C 17.558594 33.871094 17.554688 34.125 17.554688 34.382812 C 17.550781 35.21875 17.550781 36.058594 17.550781 36.894531 C 17.550781 37.183594 17.550781 37.472656 17.546875 37.761719 C 17.546875 39.117188 17.542969 40.46875 17.542969 41.824219 C 17.542969 43.390625 17.539062 44.953125 17.535156 46.519531 C 17.53125 47.726562 17.53125 48.9375 17.527344 50.144531 C 17.527344 50.867188 17.527344 51.589844 17.523438 52.3125 C 17.523438 52.992188 17.523438 53.671875 17.523438 54.351562 C 17.523438 54.601562 17.523438 54.847656 17.519531 55.097656 C 17.519531 55.4375 17.519531 55.777344 17.519531 56.121094 C 17.519531 56.21875 17.519531 56.316406 17.515625 56.417969 C 17.523438 57.039062 17.625 57.40625 18.046875 57.890625 C 18.429688 58.171875 18.792969 58.15625 19.261719 58.15625 C 19.414062 58.15625 19.566406 58.160156 19.726562 58.160156 C 19.894531 58.160156 20.066406 58.160156 20.234375 58.160156 C 20.414062 58.160156 20.59375 58.160156 20.773438 58.160156 C 21.257812 58.164062 21.746094 58.164062 22.230469 58.164062 C 22.535156 58.164062 22.839844 58.164062 23.144531 58.164062 C 24.203125 58.167969 25.261719 58.167969 26.324219 58.167969 C 27.3125 58.167969 28.296875 58.171875 29.285156 58.175781 C 30.136719 58.175781 30.984375 58.179688 31.832031 58.179688 C 32.339844 58.179688 32.84375 58.179688 33.351562 58.183594 C 33.828125 58.183594 34.304688 58.183594 34.78125 58.183594 C 34.957031 58.183594 35.128906 58.183594 35.304688 58.183594 C 35.542969 58.1875 35.78125 58.183594 36.019531 58.183594 C 36.15625 58.183594 36.289062 58.183594 36.425781 58.183594 C 36.957031 58.101562 37.324219 57.878906 37.660156 57.457031 C 37.777344 57.027344 37.765625 56.597656 37.765625 56.152344 C 37.765625 55.996094 37.765625 55.996094 37.765625 55.832031 C 37.769531 55.476562 37.769531 55.125 37.769531 54.769531 C 37.769531 54.515625 37.769531 54.261719 37.769531 54.007812 C 37.773438 53.316406 37.773438 52.625 37.773438 51.933594 C 37.773438 51.5 37.773438 51.070312 37.773438 50.636719 C 37.777344 49.128906 37.777344 47.621094 37.777344 46.113281 C 37.777344 44.710938 37.78125 43.304688 37.785156 41.902344 C 37.785156 40.695312 37.789062 39.488281 37.789062 38.285156 C 37.789062 37.5625 37.789062 36.84375 37.792969 36.125 C 37.792969 35.445312 37.792969 34.769531 37.792969 34.089844 C 37.792969 33.84375 37.792969 33.59375 37.792969 33.347656 C 37.804688 31.539062 37.695312 30.015625 36.445312 28.59375 C 35.769531 27.929688 34.960938 27.453125 34.160156 26.953125 C 32.292969 25.789062 30.859375 24.585938 30.234375 22.382812 C 29.960938 21.1875 29.949219 19.976562 29.882812 18.75 C 28.414062 18.75 26.945312 18.75 25.429688 18.75 Z M 42.65625 20.507812 C 42.453125 21.835938 42.453125 21.835938 42.292969 23.167969 C 42.277344 23.316406 42.277344 23.316406 42.261719 23.46875 C 42.238281 23.675781 42.21875 23.882812 42.199219 24.089844 C 42.164062 24.40625 42.132812 24.71875 42.097656 25.035156 C 42.078125 25.238281 42.054688 25.441406 42.035156 25.644531 C 42.027344 25.734375 42.015625 25.828125 42.003906 25.921875 C 41.929688 26.707031 41.921875 27.449219 42.253906 28.175781 C 42.527344 28.851562 42.523438 29.476562 42.28125 30.160156 C 41.644531 31.085938 40.597656 31.378906 39.609375 31.875 C 39.609375 34.078125 39.609375 36.285156 39.609375 38.554688 C 45.71875 38.554688 51.828125 38.554688 58.125 38.554688 C 58.125 36.746094 58.082031 35.894531 56.929688 34.617188 C 56.078125 33.890625 55.035156 33.425781 54.027344 32.949219 C 53.761719 32.820312 53.496094 32.691406 53.230469 32.5625 C 52.816406 32.363281 52.402344 32.167969 51.988281 31.96875 C 51.582031 31.777344 51.179688 31.582031 50.777344 31.386719 C 50.652344 31.328125 50.527344 31.269531 50.402344 31.210938 C 49.652344 30.847656 49.132812 30.53125 48.75 29.765625 C 48.695312 29.160156 48.671875 28.582031 48.925781 28.023438 C 49.511719 26.640625 48.96875 24.601562 48.808594 23.167969 C 48.710938 22.289062 48.613281 21.410156 48.515625 20.507812 C 46.582031 20.507812 44.648438 20.507812 42.65625 20.507812 Z M 39.609375 40.429688 C 39.609375 44.296875 39.609375 48.164062 39.609375 52.148438 C 44.984375 52.148438 50.359375 52.148438 55.898438 52.148438 C 56.117188 50.976562 56.328125 49.8125 56.507812 48.632812 C 56.527344 48.496094 56.546875 48.359375 56.570312 48.21875 C 56.621094 47.886719 56.667969 47.558594 56.71875 47.226562 C 56.601562 47.222656 56.480469 47.222656 56.359375 47.21875 C 55.917969 47.210938 55.476562 47.199219 55.035156 47.1875 C 54.84375 47.183594 54.652344 47.179688 54.464844 47.175781 C 54.1875 47.171875 53.914062 47.164062 53.640625 47.15625 C 53.554688 47.15625 53.46875 47.15625 53.382812 47.152344 C 52.949219 47.140625 52.753906 47.121094 52.382812 46.875 C 52.285156 46.46875 52.222656 46.175781 52.359375 45.777344 C 52.5 45.585938 52.5 45.585938 52.734375 45.46875 C 53.050781 45.449219 53.363281 45.4375 53.679688 45.433594 C 53.773438 45.429688 53.867188 45.425781 53.960938 45.425781 C 54.261719 45.417969 54.558594 45.410156 54.859375 45.402344 C 55.0625 45.398438 55.261719 45.394531 55.464844 45.386719 C 55.960938 45.375 56.457031 45.363281 56.953125 45.351562 C 57.109375 44.75 57.238281 44.15625 57.339844 43.539062 C 57.359375 43.421875 57.359375 43.421875 57.378906 43.300781 C 57.402344 43.136719 57.429688 42.972656 57.457031 42.808594 C 57.496094 42.558594 57.535156 42.308594 57.578125 42.058594 C 57.71875 41.246094 57.71875 41.246094 57.773438 40.429688 C 51.777344 40.429688 45.785156 40.429688 39.609375 40.429688 Z M 1.875 41.015625 C 1.875 43.21875 1.875 45.425781 1.875 47.695312 C 3.320312 47.714844 3.320312 47.714844 4.765625 47.730469 C 4.945312 47.734375 5.125 47.738281 5.308594 47.742188 C 5.402344 47.742188 5.496094 47.742188 5.59375 47.742188 C 6.015625 47.753906 6.277344 47.773438 6.621094 48.03125 C 6.863281 48.375 6.867188 48.574219 6.796875 48.984375 C 6.621094 49.234375 6.621094 49.234375 6.328125 49.453125 C 5.972656 49.503906 5.660156 49.523438 5.308594 49.523438 C 5.160156 49.527344 5.160156 49.527344 5.011719 49.53125 C 4.699219 49.535156 4.386719 49.539062 4.070312 49.539062 C 3.859375 49.542969 3.648438 49.546875 3.433594 49.550781 C 2.914062 49.5625 2.394531 49.566406 1.875 49.570312 C 1.875 50.421875 1.875 51.273438 1.875 52.148438 C 4.660156 52.148438 7.445312 52.148438 10.3125 52.148438 C 10.3125 48.472656 10.3125 44.800781 10.3125 41.015625 C 7.527344 41.015625 4.742188 41.015625 1.875 41.015625 Z M 1.875 41.015625 "/>
<path style=" stroke:none;fill-rule:nonzero;fill:rgb(0%,0%,0%);fill-opacity:1;" d="M 21.226562 36.386719 C 21.34375 36.382812 21.460938 36.382812 21.582031 36.382812 C 21.710938 36.382812 21.839844 36.382812 21.972656 36.382812 C 22.109375 36.382812 22.246094 36.382812 22.386719 36.382812 C 22.835938 36.378906 23.289062 36.382812 23.738281 36.382812 C 24.050781 36.382812 24.363281 36.382812 24.675781 36.382812 C 25.332031 36.378906 25.988281 36.382812 26.644531 36.382812 C 27.402344 36.386719 28.160156 36.386719 28.917969 36.382812 C 29.570312 36.382812 30.222656 36.382812 30.871094 36.382812 C 31.261719 36.382812 31.652344 36.382812 32.039062 36.382812 C 32.472656 36.378906 32.90625 36.382812 33.339844 36.382812 C 33.46875 36.382812 33.597656 36.382812 33.730469 36.382812 C 33.847656 36.382812 33.964844 36.382812 34.085938 36.386719 C 34.191406 36.386719 34.292969 36.386719 34.398438 36.386719 C 34.800781 36.46875 34.992188 36.617188 35.273438 36.914062 C 35.347656 37.246094 35.347656 37.246094 35.347656 37.640625 C 35.347656 37.789062 35.351562 37.9375 35.351562 38.089844 C 35.351562 38.253906 35.351562 38.417969 35.347656 38.585938 C 35.351562 38.757812 35.351562 38.929688 35.351562 39.105469 C 35.355469 39.578125 35.355469 40.046875 35.351562 40.519531 C 35.351562 41.011719 35.351562 41.503906 35.351562 42 C 35.355469 42.828125 35.351562 43.65625 35.351562 44.484375 C 35.347656 45.441406 35.347656 46.398438 35.351562 47.355469 C 35.355469 48.179688 35.355469 49 35.351562 49.824219 C 35.351562 50.316406 35.351562 50.804688 35.351562 51.296875 C 35.355469 51.757812 35.355469 52.21875 35.351562 52.683594 C 35.351562 52.851562 35.351562 53.019531 35.351562 53.191406 C 35.351562 53.421875 35.351562 53.652344 35.347656 53.882812 C 35.347656 54.015625 35.347656 54.144531 35.347656 54.277344 C 35.273438 54.609375 35.273438 54.609375 35.011719 54.886719 C 34.664062 55.09375 34.488281 55.136719 34.085938 55.136719 C 33.96875 55.140625 33.851562 55.140625 33.730469 55.140625 C 33.601562 55.140625 33.472656 55.140625 33.339844 55.140625 C 33.203125 55.140625 33.066406 55.140625 32.925781 55.140625 C 32.476562 55.144531 32.023438 55.140625 31.574219 55.140625 C 31.261719 55.140625 30.949219 55.140625 30.636719 55.140625 C 29.980469 55.144531 29.324219 55.140625 28.667969 55.140625 C 27.910156 55.136719 27.152344 55.136719 26.394531 55.140625 C 25.742188 55.140625 25.089844 55.140625 24.441406 55.140625 C 24.050781 55.140625 23.660156 55.140625 23.273438 55.140625 C 22.839844 55.144531 22.40625 55.140625 21.972656 55.140625 C 21.84375 55.140625 21.714844 55.140625 21.582031 55.140625 C 21.464844 55.140625 21.347656 55.140625 21.226562 55.136719 C 21.121094 55.136719 21.019531 55.136719 20.914062 55.136719 C 20.511719 55.054688 20.320312 54.90625 20.039062 54.609375 C 19.964844 54.277344 19.964844 54.277344 19.964844 53.882812 C 19.964844 53.734375 19.960938 53.585938 19.960938 53.433594 C 19.960938 53.269531 19.960938 53.105469 19.964844 52.9375 C 19.960938 52.765625 19.960938 52.59375 19.960938 52.417969 C 19.957031 51.945312 19.957031 51.476562 19.960938 51.003906 C 19.960938 50.511719 19.960938 50.019531 19.960938 49.523438 C 19.957031 48.695312 19.960938 47.867188 19.960938 47.039062 C 19.964844 46.082031 19.964844 45.125 19.960938 44.167969 C 19.957031 43.34375 19.957031 42.523438 19.960938 41.699219 C 19.960938 41.207031 19.960938 40.71875 19.960938 40.226562 C 19.957031 39.765625 19.957031 39.304688 19.960938 38.839844 C 19.960938 38.671875 19.960938 38.503906 19.960938 38.332031 C 19.960938 38.101562 19.960938 37.871094 19.964844 37.640625 C 19.964844 37.507812 19.964844 37.378906 19.964844 37.246094 C 20.039062 36.914062 20.039062 36.914062 20.300781 36.636719 C 20.648438 36.429688 20.824219 36.386719 21.226562 36.386719 Z M 21.914062 38.320312 C 21.914062 43.230469 21.914062 48.144531 21.914062 53.203125 C 25.703125 53.203125 29.492188 53.203125 33.398438 53.203125 C 33.398438 48.292969 33.398438 43.378906 33.398438 38.320312 C 29.609375 38.320312 25.820312 38.320312 21.914062 38.320312 Z M 21.914062 38.320312 "/>
<path style=" stroke:none;fill-rule:nonzero;fill:rgb(0%,0%,0%);fill-opacity:1;" d="M 26.0625 28.925781 C 26.25 28.925781 26.25 28.925781 26.441406 28.925781 C 26.703125 28.925781 26.96875 28.921875 27.230469 28.921875 C 27.632812 28.921875 28.03125 28.921875 28.429688 28.917969 C 28.6875 28.917969 28.945312 28.917969 29.203125 28.917969 C 29.378906 28.917969 29.378906 28.917969 29.558594 28.914062 C 31.226562 28.921875 32.710938 29.203125 33.96875 30.367188 C 34.816406 31.269531 35.28125 32.34375 35.316406 33.574219 C 35.324219 33.707031 35.328125 33.835938 35.335938 33.972656 C 35.273438 34.335938 35.273438 34.335938 35.0625 34.589844 C 34.5 34.914062 33.976562 34.871094 33.339844 34.867188 C 33.203125 34.867188 33.066406 34.867188 32.925781 34.867188 C 32.476562 34.871094 32.023438 34.867188 31.574219 34.867188 C 31.261719 34.867188 30.949219 34.867188 30.636719 34.867188 C 29.980469 34.871094 29.324219 34.867188 28.667969 34.867188 C 27.910156 34.863281 27.152344 34.863281 26.394531 34.867188 C 25.742188 34.867188 25.089844 34.867188 24.441406 34.867188 C 24.050781 34.867188 23.660156 34.867188 23.273438 34.867188 C 22.839844 34.871094 22.40625 34.867188 21.972656 34.867188 C 21.84375 34.867188 21.714844 34.867188 21.582031 34.867188 C 20.71875 34.859375 20.71875 34.859375 20.253906 34.585938 C 19.890625 34.160156 19.96875 33.753906 19.988281 33.21875 C 20.160156 31.800781 20.902344 30.773438 21.964844 29.863281 C 23.222656 28.964844 24.574219 28.925781 26.0625 28.925781 Z M 22.5 31.992188 C 22.148438 32.414062 22.148438 32.414062 22.03125 32.929688 C 25.742188 32.929688 29.457031 32.929688 33.28125 32.929688 C 32.921875 32.03125 32.40625 31.425781 31.523438 31.019531 C 31.050781 30.855469 30.59375 30.804688 30.097656 30.800781 C 29.917969 30.800781 29.917969 30.800781 29.738281 30.796875 C 29.609375 30.796875 29.484375 30.796875 29.355469 30.796875 C 29.222656 30.796875 29.089844 30.796875 28.957031 30.792969 C 28.675781 30.792969 28.398438 30.792969 28.121094 30.792969 C 27.695312 30.792969 27.273438 30.789062 26.851562 30.785156 C 26.578125 30.78125 26.308594 30.78125 26.035156 30.78125 C 25.910156 30.78125 25.785156 30.777344 25.65625 30.777344 C 24.363281 30.78125 23.390625 31.023438 22.5 31.992188 Z M 22.5 31.992188 "/>
<path style=" stroke:none;fill-rule:nonzero;fill:rgb(0%,0%,0%);fill-opacity:1;" d="M 48.492188 42.5625 C 49.539062 43.457031 50.152344 44.460938 50.316406 45.84375 C 50.363281 47.0625 50.101562 48.296875 49.300781 49.246094 C 48.386719 50.203125 47.433594 50.78125 46.085938 50.882812 C 44.5625 50.90625 43.484375 50.519531 42.335938 49.527344 C 41.367188 48.398438 41.058594 47.265625 41.09375 45.785156 C 41.222656 44.394531 41.941406 43.363281 42.992188 42.484375 C 44.601562 41.332031 46.90625 41.410156 48.492188 42.5625 Z M 43.402344 44.765625 C 42.9375 45.445312 42.917969 46.191406 43.007812 46.992188 C 43.222656 47.769531 43.761719 48.300781 44.414062 48.75 C 45.109375 49.085938 45.839844 49.101562 46.582031 48.90625 C 47.40625 48.582031 47.84375 48.058594 48.265625 47.300781 C 48.535156 46.441406 48.449219 45.738281 48.085938 44.917969 C 47.6875 44.226562 47.042969 43.824219 46.289062 43.59375 C 45.074219 43.429688 44.164062 43.808594 43.402344 44.765625 Z M 43.402344 44.765625 "/>
</g>
</svg>
