<svg width="24" height="24" viewBox="0 0 24 24" fill="none" xmlns="http://www.w3.org/2000/svg">
<path d="M22.4405 12.7985L7.8977 20.8021C7.10043 21.2409 6.09842 20.9503 5.65964 20.153L1.22793 12.1005C0.789147 11.3032 1.07976 10.3012 1.87703 9.86242L16.4198 1.85878C17.2171 1.42001 18.2191 1.71062 18.6579 2.50789L23.0896 10.5604C23.5284 11.3577 23.2377 12.3597 22.4405 12.7985Z" fill="#FEBC1F"/>
<path d="M22.1231 12.2223L7.58032 20.2259C6.78305 20.6647 5.78103 20.3741 5.34225 19.5768L0.910543 11.5243C0.471764 10.727 0.762378 9.72503 1.55965 9.28625L16.1024 1.28261C16.8997 0.843834 17.9017 1.13445 18.3405 1.93172L22.7722 9.98422C23.211 10.7815 22.9204 11.7835 22.1231 12.2223Z" fill="#FFD475"/>
<path d="M16.1024 1.28165L1.55965 9.28531C0.762376 9.72409 0.471768 10.7261 0.910538 11.5234L5.34225 19.5759C5.34225 19.5759 1.21278 11.6785 17.5727 1.2244C17.1167 1.01952 16.5741 1.02206 16.1024 1.28165Z" fill="#FEBC1F"/>
<path d="M2.21381 12.5113L2.77032 13.5224C2.9106 13.7773 3.23094 13.8702 3.48583 13.73L18.8274 5.2867C19.0823 5.14642 19.1752 4.82607 19.0349 4.57118L18.4784 3.56001C18.3382 3.30512 18.0178 3.21221 17.7629 3.35248L2.42133 11.7958C2.16644 11.936 2.07353 12.2564 2.21381 12.5113Z" fill="#1D2943"/>
<path d="M2.05952 12.232L2.61602 13.2431C2.7563 13.498 3.07664 13.5909 3.33153 13.4507L18.6731 5.0074C18.928 4.86712 19.0209 4.54677 18.8806 4.29189L18.3241 3.28071C18.1839 3.02582 17.8635 2.93291 17.6086 3.07319L2.26704 11.5165C2.01215 11.6567 1.91924 11.9771 2.05952 12.232Z" fill="#4C5C75"/>
<path d="M19.8119 22.9225L3.21222 22.9225C2.30219 22.9225 1.56446 22.1848 1.56446 21.2748L1.56445 12.0833C1.56445 11.1733 2.30218 10.4356 3.21222 10.4356L19.8119 10.4355C20.722 10.4355 21.4597 11.1733 21.4597 12.0833L21.4597 21.2748C21.4597 22.1848 20.722 22.9225 19.8119 22.9225Z" fill="#5094FF"/>
<path d="M3.21222 22.2624L19.8119 22.2624C20.722 22.2624 21.4597 21.5246 21.4597 20.6146L21.4597 11.4232C21.4597 10.5131 20.722 9.7754 19.8119 9.7754L3.21222 9.77539C2.30219 9.77539 1.56446 10.5131 1.56446 11.4232L1.56445 20.6146C1.56445 21.5246 2.30218 22.2624 3.21222 22.2624Z" fill="#57B3FE"/>
<path d="M3.21218 9.77539L19.8119 9.77542C20.7219 9.77542 21.4597 10.5132 21.4597 11.4232L21.4597 20.6146C21.4597 20.6146 21.2697 11.7048 1.89648 10.4341C2.19717 10.0348 2.67378 9.77539 3.21218 9.77539Z" fill="#5094FF"/>
<path d="M20.1683 19.3073V19.563H20.1649C20.1716 19.9088 19.8831 20.1993 19.5353 20.1993L17.8635 20.1993C17.5219 20.1993 17.2271 19.9142 17.2339 19.563H17.2305V19.3073H17.2713C17.37 19.0588 17.6389 18.8887 17.9213 18.8887L19.4774 18.8887C19.7599 18.8887 20.0288 19.0588 20.1275 19.3073H20.1683Z" fill="#E3E7F0"/>
<path d="M19.5332 19.9448L17.9171 19.9448C17.5915 19.9448 17.2838 19.7237 17.238 19.4013C17.1824 19.0087 17.486 18.6719 17.8679 18.6719L19.4777 18.6719C19.823 18.6719 20.1445 18.9224 20.1655 19.2671C20.1889 19.6497 19.8864 19.9448 19.5332 19.9448Z" fill="white"/>
<path d="M15.3763 19.3073V19.563H15.3729C15.3796 19.9088 15.0911 20.1993 14.7433 20.1993L13.0715 20.1993C12.7299 20.1993 12.4351 19.9142 12.4419 19.563H12.4385V19.3073H12.4793C12.578 19.0588 12.8469 18.8887 13.1293 18.8887L14.6855 18.8887C14.9679 18.8887 15.2368 19.0588 15.3355 19.3073H15.3763Z" fill="#E3E7F0"/>
<path d="M14.7412 19.9448L13.1251 19.9448C12.7995 19.9448 12.4918 19.7237 12.4461 19.4013C12.3904 19.0087 12.694 18.6719 13.0759 18.6719L14.6857 18.6719C15.031 18.6719 15.3525 18.9224 15.3736 19.2671C15.3969 19.6497 15.0944 19.9448 14.7412 19.9448Z" fill="white"/>
<path d="M10.5853 19.3073V19.563H10.5819C10.5885 19.9088 10.3001 20.1993 9.95231 20.1993H8.28045C7.93885 20.1993 7.64411 19.9142 7.65087 19.563H7.64746V19.3073H7.6883C7.787 19.0588 8.05587 18.8887 8.33827 18.8887H9.89444C10.1769 18.8887 10.4458 19.0588 10.5445 19.3073H10.5853Z" fill="#E3E7F0"/>
<path d="M9.9502 19.9448L8.33407 19.9448C8.00846 19.9448 7.70075 19.7237 7.65504 19.4013C7.59938 19.0087 7.90301 18.6719 8.28488 18.6719L9.89465 18.6719C10.2399 18.6719 10.5615 18.9224 10.5825 19.2671C10.6059 19.6497 10.3034 19.9448 9.9502 19.9448Z" fill="white"/>
<path d="M5.7933 19.3073V19.563H5.7899C5.79656 19.9088 5.50808 20.1993 5.16032 20.1993L3.48846 20.1993C3.14686 20.1993 2.85211 19.9142 2.85888 19.563H2.85547V19.3073H2.89631C2.99501 19.0588 3.26388 18.8887 3.54628 18.8887L5.10245 18.8887C5.3849 18.8887 5.65376 19.0588 5.75247 19.3073H5.7933Z" fill="#E3E7F0"/>
<path d="M5.15821 19.9448L3.54208 19.9448C3.21646 19.9448 2.90876 19.7237 2.86305 19.4013C2.80739 19.0087 3.11102 18.6719 3.49289 18.6719L5.10266 18.6719C5.44796 18.6719 5.76952 18.9224 5.79055 19.2671C5.81389 19.6497 5.51138 19.9448 5.15821 19.9448Z" fill="white"/>
<path d="M2.85645 12.6803L2.85645 14.2179C2.85645 14.6054 3.17064 14.9196 3.55822 14.9196L6.43727 14.9196C6.82484 14.9196 7.13904 14.6054 7.13904 14.2178L7.13904 12.6803C7.13904 12.2927 6.82484 11.9785 6.43727 11.9785L3.55821 11.9785C3.17064 11.9785 2.85645 12.2927 2.85645 12.6803Z" fill="#FEBC1F"/>
<path d="M2.85645 12.4401L2.85645 13.9776C2.85645 14.3652 3.17064 14.6794 3.55822 14.6794L6.43727 14.6794C6.82484 14.6794 7.13904 14.3652 7.13904 13.9776V12.4401C7.13903 12.0525 6.82484 11.7383 6.43727 11.7383L3.55821 11.7383C3.17064 11.7383 2.85644 12.0525 2.85645 12.4401Z" fill="#FFD475"/>
<path d="M4.92316 13.0429V11.7383H4.58983V13.0429H2.85645V13.3763H3.80478V14.6794H4.13811V13.3763H5.63899V14.6794H5.97231V13.3763H7.13904V13.0429H4.92316Z" fill="#FEBC1F"/>
<path d="M19.8632 14.1933L17.9865 14.1933C17.8301 14.1933 17.6824 14.0872 17.6604 13.9323C17.6337 13.7438 17.7795 13.582 17.9629 13.582L19.8365 13.582C20.0023 13.582 20.1568 13.7024 20.1669 13.8679C20.1781 14.0516 20.0328 14.1933 19.8632 14.1933Z" fill="white"/>
<path d="M19.8634 12.8847L16.5685 12.8847C16.4122 12.8847 16.2644 12.7786 16.2424 12.6237C16.2157 12.4352 16.3615 12.2735 16.5449 12.2734L19.8367 12.2734C20.0025 12.2734 20.1569 12.3938 20.167 12.5593C20.1782 12.743 20.033 12.8847 19.8634 12.8847Z" fill="white"/>
<path d="M19.3633 5.75977C20.1477 6.76637 20.7888 7.86032 21.2801 9.03829C20.4945 8.03247 19.8557 6.93711 19.3633 5.75977Z" fill="white"/>
<path d="M4.74512 9.03871C5.88826 8.16399 7.11934 7.43216 8.43573 6.84961C7.29331 7.7255 6.0608 8.45494 4.74512 9.03871Z" fill="white"/>
<path d="M14.1855 21.4359C15.6149 21.2669 17.047 21.2654 18.4764 21.436C17.047 21.6065 15.6149 21.6051 14.1855 21.4359Z" fill="white"/>
</svg>
