<svg width="24" height="24" viewBox="0 0 24 24" fill="none" xmlns="http://www.w3.org/2000/svg">
<g id="arrowup">
<path id="Vector" d="M13.7307 12.0035L7.00631 5.53883C6.82116 5.36126 6.7193 5.12383 6.7193 4.87067C6.7193 4.61737 6.82116 4.38009 7.00631 4.20223L7.59554 3.63606C7.78041 3.45793 8.02753 3.35987 8.29087 3.35987C8.55422 3.35987 8.80104 3.45793 8.98606 3.63606L16.9926 11.3328C17.1783 11.5112 17.28 11.7497 17.2793 12.0031C17.28 12.2577 17.1785 12.4958 16.9926 12.6743L8.99351 20.3637C8.8085 20.5418 8.56167 20.6399 8.29818 20.6399C8.03484 20.6399 7.78801 20.5418 7.60286 20.3637L7.01377 19.7975C6.63045 19.429 6.63045 18.8291 7.01377 18.4608L13.7307 12.0035Z" fill="#FBB516"/>
</g>
</svg>
