<svg width="6" height="10" viewBox="0 0 6 10" fill="none" xmlns="http://www.w3.org/2000/svg">
<path id="Vector" d="M5.02442 4.9663C5.02536 5.05124 5.01005 5.13552 4.97939 5.21432C4.94872 5.29313 4.90331 5.36489 4.84573 5.42551L1.11855 9.3181C1.00158 9.44027 0.842405 9.5094 0.676054 9.5103C0.509704 9.51119 0.349799 9.44377 0.231517 9.32288C0.113236 9.20198 0.0462661 9.0375 0.0453413 8.86563C0.0444166 8.69375 0.109612 8.52857 0.226586 8.4064L3.51897 4.9744L0.196093 1.57799C0.0930913 1.45508 0.0387609 1.29655 0.0439595 1.13408C0.049158 0.971613 0.113503 0.81718 0.224135 0.701639C0.334766 0.586097 0.483537 0.517959 0.640718 0.510839C0.797899 0.503719 0.951912 0.558141 1.07198 0.663232L4.84084 4.51549C4.95689 4.63508 5.02282 4.79699 5.02442 4.9663Z" fill="#2B2B2B"/>
</svg>
