<svg width="24" height="24" viewBox="0 0 24 24" fill="none" xmlns="http://www.w3.org/2000/svg">
<g id="instagram 1">
<path id="Vector" d="M12.005 6.53105C8.9781 6.53105 6.53661 8.97309 6.53661 12.0007C6.53661 15.0282 8.9781 17.4702 12.005 17.4702C15.0319 17.4702 17.4734 15.0282 17.4734 12.0007C17.4734 8.97309 15.0319 6.53105 12.005 6.53105ZM12.005 15.5566C10.0489 15.5566 8.44982 13.9619 8.44982 12.0007C8.44982 10.0394 10.0442 8.4447 12.005 8.4447C13.9658 8.4447 15.5601 10.0394 15.5601 12.0007C15.5601 13.9619 13.961 15.5566 12.005 15.5566ZM18.9725 6.30732C18.9725 7.01661 18.4014 7.58308 17.697 7.58308C16.9879 7.58308 16.4216 7.01185 16.4216 6.30732C16.4216 5.60279 16.9927 5.03156 17.697 5.03156C18.4014 5.03156 18.9725 5.60279 18.9725 6.30732ZM22.5943 7.60212C22.5134 5.89317 22.1231 4.37939 20.8715 3.13219C19.6245 1.88499 18.1111 1.49464 16.4025 1.40896C14.6416 1.30899 9.3636 1.30899 7.60268 1.40896C5.89887 1.48988 4.38543 1.88023 3.13374 3.12743C1.88206 4.37463 1.49656 5.88841 1.4109 7.59736C1.31095 9.35868 1.31095 14.6379 1.4109 16.3992C1.4918 18.1081 1.88206 19.6219 3.13374 20.8691C4.38543 22.1163 5.89411 22.5067 7.60268 22.5923C9.3636 22.6923 14.6416 22.6923 16.4025 22.5923C18.1111 22.5114 19.6245 22.1211 20.8715 20.8691C22.1184 19.6219 22.5086 18.1081 22.5943 16.3992C22.6943 14.6379 22.6943 9.36344 22.5943 7.60212ZM20.3194 18.289C19.9482 19.222 19.2295 19.9409 18.292 20.3169C16.888 20.8739 13.5565 20.7453 12.005 20.7453C10.4535 20.7453 7.11724 20.8691 5.71802 20.3169C4.7852 19.9456 4.06656 19.2268 3.69058 18.289C3.13374 16.8847 3.26224 13.5525 3.26224 12.0007C3.26224 10.4488 3.1385 7.11181 3.69058 5.71228C4.0618 4.77926 4.78044 4.06045 5.71802 3.68439C7.12199 3.12743 10.4535 3.25596 12.005 3.25596C13.5565 3.25596 16.8927 3.13219 18.292 3.68439C19.2248 4.05569 19.9434 4.7745 20.3194 5.71228C20.8762 7.11657 20.7477 10.4488 20.7477 12.0007C20.7477 13.5525 20.8762 16.8895 20.3194 18.289Z" fill="#fff"/>
</g>
</svg>
