<svg width="24" height="24" viewBox="0 0 24 24" fill="none" xmlns="http://www.w3.org/2000/svg">
<g id="g2793">
<g id="g2795">
<path id="path2797" d="M17.0673 17.3689H9.48047" stroke="#242424" stroke-width="1.5" stroke-miterlimit="10" stroke-linecap="round" stroke-linejoin="round"/>
</g>
<g id="g2799">
<g id="Clip path group">
<mask id="mask0_5939_3065" style="mask-type:luminance" maskUnits="userSpaceOnUse" x="0" y="0" width="24" height="24">
<g id="clipPath2805">
<path id="path2803" d="M0 1.90735e-06H24V24H0V1.90735e-06Z" fill="white"/>
</g>
</mask>
<g mask="url(#mask0_5939_3065)">
<g id="g2801">
<g id="g2807">
<path id="path2809" d="M21.6862 17.3689H23.2968V12.4787L19.2633 8.3111H15.9629V8.31705V17.3245" stroke="#242424" stroke-width="1.5" stroke-miterlimit="10" stroke-linecap="round" stroke-linejoin="round"/>
</g>
<g id="g2815">
<path id="path2817" d="M5.6447 15.6681C6.50429 14.8085 7.89788 14.8085 8.75748 15.6681C9.61702 16.5277 9.61702 17.9215 8.75748 18.7811C7.89788 19.6407 6.50429 19.6407 5.6447 18.7811C4.7851 17.9215 4.7851 16.5277 5.6447 15.6681Z" stroke="#242424" stroke-width="1.5" stroke-miterlimit="10" stroke-linecap="round" stroke-linejoin="round"/>
</g>
<g id="g2819">
<path id="path2821" d="M17.9142 15.6681C18.7738 14.8085 20.1674 14.8085 21.027 15.6681C21.8866 16.5277 21.8866 17.9215 21.027 18.7811C20.1674 19.6407 18.7738 19.6407 17.9142 18.7811C17.0546 17.9215 17.0546 16.5277 17.9142 15.6681Z" stroke="#242424" stroke-width="1.5" stroke-miterlimit="10" stroke-linecap="round" stroke-linejoin="round"/>
</g>
<g id="g2823">
<path id="path2825" d="M2.92383 4.57434V17.3611H4.90987" stroke="#242424" stroke-width="1.5" stroke-miterlimit="10" stroke-linecap="round" stroke-linejoin="round"/>
</g>
<g id="g2827">
<path id="path2829" d="M15.9834 8.31689V4.57425H2.92383" stroke="#242424" stroke-width="1.5" stroke-miterlimit="10" stroke-linecap="round" stroke-linejoin="round"/>
</g>
<g id="g2831">
<path id="path2833" d="M7.80239 4.57446H2.92383" stroke="#242424" stroke-width="1.5" stroke-miterlimit="10" stroke-linecap="round" stroke-linejoin="round"/>
</g>
</g>
</g>
</g>
</g>
</g>
</svg>
