<svg width="24" height="24" viewBox="0 0 24 24" fill="none" xmlns="http://www.w3.org/2000/svg">
<g id="plus">
<path id="Vector" d="M19.1999 11.2H12.8V4.79995C12.8 4.35845 12.4416 4 11.9999 4C11.5584 4 11.2 4.35845 11.2 4.79995V11.2H4.79995C4.35845 11.2 4 11.5584 4 11.9999C4 12.4416 4.35845 12.8 4.79995 12.8H11.2V19.1999C11.2 19.6416 11.5584 20 11.9999 20C12.4416 20 12.8 19.6416 12.8 19.1999V12.8H19.1999C19.6416 12.8 20 12.4416 20 11.9999C20 11.5584 19.6416 11.2 19.1999 11.2Z" fill="#242424"/>
</g>
</svg>
