<svg width="22" height="22" viewBox="0 0 22 22" fill="none" xmlns="http://www.w3.org/2000/svg">
<g id="location">
<path id="Vector" d="M12.15 19.5513C13.895 17.3905 17.875 12.1536 17.875 9.21204C17.875 5.64445 14.9495 2.75 11.3438 2.75C7.73796 2.75 4.8125 5.64445 4.8125 9.21204C4.8125 12.1536 8.79248 17.3905 10.5375 19.5513C10.956 20.0662 11.7315 20.0662 12.15 19.5513ZM11.3438 11.366C10.143 11.366 9.16667 10.4001 9.16667 9.21204C9.16667 8.02396 10.143 7.05802 11.3438 7.05802C12.5445 7.05802 13.5208 8.02396 13.5208 9.21204C13.5208 10.4001 12.5445 11.366 11.3438 11.366Z" fill="#858584"/>
</g>
</svg>
