<svg width="24" height="24" viewBox="0 0 24 24" fill="none" xmlns="http://www.w3.org/2000/svg">
<path d="M16.9999 12.417C17.002 12.5774 16.9682 12.7366 16.9005 12.8854C16.8327 13.0343 16.7324 13.1698 16.6053 13.2843L8.37395 20.6369C8.11562 20.8677 7.76409 20.9983 7.39671 21C7.02933 21.0017 6.67619 20.8743 6.41497 20.646C6.15375 20.4176 6.00585 20.1069 6.00381 19.7823C6.00176 19.4576 6.14574 19.1456 6.40408 18.9149L13.6752 12.4323L6.33673 6.01688C6.10926 5.78472 5.98927 5.48528 6.00075 5.17839C6.01223 4.87151 6.15434 4.57981 6.39866 4.36157C6.64299 4.14332 6.97154 4.01462 7.31867 4.00117C7.6658 3.98772 8.00593 4.09052 8.2711 4.28902L16.5945 11.5654C16.8508 11.7913 16.9964 12.0972 16.9999 12.417Z" fill="white"/>
</svg>
