<svg width="28" height="28" viewBox="0 0 28 28" fill="none" xmlns="http://www.w3.org/2000/svg">
<g clip-path="url(#clip0_7342_149630)">
<path d="M19.6586 0H8.34135C3.74191 0 0 3.74191 0 8.34135V19.6586C0 24.2581 3.74191 28 8.34135 28H19.6586C24.2581 28 28 24.2581 28 19.6586V8.34135C28 3.74191 24.258 0 19.6586 0ZM25.1832 19.6586C25.1832 22.7097 22.7097 25.1832 19.6586 25.1832H8.34135C5.29025 25.1832 2.8168 22.7097 2.8168 19.6586V8.34135C2.8168 5.2902 5.29025 2.8168 8.34135 2.8168H19.6586C22.7097 2.8168 25.1832 5.2902 25.1832 8.34135V19.6586Z" fill="url(#paint0_linear_7342_149630)"/>
<path d="M13.9996 6.75781C10.0065 6.75781 6.75781 10.0065 6.75781 13.9996C6.75781 17.9926 10.0065 21.2414 13.9996 21.2414C17.9927 21.2414 21.2414 17.9927 21.2414 13.9996C21.2414 10.0064 17.9927 6.75781 13.9996 6.75781ZM13.9996 18.4246C11.5557 18.4246 9.57461 16.4435 9.57461 13.9996C9.57461 11.5557 11.5558 9.57461 13.9996 9.57461C16.4435 9.57461 18.4246 11.5557 18.4246 13.9996C18.4246 16.4434 16.4434 18.4246 13.9996 18.4246Z" fill="url(#paint1_linear_7342_149630)"/>
<path d="M21.2509 8.54869C22.2093 8.54869 22.9862 7.77178 22.9862 6.81341C22.9862 5.85504 22.2093 5.07812 21.2509 5.07812C20.2925 5.07812 19.5156 5.85504 19.5156 6.81341C19.5156 7.77178 20.2925 8.54869 21.2509 8.54869Z" fill="url(#paint2_linear_7342_149630)"/>
</g>
<defs>
<linearGradient id="paint0_linear_7342_149630" x1="14" y1="27.9185" x2="14" y2="0.217481" gradientUnits="userSpaceOnUse">
<stop stop-color="#E09B3D"/>
<stop offset="0.3" stop-color="#C74C4D"/>
<stop offset="0.6" stop-color="#C21975"/>
<stop offset="1" stop-color="#7024C4"/>
</linearGradient>
<linearGradient id="paint1_linear_7342_149630" x1="13.9996" y1="27.9181" x2="13.9996" y2="0.217091" gradientUnits="userSpaceOnUse">
<stop stop-color="#E09B3D"/>
<stop offset="0.3" stop-color="#C74C4D"/>
<stop offset="0.6" stop-color="#C21975"/>
<stop offset="1" stop-color="#7024C4"/>
</linearGradient>
<linearGradient id="paint2_linear_7342_149630" x1="21.2509" y1="27.9193" x2="21.2509" y2="0.218317" gradientUnits="userSpaceOnUse">
<stop stop-color="#E09B3D"/>
<stop offset="0.3" stop-color="#C74C4D"/>
<stop offset="0.6" stop-color="#C21975"/>
<stop offset="1" stop-color="#7024C4"/>
</linearGradient>
<clipPath id="clip0_7342_149630">
<rect width="28" height="28" fill="white"/>
</clipPath>
</defs>
</svg>
