<svg width="9" height="6" viewBox="0 0 9 6" fill="none" xmlns="http://www.w3.org/2000/svg">
<path id="Vector" d="M4.52054 5.49999C4.43559 5.50046 4.35139 5.48471 4.27276 5.45362C4.19412 5.42253 4.1226 5.37673 4.06229 5.31883L0.189811 1.57076C0.068277 1.45313 0 1.29359 0 1.12724C0 0.960882 0.068277 0.801342 0.189811 0.683713C0.311345 0.566084 0.47618 0.5 0.648054 0.5C0.819929 0.5 0.984764 0.566084 1.1063 0.683713L4.52054 3.99451L7.93477 0.68996C8.05824 0.587621 8.21706 0.534144 8.3795 0.540217C8.54193 0.54629 8.69602 0.611464 8.81096 0.722716C8.92591 0.833968 8.99324 0.983103 8.99952 1.14032C9.00579 1.29754 8.95054 1.45126 8.84481 1.57076L4.97232 5.31883C4.85211 5.43424 4.68985 5.4993 4.52054 5.49999Z" fill="white"/>
</svg>
