<svg width="24" height="24" viewBox="0 0 24 24" fill="none" xmlns="http://www.w3.org/2000/svg">
<g id="icon_eye_open">
<path id="Vector" d="M4.04591 5.38462C3.76561 5.16841 3.35862 5.21851 3.13761 5.49272C2.9166 5.76693 2.96781 6.16507 3.24812 6.38128L19.2041 18.6154C19.4844 18.8316 19.8914 18.7815 20.1124 18.5073C20.3334 18.2331 20.2822 17.8349 20.0019 17.6187L17.1665 15.4461C18.2338 14.3756 18.9561 13.176 19.32 12.3243C19.4089 12.116 19.4089 11.884 19.32 11.6757C18.9184 10.7344 18.0748 9.36334 16.8134 8.21903C15.5466 7.06417 13.8028 6.09388 11.625 6.09388C9.78683 6.09388 8.25592 6.78732 7.06192 7.69697L4.04591 5.38462ZM9.01329 9.19196C9.70058 8.57761 10.6197 8.20321 11.625 8.20321C13.7677 8.20321 15.5062 9.90385 15.5062 12C15.5062 12.6565 15.3364 13.2735 15.0372 13.8114L13.9968 13.0151C14.137 12.704 14.2125 12.3612 14.2125 12C14.2125 10.6026 13.0535 9.46881 11.625 9.46881C11.5495 9.46881 11.4741 9.47144 11.3986 9.47935C11.5414 9.72456 11.625 10.0093 11.625 10.3125C11.625 10.5815 11.5603 10.8346 11.4471 11.0587L9.01329 9.19196ZM15.0264 17.0492L13.0535 15.5305C12.6115 15.7019 12.129 15.7968 11.625 15.7968C9.48226 15.7968 7.74382 14.0961 7.74382 12C7.74382 11.8181 7.75729 11.6414 7.78155 11.4674L5.23992 9.50836C4.6254 10.2914 4.18607 11.0719 3.93002 11.6757C3.84107 11.884 3.84107 12.116 3.93002 12.3243C4.33161 13.2656 5.17523 14.6367 6.43661 15.781C7.70339 16.9358 9.44723 17.9061 11.625 17.9061C12.9133 17.9061 14.048 17.566 15.0264 17.0492Z" fill="#858584"/>
</g>
</svg>
