<svg width="24" height="24" viewBox="0 0 24 24" fill="none" xmlns="http://www.w3.org/2000/svg">
<g id="linkedin-in 1">
<path id="Vector" d="M7.4393 22.6673H3.01644V8.42414H7.4393V22.6673ZM5.22549 6.48124C3.81121 6.48124 2.66406 5.30979 2.66406 3.89547C2.66406 3.21612 2.93393 2.5646 3.41429 2.08423C3.89465 1.60385 4.54616 1.33398 5.22549 1.33398C5.90482 1.33398 6.55633 1.60385 7.03669 2.08423C7.51706 2.5646 7.78692 3.21612 7.78692 3.89547C7.78692 5.30979 6.6393 6.48124 5.22549 6.48124ZM23.9926 22.6673H19.5793V15.7338C19.5793 14.0814 19.546 11.9623 17.2798 11.9623C14.9803 11.9623 14.6279 13.7576 14.6279 15.6148V22.6673H10.2098V8.42414H14.4517V10.367H14.5136C15.1041 9.24797 16.5464 8.06699 18.6983 8.06699C23.1745 8.06699 23.9974 11.0147 23.9974 14.8433V22.6673H23.9926Z" fill="#fff"/>
</g>
</svg>
