<svg width="24" height="24" viewBox="0 0 24 24" fill="none" xmlns="http://www.w3.org/2000/svg">
<g clip-path="url(#clip0_7346_177753)">
<path d="M21.1528 22.0048H2.84489C1.86914 22.0048 1.07812 21.2138 1.07812 20.238V4.99333C1.07812 4.01758 1.86914 3.22656 2.84489 3.22656H21.1528C22.1285 3.22656 22.9195 4.01758 22.9195 4.99333V20.238C22.9195 21.2138 22.1285 22.0048 21.1528 22.0048Z" fill="url(#paint0_linear_7346_177753)"/>
<path d="M20.7418 21.5892H3.25052C2.31827 21.5892 1.5625 20.8334 1.5625 19.9012V5.33645C1.5625 4.4042 2.31822 3.64844 3.25052 3.64844H20.7418C21.674 3.64844 22.4298 4.40416 22.4298 5.33645V19.9012C22.4298 20.8335 21.6741 21.5892 20.7418 21.5892Z" fill="url(#paint1_linear_7346_177753)"/>
<path d="M21.7391 8.15862L17.3354 0.531309C17.0421 0.023231 16.3924 -0.150863 15.8843 0.142528L2 8.15862H21.7391Z" fill="url(#paint2_linear_7346_177753)"/>
<path d="M1.07812 14.2945H22.9195V8.50956C22.9195 7.77939 22.3276 7.1875 21.5975 7.1875H2.40019C1.67002 7.1875 1.07812 7.77939 1.07812 8.50956V14.2945Z" fill="url(#paint3_linear_7346_177753)"/>
<path d="M1.07812 12.1225V20.2398C1.07812 21.2156 1.86914 22.0067 2.84494 22.0067H21.1528C22.1285 22.0067 22.9195 21.2156 22.9195 20.2399V12.1225C22.9195 11.5198 22.431 11.0312 21.8283 11.0312H2.16938C1.5667 11.0312 1.07812 11.5198 1.07812 12.1225Z" fill="url(#paint4_linear_7346_177753)"/>
<path d="M19.625 7.9375V22.0085H21.1534C22.1291 22.0085 22.9201 21.2175 22.9201 20.2417V11.2326L19.625 7.9375Z" fill="url(#paint5_linear_7346_177753)"/>
<path d="M18.1346 23.9835L2.80242 22.2028C1.81955 22.0887 1.07812 21.2562 1.07812 20.2667V4.85938C1.07812 5.1905 1.32623 5.46903 1.65506 5.50723L18.5843 7.47345C19.5672 7.58764 20.3086 8.42009 20.3086 9.40958V22.0475C20.3086 23.213 19.2924 24.1181 18.1346 23.9835Z" fill="url(#paint6_linear_7346_177753)"/>
<path d="M18.1346 20.9121L2.80242 19.1314C1.81955 19.0173 1.07812 18.1848 1.07812 17.1953V20.2728C1.07812 21.2623 1.81955 22.0948 2.80242 22.209L18.1346 23.9897C19.2924 24.1241 20.3086 23.2191 20.3086 22.0535V18.976C20.3086 20.1416 19.2924 21.0466 18.1346 20.9121Z" fill="url(#paint7_linear_7346_177753)"/>
<path d="M2.45345 7.26743C2.4406 7.26743 2.42757 7.26668 2.41449 7.26527L1.71287 7.18812C1.51909 7.16679 1.37926 6.99251 1.40059 6.79877C1.42191 6.60504 1.59634 6.46535 1.78993 6.48649L2.49156 6.56365C2.68534 6.58497 2.82516 6.75926 2.80384 6.95299C2.78396 7.13369 2.63106 7.26743 2.45345 7.26743Z" fill="url(#paint8_linear_7346_177753)"/>
<path d="M16.8729 22.8265C16.8581 22.8265 16.843 22.8255 16.8279 22.8237L15.4642 22.6503C15.2709 22.6257 15.1341 22.449 15.1587 22.2556C15.1833 22.0623 15.3599 21.9262 15.5534 21.95L16.917 22.1234C17.1103 22.148 17.2472 22.3247 17.2226 22.5181C17.1998 22.6963 17.048 22.8265 16.8729 22.8265ZM18.2151 22.6518C18.0827 22.6518 17.9557 22.577 17.8956 22.4492C17.8125 22.2729 17.8881 22.0626 18.0644 21.9795C18.4225 21.8108 18.6918 21.5309 18.8033 21.2116C18.8676 21.0277 19.069 20.9307 19.2529 20.9948C19.4369 21.0591 19.534 21.2603 19.4698 21.4444C19.2936 21.9487 18.9014 22.3655 18.3653 22.6181C18.3167 22.6409 18.2655 22.6518 18.2151 22.6518ZM14.1456 22.4797C14.1308 22.4797 14.1157 22.4788 14.1006 22.4769L12.737 22.3035C12.5437 22.2789 12.4068 22.1022 12.4314 21.9088C12.456 21.7155 12.6327 21.5794 12.8261 21.6032L14.1898 21.7766C14.3831 21.8012 14.52 21.9779 14.4953 22.1713C14.4726 22.3495 14.3206 22.4797 14.1456 22.4797ZM11.4184 22.1329C11.4036 22.1329 11.3886 22.1319 11.3734 22.1301L10.0098 21.9567C9.81646 21.9321 9.67954 21.7554 9.7042 21.562C9.72881 21.3687 9.90552 21.2319 10.0989 21.2564L11.4625 21.4298C11.6558 21.4544 11.7928 21.6311 11.7681 21.8245C11.7454 22.0027 11.5934 22.1329 11.4184 22.1329ZM8.69109 21.7861C8.67627 21.7861 8.66123 21.7851 8.64609 21.7832L7.2824 21.6098C7.08904 21.5852 6.95216 21.4085 6.97682 21.2151C7.00143 21.0217 7.1782 20.8856 7.37151 20.9095L8.7352 21.083C8.92856 21.1076 9.06543 21.2842 9.04077 21.4777C9.01813 21.6559 8.86616 21.7861 8.69109 21.7861ZM5.96385 21.4393C5.94904 21.4393 5.93399 21.4383 5.91885 21.4364L4.55516 21.263C4.3618 21.2384 4.22493 21.0617 4.24959 20.8683C4.2742 20.6749 4.45096 20.5387 4.64427 20.5627L6.00796 20.7361C6.20132 20.7607 6.3382 20.9374 6.31354 21.1308C6.29085 21.3091 6.13893 21.4393 5.96385 21.4393ZM19.2157 20.3154C19.0208 20.3154 18.8628 20.1575 18.8628 19.9625V18.5879C18.8628 18.3929 19.0208 18.235 19.2157 18.235C19.4107 18.235 19.5687 18.3929 19.5687 18.5879V19.9625C19.5687 20.1575 19.4107 20.3154 19.2157 20.3154ZM19.2157 17.5663C19.0208 17.5663 18.8628 17.4083 18.8628 17.2133V15.8387C18.8628 15.6438 19.0208 15.4858 19.2157 15.4858C19.4107 15.4858 19.5687 15.6438 19.5687 15.8387V17.2133C19.5687 17.4082 19.4107 17.5663 19.2157 17.5663ZM19.2157 14.817C19.0208 14.817 18.8628 14.6591 18.8628 14.4641V13.0895C18.8628 12.8946 19.0208 12.7366 19.2157 12.7366C19.4107 12.7366 19.5687 12.8946 19.5687 13.0895V14.4641C19.5687 14.659 19.4107 14.817 19.2157 14.817ZM19.2157 12.0678C19.0208 12.0678 18.8628 11.9099 18.8628 11.7149V10.3403C18.8628 10.1453 19.0208 9.98737 19.2157 9.98737C19.4107 9.98737 19.5687 10.1453 19.5687 10.3403V11.7149C19.5687 11.9098 19.4107 12.0678 19.2157 12.0678ZM18.7221 9.45946C18.635 9.45946 18.5477 9.42735 18.4795 9.36271C18.2179 9.11484 17.8548 8.95692 17.4571 8.91796L17.4478 8.91698C17.2539 8.89612 17.1137 8.72207 17.1346 8.52829C17.1555 8.33446 17.3295 8.19421 17.5233 8.21517L17.5293 8.21582C18.079 8.26968 18.5901 8.49515 18.965 8.85032C19.1065 8.98439 19.1125 9.20779 18.9785 9.34931C18.909 9.42248 18.8157 9.45946 18.7221 9.45946ZM16.1195 8.76881C16.1067 8.76881 16.0936 8.76806 16.0806 8.76665L14.7142 8.61642C14.5205 8.59509 14.3806 8.42081 14.4019 8.22707C14.4232 8.03334 14.5977 7.89389 14.7913 7.91479L16.1576 8.06503C16.3514 8.08635 16.4912 8.26064 16.4699 8.45437C16.4501 8.63503 16.2971 8.76881 16.1195 8.76881ZM13.3868 8.46834C13.374 8.46834 13.361 8.46759 13.3479 8.46618L11.9815 8.31595C11.7877 8.29462 11.6479 8.12034 11.6692 7.92661C11.6905 7.73282 11.8652 7.59323 12.0585 7.61432L13.4249 7.76456C13.6187 7.78589 13.7586 7.96017 13.7372 8.1539C13.7174 8.3346 13.5644 8.46834 13.3868 8.46834ZM10.654 8.16792C10.6412 8.16792 10.6281 8.16717 10.6151 8.16576L9.24871 8.01553C9.05498 7.9942 8.9151 7.81992 8.93643 7.62618C8.95771 7.43245 9.13204 7.29286 9.32577 7.3139L10.6921 7.46414C10.8859 7.48546 11.0257 7.65975 11.0044 7.85348C10.9846 8.03414 10.8317 8.16792 10.654 8.16792ZM7.92126 7.8675C7.90841 7.8675 7.89538 7.86675 7.88231 7.86534L6.51595 7.7151C6.32216 7.69378 6.18234 7.5195 6.20366 7.32576C6.22495 7.13207 6.39909 6.99253 6.59301 7.01348L7.95937 7.16371C8.1531 7.18504 8.29298 7.35932 8.27165 7.55306C8.25187 7.73371 8.09891 7.8675 7.92126 7.8675ZM5.18849 7.56703C5.17565 7.56703 5.16262 7.56628 5.14954 7.56487L3.78318 7.41464C3.58945 7.39331 3.44957 7.21903 3.4709 7.02529C3.49223 6.8316 3.66641 6.69211 3.86024 6.71301L5.2266 6.86325C5.42038 6.88457 5.56021 7.05886 5.53888 7.25259C5.51905 7.43325 5.3661 7.56703 5.18849 7.56703Z" fill="url(#paint9_linear_7346_177753)"/>
<path d="M3.22559 21.0919C3.21078 21.0919 3.19578 21.0909 3.18064 21.089L2.48037 21C2.28701 20.9754 2.15009 20.7987 2.17475 20.6053C2.19931 20.412 2.37603 20.2752 2.56939 20.2997L3.26965 20.3887C3.46301 20.4133 3.59993 20.59 3.57528 20.7834C3.55259 20.9616 3.40062 21.0919 3.22559 21.0919Z" fill="url(#paint10_linear_7346_177753)"/>
<path d="M16.2022 2.62371L13.9434 3.85287C13.6492 4.01295 13.2809 3.90424 13.1207 3.61001C12.9607 3.31578 13.0694 2.94748 13.3636 2.78735L15.6225 1.55824C15.9167 1.39817 16.285 1.50687 16.4451 1.8011C16.6052 2.09529 16.4965 2.46364 16.2022 2.62371Z" fill="#61DB99"/>
<path d="M20.3089 17.052L18.0673 14.8104C17.751 14.466 17.2972 14.25 16.7928 14.25C15.8372 14.25 15.0625 15.0247 15.0625 15.9802C15.0625 16.4847 15.2785 16.9386 15.6229 17.2548L20.3089 21.9408V17.052H20.3089Z" fill="url(#paint11_linear_7346_177753)"/>
<path d="M16.7928 17.7105C17.7483 17.7105 18.523 16.9358 18.523 15.9802C18.523 15.0247 17.7483 14.25 16.7928 14.25C15.8372 14.25 15.0625 15.0247 15.0625 15.9802C15.0625 16.9358 15.8372 17.7105 16.7928 17.7105Z" fill="url(#paint12_linear_7346_177753)"/>
<path d="M16.7878 17.1772C17.4473 17.1772 17.9819 16.6426 17.9819 15.9832C17.9819 15.3237 17.4473 14.7891 16.7878 14.7891C16.1284 14.7891 15.5938 15.3237 15.5938 15.9832C15.5938 16.6426 16.1284 17.1772 16.7878 17.1772Z" fill="url(#paint13_linear_7346_177753)"/>
<path d="M16.3408 15.7754C16.4773 15.7754 16.5879 15.6648 16.5879 15.5283C16.5879 15.3919 16.4773 15.2812 16.3408 15.2812C16.2044 15.2812 16.0938 15.3919 16.0938 15.5283C16.0938 15.6648 16.2044 15.7754 16.3408 15.7754Z" fill="url(#paint14_linear_7346_177753)"/>
<path d="M17.2471 15.7754C17.3835 15.7754 17.4942 15.6648 17.4942 15.5283C17.4942 15.3919 17.3835 15.2812 17.2471 15.2812C17.1106 15.2812 17 15.3919 17 15.5283C17 15.6648 17.1106 15.7754 17.2471 15.7754Z" fill="url(#paint15_linear_7346_177753)"/>
<path d="M16.3408 16.6817C16.4773 16.6817 16.5879 16.571 16.5879 16.4346C16.5879 16.2981 16.4773 16.1875 16.3408 16.1875C16.2044 16.1875 16.0938 16.2981 16.0938 16.4346C16.0938 16.571 16.2044 16.6817 16.3408 16.6817Z" fill="url(#paint16_linear_7346_177753)"/>
<path d="M17.2471 16.6817C17.3835 16.6817 17.4942 16.571 17.4942 16.4346C17.4942 16.2981 17.3835 16.1875 17.2471 16.1875C17.1106 16.1875 17 16.2981 17 16.4346C17 16.571 17.1106 16.6817 17.2471 16.6817Z" fill="url(#paint17_linear_7346_177753)"/>
</g>
<defs>
<linearGradient id="paint0_linear_7346_177753" x1="12.3557" y1="2.14419" x2="12.2282" y2="5.88321" gradientUnits="userSpaceOnUse">
<stop stop-color="#FFB92D"/>
<stop offset="1" stop-color="#F59500"/>
</linearGradient>
<linearGradient id="paint1_linear_7346_177753" x1="12.9645" y1="4.62998" x2="12.6172" y2="7.49438" gradientUnits="userSpaceOnUse">
<stop stop-color="#FFB92D"/>
<stop offset="1" stop-color="#F59500"/>
</linearGradient>
<linearGradient id="paint2_linear_7346_177753" x1="11.8693" y1="4.71242" x2="11.8693" y2="6.89449" gradientUnits="userSpaceOnUse">
<stop stop-color="#A7F3CE"/>
<stop offset="1" stop-color="#61DB99"/>
</linearGradient>
<linearGradient id="paint3_linear_7346_177753" x1="11.9986" y1="8.48698" x2="11.9986" y2="14.6101" gradientUnits="userSpaceOnUse">
<stop stop-color="#FF4C54"/>
<stop offset="1" stop-color="#BE3F45"/>
</linearGradient>
<linearGradient id="paint4_linear_7346_177753" x1="11.9986" y1="13.0374" x2="11.9986" y2="22.4941" gradientUnits="userSpaceOnUse">
<stop stop-color="#FF4C54"/>
<stop offset="1" stop-color="#BE3F45"/>
</linearGradient>
<linearGradient id="paint5_linear_7346_177753" x1="21.6776" y1="14.9732" x2="20.0842" y2="14.9732" gradientUnits="userSpaceOnUse">
<stop stop-color="#BE3F45" stop-opacity="0"/>
<stop offset="1" stop-color="#BE3F45"/>
</linearGradient>
<linearGradient id="paint6_linear_7346_177753" x1="7.42664" y1="13.3316" x2="15.5323" y2="17.0706" gradientUnits="userSpaceOnUse">
<stop stop-color="#FFB92D"/>
<stop offset="1" stop-color="#F59500"/>
</linearGradient>
<linearGradient id="paint7_linear_7346_177753" x1="10.4349" y1="21.6628" x2="10.0999" y2="24.2237" gradientUnits="userSpaceOnUse">
<stop stop-color="#BE3F45" stop-opacity="0"/>
<stop offset="1" stop-color="#BE3F45"/>
</linearGradient>
<linearGradient id="paint8_linear_7346_177753" x1="2.10214" y1="6.4847" x2="2.10214" y2="22.8613" gradientUnits="userSpaceOnUse">
<stop stop-color="#FFF465"/>
<stop offset="1" stop-color="#FFE600"/>
</linearGradient>
<linearGradient id="paint9_linear_7346_177753" x1="11.5185" y1="6.48439" x2="11.5185" y2="22.8266" gradientUnits="userSpaceOnUse">
<stop stop-color="#FFF465"/>
<stop offset="1" stop-color="#FFE600"/>
</linearGradient>
<linearGradient id="paint10_linear_7346_177753" x1="2.87492" y1="6.48333" x2="2.87492" y2="22.8595" gradientUnits="userSpaceOnUse">
<stop stop-color="#FFF465"/>
<stop offset="1" stop-color="#FFE600"/>
</linearGradient>
<linearGradient id="paint11_linear_7346_177753" x1="19.1018" y1="18.2898" x2="14.2529" y2="13.441" gradientUnits="userSpaceOnUse">
<stop stop-color="#BE3F45" stop-opacity="0"/>
<stop offset="1" stop-color="#BE3F45"/>
</linearGradient>
<linearGradient id="paint12_linear_7346_177753" x1="16.7924" y1="14.8943" x2="16.7924" y2="17.3964" gradientUnits="userSpaceOnUse">
<stop stop-color="#FF4C54"/>
<stop offset="1" stop-color="#BE3F45"/>
</linearGradient>
<linearGradient id="paint13_linear_7346_177753" x1="16.7875" y1="16.733" x2="16.7875" y2="15.0064" gradientUnits="userSpaceOnUse">
<stop stop-color="#FF4C54"/>
<stop offset="1" stop-color="#BE3F45"/>
</linearGradient>
<linearGradient id="paint14_linear_7346_177753" x1="13.9987" y1="5.1866" x2="14.4928" y2="7.36867" gradientUnits="userSpaceOnUse">
<stop stop-color="#A7F3CE"/>
<stop offset="1" stop-color="#61DB99"/>
</linearGradient>
<linearGradient id="paint15_linear_7346_177753" x1="14.9049" y1="5.1867" x2="15.399" y2="7.36877" gradientUnits="userSpaceOnUse">
<stop stop-color="#A7F3CE"/>
<stop offset="1" stop-color="#61DB99"/>
</linearGradient>
<linearGradient id="paint16_linear_7346_177753" x1="13.8031" y1="5.22936" x2="14.2972" y2="7.41143" gradientUnits="userSpaceOnUse">
<stop stop-color="#A7F3CE"/>
<stop offset="1" stop-color="#61DB99"/>
</linearGradient>
<linearGradient id="paint17_linear_7346_177753" x1="14.7094" y1="5.22946" x2="15.2035" y2="7.41154" gradientUnits="userSpaceOnUse">
<stop stop-color="#A7F3CE"/>
<stop offset="1" stop-color="#61DB99"/>
</linearGradient>
<clipPath id="clip0_7346_177753">
<rect width="24" height="24" fill="white"/>
</clipPath>
</defs>
</svg>
