<svg width="20" height="22" viewBox="0 0 20 22" fill="none" xmlns="http://www.w3.org/2000/svg">
<path id="Vector" d="M13.6949 11.7096C14.6753 10.9383 15.3909 9.88056 15.7421 8.68358C16.0933 7.4866 16.0628 6.2099 15.6546 5.0311C15.2465 3.85231 14.4811 2.83003 13.4649 2.10649C12.4487 1.38296 11.2323 0.994141 9.98486 0.994141C8.73741 0.994141 7.52097 1.38296 6.50479 2.10649C5.48861 2.83003 4.7232 3.85231 4.31507 5.0311C3.90694 6.2099 3.87637 7.4866 4.22762 8.68358C4.57887 9.88056 5.29447 10.9383 6.27486 11.7096C4.59494 12.3827 3.12915 13.499 2.03375 14.9396C0.938358 16.3801 0.254423 18.0909 0.05486 19.8896C0.0404146 20.021 0.0519765 20.1538 0.0888854 20.2807C0.125794 20.4075 0.187327 20.5259 0.269971 20.629C0.436879 20.8371 0.679644 20.9705 0.94486 20.9996C1.21008 21.0288 1.47602 20.9514 1.68419 20.7845C1.89235 20.6176 2.02569 20.3749 2.05486 20.1096C2.27444 18.1548 3.20655 16.3494 4.67308 15.0384C6.13961 13.7274 8.03776 13.0027 10.0049 13.0027C11.972 13.0027 13.8701 13.7274 15.3366 15.0384C16.8032 16.3494 17.7353 18.1548 17.9549 20.1096C17.982 20.3554 18.0993 20.5823 18.284 20.7467C18.4686 20.911 18.7076 21.0011 18.9549 20.9996H19.0649C19.327 20.9695 19.5666 20.8369 19.7314 20.6309C19.8963 20.4248 19.973 20.162 19.9449 19.8996C19.7444 18.0958 19.0567 16.3806 17.9557 14.9378C16.8547 13.4951 15.3818 12.3791 13.6949 11.7096ZM9.98486 10.9996C9.19374 10.9996 8.42038 10.765 7.76258 10.3255C7.10478 9.88599 6.59209 9.26128 6.28934 8.53037C5.98659 7.79947 5.90738 6.9952 6.06172 6.21928C6.21606 5.44335 6.59702 4.73062 7.15643 4.17121C7.71584 3.6118 8.42858 3.23084 9.2045 3.0765C9.98042 2.92215 10.7847 3.00137 11.5156 3.30412C12.2465 3.60687 12.8712 4.11956 13.3107 4.77736C13.7503 5.43515 13.9849 6.20851 13.9849 6.99964C13.9849 8.0605 13.5634 9.07792 12.8133 9.82806C12.0631 10.5782 11.0457 10.9996 9.98486 10.9996Z" fill="#2B2B2B"/>
</svg>
