<svg width="28" height="28" viewBox="0 0 28 28" fill="none" xmlns="http://www.w3.org/2000/svg">
<path d="M19.3835 0C19.4487 0 19.5139 0 19.5827 0C19.7426 1.97462 18.9889 3.45005 18.0729 4.51851C17.1741 5.57959 15.9433 6.6087 13.9527 6.45255C13.8199 4.50621 14.5749 3.14021 15.4896 2.07421C16.338 1.08075 17.8933 0.196724 19.3835 0Z" fill="black"/>
<path d="M25.4133 20.5508C25.4133 20.5705 25.4133 20.5877 25.4133 20.6061C24.8539 22.3004 24.0559 23.7525 23.0821 25.1001C22.1932 26.3234 21.1038 27.9698 19.1587 27.9698C17.478 27.9698 16.3615 26.889 14.639 26.8595C12.8168 26.83 11.8148 27.7632 10.1488 27.9981C9.95818 27.9981 9.7676 27.9981 9.58071 27.9981C8.35733 27.821 7.37002 26.8521 6.65075 25.9792C4.52982 23.3996 2.89086 20.0676 2.58594 15.8036C2.58594 15.3856 2.58594 14.9688 2.58594 14.5507C2.71504 11.499 4.19785 9.01786 6.16878 7.81539C7.20896 7.17603 8.63889 6.63135 10.2311 6.8748C10.9135 6.98054 11.6107 7.21415 12.2217 7.4453C12.8008 7.66784 13.525 8.06252 14.2111 8.04162C14.6759 8.0281 15.1382 7.78588 15.6066 7.61497C16.9788 7.11948 18.3239 6.55143 20.0968 6.81824C22.2276 7.14038 23.7399 8.08711 24.6744 9.54779C22.8719 10.6949 21.4469 12.4237 21.6903 15.3757C21.9067 18.0573 23.4658 19.6262 25.4133 20.5508Z" fill="black"/>
</svg>
