<svg width="24" height="24" viewBox="0 0 24 24" fill="none" xmlns="http://www.w3.org/2000/svg">
<path d="M10.2693 11.9965L16.9937 18.4612C17.1788 18.6387 17.2807 18.8762 17.2807 19.1293C17.2807 19.3826 17.1788 19.6199 16.9937 19.7978L16.4045 20.3639C16.2196 20.5421 15.9725 20.6401 15.7091 20.6401C15.4458 20.6401 15.199 20.5421 15.0139 20.3639L7.0074 12.6672C6.8217 12.4888 6.72 12.2503 6.7207 11.9969C6.72 11.7423 6.8215 11.5042 7.0074 11.3257L15.0065 3.63631C15.1915 3.45821 15.4383 3.36011 15.7018 3.36011C15.9652 3.36011 16.212 3.45821 16.3971 3.63631L16.9862 4.20251C17.3696 4.57101 17.3696 5.17091 16.9862 5.53921L10.2693 11.9965Z" fill="#FBB516"/>
</svg>
