<svg width="24" height="24" viewBox="0 0 24 24" fill="none" xmlns="http://www.w3.org/2000/svg">
<path d="M18.3282 12.2949V10.2383C18.3282 7.23812 16.334 4.69527 13.6016 3.86473V2.93359C13.6016 1.86741 12.7342 1 11.668 1C10.6018 1 9.73443 1.86741 9.73443 2.93359V3.86473C7.00204 4.69527 5.00786 7.23807 5.00786 10.2383V12.2949C5.00786 14.9302 4.00334 17.4291 2.17936 19.3312C2.00061 19.5176 1.95038 19.7927 2.0517 20.0302C2.15302 20.2677 2.38634 20.4219 2.64458 20.4219H8.5102C8.80961 21.8911 10.1117 23 11.668 23C13.2243 23 14.5264 21.8911 14.8258 20.4219H20.6915C20.9497 20.4219 21.183 20.2677 21.2843 20.0302C21.3856 19.7927 21.3354 19.5176 21.1567 19.3312C19.3327 17.4291 18.3282 14.9302 18.3282 12.2949ZM11.0235 2.93359C11.0235 2.5782 11.3126 2.28906 11.668 2.28906C12.0234 2.28906 12.3126 2.5782 12.3126 2.93359V3.60941C12.1004 3.58895 11.8854 3.57812 11.668 3.57812C11.4506 3.57812 11.2356 3.58895 11.0235 3.60941V2.93359ZM11.668 21.7109C10.8278 21.7109 10.1113 21.1721 9.84528 20.4219H13.4908C13.2247 21.1721 12.5083 21.7109 11.668 21.7109ZM4.03376 19.1328C5.50162 17.1652 6.29693 14.784 6.29693 12.2949V10.2383C6.29693 7.27666 8.7064 4.86719 11.668 4.86719C14.6296 4.86719 17.0391 7.27666 17.0391 10.2383V12.2949C17.0391 14.784 17.8344 17.1652 19.3023 19.1328H4.03376Z" fill="#2B2B2B"/>
<path d="M20.0472 10.2384C20.0472 10.5943 20.3358 10.8829 20.6917 10.8829C21.0477 10.8829 21.3363 10.5943 21.3363 10.2384C21.3363 7.65593 20.3306 5.22807 18.5046 3.40202C18.2529 3.15036 17.8448 3.15031 17.5931 3.40202C17.3414 3.65373 17.3414 4.06181 17.5931 4.31352C19.1757 5.8961 20.0472 8.00024 20.0472 10.2384Z" fill="#2B2B2B"/>
<path d="M2.64453 10.8829C3.00048 10.8829 3.28906 10.5943 3.28906 10.2383C3.28906 8.00025 4.16064 5.89612 5.74318 4.31354C5.99489 4.06183 5.99489 3.65375 5.74318 3.40204C5.49151 3.15033 5.08339 3.15033 4.83168 3.40204C3.00564 5.22808 2 7.6559 2 10.2383C2 10.5943 2.28858 10.8829 2.64453 10.8829Z" fill="#2B2B2B"/>
</svg>
