<svg width="56" height="89" viewBox="0 0 56 89" fill="none" xmlns="http://www.w3.org/2000/svg">
<g id="Group">
<g id="Group_2">
<g id="Group_3">
<path id="Vector" d="M21.771 41.7201C17.431 34.1101 15.151 25.5001 15.151 16.7501V5.83008H8.87102V16.7501C8.87102 25.5101 6.59103 34.1201 2.25103 41.7201C0.601028 44.6201 -0.168973 47.9301 0.0310271 51.2601L2.18102 85.9501C2.18102 85.9601 2.18102 85.9601 2.18102 85.9701C2.18102 87.0601 6.58104 87.9501 12.011 87.9501C17.431 87.9501 21.821 87.0701 21.831 85.9701H21.841L23.991 51.2601C24.191 47.9301 23.421 44.6101 21.771 41.7201Z" fill="#F9A12D"/>
</g>
<g id="Group_4">
<path id="Vector_2" d="M18.0731 51.4199H5.95312V73.6999H18.0731V51.4199Z" fill="#C63205"/>
</g>
<g id="Group_5">
<path id="Vector_3" d="M4.36719 49.8398V75.2798H19.6472V49.8398H4.36719ZM18.0672 73.6999H5.9472V51.4199H18.0672V73.6999Z" fill="#56261B"/>
</g>
<g id="Group_6">
<path id="Vector_4" d="M7.27344 55.7109V69.4109H16.7434V55.7109H7.27344ZM15.8934 68.5609H8.13345V56.5609H15.8934V68.5609Z" fill="#56261B"/>
</g>
<g id="Group_7">
<path id="Vector_5" d="M1.85156 80.5396L2.19157 85.9496C2.19157 85.9596 2.19157 85.9595 2.19157 85.9695C2.19157 87.0595 6.59156 87.9496 12.0216 87.9496C17.4416 87.9496 21.8316 87.0695 21.8416 85.9695H21.8516L22.1916 80.5195C20.8716 81.3395 16.8216 81.9295 12.0216 81.9295C7.22156 81.9395 3.18156 81.3496 1.85156 80.5396Z" fill="#F98B06"/>
</g>
<g id="Group_8" opacity="0.1">
<path id="Vector_6" d="M3.17969 81.25L3.38968 85.09V85.1C3.36968 85.88 7.24968 86.51 12.0497 86.51C16.8397 86.51 20.7397 85.88 20.7697 85.11H20.7797L21.1597 81.25C19.9797 81.83 16.3897 82.25 12.1497 82.25C7.91969 82.24 4.34969 81.82 3.17969 81.25Z" fill="#663224"/>
</g>
<g id="Group_9">
<path id="Vector_7" d="M15.2025 19.1001L15.1425 5.83008C14.4125 5.94008 13.2825 6.0101 12.0025 6.0101C10.7225 6.0101 9.60249 5.94008 8.86249 5.83008L8.8125 19.1001C9.5425 19.2101 10.7225 19.3001 12.0025 19.3001C13.2925 19.2901 14.4725 19.2101 15.2025 19.1001Z" fill="#C63205"/>
</g>
<g id="Group_10">
<path id="Vector_8" d="M23.1794 44.9199C22.8194 43.8099 22.3494 42.7398 21.7694 41.7198C21.1894 40.6998 20.6494 39.6498 20.1394 38.5898C18.0494 39.2198 15.2094 39.9799 11.9694 39.9799C8.92938 39.9799 6.06937 39.3198 3.83937 38.7098C3.34937 39.7298 2.81938 40.7398 2.25938 41.7198C1.67938 42.7298 1.21938 43.7999 0.859375 44.8899C3.20937 44.2099 7.29939 43.7599 11.9794 43.7599C16.6994 43.7599 20.8394 44.2199 23.1794 44.9199Z" fill="#F98B06"/>
</g>
<g id="Group_11">
<g id="Group_12">
<g id="Group_13">
<g id="Group_14">
<path id="Vector_9" d="M9.84906 63.8907L9.38904 63.0207H9.08905V63.8907H8.53906V61.4707H9.40906C9.91906 61.4707 10.3391 61.6507 10.3391 62.2207C10.3391 62.5807 10.1691 62.8007 9.90906 62.9207L10.4491 63.8907H9.84906ZM9.08905 62.5807H9.36905C9.65905 62.5807 9.80905 62.4607 9.80905 62.2207C9.80905 61.9807 9.64905 61.9007 9.36905 61.9007H9.08905V62.5807Z" fill="white"/>
<path id="Vector_10" d="M10.8125 61.4707H11.3525V62.8207C11.3525 63.2907 11.5025 63.4607 11.7725 63.4607C12.0425 63.4607 12.2025 63.3007 12.2025 62.8207V61.4707H12.7325V62.7707C12.7325 63.5807 12.4025 63.9407 11.7725 63.9407C11.1425 63.9407 10.8125 63.5907 10.8125 62.7707V61.4707Z" fill="white"/>
<path id="Vector_11" d="M13.2678 61.4707H13.8478L14.2478 62.5607L14.3878 62.9807H14.3978L14.5378 62.5607L14.9278 61.4707H15.5078V63.8907H14.9978V63.0007C14.9978 62.7607 15.0378 62.4107 15.0678 62.1807H15.0578L14.8578 62.7407L14.4778 63.6807H14.2578L13.8878 62.7407L13.6978 62.1807H13.6878C13.7178 62.4107 13.7578 62.7707 13.7578 63.0007V63.8907H13.2578V61.4707H13.2678Z" fill="white"/>
</g>
</g>
</g>
</g>
<g id="Group_15" opacity="0.5">
<path id="Vector_12" d="M15.8928 56.5605H8.13281V60.2606H15.8928V56.5605Z" fill="#56261B"/>
</g>
<g id="Group_16" opacity="0.5">
<path id="Vector_13" d="M15.8928 64.8711H8.13281V68.5711H15.8928V64.8711Z" fill="#56261B"/>
</g>
<g id="Group_17">
<path id="Vector_14" d="M12.0103 66.0605L12.2203 66.4905L12.6903 66.5605L12.3503 66.9005L12.4303 67.3705L12.0103 67.1406L11.5803 67.3705L11.6703 66.9005L11.3203 66.5605L11.8003 66.4905L12.0103 66.0605Z" fill="#C63205"/>
</g>
<g id="Group_18">
<path id="Vector_15" d="M13.8072 66.0605L14.0172 66.4905L14.4872 66.5605L14.1472 66.9005L14.2272 67.3705L13.8072 67.1406L13.3872 67.3705L13.4672 66.9005L13.1172 66.5605L13.5972 66.4905L13.8072 66.0605Z" fill="#C63205"/>
</g>
<g id="Group_19">
<path id="Vector_16" d="M10.1644 66.0605L10.3744 66.4905L10.8544 66.5605L10.5144 66.9005L10.5944 67.3705L10.1644 67.1406L9.74435 67.3705L9.82437 66.9005L9.48438 66.5605L9.95438 66.4905L10.1644 66.0605Z" fill="#C63205"/>
</g>
<g id="Group_20">
<path id="Vector_17" d="M13.3922 57.6205C13.3322 57.6205 13.2722 57.6704 13.2722 57.7404C13.2722 57.7604 13.2822 57.7804 13.2922 57.8004L12.4522 58.3705L12.0522 57.2104C12.1022 57.1904 12.1322 57.1505 12.1322 57.1005C12.1322 57.0405 12.0822 56.9805 12.0122 56.9805C11.9522 56.9805 11.8922 57.0305 11.8922 57.1005C11.8922 57.1505 11.9222 57.1904 11.9722 57.2104L11.5722 58.3705L10.7222 57.7905C10.7322 57.7705 10.7322 57.7604 10.7322 57.7404C10.7322 57.6804 10.6822 57.6205 10.6122 57.6205C10.5522 57.6205 10.4922 57.6704 10.4922 57.7404C10.4922 57.8004 10.5422 57.8604 10.6122 57.8604C10.6322 57.8604 10.6522 57.8505 10.6722 57.8405L10.8622 58.1505C11.1422 58.6005 11.3322 59.1005 11.4022 59.6205H12.6022C12.6722 59.1005 12.8622 58.6005 13.1422 58.1505L13.3322 57.8505C13.3422 57.8605 13.3622 57.8604 13.3722 57.8604C13.4322 57.8604 13.4922 57.8104 13.4922 57.7404C13.5022 57.6804 13.4522 57.6205 13.3922 57.6205Z" fill="#C63205"/>
</g>
<g id="Group_21">
<path id="Vector_18" d="M15.541 0.369141C15.541 0.569141 13.9609 0.739136 12.0009 0.739136C10.0509 0.739136 8.46094 0.569141 8.46094 0.369141V7.05914H8.47095C8.47095 7.05914 8.46094 7.05915 8.46094 7.06915C8.46094 7.26915 10.0409 7.43915 12.0009 7.43915C13.9509 7.43915 15.541 7.26915 15.541 7.06915C15.541 7.06915 15.5309 7.06914 15.5309 7.05914H15.541V0.369141Z" fill="#56261B"/>
</g>
<g id="Group_22">
<path id="Vector_19" d="M12.0088 0C10.0588 0 8.46875 0.169995 8.46875 0.369995C8.46875 0.569995 10.0488 0.73999 12.0088 0.73999C13.9588 0.73999 15.5487 0.569995 15.5487 0.369995C15.5487 0.169995 13.9588 0 12.0088 0Z" fill="#C63205"/>
</g>
<g id="Group_23" opacity="0.2">
<path id="Vector_20" d="M9.9003 7.36044C9.4703 7.33044 9.1203 7.28047 8.8703 7.23047L8.82031 19.0905C9.55031 19.2005 9.9003 19.2205 9.9003 19.2205V7.36044Z" fill="#56261B"/>
</g>
<g id="Group_24" opacity="0.5">
<path id="Vector_21" d="M14.1194 19.2205C14.1194 19.2205 14.4694 19.2105 15.1994 19.1005L15.1394 7.23047C14.8894 7.28047 14.5394 7.32044 14.1094 7.36044V19.2205H14.1194Z" fill="#56261B"/>
</g>
<g id="Group_25" opacity="0.3">
<path id="Vector_22" d="M12.7291 7.42969C12.4991 7.42969 12.2591 7.4397 12.0091 7.4397C11.7591 7.4397 11.5191 7.43969 11.2891 7.42969V19.2797C11.4891 19.2897 11.7091 19.2897 12.0091 19.2897C12.2991 19.2897 12.5491 19.2897 12.7291 19.2797V7.42969Z" fill="#56261B"/>
</g>
<g id="Group_26">
<path id="Vector_23" d="M12.0103 18.2293C10.7303 18.2293 9.56031 18.1393 8.82031 18.0293V19.0893C9.55031 19.1993 10.7303 19.2893 12.0103 19.2893C13.2903 19.2893 14.4703 19.2093 15.2003 19.0993V18.0393C14.4603 18.1493 13.2803 18.2293 12.0103 18.2293Z" fill="#56261B"/>
</g>
<g id="Group_27" opacity="0.1">
<g id="Group_28">
<path id="Vector_24" d="M10.5203 6.31039C10.2603 4.79039 10.2603 3.22041 10.5203 1.70041C10.5403 1.58041 10.5603 1.43039 10.4703 1.34039C10.4103 1.27039 10.3003 1.25039 10.2103 1.24039C9.8203 1.18039 9.21031 0.960391 8.82031 0.900391C8.82031 0.900391 8.90031 4.45038 8.94031 6.05038C8.94031 6.20038 8.95029 6.36039 9.02029 6.49039C9.17029 6.77039 9.54029 6.8404 9.86029 6.8804C10.1003 6.9104 10.3903 6.9004 10.5003 6.6904C10.5603 6.5704 10.5403 6.44039 10.5203 6.31039Z" fill="white"/>
</g>
</g>
<g id="Group_29">
<path id="Vector_25" d="M15.0694 1.10039C15.0694 1.03039 15.0594 0.950396 14.9994 0.920396C14.9594 0.890396 14.9094 0.900386 14.8594 0.910386C14.4194 0.980386 13.9694 1.06039 13.5294 1.13039C12.8394 1.23039 12.3894 1.25038 11.8594 1.15038C12.1594 1.60038 12.6994 1.83038 13.0794 2.22038C13.8194 2.98038 13.8294 4.18039 13.6894 5.23039C13.6394 5.60039 13.5594 6.00037 13.2894 6.27037C13.0094 6.55037 12.5794 6.62039 12.2894 6.88039C13.0294 6.97039 13.7794 6.96038 14.5094 6.84038C14.7194 6.81038 14.9494 6.75038 15.0394 6.56038C15.0894 6.46038 15.0894 6.34039 15.0894 6.23039C15.0894 4.53039 15.0794 2.81039 15.0694 1.10039Z" fill="#491A12"/>
</g>
<g id="Group_30">
<g id="Group_31" opacity="0.2">
<g id="Group_32">
<path id="Vector_26" d="M10.1173 8.61915C10.0873 8.35915 10.0473 8.07916 9.86726 7.87916C9.70726 7.70916 9.42725 7.67916 9.26725 7.81916C9.13725 8.70916 9.19726 14.9092 9.33726 17.0992C9.34726 17.2392 9.35727 17.3892 9.44727 17.4992C9.52727 17.6091 9.70726 17.6592 9.80726 17.5692C9.85726 17.5192 9.87725 17.4492 9.89725 17.3792C10.5973 14.5192 10.4573 11.5291 10.1173 8.61915Z" fill="white"/>
</g>
</g>
</g>
<g id="Group_33" opacity="0.5">
<g id="Group_34">
<path id="Vector_27" d="M14.9144 7.43945C14.2344 7.51945 13.5544 7.59946 12.8744 7.66946C12.8444 7.66946 12.8144 7.67945 12.7844 7.68945C12.6744 7.74945 12.7444 7.90944 12.8044 8.01944C13.5744 9.18944 13.6644 10.6694 13.6944 12.0594C13.7344 13.5794 13.7244 15.0994 13.6844 16.6194C13.6744 17.0894 13.6244 17.6195 13.2344 17.8895C13.6544 17.8795 14.0744 17.8395 14.4944 17.7895C14.5744 17.7795 14.6644 17.7594 14.7144 17.7094C14.7744 17.6494 14.7844 17.5494 14.7844 17.4594C14.9744 14.0694 14.9144 7.43945 14.9144 7.43945Z" fill="#56261B"/>
</g>
</g>
<g id="Group_35" opacity="0.5">
<g id="Group_36">
<path id="Vector_28" d="M11.0522 40.2004C10.0122 34.9804 9.60218 29.6304 9.83218 24.3104C9.89218 22.9804 9.9922 21.6404 9.8822 20.3104L9.7222 20.1504C9.3322 27.2804 7.37221 34.3204 4.01221 40.6304C3.68221 41.2504 3.33219 41.8904 3.24219 42.5904C5.59219 42.3104 7.94219 42.0204 10.3022 41.7404C10.4522 41.7204 10.5922 41.7004 10.7222 41.6404C11.1922 41.3804 11.1522 40.7104 11.0522 40.2004Z" fill="#FFD03B"/>
</g>
</g>
<g id="Group_37" opacity="0.5">
<g id="Group_38">
<path id="Vector_29" d="M8.33247 30.8807C7.18247 33.8307 6.18249 36.8407 5.35249 39.8907C5.25249 40.2607 5.18248 40.7307 5.47248 40.9807C5.72248 41.1907 6.13248 41.1007 6.37248 40.8807C6.61248 40.6507 6.72249 40.3307 6.82249 40.0107C8.05249 36.1107 8.57247 32.0307 9.08247 27.9707C8.76247 28.9207 8.53247 29.9007 8.33247 30.8807Z" fill="white"/>
</g>
</g>
<g id="Group_39" opacity="0.5">
<g id="Group_40">
<path id="Vector_30" d="M4.84832 76.1093C4.25832 74.3693 4.13831 72.5194 4.02831 70.6894C3.63831 64.3494 3.2483 57.9593 4.1383 51.6793C4.5383 48.8393 5.5583 45.5993 8.2383 44.5893C6.0883 44.1193 3.77831 44.5194 1.89831 45.6694C0.598309 50.0894 0.938316 54.8693 1.32832 59.4893C1.74832 64.4393 2.1683 69.3793 2.5783 74.3293C2.7183 75.9993 2.88832 77.7493 3.84832 79.1193C4.80832 80.4893 6.83831 81.2594 8.20831 80.2894C6.56831 79.4794 5.43832 77.8493 4.84832 76.1093Z" fill="#FFD03B"/>
</g>
</g>
<g id="Group_41" opacity="0.5">
<g id="Group_42">
<path id="Vector_31" d="M5.01323 45.5503C5.02323 45.2003 4.78321 44.8203 4.43321 44.8203C4.24321 44.8203 4.06322 44.9203 3.91322 45.0403C2.81322 45.8503 2.71322 46.3703 2.06322 48.5303C2.06322 48.5303 1.01322 54.5903 2.19322 61.1803C2.19322 58.6703 2.4232 56.9303 2.3932 55.9503C2.2732 52.6803 3.06321 49.3703 4.65321 46.5103C4.82321 46.2103 5.00323 45.9003 5.01323 45.5503Z" fill="white"/>
</g>
</g>
<g id="Group_43" opacity="0.3">
<g id="Group_44">
<path id="Vector_32" d="M7.26904 84.3197C6.52904 83.9697 5.92905 83.3697 5.39905 82.7497C4.58905 81.7997 3.88906 80.7697 3.28906 79.6797C3.33906 80.7697 3.46906 82.0797 3.46906 82.0797C3.52906 82.8397 3.59906 83.5997 3.65906 84.3597C3.67906 84.5697 3.69905 84.7897 3.80905 84.9697C4.00905 85.2897 4.41906 85.3697 4.78906 85.4297C5.65906 85.5597 6.52905 85.6997 7.39905 85.8297C8.55905 86.0097 9.72904 86.1897 10.889 86.0297C10.219 84.8197 8.50904 84.8897 7.26904 84.3197Z" fill="#FFD03B"/>
</g>
</g>
<g id="Group_45" opacity="0.4">
<g id="Group_46">
<path id="Vector_33" d="M21.7575 43.8092C21.0075 41.6992 19.8075 39.7792 18.7875 37.7792C15.9575 32.2492 14.4575 20.2192 14.4575 20.2192C14.1575 19.8492 13.4875 20.0692 13.2775 20.4992C13.0675 20.9292 13.1675 21.4392 13.2675 21.9092C14.1975 26.1592 15.1375 30.4092 16.0675 34.6592C16.3375 35.8792 16.6075 37.1192 16.4775 38.3592C16.3475 39.5992 15.7475 40.8592 14.6575 41.4692C16.3175 41.7992 18.0875 42.1892 19.2575 43.3992C20.3175 44.4892 20.6975 46.0692 20.9075 47.5692C21.2275 49.7992 21.2675 52.0592 21.2575 54.3092C21.2175 61.9592 20.4975 69.5992 19.1075 77.1192C18.6675 79.4992 18.0975 81.9992 16.4275 83.7492C15.3975 84.8292 14.0275 85.5192 12.6875 86.1892C14.9475 86.5192 17.2875 86.2992 19.4375 85.5392C19.8875 85.3792 20.3675 85.1592 20.5575 84.7192C20.6375 84.5292 20.6475 84.3292 20.6675 84.1192C21.3075 74.9092 21.9575 65.6892 22.5975 56.4792C22.9075 52.2192 23.1875 47.8292 21.7575 43.8092Z" fill="#F72806"/>
</g>
</g>
<g id="Group_47" opacity="0.5">
<g id="Group_48">
<path id="Vector_34" d="M15.1528 7.23047C15.0328 7.25047 14.8828 7.28045 14.7228 7.30045C14.7128 7.30045 14.7028 7.30045 14.7028 7.30045C14.5328 7.32045 14.3428 7.34044 14.1328 7.36044C13.5428 7.41044 12.8128 7.43045 12.0228 7.43045C10.6428 7.43045 9.46281 7.35047 8.88281 7.23047C9.25281 7.31047 9.61281 7.42046 9.97281 7.53046C11.3228 7.95046 12.7328 8.28047 14.1328 8.29047C14.4828 8.29047 14.8228 8.28045 15.1628 8.24045L15.1528 7.23047Z" fill="#56261B"/>
</g>
</g>
</g>
<g id="Group_49">
<g id="Group_50">
<path id="Vector_35" d="M55.2409 58.918H27.7109L28.0609 60.318C29.7909 67.288 32.1809 79.588 32.4209 86.698C32.4209 87.538 36.4809 88.228 41.4909 88.228C46.5009 88.228 50.5609 87.548 50.5609 86.698C50.5609 86.678 50.551 86.648 50.541 86.628C50.781 79.518 53.1709 67.278 54.9009 60.308L55.2409 58.918Z" fill="#EFE8A8"/>
</g>
<g id="Group_51">
<path id="Vector_36" d="M54.5419 58.9187L28.4219 58.8887C30.7619 64.9787 33.0119 75.8387 33.2319 81.6687C33.2319 82.3587 36.9319 82.9187 41.4919 82.9187C46.0519 82.9187 49.7519 82.3587 49.7519 81.6687C49.7519 81.6487 49.7419 81.6286 49.7319 81.6086C49.9419 75.7786 52.4419 64.4787 54.5419 58.9187Z" fill="#FCFBD4"/>
</g>
<g id="Group_52">
<path id="Vector_37" d="M41.4713 60.4487C48.6178 60.4487 54.4113 59.7637 54.4113 58.9187C54.4113 58.0737 48.6178 57.3887 41.4713 57.3887C34.3247 57.3887 28.5312 58.0737 28.5312 58.9187C28.5312 59.7637 34.3247 60.4487 41.4713 60.4487Z" fill="#FCFBD4"/>
</g>
<g id="Group_53">
<g id="Group_54">
<path id="Vector_38" d="M41.4609 60.7786C40.0509 60.7786 27.7109 60.7286 27.7109 58.9186C27.7109 57.1186 40.0509 57.0586 41.4609 57.0586C42.8709 57.0586 55.2109 57.1086 55.2109 58.9186C55.2109 60.7186 42.8709 60.7786 41.4609 60.7786ZM28.5009 58.9186C29.1009 59.4286 33.8809 60.1186 41.4609 60.1186C49.0409 60.1186 53.8209 59.4186 54.4209 58.9186C53.8209 58.4086 49.0409 57.7186 41.4609 57.7186C33.8809 57.7186 29.1009 58.4086 28.5009 58.9186Z" fill="#EFE8A8"/>
</g>
</g>
<g id="Group_55">
<path id="Vector_39" d="M31.0781 67.9883C32.2881 72.9283 33.0781 78.2283 33.2181 81.6983C33.2181 82.3683 36.9181 82.9183 41.4781 82.9183C46.0381 82.9183 49.7381 82.3783 49.7381 81.6983C49.7381 81.6783 49.7281 81.6583 49.7181 81.6483C49.8481 78.2383 50.7081 72.8883 51.9081 67.9883H31.0781Z" fill="#FF9B03"/>
</g>
<g id="Group_56" opacity="0.5">
<g id="Group_57">
<path id="Vector_40" d="M49.1144 78.7088C48.9744 78.4288 48.5544 78.6688 48.3344 78.8888C47.4044 79.8288 46.0344 80.1588 44.7344 80.3488C42.4544 80.6888 40.1344 80.7588 37.8344 80.5388C36.3744 80.3988 34.8544 80.1188 33.6844 79.2288C33.3344 79.9988 33.6844 80.9688 34.3744 81.4288C35.7444 81.1188 37.1544 81.0788 38.5544 81.0388C41.8744 80.9588 45.2044 80.8788 48.4844 81.4088C48.6544 81.4388 48.8644 81.4488 48.9644 81.3088C49.0144 81.2388 49.0244 81.1388 49.0244 81.0588C49.0644 80.3588 49.1044 79.6488 49.1444 78.9488C49.1444 78.8688 49.1544 78.7888 49.1144 78.7088Z" fill="#D71F00"/>
</g>
</g>
<g id="Group_58">
<path id="Vector_41" d="M51.9081 67.9883C51.9081 68.6783 47.2481 69.2383 41.4881 69.2383C35.7381 69.2383 31.0781 68.6783 31.0781 67.9883C31.0781 67.2983 35.7381 66.7383 41.4881 66.7383C47.2481 66.7383 51.9081 67.2983 51.9081 67.9883Z" fill="#F9C83E"/>
</g>
<g id="Group_59">
<g id="Group_60" opacity="0.8">
<g id="Group_61">
<path id="Vector_42" d="M47.6132 70.0498C47.4232 69.9398 47.1932 69.8199 47.1532 69.5999C47.1332 69.4999 47.1632 69.4098 47.1832 69.3098C47.5432 67.9898 47.7432 66.6698 48.1032 65.3398L45.2132 68.4898C45.0732 69.0698 44.9132 69.9599 44.7732 70.5399C44.7332 70.6899 44.7132 70.8698 44.8332 70.9698C44.9032 71.0198 44.9932 71.0299 45.0632 71.0699C45.1932 71.1499 45.2232 71.3299 45.2332 71.4799C45.2632 71.9199 45.2432 72.3598 45.1832 72.7998C45.1732 72.8898 45.1532 72.9898 45.1832 73.0798C45.2132 73.1698 45.1632 73.5699 45.2532 73.5399C45.3032 73.5299 45.5732 73.2498 45.6132 73.2198C46.3732 72.4498 47.0432 71.5898 47.8032 70.8098C47.8732 70.7398 47.9432 70.6598 47.9732 70.5598C48.0132 70.3498 47.8032 70.1598 47.6132 70.0498Z" fill="#D71F00"/>
</g>
</g>
<g id="Group_62" opacity="0.46">
<g id="Group_63">
<path id="Vector_43" d="M45.3039 73.3602C45.2439 72.7102 45.3739 72.1102 45.3039 71.4602C45.2939 71.3402 45.2939 71.2502 45.2139 71.1602C45.1439 71.0802 44.9739 71.0402 44.8939 70.9702C44.7239 70.8102 44.7339 70.7403 44.7839 70.5103C44.8839 70.0303 45.104 69.3003 45.204 68.8203C45.224 68.7403 45.314 68.6002 45.264 68.5302C45.234 68.4802 44.884 68.4403 44.824 68.4203C43.414 67.7503 42.0039 67.0903 40.5939 66.4203C40.5239 66.3903 40.324 66.2402 40.324 66.2402C40.074 66.9002 40.304 67.7802 40.354 68.4902C40.394 69.0402 40.3639 69.5902 40.2539 70.1302C40.1939 70.4302 40.1039 70.7502 40.1739 71.0502C40.2739 71.5102 40.6939 71.8402 41.1339 72.0002C41.5739 72.1602 42.0539 72.2003 42.5039 72.3203C43.3739 72.5503 44.1339 73.0802 44.9239 73.5202C45.0439 73.5902 45.234 73.6303 45.294 73.5103C45.314 73.4603 45.3039 73.4102 45.3039 73.3602Z" fill="#E63E03"/>
</g>
</g>
<g id="Group_64">
<path id="Vector_44" d="M47.7266 65.0593C46.6466 64.8793 45.7166 64.2093 44.7466 63.6893C44.4766 63.5393 44.1566 63.4093 43.8566 63.3693C43.8566 63.3693 43.6466 63.3293 43.5266 63.3693C43.4066 63.3893 43.2966 63.4293 43.1866 63.4893C43.1866 63.4893 43.0166 63.7494 42.8866 63.9194C42.2466 64.7294 41.4666 65.4293 40.5766 65.9693C40.4266 66.0593 40.2466 66.2294 40.3366 66.3894C40.3666 66.4494 40.4367 66.4793 40.4867 66.4993C41.9567 67.1993 43.4366 67.8593 44.9466 68.4693C45.0566 68.5093 45.1666 68.5593 45.2866 68.5293C45.4166 68.4993 45.5066 68.3993 45.5966 68.2993C46.4066 67.3693 47.2066 66.4393 48.0166 65.4993C48.0566 65.4593 48.0966 65.4094 48.1066 65.3494C48.1366 65.1694 47.9066 65.0893 47.7266 65.0593Z" fill="#F9EAAC"/>
</g>
<g id="Group_65">
<g id="Group_66">
<path id="Vector_45" d="M42.1134 66.6387L42.0234 66.7686C42.0534 66.7286 42.0834 66.6987 42.1134 66.6587C42.1134 66.6487 42.1134 66.6487 42.1134 66.6387Z" fill="white"/>
</g>
<g id="Group_67">
<path id="Vector_46" d="M42.1172 66.6396L42.1972 66.5195C42.1472 66.5295 42.1172 66.5796 42.1172 66.6396Z" fill="white"/>
</g>
<g id="Group_68">
<path id="Vector_47" d="M45.675 66.759C45.275 66.569 44.875 66.389 44.475 66.199C44.305 66.119 44.135 66.039 43.955 66.009C43.675 65.959 43.385 66.029 43.105 66.109C42.745 66.209 42.365 66.359 42.125 66.649C42.125 66.659 42.125 66.679 42.135 66.689C42.165 66.759 42.245 66.789 42.315 66.819C42.985 67.119 43.745 67.239 44.335 67.669C44.515 67.799 44.705 67.959 44.915 67.909C45.015 67.889 45.105 67.819 45.185 67.759C45.405 67.589 45.615 67.419 45.835 67.249C45.885 67.209 45.925 67.179 45.945 67.119C46.005 66.969 45.825 66.839 45.675 66.759Z" fill="white"/>
</g>
</g>
<g id="Group_69">
<g id="Group_70">
<path id="Vector_48" d="M41.8125 65.3C41.8225 65.3 41.8325 65.3 41.8425 65.3C41.8725 65.28 41.8925 65.27 41.9225 65.25L41.8125 65.3Z" fill="#FCFCFC"/>
</g>
<g id="Group_71">
<path id="Vector_49" d="M42.5954 65.4103C42.5754 65.3703 42.5354 65.3403 42.4854 65.3303C42.2854 65.2503 42.0554 65.2403 41.8454 65.3003C41.5254 65.4903 41.2154 65.6903 40.8954 65.8803C40.8454 65.9103 40.7854 65.9503 40.7554 65.9903C40.7154 66.0403 40.6954 66.1103 40.7254 66.1603C40.7454 66.2003 40.7754 66.2303 40.8054 66.2503C40.8954 66.3303 41.0054 66.4103 41.1254 66.4003C41.1954 66.3903 41.2554 66.3603 41.3154 66.3203C41.6954 66.0903 42.0754 65.8703 42.4554 65.6503C42.5354 65.5903 42.6354 65.5003 42.5954 65.4103Z" fill="#FCFCFC"/>
</g>
</g>
<g id="Group_72">
<path id="Vector_50" d="M44.5922 63.9706C44.5322 63.9106 44.4522 63.8805 44.3722 63.8605C44.0922 63.7705 43.6222 63.5406 43.6222 63.5406C43.5222 63.5106 43.4222 63.6106 43.3622 63.7106C43.1822 63.9806 43.0022 64.2606 42.8222 64.5306C42.7822 64.5906 42.7422 64.6706 42.7822 64.7206C42.8022 64.7506 42.8422 64.7605 42.8822 64.7705C43.0422 64.8205 43.2022 64.8606 43.3622 64.8406C43.6122 64.8006 43.8022 64.5906 44.0222 64.4506C44.1422 64.3706 44.2822 64.3106 44.4222 64.2806C44.4922 64.2606 44.5822 64.2406 44.6222 64.1806C44.6822 64.1206 44.6522 64.0306 44.5922 63.9706Z" fill="white"/>
</g>
<g id="Group_73">
<path id="Vector_51" d="M47.6843 65.3599C46.9543 65.1299 46.2243 64.8999 45.4843 64.6699C45.4843 64.6699 44.7843 64.8199 44.3843 64.9899C44.3143 65.0199 44.2343 65.0799 44.2643 65.1499C44.2743 65.1799 44.3043 65.1899 44.3343 65.1999C45.0543 65.5399 45.7543 65.9399 46.4043 66.3999C46.5243 66.4799 46.6943 66.5599 46.7943 66.4599C46.8643 66.3799 46.8443 66.2499 46.7643 66.1699C46.6943 66.0899 46.5843 66.0599 46.4843 66.0299C46.1343 65.9199 45.7643 65.7699 45.5643 65.4599C45.5443 65.4299 45.5243 65.3799 45.5343 65.3399C45.5543 65.2699 45.6543 65.2599 45.7343 65.2599C45.9543 65.2899 46.1743 65.3499 46.3843 65.4399C46.6143 65.5399 46.8443 65.6799 47.0943 65.7199C47.3443 65.7599 47.6443 65.6699 47.7343 65.4299C47.7443 65.4199 47.7443 65.3999 47.7343 65.3899C47.7243 65.3799 47.7043 65.3699 47.6843 65.3599Z" fill="white"/>
</g>
<g id="Group_74">
<g id="Group_75" opacity="0.4">
<g id="Group_76">
<path id="Vector_52" d="M46.0812 69.6873C46.1412 69.5773 46.1612 69.4574 46.1812 69.3474C46.3012 68.7274 46.4812 68.1173 46.7112 67.5273C46.3912 67.8573 46.0513 68.1673 45.7013 68.4673C45.2713 69.1373 45.0312 69.9274 45.0312 70.7274C45.2912 70.4874 45.5613 70.2373 45.8213 69.9973C45.9213 69.8973 46.0212 69.8073 46.0812 69.6873Z" fill="#FCD30D"/>
</g>
</g>
<g id="Group_77" opacity="0.4">
<g id="Group_78">
<path id="Vector_53" d="M47.53 66.2888C47.37 66.4988 47.19 66.6988 47.1 66.9388C47.04 67.1088 47.02 67.2887 47 67.4688C46.92 68.2587 46.83 69.0387 46.75 69.8287C47.06 68.6287 47.38 67.4288 47.69 66.2188C47.59 66.2987 47.53 66.2888 47.53 66.2888Z" fill="#FCD30D"/>
</g>
</g>
<g id="Group_79" opacity="0.4">
<g id="Group_80">
<path id="Vector_54" d="M47.2222 70.1792C46.9022 70.0892 46.0822 70.2692 45.8122 70.6292C45.7222 70.7492 45.5722 70.8192 45.5122 70.9592C45.5022 70.9792 45.4922 71.0092 45.4922 71.0292C45.5022 71.0792 45.5522 71.1092 45.6022 71.0992C45.6522 71.0892 45.6922 71.0692 45.7322 71.0392C46.0222 70.8392 46.3322 70.6592 46.6622 70.5192C46.8122 70.4492 47.0222 70.4092 47.1122 70.5492C47.1622 70.6292 47.1422 70.7292 47.0922 70.7992C47.0422 70.8792 46.9622 70.9292 46.8922 70.9792C46.6022 71.1792 46.3022 71.3792 46.0122 71.5892C45.9322 71.6392 45.8522 71.6992 45.8022 71.7792C45.7522 71.8492 45.7422 71.9392 45.7222 72.0292C45.6722 72.3092 45.6422 72.5892 45.6322 72.8792C45.6322 72.9492 45.6422 73.0492 45.7122 73.0692C45.7822 73.0892 45.8422 73.0292 45.8922 72.9792C46.2622 72.5292 46.5622 72.0192 46.9522 71.5892C47.1422 71.3792 47.3522 71.1792 47.4522 70.9192C47.5322 70.6492 47.4722 70.2992 47.2222 70.1792Z" fill="#FCD30D"/>
</g>
</g>
</g>
<g id="Group_81" opacity="0.3">
<g id="Group_82">
<path id="Vector_55" d="M41.5847 67.3C41.3547 67.06 41.0647 66.89 40.7447 66.8C40.6347 66.77 40.5147 66.75 40.4047 66.8C40.3647 66.82 40.3347 66.85 40.3147 66.89L40.3047 66.9V66.97C40.3147 67.11 40.3747 67.24 40.4247 67.37C40.5747 67.73 40.6947 68.11 40.7747 68.5C40.7947 68.6 40.8447 68.72 40.9447 68.71C40.9847 68.7 41.0147 68.68 41.0447 68.65C41.1447 68.55 41.2147 68.42 41.2847 68.3C41.3947 68.11 41.5047 67.91 41.6247 67.72C41.6547 67.66 41.6947 67.6 41.6947 67.53C41.6947 67.43 41.6347 67.36 41.5847 67.3Z" fill="#FCD30D"/>
</g>
</g>
<g id="Group_83">
<g id="Group_84" opacity="0.3">
<g id="Group_85">
<path id="Vector_56" d="M44.8225 69.0201C44.7925 68.9801 44.7425 68.9801 44.7025 68.9701C44.3625 68.9301 43.9925 68.9 43.7325 69.11C43.5825 69.23 43.4825 69.4201 43.3025 69.4801C42.9825 69.5901 42.7025 69.2201 42.3625 69.1601C42.2725 69.1401 42.1625 69.1501 42.0625 69.1301C42.1125 69.1701 42.1625 69.2101 42.2025 69.2601C42.3225 69.4101 42.3625 69.6101 42.4525 69.7801C42.7325 70.3401 43.4125 70.5501 44.0125 70.7101C44.1025 70.7301 44.2025 70.7601 44.2825 70.7201C44.3725 70.6701 44.4125 70.5601 44.4425 70.4601C44.5725 70.0301 44.6925 69.6001 44.8225 69.1701C44.8425 69.1201 44.8525 69.0601 44.8225 69.0201Z" fill="#DB440C"/>
</g>
</g>
</g>
<g id="Group_86" opacity="0.6">
<g id="Group_87">
<path id="Vector_57" d="M42.3017 70.0601C42.2117 69.9401 42.0617 69.8901 41.9217 69.8301C41.6117 69.7101 41.3217 69.5501 41.0517 69.3601C41.0017 69.3201 40.9417 69.2801 40.8717 69.2701C40.7417 69.2601 40.6317 69.3801 40.6217 69.5101C40.6017 69.6401 40.6517 69.7601 40.7017 69.8801C40.7017 69.8801 40.6517 69.8801 40.8517 69.9901C41.0517 70.1101 41.2917 70.1501 41.5317 70.1701C41.7617 70.1901 42.0017 70.1901 42.2317 70.2301C42.2517 70.2301 42.2817 70.2401 42.3017 70.2301C42.3617 70.2301 42.3517 70.1201 42.3017 70.0601Z" fill="#D71F00"/>
</g>
</g>
<g id="Group_88" opacity="0.6">
<g id="Group_89">
<path id="Vector_58" d="M44.9647 71.5097C44.9247 71.4497 44.8447 71.4397 44.7647 71.4397C43.5447 71.4297 42.3747 70.9297 41.2947 70.3597C41.1647 70.2897 41.0147 70.2197 40.8647 70.2597C40.6547 70.3197 40.5847 70.5797 40.5547 70.7997C40.5547 70.7997 40.5547 71.2797 40.8247 71.4197C40.9547 71.4897 41.1047 71.4997 41.2447 71.5097C41.5447 71.5397 41.8447 71.5797 42.1447 71.6397C42.4047 71.6897 42.6647 71.7597 42.9047 71.8797C43.5047 72.1897 43.9247 72.8297 44.5747 73.0197C44.6247 73.0297 44.6747 73.0497 44.7247 73.0297C44.8547 72.9997 44.8947 72.8397 44.9047 72.7197C44.9547 72.3497 44.9747 71.9697 44.9747 71.5997C44.9847 71.5797 44.9847 71.5397 44.9647 71.5097Z" fill="#D71F00"/>
</g>
</g>
<g id="Group_90" opacity="0.5">
<g id="Group_91">
<path id="Vector_59" d="M44.6356 72.0683C44.5556 71.8783 44.3756 71.7583 44.1756 71.6983C43.9856 71.6383 43.7856 71.6183 43.5856 71.5683C43.0456 71.4283 42.5756 71.0383 42.0156 70.9883L42.1656 71.2383C42.8556 71.3583 43.3756 71.8883 43.8956 72.3583C44.0456 72.4983 44.2456 72.6483 44.4456 72.5783C44.6356 72.5083 44.7156 72.2583 44.6356 72.0683Z" fill="#FCD30D"/>
</g>
</g>
<g id="Group_92" opacity="0.4">
<g id="Group_93">
<path id="Vector_60" d="M43.5666 65.2401C43.4966 65.1001 43.6266 64.9501 43.7466 64.8501C44.0566 64.5901 44.3766 64.3401 44.6866 64.0801C44.2566 64.3501 43.8166 64.6001 43.3766 64.8301C43.2866 64.8801 43.1966 64.9201 43.1066 64.9301C43.0066 64.9401 42.8966 64.9101 42.8466 64.8301C42.7666 64.7201 42.8266 64.5601 42.8766 64.4301C43.0066 64.1501 43.1366 63.8601 43.2566 63.5801C43.0166 64.0001 42.7666 64.4201 42.5266 64.8401C42.4766 64.9201 42.4366 65.0101 42.4666 65.0901C42.5066 65.1901 42.6266 65.2201 42.7266 65.2501C42.8266 65.2801 42.9365 65.3801 42.8965 65.4801C42.8765 65.5201 42.8365 65.5501 42.8065 65.5701C42.3665 65.8501 41.9166 66.1301 41.4766 66.4001L41.5166 66.5101C42.0066 66.3001 42.4966 66.0801 42.9866 65.8701C43.1466 65.8001 43.3066 65.7301 43.4766 65.7001C43.6666 65.6701 43.8666 65.6901 44.0466 65.6501C43.9266 65.5501 43.7965 65.4501 43.6765 65.3501C43.6265 65.3101 43.5866 65.2801 43.5666 65.2401Z" fill="#FCD30D"/>
</g>
</g>
<g id="Group_94" opacity="0.5">
<g id="Group_95" opacity="0.74">
<g id="Group_96">
<path id="Vector_61" d="M43.4878 68.2003C43.2578 68.0903 43.0478 67.9303 42.7878 67.8903C42.6978 67.8803 42.5878 67.8603 42.5078 67.8203C42.6578 67.9503 42.7978 68.0903 42.9278 68.2403C43.0478 68.3803 43.1678 68.5303 43.1878 68.7103C43.2078 68.8603 43.1578 69.0103 43.1878 69.1603C43.1878 69.1803 43.1978 69.2003 43.2178 69.2103C43.2478 69.2303 43.2778 69.2103 43.3078 69.2003C43.5478 69.0603 43.6978 68.8103 43.9478 68.7003C44.1578 68.6003 44.4078 68.6103 44.6478 68.6303L44.7478 68.5503C44.3278 68.4803 43.8878 68.4003 43.4878 68.2003Z" fill="#FCD30D"/>
</g>
</g>
</g>
<g id="Group_97">
<g id="Group_98" opacity="0.8">
<g id="Group_99">
<path id="Vector_62" d="M45.3043 68.7982C45.4043 68.5882 45.5944 68.4282 45.7644 68.2682C45.9544 68.0882 46.1143 67.8782 46.2843 67.6782C46.7643 67.0882 47.2343 66.4982 47.7143 65.9082C46.9843 66.6982 46.2643 67.4882 45.5343 68.2782C45.4643 68.3482 45.4043 68.4282 45.3543 68.5182C45.3143 68.5982 45.2943 68.6782 45.2743 68.7582C45.1943 69.0682 45.1144 69.3882 45.0444 69.6982C44.9744 69.9882 44.9043 70.2782 44.8643 70.5682C44.8543 70.6582 44.8543 70.7682 44.9143 70.8382C45.0143 70.9382 45.1844 70.8882 45.2944 70.9782C45.3944 71.0582 45.4043 71.2082 45.3943 71.3282C45.3743 71.7182 45.3543 72.0982 45.3343 72.4882C45.4443 72.2282 45.3643 71.9082 45.4743 71.6482C45.6643 71.2182 46.2743 71.1582 46.5543 70.7782C46.2543 70.7482 45.9543 70.8682 45.6943 71.0182C45.6143 71.0682 45.4943 71.0982 45.4443 71.0182C45.4143 70.9582 45.4643 70.8882 45.5043 70.8382C45.6443 70.6782 45.7943 70.5182 45.9343 70.3582C46.0343 70.2482 46.1444 70.0882 46.0744 69.9482C45.7544 70.1982 45.4443 70.4482 45.1243 70.6982C45.1043 70.7182 45.0744 70.7382 45.0444 70.7282C44.9944 70.7182 44.9843 70.6482 44.9943 70.5882C45.0543 70.1182 45.1243 69.6582 45.1943 69.1882C45.2343 69.0582 45.2543 68.9182 45.3043 68.7982Z" fill="#D71F00"/>
</g>
</g>
</g>
<g id="Group_100" opacity="0.5">
<g id="Group_101" opacity="0.4">
<g id="Group_102">
<path id="Vector_63" d="M46.5217 69.8493C46.5817 69.8993 46.6417 69.9593 46.7117 70.0093C46.7417 70.0293 46.7717 70.0493 46.8017 70.0393C46.8217 70.0293 46.8317 70.0093 46.8317 69.9893C47.0417 69.3093 47.2217 68.6093 47.3717 67.9193C47.3817 67.8893 47.3817 67.8493 47.3617 67.8193C47.3417 67.7993 47.3218 67.7993 47.2918 67.7993C47.1318 67.7893 46.9718 67.7793 46.8118 67.7893L46.7818 67.9793C46.7918 67.9393 46.7917 67.8993 46.8017 67.8593C46.6417 68.3893 46.5117 68.9293 46.4017 69.4693C46.3817 69.5493 46.3717 69.6293 46.4017 69.7093C46.4217 69.7593 46.4717 69.8093 46.5217 69.8493Z" fill="#FCD30D"/>
</g>
</g>
<g id="Group_103" opacity="0.8">
<g id="Group_104">
<path id="Vector_64" d="M47.5119 70.3395L47.4119 70.2695C47.1019 70.7395 46.7119 71.1595 46.2719 71.4995C46.1019 71.6295 45.9119 71.7595 45.7919 71.9395C45.5619 72.2795 45.5819 72.7295 45.4219 73.0995C45.9819 72.2595 46.6619 71.4995 47.4319 70.8395C47.5119 70.7695 47.6019 70.6995 47.6319 70.5895C47.6719 70.4995 47.6219 70.3595 47.5119 70.3395Z" fill="#D71F00"/>
</g>
</g>
</g>
<g id="Group_105" opacity="0.7">
<g id="Group_106" opacity="0.79">
<g id="Group_107">
<path id="Vector_65" d="M44.5522 69.7899C44.3422 70.0299 44.1022 70.2698 43.7922 70.3298C43.5722 70.3698 43.3522 70.3099 43.1522 70.2299C42.8122 70.0799 42.5122 69.8598 42.2422 69.5898C42.4122 69.8098 42.5422 70.0698 42.6222 70.3298C42.6522 70.4198 42.6722 70.5198 42.7322 70.5898C42.8422 70.7198 43.0322 70.7198 43.2022 70.7098C43.6522 70.7098 44.1122 70.7499 44.5522 70.8499C44.4122 70.5199 44.4122 70.1299 44.5522 69.7899Z" fill="#D71F00"/>
</g>
</g>
</g>
</g>
<g id="Group_108">
<g id="Group_109" opacity="0.9">
<g id="Group_110">
<path id="Vector_66" d="M42.565 80.7759C42.455 80.5859 42.325 80.3558 42.105 80.3258C42.005 80.3158 41.915 80.3359 41.815 80.3659C40.505 80.7559 39.185 80.9959 37.875 81.3859L40.955 78.4159C41.525 78.2559 42.415 78.0859 42.995 77.9259C43.145 77.8859 43.325 77.8559 43.425 77.9759C43.475 78.0359 43.485 78.1359 43.535 78.2059C43.615 78.3359 43.795 78.3559 43.945 78.3659C44.385 78.3859 44.825 78.3559 45.265 78.2859C45.355 78.2659 45.455 78.2559 45.545 78.2859C45.635 78.3159 46.035 78.2459 46.005 78.3459C45.995 78.3959 45.725 78.6759 45.695 78.7159C44.935 79.4959 44.095 80.1859 43.335 80.9659C43.265 81.0359 43.185 81.1159 43.095 81.1359C42.875 81.1759 42.685 80.9659 42.565 80.7759Z" fill="#E63E03"/>
</g>
</g>
<g id="Group_111" opacity="0.5">
<g id="Group_112">
<path id="Vector_67" d="M45.8103 78.387C45.1503 78.337 44.5603 78.487 43.9103 78.437C43.7903 78.427 43.7003 78.427 43.6103 78.347C43.5303 78.277 43.4903 78.107 43.4103 78.037C43.2403 77.867 43.1703 77.877 42.9403 77.937C42.4603 78.057 41.7403 78.287 41.2603 78.397C41.1803 78.417 41.0403 78.507 40.9703 78.467C40.9203 78.437 40.8703 78.087 40.8503 78.037C40.1503 76.647 39.4503 75.247 38.7503 73.857C38.7203 73.787 38.5703 73.597 38.5703 73.597C39.2203 73.327 40.1103 73.537 40.8203 73.577C41.3703 73.607 41.9203 73.557 42.4503 73.437C42.7503 73.367 43.0603 73.277 43.3703 73.327C43.8303 73.417 44.1703 73.827 44.3403 74.257C44.5103 74.697 44.5603 75.167 44.7003 75.617C44.9503 76.487 45.5003 77.227 45.9603 78.007C46.0303 78.127 46.0803 78.317 45.9603 78.377C45.9103 78.397 45.8603 78.397 45.8103 78.387Z" fill="#E23001"/>
</g>
</g>
<g id="Group_113" opacity="0.74">
<g id="Group_114">
<path id="Vector_68" d="M37.5734 81.0161C37.3634 79.9361 36.6734 79.0261 36.1234 78.0761C35.9634 77.8061 35.8234 77.4961 35.7834 77.1861C35.7834 77.1861 35.7434 76.9761 35.7834 76.8561C35.8034 76.7361 35.8334 76.6261 35.9034 76.5161C35.9034 76.5161 36.1634 76.3361 36.3234 76.2061C37.1234 75.5461 37.8034 74.7461 38.3134 73.8561C38.4034 73.6961 38.5634 73.5161 38.7234 73.6061C38.7834 73.6361 38.8134 73.6961 38.8434 73.7561C39.5834 75.2061 40.2734 76.6761 40.9234 78.1661C40.9734 78.2761 41.0134 78.3861 40.9934 78.4961C40.9734 78.6261 40.8734 78.7161 40.7734 78.8061C39.8634 79.6361 38.9534 80.4661 38.0334 81.2961C37.9934 81.3361 37.9434 81.3761 37.8834 81.3861C37.7034 81.4261 37.6134 81.1861 37.5734 81.0161Z" fill="#FCD30D"/>
</g>
</g>
<g id="Group_115">
<g id="Group_116" opacity="0.2">
<g id="Group_117">
<path id="Vector_69" d="M39.236 78.9267C39.046 78.5367 38.8459 78.1367 38.6559 77.7467C38.5759 77.5767 38.486 77.4167 38.456 77.2267C38.406 76.9467 38.4659 76.6567 38.5359 76.3767C38.6359 76.0067 38.7659 75.6267 39.0459 75.3867C39.0559 75.3867 39.0759 75.3867 39.0859 75.3967C39.1559 75.4267 39.1859 75.4967 39.2259 75.5667C39.5359 76.2267 39.6759 76.9867 40.1259 77.5667C40.2559 77.7367 40.4259 77.9267 40.3859 78.1367C40.3659 78.2367 40.306 78.3267 40.236 78.4167C40.066 78.6367 39.906 78.8567 39.736 79.0767C39.706 79.1267 39.6659 79.1667 39.6059 79.1967C39.4559 79.2567 39.306 79.0767 39.236 78.9267Z" fill="#E23001"/>
</g>
</g>
</g>
<g id="Group_118">
<g id="Group_119">
<path id="Vector_70" d="M37.675 75.1055C37.675 75.1155 37.675 75.1255 37.675 75.1355C37.655 75.1655 37.645 75.1855 37.625 75.2155L37.675 75.1055Z" fill="#FCFCFC"/>
</g>
<g id="Group_120" opacity="0.2">
<g id="Group_121">
<path id="Vector_71" d="M37.8027 75.8864C37.7627 75.8664 37.7327 75.8264 37.7127 75.7764C37.6227 75.5764 37.6128 75.3464 37.6628 75.1364C37.8528 74.8164 38.0328 74.4964 38.2228 74.1764C38.2528 74.1264 38.2827 74.0664 38.3327 74.0264C38.3827 73.9864 38.4427 73.9664 38.5027 73.9864C38.5427 74.0064 38.5728 74.0364 38.6028 74.0664C38.6828 74.1564 38.7627 74.2664 38.7527 74.3864C38.7527 74.4564 38.7127 74.5164 38.6827 74.5764C38.4627 74.9564 38.2527 75.3464 38.0327 75.7264C37.9827 75.8164 37.8927 75.9264 37.8027 75.8864Z" fill="#E23001"/>
</g>
</g>
</g>
<g id="Group_122" opacity="0.2">
<g id="Group_123">
<path id="Vector_72" d="M36.4164 77.9164C36.3564 77.8564 36.3264 77.7764 36.2964 77.7064C36.1964 77.4264 35.9664 76.9664 35.9664 76.9664C35.9364 76.8664 36.0364 76.7664 36.1264 76.7064C36.3964 76.5164 36.6664 76.3364 36.9364 76.1464C36.9964 76.1064 37.0764 76.0664 37.1264 76.1064C37.1564 76.1264 37.1764 76.1664 37.1864 76.2064C37.2364 76.3564 37.2864 76.5164 37.2664 76.6864C37.2364 76.9464 37.0264 77.1364 36.8964 77.3564C36.8164 77.4764 36.7664 77.6164 36.7364 77.7564C36.7164 77.8364 36.7064 77.9164 36.6364 77.9564C36.5764 77.9964 36.4764 77.9764 36.4164 77.9164Z" fill="#E23001"/>
</g>
</g>
<g id="Group_124" opacity="0.5">
<g id="Group_125">
<path id="Vector_73" d="M37.8806 80.9673C37.6306 80.2373 37.3806 79.5173 37.1406 78.7873C37.1406 78.7873 37.2706 78.0873 37.4306 77.6773C37.4606 77.6073 37.5206 77.5273 37.5906 77.5573C37.6206 77.5673 37.6306 77.5973 37.6406 77.6273C38.0006 78.3373 38.4206 79.0273 38.8906 79.6673C38.9706 79.7873 39.0606 79.9473 38.9606 80.0573C38.8906 80.1373 38.7506 80.1073 38.6706 80.0373C38.5906 79.9673 38.5606 79.8573 38.5306 79.7573C38.4106 79.4073 38.2506 79.0473 37.9406 78.8473C37.9006 78.8273 37.8606 78.8073 37.8206 78.8173C37.7506 78.8373 37.7406 78.9373 37.7506 79.0173C37.7806 79.2373 37.8506 79.4573 37.9406 79.6573C38.0506 79.8873 38.1906 80.1072 38.2406 80.3572C38.2906 80.6072 38.2006 80.9073 37.9706 81.0073C37.9606 81.0173 37.9406 81.0173 37.9306 81.0173C37.8906 81.0173 37.8806 80.9873 37.8806 80.9673Z" fill="white"/>
</g>
</g>
<g id="Group_126">
<g id="Group_127" opacity="0.5">
<g id="Group_128">
<path id="Vector_74" d="M42.1734 79.2558C42.0734 79.3158 41.9534 79.3358 41.8334 79.3658C41.2134 79.5058 40.6134 79.6958 40.0234 79.9358C40.3434 79.6058 40.6435 79.2558 40.9435 78.8958C41.6035 78.4458 42.3834 78.1858 43.1834 78.1758C42.9434 78.4458 42.7134 78.7158 42.4734 78.9858C42.3734 79.0958 42.2834 79.1958 42.1734 79.2558Z" fill="#D71F00"/>
</g>
</g>
<g id="Group_129" opacity="0.4">
<g id="Group_130">
<path id="Vector_75" d="M38.8022 80.796C39.0022 80.626 39.2022 80.446 39.4422 80.346C39.6122 80.276 39.7922 80.256 39.9722 80.226C40.7522 80.126 41.5422 80.016 42.3222 79.916C41.1322 80.256 39.9322 80.596 38.7422 80.946C38.8122 80.846 38.8022 80.796 38.8022 80.796Z" fill="#FCD30D"/>
</g>
</g>
<g id="Group_131">
<path id="Vector_76" d="M42.6809 80.3867C42.5909 80.0667 42.7509 79.2467 43.1009 78.9667C43.2209 78.8767 43.2909 78.7267 43.4209 78.6567C43.4409 78.6467 43.4709 78.6367 43.4909 78.6367C43.5409 78.6467 43.5709 78.6967 43.5609 78.7467C43.5609 78.7967 43.5309 78.8367 43.5009 78.8767C43.3009 79.1767 43.1409 79.4867 43.0009 79.8167C42.9409 79.9667 42.9009 80.1767 43.0409 80.2667C43.1209 80.3167 43.2209 80.2967 43.2909 80.2367C43.3609 80.1867 43.4109 80.1067 43.4609 80.0367C43.6609 79.7367 43.8509 79.4367 44.0509 79.1367C44.1009 79.0567 44.1609 78.9767 44.2409 78.9167C44.3109 78.8667 44.4009 78.8467 44.4909 78.8367C44.7709 78.7867 45.0509 78.7467 45.3309 78.7267C45.4009 78.7167 45.5009 78.7267 45.5209 78.7967C45.5509 78.8667 45.4909 78.9367 45.4309 78.9767C44.9809 79.3567 44.4909 79.6667 44.0609 80.0667C43.8609 80.2567 43.6609 80.4767 43.4109 80.5867C43.1609 80.6867 42.8109 80.6367 42.6809 80.3867Z" fill="#D71F00"/>
</g>
</g>
<g id="Group_132" opacity="0.3">
<g id="Group_133">
<path id="Vector_77" d="M39.6696 74.8264C39.4296 74.6064 39.2396 74.3164 39.1496 74.0064C39.1196 73.8964 39.0996 73.7764 39.1396 73.6764C39.1596 73.6364 39.1896 73.6064 39.2296 73.5764L39.2396 73.5664H39.3096C39.4496 73.5764 39.5896 73.6264 39.7196 73.6764C40.0896 73.8164 40.4696 73.9264 40.8496 73.9964C40.9496 74.0164 41.0696 74.0664 41.0596 74.1564C41.0596 74.1964 41.0296 74.2264 40.9996 74.2564C40.8996 74.3564 40.7696 74.4364 40.6496 74.5064C40.4596 74.6264 40.2696 74.7364 40.0796 74.8564C40.0196 74.8964 39.9596 74.9264 39.8896 74.9264C39.7996 74.9264 39.7296 74.8764 39.6696 74.8264Z" fill="#FC9F24"/>
</g>
</g>
<g id="Group_134">
<g id="Group_135" opacity="0.79">
<g id="Group_136">
<path id="Vector_78" d="M41.1316 75.0063C40.7016 75.0663 40.2716 75.1663 39.8516 75.2863L41.4116 74.6562C41.3716 74.7862 41.3716 74.9262 41.4116 75.0562C41.4016 75.0462 41.3916 75.0362 41.3816 75.0262C41.3116 74.9862 41.2116 74.9963 41.1316 75.0063Z" fill="#E04601"/>
</g>
</g>
<g id="Group_137" opacity="0.3">
<g id="Group_138">
<path id="Vector_79" d="M41.4649 78.0161C41.4249 77.9861 41.4149 77.9361 41.4149 77.8961C41.3649 77.5661 41.3249 77.1861 41.5349 76.9161C41.6549 76.7661 41.8449 76.6661 41.8949 76.4761C41.9949 76.1561 41.6249 75.8761 41.5549 75.5461C41.5349 75.4561 41.5349 75.3461 41.5249 75.2461C41.5649 75.2961 41.6049 75.3461 41.6649 75.3861C41.8249 75.4961 42.0149 75.5361 42.1949 75.6161C42.7549 75.8861 42.9849 76.5561 43.1649 77.1561C43.1949 77.2461 43.2149 77.3361 43.1749 77.4261C43.1349 77.5261 43.0149 77.5661 42.9149 77.5961C42.4849 77.7361 42.0549 77.8661 41.6349 78.0061C41.5749 78.0361 41.5149 78.0561 41.4649 78.0161Z" fill="#DB440C"/>
</g>
</g>
</g>
<g id="Group_139" opacity="0.7">
<g id="Group_140" opacity="0.8">
<g id="Group_141">
<path id="Vector_80" d="M42.5572 74.6875C42.5272 74.4575 42.4872 74.2175 42.3572 74.0175C42.2372 73.8175 42.2372 73.8675 42.2372 73.8675C42.1172 73.8275 41.9872 73.7775 41.8572 73.7975C41.7272 73.8175 41.6072 73.9275 41.6272 74.0575C41.6372 74.1275 41.6772 74.1775 41.7172 74.2375C41.9172 74.5075 42.0772 74.7975 42.2072 75.0975C42.2672 75.2375 42.3272 75.3875 42.4472 75.4775C42.5072 75.5175 42.6072 75.5275 42.6372 75.4575C42.6472 75.4375 42.6372 75.4075 42.6372 75.3875C42.5872 75.1575 42.5872 74.9275 42.5572 74.6875Z" fill="#D71F00"/>
</g>
</g>
<g id="Group_142" opacity="0.8">
<g id="Group_143">
<path id="Vector_81" d="M45.4801 77.677C45.2701 77.027 44.6201 76.637 44.3001 76.037C44.1701 75.807 44.1001 75.547 44.0401 75.277C43.9701 74.987 43.9201 74.6871 43.8801 74.3871C43.8601 74.2471 43.8501 74.097 43.7801 73.967C43.6301 73.707 43.1501 73.707 43.1501 73.707C42.9301 73.747 42.6801 73.817 42.6201 74.037C42.5801 74.187 42.6601 74.327 42.7301 74.467C43.3201 75.537 43.8501 76.687 43.8901 77.907C43.8901 77.977 43.9001 78.067 43.9701 78.107C44.0001 78.127 44.0401 78.127 44.0701 78.127C44.4501 78.117 44.8201 78.087 45.1901 78.027C45.3201 78.007 45.4701 77.967 45.5001 77.837C45.5101 77.777 45.5001 77.727 45.4801 77.677Z" fill="#D71F00"/>
</g>
</g>
</g>
<g id="Group_144" opacity="0.4">
<g id="Group_145">
<path id="Vector_82" d="M44.785 77.0063C44.305 76.5063 43.755 75.9962 43.625 75.3062L43.375 75.1562C43.435 75.7163 43.835 76.1762 43.995 76.7162C44.055 76.9062 44.075 77.1162 44.145 77.3062C44.215 77.4962 44.335 77.6763 44.525 77.7563C44.715 77.8263 44.965 77.7462 45.025 77.5562C45.075 77.3562 44.925 77.1563 44.785 77.0063Z" fill="#FCD30D"/>
</g>
</g>
<g id="Group_146" opacity="0.5">
<g id="Group_147">
<path id="Vector_83" d="M37.9066 77.1361C37.7666 77.0661 37.6166 77.2061 37.5166 77.3261C37.2666 77.6461 37.0166 77.9661 36.7666 78.2861C37.0266 77.8561 37.2666 77.4061 37.4866 76.9561C37.5266 76.8661 37.5766 76.7761 37.5766 76.6761C37.5866 76.5761 37.5466 76.4761 37.4666 76.4161C37.3466 76.3361 37.1966 76.3961 37.0666 76.4561C36.7866 76.5861 36.5066 76.7261 36.2266 76.8561C36.6366 76.6061 37.0566 76.3461 37.4666 76.0961C37.5466 76.0461 37.6366 75.9961 37.7166 76.0261C37.8166 76.0661 37.8466 76.1861 37.8866 76.2861C37.9266 76.3861 38.0165 76.4961 38.1165 76.4461C38.1565 76.4261 38.1866 76.3861 38.2066 76.3461C38.4766 75.8961 38.7366 75.4461 39.0066 74.9961L39.1165 75.0261C38.9165 75.5161 38.7166 76.0161 38.5166 76.5061C38.4466 76.6661 38.3865 76.8261 38.3665 76.9961C38.3365 77.1861 38.3666 77.3861 38.3266 77.5661C38.2266 77.4461 38.1266 77.3261 38.0166 77.2061C37.9766 77.1961 37.9466 77.1561 37.9066 77.1361Z" fill="white"/>
</g>
</g>
<g id="Group_148" opacity="0.5">
<g id="Group_149" opacity="0.4">
<g id="Group_150">
<path id="Vector_84" d="M41.5506 74.0481C40.8706 73.9081 40.2006 73.7681 39.5206 73.6181C39.4806 73.6081 39.4306 73.5981 39.3906 73.5981L39.4306 73.5781C40.1006 73.7081 40.8007 73.7681 41.4807 73.7381C41.5607 73.7381 41.6606 73.7481 41.6806 73.8181C41.6906 73.8481 41.6806 73.8781 41.6706 73.9081C41.6206 74.0981 41.6206 74.3081 41.6906 74.4981C41.7006 74.5181 41.7006 74.5481 41.6906 74.5581C41.6806 74.5681 41.6706 74.5681 41.6606 74.5681C41.1806 74.6581 40.7006 74.7481 40.2106 74.8381C40.6606 74.5881 41.1106 74.3181 41.5506 74.0481Z" fill="#FCD30D"/>
</g>
</g>
</g>
<g id="Group_151" opacity="0.5">
<g id="Group_152" opacity="0.74">
<g id="Group_153">
<path id="Vector_85" d="M40.6165 76.6966C40.4965 76.4766 40.3366 76.2566 40.2966 76.0066C40.2766 75.9166 40.2666 75.8066 40.2266 75.7266C40.3666 75.8666 40.5066 76.0066 40.6566 76.1366C40.7966 76.2566 40.9466 76.3666 41.1266 76.3866C41.2766 76.4066 41.4266 76.3566 41.5766 76.3766C41.5966 76.3766 41.6166 76.3866 41.6266 76.4066C41.6466 76.4366 41.6365 76.4666 41.6165 76.4966C41.4865 76.7366 41.2366 76.8965 41.1266 77.1465C41.0266 77.3665 41.0466 77.6166 41.0666 77.8466L40.9966 77.9466C40.9166 77.5266 40.8265 77.0966 40.6165 76.6966Z" fill="#FCD30D"/>
</g>
</g>
</g>
<g id="Group_154">
<g id="Group_155" opacity="0.3">
<g id="Group_156">
<path id="Vector_86" d="M41.2541 78.5071C41.0441 78.6071 40.8941 78.8071 40.7341 78.9871C40.5541 79.1771 40.3541 79.3471 40.1541 79.5171C39.5741 80.0071 38.9941 80.4971 38.4141 80.9871C39.1841 80.2371 39.9541 79.4971 40.7341 78.7471C40.8041 78.6771 40.8741 78.6071 40.9641 78.5571C41.0441 78.5171 41.1241 78.4971 41.2041 78.4671C41.5141 78.3771 41.8241 78.2971 42.1341 78.2071C42.4241 78.1271 42.7141 78.0471 43.0041 78.0071C43.0941 77.9971 43.204 77.9871 43.274 78.0571C43.374 78.1471 43.3341 78.3271 43.4141 78.4371C43.4941 78.5371 43.644 78.5371 43.774 78.5271C44.164 78.4971 44.5441 78.4671 44.9341 78.4371C44.6741 78.5571 44.3541 78.4771 44.0941 78.5971C43.6741 78.7971 43.6141 79.4071 43.2541 79.6971C43.2141 79.3971 43.3341 79.0971 43.4741 78.8371C43.5141 78.7571 43.5541 78.6271 43.4741 78.5871C43.4141 78.5571 43.3441 78.6071 43.2941 78.6571C43.1341 78.8071 42.9741 78.9571 42.8241 79.0971C42.7141 79.1971 42.554 79.3171 42.424 79.2471C42.664 78.9271 42.904 78.6071 43.144 78.2871C43.164 78.2671 43.184 78.2371 43.174 78.2071C43.164 78.1571 43.0941 78.1471 43.0341 78.1571C42.5641 78.2371 42.104 78.3071 41.644 78.3871C41.524 78.4271 41.3841 78.4471 41.2541 78.5071Z" fill="#FCD30D"/>
</g>
</g>
<g id="Group_157" opacity="0.79">
<g id="Group_158">
<path id="Vector_87" d="M38.4141 80.9966C38.4241 80.9866 38.4241 80.9966 38.4141 80.9966V80.9966Z" fill="#E04601"/>
</g>
</g>
</g>
<g id="Group_159" opacity="0.5">
<g id="Group_160" opacity="0.5">
<g id="Group_161">
<path id="Vector_88" d="M42.3412 79.6978C42.4012 79.7578 42.4513 79.8178 42.5013 79.8778C42.5213 79.9078 42.5512 79.9378 42.5312 79.9678C42.5213 79.9878 42.5013 79.9978 42.4813 79.9978C41.8013 80.2278 41.1112 80.4178 40.4212 80.5878C40.3912 80.5978 40.3513 80.5978 40.3213 80.5778C40.3013 80.5578 40.3012 80.5378 40.3012 80.5078C40.2812 80.3478 40.2813 80.1878 40.2813 80.0278L40.4713 79.9878C40.4313 79.9978 40.3913 80.0078 40.3513 80.0078C40.8813 79.8378 41.4113 79.6978 41.9513 79.5678C42.0313 79.5478 42.1113 79.5378 42.1913 79.5578C42.2413 79.5978 42.2912 79.6478 42.3412 79.6978Z" fill="#D71F00"/>
</g>
</g>
<g id="Group_162">
<path id="Vector_89" d="M42.8535 80.6776L42.7734 80.5776C43.2334 80.2576 43.6435 79.8576 43.9835 79.4076C44.1135 79.2276 44.2335 79.0476 44.4135 78.9176C44.7435 78.6776 45.1934 78.6876 45.5634 78.5176C44.7334 79.0976 43.9935 79.7976 43.3535 80.5776C43.2835 80.6576 43.2134 80.7476 43.1134 80.7876C43.0134 80.8276 42.8735 80.7876 42.8535 80.6776Z" fill="#D71F00"/>
</g>
</g>
<g id="Group_163" opacity="0.5">
<g id="Group_164" opacity="0.79">
<g id="Group_165">
<path id="Vector_90" d="M42.2366 77.7358C42.4766 77.5258 42.7066 77.2758 42.7566 76.9658C42.7866 76.7458 42.7266 76.5258 42.6366 76.3258C42.4866 75.9858 42.2466 75.6858 41.9766 75.4258C42.2066 75.5958 42.4566 75.7158 42.7266 75.7858C42.8166 75.8058 42.9166 75.8258 42.9966 75.8858C43.1266 75.9958 43.1266 76.1858 43.1366 76.3458C43.1466 76.7958 43.1965 77.2458 43.3065 77.6958C42.9665 77.5658 42.5666 77.5858 42.2366 77.7358Z" fill="#FCD30D"/>
</g>
</g>
</g>
</g>
<g id="Group_166" opacity="0.2">
<g id="Group_167">
<path id="Vector_91" d="M42.7875 61.6382C42.5975 61.5482 42.3775 61.5481 42.1675 61.5581C39.1175 61.6181 36.0575 61.4181 33.0375 60.9781C31.5475 60.7581 30.0475 60.4781 28.6875 59.8281V60.2781C30.3975 64.9181 31.6475 69.7381 32.4275 74.6181C32.4875 75.0281 32.5875 75.4781 32.9275 75.7081C33.3975 76.0181 34.0175 75.6981 34.4775 75.3781C38.5975 72.4681 41.6875 68.1281 43.0975 63.2781C43.2775 62.6981 43.3375 61.9082 42.7875 61.6382Z" fill="#FCD30D"/>
</g>
</g>
<g id="Group_168" opacity="0.3">
<g id="Group_169">
<path id="Vector_92" d="M28.8694 60.4177C28.8794 60.4277 28.8894 60.4277 28.8994 60.4377C28.8894 60.4077 28.8794 60.3777 28.8594 60.3477L28.8694 60.4177Z" fill="white"/>
</g>
<g id="Group_170">
<path id="Vector_93" d="M41.3784 61.818C41.1484 61.478 40.6585 61.518 40.2585 61.568C37.2085 61.988 34.1185 61.528 31.0685 61.058C30.3185 60.948 29.5484 60.818 28.8984 60.418C29.7284 62.118 30.1285 63.9979 30.4785 65.8579C31.6885 72.1979 32.5484 78.6079 33.0584 85.0479C33.0884 85.3679 33.1184 85.708 33.2984 85.978C33.4784 86.238 33.7684 86.388 34.0584 86.508C35.3484 87.048 36.7984 87.188 38.1584 86.908C38.3184 86.878 38.4985 86.808 38.5385 86.658C38.5985 86.428 38.2984 86.2879 38.0784 86.2079C37.0484 85.8579 36.2884 84.9379 35.8784 83.9279C35.4684 82.9179 35.3685 81.818 35.2885 80.728C35.2285 79.738 35.1784 78.7479 35.2484 77.7679C35.4184 75.2279 36.3184 72.788 37.4184 70.498C38.5284 68.208 39.8484 66.0279 40.9684 63.7379C41.1584 63.3479 41.3484 62.938 41.4384 62.508C41.4984 62.278 41.5184 62.018 41.3784 61.818Z" fill="white"/>
</g>
</g>
<g id="Group_171">
<g id="Group_172">
<path id="Vector_94" d="M31.0959 62.3203L31.0859 62.4203C31.0959 62.4103 31.1059 62.3903 31.1159 62.3803C31.1059 62.3603 31.1059 62.3403 31.0959 62.3203Z" fill="white"/>
</g>
<g id="Group_173">
<path id="Vector_95" d="M31.064 62.6782L31.094 62.4082C31.034 62.4982 31.004 62.5982 31.064 62.6782Z" fill="white"/>
</g>
<g id="Group_174">
<path id="Vector_96" d="M33.1216 73.9386C33.2816 74.1886 33.6416 74.3386 33.8816 74.1686C34.0116 74.0686 34.0816 73.9086 34.1316 73.7586C34.8616 71.5286 34.6416 69.0986 35.0616 66.7886C35.2616 65.6686 35.6216 64.5486 35.5016 63.4186C35.4916 63.2686 35.4616 63.1086 35.3416 63.0086C35.2516 62.9286 35.1216 62.8986 35.0016 62.8786C33.8916 62.6786 32.7815 62.4886 31.6815 62.2886C31.5215 62.2586 31.3615 62.2386 31.2115 62.2986C31.1715 62.3186 31.1316 62.3486 31.1016 62.3786C32.2016 65.8386 32.8216 69.4586 32.9416 73.0886C32.9616 73.3786 32.9716 73.6886 33.1216 73.9386Z" fill="white"/>
</g>
<g id="Group_175">
<path id="Vector_97" d="M35.4716 85.3983C34.8416 84.9583 34.4516 84.2383 34.2316 83.5083C34.0116 82.7683 33.9316 81.9983 33.8116 81.2483C33.6416 80.2083 32.9616 77.2283 32.6016 76.2383C32.9616 78.7883 33.3716 82.5883 33.4416 84.5383C33.4416 84.5383 33.4915 85.3983 34.0515 85.9183C34.4115 86.2483 34.9216 86.3783 35.4116 86.4283C36.0316 86.4883 37.3616 86.7183 37.9716 86.5983C37.1316 86.2783 36.0216 85.7883 35.4716 85.3983Z" fill="white"/>
</g>
</g>
<g id="Group_176" opacity="0.8">
<g id="Group_177">
<path id="Vector_98" d="M51.2534 67.7576C51.1834 67.6476 51.0434 67.6076 50.9234 67.5876C50.2634 67.4476 49.5934 67.2976 48.9334 67.1576C48.6134 67.0876 48.2735 67.0176 47.9535 67.0876C47.3135 67.2176 46.9035 67.8176 46.3535 68.1576C45.6535 68.5776 44.7934 68.5676 43.9734 68.5276C43.2334 68.4976 42.4834 68.4676 41.7434 68.4476C41.3234 68.4276 40.8934 68.4076 40.5234 68.2276C40.2534 68.0876 40.0334 67.8676 39.7434 67.7776C39.4534 67.6876 39.0634 67.7776 39.0034 68.0676C38.9834 68.1676 39.0035 68.2776 38.9535 68.3676C38.8835 68.5176 38.6835 68.5476 38.5135 68.5576C36.8535 68.6276 35.1834 68.5976 33.5234 68.4776C34.3534 68.7176 35.2034 68.8776 36.0634 68.9376L35.5934 68.8976C40.6234 69.3876 45.7235 69.2076 50.7035 68.3476C51.0135 68.2776 51.4134 68.0276 51.2534 67.7576Z" fill="#D71F00"/>
</g>
</g>
<g id="Group_178" opacity="0.5">
<g id="Group_179">
<path id="Vector_99" d="M47.6825 84.7692L47.7825 84.8493C47.5225 84.7093 47.1925 84.6692 46.8825 84.6492C44.1325 84.4592 41.3725 84.4193 38.6225 84.5293C37.8325 84.5593 37.0025 84.6093 36.3125 84.9993C39.1925 85.0393 42.0725 85.0792 44.9525 85.1192C45.1725 85.1192 45.4525 85.1792 45.4825 85.3992C45.5125 85.6392 45.1925 85.7593 44.9525 85.7793C43.1425 85.9493 41.3325 86.0193 39.5125 85.9793C39.6525 86.2393 39.9925 86.3293 40.2825 86.3793C42.4725 86.7493 44.7325 86.7393 46.9225 86.3493C47.3525 86.2693 47.8325 86.1493 48.0825 85.7893C48.3225 85.3993 48.1225 84.7492 47.6825 84.7692Z" fill="#FF9B03"/>
</g>
</g>
<g id="Group_180" opacity="0.2">
<g id="Group_181">
<path id="Vector_100" d="M54.5772 59.5195L54.3672 59.8896C50.7672 60.6596 47.0872 61.0795 43.4072 61.1495C44.8672 62.2795 45.9572 63.8896 46.4472 65.6696C46.8072 66.9596 46.8572 68.3096 46.8372 69.6396C46.7872 72.4496 46.4072 75.2596 46.5372 78.0695C46.5972 79.3895 46.7672 80.7095 46.6872 82.0295C46.6072 83.3495 46.2472 84.6995 45.3772 85.6895C44.8272 86.3195 44.0972 86.7695 43.3672 87.1795C45.0872 87.2695 46.8272 87.0695 48.4772 86.5795C48.6672 86.5195 48.8672 86.4595 49.0072 86.3195C49.2772 86.0595 49.2872 85.6396 49.2772 85.2596C49.0172 76.4396 51.2572 67.6895 54.5772 59.5195Z" fill="#E23001"/>
</g>
</g>
<g id="Group_182" opacity="0.5">
<g id="Group_183">
<path id="Vector_101" d="M48.4905 61.5302C48.4305 61.5402 48.3605 61.5501 48.3105 61.5901C48.1305 61.7201 48.2505 62.0002 48.3705 62.2002C49.0805 63.3502 49.0805 64.7901 49.0505 66.1501C49.0105 68.3301 48.9705 70.5101 48.9405 72.6801C48.9305 73.2801 48.9205 73.8801 49.0505 74.4601C49.5105 74.3601 49.6505 73.7902 49.7205 73.3202C50.3105 68.9702 51.6305 64.7101 53.6205 60.8001L53.8105 60.6602C52.0305 60.9402 50.2605 61.2402 48.4905 61.5302Z" fill="#E23001"/>
</g>
</g>
<g id="Group_184" opacity="0.5">
<g id="Group_185">
<path id="Vector_102" d="M51.5197 69.0075C51.3797 69.7275 51.2797 70.4675 51.1397 71.1875C50.8797 72.5375 50.4597 73.8575 49.9097 75.1175C49.7197 75.5475 49.3097 76.0575 48.8897 75.8475C48.7597 75.7875 48.6797 75.6775 48.6197 75.5475C48.7397 76.0375 48.8097 76.5475 48.8197 77.0575C48.3797 79.5475 48.9197 82.2575 47.7497 84.4975C47.1997 85.5575 46.2697 86.4275 45.1797 86.9075C46.2897 87.1775 47.4397 86.9075 48.5497 86.6475C48.8297 86.5775 49.1197 86.5075 49.3197 86.3075C49.5897 86.0375 49.6397 85.6275 49.6697 85.2475C49.8497 82.9775 50.0297 80.7075 50.2097 78.4275C50.2797 77.5575 50.3497 76.6775 50.4597 75.8175C50.6897 73.9975 51.1097 72.2075 51.5297 70.4175C52.0097 68.3375 52.4997 66.2675 52.9797 64.1875C52.4097 65.7775 51.8497 67.3675 51.5197 69.0075Z" fill="#E23001"/>
</g>
</g>
<g id="Group_186" opacity="0.8">
<g id="Group_187">
<path id="Vector_103" d="M34.0332 82.5L34.2932 82.62C34.1232 82.44 33.8132 82.76 33.9332 82.99C34.0432 83.21 34.3332 83.27 34.5832 83.31C39.0032 83.91 43.5032 83.91 47.9232 83.29C48.3732 83.23 48.9432 83.03 48.9532 82.58C44.0632 83.73 38.9032 83.7 34.0332 82.5Z" fill="#D71F00"/>
</g>
</g>
</g>
</g>
</svg>
