<!-- <?xml version="1.0" encoding="UTF-8"?> -->
<svg id="Layer_2" data-name="Layer 2" xmlns="http://www.w3.org/2000/svg" xmlns:xlink="http://www.w3.org/1999/xlink" viewBox="0 0 144.12 144.12">
  <defs>
    <style>
      .cls-1 {
        fill: #212b46;
      }

      .cls-2 {
        fill: url(#linear-gradient);
      }
    </style>
    <linearGradient id="linear-gradient" x1="9.6" y1="78.13" x2="49.56" y2="37.85" gradientUnits="userSpaceOnUse">
      <stop offset="0" stop-color="#ffdc3c"/>
      <stop offset=".28" stop-color="#ffd339"/>
      <stop offset=".47" stop-color="#ffce37"/>
      <stop offset=".69" stop-color="#ffc033"/>
      <stop offset=".75" stop-color="#ffbb32"/>
      <stop offset="1" stop-color="#ffab2e"/>
    </linearGradient>
  </defs>
  <g id="Layer_1-2" data-name="Layer 1">
    <g>
      <path class="cls-1" d="m139.18,0H4.94C2.22,0,0,2.22,0,4.94v134.24c0,2.72,2.22,4.94,4.94,4.94h134.24c2.73,0,4.94-2.22,4.94-4.94V4.94c0-2.72-2.22-4.94-4.94-4.94Zm1.94,139.19c0,1.07-.87,1.94-1.94,1.94H4.94c-1.07,0-1.94-.87-1.94-1.94V4.95c0-1.07.87-1.94,1.94-1.94h0s134.24-.01,134.24-.01c1.07,0,1.94.87,1.94,1.94v134.25Z"/>
      <path class="cls-2" d="m10.04,36.05v12.98h14.76v40.48h14.82v-40.48h4.34l1.64-2.44c4.15-5.37,8.27-8.96,14.18-10.54H10.04Z"/>
      <g>
        <path class="cls-1" d="m45.28,78.36l20.01-15.28c4.97-3.89,6.88-6.42,6.88-9.62s-2.37-5.42-5.96-5.42-6.42,2.06-10.62,6.87l-11.71-5.78,1.7-2.54c5.73-7.41,11.38-11.46,21.77-11.46,11.68,0,19.7,6.95,19.7,17.03v.15c0,8.55-4.43,12.98-12.37,18.71l-9.17,6.42h22.07v12.07h-42.31v-11.15h.01Zm45.07,3.74l8.48-9.93c4.35,3.67,8.48,5.8,12.98,5.8,4.89,0,7.87-2.44,7.87-6.26v-.15c0-3.82-3.21-6.19-7.87-6.19-3.28,0-6.03,1.15-8.55,2.67l-8.78-4.89,1.53-27.11h35.74v12.22h-24.06l-.46,8.1c2.44-1.15,4.96-1.91,8.55-1.91,9.62,0,18.33,5.35,18.33,16.96v.15c0,11.91-9.09,19.02-22.07,19.02-9.47,0-16.11-3.28-21.69-8.48"/>
        <path class="cls-1" d="m17.4,109.16c-.15.3-.37.55-.66.76-.29.2-.63.35-1.03.45-.4.1-.85.15-1.34.15h-4.15v-8.82h4.05c.9,0,1.6.21,2.12.62.51.41.77.97.77,1.66v.03c0,.25-.03.47-.09.67-.06.19-.14.37-.25.52-.1.16-.22.29-.36.41-.14.12-.28.22-.44.3.5.19.9.46,1.19.79.29.33.44.79.44,1.38v.03c0,.4-.08.76-.23,1.06m-2.16-4.85c0-.29-.11-.52-.32-.67-.22-.15-.53-.23-.94-.23h-1.9v1.86h1.77c.42,0,.76-.07,1.01-.22s.37-.39.37-.71v-.02h.01Zm.49,3.53c0-.29-.11-.53-.34-.7-.22-.17-.59-.26-1.09-.26h-2.22v1.94h2.29c.42,0,.76-.08,1-.23s.36-.4.36-.72v-.03h0Z"/>
        <polygon class="cls-1" points="18.73 110.52 18.73 101.7 25.31 101.7 25.31 103.42 20.63 103.42 20.63 105.21 24.75 105.21 24.75 106.94 20.63 106.94 20.63 108.79 25.38 108.79 25.38 110.52 18.73 110.52"/>
        <polygon class="cls-1" points="31.06 103.49 31.06 110.52 29.14 110.52 29.14 103.49 26.48 103.49 26.48 101.7 33.72 101.7 33.72 103.49 31.06 103.49"/>
        <polygon class="cls-1" points="38.16 103.49 38.16 110.52 36.23 110.52 36.23 103.49 33.57 103.49 33.57 101.7 40.82 101.7 40.82 103.49 38.16 103.49"/>
        <polygon class="cls-1" points="42.04 110.52 42.04 101.7 48.63 101.7 48.63 103.42 43.94 103.42 43.94 105.21 48.06 105.21 48.06 106.94 43.94 106.94 43.94 108.79 48.69 108.79 48.69 110.52 42.04 110.52"/>
        <path class="cls-1" d="m54.97,110.52l-1.87-2.82h-1.51v2.82h-1.92v-8.82h4c1.04,0,1.85.26,2.43.77.58.51.87,1.23.87,2.14v.03c0,.71-.17,1.3-.52,1.75s-.8.78-1.36.99l2.14,3.15h-2.26Zm.04-5.81c0-.42-.13-.73-.4-.94-.27-.21-.64-.31-1.11-.31h-1.91v2.53h1.95c.48,0,.84-.11,1.09-.34s.38-.53.38-.91v-.02h0Z"/>
        <path class="cls-1" d="m68.39,109.16c-.15.3-.37.55-.66.76-.29.2-.63.35-1.03.45-.4.1-.85.15-1.34.15h-4.15v-8.82h4.05c.9,0,1.6.21,2.11.62.51.41.77.97.77,1.66v.03c0,.25-.03.47-.09.67-.06.19-.14.37-.25.52-.1.16-.22.29-.36.41-.14.12-.28.22-.44.3.5.19.9.46,1.19.79.29.33.43.79.43,1.38v.03c0,.4-.08.76-.23,1.06m-2.16-4.85c0-.29-.11-.52-.32-.67-.22-.15-.53-.23-.94-.23h-1.9v1.86h1.77c.42,0,.76-.07,1.01-.22s.37-.39.37-.71v-.02h.01Zm.49,3.53c0-.29-.11-.53-.34-.7-.22-.17-.59-.26-1.09-.26h-2.22v1.94h2.29c.42,0,.76-.08,1-.23s.36-.4.36-.72v-.03h0Z"/>
        <path class="cls-1" d="m76.93,108.42c-.18.5-.44.91-.77,1.24-.33.33-.74.58-1.21.74s-1,.25-1.59.25c-1.17,0-2.1-.33-2.77-.98-.68-.65-1.01-1.63-1.01-2.93v-5.04h1.92v4.99c0,.72.17,1.27.5,1.63.33.37.79.55,1.39.55s1.05-.18,1.39-.53c.33-.35.5-.88.5-1.59v-5.05h1.92v4.98c0,.67-.09,1.26-.27,1.75"/>
        <polygon class="cls-1" points="83.3 107 83.3 110.52 81.37 110.52 81.37 107.04 78.01 101.7 80.26 101.7 82.35 105.24 84.47 101.7 86.66 101.7 83.3 107"/>
        <polygon class="cls-1" points="94.57 103.49 94.57 110.52 92.64 110.52 92.64 103.49 89.98 103.49 89.98 101.7 97.23 101.7 97.23 103.49 94.57 103.49"/>
        <path class="cls-1" d="m103.76,110.52l-1.87-2.82h-1.51v2.82h-1.92v-8.82h4c1.04,0,1.85.26,2.43.77.58.51.87,1.23.87,2.14v.03c0,.71-.17,1.3-.52,1.75s-.8.78-1.36.99l2.14,3.15h-2.26Zm.04-5.81c0-.42-.13-.73-.4-.94-.27-.21-.64-.31-1.11-.31h-1.91v2.53h1.95c.48,0,.84-.11,1.09-.34s.38-.53.38-.91v-.02h0Z"/>
        <path class="cls-1" d="m114.24,110.52l-.8-1.98h-3.7l-.8,1.98h-1.96l3.75-8.88h1.77l3.75,8.88h-2.01Zm-2.65-6.55l-1.16,2.86h2.32l-1.16-2.86Z"/>
        <path class="cls-1" d="m125.08,107.85c-.23.54-.54,1-.96,1.4-.41.39-.9.71-1.47.93-.57.23-1.2.34-1.88.34h-3.41v-8.82h3.41c.68,0,1.31.11,1.88.33s1.06.53,1.47.93c.41.39.73.86.96,1.39.22.53.34,1.11.34,1.73v.02c0,.62-.11,1.2-.34,1.74m-1.67-1.74c0-.39-.06-.74-.19-1.07s-.31-.61-.54-.84c-.23-.24-.51-.42-.83-.55s-.68-.19-1.07-.19h-1.49v5.32h1.49c.39,0,.75-.06,1.07-.19s.6-.31.83-.54c.23-.24.41-.51.54-.83.13-.32.19-.68.19-1.07v-.04Z"/>
        <polygon class="cls-1" points="126.62 110.52 126.62 101.7 133.21 101.7 133.21 103.42 128.52 103.42 128.52 105.21 132.64 105.21 132.64 106.94 128.52 106.94 128.52 108.79 133.27 108.79 133.27 110.52 126.62 110.52"/>
      </g>
    </g>
  </g>
</svg>