<svg width="227" height="50" viewBox="0 0 227 50" fill="none" xmlns="http://www.w3.org/2000/svg">
<g clip-path="url(#clip0_2263_5400)">
<path d="M29.2949 24.7468C28.8092 27.2959 28.4233 29.4945 27.9609 31.6799C27.5584 33.5843 27.1159 35.4821 26.6934 37.3831C26.5138 38.1899 26.3375 38.9966 26.1612 39.8066C26.0115 40.5009 25.9716 41.2349 25.6356 41.8763C24.9503 43.1823 23.2803 43.1657 21.9962 43.2947C20.8618 43.4104 19.7175 43.4269 18.5798 43.341C16.3942 43.1823 14.2418 42.65 12.2359 41.7804C8.30709 40.081 4.9738 37.112 2.79485 33.4487C0.615897 29.7854 -0.402055 25.2229 0.156821 20.8752C0.29654 19.7874 0.529405 18.7096 0.845435 17.6582C3.8128 7.79575 13.7728 1.98672 23.1106 3.63983C31.883 5.19376 37.2555 10.5432 39.6307 18.984C39.7438 19.3907 39.7039 19.837 39.7538 20.4883H16.9031C16.6237 21.9596 16.3808 23.2358 16.0914 24.7468H29.2949Z" fill="#CB2026"/>
<path d="M143.921 0.0161944C142.411 -0.10283 141.928 0.426166 141.725 1.87099C141.22 5.43179 140.521 8.96614 139.882 12.603C138.199 12.603 136.709 12.5732 135.218 12.6096C128.642 12.7716 122.304 16.6399 121.034 23.8243C120.222 28.4034 121.18 32.7908 125.977 35.3564C127.075 35.9449 128.342 36.5202 129.55 36.5566C134.174 36.6954 138.808 36.6128 143.505 36.6128C145.657 24.4326 147.796 12.3286 149.965 0.0525629C147.777 0.0525629 145.84 0.168281 143.921 0.0161944ZM137.733 25.365C137.331 27.6761 136.852 29.9739 136.439 32.2816C136.293 33.0983 135.947 33.4619 135.032 33.4752C132.387 33.5082 130.684 32.4602 129.646 29.7557C128.169 25.9138 129.593 18.5046 134.739 16.5837C136.08 16.0811 137.574 15.9852 139.357 15.6315C138.758 19.2386 138.269 22.3067 137.733 25.365Z" fill="#CB2026"/>
<path d="M183.594 32.8172H196.391C196.268 33.8487 196.265 34.791 196.009 35.6572C195.879 36.0936 195.297 36.7152 194.914 36.7185C186.714 36.7813 178.517 36.7648 170.197 36.7648C170.084 35.0919 170.317 33.733 171.511 32.5361C177.004 27.0346 182.443 21.4801 187.912 15.9588C189.751 14.1007 190.483 11.8293 190.011 9.35292C189.825 8.3842 188.953 7.15428 188.075 6.78729C186.016 5.92437 182.619 5.66979 180.952 8.38089C179.529 10.6986 177.699 10.4737 175.54 10.239C176.375 6.94268 178.577 4.79033 181.558 3.56372C185.696 1.86433 190.004 1.742 194.279 3.16037C199.711 4.96226 201.471 10.682 199.123 15.4364C198.224 17.2482 196.82 18.8715 195.42 20.3726C191.894 24.145 188.238 27.795 184.642 31.5013C184.342 31.8121 184.099 32.1791 183.587 32.8205L183.594 32.8172Z" fill="#302929"/>
<path d="M198.816 36.1898C200.766 34.3548 202.739 32.543 204.665 30.6816C207.881 27.5738 211.072 24.4428 214.259 21.3052C214.648 20.925 214.981 20.472 215.273 20.0124C216.138 18.6503 215.732 17.4171 214.192 16.9013C213.527 16.6798 212.788 16.6103 212.08 16.6004C209.262 16.5674 206.441 16.5872 203.324 16.5872C203.477 15.5656 203.593 14.6828 203.743 13.81C204.192 11.1881 204.655 8.56961 205.107 5.94778C205.559 3.32594 206.684 2.37044 209.342 2.37044C214.774 2.37044 220.207 2.36383 225.639 2.36714C226.075 2.36714 226.507 2.40681 227 2.43326C226.893 3.48464 226.93 4.49634 226.637 5.40556C226.501 5.82545 225.736 6.2817 225.237 6.30154C222.968 6.39412 220.692 6.32468 218.42 6.34122C215.722 6.36105 215.26 6.74458 214.744 9.254C214.528 10.3054 214.299 11.3568 214.032 12.6098C216.042 12.6098 217.961 12.6528 219.877 12.5999C222.236 12.5305 224.235 13.1057 225.31 15.4102C226.361 17.6716 225.652 19.824 224.189 21.4804C221.168 24.9023 217.881 28.0929 214.708 31.3792C213.217 32.9232 211.75 34.4937 210.223 36.0046C209.868 36.3584 209.315 36.7188 208.846 36.7254C205.643 36.7882 202.436 36.7585 199.229 36.7585C199.093 36.57 198.956 36.3815 198.82 36.1931L198.816 36.1898Z" fill="#302929"/>
<path d="M92.7086 24.7532C94.525 23.2158 95.2402 18.8648 94.2389 16.2298C93.4239 14.0774 90.9588 12.6227 88.058 12.6095C84.1791 12.5929 80.3003 12.6227 76.4214 12.5698C75.46 12.5566 75.124 12.8211 74.9543 13.8229C74.0462 19.169 73.0149 24.4953 72.0535 29.8349C71.6543 32.0699 71.3217 34.3214 70.9258 36.7713C73.4474 36.7713 76.4314 36.8176 78.6902 36.7416C78.7811 36.3977 78.8532 36.109 78.9064 35.8754C79.2258 34.4901 79.3888 33.0684 79.6383 31.6632C80.0275 29.4547 80.4333 27.2461 80.909 24.6342C81.2783 25.2888 81.438 25.5104 81.5344 25.7583C82.8085 29.0282 84.056 32.3079 85.3634 35.5679C85.543 36.0175 85.6229 36.2159 85.8824 36.692C88.4006 36.7879 91.368 36.7449 94.1258 36.7449C92.6687 33.0419 91.3148 29.6002 89.9941 26.2476C91.0054 25.7054 91.9768 25.3682 92.7086 24.7532ZM86.4179 22.3959C85.4565 24.1118 84.7413 24.3333 80.9556 24.135C81.4479 21.4139 81.9403 18.7095 82.436 15.9785C84.096 15.9388 85.6661 15.4694 86.6375 17.096C87.712 18.8946 87.386 20.6734 86.4179 22.3959Z" fill="#CB2026"/>
<path d="M170.135 12.6091C169.999 13.5977 170.035 14.411 169.739 15.0822C169.569 15.469 168.874 15.8327 168.402 15.8525C166.19 15.9451 163.971 15.955 161.755 15.9153C160.202 15.8889 159.393 16.6196 159.147 18.0842C158.917 19.4695 158.685 20.8548 158.418 22.4749H166.11C166.11 23.2122 166.11 23.7445 166.11 24.2768C166.11 25.4935 165.631 25.9993 164.287 25.9134C162.198 25.7778 160.088 25.877 157.77 25.877C157.444 27.788 157.051 29.6064 156.848 31.4447C156.692 32.8498 157.667 33.402 158.931 33.4284C160.923 33.4681 162.919 33.4449 164.912 33.4449C165.511 33.4449 166.11 33.4449 166.639 33.4449C166.755 33.6797 166.842 33.7723 166.842 33.8648C166.818 36.7644 166.818 36.7545 163.974 36.7445C160.152 36.7313 156.329 36.7379 152.507 36.7412C150.032 36.7412 148.708 35.6171 148.911 33.1308C149.157 30.0825 149.753 27.0606 150.248 24.0354C150.628 21.7145 151.186 19.4199 151.492 17.0891C151.895 14.0308 153.299 12.629 156.326 12.6157C160.86 12.5992 165.394 12.6124 170.128 12.6124L170.135 12.6091Z" fill="#CB2026"/>
<path d="M118.908 35.9975C117.618 28.942 116.34 21.8832 115.013 14.831C114.517 12.2026 113.396 11.4223 110.742 11.6042C108.942 11.7298 108.054 12.9366 107.315 14.345C104.088 20.5078 100.861 26.6706 97.6446 32.84C97.0192 34.0369 96.447 35.2602 95.7617 36.6455C97.5049 36.7612 99.0618 36.672 99.2713 36.6587C99.5408 36.1397 99.8834 35.5115 100.512 34.1262C100.875 33.336 101.267 32.5524 101.726 31.8118C101.899 31.5308 102.292 31.2068 102.588 31.2035C105.176 31.1539 107.764 31.1737 110.442 31.1737C110.718 32.84 110.928 34.3477 111.234 35.8355C111.307 36.176 111.36 36.3017 111.463 36.7149C113.756 36.7844 116.803 36.7546 119.058 36.7546C118.948 36.2653 118.935 36.1496 118.908 35.9975ZM103.623 27.679C104.883 25.2985 105.928 23.1032 107.195 21.0434C107.681 20.2499 108.679 20.3822 108.899 21.4237C109.318 23.4305 109.554 25.4738 109.897 27.679H103.623Z" fill="#CB2026"/>
<path d="M55.6754 15.8863C53.6595 15.8863 51.8963 15.8797 50.1365 15.8863C48.1273 15.8963 47.9709 15.6946 48.4998 13.7009C48.583 13.3868 48.6994 13.0761 48.8259 12.6826H71.5202C71.5568 12.9174 71.6333 13.0827 71.6 13.2215C71.1432 15.0003 69.9423 15.8874 67.9973 15.883C67.4451 15.883 66.8895 15.883 66.3373 15.883C63.4032 15.893 63.4664 15.9029 62.9707 18.8752C62.0226 24.542 61.0014 30.199 59.9668 35.8493C59.9069 36.1766 59.8869 36.2494 59.7971 36.6924C57.4319 36.7585 54.4978 36.7321 52.0094 36.7321C53.237 29.7593 54.4312 22.9749 55.6787 15.883L55.6754 15.8863Z" fill="#CB2026"/>
<path d="M101.041 44.6369V44.0881C101.041 43.2615 100.296 42.8516 98.8091 42.8516C97.3221 42.8516 96.5703 43.2615 96.5703 44.0881V46.8719C96.5703 47.143 96.6302 47.3546 96.8331 47.5728C97.1059 47.8936 97.718 48.0919 98.8025 48.1018C100.296 48.1018 101.041 47.6919 101.041 46.8719V46.3066H100.429V46.8025C100.429 47.4307 99.887 47.7415 98.8091 47.7382C97.7247 47.7382 97.1824 47.4241 97.1824 46.8025V44.1575C97.1824 43.5293 97.7247 43.2186 98.8091 43.2186C99.887 43.2219 100.429 43.5359 100.429 44.1575V44.6369H101.041Z" fill="#302929"/>
<path d="M104.79 42.8577C103.852 42.8577 103.25 43.0561 102.98 43.4495V40.96H102.375V48.0485H102.98V44.1637C102.98 43.5355 103.523 43.2214 104.607 43.2214C105.692 43.228 106.234 43.5388 106.234 44.1637V48.0485H106.846V44.0943C106.846 43.2677 106.161 42.8577 104.79 42.8577Z" fill="#302929"/>
<path d="M112.212 43.1756C111.89 42.9574 111.298 42.8516 110.409 42.8516C108.556 42.8516 108.174 43.3012 108.174 44.055V44.508H108.786V44.1145C108.786 43.8963 108.826 43.7277 108.912 43.6054C109.069 43.3607 109.528 43.2119 110.409 43.2119C111.727 43.2351 112.033 43.4764 112.033 44.1145V45.0271H110.409C109.508 45.0271 108.912 45.1163 108.596 45.3081C108.28 45.5032 108.174 45.7181 108.174 46.052V47.0736C108.174 47.7018 108.573 48.1018 110.253 48.1018C111.178 48.1085 111.77 47.9134 112.033 47.5233L112.069 48.0489H112.645V44.055C112.645 43.6583 112.532 43.3905 112.212 43.1756ZM112.033 46.8223C112.033 47.4406 111.49 47.7514 110.409 47.7514C109.065 47.7382 108.786 47.5133 108.786 47.024V46.095C108.786 45.9263 108.826 45.7941 108.912 45.6949C109.069 45.4965 109.538 45.3676 110.409 45.3676H112.033V46.8223Z" fill="#302929"/>
<path d="M116.397 42.8516C115.456 42.8516 114.853 43.0499 114.584 43.4467L114.551 42.9177H113.979V48.0489H114.584V44.1575C114.584 43.5293 115.126 43.2186 116.211 43.2186C117.295 43.2219 117.837 43.5359 117.837 44.1575V48.0489H118.45V44.0881C118.45 43.2615 117.764 42.8516 116.397 42.8516Z" fill="#302929"/>
<path d="M123.668 42.9177L123.638 43.4467C123.362 43.0499 122.757 42.8516 121.805 42.8516C120.185 42.8516 119.779 43.4764 119.779 44.0881V46.4256C119.773 47.2521 120.455 47.6621 121.822 47.6621C122.763 47.6687 123.362 47.4803 123.638 47.1034V48.6308C123.638 49.2524 123.096 49.5665 122.015 49.5665C120.934 49.5665 120.388 49.2524 120.388 48.6308V47.9035H119.779V48.7003C119.779 48.9714 119.836 49.1863 120.042 49.4012C120.315 49.7153 120.927 49.9203 122.012 49.9302C123.502 49.9302 124.25 49.5202 124.25 48.7003V42.9177H123.668ZM123.638 46.3628C123.638 46.9843 123.096 47.2951 122.015 47.2951C120.934 47.2951 120.388 46.9843 120.388 46.3628V44.1575C120.388 43.5293 120.93 43.2186 122.015 43.2186C123.096 43.2219 123.638 43.5359 123.638 44.1575V46.3628Z" fill="#302929"/>
<path d="M130.049 45.6552V44.0881C130.049 43.2615 129.304 42.8516 127.817 42.8516C126.33 42.8516 125.578 43.2615 125.578 44.0881V46.8719C125.578 47.143 125.638 47.3546 125.841 47.5728C126.114 47.8936 126.726 48.0919 127.81 48.1018C129.304 48.1018 130.049 47.6919 130.049 46.8719V46.3562H129.437V46.8025C129.437 47.4307 128.895 47.7415 127.817 47.7382C126.732 47.7382 126.19 47.4241 126.19 46.8025V45.6552H130.049ZM126.19 44.1575C126.19 43.5293 126.732 43.2186 127.817 43.2186C128.901 43.2186 129.437 43.5293 129.437 44.1575V45.2949H126.19V44.1575Z" fill="#302929"/>
<path d="M135.089 42.7325V41.5654H134.477V42.7325H133.842V43.0995H134.477V48.0489H135.089V43.0995H136.739V42.7325H135.089Z" fill="#302929"/>
<path d="M140.684 42.8577C139.743 42.8577 139.141 43.0561 138.874 43.4495V40.96H138.266V48.0485H138.874V44.1637C138.874 43.5355 139.417 43.2214 140.501 43.2214C141.586 43.228 142.125 43.5388 142.125 44.1637V48.0485H142.737V44.0943C142.737 43.2677 142.051 42.8577 140.684 42.8577Z" fill="#302929"/>
<path d="M148.539 45.6552V44.0881C148.539 43.2615 147.794 42.8516 146.307 42.8516C144.82 42.8516 144.068 43.2615 144.068 44.0881V46.8719C144.068 47.143 144.128 47.3546 144.331 47.5728C144.604 47.8936 145.216 48.0919 146.301 48.1018C147.794 48.1018 148.539 47.6919 148.539 46.8719V46.3562H147.927V46.8025C147.927 47.4307 147.385 47.7415 146.307 47.7382C145.223 47.7382 144.68 47.4241 144.68 46.8025V45.6552H148.539ZM144.68 44.1575C144.68 43.5293 145.223 43.2186 146.307 43.2186C147.392 43.2186 147.927 43.5293 147.927 44.1575V45.2949H144.68V44.1575Z" fill="#302929"/>
<path d="M159.6 42.918L158.396 47.6888H157.82L156.556 42.918H155.821L154.593 47.6888H154.014L152.777 42.918H152.158L153.479 48.0492H154.979L156.187 43.4404L157.431 48.0492H158.935L160.215 42.918H159.6Z" fill="#302929"/>
<path d="M165.101 43.1756C164.778 42.9574 164.186 42.8516 163.295 42.8516C161.445 42.8516 161.062 43.3012 161.062 44.055V44.508H161.675V44.1145C161.675 43.8963 161.715 43.7277 161.798 43.6054C161.957 43.3607 162.416 43.2119 163.295 43.2119C164.612 43.2351 164.921 43.4764 164.921 44.1145V45.0271H163.295C162.393 45.0271 161.798 45.1163 161.485 45.3081C161.166 45.5032 161.062 45.7181 161.062 46.052V47.0736C161.062 47.7018 161.458 48.1018 163.142 48.1018C164.066 48.1085 164.659 47.9134 164.921 47.5233L164.958 48.0489H165.534V44.055C165.534 43.6583 165.42 43.3905 165.101 43.1756ZM164.921 46.8223C164.921 47.4406 164.379 47.7514 163.295 47.7514C161.954 47.7382 161.675 47.5133 161.675 47.024V46.095C161.675 45.9263 161.715 45.7941 161.798 45.6949C161.957 45.4965 162.423 45.3676 163.295 45.3676H164.921V46.8223Z" fill="#302929"/>
<path d="M170.439 42.918L169.251 47.6889L166.992 42.918H166.377L169.078 48.36L168.669 49.9999H169.271L171.061 42.918H170.439Z" fill="#302929"/>
<path d="M178.583 42.917L177.395 47.6879L175.136 42.917H174.518L177.232 48.3194L176.813 49.9989H177.412L179.205 42.917H178.583Z" fill="#302929"/>
<path d="M182.288 42.8516C180.794 42.8516 180.049 43.2615 180.049 44.0881V46.8719C180.049 47.143 180.109 47.3546 180.312 47.5728C180.584 47.9002 181.193 48.0985 182.288 48.1018C182.993 48.1018 183.542 48.0093 183.864 47.8539C184.367 47.6191 184.52 47.2488 184.52 46.8719V44.0881C184.52 43.2615 183.775 42.8516 182.288 42.8516ZM183.908 46.8025C183.908 47.4307 183.366 47.7415 182.288 47.7415C181.21 47.7415 180.661 47.4307 180.661 46.8025V44.1575C180.661 43.5293 181.203 43.2186 182.288 43.2186C183.366 43.2219 183.908 43.5359 183.908 44.1575V46.8025Z" fill="#302929"/>
<path d="M189.642 42.917V46.8051C189.642 47.4333 189.1 47.7441 188.015 47.7408C186.931 47.7408 186.392 47.43 186.392 46.8051V42.917H185.783V46.8712C185.783 47.6978 186.465 48.1078 187.832 48.1078C188.774 48.1078 189.376 47.9094 189.642 47.5126L189.679 48.0483H190.254V42.917H189.642Z" fill="#302929"/>
<path d="M198.44 43.2379C198.15 42.99 197.585 42.8511 196.806 42.8511C195.858 42.8511 195.249 43.0396 194.977 43.4165V40.96H194.371V48.0485H194.943L194.977 47.5129C195.239 47.903 195.851 48.1014 196.806 48.1014C198.167 48.1014 198.842 47.6914 198.842 46.8715V44.0876C198.842 43.7504 198.726 43.4859 198.44 43.2379ZM198.23 46.8021C198.23 47.4302 197.688 47.741 196.6 47.741C195.519 47.7377 194.977 47.4236 194.977 46.8021V44.1571C194.977 43.5289 195.519 43.2181 196.6 43.2181C197.688 43.2214 198.23 43.5355 198.23 44.1571V46.8021Z" fill="#302929"/>
<path d="M203.972 42.918V46.8061C203.972 47.4343 203.429 47.7451 202.345 47.7417C201.26 47.7417 200.718 47.431 200.718 46.8061V42.918H200.109V46.8722C200.109 47.6988 200.791 48.1087 202.159 48.1087C203.1 48.1087 203.702 47.9104 203.972 47.5136L204.005 48.0492H204.58V42.918H203.972Z" fill="#302929"/>
<path d="M209.812 42.918L208.624 47.6889L206.365 42.918H205.75L208.408 48.5419L208.042 49.9999H208.644L210.434 42.918H209.812Z" fill="#302929"/>
</g>
<defs>
<clipPath id="clip0_2263_5400">
<rect width="227" height="50" fill="white"/>
</clipPath>
</defs>
</svg>
