<svg width="227" height="50" viewBox="0 0 227 50" fill="none" xmlns="http://www.w3.org/2000/svg">
<path d="M29.1607 24.7468C28.6771 27.2959 28.2929 29.4945 27.8325 31.6799C27.4318 33.5843 26.9912 35.4821 26.5706 37.3831C26.3918 38.1899 26.2162 38.9966 26.0407 39.8066C25.8916 40.5009 25.8519 41.2349 25.5174 41.8763C24.8351 43.1823 23.1724 43.1657 21.894 43.2947C20.7646 43.4104 19.6252 43.4269 18.4925 43.341C16.3165 43.1823 14.1736 42.65 12.1764 41.7804C8.26485 40.081 4.94617 37.112 2.77676 33.4487C0.607364 29.7854 -0.406127 25.2229 0.1503 20.8752C0.289406 19.7874 0.521251 18.7096 0.835897 17.6582C3.79026 7.79575 13.7066 1.98672 23.0035 3.63983C31.7374 5.19376 37.0864 10.5432 39.4512 18.984C39.5638 19.3907 39.5241 19.837 39.5738 20.4883H16.8232C16.545 21.9596 16.3032 23.2358 16.0151 24.7468H29.1607Z" fill="#CB2026"/>
<path d="M143.284 0.0161944C141.781 -0.10283 141.3 0.426166 141.098 1.87099C140.595 5.43179 139.899 8.96614 139.263 12.603C137.588 12.603 136.104 12.5732 134.62 12.6096C128.072 12.7716 121.763 16.6399 120.497 23.8243C119.689 28.4034 120.643 32.7908 125.419 35.3564C126.512 35.9449 127.774 36.5202 128.976 36.5566C133.58 36.6954 138.194 36.6128 142.87 36.6128C145.013 24.4326 147.143 12.3286 149.302 0.0525629C147.123 0.0525629 145.195 0.168281 143.284 0.0161944ZM137.124 25.365C136.723 27.6761 136.246 29.9739 135.836 32.2816C135.69 33.0983 135.345 33.4619 134.435 33.4752C131.801 33.5082 130.106 32.4602 129.072 29.7557C127.602 25.9138 129.019 18.5046 134.143 16.5837C135.478 16.0811 136.965 15.9852 138.74 15.6315C138.144 19.2386 137.657 22.3067 137.124 25.365Z" fill="#CB2026"/>
<path d="M182.785 32.8172H195.526C195.404 33.8487 195.401 34.791 195.146 35.6572C195.016 36.0936 194.437 36.7152 194.056 36.7185C185.892 36.7813 177.731 36.7648 169.447 36.7648C169.335 35.0919 169.567 33.733 170.756 32.5361C176.224 27.0346 181.639 21.4801 187.084 15.9588C188.916 14.1007 189.644 11.8293 189.174 9.35292C188.988 8.3842 188.121 7.15428 187.246 6.78729C185.196 5.92437 181.815 5.66979 180.155 8.38089C178.738 10.6986 176.916 10.4737 174.766 10.239C175.598 6.94268 177.79 4.79033 180.758 3.56372C184.878 1.86433 189.167 1.742 193.423 3.16037C198.832 4.96226 200.584 10.682 198.246 15.4364C197.351 17.2482 195.954 18.8715 194.559 20.3726C191.049 24.145 187.409 27.795 183.828 31.5013C183.53 31.8121 183.288 32.1791 182.778 32.8205L182.785 32.8172Z" fill="white"/>
<path d="M197.939 36.1898C199.88 34.3548 201.844 32.543 203.762 30.6816C206.965 27.5738 210.141 24.4428 213.314 21.3052C213.702 20.925 214.033 20.472 214.324 20.0124C215.185 18.6503 214.781 17.4171 213.248 16.9013C212.585 16.6798 211.85 16.6103 211.145 16.6004C208.339 16.5674 205.531 16.5872 202.427 16.5872C202.58 15.5656 202.696 14.6828 202.845 13.81C203.292 11.1881 203.752 8.56961 204.203 5.94778C204.653 3.32594 205.772 2.37044 208.419 2.37044C213.827 2.37044 219.236 2.36383 224.645 2.36714C225.078 2.36714 225.509 2.40681 225.999 2.43326C225.893 3.48464 225.93 4.49634 225.638 5.40556C225.502 5.82545 224.741 6.2817 224.244 6.30154C221.985 6.39412 219.72 6.32468 217.457 6.34122C214.771 6.36105 214.311 6.74458 213.798 9.254C213.582 10.3054 213.354 11.3568 213.089 12.6098C215.089 12.6098 217 12.6528 218.908 12.5999C221.256 12.5305 223.247 13.1057 224.317 15.4102C225.363 17.6716 224.658 19.824 223.201 21.4804C220.193 24.9023 216.921 28.0929 213.761 31.3792C212.277 32.9232 210.817 34.4937 209.297 36.0046C208.942 36.3584 208.392 36.7188 207.925 36.7254C204.736 36.7882 201.543 36.7585 198.35 36.7585C198.214 36.57 198.079 36.3815 197.943 36.1931L197.939 36.1898Z" fill="white"/>
<path d="M92.2968 24.7532C94.1051 23.2158 94.8172 18.8648 93.8203 16.2298C93.0089 14.0774 90.5546 12.6227 87.6665 12.6095C83.8046 12.5929 79.9428 12.6227 76.0809 12.5698C75.1237 12.5566 74.7892 12.8211 74.6203 13.8229C73.7161 19.169 72.6893 24.4953 71.7322 29.8349C71.3347 32.0699 71.0035 34.3214 70.6094 36.7713C73.1199 36.7713 76.0908 36.8176 78.3397 36.7416C78.4303 36.3977 78.502 36.109 78.555 35.8754C78.873 34.4901 79.0353 33.0684 79.2837 31.6632C79.6712 29.4547 80.0753 27.2461 80.5489 24.6342C80.9165 25.2888 81.0755 25.5104 81.1715 25.7583C82.4401 29.0282 83.6821 32.3079 84.9837 35.5679C85.1626 36.0175 85.2421 36.2159 85.5004 36.692C88.0076 36.7879 90.962 36.7449 93.7077 36.7449C92.257 33.0419 90.909 29.6002 89.5941 26.2476C90.601 25.7054 91.5681 25.3682 92.2968 24.7532ZM86.0336 22.3959C85.0765 24.1118 84.3644 24.3333 80.5952 24.135C81.0854 21.4139 81.5756 18.7095 82.0691 15.9785C83.7218 15.9388 85.2851 15.4694 86.2522 17.096C87.322 18.8946 86.9975 20.6734 86.0336 22.3959Z" fill="#CB2026"/>
<path d="M169.384 12.6091C169.248 13.5977 169.284 14.411 168.989 15.0822C168.821 15.469 168.128 15.8327 167.658 15.8525C165.456 15.9451 163.246 15.955 161.041 15.9153C159.494 15.8889 158.689 16.6196 158.444 18.0842C158.215 19.4695 157.984 20.8548 157.719 22.4749H165.376C165.376 23.2122 165.376 23.7445 165.376 24.2768C165.376 25.4935 164.899 25.9993 163.561 25.9134C161.481 25.7778 159.381 25.877 157.073 25.877C156.748 27.788 156.357 29.6064 156.155 31.4447C156 32.8498 156.97 33.402 158.229 33.4284C160.213 33.4681 162.2 33.4449 164.184 33.4449C164.78 33.4449 165.376 33.4449 165.903 33.4449C166.019 33.6797 166.105 33.7723 166.105 33.8648C166.081 36.7644 166.082 36.7545 163.25 36.7445C159.444 36.7313 155.639 36.7379 151.833 36.7412C149.369 36.7412 148.051 35.6171 148.253 33.1308C148.498 30.0825 149.091 27.0606 149.584 24.0354C149.962 21.7145 150.518 19.4199 150.823 17.0891C151.224 14.0308 152.621 12.629 155.635 12.6157C160.15 12.5992 164.664 12.6124 169.377 12.6124L169.384 12.6091Z" fill="#CB2026"/>
<path d="M118.381 35.9975C117.096 28.942 115.824 21.8832 114.503 14.831C114.009 12.2026 112.893 11.4223 110.25 11.6042C108.458 11.7298 107.574 12.9366 106.839 14.345C103.626 20.5078 100.413 26.6706 97.2106 32.84C96.5879 34.0369 96.0182 35.2602 95.3359 36.6455C97.0715 36.7612 98.6215 36.672 98.8302 36.6587C99.0984 36.1397 99.4396 35.5115 100.066 34.1262C100.427 33.336 100.817 32.5524 101.274 31.8118C101.447 31.5308 101.838 31.2068 102.132 31.2035C104.709 31.1539 107.286 31.1737 109.952 31.1737C110.227 32.84 110.436 34.3477 110.74 35.8355C110.813 36.176 110.866 36.3017 110.969 36.7149C113.251 36.7844 116.285 36.7546 118.53 36.7546C118.421 36.2653 118.408 36.1496 118.381 35.9975ZM103.162 27.679C104.418 25.2985 105.458 23.1032 106.72 21.0434C107.203 20.2499 108.197 20.3822 108.415 21.4237C108.833 23.4305 109.068 25.4738 109.409 27.679H103.162Z" fill="#CB2026"/>
<path d="M55.426 15.8863C53.4189 15.8863 51.6635 15.8797 49.9114 15.8863C47.911 15.8963 47.7553 15.6946 48.2819 13.7009C48.3647 13.3868 48.4806 13.0761 48.6065 12.6826H71.2014C71.2378 12.9174 71.314 13.0827 71.2809 13.2215C70.826 15.0003 69.6303 15.8874 67.6939 15.883C67.1441 15.883 66.591 15.883 66.0412 15.883C63.1199 15.893 63.1829 15.9029 62.6894 18.8752C61.7454 24.542 60.7286 30.199 59.6986 35.8493C59.639 36.1766 59.6191 36.2494 59.5297 36.6924C57.1748 36.7585 54.2536 36.7321 51.7761 36.7321C52.9983 29.7593 54.1873 22.9749 55.4293 15.883L55.426 15.8863Z" fill="#CB2026"/>
<path d="M100.592 44.6369V44.0881C100.592 43.2615 99.8501 42.8516 98.3696 42.8516C96.8891 42.8516 96.1406 43.2615 96.1406 44.0881V46.8719C96.1406 47.143 96.2002 47.3546 96.4023 47.5728C96.6739 47.8936 97.2833 48.0919 98.363 48.1018C99.8501 48.1018 100.592 47.6919 100.592 46.8719V46.3066H99.9826V46.8025C99.9826 47.4307 99.4427 47.7415 98.3696 47.7382C97.2899 47.7382 96.75 47.4241 96.75 46.8025V44.1575C96.75 43.5293 97.2899 43.2186 98.3696 43.2186C99.4427 43.2219 99.9826 43.5359 99.9826 44.1575V44.6369H100.592Z" fill="white"/>
<path d="M104.324 42.8587C103.39 42.8587 102.791 43.0571 102.523 43.4505V40.9609H101.92V48.0495H102.523V44.1647C102.523 43.5365 103.063 43.2224 104.142 43.2224C105.222 43.229 105.762 43.5398 105.762 44.1647V48.0495H106.371V44.0952C106.371 43.2687 105.689 42.8587 104.324 42.8587Z" fill="white"/>
<path d="M111.714 43.1756C111.393 42.9574 110.803 42.8516 109.919 42.8516C108.074 42.8516 107.693 43.3012 107.693 44.055V44.508H108.303V44.1145C108.303 43.8963 108.343 43.7277 108.429 43.6054C108.584 43.3607 109.041 43.2119 109.919 43.2119C111.231 43.2351 111.535 43.4764 111.535 44.1145V45.0271H109.919C109.021 45.0271 108.429 45.1163 108.114 45.3081C107.799 45.5032 107.693 45.7181 107.693 46.052V47.0736C107.693 47.7018 108.091 48.1018 109.763 48.1018C110.684 48.1085 111.274 47.9134 111.535 47.5233L111.572 48.0489H112.145V44.055C112.145 43.6583 112.032 43.3905 111.714 43.1756ZM111.535 46.8223C111.535 47.4406 110.995 47.7514 109.919 47.7514C108.581 47.7382 108.303 47.5133 108.303 47.024V46.095C108.303 45.9263 108.343 45.7941 108.429 45.6949C108.584 45.4965 109.051 45.3676 109.919 45.3676H111.535V46.8223Z" fill="white"/>
<path d="M115.881 42.8516C114.943 42.8516 114.344 43.0499 114.075 43.4467L114.042 42.9177H113.473V48.0489H114.075V44.1575C114.075 43.5293 114.615 43.2186 115.695 43.2186C116.775 43.2219 117.315 43.5359 117.315 44.1575V48.0489H117.924V44.0881C117.924 43.2615 117.242 42.8516 115.881 42.8516Z" fill="white"/>
<path d="M123.12 42.9177L123.09 43.4467C122.815 43.0499 122.212 42.8516 121.265 42.8516C119.652 42.8516 119.248 43.4764 119.248 44.0881V46.4256C119.241 47.2521 119.92 47.6621 121.282 47.6621C122.219 47.6687 122.815 47.4803 123.09 47.1034V48.6308C123.09 49.2524 122.55 49.5665 121.474 49.5665C120.397 49.5665 119.854 49.2524 119.854 48.6308V47.9035H119.248V48.7003C119.248 48.9714 119.304 49.1863 119.51 49.4012C119.781 49.7153 120.391 49.9203 121.47 49.9302C122.954 49.9302 123.7 49.5202 123.7 48.7003V42.9177H123.12ZM123.09 46.3628C123.09 46.9843 122.55 47.2951 121.474 47.2951C120.397 47.2951 119.854 46.9843 119.854 46.3628V44.1575C119.854 43.5293 120.394 43.2186 121.474 43.2186C122.55 43.2219 123.09 43.5359 123.09 44.1575V46.3628Z" fill="white"/>
<path d="M129.473 45.6552V44.0881C129.473 43.2615 128.731 42.8516 127.251 42.8516C125.77 42.8516 125.021 43.2615 125.021 44.0881V46.8719C125.021 47.143 125.081 47.3546 125.283 47.5728C125.555 47.8936 126.164 48.0919 127.244 48.1018C128.731 48.1018 129.473 47.6919 129.473 46.8719V46.3562H128.863V46.8025C128.863 47.4307 128.324 47.7415 127.251 47.7382C126.171 47.7382 125.631 47.4241 125.631 46.8025V45.6552H129.473ZM125.631 44.1575C125.631 43.5293 126.171 43.2186 127.251 43.2186C128.33 43.2186 128.863 43.5293 128.863 44.1575V45.2949H125.631V44.1575Z" fill="white"/>
<path d="M134.492 42.7335V41.5664H133.883V42.7335H133.25V43.1005H133.883V48.0499H134.492V43.1005H136.135V42.7335H134.492Z" fill="white"/>
<path d="M140.062 42.8587C139.125 42.8587 138.525 43.0571 138.26 43.4505V40.9609H137.654V48.0495H138.26V44.1647C138.26 43.5365 138.8 43.2224 139.88 43.2224C140.96 43.229 141.496 43.5398 141.496 44.1647V48.0495H142.106V44.0952C142.106 43.2687 141.423 42.8587 140.062 42.8587Z" fill="white"/>
<path d="M147.881 45.6552V44.0881C147.881 43.2615 147.139 42.8516 145.659 42.8516C144.178 42.8516 143.43 43.2615 143.43 44.0881V46.8719C143.43 47.143 143.489 47.3546 143.691 47.5728C143.963 47.8936 144.572 48.0919 145.652 48.1018C147.139 48.1018 147.881 47.6919 147.881 46.8719V46.3562H147.272V46.8025C147.272 47.4307 146.732 47.7415 145.659 47.7382C144.579 47.7382 144.039 47.4241 144.039 46.8025V45.6552H147.881ZM144.039 44.1575C144.039 43.5293 144.579 43.2186 145.659 43.2186C146.738 43.2186 147.272 43.5293 147.272 44.1575V45.2949H144.039V44.1575Z" fill="white"/>
<path d="M158.893 42.918L157.694 47.6888H157.122L155.863 42.918H155.131L153.909 47.6888H153.333L152.1 42.918H151.484L152.799 48.0492H154.293L155.495 43.4404L156.734 48.0492H158.231L159.506 42.918H158.893Z" fill="white"/>
<path d="M164.372 43.1756C164.051 42.9574 163.462 42.8516 162.574 42.8516C160.732 42.8516 160.352 43.3012 160.352 44.055V44.508H160.961V44.1145C160.961 43.8963 161.001 43.7277 161.084 43.6054C161.243 43.3607 161.7 43.2119 162.574 43.2119C163.886 43.2351 164.194 43.4764 164.194 44.1145V45.0271H162.574C161.676 45.0271 161.084 45.1163 160.772 45.3081C160.454 45.5032 160.352 45.7181 160.352 46.052V47.0736C160.352 47.7018 160.746 48.1018 162.422 48.1018C163.342 48.1085 163.932 47.9134 164.194 47.5233L164.23 48.0489H164.803V44.055C164.803 43.6583 164.69 43.3905 164.372 43.1756ZM164.194 46.8223C164.194 47.4406 163.654 47.7514 162.574 47.7514C161.239 47.7382 160.961 47.5133 160.961 47.024V46.095C160.961 45.9263 161.001 45.7941 161.084 45.6949C161.243 45.4965 161.706 45.3676 162.574 45.3676H164.194V46.8223Z" fill="white"/>
<path d="M169.685 42.918L168.502 47.6889L166.253 42.918H165.641L168.33 48.36L167.923 49.9999H168.522L170.304 42.918H169.685Z" fill="white"/>
<path d="M177.793 42.918L176.611 47.6889L174.362 42.918H173.746L176.449 48.3203L176.031 49.9999H176.628L178.413 42.918H177.793Z" fill="white"/>
<path d="M181.483 42.8516C179.996 42.8516 179.254 43.2615 179.254 44.0881V46.8719C179.254 47.143 179.314 47.3546 179.516 47.5728C179.787 47.9002 180.393 48.0985 181.483 48.1018C182.185 48.1018 182.732 48.0093 183.053 47.8539C183.553 47.6191 183.705 47.2488 183.705 46.8719V44.0881C183.705 43.2615 182.963 42.8516 181.483 42.8516ZM183.096 46.8025C183.096 47.4307 182.556 47.7415 181.483 47.7415C180.41 47.7415 179.863 47.4307 179.863 46.8025V44.1575C179.863 43.5293 180.403 43.2186 181.483 43.2186C182.556 43.2219 183.096 43.5359 183.096 44.1575V46.8025Z" fill="white"/>
<path d="M188.807 42.918V46.8061C188.807 47.4343 188.267 47.7451 187.187 47.7417C186.108 47.7417 185.571 47.431 185.571 46.8061V42.918H184.965V46.8722C184.965 47.6988 185.644 48.1087 187.005 48.1087C187.942 48.1087 188.542 47.9104 188.807 47.5136L188.843 48.0492H189.416V42.918H188.807Z" fill="white"/>
<path d="M197.562 43.2389C197.274 42.991 196.711 42.8521 195.936 42.8521C194.992 42.8521 194.386 43.0406 194.114 43.4175V40.9609H193.512V48.0495H194.081L194.114 47.5139C194.376 47.904 194.986 48.1024 195.936 48.1024C197.291 48.1024 197.963 47.6924 197.963 46.8725V44.0886C197.963 43.7514 197.847 43.4869 197.562 43.2389ZM197.354 46.803C197.354 47.4312 196.814 47.742 195.731 47.742C194.654 47.7387 194.114 47.4246 194.114 46.803V44.1581C194.114 43.5299 194.654 43.2191 195.731 43.2191C196.814 43.2224 197.354 43.5365 197.354 44.1581V46.803Z" fill="white"/>
<path d="M203.07 42.918V46.8061C203.07 47.4343 202.53 47.7451 201.45 47.7417C200.371 47.7417 199.831 47.431 199.831 46.8061V42.918H199.225V46.8722C199.225 47.6988 199.904 48.1087 201.265 48.1087C202.202 48.1087 202.802 47.9104 203.07 47.5136L203.103 48.0492H203.676V42.918H203.07Z" fill="white"/>
<path d="M208.888 42.918L207.705 47.6889L205.456 42.918H204.844L207.49 48.5419L207.126 49.9999H207.725L209.507 42.918H208.888Z" fill="white"/>
</svg>
