<svg width="26" height="26" viewBox="0 0 26 26" fill="none" xmlns="http://www.w3.org/2000/svg">
<path fill-rule="evenodd" clip-rule="evenodd" d="M4.01502 14.9054C4.01514 14.7918 3.99542 14.679 3.95672 14.5722L4.98128 13.5688H7.47251V14.3869C7.47251 14.397 7.47251 14.4068 7.47291 14.4167L5.52723 15.0437C5.42972 15.0749 5.34769 15.142 5.29775 15.2313L3.95575 17.6197C3.92889 17.6175 3.90172 17.6163 3.8745 17.6163C3.65491 17.6163 3.44171 17.6902 3.2693 17.8263C3.0969 17.9623 2.97533 18.1524 2.92422 18.366C2.8731 18.5795 2.89541 18.8041 2.98756 19.0034C3.0797 19.2027 3.2363 19.3652 3.4321 19.4646C3.6279 19.5641 3.85149 19.5946 4.06679 19.5514C4.28209 19.5082 4.47657 19.3937 4.61884 19.2265C4.76111 19.0592 4.84289 18.8489 4.85098 18.6294C4.85907 18.41 4.79301 18.1942 4.66344 18.0169L5.92739 15.7656L7.77694 15.1696C7.88577 15.2896 8.01849 15.3855 8.16658 15.4512C8.31468 15.5169 8.47487 15.5509 8.63687 15.551H11.2332V12.1157C11.2332 11.879 11.2819 11.6448 11.3763 11.4277C11.4708 11.2106 11.6088 11.0153 11.782 10.8539C11.6422 10.6406 11.5628 10.3934 11.552 10.1386C11.5413 9.88381 11.5997 9.63085 11.721 9.40653C11.8423 9.18221 12.0221 8.9949 12.2412 8.86444C12.4604 8.73398 12.7107 8.66523 12.9658 8.66548C13.2208 8.66574 13.471 8.73498 13.6899 8.86587C13.9088 8.99676 14.0881 9.18443 14.209 9.40899C14.3299 9.63355 14.3878 9.88662 14.3766 10.1414C14.3653 10.3962 14.2854 10.6432 14.1452 10.8562C14.3176 11.0175 14.4551 11.2126 14.5491 11.4292C14.643 11.6458 14.6915 11.8795 14.6915 12.1156V15.2533C14.7259 15.2512 14.7607 15.2502 14.7957 15.2502C15.1429 15.2499 15.482 15.3547 15.7684 15.5509H17.2919C17.4579 15.5507 17.6219 15.515 17.773 15.4462C17.924 15.3773 18.0586 15.2769 18.1675 15.1517L20.0723 15.7655L21.3362 18.0168C21.2067 18.1941 21.1407 18.4099 21.1488 18.6293C21.1569 18.8488 21.2388 19.0591 21.381 19.2263C21.5233 19.3935 21.7178 19.508 21.9331 19.5512C22.1484 19.5943 22.372 19.5637 22.5678 19.4643C22.7635 19.3648 22.9201 19.2023 23.0122 19.003C23.1043 18.8036 23.1266 18.5791 23.0754 18.3655C23.0243 18.152 22.9027 17.9619 22.7302 17.8259C22.5578 17.6899 22.3446 17.616 22.125 17.6161C22.0976 17.6161 22.0704 17.6173 22.0438 17.6195L20.7019 15.231C20.652 15.1416 20.57 15.0745 20.4725 15.0433L18.4561 14.3933V14.3863V13.5688H21.018L22.0424 14.5724C21.9665 14.7821 21.9646 15.0114 22.037 15.2224C22.1095 15.4333 22.252 15.613 22.4408 15.7317C22.6295 15.8505 22.8533 15.901 23.0748 15.8749C23.2963 15.8489 23.5022 15.7478 23.6582 15.5885C23.8143 15.4292 23.9112 15.2213 23.9327 14.9993C23.9542 14.7773 23.8992 14.5547 23.7766 14.3684C23.6541 14.182 23.4714 14.0433 23.2591 13.9751C23.0468 13.9069 22.8175 13.9135 22.6094 13.9937L21.4871 12.8944C21.449 12.851 21.4021 12.8162 21.3495 12.7924C21.2969 12.7685 21.2397 12.7562 21.182 12.7563H18.4559V11.2716H22.0725C22.1653 11.4745 22.3246 11.6395 22.5241 11.7393C22.7235 11.839 22.9512 11.8676 23.1691 11.8201C23.387 11.7727 23.5822 11.6521 23.7221 11.4784C23.862 11.3047 23.9383 11.0884 23.9383 10.8654C23.9383 10.6423 23.862 10.426 23.7221 10.2523C23.5822 10.0786 23.387 9.95805 23.1691 9.9106C22.9512 9.86315 22.7235 9.89168 22.5241 9.99146C22.3246 10.0912 22.1653 10.2563 22.0725 10.4591H18.4559V8.97452H21.1823C21.2401 8.97459 21.2972 8.9623 21.3498 8.93849C21.4025 8.91467 21.4494 8.87988 21.4875 8.83645L22.6097 7.73713C22.8177 7.81731 23.0469 7.82388 23.2592 7.75577C23.4715 7.68765 23.654 7.54894 23.7765 7.3627C23.8991 7.17646 23.9541 6.9539 23.9326 6.73201C23.9112 6.51012 23.8144 6.30227 23.6584 6.14301C23.5024 5.98374 23.2966 5.88265 23.0752 5.85654C22.8538 5.83043 22.6302 5.88087 22.4414 5.99948C22.2527 6.11809 22.1102 6.29772 22.0377 6.50852C21.9651 6.71932 21.9669 6.94859 22.0428 7.15823L21.018 8.16202H18.4559V7.43443L20.488 6.68261C20.579 6.6494 20.6551 6.58461 20.7023 6.50005L22.0438 4.111C22.0706 4.11323 22.0977 4.11436 22.125 4.1144C22.3446 4.1144 22.5578 4.04043 22.7302 3.90441C22.9026 3.7684 23.0242 3.57828 23.0753 3.36471C23.1264 3.15115 23.1041 2.92659 23.012 2.72726C22.9198 2.52793 22.7632 2.36545 22.5674 2.26602C22.3716 2.1666 22.1481 2.13603 21.9327 2.17924C21.7174 2.22245 21.523 2.33693 21.3807 2.50421C21.2384 2.67148 21.1566 2.88181 21.1486 3.10126C21.1405 3.32071 21.2065 3.53648 21.3361 3.71379L20.0677 5.97284L18.2276 6.65361C18.1195 6.50692 17.9785 6.38762 17.816 6.30532C17.6535 6.22301 17.4739 6.18 17.2917 6.17972H16.7137V4.20657C16.7137 3.21213 16.3186 2.25842 15.6155 1.55524C14.9123 0.852071 13.9586 0.457031 12.9641 0.457031C11.9697 0.457031 11.016 0.852071 10.3128 1.55524C9.60965 2.25842 9.21461 3.21213 9.21461 4.20657V6.17972H8.63667C8.45882 6.17996 8.28338 6.22094 8.12384 6.29953C7.9643 6.37813 7.82488 6.49223 7.71631 6.6331L5.9316 5.97294L4.66324 3.71379C4.7928 3.53649 4.85887 3.32071 4.85078 3.10126C4.84269 2.88182 4.76091 2.67149 4.61864 2.50422C4.47637 2.33694 4.28191 2.22246 4.06661 2.17924C3.85131 2.13603 3.62772 2.16659 3.43192 2.26601C3.23612 2.36543 3.07952 2.52791 2.98737 2.72723C2.89522 2.92656 2.8729 3.15111 2.92401 3.36468C2.97511 3.57824 3.09667 3.76837 3.26907 3.90439C3.44146 4.0404 3.65465 4.11439 3.87425 4.1144C3.90167 4.1144 3.92876 4.11326 3.9555 4.111L5.29704 6.50005C5.34423 6.58463 5.42025 6.64942 5.51123 6.68261L7.47236 7.40817V8.16227H4.98128L3.95672 7.15843C4.03255 6.94878 4.03436 6.7195 3.96184 6.50869C3.88931 6.29787 3.74683 6.11823 3.55806 5.99961C3.3693 5.88099 3.14563 5.83054 2.92422 5.85665C2.70282 5.88276 2.49701 5.98386 2.34102 6.14313C2.18503 6.30241 2.08824 6.51027 2.06675 6.73217C2.04526 6.95407 2.10035 7.17665 2.22287 7.3629C2.3454 7.54916 2.52797 7.68787 2.74025 7.75599C2.95253 7.8241 3.18173 7.81752 3.38975 7.73734L4.51201 8.83665C4.55009 8.88009 4.59702 8.91488 4.64965 8.93869C4.70228 8.9625 4.75939 8.97479 4.81716 8.97472H7.47256V10.4593H3.92676C3.83403 10.2565 3.6747 10.0915 3.47523 9.9917C3.27577 9.89193 3.04817 9.8634 2.83025 9.91085C2.61233 9.9583 2.4172 10.0789 2.27728 10.2526C2.13735 10.4262 2.06105 10.6425 2.06105 10.8656C2.06105 11.0886 2.13735 11.3049 2.27728 11.4786C2.4172 11.6522 2.61233 11.7728 2.83025 11.8203C3.04817 11.8677 3.27577 11.8392 3.47523 11.7394C3.6747 11.6397 3.83403 11.4746 3.92676 11.2718H7.47236V12.7563H4.81695C4.75918 12.7562 4.70207 12.7685 4.64944 12.7924C4.59681 12.8162 4.54989 12.851 4.51181 12.8944L3.38954 13.9937C3.19489 13.9186 2.98132 13.9078 2.78007 13.9628C2.57883 14.0178 2.40047 14.1358 2.2711 14.2995C2.14173 14.4632 2.06814 14.664 2.0611 14.8725C2.05406 15.081 2.11394 15.2863 2.23198 15.4583C2.35001 15.6304 2.52 15.7601 2.71708 15.8286C2.91416 15.897 3.12798 15.9006 3.32725 15.8388C3.52652 15.777 3.70078 15.6531 3.82454 15.4851C3.94829 15.3172 4.01504 15.114 4.01502 14.9054ZM18.5745 23.9922H11.8368C11.4922 22.2741 10.2597 21.2306 8.8173 18.0054C8.25175 16.741 9.55363 16.0025 10.405 17.0887L12.0453 19.182V12.1157C12.0434 11.9942 12.0658 11.8735 12.1111 11.7607C12.1563 11.6479 12.2236 11.5453 12.3088 11.4587C12.3941 11.3721 12.4958 11.3034 12.6079 11.2564C12.72 11.2095 12.8403 11.1853 12.9619 11.1853C13.0834 11.1853 13.2037 11.2095 13.3158 11.2564C13.4279 11.3034 13.5296 11.3721 13.6149 11.4587C13.7002 11.5453 13.7674 11.6479 13.8126 11.7607C13.8579 11.8735 13.8803 11.9942 13.8785 12.1157V16.9795C13.882 16.7387 13.9802 16.5091 14.1517 16.3401C14.3232 16.1711 14.5543 16.0764 14.7951 16.0764C15.0358 16.0764 15.2669 16.1711 15.4384 16.3401C15.6099 16.5091 15.7081 16.7387 15.7117 16.9795V17.8204C15.7099 17.6989 15.7322 17.5782 15.7775 17.4654C15.8227 17.3526 15.89 17.25 15.9753 17.1634C16.0605 17.0768 16.1622 17.0081 16.2743 16.9612C16.3864 16.9142 16.5067 16.8901 16.6283 16.8901C16.7498 16.8901 16.8701 16.9142 16.9822 16.9612C17.0943 17.0081 17.196 17.0768 17.2813 17.1634C17.3666 17.25 17.4338 17.3526 17.4791 17.4654C17.5243 17.5782 17.5467 17.6989 17.5449 17.8204V18.6356C17.5431 18.514 17.5654 18.3934 17.6107 18.2806C17.6559 18.1678 17.7232 18.0651 17.8085 17.9785C17.8937 17.892 17.9954 17.8232 18.1075 17.7763C18.2196 17.7294 18.3399 17.7052 18.4615 17.7052C18.583 17.7052 18.7033 17.7294 18.8154 17.7763C18.9275 17.8232 19.0292 17.892 19.1145 17.9785C19.1998 18.0651 19.267 18.1678 19.3123 18.2806C19.3575 18.3934 19.3799 18.514 19.3781 18.6356V19.8801C19.3781 20.8545 19.2657 22.6866 18.5737 23.9922H18.5745ZM11.9 24.8047V25.543H18.3273V24.8047H11.9ZM10.9968 6.17972V4.20657C10.9994 3.68651 11.2079 3.18866 11.5765 2.82186C11.9452 2.45505 12.4441 2.24914 12.9642 2.24914C13.4842 2.24914 13.9831 2.45505 14.3518 2.82186C14.7205 3.18866 14.9289 3.68651 14.9316 4.20657V6.17972H10.9968Z" fill="white"/>
</svg>
