<svg width="26" height="26" viewBox="0 0 26 26" fill="none" xmlns="http://www.w3.org/2000/svg">
<path fill-rule="evenodd" clip-rule="evenodd" d="M13 1.354C8.96675 1.354 5.6875 4.6625 5.6875 8.74342C5.6875 10.1258 6.29633 11.8407 7.1825 13.5513C9.13358 17.318 12.3836 21.1118 12.3836 21.1118C12.5374 21.2917 12.7628 21.3957 13 21.3957C13.2373 21.3957 13.4626 21.2917 13.6164 21.1118C13.6164 21.1118 16.8664 17.318 18.8175 13.5513C19.7037 11.8407 20.3125 10.1258 20.3125 8.74342C20.3125 4.6625 17.0333 1.354 13 1.354ZM13 5.68734C11.3555 5.68734 10.0208 7.022 10.0208 8.6665C10.0208 10.311 11.3555 11.6457 13 11.6457C14.6445 11.6457 15.9792 10.311 15.9792 8.6665C15.9792 7.022 14.6445 5.68734 13 5.68734Z" fill="white"/>
<path fill-rule="evenodd" clip-rule="evenodd" d="M18.1833 18.8251C19.0641 19.0895 19.7899 19.4166 20.2915 19.8001C20.6165 20.0471 20.8548 20.2887 20.8548 20.5834C20.8548 20.7567 20.7562 20.9138 20.6176 21.0709C20.3879 21.3298 20.0467 21.5627 19.6242 21.7794C18.1313 22.5431 15.7177 23.0209 13.0007 23.0209C10.2837 23.0209 7.86998 22.5431 6.37715 21.7794C5.95465 21.5627 5.6134 21.3298 5.38373 21.0709C5.24507 20.9138 5.14648 20.7567 5.14648 20.5834C5.14648 20.2887 5.38482 20.0471 5.70982 19.8001C6.2114 19.4166 6.93723 19.0895 7.81798 18.8251C8.24698 18.6962 8.49073 18.2423 8.36182 17.8133C8.2329 17.3832 7.77898 17.1394 7.34998 17.2684C6.00882 17.6724 4.96665 18.226 4.34048 18.8381C3.79015 19.3744 3.52148 19.9745 3.52148 20.5834C3.52148 21.3439 3.95157 22.1022 4.82582 22.7349C6.35982 23.8442 9.44082 24.6459 13.0007 24.6459C16.5605 24.6459 19.6415 23.8442 21.1755 22.7349C22.0497 22.1022 22.4798 21.3439 22.4798 20.5834C22.4798 19.9745 22.2112 19.3744 21.6608 18.8381C21.0347 18.226 19.9925 17.6724 18.6513 17.2684C18.2223 17.1394 17.7684 17.3832 17.6395 17.8133C17.5106 18.2423 17.7543 18.6962 18.1833 18.8251Z" fill="white"/>
</svg>
