<svg width="26" height="26" viewBox="0 0 26 26" fill="none" xmlns="http://www.w3.org/2000/svg">
<path fill-rule="evenodd" clip-rule="evenodd" d="M2.97852 6.49984C2.97852 4.55533 4.55484 2.979 6.49935 2.979H15.166C15.6147 2.979 15.9785 2.61523 15.9785 2.1665C15.9785 1.71778 15.6147 1.354 15.166 1.354H6.49935C3.65739 1.354 1.35352 3.65787 1.35352 6.49984V19.4998C1.35352 22.3419 3.65739 24.6457 6.49935 24.6457H19.4993C22.3414 24.6457 24.6452 22.3419 24.6452 19.4998V10.8332C24.6452 10.3844 24.2814 10.0207 23.8327 10.0207C23.384 10.0207 23.0202 10.3844 23.0202 10.8332V14.6347C22.9713 14.5956 22.9205 14.5584 22.8679 14.5233L20.2886 12.8038C18.5698 11.6579 16.2813 11.8845 14.8206 13.3452L11.178 16.9878C9.71739 18.4485 7.42887 18.6751 5.71017 17.5293L2.97852 15.7082V6.49984ZM21.3952 2.1665C21.3952 1.71778 21.0314 1.354 20.5827 1.354C20.134 1.354 19.7702 1.71778 19.7702 2.1665V4.604H17.3327C16.884 4.604 16.5202 4.96778 16.5202 5.4165C16.5202 5.86523 16.884 6.229 17.3327 6.229H19.7702V8.6665C19.7702 9.11523 20.134 9.479 20.5827 9.479C21.0314 9.479 21.3952 9.11523 21.3952 8.6665V6.229H23.8327C24.2814 6.229 24.6452 5.86523 24.6452 5.4165C24.6452 4.96778 24.2814 4.604 23.8327 4.604H21.3952V2.1665ZM9.20768 11.9165C10.7035 11.9165 11.916 10.7039 11.916 9.20817C11.916 7.7124 10.7035 6.49984 9.20768 6.49984C7.71191 6.49984 6.49935 7.7124 6.49935 9.20817C6.49935 10.7039 7.71191 11.9165 9.20768 11.9165Z" fill="white"/>
</svg>
