<svg width="26" height="26" viewBox="0 0 26 26" fill="none" xmlns="http://www.w3.org/2000/svg">
<path d="M20.8672 4.60356L22.4707 3L24.3704 4.89986L22.7669 6.50342L20.8672 4.60356Z" fill="white"/>
<path d="M13.9922 13.3802L16.1232 13.1482L16.6675 12.6039L14.7681 10.7046L14.2238 11.2489L13.9922 13.3802Z" fill="white"/>
<path d="M15.6953 9.77765L19.9417 5.53125L21.8414 7.43077L17.5948 11.6772L15.6953 9.77765Z" fill="white"/>
<path d="M16.7239 14.4013L12.8129 14.8269H8.6211V13.5159H12.6581L12.8574 11.684H6.10456V10.3728H13.2449L17.897 5.7207H4.61331C3.17224 5.7207 2 6.89295 2 8.33385V16.7246C2 18.1656 3.17224 19.3379 4.61331 19.3379H5.32028V23.0912L10.9263 19.3379H18.2252C19.6661 19.3379 20.8384 18.1656 20.8384 16.7246V10.2868L16.7239 14.4013ZM7.56133 14.8269H6.10456V13.5159H7.56133V14.8269Z" fill="white"/>
</svg>
