<svg width="26" height="26" viewBox="0 0 26 26" fill="none" xmlns="http://www.w3.org/2000/svg">
<path fill-rule="evenodd" clip-rule="evenodd" d="M19.7893 14.2465C19.6025 13.3228 19.974 12.4244 20.7596 11.9036C22.076 11.0304 22.0778 9.09578 20.7596 8.22077C19.974 7.69935 19.6025 6.80164 19.7893 5.87757C20.1024 4.32814 18.7348 2.9607 17.1852 3.27382C16.2609 3.46064 15.3631 3.08851 14.8417 2.30323C13.9672 0.985511 12.034 0.985511 11.1595 2.30323C10.638 3.08857 9.74029 3.46003 8.81627 3.27382C7.26313 2.95984 5.89899 4.33037 6.2119 5.87757C6.39903 6.80164 6.02721 7.69935 5.24163 8.22077C3.9237 9.09553 3.92563 11.0307 5.24163 11.9036C6.02721 12.4244 6.39903 13.3228 6.2119 14.2465C5.89889 15.7937 7.26318 17.1634 8.81627 16.8506C9.72531 16.6675 10.6288 17.0222 11.1595 17.8212C12.0351 19.1395 13.9672 19.1384 14.8417 17.8212C15.3631 17.0356 16.2609 16.6638 17.1852 16.8506C18.7343 17.1636 20.1023 15.7956 19.7893 14.2465ZM9.1722 18.4781C9.42204 18.4365 9.63065 18.5292 9.77233 18.7425C11.3052 21.0504 14.6966 21.0507 16.2291 18.7422C16.3708 18.5288 16.5809 18.4366 16.8294 18.478V24.1636C16.8294 24.6182 16.2886 24.8543 15.9552 24.5452C15.0065 23.6656 13.777 22.5914 13.0008 22.5914C12.2246 22.5914 10.9951 23.6656 10.0464 24.5452C9.71302 24.8543 9.17225 24.6182 9.17225 24.1636V18.4781H9.1722ZM13.0006 15.2849C10.1209 15.2849 7.77825 12.942 7.77825 10.0619C7.77825 7.1825 10.1208 4.83966 13.0006 4.83966C15.8807 4.83966 18.2232 7.18255 18.2232 10.0619C18.2232 12.942 15.8806 15.2849 13.0006 15.2849ZM9.44378 10.0619C9.44378 8.10047 11.0392 6.50508 13.0006 6.50508C14.962 6.50508 16.558 8.10047 16.558 10.0619C16.558 12.0233 14.9621 13.6193 13.0006 13.6193C11.0392 13.6193 9.44378 12.0233 9.44378 10.0619Z" fill="white"/>
</svg>
