<svg width="26" height="26" viewBox="0 0 26 26" fill="none" xmlns="http://www.w3.org/2000/svg">
<path d="M19.6498 13.8125C19.9862 14.7562 20.8797 15.4375 21.9375 15.4375C23.2816 15.4375 24.375 14.3441 24.375 13C24.375 11.6559 23.2816 10.5625 21.9375 10.5625C20.8797 10.5625 19.9862 11.2438 19.6497 12.1875H18.6875V4.875H19.6498C19.9862 5.81872 20.8797 6.5 21.9375 6.5C23.2816 6.5 24.375 5.40662 24.375 4.0625C24.375 2.71838 23.2816 1.625 21.9375 1.625C20.8797 1.625 19.9862 2.30628 19.6497 3.25H17.875C17.4263 3.25 17.0625 3.6138 17.0625 4.0625V12.1875H15.4375V13.8125H17.0625V21.9375C17.0625 22.3862 17.4263 22.75 17.875 22.75H19.6498C19.9862 23.6937 20.8797 24.375 21.9375 24.375C23.2816 24.375 24.375 23.2816 24.375 21.9375C24.375 20.5934 23.2816 19.5 21.9375 19.5C20.8797 19.5 19.9862 20.1813 19.6497 21.125H18.6875V13.8125H19.6498Z" fill="white"/>
<path d="M8.53125 12.4521V19.5004L14.1323 16.9971C14.4314 16.8693 14.625 16.5754 14.625 16.2504V9.75044C14.625 9.74826 14.6241 9.74632 14.6241 9.74414L8.53125 12.4521Z" fill="white"/>
<path d="M8.44542 6.56606C8.24229 6.47798 8.00902 6.47798 7.80589 6.56606C7.80589 6.56606 2.0755 9.03148 2.05273 9.04392L8.12566 11.743L14.1986 9.04392C14.1758 9.03148 8.44542 6.56606 8.44542 6.56606Z" fill="white"/>
<path d="M1.625 9.75044V16.2504C1.625 16.5754 1.8186 16.8693 2.11774 16.9971L7.71875 19.5004V12.4521L1.62594 9.74414C1.62594 9.74632 1.625 9.74826 1.625 9.75044Z" fill="white"/>
</svg>
