<svg width="26" height="26" viewBox="0 0 26 26" fill="none" xmlns="http://www.w3.org/2000/svg">
<path d="M20.4343 17.7023L17.8024 15.8635C17.4585 15.6238 17.0558 15.4971 16.6388 15.4971C15.9755 15.4971 15.353 15.8224 14.9737 16.3667L14.3628 17.2421C13.3388 16.5555 12.1958 15.5967 11.1068 14.5078C10.0182 13.4188 9.05931 12.276 8.37257 11.2521L9.24776 10.6415C9.69408 10.3307 9.99162 9.86551 10.0864 9.33112C10.1809 8.79772 10.0618 8.25836 9.75081 7.81185L7.91237 5.18015C7.39464 4.43946 6.41551 4.11533 5.59111 4.42021C5.35069 4.50928 5.12694 4.61818 4.90675 4.75604L4.54295 5.01233C4.4525 5.08295 4.36839 5.15991 4.28746 5.24065C3.84392 5.68419 3.52892 6.24516 3.35197 6.90849C2.59422 9.74867 4.47115 14.0425 8.02187 17.593C11.0037 20.5748 14.5857 22.4273 17.3708 22.4275C17.8472 22.4275 18.2971 22.372 18.707 22.2627C19.3695 22.0855 19.9305 21.7709 20.374 21.3274C20.4549 21.2467 20.5323 21.1624 20.6148 21.0552L20.8707 20.6897C20.9969 20.4879 21.106 20.2638 21.1944 20.0235C21.5043 19.1866 21.1921 18.2321 20.4343 17.7023Z" fill="white"/>
<path d="M22.4062 3.57227H12.6562C12.4317 3.57227 12.25 3.75417 12.25 3.97852V9.66602C12.25 9.89037 12.4317 10.0723 12.6562 10.0723H14.0984L15.0676 12.1366C15.1346 12.2793 15.2778 12.3703 15.4353 12.3703C15.5928 12.3703 15.7361 12.2793 15.8031 12.1368L16.7727 10.0723H22.4062C22.6308 10.0723 22.8125 9.89037 22.8125 9.66602V3.97852C22.8125 3.75417 22.6308 3.57227 22.4062 3.57227ZM20.3496 8.04102H14.7129C14.4883 8.04102 14.3066 7.85912 14.3066 7.63477C14.3066 7.41042 14.4883 7.22852 14.7129 7.22852H20.3496C20.5742 7.22852 20.7559 7.41042 20.7559 7.63477C20.7559 7.85912 20.5742 8.04102 20.3496 8.04102ZM20.3496 6.41602H14.7129C14.4883 6.41602 14.3066 6.23412 14.3066 6.00977C14.3066 5.78542 14.4883 5.60352 14.7129 5.60352H20.3496C20.5742 5.60352 20.7559 5.78542 20.7559 6.00977C20.7559 6.23412 20.5742 6.41602 20.3496 6.41602Z" fill="white"/>
</svg>
