<svg width="26" height="26" viewBox="0 0 26 26" fill="none" xmlns="http://www.w3.org/2000/svg">
<path d="M8.90366 12.9997C8.90366 12.058 8.93722 11.1147 9.00369 10.1924H2.36029C2.12306 11.0976 2 12.0391 2 12.9997C2 13.9603 2.12306 14.9018 2.36029 15.807H9.00365C8.93722 14.8847 8.90366 13.9414 8.90366 12.9997Z" fill="white"/>
<path d="M10.1914 12.9997C10.1914 13.9599 10.2261 14.9011 10.2934 15.807H15.704C15.7712 14.9011 15.806 13.9599 15.806 12.9997C15.806 12.0395 15.7712 11.0983 15.704 10.1924H10.2934C10.2261 11.0983 10.1914 12.0395 10.1914 12.9997Z" fill="white"/>
<path d="M23.6394 10.1924H16.9961C17.0625 11.1147 17.0961 12.058 17.0961 12.9997C17.0961 13.9414 17.0625 14.8847 16.9961 15.807H23.6394C23.8767 14.9018 23.9997 13.9603 23.9997 12.9997C23.9997 12.0391 23.8767 11.0976 23.6394 10.1924Z" fill="white"/>
<path d="M10.416 17.0967C10.5826 18.5654 10.8398 19.9101 11.178 21.051C11.7819 23.0883 12.5287 24.0003 13.0008 24.0003C13.473 24.0003 14.2197 23.0883 14.8237 21.051C15.1619 19.91 15.4191 18.5653 15.5857 17.0967H10.416Z" fill="white"/>
<path d="M15.5857 8.90362C15.4191 7.4349 15.1619 6.0902 14.8237 4.94925C14.2197 2.91193 13.473 2 13.0008 2C12.5287 2 11.7819 2.91193 11.178 4.94925C10.8398 6.09024 10.5826 7.43495 10.416 8.90362H15.5857Z" fill="white"/>
<path d="M23.2141 8.90357C22.668 7.54133 21.8469 6.29077 20.7779 5.22175C19.1943 3.63814 17.2126 2.59756 15.0586 2.19189C15.968 3.67818 16.5794 6.13909 16.8798 8.90353H23.2141V8.90357Z" fill="white"/>
<path d="M15.0586 23.8084C17.2126 23.4027 19.1942 22.3622 20.7779 20.7785C21.8469 19.7095 22.668 18.459 23.2141 17.0967H16.8798C16.5794 19.8612 15.968 22.3221 15.0586 23.8084Z" fill="white"/>
<path d="M2.78516 17.0967C3.3312 18.4589 4.15234 19.7095 5.22131 20.7785C6.80497 22.3621 8.78664 23.4027 10.9406 23.8084C10.0312 22.3221 9.41979 19.8612 9.1194 17.0967L2.78516 17.0967Z" fill="white"/>
<path d="M10.9406 2.19189C8.78664 2.59752 6.80497 3.63809 5.22131 5.22175C4.15234 6.29077 3.3312 7.54129 2.78516 8.90357H9.1194C9.41979 6.13909 10.0312 3.67818 10.9406 2.19189Z" fill="white"/>
</svg>
