<svg width="27" height="26" viewBox="0 0 27 26" fill="none" xmlns="http://www.w3.org/2000/svg">
<g clip-path="url(#clip0_7765_23637)">
<path d="M21.0447 4H15.7126C14.9091 4 14.2578 4.65132 14.2578 5.45477V10.7869C14.2578 11.5904 14.9091 12.2417 15.7126 12.2417H21.0447C21.8482 12.2417 22.4995 11.5904 22.4995 10.7869V5.45477C22.4995 4.65132 21.8482 4 21.0447 4Z" fill="white"/>
<path d="M11.2869 4H5.95477C5.15132 4 4.5 4.65132 4.5 5.45477V10.7869C4.5 11.5904 5.15132 12.2417 5.95477 12.2417H11.2869C12.0904 12.2417 12.7417 11.5904 12.7417 10.7869V5.45477C12.7417 4.65132 12.0904 4 11.2869 4Z" fill="white"/>
<path d="M21.0447 13.7583H15.7126C14.9091 13.7583 14.2578 14.4096 14.2578 15.2131V20.5452C14.2578 21.3487 14.9091 22 15.7126 22H21.0447C21.8482 22 22.4995 21.3487 22.4995 20.5452V15.2131C22.4995 14.4096 21.8482 13.7583 21.0447 13.7583Z" fill="white"/>
<path d="M11.2869 13.7583H5.95477C5.15132 13.7583 4.5 14.4096 4.5 15.2131V20.5452C4.5 21.3487 5.15132 22 5.95477 22H11.2869C12.0904 22 12.7417 21.3487 12.7417 20.5452V15.2131C12.7417 14.4096 12.0904 13.7583 11.2869 13.7583Z" fill="white"/>
</g>
<defs>
<clipPath id="clip0_7765_23637">
<rect width="18" height="18" fill="white" transform="translate(4.5 4)"/>
</clipPath>
</defs>
</svg>
