<svg width="26" height="26" viewBox="0 0 26 26" fill="none" xmlns="http://www.w3.org/2000/svg">
<path d="M10.2912 11.1943C12.7842 11.1943 14.8051 9.17335 14.8051 6.68039C14.8051 4.18744 12.7842 2.1665 10.2912 2.1665C7.79828 2.1665 5.77734 4.18744 5.77734 6.68039C5.77734 9.17335 7.79828 11.1943 10.2912 11.1943Z" fill="white"/>
<path d="M12.5787 20.9444C12.1083 20.1301 12.2022 19.1272 12.7619 18.4167C12.2022 17.7062 12.1083 16.7041 12.5787 15.8889L13.309 14.625C13.7107 13.929 14.46 13.4965 15.2644 13.4965C15.3746 13.4965 15.4829 13.5047 15.5903 13.52C15.6201 13.446 15.658 13.3765 15.695 13.306C15.2075 13.1137 14.6812 13 14.1278 13H6.45421C4.08984 13 2.16602 14.9238 2.16602 17.2882V20.4479C2.16602 20.8217 2.46935 21.125 2.8431 21.125H12.6825L12.5787 20.9444Z" fill="white"/>
<path d="M21.7593 18.8396C21.7773 18.6997 21.8017 18.5607 21.8017 18.4162C21.8017 18.2709 21.7764 18.1328 21.7593 17.9928L22.5727 17.3771C22.7542 17.2399 22.8047 16.9889 22.691 16.7912L21.9606 15.5273C21.8469 15.3305 21.604 15.2484 21.3946 15.3369L20.4584 15.7314C20.23 15.5571 19.9871 15.4037 19.719 15.2917L19.5944 14.2978C19.5655 14.0721 19.3742 13.9023 19.1467 13.9023H17.6869C17.4594 13.9023 17.2671 14.0721 17.2391 14.2978L17.1145 15.2917C16.8464 15.4037 16.6026 15.558 16.3751 15.7314L15.4389 15.3369C15.2295 15.2484 14.9867 15.3296 14.8729 15.5273L14.1426 16.7912C14.0288 16.988 14.0794 17.239 14.2608 17.3771L15.0742 17.9928C15.0562 18.1328 15.0318 18.2718 15.0318 18.4162C15.0318 18.5616 15.0571 18.6997 15.0742 18.8396L14.2608 19.4553C14.0794 19.5926 14.0288 19.8435 14.1426 20.0412L14.8729 21.306C14.9867 21.5028 15.2295 21.585 15.4389 21.4965L16.3751 21.1011C16.6035 21.2753 16.8464 21.4288 17.1145 21.5407L17.2391 22.5347C17.2671 22.7604 17.4585 22.9301 17.686 22.9301H19.1458C19.3733 22.9301 19.5655 22.7604 19.5935 22.5347L19.7181 21.5407C19.9862 21.4288 20.23 21.2744 20.4575 21.1011L21.3937 21.4956C21.6031 21.5841 21.846 21.5028 21.9597 21.3051L22.6901 20.0403C22.8038 19.8435 22.7533 19.5926 22.5718 19.4544L21.7593 18.8396ZM18.4163 20.2218C17.4187 20.2218 16.6108 19.4138 16.6108 18.4162C16.6108 17.4187 17.4187 16.6107 18.4163 16.6107C19.4139 16.6107 20.2219 17.4187 20.2219 18.4162C20.2219 19.4138 19.4139 20.2218 18.4163 20.2218Z" fill="white"/>
</svg>
