<svg xmlns="http://www.w3.org/2000/svg" width="47.997" height="48.004" viewBox="0 0 47.997 48.004">
  <g>
    <path d="M32.317,15.679a.728.728,0,0,0-1.028,0L18.6,28.365a.728.728,0,0,0,0,1.029.727.727,0,0,0,1.028,0L32.317,16.708A.728.728,0,0,0,32.317,15.679Z" fill="#1a171b"/>
    <path d="M26.291,26.3a3.655,3.655,0,1,0,5.169,0A3.658,3.658,0,0,0,26.291,26.3Zm4.141,4.138a2.252,2.252,0,0,1-3.112,0,2.2,2.2,0,1,1,3.112,0Z" fill="#1a171b"/>
    <path d="M21.7,21.707a3.661,3.661,0,0,0,0-5.17,3.741,3.741,0,0,0-5.168,0,3.655,3.655,0,0,0,5.168,5.17Zm-4.14-4.141a2.2,2.2,0,1,1,0,3.111A2.185,2.185,0,0,1,17.561,17.566Z" fill="#1a171b"/>
    <path d="M47.822,20.908l-3.441-4.041.173-5.3a.729.729,0,0,0-.433-.689L39.267,8.73,37.121,3.876a.707.707,0,0,0-.688-.434l-5.3.172L27.091.175a.726.726,0,0,0-.809-.092l-4.7,2.455L16.445,1.19a.732.732,0,0,0-.768.27L12.505,5.714,7.3,6.726a.729.729,0,0,0-.575.576L5.708,12.511,1.456,15.683a.728.728,0,0,0-.269.768l1.347,5.133-2.455,4.7,0,.01-.011.016a.685.685,0,0,0-.042.145c-.005.02-.014.037-.017.057a.693.693,0,0,0,0,.182c0,.014,0,.027,0,.041a.739.739,0,0,0,.062.2.159.159,0,0,0,.007.02.726.726,0,0,0,.134.186L20.86,47.789a.722.722,0,0,0,.514.215.73.73,0,0,0,.311-.07c.006,0,.009-.008.015-.01l.011,0,4.7-2.455,5.133,1.348a.723.723,0,0,0,.768-.27l3.172-4.254L40.7,41.277a.726.726,0,0,0,.575-.574l1.012-5.209,4.254-3.174a.729.729,0,0,0,.27-.768L45.46,26.421l2.455-4.7A.728.728,0,0,0,47.822,20.908ZM19.971,39.927a.708.708,0,0,0-.015.234l.5,5.164L8.247,33.118,2.671,27.542l5.164.5a.661.661,0,0,0,.235-.016l6.356-1.479,1.358,5.148a.734.734,0,0,0,.518.518l5.148,1.357Zm2.534-7.582-5.422-1.432-1.43-5.422a.732.732,0,0,0-.868-.523l-5,1.164A14.419,14.419,0,1,1,21.87,38.184l1.158-4.973A.726.726,0,0,0,22.505,32.345ZM44.038,26a.735.735,0,0,0-.059.521l1.3,4.93-4.087,3.047a.725.725,0,0,0-.279.443l-.972,5-5,.973a.732.732,0,0,0-.444.279l-3.047,4.086-4.93-1.3a.719.719,0,0,0-.521.059l-4,2.086-.578-5.988.12-.516a15.514,15.514,0,0,0,2.46.221A15.856,15.856,0,1,0,8.347,26.469l-.492.113L1.866,26l2.086-4a.738.738,0,0,0,.059-.521l-1.294-4.93L6.8,13.508a.721.721,0,0,0,.279-.443l.974-5,5-.973a.72.72,0,0,0,.444-.279l3.046-4.086,4.93,1.3A.731.731,0,0,0,22,3.959L26.519,1.6,30.4,4.905a.7.7,0,0,0,.495.174l5.094-.164,2.063,4.66a.717.717,0,0,0,.37.371l4.662,2.063L42.917,17.1a.726.726,0,0,0,.174.5L46.4,21.478Z" fill="#1a171b"/>
  </g>
</svg>
