<svg width="26" height="26" viewBox="0 0 26 26" fill="none" xmlns="http://www.w3.org/2000/svg">
<path d="M17.8757 6.09375H17.3009C17.2062 5.7599 17.0729 5.43915 16.9022 5.13466L17.3094 4.72722C17.625 4.42506 17.6249 3.88055 17.3096 3.5781L16.7351 3.00363C16.4181 2.68625 15.9022 2.68665 15.586 3.00363L15.1786 3.41107C14.8741 3.24028 14.5531 3.10698 14.2195 3.01236V2.4375C14.2195 1.98939 13.8551 1.625 13.407 1.625H12.5945C12.1464 1.625 11.782 1.98939 11.782 2.4375V3.01236C11.4481 3.10698 11.1274 3.24028 10.8229 3.41107L10.4154 3.00383C10.1088 2.69657 9.57339 2.69637 9.26632 3.00363L8.69186 3.5781C8.37661 3.88038 8.37654 4.42509 8.69186 4.72702L9.0993 5.13466C8.92851 5.43915 8.7952 5.7599 8.70058 6.09375H8.12572C7.67762 6.09375 7.31322 6.45814 7.31322 6.90625V7.71875C7.31322 8.16686 7.67762 8.53125 8.12572 8.53125H8.70058C8.7952 8.8651 8.92851 9.18585 9.0993 9.49034L8.69206 9.89778C8.37649 10.1999 8.37656 10.7445 8.69186 11.0469L9.26632 11.6214C9.57339 11.9286 10.109 11.9282 10.4152 11.6214L10.8229 11.2139C11.1274 11.3847 11.4481 11.518 11.782 11.6126V12.1875C11.782 12.6356 12.1464 13 12.5945 13H13.407C13.8551 13 14.2195 12.6356 14.2195 12.1875V11.6126C14.5531 11.518 14.8741 11.3847 15.1786 11.2139L15.586 11.6214C15.9026 11.9384 16.4185 11.9387 16.7351 11.6214L17.3096 11.0469C17.6248 10.7446 17.6249 10.1999 17.3096 9.89798L16.9022 9.49034C17.0729 9.18585 17.2062 8.8651 17.3009 8.53125H17.8757C18.3238 8.53125 18.6882 8.16686 18.6882 7.71875V6.90625C18.6882 6.45814 18.3238 6.09375 17.8757 6.09375ZM13.0007 9.75C11.6566 9.75 10.5632 8.65661 10.5632 7.3125C10.5632 5.96839 11.6566 4.875 13.0007 4.875C14.3448 4.875 15.4382 5.96839 15.4382 7.3125C15.4382 8.65661 14.3448 9.75 13.0007 9.75ZM18.0733 11.3914C18.2586 11.1228 18.3601 10.8059 18.3601 10.4724C18.3601 10.1802 18.2786 9.90239 18.135 9.65687L20.9448 10.2677L18.0733 11.3914ZM7.92823 11.3914L5.05664 10.2677L7.86654 9.65689C7.72292 9.90249 7.64132 10.1803 7.64132 10.4724C7.64132 10.8059 7.74291 11.1228 7.92823 11.3914ZM11.2648 17.4953L12.5945 15.2793V24.246L4.02534 20.8929C3.55462 20.7086 3.25073 20.2631 3.25073 19.7579V15.4499L9.77572 18.0031C9.92191 18.0603 10.0727 18.0876 10.2214 18.0876C10.6386 18.0876 11.0385 17.8724 11.2648 17.4953ZM2.26267 14.1908C2.14941 14.1463 2.0655 14.0587 2.02622 13.9434C1.98695 13.8284 1.99984 13.7076 2.06233 13.6034L3.82876 10.6597L12.405 14.0156L10.5682 17.0772C10.4658 17.2478 10.2573 17.3186 10.0717 17.2466L2.26267 14.1908ZM23.9752 13.9434C23.936 14.0587 23.8518 14.1463 23.7386 14.1908L15.9298 17.2466C15.7445 17.3188 15.5354 17.2478 15.4333 17.0772L13.5964 14.0156L22.1727 10.6597L23.9391 13.6032C24.0016 13.7076 24.0145 13.8284 23.9752 13.9434ZM16.2257 18.0031L22.7507 15.4498V19.7579C22.7507 20.2631 22.4468 20.7086 21.9763 20.8929L13.407 24.246V15.2793L14.7366 17.4953C14.9629 17.8724 15.3626 18.0876 15.78 18.0876C15.9288 18.0876 16.0797 18.0603 16.2257 18.0031Z" fill="white"/>
</svg>
