<svg width="26" height="26" viewBox="0 0 26 26" fill="none" xmlns="http://www.w3.org/2000/svg">
<path d="M10.1875 11.625C10.5758 11.625 10.8906 11.3102 10.8906 10.9219C10.8906 10.5335 10.5758 10.2188 10.1875 10.2188C9.79917 10.2188 9.48438 10.5335 9.48438 10.9219C9.48438 11.3102 9.79917 11.625 10.1875 11.625Z" fill="white"/>
<path d="M15.8125 15.8438C16.2008 15.8438 16.5156 15.529 16.5156 15.1406C16.5156 14.7523 16.2008 14.4375 15.8125 14.4375C15.4242 14.4375 15.1094 14.7523 15.1094 15.1406C15.1094 15.529 15.4242 15.8438 15.8125 15.8438Z" fill="white"/>
<path d="M22.8906 6H3.10938C1.94622 6 1 6.94622 1 8.10938V10.9219C1 11.3105 1.31448 11.625 1.70312 11.625H2.40625C3.18147 11.625 3.8125 12.256 3.8125 13.0312C3.8125 13.8065 3.18147 14.4375 2.40625 14.4375H1.70312C1.31448 14.4375 1 14.752 1 15.1406V17.9531C1 19.1163 1.94622 20.0625 3.10938 20.0625H22.8906C24.0538 20.0625 25 19.1163 25 17.9531V15.1406C25 14.752 24.6855 14.4375 24.2969 14.4375H23.5938C22.8185 14.4375 22.1875 13.8065 22.1875 13.0312C22.1875 12.256 22.8185 11.625 23.5938 11.625H24.2969C24.6855 11.625 25 11.3105 25 10.9219V8.10938C25 6.94622 24.0538 6 22.8906 6ZM8.07812 10.9219C8.07812 9.75872 9.02434 8.8125 10.1875 8.8125C11.3507 8.8125 12.2969 9.75872 12.2969 10.9219C12.2969 12.085 11.3507 13.0312 10.1875 13.0312C9.02434 13.0312 8.07812 12.085 8.07812 10.9219ZM9.748 17.0962C9.44523 16.8531 9.39578 16.4109 9.63817 16.1074L15.2632 9.07617C15.5069 8.77472 15.9484 8.72391 16.2519 8.9663C16.5548 9.20939 16.6042 9.65156 16.3618 9.95508L10.7368 16.9863C10.492 17.2902 10.0503 17.3377 9.748 17.0962ZM15.8125 17.25C14.6493 17.25 13.7031 16.3038 13.7031 15.1406C13.7031 13.9775 14.6493 13.0312 15.8125 13.0312C16.9757 13.0312 17.9219 13.9775 17.9219 15.1406C17.9219 16.3038 16.9757 17.25 15.8125 17.25Z" fill="white"/>
</svg>
