<svg width="26" height="26" viewBox="0 0 26 26" fill="none" xmlns="http://www.w3.org/2000/svg">
<path d="M18.1938 14.9596L19.3281 21.2158L13.7937 24.0002V21.6283C13.7937 21.4221 13.6219 21.2846 13.45 21.2846C13.2437 21.2846 13.1062 21.4564 13.1062 21.6283V24.0002L7.57187 21.2502L8.70625 14.9939C8.74062 14.7877 8.60312 14.6158 8.43125 14.5814C8.225 14.5471 8.05312 14.6846 8.01875 14.8564L6.88437 21.1814L3 22.9002L5.54375 14.1346L9.08437 13.4814C10.8375 16.6783 13.0375 19.8064 13.175 20.0127C13.2438 20.1158 13.3469 20.1502 13.4844 20.1502C13.5875 20.1502 13.6906 20.0814 13.7594 20.0127C13.8969 19.8064 16.1313 16.6783 17.85 13.4814L21.3906 14.1346L23.9344 22.9002L20.05 21.1814L18.9156 14.8221C18.8813 14.6158 18.7094 14.5127 18.5031 14.5471C18.2969 14.5814 18.1594 14.7877 18.1938 14.9596Z" fill="white"/>
<path d="M13.4508 2C10.2539 2 7.67578 4.6125 7.67578 7.775C7.67578 10.5938 12.2477 17.4 13.4508 19.1531C14.6539 17.4 19.2258 10.5938 19.2258 7.775C19.2258 4.6125 16.6477 2 13.4508 2ZM13.4508 11.4875C11.3883 11.4875 9.73828 9.8375 9.73828 7.775C9.73828 5.74687 11.3883 4.0625 13.4508 4.0625C15.5133 4.0625 17.1633 5.7125 17.1633 7.775C17.1633 9.8375 15.5133 11.4875 13.4508 11.4875Z" fill="white"/>
</svg>
