<svg width="26" height="26" viewBox="0 0 26 26" fill="none" xmlns="http://www.w3.org/2000/svg">
<path d="M21.243 4.84326C21.243 3.28405 19.9589 2 18.3997 2H11.154C10.4203 2 9.68652 2.27515 9.22793 2.82546L4.91718 6.86105C4.36687 7.31964 4 8.14511 4 8.97057V21.2608C4 22.82 5.28405 24.104 6.84326 24.104H18.3997C19.9589 24.104 21.243 22.82 21.243 21.2608V4.84326ZM5.83436 8.87885C5.83436 8.6037 6.0178 8.32854 6.20123 8.14511L10.4203 4.10951C10.512 4.0178 10.7871 3.83436 11.154 3.83436H11.2457V7.31964C11.2457 8.23682 10.512 9.06229 9.50308 9.06229L5.83436 8.87885ZM18.2163 16.3997L14.731 20.3436C14.5476 20.527 14.2724 20.6188 14.089 20.6188H13.9973C13.7221 20.6188 13.447 20.4353 13.2635 20.2519L11.3374 17.3169L8.40246 20.4353C8.03559 20.8022 7.48528 20.8022 7.11841 20.4353C6.75154 20.0684 6.75154 19.5181 7.11841 19.1513L10.8789 15.2074C11.0623 15.024 11.3374 14.9322 11.6126 14.9322C11.8877 14.9322 12.1629 15.1157 12.3463 15.2991L14.2724 18.2341L16.9322 15.2074C17.2991 14.8405 17.8494 14.8405 18.2163 15.1157C18.5832 15.3908 18.5832 16.0329 18.2163 16.3997ZM17.9411 10.8049H13.9973C13.447 10.8049 13.0801 10.4381 13.0801 9.88775C13.0801 9.33744 13.447 8.97057 13.9973 8.97057H17.9411C18.3997 8.97057 18.8583 9.33744 18.8583 9.88775C18.8583 10.4381 18.4914 10.8049 17.9411 10.8049ZM17.9411 7.13621H13.9973C13.447 7.13621 13.0801 6.76934 13.0801 6.21903C13.0801 5.66872 13.447 5.30185 13.9973 5.30185H17.9411C18.3997 5.30185 18.8583 5.66872 18.8583 6.21903C18.8583 6.76934 18.4914 7.13621 17.9411 7.13621Z" fill="white"/>
</svg>
