<svg width="26" height="26" viewBox="0 0 26 26" fill="none" xmlns="http://www.w3.org/2000/svg">
<g clip-path="url(#clip0_8151_4734)">
<path d="M12.7939 5.25418C13.4417 5.25418 13.9686 4.72723 13.9686 4.07946V0H11.6191V4.07941C11.6191 4.72718 12.1461 5.25418 12.7939 5.25418Z" fill="white"/>
<path d="M8.92082 5.25418C9.56858 5.25418 10.0956 4.72723 10.0956 4.07946V0H7.74609V4.07941C7.74604 4.72718 8.27305 5.25418 8.92082 5.25418Z" fill="white"/>
<path d="M5.04777 5.25418C5.69554 5.25418 6.22249 4.72723 6.22249 4.07946V0H3.87305V4.07941C3.87305 4.72718 4.4 5.25418 5.04777 5.25418Z" fill="white"/>
<path d="M1.17472 5.25418C1.82249 5.25418 2.34945 4.72723 2.34945 4.07946V0H0.761719C0.341047 0 0 0.341047 0 0.761719V4.07941C0 4.72718 0.526957 5.25418 1.17472 5.25418Z" fill="white"/>
<path d="M16.667 5.25418C17.3147 5.25418 17.8417 4.72723 17.8417 4.07946V0.761719C17.8417 0.341047 17.5006 0 17.08 0H15.4922V4.07941C15.4922 4.72718 16.0192 5.25418 16.667 5.25418Z" fill="white"/>
<path d="M11.7306 13.2299L13.2304 11.7301C13.4455 11.5149 13.6959 11.3481 13.9686 11.2347V10.6504H11.6191V13.3497C11.6546 13.3088 11.6917 13.2688 11.7306 13.2299Z" fill="white"/>
<path d="M15.4917 9.88883V11.1532C15.5265 11.1634 15.5611 11.1742 15.5952 11.186C15.9664 10.4247 16.7483 9.89893 17.6507 9.89893H17.8411V6.50807C16.844 7.02456 15.4689 6.76487 14.7299 5.95557C13.7239 7.04239 11.8628 7.04208 10.857 5.95557C9.8509 7.04239 7.98977 7.04208 6.98405 5.95557C5.97802 7.04239 4.11689 7.04208 3.11111 5.95557C2.3723 6.76492 0.996937 7.02461 0 6.50812V17.0795C0 17.5002 0.341047 17.8412 0.761719 17.8412H9.89894V17.6508C9.89894 17.3213 9.96927 17.0081 10.0954 16.7248V9.88883C10.0954 9.46816 10.4364 9.12711 10.8571 9.12711H14.73C15.1506 9.12711 15.4917 9.46816 15.4917 9.88883ZM7.74582 14.73C7.74582 15.1507 7.40477 15.4917 6.9841 15.4917H3.11121C2.69054 15.4917 2.3495 15.1507 2.3495 14.73V9.88888C2.3495 9.46821 2.69054 9.12716 3.11121 9.12716H6.98415C7.40482 9.12716 7.74587 9.46821 7.74587 9.88888L7.74582 14.73Z" fill="white"/>
<path d="M3.87305 10.6504H6.22254V13.9681H3.87305V10.6504Z" fill="white"/>
<path d="M18.7116 17.4331C18.0069 17.4331 17.4336 18.0064 17.4336 18.7111C17.4978 20.4042 19.9256 20.4038 19.9896 18.7111C19.9896 18.0064 19.4163 17.4331 18.7116 17.4331Z" fill="white"/>
<path d="M25.2377 16.8889H24.3467C24.2487 16.586 24.1271 16.294 23.984 16.0147L24.6144 15.3844C24.9119 15.0869 24.9119 14.6047 24.6144 14.3072L23.1146 12.8074C22.8171 12.5099 22.3348 12.5099 22.0373 12.8074L21.407 13.4377C21.1278 13.2947 20.8358 13.173 20.5328 13.0751V12.1841C20.5328 11.7634 20.1918 11.4224 19.7711 11.4224H17.6501C17.2295 11.4224 16.8884 11.7634 16.8884 12.1841V13.0751C16.5855 13.173 16.2935 13.2947 16.0142 13.4377L15.3839 12.8074C15.0865 12.5099 14.6042 12.5099 14.3067 12.8074L12.8069 14.3072C12.5094 14.6047 12.5094 15.0869 12.8069 15.3844L13.4372 16.0147C13.2942 16.294 13.1726 16.586 13.0746 16.8889H12.1836C11.7629 16.8889 11.4219 17.23 11.4219 17.6506V19.7716C11.4219 20.1923 11.7629 20.5333 12.1836 20.5333H13.0746C13.1726 20.8363 13.2942 21.1283 13.4372 21.4075L12.8069 22.0378C12.5094 22.3353 12.5094 22.8176 12.8069 23.1151L14.3067 24.6149C14.6042 24.9124 15.0865 24.9124 15.3839 24.6149L16.0142 23.9845C16.2935 24.1276 16.5855 24.2492 16.8884 24.3472V25.2382C16.8884 25.6589 17.2295 25.9999 17.6501 25.9999H19.7711C20.1918 25.9999 20.5328 25.6589 20.5328 25.2382V24.3472C20.8358 24.2493 21.1278 24.1276 21.407 23.9846L22.0373 24.6149C22.3348 24.9124 22.8171 24.9124 23.1146 24.6149L24.6144 23.1151C24.9119 22.8176 24.9119 22.3354 24.6144 22.0379L23.984 21.4076C24.1271 21.1283 24.2487 20.8363 24.3467 20.5334H25.2377C25.6583 20.5334 25.9994 20.1923 25.9994 19.7717V17.6507C25.9994 17.23 25.6583 16.8889 25.2377 16.8889ZM18.7106 21.5125C17.1659 21.5125 15.9092 20.2558 15.9092 18.7111C16.05 14.9997 21.3718 15.0007 21.5121 18.7111C21.512 20.2559 20.2553 21.5125 18.7106 21.5125Z" fill="white"/>
</g>
<defs>
<clipPath id="clip0_8151_4734">
<rect width="26" height="26" fill="white"/>
</clipPath>
</defs>
</svg>
