<svg width="26" height="26" viewBox="0 0 26 26" fill="none" xmlns="http://www.w3.org/2000/svg">
<path fill-rule="evenodd" clip-rule="evenodd" d="M14.5197 4.40527C13.9308 4.40527 13.4492 4.88661 13.4492 5.47521C13.4492 6.0638 13.9308 6.54514 14.5197 6.54514H18.5514C19.1403 6.54514 19.6219 6.0638 19.6219 5.47521C19.6219 4.88661 19.1403 4.40527 18.5514 4.40527H14.5197Z" fill="#F1F1F1"/>
<path fill-rule="evenodd" clip-rule="evenodd" d="M5.217 4.40527C4.62553 4.40527 4.14648 4.88404 4.14648 5.47521C4.14648 6.06637 4.62553 6.54514 5.217 6.54514C5.80848 6.54514 6.28878 6.06637 6.28878 5.47521C6.28878 4.88409 5.80843 4.40527 5.217 4.40527Z" fill="white"/>
<path d="M5.21628 6.55005C4.62314 6.55005 4.14062 6.06776 4.14062 5.47497C4.14062 4.88219 4.62314 4.3999 5.21628 4.3999C5.8101 4.3999 6.2932 4.88219 6.2932 5.47497C6.2932 6.06776 5.8101 6.55005 5.21628 6.55005ZM5.21628 4.41018C4.62882 4.41018 4.1509 4.88783 4.1509 5.47497C4.1509 6.06212 4.62882 6.53977 5.21628 6.53977C5.80442 6.53977 6.28292 6.06212 6.28292 5.47497C6.28292 4.88783 5.80442 4.41018 5.21628 4.41018Z" fill="#8AA8BD"/>
<path fill-rule="evenodd" clip-rule="evenodd" d="M9.17013 4.40576C8.57865 4.40576 8.09961 4.88453 8.09961 5.47569C8.09961 6.06685 8.57865 6.54563 9.17013 6.54563C9.7616 6.54563 10.2419 6.06685 10.2419 5.47569C10.2419 4.88458 9.7616 4.40576 9.17013 4.40576Z" fill="white"/>
<path fill-rule="evenodd" clip-rule="evenodd" d="M18.2749 15.8735C16.991 15.8735 15.9512 16.9129 15.9512 18.196C15.9512 19.4779 16.991 20.5172 18.2749 20.5172C19.5575 20.5172 20.5973 19.4778 20.5973 18.196C20.5973 16.9129 19.5574 15.8735 18.2749 15.8735Z" fill="white"/>
<path fill-rule="evenodd" clip-rule="evenodd" d="M20.3032 2.45459H5.07601H3.13171C2.20811 2.45459 1.45312 3.35601 1.45312 4.45912V8.46312H8.52384H21.9818V4.45916C21.9818 3.35727 21.2268 2.45459 20.3032 2.45459ZM9.16896 4.40552C9.76044 4.40552 10.2407 4.88429 10.2407 5.47545C10.2407 6.06661 9.76044 6.54538 9.16896 6.54538C8.57748 6.54538 8.09844 6.06661 8.09844 5.47545C8.09844 4.88433 8.57748 4.40552 9.16896 4.40552ZM5.21653 4.40552C5.808 4.40552 6.28831 4.88429 6.28831 5.47545C6.28831 6.06661 5.808 6.54538 5.21653 6.54538C4.62505 6.54538 4.14601 6.06661 4.14601 5.47545C4.14601 4.88433 4.62505 4.40552 5.21653 4.40552ZM13.4497 5.47545C13.4497 4.88686 13.9313 4.40552 14.5202 4.40552H18.5519C19.1408 4.40552 19.6224 4.88686 19.6224 5.47545C19.6224 6.06404 19.1408 6.54538 18.5519 6.54538H14.5202C13.9313 6.54542 13.4497 6.06408 13.4497 5.47545Z" fill="white"/>
<path d="M5.21848 3.95068C4.37752 3.95068 3.69336 4.63462 3.69336 5.47522C3.69336 6.31582 4.37752 6.99976 5.21848 6.99976C6.06012 6.99976 6.74487 6.31582 6.74487 5.47522C6.74487 4.63462 6.06012 3.95068 5.21848 3.95068ZM5.21848 6.09055C4.87888 6.09055 4.60262 5.81451 4.60262 5.47522C4.60262 5.13594 4.87888 4.85994 5.21848 4.85994C5.55876 4.85994 5.83566 5.13598 5.83566 5.47527C5.83566 5.81456 5.55876 6.09055 5.21848 6.09055Z" fill="#F1F1F1"/>
<path d="M18.5529 3.95068H14.5212C13.6803 3.95068 12.9961 4.63462 12.9961 5.47522C12.9961 6.31582 13.6803 6.99976 14.5212 6.99976H18.5529C19.3938 6.99976 20.078 6.31582 20.078 5.47522C20.078 4.63462 19.3938 3.95068 18.5529 3.95068ZM18.5529 6.09055H14.5212C14.1816 6.09055 13.9054 5.81451 13.9054 5.47522C13.9054 5.13594 14.1817 4.8599 14.5212 4.8599H18.5529C18.8925 4.8599 19.1687 5.13594 19.1687 5.47522C19.1687 5.81451 18.8925 6.09055 18.5529 6.09055Z" fill="white"/>
<path d="M9.17161 3.95068C8.33065 3.95068 7.64648 4.63462 7.64648 5.47522C7.64648 6.31582 8.33065 6.99976 9.17161 6.99976C10.0132 6.99976 10.698 6.31582 10.698 5.47522C10.698 4.63462 10.0132 3.95068 9.17161 3.95068ZM9.17161 6.09055C8.83201 6.09055 8.55574 5.81451 8.55574 5.47522C8.55574 5.13594 8.83205 4.8599 9.17161 4.8599C9.51189 4.8599 9.78878 5.13594 9.78878 5.47522C9.78878 5.81451 9.51189 6.09055 9.17161 6.09055Z" fill="#F1F1F1"/>
<path d="M8.42909 11.4872C8.18497 11.4287 7.93959 11.5794 7.88126 11.8237L6.97935 15.5979C6.92101 15.8421 7.07163 16.0874 7.31584 16.1457C7.35136 16.1542 7.38693 16.1583 7.42192 16.1583C7.62744 16.1583 7.81381 16.0179 7.86367 15.8092L8.76559 12.035C8.82397 11.7908 8.6733 11.5456 8.42909 11.4872Z" fill="#F1F1F1"/>
<path d="M10.0976 15.7024C10.1842 15.7796 10.2923 15.8176 10.3998 15.8176C10.525 15.8176 10.6497 15.7662 10.7395 15.6653L12.0143 14.2343C12.2247 14.0001 12.2247 13.6334 12.0156 13.4007L10.7395 11.9682C10.5724 11.7806 10.285 11.7641 10.0976 11.9311C9.91005 12.0981 9.89346 12.3855 10.0605 12.5729L11.1685 13.8167L10.0605 15.0605C9.8935 15.2481 9.91009 15.5355 10.0976 15.7024Z" fill="#F1F1F1"/>
<path d="M5.64699 11.931C5.45945 11.764 5.17214 11.7807 5.00511 11.9681L3.73041 13.3991C3.51979 13.6333 3.51979 14.0002 3.72897 14.2328L5.00515 15.6653C5.095 15.7662 5.21961 15.8176 5.34485 15.8176C5.45241 15.8176 5.56047 15.7796 5.64708 15.7024C5.83462 15.5354 5.85121 15.248 5.68418 15.0606L4.5762 13.8168L5.68418 12.573C5.85112 12.3854 5.83453 12.098 5.64699 11.931Z" fill="#F1F1F1"/>
<path d="M23.0627 16.766H22.894C22.8055 16.4796 22.691 16.2032 22.5512 15.939L22.6717 15.8181C22.8641 15.6269 22.9702 15.3716 22.9706 15.0993C22.971 14.8262 22.8652 14.5699 22.6726 14.3774L22.438 14.1428V4.45918C22.438 3.10316 21.481 2 20.3048 2H3.13319C1.95691 2 1 3.10316 1 4.45918V17.1657C1 18.5217 1.95691 19.6249 3.13319 19.6249H5.80052C6.05158 19.6249 6.25512 19.4213 6.25512 19.1703C6.25512 18.9192 6.05158 18.7157 5.80052 18.7157H3.13319C2.46976 18.7157 1.90926 18.0058 1.90926 17.1657V8.91779H21.5286V13.5119C21.4768 13.5039 21.4244 13.4987 21.371 13.4987C21.3704 13.4987 21.3699 13.4987 21.3694 13.4987C21.097 13.4991 20.8417 13.6052 20.652 13.7959L20.5291 13.9182C20.2594 13.7757 19.9785 13.6598 19.6888 13.5713V13.4094C19.6888 12.8475 19.2316 12.3904 18.6695 12.3904H17.8468C17.2855 12.3904 16.8289 12.8475 16.8289 13.4094V13.5824C16.5447 13.6717 16.2703 13.7867 16.008 13.9262L15.8902 13.8088C15.699 13.6166 15.4437 13.5105 15.1713 13.5101C15.1708 13.5101 15.1703 13.5101 15.1697 13.5101C14.8973 13.5101 14.6415 13.6158 14.4493 13.8079L13.8681 14.3889C13.6755 14.5814 13.5697 14.8377 13.5701 15.1107C13.5705 15.3831 13.6766 15.6384 13.8675 15.8281L13.9931 15.954C13.8568 16.2141 13.7449 16.4855 13.6583 16.7659H13.4856C12.9242 16.7659 12.4676 17.2224 12.4676 17.7836V18.6071C12.4676 18.6437 12.4696 18.6799 12.4734 18.7155H9.82823C9.57717 18.7155 9.37363 18.919 9.37363 19.1701C9.37363 19.4211 9.57717 19.6247 9.82823 19.6247H13.4856H13.66C13.7479 19.9078 13.8615 20.1813 14.0002 20.4431L13.8773 20.5654C13.4818 20.963 13.4822 21.6086 13.8783 22.0043L14.4598 22.5857C14.6511 22.7779 14.9064 22.884 15.1788 22.8844H15.1803C15.4528 22.8844 15.7086 22.7787 15.9007 22.5866L16.0225 22.4649C16.2867 22.6042 16.5614 22.7179 16.8441 22.8054V22.9813C16.8441 23.5432 17.3008 24.0003 17.8621 24.0003H18.6861C19.2474 24.0003 19.704 23.5432 19.704 22.9813V22.8064C19.9895 22.7184 20.2653 22.6042 20.5291 22.4649L20.6504 22.5856C20.8416 22.7779 21.0968 22.8839 21.3692 22.8844H21.3708C21.6432 22.8844 21.899 22.7787 22.0916 22.5863L22.6716 22.0053C22.8639 21.8141 22.9701 21.5588 22.9705 21.2864C22.9709 21.0134 22.8651 20.7571 22.6725 20.5645L22.5512 20.4432C22.6895 20.1812 22.8031 19.9075 22.8908 19.6247H23.0627C23.6247 19.6247 24.0819 19.1682 24.0819 18.6071V17.7836C24.082 17.2225 23.6248 16.766 23.0627 16.766ZM1.90926 8.00853V4.45918C1.90926 3.61908 2.46976 2.90926 3.13319 2.90926H20.3048C20.9682 2.90926 21.5287 3.61908 21.5287 4.45918V8.00858L1.90926 8.00853ZM23.1727 18.6072C23.1727 18.6649 23.1213 18.7156 23.0627 18.7156H22.5428C22.3308 18.7156 22.147 18.862 22.0997 19.0686C22.0015 19.4972 21.8328 19.9035 21.5983 20.2766C21.4854 20.4562 21.5118 20.6901 21.6619 20.8401L22.0298 21.2077C22.0573 21.2352 22.0613 21.2681 22.0613 21.2852C22.0613 21.3057 22.056 21.3354 22.0294 21.3617L21.4486 21.9436C21.421 21.9711 21.3882 21.9752 21.3709 21.9752C21.3708 21.9752 21.3708 21.9752 21.3708 21.9752C21.3501 21.9752 21.3203 21.9699 21.2937 21.943L20.9245 21.5753C20.7743 21.4258 20.5409 21.3999 20.3616 21.5126C19.988 21.7476 19.5799 21.9165 19.1486 22.0147C18.9417 22.0618 18.7949 22.2458 18.7949 22.458V22.9815C18.7949 23.0399 18.7441 23.0912 18.6862 23.0912H17.8622C17.8043 23.0912 17.7535 23.0399 17.7535 22.9815V22.4567C17.7535 22.2443 17.6063 22.0601 17.3991 22.0133C16.9733 21.917 16.566 21.7483 16.1885 21.5121C16.1141 21.4655 16.0305 21.4428 15.9474 21.4428C15.83 21.4428 15.7136 21.4882 15.6259 21.5759L15.2581 21.9436C15.2305 21.9711 15.1976 21.9752 15.1803 21.9752C15.1803 21.9752 15.1802 21.9752 15.1802 21.9752C15.1596 21.9752 15.1297 21.9699 15.1036 21.9436L14.5211 21.3614C14.4803 21.3206 14.4808 21.2484 14.5206 21.2084L14.8898 20.8407C15.0406 20.6905 15.067 20.4558 14.9533 20.2758C14.7185 19.904 14.5496 19.4979 14.4514 19.0688C14.404 18.8622 14.2202 18.7157 14.0082 18.7157H13.4857C13.4267 18.7157 13.3769 18.666 13.3769 18.6073V17.7838C13.3769 17.725 13.4267 17.6753 13.4857 17.6753H14.0068C14.219 17.6753 14.4031 17.5285 14.4502 17.3216C14.5472 16.8953 14.7139 16.4909 14.9457 16.1195C15.0576 15.9402 15.0312 15.7074 14.8819 15.5577L14.51 15.1847C14.4847 15.1597 14.4794 15.13 14.4793 15.1095C14.4793 15.0924 14.4834 15.0595 14.5109 15.0321L15.0921 14.4512C15.1196 14.4237 15.1525 14.4195 15.1698 14.4195H15.17C15.1906 14.4196 15.2204 14.4249 15.2471 14.4517L15.6137 14.8169C15.7643 14.9669 15.9986 14.9926 16.1779 14.8788C16.5494 14.6433 16.9562 14.4727 17.3871 14.3718C17.5927 14.3237 17.7381 14.1403 17.7381 13.9292V13.4095C17.7381 13.3501 17.7879 13.2998 17.8468 13.2998H18.6695C18.7291 13.2998 18.7795 13.3501 18.7795 13.4095V13.9215C18.7795 14.1345 18.9274 14.3189 19.1354 14.3652C19.5679 14.4616 19.9806 14.6317 20.362 14.871C20.5412 14.9833 20.7744 14.9573 20.9244 14.8079L21.2951 14.4387C21.3203 14.4134 21.3501 14.4081 21.3707 14.4081H21.3708C21.3881 14.4081 21.421 14.4122 21.4485 14.4397L22.0297 15.0206C22.0572 15.0481 22.0613 15.0809 22.0613 15.098C22.0612 15.1185 22.0559 15.1482 22.0292 15.1748L21.6613 15.5438C21.5115 15.694 21.4855 15.9279 21.5987 16.1073C21.8341 16.4805 22.0034 16.8891 22.102 17.3218C22.1492 17.5286 22.3331 17.6754 22.5453 17.6754H23.0627C23.1213 17.6754 23.1727 17.7261 23.1727 17.7838V18.6072Z" fill="white"/>
<path d="M18.2764 15.4189C16.7444 15.4189 15.498 16.6647 15.498 18.196C15.498 19.7266 16.7444 20.9719 18.2764 20.9719C19.8077 20.9719 21.0534 19.7267 21.0534 18.196C21.0534 16.6648 19.8077 15.4189 18.2764 15.4189ZM18.2764 20.0626C17.2458 20.0626 16.4073 19.2253 16.4073 18.196C16.4073 17.1661 17.2458 16.3282 18.2764 16.3282C19.3063 16.3282 20.1442 17.1661 20.1442 18.196C20.1442 19.2253 19.3062 20.0626 18.2764 20.0626Z" fill="white"/>
</svg>
