<svg width="26" height="26" viewBox="0 0 26 26" fill="none" xmlns="http://www.w3.org/2000/svg">
<path d="M4.44444 5C3.09618 5 2 6.08906 2 7.42857V19.5714C2 20.9109 3.09618 22 4.44444 22H21.5556C22.9038 22 24 20.9109 24 19.5714V7.42857C24 6.08906 22.9038 5 21.5556 5H4.44444ZM10.7656 10.3618L13.5156 15.8261C13.741 16.2777 13.5576 16.8241 13.1069 17.048C12.6562 17.2719 12.1024 17.0897 11.8771 16.642L11.6708 16.2321H8.21806L8.01181 16.6382C7.78646 17.0897 7.23646 17.2719 6.78194 17.0442C6.32743 16.8165 6.1441 16.2739 6.37326 15.8223L9.12326 10.358C9.27986 10.0507 9.59687 9.85335 9.94444 9.85335C10.292 9.85335 10.609 10.0469 10.7656 10.358V10.3618ZM9.94444 12.8056L9.13472 14.4107H10.7503L9.94444 12.8056ZM16.9722 13.5C16.4642 13.5 16.0556 13.906 16.0556 14.4107C16.0556 14.9154 16.4642 15.3214 16.9722 15.3214C17.4802 15.3214 17.8889 14.9154 17.8889 14.4107C17.8889 13.906 17.4802 13.5 16.9722 13.5ZM17.8889 11.8342V10.7679C17.8889 10.2632 18.2976 9.85714 18.8056 9.85714C19.3135 9.85714 19.7222 10.2632 19.7222 10.7679V14.4107V16.2321C19.7222 16.7368 19.3135 17.1429 18.8056 17.1429C18.5535 17.1429 18.3243 17.0404 18.1562 16.8772C17.7972 17.048 17.3962 17.1429 16.9722 17.1429C15.4521 17.1429 14.2222 15.921 14.2222 14.4107C14.2222 12.9004 15.4521 11.6786 16.9722 11.6786C17.2931 11.6786 17.6024 11.7317 17.8889 11.8342Z" fill="#302929"/>
</svg>
