<svg width="25" height="21" viewBox="0 0 25 21" fill="none" xmlns="http://www.w3.org/2000/svg">
<path d="M23.8793 13.803C22.5092 5.2854 19.4716 3.37937 17.506 2.81352C16.4339 2.51562 15.5404 2.4562 14.8554 3.29007C15.0937 3.975 15.5404 4.63019 16.1359 5.10675L18.7269 7.25103C18.9652 7.45961 18.9949 7.81694 18.7865 8.05519C18.5779 8.29347 18.2206 8.32318 17.9824 8.11481L15.3914 5.97054C14.1703 4.95801 13.4557 3.43899 13.4557 1.86061V0.699128C13.4557 0.460849 13.277 0.282196 13.0388 0.282196H11.4901C11.2518 0.282196 11.0731 0.460854 11.0731 0.699128V1.86061C11.0731 3.43904 10.3583 4.9578 9.13744 5.97054L6.54649 8.11481C6.30821 8.32339 5.95091 8.29347 5.74233 8.05519C5.53376 7.81691 5.56367 7.45961 5.80195 7.25103L8.3929 5.10675C8.98848 4.6302 9.40542 3.975 9.67341 3.29007C9.01821 2.45619 8.12471 2.5158 7.02284 2.81352C5.0572 3.37942 2.01963 5.2854 0.649564 13.803C-0.690557 22.112 1.60268 20.1167 5.6231 18.8361C9.34581 17.6449 10.954 20.0273 10.954 11.3907C10.954 10.5271 10.954 9.72297 10.8944 9.0081L8.77979 10.7652C8.54151 10.9737 8.18421 10.9438 7.97563 10.7055C7.76706 10.4673 7.79698 10.11 8.03526 9.90139L11.6983 6.86361C11.9962 6.62533 12.4132 6.62533 12.7109 6.86361L16.4934 9.9016C16.7317 10.1102 16.7614 10.4675 16.553 10.7058C16.3445 10.944 15.9871 10.9737 15.7489 10.7654L13.6343 8.97838C13.6046 9.69319 13.5746 10.4972 13.5746 11.361C13.5746 19.9679 15.2127 17.6151 18.9056 18.8064C22.9563 20.1166 25.2198 22.0823 23.8795 13.803H23.8793Z" fill="#4799E7"/>
</svg>
