<svg width="26" height="26" viewBox="0 0 26 26" fill="none" xmlns="http://www.w3.org/2000/svg">
<path d="M2 6.42857C2 5.08906 3.09618 4 4.44444 4H21.5556C22.9038 4 24 5.08906 24 6.42857V18.5714C24 19.9109 22.9038 21 21.5556 21H4.44444C3.09618 21 2 19.9109 2 18.5714V6.42857ZM6.88889 13.7143C7.56493 13.7143 8.11111 13.1717 8.11111 12.5C8.11111 11.8283 7.56493 11.2857 6.88889 11.2857C6.21285 11.2857 5.66667 11.8283 5.66667 12.5C5.66667 13.1717 6.21285 13.7143 6.88889 13.7143ZM8.11111 8.85714C8.11111 8.18549 7.56493 7.64286 6.88889 7.64286C6.21285 7.64286 5.66667 8.18549 5.66667 8.85714C5.66667 9.52879 6.21285 10.0714 6.88889 10.0714C7.56493 10.0714 8.11111 9.52879 8.11111 8.85714ZM6.88889 17.3571C7.56493 17.3571 8.11111 16.8145 8.11111 16.1429C8.11111 15.4712 7.56493 14.9286 6.88889 14.9286C6.21285 14.9286 5.66667 15.4712 5.66667 16.1429C5.66667 16.8145 6.21285 17.3571 6.88889 17.3571ZM10.5556 7.94643C10.0476 7.94643 9.63889 8.35246 9.63889 8.85714C9.63889 9.36183 10.0476 9.76786 10.5556 9.76786H19.1111C19.6191 9.76786 20.0278 9.36183 20.0278 8.85714C20.0278 8.35246 19.6191 7.94643 19.1111 7.94643H10.5556ZM10.5556 11.5893C10.0476 11.5893 9.63889 11.9953 9.63889 12.5C9.63889 13.0047 10.0476 13.4107 10.5556 13.4107H19.1111C19.6191 13.4107 20.0278 13.0047 20.0278 12.5C20.0278 11.9953 19.6191 11.5893 19.1111 11.5893H10.5556ZM10.5556 15.2321C10.0476 15.2321 9.63889 15.6382 9.63889 16.1429C9.63889 16.6475 10.0476 17.0536 10.5556 17.0536H19.1111C19.6191 17.0536 20.0278 16.6475 20.0278 16.1429C20.0278 15.6382 19.6191 15.2321 19.1111 15.2321H10.5556Z" fill="#302929"/>
</svg>
