<svg width="26" height="26" viewBox="0 0 26 26" fill="none" xmlns="http://www.w3.org/2000/svg">
<path d="M6.4 9.25C4.7425 9.25 3.4 7.85156 3.4 6.125C3.4 4.39844 4.7425 3 6.4 3C8.0575 3 9.4 4.39844 9.4 6.125C9.4 7.85156 8.0575 9.25 6.4 9.25ZM20.2 9.25C18.5425 9.25 17.2 7.85156 17.2 6.125C17.2 4.39844 18.5425 3 20.2 3C21.8575 3 23.2 4.39844 23.2 6.125C23.2 7.85156 21.8575 9.25 20.2 9.25ZM1 14.668C1 12.3672 2.7925 10.5 5.00125 10.5H6.6025C7.19875 10.5 7.765 10.6367 8.275 10.8789C8.22625 11.1602 8.20375 11.4531 8.20375 11.75C8.20375 13.2422 8.83375 14.582 9.8275 15.5C9.82 15.5 9.8125 15.5 9.80125 15.5H1.79875C1.36 15.5 1 15.125 1 14.668ZM16.1988 15.5C16.1912 15.5 16.1838 15.5 16.1725 15.5C17.17 14.582 17.7963 13.2422 17.7963 11.75C17.7963 11.4531 17.77 11.1641 17.725 10.8789C18.235 10.6328 18.8013 10.5 19.3975 10.5H20.9988C23.2075 10.5 25 12.3672 25 14.668C25 15.1289 24.64 15.5 24.2013 15.5H16.1988ZM16.6 11.75C16.6 13.8203 14.9875 15.5 13 15.5C11.0125 15.5 9.4 13.8203 9.4 11.75C9.4 9.67969 11.0125 8 13 8C14.9875 8 16.6 9.67969 16.6 11.75ZM5.8 21.957C5.8 19.082 8.03875 16.75 10.7987 16.75H15.2013C17.9613 16.75 20.2 19.082 20.2 21.957C20.2 22.5312 19.7537 23 19.1987 23H6.80125C6.25 23 5.8 22.5352 5.8 21.957Z" fill="#302929"/>
</svg>
