<svg width="25" height="36" viewBox="0 0 25 36" fill="none" xmlns="http://www.w3.org/2000/svg">
<path fill-rule="evenodd" clip-rule="evenodd" d="M5.29314 21.4915C5.70319 21.4915 6.06551 21.2243 6.18678 20.8327L7.61339 16.2292C7.79385 15.6467 9.5884 16.2811 9.57824 16.617L9.42774 21.7406C9.41903 22.0381 9.55245 22.322 9.78691 22.5053L16.7072 27.9111C16.7803 27.9682 16.8444 28.0358 16.8977 28.1121L21.9137 35.2811C22.1959 35.6845 22.7425 35.8002 23.1641 35.5455L23.6776 35.2354V35.2351C24.0476 35.0118 24.2162 34.5638 24.0855 34.1517L21.4235 25.7606C21.364 25.5724 21.2462 25.4084 21.0877 25.2909L15.6909 21.303C15.3885 21.0797 15.2495 20.6972 15.3373 20.3317L15.9348 17.8506C16.0943 17.1883 18.903 18.4937 18.903 18.4937C19.2625 18.7752 19.7732 18.756 20.1104 18.4484L24.4959 14.4476C24.7404 14.2246 24.8488 13.8892 24.7812 13.5652C24.7136 13.2412 24.4798 12.9771 24.1667 12.8705L23.8778 12.7722C23.6357 12.69 23.3703 12.7102 23.1438 12.8287L20.0168 14.4602H20.0164C19.6252 14.6643 19.1444 14.5671 18.8629 14.2271L15.2035 9.80509C15.0788 9.65424 11.4431 8.784 11.2111 8.97559L4.69776 14.349C4.48246 14.5267 4.35774 14.7915 4.35739 15.0705V20.5558C4.35774 21.0728 4.77649 21.4915 5.29313 21.4915L5.29314 21.4915Z" fill="#4799E7"/>
<path fill-rule="evenodd" clip-rule="evenodd" d="M2.2662 33.165L10.7852 34.6383L13.7391 28.0191L9.63657 25.0721L9.14431 30.9733L2.31083 30.0233C1.98196 29.9777 1.64821 30.0575 1.37581 30.2473C1.10373 30.4369 0.912816 30.7222 0.842092 31.0465C0.738619 31.5175 0.832338 32.0102 1.10128 32.4101C1.37023 32.8104 1.79108 33.0832 2.26622 33.165L2.2662 33.165Z" fill="#4799E7"/>
<path d="M17.0915 4.16258C17.0915 6.03235 15.5757 7.54815 13.7059 7.54815C11.8361 7.54815 10.3203 6.03235 10.3203 4.16258C10.3203 2.2928 11.8361 0.777008 13.7059 0.777008C15.5757 0.777008 17.0915 2.2928 17.0915 4.16258Z" fill="#4799E7"/>
</svg>
