<svg width="15" height="10" viewBox="0 0 15 10" fill="none" xmlns="http://www.w3.org/2000/svg">
<g clip-path="url(#clip0_757_3)">
<path d="M7.5 5.83294C7.94227 5.83294 8.36644 5.65733 8.67917 5.34474C8.99191 5.03215 9.1676 4.60819 9.1676 4.16612C9.1676 3.72405 8.99191 3.30009 8.67917 2.9875C8.36644 2.67491 7.94227 2.4993 7.5 2.4993C7.47374 2.4993 7.45123 2.50586 7.42591 2.5068C7.5066 2.72805 7.52242 2.96772 7.47148 3.19764C7.42055 3.42757 7.30499 3.63817 7.1384 3.80469C6.9718 3.97121 6.7611 4.08671 6.53107 4.13762C6.30104 4.18853 6.06125 4.17272 5.8399 4.09206C5.8399 4.11831 5.8324 4.14081 5.8324 4.16612C5.8324 4.38501 5.87553 4.60176 5.95934 4.80399C6.04314 5.00622 6.16598 5.18996 6.32083 5.34474C6.47568 5.49952 6.65951 5.62229 6.86184 5.70606C7.06416 5.78983 7.28101 5.83294 7.5 5.83294ZM14.9095 4.61986C14.2208 3.24169 13.1643 2.08075 11.8566 1.26542C10.5489 0.450089 9.04117 0.012139 7.5 0C5.95888 0.0123505 4.45119 0.450391 3.14357 1.2657C1.83596 2.08101 0.779348 3.24183 0.0905329 4.61986C0.0310092 4.73774 0 4.86795 0 5C0 5.13205 0.0310092 5.26226 0.0905329 5.38014C0.779178 6.75831 1.83575 7.91925 3.1434 8.73458C4.45105 9.54991 5.95883 9.98786 7.5 10C9.04112 9.98765 10.5488 9.54961 11.8564 8.7343C13.164 7.91899 14.2207 6.75817 14.9095 5.38014C14.969 5.26226 15 5.13205 15 5C15 4.86795 14.969 4.73774 14.9095 4.61986ZM7.5 0.833411C8.15964 0.833411 8.80447 1.02893 9.35294 1.39523C9.90141 1.76154 10.3289 2.28218 10.5813 2.89132C10.8338 3.50047 10.8998 4.17075 10.7711 4.81742C10.6424 5.46408 10.3248 6.05808 9.85834 6.5243C9.39191 6.99052 8.79763 7.30802 8.15066 7.43665C7.5037 7.56528 6.8331 7.49926 6.22367 7.24695C5.61425 6.99463 5.09336 6.56735 4.72688 6.01913C4.36041 5.47092 4.1648 4.82639 4.1648 4.16706C4.1648 3.28292 4.51619 2.43499 5.14166 1.80981C5.76713 1.18463 6.61545 0.833411 7.5 0.833411ZM7.5 9.16659C6.11157 9.15616 4.75321 8.7612 3.57584 8.02558C2.39847 7.28996 1.44818 6.24249 0.830542 4.99953C1.57098 3.54624 2.75527 2.36644 4.2117 1.6312C3.80746 2.15531 3.53417 2.76826 3.41453 3.41914C3.29489 4.07003 3.33234 4.74005 3.52378 5.37356C3.71523 6.00706 4.05513 6.58577 4.51526 7.06161C4.9754 7.53745 5.54248 7.89668 6.1694 8.10947C6.79632 8.32227 7.46499 8.38247 8.11987 8.28509C8.77475 8.18771 9.39693 7.93555 9.93473 7.54957C10.4725 7.16358 10.9104 6.65491 11.2121 6.0658C11.5137 5.47669 11.6703 4.82415 11.669 4.16237C11.6657 3.2443 11.3561 2.35355 10.7892 1.6312C12.2457 2.36644 13.43 3.54624 14.1704 4.99953C13.5527 6.24263 12.6023 7.29019 11.4247 8.02582C10.2471 8.76145 8.88859 9.15633 7.5 9.16659Z" fill="#233D4E"/>
<line x1="15.2957" y1="-0.596797" x2="0.295682" y2="10.4032" stroke="#233D4E"/>
</g>
<defs>
<clipPath id="clip0_757_3">
<rect width="15" height="10" fill="white"/>
</clipPath>
</defs>
</svg>
