<svg width="229" height="118" viewBox="0 0 229 118" fill="none" xmlns="http://www.w3.org/2000/svg">
<g clip-path="url(#clip0_7565_16585)">
<mask id="mask0_7565_16585" style="mask-type:luminance" maskUnits="userSpaceOnUse" x="56" y="-11" width="118" height="119">
<path d="M173.821 -11H56V107.536H173.821V-11Z" fill="white"/>
</mask>
<g mask="url(#mask0_7565_16585)">
<path d="M162.649 48.2667C162.649 74.7946 141.274 96.299 114.907 96.299C88.5387 96.299 67.1641 74.7946 67.1641 48.2667C67.1641 21.7388 88.5387 0.234375 114.907 0.234375C141.274 0.234375 162.649 21.7388 162.649 48.2667Z" fill="black"/>
</g>
<mask id="mask1_7565_16585" style="mask-type:luminance" maskUnits="userSpaceOnUse" x="56" y="-11" width="118" height="119">
<path d="M173.821 -11H56V107.536H173.821V-11Z" fill="white"/>
</mask>
<g mask="url(#mask1_7565_16585)">
<path d="M110.206 58.2312C109.87 59.815 109.271 61.0409 108.41 61.9091C107.55 62.7762 106.515 63.3842 105.309 63.731C104.101 64.0779 102.753 64.2173 101.264 64.1514C99.7744 64.0845 98.2395 63.9143 96.6609 63.641C95.0812 63.3678 93.4939 63.0308 91.899 62.6313C90.3029 62.2318 88.7822 61.8663 87.3367 61.5381C86.6352 62.6554 85.8258 63.5741 84.9083 64.2952C83.9908 65.0163 82.8661 65.4619 81.534 65.632C80.2271 65.7988 79.194 65.6551 78.4347 65.1996C77.6743 64.7441 77.2488 64.1942 77.155 63.5521C77.0601 62.909 77.3198 62.2779 77.9318 61.6611C78.5427 61.0431 79.554 60.6579 80.9646 60.5031C81.618 60.4197 82.362 60.3956 83.1966 60.4296C84.0301 60.4636 84.9268 60.5361 85.8858 60.6447C86.3134 59.5878 86.7138 58.4068 87.0858 57.1007C87.4578 55.7946 87.8211 54.4249 88.1756 52.9926C88.5313 51.5603 88.888 50.0884 89.2469 48.5782C89.6048 47.068 89.9844 45.5687 90.3837 44.0782C89.3091 44.0618 88.2487 44.0036 87.2025 43.907C86.1563 43.8093 85.1112 43.7248 84.0683 43.6524C83.0253 43.581 81.966 43.536 80.8915 43.5185C79.8169 43.502 78.7391 43.5624 77.659 43.7007C76.1765 43.8895 74.9622 44.3856 74.0164 45.1868C73.0706 45.988 72.3778 46.9253 71.9382 47.9954C71.4996 49.0666 71.3076 50.1828 71.3654 51.344C71.4222 52.5064 71.7145 53.5534 72.2415 54.4885C72.7673 55.4237 73.5178 56.1623 74.4942 56.7056C75.4684 57.25 76.6728 57.4289 78.1052 57.2467C79.0849 57.1216 80.0351 56.8593 80.9547 56.4586C81.8744 56.0591 82.7297 55.551 83.5206 54.9363C84.3105 54.3217 85.0141 53.6226 85.6305 52.8367C86.2458 52.052 86.7389 51.1992 87.1076 50.2783L87.4283 50.3914C87.0367 51.3408 86.5294 52.221 85.9043 53.0332C85.2792 53.8454 84.5592 54.5665 83.7453 55.1976C82.9304 55.8287 82.0457 56.3533 81.09 56.7693C80.1333 57.1874 79.1536 57.4596 78.1489 57.588C76.2386 57.8317 74.6306 57.6846 73.3248 57.1446C72.0178 56.6057 71.0163 55.8473 70.3181 54.8694C69.6199 53.8926 69.2381 52.7917 69.1738 51.5668C69.1083 50.342 69.3745 49.1654 69.9723 48.036C70.5701 46.9066 71.504 45.9079 72.7738 45.0386C74.0426 44.1704 75.6572 43.6107 77.6176 43.3604C78.7227 43.2188 79.8136 43.1574 80.8882 43.1739C81.9628 43.1914 83.0352 43.2408 84.1054 43.322C85.1756 43.4043 86.2392 43.4867 87.2963 43.5701C88.3535 43.6535 89.4193 43.7029 90.4939 43.7204C91.0055 41.9084 91.5772 40.1655 92.2088 38.4917C92.8405 36.819 93.5714 35.3252 94.4016 34.0115C95.2318 32.6977 96.1929 31.6188 97.2871 30.7726C98.3802 29.9264 99.6435 29.4116 101.076 29.2283C102.231 29.0813 103.087 29.3315 103.642 29.9801C104.196 30.6288 104.482 31.4783 104.499 32.5298C104.517 33.5812 104.275 34.749 103.774 36.0321C103.272 37.3162 102.512 38.5312 101.495 39.6759C100.477 40.8218 99.2224 41.803 97.73 42.6229C96.2376 43.4438 94.5281 43.9125 92.6026 44.0288C92.2568 45.5369 91.9252 47.057 91.6077 48.587C91.2902 50.1181 90.9422 51.614 90.5659 53.0749C90.1884 54.5368 89.7706 55.9318 89.3135 57.2621C88.8553 58.5923 88.324 59.7963 87.7207 60.8752C89.1727 61.0497 90.6804 61.2616 92.2437 61.5118C93.807 61.7609 95.3583 61.9618 96.8966 62.1122C98.4337 62.2625 99.9141 62.3492 101.334 62.3734C102.755 62.3975 104.048 62.2779 105.215 62.0123C106.381 61.7478 107.374 61.3131 108.191 60.7073C109.008 60.1025 109.578 59.2519 109.899 58.1577L110.206 58.2312ZM81.57 65.3181C82.098 65.2501 82.5671 65.0756 82.9784 64.7913C83.3897 64.507 83.7617 64.1712 84.0955 63.7815C84.4294 63.3919 84.7206 62.9693 84.9694 62.5139C85.2181 62.0584 85.4428 61.6117 85.6425 61.1748C84.7272 61.0091 83.8828 60.8917 83.1082 60.8236C82.3337 60.7556 81.6322 60.7622 81.0038 60.8423C79.6936 60.9839 78.7543 61.3285 78.1849 61.8762C77.6154 62.4239 77.3798 62.9814 77.4768 63.5467C77.5728 64.1119 77.9721 64.5871 78.6714 64.9746C79.3729 65.3609 80.3384 65.4751 81.57 65.3181ZM101.106 29.5302C99.8999 29.6838 98.857 30.1711 97.9777 30.9899C97.0973 31.8087 96.3293 32.8568 95.6747 34.1355C95.018 35.4141 94.4561 36.8728 93.9859 38.5125C93.5157 40.1523 93.075 41.8722 92.6648 43.671C94.515 43.5635 96.1504 43.1168 97.5707 42.332C98.99 41.5473 100.193 40.6034 101.177 39.5014C102.161 38.3995 102.909 37.2383 103.419 36.0167C103.929 34.7951 104.191 33.6833 104.205 32.679C104.218 31.6759 103.969 30.8659 103.457 30.2501C102.946 29.6355 102.162 29.3952 101.106 29.5302Z" fill="white"/>
</g>
<mask id="mask2_7565_16585" style="mask-type:luminance" maskUnits="userSpaceOnUse" x="56" y="-11" width="118" height="119">
<path d="M173.821 -11H56V107.536H173.821V-11Z" fill="white"/>
</mask>
<g mask="url(#mask2_7565_16585)">
<path d="M108.632 48.2223C108.301 49.2409 107.929 50.2901 107.516 51.3701C107.104 52.4512 106.649 53.4533 106.152 54.3763C105.656 55.3005 105.134 56.0732 104.588 56.6955C104.04 57.3178 103.479 57.6789 102.905 57.7777C101.975 57.8962 101.332 57.6646 100.978 57.0796C100.623 56.4957 100.449 55.7153 100.453 54.7385C100.458 53.7617 100.6 52.6707 100.883 51.4656C101.166 50.2616 101.484 49.1026 101.842 47.9908C102.2 46.8789 102.541 45.8911 102.866 45.0274C103.191 44.1636 103.411 43.5709 103.523 43.2482L105.86 42.9497C105.766 43.2186 105.554 43.7718 105.227 44.6103C104.899 45.4488 104.541 46.4125 104.156 47.5023C103.77 48.5922 103.391 49.7392 103.019 50.9421C102.647 52.1461 102.363 53.236 102.168 54.2106C101.972 55.1863 101.913 55.9842 101.991 56.6033C102.07 57.2234 102.36 57.5 102.863 57.4363C103.34 57.3749 103.83 57.05 104.329 56.4584C104.83 55.869 105.312 55.138 105.777 54.2699C106.242 53.4017 106.689 52.4392 107.117 51.3822C107.545 50.3253 107.938 49.287 108.294 48.2652L108.632 48.2223ZM104.949 42.1035C104.672 42.1386 104.426 42.0618 104.21 41.8708C103.995 41.6809 103.893 41.4296 103.905 41.1201C103.917 40.8106 104.035 40.5318 104.259 40.2848C104.483 40.0379 104.734 39.8963 105.011 39.8612C105.312 39.8228 105.571 39.8996 105.787 40.0895C106.003 40.2804 106.103 40.5307 106.092 40.8402C106.08 41.1508 105.962 41.4285 105.738 41.6754C105.513 41.9224 105.25 42.0651 104.949 42.1035Z" fill="white"/>
</g>
<mask id="mask3_7565_16585" style="mask-type:luminance" maskUnits="userSpaceOnUse" x="56" y="-11" width="118" height="119">
<path d="M173.821 -11H56V107.536H173.821V-11Z" fill="white"/>
</mask>
<g mask="url(#mask3_7565_16585)">
<path d="M122.391 46.4696C122.097 47.3806 121.711 48.3223 121.235 49.2947C120.758 50.2682 120.192 51.2012 119.539 52.0935C118.886 52.9869 118.15 53.787 117.333 54.4949C116.516 55.2028 115.621 55.7483 114.649 56.1292C115.158 56.5265 115.558 57.1115 115.846 57.8831C116.135 58.6547 116.319 59.4987 116.396 60.414C116.474 61.3283 116.452 62.2755 116.333 63.2545C116.213 64.2335 116 65.1269 115.695 65.9369C115.388 66.7469 115.002 67.4252 114.534 67.9729C114.067 68.5206 113.53 68.8202 112.924 68.8718C112.019 68.987 111.407 68.6479 111.091 67.8544C110.774 67.0597 110.65 65.9841 110.722 64.6265C110.793 63.2688 111.024 61.7103 111.415 59.952C111.806 58.1926 112.27 56.4069 112.807 54.5915C112.425 55.205 112.017 55.7198 111.584 56.1347C111.151 56.5506 110.683 56.7888 110.181 56.8536C109.277 56.9688 108.615 56.6747 108.193 55.97C107.773 55.2665 107.548 54.3446 107.519 53.2042C107.49 52.0649 107.638 50.8071 107.962 49.4297C108.286 48.0523 108.76 46.7528 109.385 45.529C110.009 44.3063 110.752 43.2615 111.612 42.3933C112.473 41.5262 113.418 41.0257 114.449 40.894C114.825 40.8457 115.144 40.8896 115.403 41.0224C115.663 41.1563 115.871 41.3473 116.032 41.5976C116.191 41.8467 116.303 42.1354 116.37 42.4602C116.437 42.7862 116.466 43.1166 116.457 43.4513L117.17 41.5109L119.506 41.2123C119.415 41.5065 119.2 42.1255 118.86 43.0672C118.519 44.01 118.108 45.1536 117.627 46.5003C117.146 47.8459 116.631 49.332 116.082 50.9553C115.533 52.5797 115.005 54.2085 114.496 55.8394C115.419 55.4652 116.277 54.9318 117.07 54.2392C117.864 53.5477 118.584 52.774 119.229 51.9212C119.874 51.0684 120.433 50.175 120.902 49.2409C121.371 48.308 121.754 47.3981 122.052 46.5124L122.391 46.4696ZM110.138 56.5122C110.716 56.4387 111.264 56.0853 111.785 55.4542C112.305 54.8231 112.779 54.0691 113.204 53.1921C113.338 52.8409 113.55 52.2943 113.839 51.5502C114.129 50.8071 114.413 49.9807 114.694 49.0708C114.976 48.162 115.234 47.2291 115.471 46.2742C115.708 45.3194 115.854 44.4523 115.91 43.6752C115.964 42.8982 115.887 42.278 115.675 41.8171C115.463 41.3561 115.069 41.1629 114.49 41.2365C113.962 41.3034 113.443 41.7359 112.93 42.5338C112.418 43.3317 111.94 44.2986 111.496 45.4335C111.052 46.5684 110.664 47.8009 110.334 49.1268C110.003 50.4537 109.767 51.6654 109.625 52.763C109.482 53.8594 109.444 54.7704 109.51 55.4937C109.577 56.2181 109.785 56.5572 110.138 56.5122ZM112.884 68.5689C113.44 68.5228 113.933 68.2286 114.363 67.6864C114.793 67.1431 115.149 66.4813 115.434 65.6999C115.719 64.9184 115.915 64.0513 116.025 63.0998C116.134 62.1482 116.153 61.2273 116.079 60.3383C116.005 59.4482 115.827 58.6426 115.544 57.9215C115.262 57.1993 114.869 56.6648 114.365 56.3191C113.878 57.9226 113.435 59.4756 113.038 60.9771C112.64 62.4785 112.353 63.8 112.179 64.9404C112.003 66.0796 111.958 66.9851 112.042 67.6546C112.126 68.3252 112.408 68.6303 112.884 68.5689Z" fill="white"/>
</g>
<mask id="mask4_7565_16585" style="mask-type:luminance" maskUnits="userSpaceOnUse" x="56" y="-11" width="118" height="119">
<path d="M173.821 -11H56V107.536H173.821V-11Z" fill="white"/>
</mask>
<g mask="url(#mask4_7565_16585)">
<path d="M144.352 43.0331C144.19 43.5676 144 44.1822 143.781 44.8781C143.563 45.5739 143.29 46.2511 142.965 46.9085C142.64 47.5671 142.259 48.1422 141.823 48.6339C141.387 49.1267 140.854 49.4132 140.226 49.4933C139.799 49.5482 139.404 49.4571 139.043 49.22C138.51 50.2649 137.888 51.1396 137.173 51.8486C136.458 52.5565 135.673 52.9648 134.819 53.0746C133.662 53.2217 132.786 52.955 132.19 52.2734C131.593 51.5918 131.236 50.6874 131.119 49.5591C131.003 48.4308 131.094 47.1796 131.393 45.8055C131.692 44.4313 132.167 43.1318 132.816 41.9059C133.466 40.6799 134.265 39.6274 135.214 38.7482C136.162 37.8702 137.214 37.3565 138.371 37.2083C139.225 37.0997 139.865 37.4158 140.291 38.1577C140.716 38.9008 140.947 39.8655 140.983 41.0564C141.017 42.2461 140.876 43.5489 140.556 44.9648C140.236 46.3806 139.782 47.69 139.194 48.8962C139.477 49.1168 139.794 49.2046 140.147 49.1596C140.699 49.0894 141.181 48.8161 141.595 48.3386C142.007 47.8623 142.366 47.3157 142.67 46.6978C142.976 46.081 143.233 45.4444 143.445 44.7881C143.655 44.1317 143.845 43.5621 144.014 43.0781L144.352 43.0331ZM138.82 48.9796C138.461 48.5625 138.248 47.9808 138.179 47.2312C138.109 46.4827 138.157 45.7451 138.321 45.0163C138.484 44.2898 138.766 43.6367 139.165 43.0594C139.564 42.4821 140.053 42.1561 140.631 42.0826C140.649 41.4131 140.628 40.7919 140.569 40.2211C140.51 39.6504 140.397 39.1587 140.23 38.7427C140.062 38.3279 139.83 38.0107 139.535 37.7911C139.239 37.5727 138.877 37.4893 138.45 37.5442C137.897 37.6144 137.328 38.0535 136.74 38.8613C136.152 39.668 135.605 40.6437 135.099 41.7873C134.592 42.931 134.154 44.169 133.787 45.5004C133.419 46.8317 133.188 48.0423 133.096 49.1333C133.003 50.2242 133.079 51.1198 133.32 51.8212C133.562 52.5225 134.034 52.8276 134.738 52.7387C135.567 52.6323 136.321 52.235 137 51.5435C137.678 50.8531 138.285 49.9982 138.82 48.9796Z" fill="white"/>
</g>
<mask id="mask5_7565_16585" style="mask-type:luminance" maskUnits="userSpaceOnUse" x="56" y="-11" width="118" height="119">
<path d="M173.821 -11H56V107.536H173.821V-11Z" fill="white"/>
</mask>
<g mask="url(#mask5_7565_16585)">
<path d="M153.507 41.8696C153.376 42.2461 153.208 42.7367 153.003 43.3403C152.798 43.9451 152.567 44.5905 152.309 45.2786C152.051 45.9668 151.757 46.6659 151.424 47.3761C151.092 48.0862 150.739 48.7293 150.365 49.3023C149.991 49.8774 149.598 50.3581 149.187 50.7434C148.775 51.1297 148.344 51.3525 147.892 51.4096C146.887 51.538 146.184 51.3382 145.786 50.8114C145.387 50.2846 145.177 49.5789 145.156 48.6953C145.134 47.8118 145.242 46.8031 145.482 45.6672C145.722 44.5323 145.99 43.4249 146.289 42.346C146.587 41.2671 146.851 40.2771 147.082 39.3738C147.312 38.4716 147.401 37.8054 147.347 37.3751C147.255 36.642 146.946 36.2194 146.421 36.1064C146.147 37.3751 145.811 38.6055 145.413 39.7996C145.014 40.9938 144.612 42.2077 144.206 43.4413L143.867 43.4841C144.275 42.2757 144.678 41.0563 145.072 39.8238C145.464 38.5923 145.798 37.3422 146.073 36.0734C146.02 36.0548 145.917 36.0548 145.766 36.0745C145.163 36.1514 144.796 35.9231 144.665 35.3864C144.533 34.8508 144.54 34.246 144.684 33.5732C144.829 32.8993 145.058 32.2924 145.374 31.7513C145.688 31.2102 145.976 30.961 146.237 31.0049C146.526 31.0708 146.71 31.3166 146.79 31.7436C146.868 32.1705 146.897 32.6425 146.873 33.1594C146.849 33.6764 146.791 34.178 146.699 34.6653C146.608 35.1526 146.548 35.4884 146.52 35.6706C147.61 35.6081 148.388 35.7541 148.854 36.1053C149.32 36.4576 149.567 36.9526 149.597 37.5903C149.61 37.8965 149.495 38.4573 149.254 39.2717C149.012 40.0861 148.725 41.0026 148.395 42.0211C148.064 43.0396 147.738 44.1031 147.418 45.2095C147.099 46.3169 146.874 47.3212 146.745 48.2234C146.615 49.1267 146.625 49.851 146.77 50.3976C146.915 50.9442 147.288 51.1659 147.888 51.0638C148.492 50.987 149.07 50.5601 149.623 49.7819C150.176 49.0048 150.69 48.1235 151.167 47.1379C151.641 46.1523 152.054 45.1689 152.403 44.1866C152.751 43.2043 153.006 42.4458 153.168 41.9113L153.507 41.8696ZM146.181 35.7145C146.19 35.585 146.236 35.2909 146.319 34.8299C146.4 34.37 146.461 33.8871 146.5 33.3811C146.538 32.8752 146.538 32.4197 146.5 32.0136C146.461 31.6075 146.35 31.3902 146.169 31.3616C145.99 31.3594 145.783 31.5976 145.55 32.0761C145.317 32.5558 145.141 33.0793 145.021 33.6467C144.901 34.2142 144.876 34.7245 144.946 35.1789C145.016 35.6322 145.278 35.8298 145.729 35.7727L146.181 35.7145Z" fill="white"/>
</g>
<mask id="mask6_7565_16585" style="mask-type:luminance" maskUnits="userSpaceOnUse" x="56" y="-11" width="118" height="119">
<path d="M173.821 -11H56V107.536H173.821V-11Z" fill="white"/>
</mask>
<g mask="url(#mask6_7565_16585)">
<path d="M116.006 83.2259C103.89 82.8253 92.9555 76.3168 86.7569 65.8176C86.4918 65.3698 86.639 64.7903 87.0852 64.5236C87.5314 64.258 88.1074 64.405 88.3714 64.8539C94.2417 74.7967 104.596 80.9594 116.068 81.3381C132.843 81.8935 147.517 69.7622 150.202 53.1211C150.285 52.6063 150.763 52.2562 151.279 52.3407C151.791 52.4241 152.139 52.9092 152.055 53.424C149.219 71.0002 133.722 83.812 116.006 83.2259Z" fill="white"/>
</g>
<mask id="mask7_7565_16585" style="mask-type:luminance" maskUnits="userSpaceOnUse" x="56" y="-11" width="118" height="119">
<path d="M173.821 -11H56V107.536H173.821V-11Z" fill="white"/>
</mask>
<g mask="url(#mask7_7565_16585)">
<path d="M78.7213 37.2064C78.6482 37.2042 78.5751 37.1932 78.502 37.1724C78.0024 37.0341 77.7089 36.5138 77.8464 36.0101C80.241 27.2801 85.5571 19.4743 92.8161 14.0304C100.296 8.42192 109.187 5.61987 118.531 5.92938C119.292 5.95462 120.062 6.00182 120.82 6.06877C121.336 6.11486 121.718 6.57364 121.672 7.09279C121.627 7.61193 121.162 7.99937 120.655 7.94998C119.93 7.88522 119.195 7.84132 118.468 7.81717C100.414 7.2201 84.4541 19.0199 79.6562 36.5127C79.5384 36.9419 79.1446 37.2196 78.7213 37.2064Z" fill="#F8B218"/>
</g>
<mask id="mask8_7565_16585" style="mask-type:luminance" maskUnits="userSpaceOnUse" x="56" y="-11" width="118" height="119">
<path d="M173.821 -11H56V107.536H173.821V-11Z" fill="white"/>
</mask>
<g mask="url(#mask8_7565_16585)">
<path d="M115.807 89.0737C115.288 89.0562 114.883 88.6204 114.899 88.0991C114.915 87.5778 115.349 87.1695 115.868 87.1859C135.956 87.8511 153.098 73.258 155.74 53.2419C155.809 52.7249 156.285 52.3594 156.794 52.4308C157.308 52.4988 157.669 52.9741 157.601 53.491C156.276 63.5325 151.307 72.696 143.611 79.2945C135.863 85.9369 125.989 89.4107 115.807 89.0737Z" fill="#F8B218"/>
</g>
<mask id="mask9_7565_16585" style="mask-type:luminance" maskUnits="userSpaceOnUse" x="56" y="-11" width="118" height="119">
<path d="M173.821 -11H56V107.536H173.821V-11Z" fill="white"/>
</mask>
<g mask="url(#mask9_7565_16585)">
<path d="M85.1274 36.8083C85.0379 36.805 84.9485 36.7896 84.859 36.76C84.367 36.5942 84.103 36.0586 84.2677 35.5647C89.1311 20.9662 102.688 11.2199 118.003 11.3132C127.857 11.3735 136.972 15.4037 143.681 22.6641C144.035 23.046 144.013 23.6431 143.633 23.9987C143.253 24.3532 142.66 24.3324 142.306 23.9504C135.954 17.0753 127.321 13.2514 117.992 13.2021C103.49 13.1143 90.653 22.3425 86.0492 36.1651C85.9129 36.569 85.5311 36.8214 85.1274 36.8083Z" fill="white"/>
</g>
<mask id="mask10_7565_16585" style="mask-type:luminance" maskUnits="userSpaceOnUse" x="56" y="-11" width="118" height="119">
<path d="M173.821 -11H56V107.536H173.821V-11Z" fill="white"/>
</mask>
<g mask="url(#mask10_7565_16585)">
<path d="M140.709 23.7188L134.385 27.288C134.385 27.288 133.274 27.8467 133.122 28.6281C133.113 28.6709 133.108 28.863 133.108 28.863L133.132 30.1329C133.132 30.1329 133.352 31.0372 132.626 31.1086C132.596 31.1119 132.499 31.1185 132.468 31.1272C132.365 31.1558 132.117 31.2633 132.117 31.2633L130.547 32.3115L128.814 33.9721L127.174 34.8633C127.174 34.8633 126.184 35.1575 126.336 36.1409C126.345 36.1968 126.438 36.4131 126.438 36.4131L126.586 36.6425C126.586 36.6425 126.677 36.7917 126.592 36.5996C126.409 36.1914 126.242 35.501 126.984 35.1739C126.984 35.1739 129.04 34.3892 129.561 33.7658L131.168 32.3433L132.13 31.7539C132.13 31.7539 132.391 31.6157 132.484 31.586C132.809 31.4839 133.543 31.2107 133.539 30.821C133.539 30.8024 133.529 30.5444 133.529 30.5444L133.5 29.0188C133.5 29.0188 133.496 28.8334 133.511 28.7565C133.553 28.5491 133.72 28.121 134.373 27.7885C135.246 27.3231 140.709 23.7188 140.709 23.7188Z" fill="#9E1F23"/>
</g>
<mask id="mask11_7565_16585" style="mask-type:luminance" maskUnits="userSpaceOnUse" x="56" y="-11" width="118" height="119">
<path d="M173.821 -11H56V107.536H173.821V-11Z" fill="white"/>
</mask>
<g mask="url(#mask11_7565_16585)">
<path d="M148.362 28.6719L143.915 31.5069L139.364 34.3429C139.364 34.3429 139.072 34.5416 138.947 34.6294C138.527 34.9224 137.499 35.5052 136.518 35.0344C136.518 35.0344 135.639 34.557 135.579 34.5054C135.548 34.4779 135.507 34.4483 135.46 34.422C135.26 34.3111 134.928 34.265 134.508 34.7106C134.508 34.7106 133.349 35.6831 132.017 36.0288C131.937 36.0496 131.433 36.1495 131.306 36.1912C130.738 36.38 129.112 36.9496 128.478 37.4787C128.456 37.4973 128.436 37.5083 128.476 37.4633C128.686 37.2317 129.457 36.4733 130.99 35.9388L133.168 35.0421L133.958 34.5295C133.958 34.5295 134.142 34.3781 134.195 34.3078C134.403 34.0301 135.023 33.4177 136.049 34.1553L136.749 34.5657C136.749 34.5657 136.86 34.6437 136.907 34.6766C137.072 34.794 137.53 35.0048 138.316 34.5339L141.991 32.3816L148.362 28.6719Z" fill="#9E1F23"/>
</g>
<mask id="mask12_7565_16585" style="mask-type:luminance" maskUnits="userSpaceOnUse" x="56" y="-11" width="118" height="119">
<path d="M173.821 -11H56V107.536H173.821V-11Z" fill="white"/>
</mask>
<g mask="url(#mask12_7565_16585)">
<path d="M138.435 25.9844L135.539 27.6614C135.539 27.6614 134.043 28.3836 134.032 28.9544C134.021 29.524 134.206 30.1057 134.206 30.1057L134.284 28.9972C134.284 28.9972 134.315 28.5022 134.98 28.2947C134.998 28.2892 135.1 28.2355 135.1 28.2355L138.435 25.9844Z" fill="#F8B218"/>
</g>
<mask id="mask13_7565_16585" style="mask-type:luminance" maskUnits="userSpaceOnUse" x="56" y="-11" width="118" height="119">
<path d="M173.821 -11H56V107.536H173.821V-11Z" fill="white"/>
</mask>
<g mask="url(#mask13_7565_16585)">
<path d="M124.611 50.3827C124.611 50.3827 123.245 49.7505 123.954 47.5312C123.954 47.5312 123.753 49.362 124.611 50.3827Z" fill="#F8B218"/>
</g>
<mask id="mask14_7565_16585" style="mask-type:luminance" maskUnits="userSpaceOnUse" x="56" y="-11" width="118" height="119">
<path d="M173.821 -11H56V107.536H173.821V-11Z" fill="white"/>
</mask>
<g mask="url(#mask14_7565_16585)">
<path d="M123.211 49.3029C123.211 49.3029 123.733 52.0754 125.636 52.341C125.636 52.341 128.883 53.2739 129.721 49.6827C129.735 49.6212 129.762 49.4303 129.759 49.315C129.743 48.786 129.642 47.1989 128.992 45.9049C128.913 45.748 128.547 45.0159 128.547 45.0159L126.743 40.7387C126.743 40.7387 125.494 37.7633 127.952 35.836C128.141 35.6878 129.532 35.0161 129.532 35.0161L132.439 33.7978L133.188 33.2776C133.188 33.2776 133.529 32.9582 133.665 32.8078C134.06 32.3765 135.088 31.7388 137.117 33.2907C137.378 33.451 137.81 33.2984 137.81 33.2984L143.727 30.0156L138.026 33.5706C138.026 33.5706 137.329 34.0832 136.611 33.4389L135.881 32.9538C135.881 32.9538 134.604 32.2854 133.95 33.1744C133.904 33.2369 133.745 33.4433 133.61 33.5355C133.109 33.8768 131.807 34.7077 130.637 34.9744C130.637 34.9744 127.915 35.7438 127.18 37.7611C127.18 37.7611 126.504 39.3986 127.769 42.1041C127.769 42.1041 129.316 45.4352 129.871 47.2088C129.923 47.3767 129.988 47.7872 130.027 48.0627C130.05 48.2197 130.063 48.4501 130.063 48.4501L130.038 51.0195C130.038 51.0195 130.054 53.6723 128.525 53.5999L124.852 53.6701C124.852 53.6701 124.46 53.6712 124.314 53.6295C124.011 53.5428 123.529 53.2926 123.423 52.5813C123.408 52.4859 123.376 51.8646 123.376 51.8646L123.211 49.3029Z" fill="#F8B218"/>
</g>
<mask id="mask15_7565_16585" style="mask-type:luminance" maskUnits="userSpaceOnUse" x="56" y="-11" width="118" height="119">
<path d="M173.821 -11H56V107.536H173.821V-11Z" fill="white"/>
</mask>
<g mask="url(#mask15_7565_16585)">
<path d="M122.062 46.5128L122.783 52.2607C122.783 52.2607 122.852 54.1979 124.135 54.4009C124.135 54.4009 127.057 54.7686 128.97 54.199C129.013 54.1869 129.048 54.1649 128.962 54.1726C128.316 54.2341 125.537 54.481 124.784 54.2758C124.784 54.2758 123.235 54.0782 123.2 52.7754L122.401 46.4766" fill="white"/>
</g>
<mask id="mask16_7565_16585" style="mask-type:luminance" maskUnits="userSpaceOnUse" x="56" y="-11" width="118" height="119">
<path d="M173.821 -11H56V107.536H173.821V-11Z" fill="white"/>
</mask>
<g mask="url(#mask16_7565_16585)">
<path d="M123.742 54.8224C123.742 54.8224 124.293 55.1593 125.314 55.1023L129.276 54.9519C129.276 54.9519 130.674 54.9629 130.423 53.6908L131.407 45.75L130.873 53.7325C130.873 53.7325 130.995 55.2603 129.475 55.4085L125.118 55.4513C125.116 55.4502 123.87 55.482 123.742 54.8224Z" fill="white"/>
</g>
<mask id="mask17_7565_16585" style="mask-type:luminance" maskUnits="userSpaceOnUse" x="56" y="-11" width="118" height="119">
<path d="M173.821 -11H56V107.536H173.821V-11Z" fill="white"/>
</mask>
<g mask="url(#mask17_7565_16585)">
<path d="M105.961 77.455C106.951 77.7678 107.651 77.3003 108.039 76.0567L109.384 71.7532C108.996 71.559 108.763 71.4371 108.705 71.3954C108.603 71.3394 108.585 71.2505 108.619 71.1419L108.76 70.6875L111.447 71.537L111.306 71.9914C111.272 72.099 111.183 72.1549 111.069 72.1429L110.43 72.0715L109.091 76.3531C108.675 77.6833 107.936 78.3879 106.889 78.4845C106.548 78.5196 106.195 78.479 105.829 78.3627C105.464 78.2475 105.1 78.085 104.758 77.8578C104.932 77.4133 105.056 77.1675 105.112 77.1389C105.169 77.1093 105.24 77.1082 105.305 77.1279C105.37 77.1488 105.453 77.1861 105.55 77.2531C105.647 77.32 105.791 77.3881 105.963 77.4429L105.961 77.455Z" fill="#F8B218"/>
</g>
<mask id="mask18_7565_16585" style="mask-type:luminance" maskUnits="userSpaceOnUse" x="56" y="-11" width="118" height="119">
<path d="M173.821 -11H56V107.536H173.821V-11Z" fill="white"/>
</mask>
<g mask="url(#mask18_7565_16585)">
<path d="M113.463 79.2268C114.024 79.2772 114.564 79.0533 115.07 78.5748L115.371 75.1888C115.306 75.1603 115.098 75.0956 114.744 74.9957C114.634 74.9627 114.585 74.8793 114.595 74.7663L114.638 74.2812L115.446 74.3536L116.444 74.4436L116.009 79.342C116.362 79.4419 116.57 79.5066 116.636 79.5352C116.746 79.5681 116.796 79.6405 116.786 79.7536L116.743 80.2387L115.34 80.1125C115.206 80.1004 115.123 80.0137 115.09 79.8732L115.066 79.2575C114.474 79.8183 113.818 80.0664 113.1 80.0027C112.495 79.9478 112.041 79.702 111.74 79.2772C111.459 78.8657 111.325 78.341 111.386 77.6638L111.637 74.842C111.285 74.7421 111.086 74.6785 111.021 74.6499C110.911 74.617 110.851 74.5325 110.86 74.4195L110.903 73.9453L112.72 74.1089L112.398 77.7429C112.359 78.172 112.418 78.5298 112.598 78.7844C112.779 79.0402 113.061 79.1785 113.464 79.2147L113.463 79.2268Z" fill="#F8B218"/>
</g>
<mask id="mask19_7565_16585" style="mask-type:luminance" maskUnits="userSpaceOnUse" x="56" y="-11" width="118" height="119">
<path d="M173.821 -11H56V107.536H173.821V-11Z" fill="white"/>
</mask>
<g mask="url(#mask19_7565_16585)">
<path d="M119.629 75.0204C120.087 74.3256 120.66 73.9206 121.349 73.8076C121.95 73.7088 122.448 73.8229 122.846 74.1698C123.219 74.499 123.471 74.9973 123.577 75.646L124.029 78.4316C124.395 78.4403 124.613 78.4502 124.684 78.4623C124.799 78.4667 124.879 78.5336 124.897 78.6456L124.976 79.1274L123.174 79.4227L122.59 75.8216C122.445 74.926 121.98 74.521 121.19 74.6505C120.635 74.7416 120.167 75.0939 119.785 75.6976L120.329 79.0528C120.352 79.0495 120.581 79.0572 120.996 79.0813C121.11 79.0857 121.179 79.1549 121.198 79.2668L121.274 79.7366L118.684 80.1613L118.608 79.6916C118.589 79.5796 118.621 79.494 118.729 79.4534L119.354 79.2251L118.698 75.1872C118.332 75.1784 118.102 75.1707 118.032 75.1587C117.917 75.1543 117.859 75.084 117.842 74.9721L117.766 74.5023L118.565 74.3706L119.143 74.2762C119.278 74.2543 119.377 74.307 119.443 74.4332L119.632 75.0335L119.629 75.0204Z" fill="#F8B218"/>
</g>
<mask id="mask20_7565_16585" style="mask-type:luminance" maskUnits="userSpaceOnUse" x="56" y="-11" width="118" height="119">
<path d="M173.821 -11H56V107.536H173.821V-11Z" fill="white"/>
</mask>
<g mask="url(#mask20_7565_16585)">
<path d="M128.851 77.7314C128.171 78.0047 127.531 77.9816 126.91 77.671C126.259 77.3461 125.761 76.7666 125.427 75.9248C125.1 75.1038 125.055 74.3772 125.283 73.7C125.527 73.0031 126.055 72.4982 126.839 72.1821C127.237 72.0219 127.81 71.9385 128.559 71.9297L129.111 73.3192L128.692 73.4871C128.587 73.5288 128.518 73.508 128.455 73.4114C128.428 73.3741 128.367 73.2511 128.254 73.0283C128.141 72.8055 128.09 72.7046 128.085 72.6936C127.896 72.7078 127.763 72.7375 127.671 72.7507C127.449 72.8033 127.257 72.8681 127.068 72.9449C126.88 73.0207 126.702 73.1535 126.547 73.3126C126.392 73.4728 126.28 73.677 126.211 73.8998C126.081 74.3674 126.148 74.9019 126.4 75.533C126.651 76.164 126.999 76.6108 127.412 76.8588C127.822 77.097 128.259 77.1277 128.741 76.9345C129.18 76.7578 129.509 76.4549 129.726 76.0247C129.763 75.9369 129.828 75.8864 129.902 75.8567C129.975 75.8271 130.036 75.8271 130.102 75.8732L130.492 76.1202C130.269 76.8434 129.708 77.3856 128.851 77.7314Z" fill="#F8B218"/>
</g>
<mask id="mask21_7565_16585" style="mask-type:luminance" maskUnits="userSpaceOnUse" x="56" y="-11" width="118" height="119">
<path d="M173.821 -11H56V107.536H173.821V-11Z" fill="white"/>
</mask>
<g mask="url(#mask21_7565_16585)">
<path d="M132.788 75.3726C132.448 75.2892 132.164 75.0389 131.917 74.6328L130.099 71.6343L129.512 71.9943C129.454 72.0294 129.409 72.0437 129.354 72.0382C129.298 72.0327 129.253 71.98 129.217 71.923L129.012 71.5838L129.746 70.9879L129.018 69.3514C128.988 69.3031 128.985 69.2526 129.005 69.1999C129.025 69.1473 129.058 69.1143 129.116 69.0781L129.549 68.8125L130.569 70.495L131.963 69.6401L132.344 70.269L130.95 71.125L132.732 74.0654C132.861 74.2783 133.004 74.4034 133.158 74.4419C133.313 74.4792 133.486 74.4397 133.64 74.3453C133.736 74.286 133.801 74.2202 133.857 74.1587C133.913 74.0983 133.953 74.0336 133.982 73.9754C134.013 73.9172 134.024 73.87 134.051 73.8272C134.077 73.7844 134.105 73.7416 134.124 73.7295C134.163 73.7054 134.213 73.701 134.287 73.7361L134.783 73.9886C134.711 74.218 134.609 74.4408 134.444 74.6482C134.279 74.8556 134.092 75.0247 133.87 75.1597C133.487 75.3945 133.128 75.456 132.788 75.3726Z" fill="#F8B218"/>
</g>
<mask id="mask22_7565_16585" style="mask-type:luminance" maskUnits="userSpaceOnUse" x="56" y="-11" width="118" height="119">
<path d="M173.821 -11H56V107.536H173.821V-11Z" fill="white"/>
</mask>
<g mask="url(#mask22_7565_16585)">
<path d="M132.002 67.5351C131.911 67.4934 131.845 67.4298 131.788 67.3595C131.732 67.2893 131.677 67.2026 131.655 67.1038C131.633 67.005 131.618 66.915 131.628 66.8195C131.638 66.7241 131.663 66.6461 131.703 66.5539C131.745 66.4617 131.808 66.3959 131.878 66.3388C131.948 66.2817 132.025 66.2335 132.123 66.2115C132.222 66.1895 132.303 66.1819 132.397 66.1917C132.492 66.2016 132.577 66.2346 132.669 66.2763C132.76 66.318 132.841 66.3827 132.899 66.453C132.956 66.5232 132.995 66.6077 133.017 66.7065C133.039 66.8053 133.046 66.8876 133.036 66.9831C133.027 67.0786 133.003 67.1565 132.961 67.2487C132.92 67.3409 132.856 67.4067 132.787 67.4638C132.717 67.5209 132.639 67.5692 132.541 67.5911C132.443 67.6131 132.362 67.6208 132.267 67.6109C132.171 67.601 132.094 67.5769 132.002 67.5351ZM137.768 71.5555L138.072 71.9342L136.034 73.5969L135.729 73.2183C135.664 73.1393 135.661 73.0262 135.724 72.9439C135.789 72.8616 136.154 72.4324 136.154 72.4324L133.593 69.255C133.593 69.255 133.1 69.5261 133.007 69.5722C132.914 69.6194 132.805 69.5909 132.741 69.5118L132.443 69.142L133.851 67.9928L136.923 71.8035C136.923 71.8035 137.408 71.5401 137.501 71.4929C137.595 71.449 137.705 71.4765 137.768 71.5555Z" fill="#F8B218"/>
</g>
<mask id="mask23_7565_16585" style="mask-type:luminance" maskUnits="userSpaceOnUse" x="56" y="-11" width="118" height="119">
<path d="M173.821 -11H56V107.536H173.821V-11Z" fill="white"/>
</mask>
<g mask="url(#mask23_7565_16585)">
<path d="M137.466 64.4481C137.791 64.2824 138.135 64.1957 138.478 64.1814C138.821 64.1672 139.176 64.2407 139.529 64.3867C139.881 64.5327 140.23 64.7511 140.569 65.0496C140.909 65.3492 141.168 65.6697 141.357 66.0023C141.546 66.3348 141.664 66.6806 141.694 67.0252C141.725 67.3687 141.683 67.7243 141.561 68.0701C141.44 68.4147 141.245 68.7407 140.97 69.0557C140.694 69.3707 140.398 69.6066 140.073 69.7724C139.748 69.9381 139.403 70.0248 139.061 70.0391C138.718 70.0534 138.362 69.9798 138.002 69.8426C137.642 69.7054 137.309 69.4695 136.969 69.1709C136.631 68.8713 136.356 68.5684 136.175 68.2259C135.994 67.8846 135.876 67.5389 135.846 67.1953C135.815 66.8518 135.856 66.4962 135.979 66.1504C136.1 65.8058 136.295 65.4798 136.57 65.1648C136.845 64.8498 137.142 64.6139 137.466 64.4481ZM140.804 67.2195C140.695 66.7607 140.394 66.2986 139.886 65.8497C139.379 65.4008 138.884 65.1594 138.418 65.11C137.952 65.0595 137.534 65.2636 137.161 65.6895C136.968 65.9112 136.838 66.1285 136.772 66.3414C136.705 66.5544 136.705 66.7958 136.751 67.0175C136.797 67.2392 136.892 67.4741 137.05 67.7057C137.208 67.9362 137.415 68.1798 137.67 68.4048C137.924 68.6287 138.174 68.7901 138.421 68.9185C138.669 69.0469 138.912 69.1117 139.137 69.1292C139.362 69.1468 139.582 69.1007 139.784 69.0074C139.986 68.9141 140.199 68.7714 140.394 68.5508C140.766 68.1217 140.913 67.6783 140.804 67.2195Z" fill="#F8B218"/>
</g>
<mask id="mask24_7565_16585" style="mask-type:luminance" maskUnits="userSpaceOnUse" x="56" y="-11" width="118" height="119">
<path d="M173.821 -11H56V107.536H173.821V-11Z" fill="white"/>
</mask>
<g mask="url(#mask24_7565_16585)">
<path d="M140.288 61.6196C140.015 60.8326 140.043 60.128 140.371 59.5079C140.656 58.9679 141.048 58.6375 141.564 58.5289C142.05 58.4301 142.597 58.53 143.174 58.8384L145.65 60.1631C145.879 59.8756 146.019 59.7055 146.071 59.6572C146.144 59.5672 146.245 59.5452 146.345 59.5979L146.773 59.8262L145.916 61.4473L142.714 59.7351C141.919 59.3092 141.316 59.4366 140.941 60.1467C140.677 60.6472 140.671 61.2354 140.917 61.905L143.9 63.5008C143.911 63.481 144.056 63.3021 144.327 62.9849C144.399 62.8949 144.496 62.8829 144.595 62.9356L145.013 63.1595L143.781 65.4907L143.364 65.2679C143.264 65.2141 143.215 65.1372 143.249 65.0264L143.446 64.3876L139.856 62.468C139.627 62.7567 139.482 62.9356 139.431 62.9849C139.358 63.0738 139.267 63.0771 139.168 63.0245L138.75 62.8017L139.131 62.0817L139.406 61.5614C139.469 61.4418 139.571 61.3924 139.711 61.4165L140.3 61.6295L140.288 61.6196Z" fill="#F8B218"/>
</g>
<path d="M3.192 113V104.912H4.32V113H3.192ZM0.36 105.704V104.672H7.14V105.704H0.36ZM12.804 113V109.676C12.804 109.244 12.668 108.888 12.396 108.608C12.124 108.328 11.772 108.188 11.34 108.188C11.052 108.188 10.796 108.252 10.572 108.38C10.348 108.508 10.172 108.684 10.044 108.908C9.916 109.132 9.852 109.388 9.852 109.676L9.408 109.424C9.408 108.992 9.504 108.608 9.696 108.272C9.888 107.936 10.156 107.672 10.5 107.48C10.844 107.28 11.232 107.18 11.664 107.18C12.096 107.18 12.476 107.276 12.804 107.468C13.14 107.66 13.404 107.928 13.596 108.272C13.788 108.616 13.884 109.012 13.884 109.46V113H12.804ZM8.772 113V104.432H9.852V113H8.772ZM15.8382 113V107.3H16.9182V113H15.8382ZM16.3782 106.16C16.1782 106.16 16.0142 106.096 15.8862 105.968C15.7582 105.832 15.6942 105.664 15.6942 105.464C15.6942 105.272 15.7582 105.112 15.8862 104.984C16.0142 104.848 16.1782 104.78 16.3782 104.78C16.5782 104.78 16.7422 104.848 16.8702 104.984C16.9982 105.112 17.0622 105.272 17.0622 105.464C17.0622 105.664 16.9982 105.832 16.8702 105.968C16.7422 106.096 16.5782 106.16 16.3782 106.16ZM23.0218 113V109.676C23.0218 109.244 22.8858 108.888 22.6138 108.608C22.3418 108.328 21.9898 108.188 21.5578 108.188C21.2698 108.188 21.0138 108.252 20.7898 108.38C20.5658 108.508 20.3898 108.684 20.2618 108.908C20.1338 109.132 20.0698 109.388 20.0698 109.676L19.6258 109.424C19.6258 108.992 19.7218 108.608 19.9138 108.272C20.1058 107.936 20.3738 107.672 20.7178 107.48C21.0618 107.28 21.4498 107.18 21.8818 107.18C22.3138 107.18 22.6938 107.288 23.0218 107.504C23.3578 107.72 23.6218 108.004 23.8138 108.356C24.0058 108.7 24.1018 109.068 24.1018 109.46V113H23.0218ZM18.9898 113V107.3H20.0698V113H18.9898ZM29.692 113L27.028 110.084L29.668 107.3H30.976L28.036 110.372L28.084 109.748L31.084 113H29.692ZM26.044 113V104.432H27.124V113H26.044ZM39.4487 113.12C38.8487 113.12 38.2927 113.012 37.7807 112.796C37.2687 112.572 36.8207 112.264 36.4367 111.872C36.0607 111.48 35.7687 111.024 35.5607 110.504C35.3527 109.984 35.2487 109.428 35.2487 108.836C35.2487 108.236 35.3527 107.676 35.5607 107.156C35.7687 106.636 36.0607 106.184 36.4367 105.8C36.8207 105.408 37.2647 105.104 37.7687 104.888C38.2807 104.664 38.8367 104.552 39.4367 104.552C40.0927 104.552 40.6687 104.664 41.1647 104.888C41.6607 105.112 42.1007 105.416 42.4847 105.8L41.7047 106.58C41.4407 106.284 41.1167 106.052 40.7327 105.884C40.3567 105.716 39.9247 105.632 39.4367 105.632C38.9967 105.632 38.5927 105.712 38.2247 105.872C37.8567 106.024 37.5367 106.244 37.2647 106.532C36.9927 106.82 36.7807 107.16 36.6287 107.552C36.4847 107.944 36.4127 108.372 36.4127 108.836C36.4127 109.3 36.4847 109.728 36.6287 110.12C36.7807 110.512 36.9927 110.852 37.2647 111.14C37.5367 111.428 37.8567 111.652 38.2247 111.812C38.5927 111.964 38.9967 112.04 39.4367 112.04C39.9567 112.04 40.4087 111.956 40.7927 111.788C41.1767 111.612 41.5007 111.376 41.7647 111.08L42.5447 111.848C42.1607 112.248 41.7087 112.56 41.1887 112.784C40.6767 113.008 40.0967 113.12 39.4487 113.12ZM46.6592 113.12C46.0912 113.12 45.5792 112.992 45.1232 112.736C44.6672 112.472 44.3072 112.116 44.0432 111.668C43.7792 111.22 43.6472 110.712 43.6472 110.144C43.6472 109.584 43.7752 109.08 44.0312 108.632C44.2952 108.184 44.6472 107.832 45.0872 107.576C45.5352 107.312 46.0352 107.18 46.5872 107.18C47.1152 107.18 47.5792 107.3 47.9792 107.54C48.3872 107.78 48.7032 108.112 48.9272 108.536C49.1592 108.96 49.2752 109.44 49.2752 109.976C49.2752 110.056 49.2712 110.144 49.2632 110.24C49.2552 110.328 49.2392 110.432 49.2152 110.552H44.4032V109.652H48.6392L48.2432 110C48.2432 109.616 48.1752 109.292 48.0392 109.028C47.9032 108.756 47.7112 108.548 47.4632 108.404C47.2152 108.252 46.9152 108.176 46.5632 108.176C46.1952 108.176 45.8712 108.256 45.5912 108.416C45.3112 108.576 45.0952 108.8 44.9432 109.088C44.7912 109.376 44.7152 109.716 44.7152 110.108C44.7152 110.508 44.7952 110.86 44.9552 111.164C45.1152 111.46 45.3432 111.692 45.6392 111.86C45.9352 112.02 46.2752 112.1 46.6592 112.1C46.9792 112.1 47.2712 112.044 47.5352 111.932C47.8072 111.82 48.0392 111.652 48.2312 111.428L48.9272 112.136C48.6552 112.456 48.3192 112.7 47.9192 112.868C47.5272 113.036 47.1072 113.12 46.6592 113.12ZM50.9328 113V104.432H52.0128V113H50.9328ZM56.7129 113.12C56.1449 113.12 55.6329 112.992 55.1769 112.736C54.7209 112.472 54.3609 112.116 54.0969 111.668C53.8329 111.22 53.7009 110.712 53.7009 110.144C53.7009 109.584 53.8289 109.08 54.0849 108.632C54.3489 108.184 54.7009 107.832 55.1409 107.576C55.5889 107.312 56.0889 107.18 56.6409 107.18C57.1689 107.18 57.6329 107.3 58.0329 107.54C58.4409 107.78 58.7569 108.112 58.9809 108.536C59.2129 108.96 59.3289 109.44 59.3289 109.976C59.3289 110.056 59.3249 110.144 59.3169 110.24C59.3089 110.328 59.2929 110.432 59.2689 110.552H54.4569V109.652H58.6929L58.2969 110C58.2969 109.616 58.2289 109.292 58.0929 109.028C57.9569 108.756 57.7649 108.548 57.5169 108.404C57.2689 108.252 56.9689 108.176 56.6169 108.176C56.2489 108.176 55.9249 108.256 55.6449 108.416C55.3649 108.576 55.1489 108.8 54.9969 109.088C54.8449 109.376 54.7689 109.716 54.7689 110.108C54.7689 110.508 54.8489 110.86 55.0089 111.164C55.1689 111.46 55.3969 111.692 55.6929 111.86C55.9889 112.02 56.3289 112.1 56.7129 112.1C57.0329 112.1 57.3249 112.044 57.5889 111.932C57.8609 111.82 58.0929 111.652 58.2849 111.428L58.9809 112.136C58.7089 112.456 58.3729 112.7 57.9729 112.868C57.5809 113.036 57.1609 113.12 56.7129 113.12ZM63.9865 113.12C63.5545 113.12 63.1625 113.032 62.8105 112.856C62.4665 112.672 62.1905 112.42 61.9825 112.1C61.7745 111.78 61.6585 111.416 61.6345 111.008V109.292C61.6585 108.876 61.7745 108.512 61.9825 108.2C62.1985 107.88 62.4785 107.632 62.8225 107.456C63.1745 107.272 63.5625 107.18 63.9865 107.18C64.5065 107.18 64.9745 107.312 65.3905 107.576C65.8145 107.84 66.1465 108.196 66.3865 108.644C66.6265 109.092 66.7465 109.596 66.7465 110.156C66.7465 110.716 66.6265 111.22 66.3865 111.668C66.1465 112.116 65.8145 112.472 65.3905 112.736C64.9745 112.992 64.5065 113.12 63.9865 113.12ZM63.8065 112.1C64.1665 112.1 64.4825 112.016 64.7545 111.848C65.0265 111.68 65.2425 111.452 65.4025 111.164C65.5625 110.868 65.6425 110.528 65.6425 110.144C65.6425 109.768 65.5625 109.432 65.4025 109.136C65.2425 108.84 65.0265 108.612 64.7545 108.452C64.4825 108.284 64.1705 108.2 63.8185 108.2C63.4585 108.2 63.1425 108.284 62.8705 108.452C62.5985 108.612 62.3865 108.84 62.2345 109.136C62.0825 109.432 62.0065 109.772 62.0065 110.156C62.0065 110.532 62.0785 110.868 62.2225 111.164C62.3745 111.452 62.5865 111.68 62.8585 111.848C63.1385 112.016 63.4545 112.1 63.8065 112.1ZM60.9865 113V104.432H62.0665V108.692L61.8625 110.072L62.0665 111.464V113H60.9865ZM68.4509 113V107.3H69.5309V113H68.4509ZM69.5309 109.748L69.1229 109.568C69.1229 108.84 69.2909 108.26 69.6269 107.828C69.9629 107.396 70.4469 107.18 71.0789 107.18C71.3669 107.18 71.6269 107.232 71.8589 107.336C72.0909 107.432 72.3069 107.596 72.5069 107.828L71.7989 108.56C71.6789 108.432 71.5469 108.34 71.4029 108.284C71.2589 108.228 71.0909 108.2 70.8989 108.2C70.4989 108.2 70.1709 108.328 69.9149 108.584C69.6589 108.84 69.5309 109.228 69.5309 109.748ZM75.9838 113.12C75.4638 113.12 74.9918 112.992 74.5678 112.736C74.1438 112.472 73.8078 112.116 73.5598 111.668C73.3198 111.22 73.1998 110.716 73.1998 110.156C73.1998 109.596 73.3198 109.092 73.5598 108.644C73.8078 108.196 74.1398 107.84 74.5558 107.576C74.9798 107.312 75.4558 107.18 75.9838 107.18C76.4158 107.18 76.7998 107.272 77.1358 107.456C77.4798 107.632 77.7558 107.88 77.9638 108.2C78.1718 108.512 78.2878 108.876 78.3118 109.292V111.008C78.2878 111.416 78.1718 111.78 77.9638 112.1C77.7638 112.42 77.4918 112.672 77.1478 112.856C76.8118 113.032 76.4238 113.12 75.9838 113.12ZM76.1638 112.1C76.6998 112.1 77.1318 111.92 77.4598 111.56C77.7878 111.192 77.9518 110.724 77.9518 110.156C77.9518 109.764 77.8758 109.424 77.7238 109.136C77.5798 108.84 77.3718 108.612 77.0998 108.452C76.8278 108.284 76.5118 108.2 76.1518 108.2C75.7918 108.2 75.4718 108.284 75.1918 108.452C74.9198 108.62 74.7038 108.852 74.5438 109.148C74.3918 109.436 74.3158 109.768 74.3158 110.144C74.3158 110.528 74.3918 110.868 74.5438 111.164C74.7038 111.452 74.9238 111.68 75.2038 111.848C75.4838 112.016 75.8038 112.1 76.1638 112.1ZM77.8798 113V111.464L78.0838 110.072L77.8798 108.692V107.3H78.9718V113H77.8798ZM81.8767 113V104.912H82.9567V113H81.8767ZM80.4727 108.284V107.3H84.3607V108.284H80.4727ZM85.9107 113V107.3H86.9907V113H85.9107ZM86.4507 106.16C86.2507 106.16 86.0867 106.096 85.9587 105.968C85.8307 105.832 85.7667 105.664 85.7667 105.464C85.7667 105.272 85.8307 105.112 85.9587 104.984C86.0867 104.848 86.2507 104.78 86.4507 104.78C86.6507 104.78 86.8147 104.848 86.9427 104.984C87.0707 105.112 87.1347 105.272 87.1347 105.464C87.1347 105.664 87.0707 105.832 86.9427 105.968C86.8147 106.096 86.6507 106.16 86.4507 106.16ZM91.6663 113.12C91.1063 113.12 90.6023 112.988 90.1543 112.724C89.7063 112.46 89.3503 112.104 89.0863 111.656C88.8223 111.2 88.6903 110.692 88.6903 110.132C88.6903 109.58 88.8223 109.084 89.0863 108.644C89.3503 108.196 89.7063 107.84 90.1543 107.576C90.6023 107.312 91.1063 107.18 91.6663 107.18C92.2183 107.18 92.7183 107.312 93.1663 107.576C93.6223 107.832 93.9823 108.184 94.2463 108.632C94.5103 109.08 94.6423 109.58 94.6423 110.132C94.6423 110.692 94.5103 111.2 94.2463 111.656C93.9823 112.104 93.6223 112.46 93.1663 112.724C92.7183 112.988 92.2183 113.12 91.6663 113.12ZM91.6663 112.076C92.0263 112.076 92.3463 111.992 92.6263 111.824C92.9063 111.656 93.1263 111.428 93.2863 111.14C93.4463 110.844 93.5263 110.508 93.5263 110.132C93.5263 109.764 93.4423 109.436 93.2743 109.148C93.1143 108.86 92.8943 108.636 92.6143 108.476C92.3423 108.308 92.0263 108.224 91.6663 108.224C91.3063 108.224 90.9863 108.308 90.7063 108.476C90.4263 108.636 90.2063 108.86 90.0463 109.148C89.8863 109.436 89.8063 109.764 89.8063 110.132C89.8063 110.508 89.8863 110.844 90.0463 111.14C90.2063 111.428 90.4263 111.656 90.7063 111.824C90.9863 111.992 91.3063 112.076 91.6663 112.076ZM100.371 113V109.676C100.371 109.244 100.235 108.888 99.9632 108.608C99.6912 108.328 99.3392 108.188 98.9072 108.188C98.6192 108.188 98.3632 108.252 98.1392 108.38C97.9152 108.508 97.7392 108.684 97.6112 108.908C97.4832 109.132 97.4192 109.388 97.4192 109.676L96.9752 109.424C96.9752 108.992 97.0712 108.608 97.2632 108.272C97.4552 107.936 97.7232 107.672 98.0672 107.48C98.4112 107.28 98.7992 107.18 99.2312 107.18C99.6632 107.18 100.043 107.288 100.371 107.504C100.707 107.72 100.971 108.004 101.163 108.356C101.355 108.7 101.451 109.068 101.451 109.46V113H100.371ZM96.3392 113V107.3H97.4192V113H96.3392ZM108.582 113V104.912H109.71V113H108.582ZM105.75 105.704V104.672H112.53V105.704H105.75ZM118.194 113V109.676C118.194 109.244 118.058 108.888 117.786 108.608C117.514 108.328 117.162 108.188 116.73 108.188C116.442 108.188 116.186 108.252 115.962 108.38C115.738 108.508 115.562 108.684 115.434 108.908C115.306 109.132 115.242 109.388 115.242 109.676L114.798 109.424C114.798 108.992 114.894 108.608 115.086 108.272C115.278 107.936 115.546 107.672 115.89 107.48C116.234 107.28 116.622 107.18 117.054 107.18C117.486 107.18 117.866 107.276 118.194 107.468C118.53 107.66 118.794 107.928 118.986 108.272C119.178 108.616 119.274 109.012 119.274 109.46V113H118.194ZM114.162 113V104.432H115.242V113H114.162ZM121.228 113V107.3H122.308V113H121.228ZM121.768 106.16C121.568 106.16 121.404 106.096 121.276 105.968C121.148 105.832 121.084 105.664 121.084 105.464C121.084 105.272 121.148 105.112 121.276 104.984C121.404 104.848 121.568 104.78 121.768 104.78C121.968 104.78 122.132 104.848 122.26 104.984C122.388 105.112 122.452 105.272 122.452 105.464C122.452 105.664 122.388 105.832 122.26 105.968C122.132 106.096 121.968 106.16 121.768 106.16ZM128.412 113V109.676C128.412 109.244 128.276 108.888 128.004 108.608C127.732 108.328 127.38 108.188 126.948 108.188C126.66 108.188 126.404 108.252 126.18 108.38C125.956 108.508 125.78 108.684 125.652 108.908C125.524 109.132 125.46 109.388 125.46 109.676L125.016 109.424C125.016 108.992 125.112 108.608 125.304 108.272C125.496 107.936 125.764 107.672 126.108 107.48C126.452 107.28 126.84 107.18 127.272 107.18C127.704 107.18 128.084 107.288 128.412 107.504C128.748 107.72 129.012 108.004 129.204 108.356C129.396 108.7 129.492 109.068 129.492 109.46V113H128.412ZM124.38 113V107.3H125.46V113H124.38ZM135.082 113L132.418 110.084L135.058 107.3H136.366L133.426 110.372L133.474 109.748L136.474 113H135.082ZM131.434 113V104.432H132.514V113H131.434ZM141.059 113V104.672H142.187V113H141.059ZM141.827 113V111.968H146.291V113H141.827ZM147.98 113V107.3H149.06V113H147.98ZM148.52 106.16C148.32 106.16 148.156 106.096 148.028 105.968C147.9 105.832 147.836 105.664 147.836 105.464C147.836 105.272 147.9 105.112 148.028 104.984C148.156 104.848 148.32 104.78 148.52 104.78C148.72 104.78 148.884 104.848 149.012 104.984C149.14 105.112 149.204 105.272 149.204 105.464C149.204 105.664 149.14 105.832 149.012 105.968C148.884 106.096 148.72 106.16 148.52 106.16ZM153.567 113.12C153.039 113.12 152.563 112.992 152.139 112.736C151.715 112.472 151.379 112.116 151.131 111.668C150.891 111.22 150.771 110.716 150.771 110.156C150.771 109.596 150.891 109.092 151.131 108.644C151.379 108.196 151.715 107.84 152.139 107.576C152.563 107.312 153.035 107.18 153.555 107.18C153.995 107.18 154.383 107.272 154.719 107.456C155.063 107.632 155.335 107.88 155.535 108.2C155.743 108.512 155.859 108.876 155.883 109.292V111.008C155.859 111.416 155.743 111.78 155.535 112.1C155.335 112.42 155.063 112.672 154.719 112.856C154.383 113.032 153.999 113.12 153.567 113.12ZM153.735 112.1C154.271 112.1 154.703 111.92 155.031 111.56C155.359 111.192 155.523 110.724 155.523 110.156C155.523 109.764 155.447 109.424 155.295 109.136C155.151 108.84 154.943 108.612 154.671 108.452C154.407 108.284 154.095 108.2 153.735 108.2C153.375 108.2 153.055 108.284 152.775 108.452C152.503 108.62 152.287 108.852 152.127 109.148C151.967 109.436 151.887 109.768 151.887 110.144C151.887 110.528 151.967 110.868 152.127 111.164C152.287 111.452 152.503 111.68 152.775 111.848C153.055 112.016 153.375 112.1 153.735 112.1ZM155.463 115.388V111.572L155.655 110.18L155.463 108.8V107.3H156.543V115.388H155.463ZM160.899 113.12C160.435 113.12 160.015 113.016 159.639 112.808C159.271 112.592 158.983 112.296 158.775 111.92C158.567 111.544 158.463 111.108 158.463 110.612V107.3H159.543V110.564C159.543 110.876 159.595 111.148 159.699 111.38C159.811 111.604 159.971 111.776 160.179 111.896C160.387 112.016 160.631 112.076 160.911 112.076C161.335 112.076 161.667 111.944 161.907 111.68C162.147 111.408 162.267 111.036 162.267 110.564V107.3H163.347V110.612C163.347 111.108 163.243 111.544 163.035 111.92C162.827 112.296 162.539 112.592 162.171 112.808C161.811 113.016 161.387 113.12 160.899 113.12ZM167.879 113.12C167.319 113.12 166.815 112.988 166.367 112.724C165.919 112.46 165.563 112.104 165.299 111.656C165.035 111.2 164.903 110.692 164.903 110.132C164.903 109.58 165.035 109.084 165.299 108.644C165.563 108.196 165.919 107.84 166.367 107.576C166.815 107.312 167.319 107.18 167.879 107.18C168.431 107.18 168.931 107.312 169.379 107.576C169.835 107.832 170.195 108.184 170.459 108.632C170.723 109.08 170.855 109.58 170.855 110.132C170.855 110.692 170.723 111.2 170.459 111.656C170.195 112.104 169.835 112.46 169.379 112.724C168.931 112.988 168.431 113.12 167.879 113.12ZM167.879 112.076C168.239 112.076 168.559 111.992 168.839 111.824C169.119 111.656 169.339 111.428 169.499 111.14C169.659 110.844 169.739 110.508 169.739 110.132C169.739 109.764 169.655 109.436 169.487 109.148C169.327 108.86 169.107 108.636 168.827 108.476C168.555 108.308 168.239 108.224 167.879 108.224C167.519 108.224 167.199 108.308 166.919 108.476C166.639 108.636 166.419 108.86 166.259 109.148C166.099 109.436 166.019 109.764 166.019 110.132C166.019 110.508 166.099 110.844 166.259 111.14C166.419 111.428 166.639 111.656 166.919 111.824C167.199 111.992 167.519 112.076 167.879 112.076ZM172.552 113V107.3H173.632V113H172.552ZM173.632 109.748L173.224 109.568C173.224 108.84 173.392 108.26 173.728 107.828C174.064 107.396 174.548 107.18 175.18 107.18C175.468 107.18 175.728 107.232 175.96 107.336C176.192 107.432 176.408 107.596 176.608 107.828L175.9 108.56C175.78 108.432 175.648 108.34 175.504 108.284C175.36 108.228 175.192 108.2 175 108.2C174.6 108.2 174.272 108.328 174.016 108.584C173.76 108.84 173.632 109.228 173.632 109.748ZM182.423 113.12C181.943 113.12 181.519 113.028 181.151 112.844C180.791 112.652 180.495 112.396 180.263 112.076L181.055 111.344C181.207 111.568 181.395 111.74 181.619 111.86C181.851 111.98 182.107 112.04 182.387 112.04C182.667 112.04 182.915 111.98 183.131 111.86C183.347 111.74 183.515 111.564 183.635 111.332C183.763 111.092 183.827 110.8 183.827 110.456V104.672H184.955V110.396C184.955 110.948 184.843 111.428 184.619 111.836C184.403 112.244 184.103 112.56 183.719 112.784C183.343 113.008 182.911 113.12 182.423 113.12ZM189.409 113.12C188.945 113.12 188.525 113.016 188.149 112.808C187.781 112.592 187.493 112.296 187.285 111.92C187.077 111.544 186.973 111.108 186.973 110.612V107.3H188.053V110.564C188.053 110.876 188.105 111.148 188.209 111.38C188.321 111.604 188.481 111.776 188.689 111.896C188.897 112.016 189.141 112.076 189.421 112.076C189.845 112.076 190.177 111.944 190.417 111.68C190.657 111.408 190.777 111.036 190.777 110.564V107.3H191.857V110.612C191.857 111.108 191.753 111.544 191.545 111.92C191.337 112.296 191.049 112.592 190.681 112.808C190.321 113.016 189.897 113.12 189.409 113.12ZM197.816 113V109.676C197.816 109.244 197.68 108.888 197.408 108.608C197.136 108.328 196.784 108.188 196.352 108.188C196.064 108.188 195.808 108.252 195.584 108.38C195.36 108.508 195.184 108.684 195.056 108.908C194.928 109.132 194.864 109.388 194.864 109.676L194.42 109.424C194.42 108.992 194.516 108.608 194.708 108.272C194.9 107.936 195.168 107.672 195.512 107.48C195.856 107.28 196.244 107.18 196.676 107.18C197.108 107.18 197.488 107.288 197.816 107.504C198.152 107.72 198.416 108.004 198.608 108.356C198.8 108.7 198.896 109.068 198.896 109.46V113H197.816ZM193.784 113V107.3H194.864V113H193.784ZM203.443 113.12C202.883 113.12 202.375 112.988 201.919 112.724C201.471 112.46 201.115 112.104 200.851 111.656C200.595 111.2 200.467 110.696 200.467 110.144C200.467 109.584 200.595 109.08 200.851 108.632C201.115 108.184 201.471 107.832 201.919 107.576C202.375 107.312 202.883 107.18 203.443 107.18C203.883 107.18 204.291 107.264 204.667 107.432C205.043 107.592 205.367 107.828 205.639 108.14L204.919 108.86C204.743 108.652 204.527 108.496 204.271 108.392C204.023 108.28 203.747 108.224 203.443 108.224C203.083 108.224 202.763 108.308 202.483 108.476C202.203 108.636 201.983 108.86 201.823 109.148C201.663 109.436 201.583 109.768 201.583 110.144C201.583 110.52 201.663 110.852 201.823 111.14C201.983 111.428 202.203 111.656 202.483 111.824C202.763 111.992 203.083 112.076 203.443 112.076C203.747 112.076 204.023 112.024 204.271 111.92C204.527 111.808 204.747 111.648 204.931 111.44L205.639 112.16C205.375 112.464 205.051 112.7 204.667 112.868C204.291 113.036 203.883 113.12 203.443 113.12ZM207.995 113V104.912H209.075V113H207.995ZM206.591 108.284V107.3H210.479V108.284H206.591ZM212.029 113V107.3H213.109V113H212.029ZM212.569 106.16C212.369 106.16 212.205 106.096 212.077 105.968C211.949 105.832 211.885 105.664 211.885 105.464C211.885 105.272 211.949 105.112 212.077 104.984C212.205 104.848 212.369 104.78 212.569 104.78C212.769 104.78 212.933 104.848 213.061 104.984C213.189 105.112 213.253 105.272 213.253 105.464C213.253 105.664 213.189 105.832 213.061 105.968C212.933 106.096 212.769 106.16 212.569 106.16ZM217.785 113.12C217.225 113.12 216.721 112.988 216.273 112.724C215.825 112.46 215.469 112.104 215.205 111.656C214.941 111.2 214.809 110.692 214.809 110.132C214.809 109.58 214.941 109.084 215.205 108.644C215.469 108.196 215.825 107.84 216.273 107.576C216.721 107.312 217.225 107.18 217.785 107.18C218.337 107.18 218.837 107.312 219.285 107.576C219.741 107.832 220.101 108.184 220.365 108.632C220.629 109.08 220.761 109.58 220.761 110.132C220.761 110.692 220.629 111.2 220.365 111.656C220.101 112.104 219.741 112.46 219.285 112.724C218.837 112.988 218.337 113.12 217.785 113.12ZM217.785 112.076C218.145 112.076 218.465 111.992 218.745 111.824C219.025 111.656 219.245 111.428 219.405 111.14C219.565 110.844 219.645 110.508 219.645 110.132C219.645 109.764 219.561 109.436 219.393 109.148C219.233 108.86 219.013 108.636 218.733 108.476C218.461 108.308 218.145 108.224 217.785 108.224C217.425 108.224 217.105 108.308 216.825 108.476C216.545 108.636 216.325 108.86 216.165 109.148C216.005 109.436 215.925 109.764 215.925 110.132C215.925 110.508 216.005 110.844 216.165 111.14C216.325 111.428 216.545 111.656 216.825 111.824C217.105 111.992 217.425 112.076 217.785 112.076ZM226.49 113V109.676C226.49 109.244 226.354 108.888 226.082 108.608C225.81 108.328 225.458 108.188 225.026 108.188C224.738 108.188 224.482 108.252 224.258 108.38C224.034 108.508 223.858 108.684 223.73 108.908C223.602 109.132 223.538 109.388 223.538 109.676L223.094 109.424C223.094 108.992 223.19 108.608 223.382 108.272C223.574 107.936 223.842 107.672 224.186 107.48C224.53 107.28 224.918 107.18 225.35 107.18C225.782 107.18 226.162 107.288 226.49 107.504C226.826 107.72 227.09 108.004 227.282 108.356C227.474 108.7 227.57 109.068 227.57 109.46V113H226.49ZM222.458 113V107.3H223.538V113H222.458Z" fill="black"/>
</g>
<defs>
<clipPath id="clip0_7565_16585">
<rect width="229" height="118" fill="white"/>
</clipPath>
</defs>
</svg>
