<svg width="26" height="26" viewBox="0 0 26 26" fill="none" xmlns="http://www.w3.org/2000/svg">
<path d="M9.61616 13.0019C6.89668 13.0019 4.69264 10.7632 4.69264 8.00097C4.69264 5.23872 6.89668 3 9.61616 3C12.3356 3 14.5397 5.23872 14.5397 8.00097C14.5397 10.7632 12.3356 13.0019 9.61616 13.0019ZM7.85831 14.8773H11.374C11.8279 14.8773 12.2741 14.9242 12.701 15.0062C12.6203 15.729 12.9857 16.3971 13.5396 16.7566C12.9011 17.1707 12.5126 17.9912 12.7703 18.839C12.9241 19.343 13.1319 19.8353 13.4011 20.308C13.6704 20.7808 13.9858 21.2106 14.3397 21.5974C14.9436 22.2576 15.8629 22.3163 16.5399 21.9373V21.9724C16.5399 22.3319 16.6437 22.6952 16.8437 23H2.14241C1.51158 23.0039 1 22.4843 1 21.8435C1 17.9951 4.06951 14.8773 7.85831 14.8773ZM17.7707 11.5251C17.7707 11.2516 17.9438 11.0055 18.2054 10.9469C18.6093 10.8531 19.0324 10.8023 19.4632 10.8023C19.894 10.8023 20.3171 10.8531 20.721 10.9469C20.9826 11.0055 21.1557 11.2516 21.1557 11.5251V12.7206C21.4595 12.8535 21.748 13.0215 22.0134 13.2207L22.9712 12.662C23.2058 12.5253 23.4982 12.5565 23.6828 12.7558C23.9751 13.0723 24.2329 13.4278 24.4559 13.8185C24.679 14.2092 24.8521 14.6155 24.9752 15.0297C25.056 15.2914 24.9329 15.5649 24.6983 15.7017L23.7367 16.2643C23.752 16.4206 23.7636 16.5808 23.7636 16.7449C23.7636 16.909 23.7559 17.0652 23.7367 17.2254L24.6983 17.788C24.9329 17.9248 25.0522 18.1983 24.9752 18.46C24.8483 18.8742 24.6752 19.2805 24.4559 19.6712C24.2367 20.0619 23.9751 20.4174 23.6828 20.7339C23.4982 20.9332 23.202 20.9644 22.9712 20.8277L22.0134 20.269C21.748 20.4682 21.4634 20.6362 21.1557 20.7691V21.9646C21.1557 22.2381 20.9826 22.4843 20.721 22.5429C20.3171 22.6366 19.894 22.6874 19.4632 22.6874C19.0324 22.6874 18.6093 22.6366 18.2054 22.5429C17.9438 22.4843 17.7707 22.2381 17.7707 21.9646V20.7691C17.463 20.6362 17.1707 20.4682 16.9053 20.2651L15.9552 20.8238C15.7205 20.9605 15.4282 20.9293 15.2436 20.73C14.9513 20.4135 14.6935 20.058 14.4704 19.6673C14.2473 19.2766 14.0742 18.8703 13.9512 18.4561C13.8704 18.1944 13.9935 17.9209 14.2281 17.7841L15.182 17.2254C15.1667 17.0652 15.1551 16.905 15.1551 16.741C15.1551 16.5769 15.1628 16.4167 15.182 16.2565L14.2243 15.6978C13.9896 15.561 13.8704 15.2875 13.9473 15.0258C14.0742 14.6116 14.2435 14.2053 14.4666 13.8146C14.6897 13.4239 14.9474 13.0684 15.2397 12.7519C15.4244 12.5526 15.7167 12.5214 15.9513 12.6581L16.9053 13.2168C17.1707 13.0176 17.463 12.8496 17.7707 12.7128V11.5251ZM21.3134 16.741C21.3134 15.7056 20.4864 14.8656 19.4632 14.8656C18.44 14.8656 17.613 15.7056 17.613 16.741C17.613 17.7763 18.44 18.6163 19.4632 18.6163C20.4864 18.6163 21.3134 17.7763 21.3134 16.741Z" fill="#302929"/>
</svg>
