<svg width="16" height="16" viewBox="0 0 16 16" fill="none" xmlns="http://www.w3.org/2000/svg">
<path fill-rule="evenodd" clip-rule="evenodd" d="M8 16C12.4183 16 16 12.4183 16 8C16 3.58167 12.4183 0 8 0C3.58167 0 0 3.58167 0 8C0 12.4183 3.58167 16 8 16ZM8.93333 4C8.93333 3.4845 8.5155 3.06667 8 3.06667C7.4845 3.06667 7.06667 3.4845 7.06667 4V7.73333C7.06667 8.3961 7.6039 8.93333 8.26667 8.93333H10.6667C11.1822 8.93333 11.6 8.5155 11.6 8C11.6 7.4845 11.1822 7.06667 10.6667 7.06667H8.93333V4Z" fill="#4799E7"/>
</svg>
