<svg width="26" height="26" viewBox="0 0 26 26" fill="none" xmlns="http://www.w3.org/2000/svg">
<path d="M23.9418 9.15999C24.081 9.53389 23.9635 9.95077 23.6633 10.2172L21.779 11.9105C21.8269 12.2672 21.853 12.6325 21.853 13.0021C21.853 13.3718 21.8269 13.7371 21.779 14.0938L23.6633 15.7871C23.9635 16.0535 24.081 16.4704 23.9418 16.8443C23.7503 17.3557 23.5197 17.8457 23.2542 18.3184L23.0497 18.6665C22.7625 19.1393 22.4405 19.5862 22.088 20.0074C21.8312 20.3169 21.4048 20.42 21.0218 20.2997L18.598 19.539C18.0148 19.9816 17.3708 20.3512 16.6832 20.6306L16.1393 23.0846C16.0522 23.4757 15.7476 23.7851 15.3473 23.8496C14.7467 23.9484 14.1288 24 13.4978 24C12.8668 24 12.2489 23.9484 11.6484 23.8496C11.248 23.7851 10.9434 23.4757 10.8564 23.0846L10.3124 20.6306C9.62486 20.3512 8.98081 19.9816 8.39769 19.539L5.97817 20.304C5.59523 20.4243 5.16877 20.3169 4.91202 20.0117C4.55953 19.5905 4.23751 19.1436 3.9503 18.6708L3.74578 18.3227C3.48032 17.85 3.24969 17.36 3.05821 16.8486C2.91896 16.4747 3.03646 16.0578 3.33672 15.7914L5.22098 14.0981C5.17312 13.7371 5.14701 13.3718 5.14701 13.0021C5.14701 12.6325 5.17312 12.2672 5.22098 11.9105L3.33672 10.2172C3.03646 9.95077 2.91896 9.53389 3.05821 9.15999C3.24969 8.64856 3.48032 8.15862 3.74578 7.68588L3.9503 7.33776C4.23751 6.86501 4.55953 6.41805 4.91202 5.99687C5.16877 5.68744 5.59523 5.58429 5.97817 5.70463L8.40204 6.46533C8.98516 6.02266 9.62921 5.65306 10.3168 5.37371L10.8607 2.91971C10.9478 2.52862 11.2524 2.21918 11.6527 2.15472C12.2533 2.05157 12.8712 2 13.5022 2C14.1332 2 14.7511 2.05157 15.3516 2.15042C15.752 2.21489 16.0566 2.52432 16.1436 2.91541L16.6876 5.36941C17.3751 5.64876 18.0192 6.01836 18.6023 6.46103L21.0262 5.70033C21.4091 5.58 21.8356 5.68744 22.0923 5.99258C22.4448 6.41375 22.7668 6.86071 23.054 7.33346L23.2586 7.68158C23.524 8.15433 23.7547 8.64427 23.9461 9.15569L23.9418 9.15999ZM13.5022 16.4403C15.4256 16.4403 16.9835 14.9017 16.9835 13.0021C16.9835 11.1026 15.4256 9.56398 13.5022 9.56398C11.5787 9.56398 10.0209 11.1026 10.0209 13.0021C10.0209 14.9017 11.5787 16.4403 13.5022 16.4403Z" fill="#302929"/>
</svg>
