<svg width="22" height="16" viewBox="0 0 22 16" fill="none" xmlns="http://www.w3.org/2000/svg">
<g clip-path="url(#clip0_255_83)">
<path d="M8.4136 2.39156C8.4136 1.07134 9.48372 0.000976562 10.8039 0.000976562C12.1244 0.000976562 13.1947 1.07131 13.1947 2.39156C13.1947 3.71202 12.1244 4.78213 10.8039 4.78213C9.48372 4.78213 8.4136 3.7118 8.4136 2.39156V2.39156ZM21.6145 11.1675C21.5342 10.4031 21.0695 10.0459 20.6614 9.96657C20.3877 9.91324 20.1535 9.9872 20.0641 10.1552C20.0283 10.2225 19.9689 10.4033 20.1912 10.6254C20.6064 11.0407 20.5646 11.19 20.5516 11.2155C20.4993 11.3218 20.1874 11.3656 19.8729 11.3518C20.0588 10.8755 20.0537 10.5303 19.8647 10.3488C19.7066 10.1969 19.0695 10.0528 18.7935 11.0778L16.2891 9.85388C16.1554 9.49032 15.4413 7.54428 15.0952 6.50901C14.7306 5.41743 13.892 5.39945 13.1524 5.3833C13.0761 5.38173 8.54579 5.38173 8.4695 5.3833C7.72964 5.39946 6.89131 5.4172 6.52633 6.50901C6.18029 7.54413 5.46601 9.4902 5.33267 9.85388L2.82833 11.0778C2.76281 10.8431 2.6185 10.4686 2.33532 10.2968C2.16484 10.1932 1.8177 10.1669 1.65217 10.3647C1.48724 10.5631 1.56277 10.8758 1.7487 11.3521C1.43413 11.3661 1.12284 11.3224 1.06999 11.2157C1.05757 11.1903 1.0151 11.0413 1.43064 10.6256C1.65265 10.4034 1.59317 10.2225 1.55745 10.1554C1.46829 9.98757 1.23384 9.91349 0.960449 9.96682C0.552264 10.0461 0.0876149 10.4034 0.00727513 11.1677C-0.0330245 11.5527 0.0918558 11.8861 0.369252 12.1314C0.716372 12.4385 1.29191 12.5985 1.98219 12.5985C2.36335 12.5985 2.77938 12.5493 3.21145 12.4499C4.7889 12.0858 6.92573 11.2131 6.94179 11.1753L7.93154 8.76748L7.93262 12.2832L4.14266 12.2833C3.35526 12.2833 2.7148 13.1192 2.7148 14.1474C2.7148 15.1757 3.35523 16.0118 4.14266 16.0118L17.3433 15.993C18.1307 15.993 18.7714 15.1566 18.7714 14.1288C18.7714 13.1006 18.1307 12.2642 17.3433 12.2642H13.6902V8.76768L14.7324 11.1755L14.7483 11.2131C18.2331 12.7393 19.6394 12.5985 19.6394 12.5985C20.33 12.6065 20.9052 12.4387 21.2524 12.1315C21.5294 11.8859 21.6544 11.5529 21.6143 11.1676L21.6145 11.1675Z" fill="#4799E7"/>
</g>
<defs>
<clipPath id="clip0_255_83">
<rect width="21.6216" height="16" fill="white"/>
</clipPath>
</defs>
</svg>
