<svg width="20" height="20" viewBox="0 0 20 20" fill="none" xmlns="http://www.w3.org/2000/svg">
<path d="M20 10C20 15.5236 15.5236 20 10 20C4.47644 20 0 15.5236 0 10C0 4.47845 4.47644 0 10 0C15.5215 0 20 4.47845 20 10Z" fill="#395398"/>
<path d="M10.5906 17.7333V11.1425H12.8016L13.1319 8.57507H10.5906V6.93592C10.5906 6.19287 10.796 5.68542 11.8633 5.68542H13.2225V3.38779C12.9869 3.35557 12.1794 3.28711 11.241 3.28711C9.27969 3.28711 7.93857 4.48324 7.93857 6.6822V8.57708H5.71948V11.1445H7.93656V17.7354H10.5906V17.7333Z" fill="white"/>
</svg>
