<svg width="30" height="30" viewBox="0 0 30 30" fill="none" xmlns="http://www.w3.org/2000/svg">
<path d="M22.0321 12.8893C22.0321 14.9061 21.3773 16.7691 20.2742 18.2806L25.838 23.8476C26.3873 24.3969 26.3873 25.2888 25.838 25.8381C25.2887 26.3873 24.3965 26.3873 23.8472 25.8381L18.2834 20.271C16.7716 21.3783 14.9083 22.0286 12.8911 22.0286C7.84151 22.0286 3.75 17.9379 3.75 12.8893C3.75 7.84071 7.84151 3.75 12.8911 3.75C17.9406 3.75 22.0321 7.84071 22.0321 12.8893ZM11.8363 16.7559C11.8363 17.3403 12.3066 17.8104 12.8911 17.8104C13.4756 17.8104 13.9458 17.3403 13.9458 16.7559V13.9438H16.7584C17.3429 13.9438 17.8132 13.4737 17.8132 12.8893C17.8132 12.3049 17.3429 11.8348 16.7584 11.8348H13.9458V9.02267C13.9458 8.43828 13.4756 7.96813 12.8911 7.96813C12.3066 7.96813 11.8363 8.43828 11.8363 9.02267V11.8348H9.02369C8.43919 11.8348 7.96896 12.3049 7.96896 12.8893C7.96896 13.4737 8.43919 13.9438 9.02369 13.9438H11.8363V16.7559Z" fill="#96999C"/>
</svg>
