<svg width="20" height="20" viewBox="0 0 20 20" fill="none" xmlns="http://www.w3.org/2000/svg">
<path d="M20 9.85705C20 7.27997 19.0393 4.92751 17.4564 3.13866C15.6124 1.20482 13.0117 0 10.1295 0C4.53442 0 0 4.53951 0 10.1409C0 12.718 0.960733 15.0704 2.5436 16.8613C4.38756 18.7952 6.98827 20 9.87047 20C15.4656 19.998 20 15.4584 20 9.85705Z" fill="#32BA46"/>
<path d="M10.0764 15.8348C8.98513 15.8348 7.91425 15.5448 6.96575 14.9976L4.53638 15.8348L5.03613 13.2598C4.25286 12.1856 3.84082 10.9236 3.84082 9.59221C3.84082 6.14928 6.63735 3.34961 10.0764 3.34961C13.5155 3.34961 16.312 6.14928 16.312 9.59221C16.312 13.0331 13.5134 15.8348 10.0764 15.8348ZM7.07794 13.9745L7.2656 14.0929C8.11211 14.6239 9.08508 14.9057 10.0764 14.9057C13.0035 14.9057 15.3839 12.5226 15.3839 9.59221C15.3839 6.66184 13.0035 4.27875 10.0764 4.27875C7.14933 4.27875 4.76892 6.66184 4.76892 9.59221C4.76892 10.7848 5.15852 11.914 5.89691 12.8595L6.02746 13.027L5.75413 14.4339L7.07794 13.9745Z" fill="white"/>
<path d="M6.92795 7.19283C6.92795 7.19283 7.29307 6.55162 7.59291 6.5169C7.89072 6.48015 8.27624 6.48015 8.37823 6.67619C8.48226 6.87222 8.94529 8.00557 8.94529 8.00557C8.94529 8.00557 9.02484 8.20161 8.90245 8.38948C8.78006 8.57939 8.50673 8.85303 8.50673 8.85303C8.50673 8.85303 8.35375 9.04907 8.50673 9.25532C8.65972 9.46156 8.89429 9.84343 9.38384 10.3335C9.87134 10.8216 10.8096 11.1708 10.8096 11.1708C10.8096 11.1708 10.9443 11.1892 11.0299 11.1034C11.1156 11.0176 11.5786 10.4397 11.5786 10.4397C11.5786 10.4397 11.7275 10.2478 11.9744 10.3601C12.2212 10.4724 13.29 11.0074 13.29 11.0074C13.29 11.0074 13.4144 11.0523 13.4144 11.2422C13.4144 11.4322 13.339 11.8937 13.1819 12.0509C13.0248 12.2081 12.5679 12.6901 11.8826 12.6901C11.1952 12.6901 9.5613 12.1305 8.69031 11.2586C7.81933 10.3866 7.04625 9.50241 6.86267 8.69783C6.67909 7.88917 6.70357 7.52364 6.92795 7.19283Z" fill="white"/>
</svg>
