<svg width="12" height="12" viewBox="0 0 12 12" fill="none" xmlns="http://www.w3.org/2000/svg">
<g clip-path="url(#clip0_1160_15)">
<path d="M5.13478 6.00003L0.979152 1.8444C0.740215 1.60546 0.740318 1.21812 0.979152 0.97919C1.21809 0.740254 1.60543 0.740254 1.84436 0.97919L5.99999 5.13482L10.1556 0.97919C10.3946 0.740254 10.7819 0.740254 11.0208 0.97919C11.2598 1.21813 11.2598 1.60547 11.0208 1.8444L6.8652 6.00003L11.0208 10.1557C11.2597 10.3946 11.2597 10.7819 11.0208 11.0209C10.7819 11.2597 10.3945 11.2597 10.1556 11.0209L5.99999 6.86524L1.84436 11.0209C1.60542 11.2597 1.21808 11.2597 0.979152 11.0209C0.740318 10.7819 0.740318 10.3946 0.979152 10.1557L5.13478 6.00003Z" fill="#BF9395"/>
</g>
<defs>
<clipPath id="clip0_1160_15">
<rect width="12" height="12" fill="white"/>
</clipPath>
</defs>
</svg>
