<svg width="26" height="26" viewBox="0 0 26 26" fill="none" xmlns="http://www.w3.org/2000/svg">
<g clip-path="url(#clip0_7765_23656)">
<path d="M13.0014 13.9091C16.0139 13.9091 18.456 11.467 18.456 8.45455C18.456 5.44208 16.0139 3 13.0014 3C9.98896 3 7.54688 5.44208 7.54688 8.45455C7.54688 11.467 9.98896 13.9091 13.0014 13.9091Z" fill="black"/>
<path d="M20.7628 16.7921C19.9034 16.3513 18.5344 15.733 16.8974 15.2913C16.6701 15.2274 16.4304 15.3539 16.3514 15.5767L14.4883 20.7745L13.9242 17.9533L14.7951 15.3406C14.8413 15.2021 14.8182 15.0494 14.7321 14.9308C14.6469 14.8123 14.5102 14.7422 14.3637 14.7422H11.6364C11.4899 14.7422 11.3532 14.8123 11.2679 14.9308C11.1818 15.0493 11.1587 15.2021 11.2049 15.3406L12.0759 17.9533L11.5118 20.7745L9.64867 15.5767C9.56966 15.3539 9.32907 15.2278 9.10266 15.2913C7.46557 15.733 6.09661 16.3513 5.23726 16.7921C3.8576 17.5006 3 18.8988 3 20.4404V21.1059C3 22.1086 3.81588 22.9241 4.8182 22.9241H11.6364H14.3637H21.1818C22.1842 22.9241 23 22.1086 23 21.1059V20.4404C23 18.8988 22.1424 17.5006 20.7628 16.7921Z" fill="black"/>
</g>
<defs>
<clipPath id="clip0_7765_23656">
<rect width="20" height="20" fill="white" transform="translate(3 3)"/>
</clipPath>
</defs>
</svg>
