<svg width="26" height="26" viewBox="0 0 26 26" fill="none" xmlns="http://www.w3.org/2000/svg">
<path d="M17.0939 2H4.81412C4.44449 1.99973 4.07843 2.07234 3.73689 2.21366C3.39534 2.35499 3.08501 2.56227 2.82364 2.82364C2.56227 3.08501 2.35499 3.39534 2.21366 3.73689C2.07234 4.07843 1.99973 4.44449 2 4.81412V21.1872C1.99973 21.5568 2.07234 21.9229 2.21366 22.2644C2.35499 22.606 2.56227 22.9163 2.82364 23.1777C3.08501 23.439 3.39534 23.6463 3.73689 23.7876C4.07843 23.929 4.44449 24.0016 4.81412 24.0013H14.5254C13.2384 23.2193 12.2427 22.0375 11.6904 20.6365C11.1381 19.2355 11.0595 17.6923 11.4667 16.2424C11.8738 14.7925 12.7442 13.5157 13.9451 12.607C15.146 11.6983 16.6113 11.2076 18.1172 11.2098C18.7227 11.2082 19.3254 11.2909 19.908 11.4554V4.81412C19.9083 4.44449 19.8357 4.07843 19.6944 3.73689C19.553 3.39534 19.3458 3.08501 19.0844 2.82364C18.823 2.56227 18.5127 2.35499 18.1712 2.21366C17.8296 2.07234 17.4635 1.99973 17.0939 2ZM10.954 11.7215H5.83744C5.63389 11.7215 5.43867 11.6406 5.29474 11.4967C5.15081 11.3528 5.06995 11.1576 5.06995 10.954C5.06995 10.7505 5.15081 10.5553 5.29474 10.4113C5.43867 10.2674 5.63389 10.1865 5.83744 10.1865H10.954C11.1576 10.1865 11.3528 10.2674 11.4967 10.4113C11.6406 10.5553 11.7215 10.7505 11.7215 10.954C11.7215 11.1576 11.6406 11.3528 11.4967 11.4967C11.3528 11.6406 11.1576 11.7215 10.954 11.7215ZM13.0007 7.62824H5.83744C5.63389 7.62824 5.43867 7.54738 5.29474 7.40345C5.15081 7.25952 5.06995 7.0643 5.06995 6.86075C5.06995 6.6572 5.15081 6.46199 5.29474 6.31806C5.43867 6.17413 5.63389 6.09327 5.83744 6.09327H13.0007C13.2042 6.09327 13.3994 6.17413 13.5433 6.31806C13.6873 6.46199 13.7681 6.6572 13.7681 6.86075C13.7681 7.0643 13.6873 7.25952 13.5433 7.40345C13.3994 7.54738 13.2042 7.62824 13.0007 7.62824Z" fill="black"/>
<path d="M18.1184 12.2334C16.9547 12.2334 15.8171 12.5785 14.8494 13.225C13.8818 13.8716 13.1276 14.7906 12.6823 15.8657C12.2369 16.9409 12.1204 18.124 12.3474 19.2654C12.5745 20.4068 13.1349 21.4552 13.9578 22.2781C14.7807 23.101 15.8291 23.6614 16.9705 23.8885C18.1119 24.1155 19.295 23.999 20.3702 23.5536C21.4454 23.1083 22.3643 22.3541 23.0109 21.3865C23.6574 20.4189 24.0025 19.2812 24.0025 18.1175C24.0006 16.5575 23.3801 15.062 22.277 13.9589C21.174 12.8558 19.6784 12.2353 18.1184 12.2334ZM20.1958 17.6365L18.1491 19.6831C18.078 19.7546 17.9935 19.8112 17.9004 19.8499C17.8074 19.8885 17.7076 19.9084 17.6068 19.9084C17.506 19.9084 17.4062 19.8885 17.3131 19.8499C17.2201 19.8112 17.1355 19.7546 17.0644 19.6831L16.0411 18.6598C15.9657 18.5896 15.9052 18.5048 15.8633 18.4107C15.8213 18.3165 15.7988 18.2149 15.797 18.1119C15.7951 18.0088 15.8141 17.9065 15.8527 17.8109C15.8913 17.7153 15.9488 17.6285 16.0216 17.5556C16.0945 17.4827 16.1813 17.4253 16.2769 17.3867C16.3725 17.3481 16.4748 17.3291 16.5779 17.331C16.6809 17.3328 16.7825 17.3553 16.8767 17.3973C16.9708 17.4392 17.0556 17.4997 17.1258 17.5751L17.6068 18.055L19.1111 16.5518C19.1813 16.4764 19.2661 16.4159 19.3602 16.374C19.4543 16.332 19.556 16.3095 19.659 16.3076C19.7621 16.3058 19.8644 16.3248 19.96 16.3634C20.0556 16.402 20.1424 16.4594 20.2153 16.5323C20.2881 16.6052 20.3456 16.692 20.3842 16.7876C20.4228 16.8831 20.4418 16.9855 20.4399 17.0885C20.4381 17.1916 20.4156 17.2932 20.3736 17.3874C20.3317 17.4815 20.2712 17.5662 20.1958 17.6365Z" fill="black"/>
</svg>
