<?xml version="1.0" encoding="UTF-8"?>
<svg xmlns="http://www.w3.org/2000/svg" xmlns:xlink="http://www.w3.org/1999/xlink" width="26px" height="26px" viewBox="0 0 26 26" version="1.1">
<g id="surface1">
<path style=" stroke:none;fill-rule:nonzero;fill:rgb(13.725491%,12.156863%,12.54902%);fill-opacity:1;" d="M 24.042969 10.734375 L 20.875 7.605469 C 20.679688 7.417969 20.417969 7.316406 20.148438 7.3125 L 15.4375 7.3125 L 15.4375 5.183594 C 15.476562 4.609375 15.042969 4.109375 14.46875 4.0625 L 2.609375 4.0625 C 2.027344 4.101562 1.585938 4.601562 1.625 5.183594 L 1.625 16.753906 C 1.585938 17.335938 2.027344 17.835938 2.609375 17.875 L 3.25 17.875 C 3.238281 18.011719 3.238281 18.144531 3.25 18.28125 C 3.25 19.851562 4.523438 21.125 6.09375 21.125 C 7.664062 21.125 8.9375 19.851562 8.9375 18.28125 C 8.949219 18.144531 8.949219 18.011719 8.9375 17.875 L 17.0625 17.875 C 17.050781 18.011719 17.050781 18.144531 17.0625 18.28125 C 17.0625 19.851562 18.335938 21.125 19.90625 21.125 C 21.476562 21.125 22.75 19.851562 22.75 18.28125 C 22.761719 18.144531 22.761719 18.011719 22.75 17.875 L 23.351562 17.875 C 23.941406 17.835938 24.394531 17.335938 24.375 16.746094 L 24.375 11.546875 C 24.378906 11.242188 24.257812 10.949219 24.042969 10.734375 Z M 6.09375 19.5 C 5.421875 19.5 4.875 18.953125 4.875 18.28125 C 4.875 18.140625 4.898438 18.003906 4.949219 17.875 C 5.042969 17.59375 5.246094 17.359375 5.507812 17.226562 C 5.59375 17.175781 5.683594 17.140625 5.777344 17.109375 C 5.878906 17.082031 5.988281 17.066406 6.09375 17.0625 C 6.765625 17.0625 7.3125 17.609375 7.3125 18.28125 C 7.3125 18.953125 6.765625 19.5 6.09375 19.5 Z M 8.078125 16.25 C 6.976562 15.167969 5.210938 15.167969 4.109375 16.25 L 3.25 16.25 L 3.25 5.6875 L 13.8125 5.6875 L 13.8125 16.25 Z M 21.125 18.28125 C 21.125 18.953125 20.578125 19.5 19.90625 19.5 C 19.234375 19.5 18.6875 18.953125 18.6875 18.28125 C 18.6875 17.609375 19.234375 17.0625 19.90625 17.0625 C 20.015625 17.0625 20.121094 17.078125 20.222656 17.109375 C 20.605469 17.214844 20.910156 17.5 21.035156 17.875 C 21.089844 18.003906 21.121094 18.140625 21.125 18.28125 Z M 22.75 16.25 L 21.890625 16.25 C 20.789062 15.171875 19.03125 15.171875 17.933594 16.25 L 15.4375 16.25 L 15.4375 8.9375 L 19.964844 8.9375 L 22.75 11.804688 Z M 22.75 16.25 "/>
</g>
</svg>
